%TF.GenerationSoftware,KiCad,Pcbnew,9.0.0*%
%TF.CreationDate,2025-03-26T11:57:41+11:00*%
%TF.ProjectId,Wing Board 4 TRS Mk IV,57696e67-2042-46f6-9172-642034205452,rev?*%
%TF.SameCoordinates,Original*%
%TF.FileFunction,Copper,L1,Top*%
%TF.FilePolarity,Positive*%
%FSLAX46Y46*%
G04 Gerber Fmt 4.6, Leading zero omitted, Abs format (unit mm)*
G04 Created by KiCad (PCBNEW 9.0.0) date 2025-03-26 11:57:41*
%MOMM*%
%LPD*%
G01*
G04 APERTURE LIST*
G04 Aperture macros list*
%AMHorizOval*
0 Thick line with rounded ends*
0 $1 width*
0 $2 $3 position (X,Y) of the first rounded end (center of the circle)*
0 $4 $5 position (X,Y) of the second rounded end (center of the circle)*
0 Add line between two ends*
20,1,$1,$2,$3,$4,$5,0*
0 Add two circle primitives to create the rounded ends*
1,1,$1,$2,$3*
1,1,$1,$4,$5*%
G04 Aperture macros list end*
%TA.AperFunction,EtchedComponent*%
%ADD10C,0.120000*%
%TD*%
%TA.AperFunction,ComponentPad*%
%ADD11R,1.600000X1.600000*%
%TD*%
%TA.AperFunction,ComponentPad*%
%ADD12C,1.600000*%
%TD*%
%TA.AperFunction,ComponentPad*%
%ADD13C,2.100000*%
%TD*%
%TA.AperFunction,ComponentPad*%
%ADD14C,1.400000*%
%TD*%
%TA.AperFunction,ComponentPad*%
%ADD15O,1.400000X1.400000*%
%TD*%
%TA.AperFunction,ComponentPad*%
%ADD16HorizOval,2.400000X-0.212132X-0.212132X0.212132X0.212132X0*%
%TD*%
%TA.AperFunction,ComponentPad*%
%ADD17R,1.650000X1.650000*%
%TD*%
%TA.AperFunction,ComponentPad*%
%ADD18C,1.650000*%
%TD*%
%TA.AperFunction,ViaPad*%
%ADD19C,0.889000*%
%TD*%
%TA.AperFunction,Conductor*%
%ADD20C,0.406400*%
%TD*%
G04 APERTURE END LIST*
D10*
%TO.C,H2*%
X107917222Y-4240000D02*
G75*
G02*
X101082778Y-4240000I-3417222J0D01*
G01*
X101082778Y-4240000D02*
G75*
G02*
X107917222Y-4240000I3417222J0D01*
G01*
%TO.C,H1*%
X7317022Y-4240000D02*
G75*
G02*
X482578Y-4240000I-3417222J0D01*
G01*
X482578Y-4240000D02*
G75*
G02*
X7317022Y-4240000I3417222J0D01*
G01*
%TD*%
D11*
%TO.P,C6,1*%
%TO.N,/3-*%
X78875467Y-3098800D03*
D12*
%TO.P,C6,2*%
%TO.N,/XH3-*%
X78875467Y-5598800D03*
%TD*%
D13*
%TO.P,J5,1,S*%
%TO.N,AGND*%
X73037200Y-41452800D03*
%TO.P,J5,2,SN*%
X56807200Y-41452800D03*
%TO.P,J5,3,R*%
%TO.N,/X3-*%
X73037200Y-35102800D03*
%TO.P,J5,4,RN*%
%TO.N,Net-(J4-RN)*%
X56807200Y-35102800D03*
%TO.P,J5,5,T*%
%TO.N,/X3+*%
X73037200Y-28752800D03*
%TO.P,J5,6,TN*%
%TO.N,Net-(J4-TN)*%
X56807200Y-28752800D03*
%TD*%
D14*
%TO.P,R6,1*%
%TO.N,/XH3-*%
X78765400Y-11099800D03*
D15*
%TO.P,R6,2*%
%TO.N,AGND*%
X81305400Y-11099800D03*
%TD*%
D14*
%TO.P,R12,1*%
%TO.N,/XH2-*%
X38328600Y-15240000D03*
D15*
%TO.P,R12,2*%
%TO.N,/X2-*%
X38328600Y-17780000D03*
%TD*%
D14*
%TO.P,R4,1*%
%TO.N,/XH2-*%
X38303200Y-10820400D03*
D15*
%TO.P,R4,2*%
%TO.N,AGND*%
X40843200Y-10820400D03*
%TD*%
D11*
%TO.P,C5,1*%
%TO.N,/3+*%
X70205600Y-3098800D03*
D12*
%TO.P,C5,2*%
%TO.N,/XH3+*%
X70205600Y-5598800D03*
%TD*%
D16*
%TO.P,J2,R*%
%TO.N,/XH2+*%
X2899800Y-34100000D03*
%TO.P,J2,RN*%
%TO.N,unconnected-(J5-PadRN)*%
X4899800Y-35900000D03*
%TO.P,J2,S*%
%TO.N,AGND*%
X4899800Y-42000000D03*
%TO.P,J2,T*%
%TO.N,/XH1+*%
X2899800Y-39600000D03*
%TO.P,J2,TN*%
%TO.N,unconnected-(J5-PadTN)*%
X4899800Y-30400000D03*
%TD*%
D14*
%TO.P,R7,1*%
%TO.N,/XH4+*%
X87579200Y-11099800D03*
D15*
%TO.P,R7,2*%
%TO.N,AGND*%
X90119200Y-11099800D03*
%TD*%
D11*
%TO.P,C7,1*%
%TO.N,/4+*%
X87545333Y-3098800D03*
D12*
%TO.P,C7,2*%
%TO.N,/XH4+*%
X87545333Y-5598800D03*
%TD*%
D13*
%TO.P,J6,1,S*%
%TO.N,AGND*%
X95037200Y-41452800D03*
%TO.P,J6,2,SN*%
X78807200Y-41452800D03*
%TO.P,J6,3,R*%
%TO.N,/X4-*%
X95037200Y-35102800D03*
%TO.P,J6,4,RN*%
%TO.N,Net-(J2-RN)*%
X78807200Y-35102800D03*
%TO.P,J6,5,T*%
%TO.N,/X4+*%
X95037200Y-28752800D03*
%TO.P,J6,6,TN*%
%TO.N,Net-(J2-TN)*%
X78807200Y-28752800D03*
%TD*%
D14*
%TO.P,R16,1*%
%TO.N,/XH4-*%
X96443800Y-15214600D03*
D15*
%TO.P,R16,2*%
%TO.N,/X4-*%
X96443800Y-17754600D03*
%TD*%
D14*
%TO.P,R11,1*%
%TO.N,/XH2+*%
X29692600Y-15290800D03*
D15*
%TO.P,R11,2*%
%TO.N,/X2+*%
X29692600Y-17830800D03*
%TD*%
D14*
%TO.P,R5,1*%
%TO.N,/XH3+*%
X70205600Y-11099800D03*
D15*
%TO.P,R5,2*%
%TO.N,AGND*%
X72745600Y-11099800D03*
%TD*%
D11*
%TO.P,C4,1*%
%TO.N,/2-*%
X38252400Y-3175000D03*
D12*
%TO.P,C4,2*%
%TO.N,/XH2-*%
X38252400Y-5675000D03*
%TD*%
D11*
%TO.P,C3,1*%
%TO.N,/2+*%
X29667200Y-3175000D03*
D12*
%TO.P,C3,2*%
%TO.N,/XH2+*%
X29667200Y-5675000D03*
%TD*%
D14*
%TO.P,R9,1*%
%TO.N,/X1+*%
X12496800Y-17881600D03*
D15*
%TO.P,R9,2*%
%TO.N,/XH1+*%
X12496800Y-15341600D03*
%TD*%
D14*
%TO.P,R1,1*%
%TO.N,/XH1+*%
X12547600Y-11023600D03*
D15*
%TO.P,R1,2*%
%TO.N,AGND*%
X15087600Y-11023600D03*
%TD*%
D13*
%TO.P,J4,1,S*%
%TO.N,AGND*%
X51037200Y-41452800D03*
%TO.P,J4,2,SN*%
X34807200Y-41452800D03*
%TO.P,J4,3,R*%
%TO.N,/X2-*%
X51037200Y-35102800D03*
%TO.P,J4,4,RN*%
%TO.N,Net-(J6-RN)*%
X34807200Y-35102800D03*
%TO.P,J4,5,T*%
%TO.N,/X2+*%
X51037200Y-28752800D03*
%TO.P,J4,6,TN*%
%TO.N,Net-(J6-TN)*%
X34807200Y-28752800D03*
%TD*%
D17*
%TO.P,J1,1,Pin_1*%
%TO.N,V+*%
X48310800Y-10464800D03*
D18*
%TO.P,J1,2,Pin_2*%
%TO.N,V-*%
X48310800Y-7924800D03*
%TO.P,J1,3,Pin_3*%
%TO.N,/1+*%
X50850800Y-10464800D03*
%TO.P,J1,4,Pin_4*%
%TO.N,/1-*%
X50850800Y-7924800D03*
%TO.P,J1,5,Pin_5*%
%TO.N,/2+*%
X53390800Y-10464800D03*
%TO.P,J1,6,Pin_6*%
%TO.N,/2-*%
X53390800Y-7924800D03*
%TO.P,J1,7,Pin_7*%
%TO.N,/3+*%
X55930800Y-10464800D03*
%TO.P,J1,8,Pin_8*%
%TO.N,/3-*%
X55930800Y-7924800D03*
%TO.P,J1,9,Pin_9*%
%TO.N,/4+*%
X58470800Y-10464800D03*
%TO.P,J1,10,Pin_10*%
%TO.N,/4-*%
X58470800Y-7924800D03*
%TO.P,J1,11,Pin_11*%
%TO.N,AGND*%
X61010800Y-10464800D03*
%TO.P,J1,12,Pin_12*%
X61010800Y-7924800D03*
%TD*%
D14*
%TO.P,R13,1*%
%TO.N,/XH3+*%
X70154800Y-15163800D03*
D15*
%TO.P,R13,2*%
%TO.N,/X3+*%
X70154800Y-17703800D03*
%TD*%
D11*
%TO.P,C8,1*%
%TO.N,/4-*%
X96215200Y-3098800D03*
D12*
%TO.P,C8,2*%
%TO.N,/XH4-*%
X96215200Y-5598800D03*
%TD*%
D14*
%TO.P,R14,1*%
%TO.N,/XH3-*%
X78765400Y-15214600D03*
D15*
%TO.P,R14,2*%
%TO.N,/X3-*%
X78765400Y-17754600D03*
%TD*%
D16*
%TO.P,J7,R*%
%TO.N,/XH4+*%
X101899800Y-34100000D03*
%TO.P,J7,RN*%
%TO.N,unconnected-(J3-PadRN)*%
X103899800Y-35900000D03*
%TO.P,J7,S*%
%TO.N,AGND*%
X103899800Y-42000000D03*
%TO.P,J7,T*%
%TO.N,/XH3+*%
X101899800Y-39600000D03*
%TO.P,J7,TN*%
%TO.N,unconnected-(J3-PadTN)*%
X103899800Y-30400000D03*
%TD*%
D13*
%TO.P,J3,1,S*%
%TO.N,AGND*%
X29037200Y-41452800D03*
%TO.P,J3,2,SN*%
X12807200Y-41452800D03*
%TO.P,J3,3,R*%
%TO.N,/X1-*%
X29037200Y-35102800D03*
%TO.P,J3,4,RN*%
%TO.N,Net-(J7-RN)*%
X12807200Y-35102800D03*
%TO.P,J3,5,T*%
%TO.N,/X1+*%
X29037200Y-28752800D03*
%TO.P,J3,6,TN*%
%TO.N,Net-(J7-TN)*%
X12807200Y-28752800D03*
%TD*%
D14*
%TO.P,R8,1*%
%TO.N,/XH4-*%
X96393000Y-11074400D03*
D15*
%TO.P,R8,2*%
%TO.N,AGND*%
X98933000Y-11074400D03*
%TD*%
D14*
%TO.P,R10,1*%
%TO.N,/XH1-*%
X21056600Y-15392400D03*
D15*
%TO.P,R10,2*%
%TO.N,/X1-*%
X21056600Y-17932400D03*
%TD*%
D14*
%TO.P,R3,1*%
%TO.N,/XH2+*%
X29743400Y-10820400D03*
D15*
%TO.P,R3,2*%
%TO.N,AGND*%
X32283400Y-10820400D03*
%TD*%
D11*
%TO.P,C2,1*%
%TO.N,/1-*%
X21082000Y-3175000D03*
D12*
%TO.P,C2,2*%
%TO.N,/XH1-*%
X21082000Y-5675000D03*
%TD*%
D11*
%TO.P,C1,1*%
%TO.N,/1+*%
X12496800Y-3175000D03*
D12*
%TO.P,C1,2*%
%TO.N,/XH1+*%
X12496800Y-5675000D03*
%TD*%
D14*
%TO.P,R15,1*%
%TO.N,/XH4+*%
X87630000Y-15189200D03*
D15*
%TO.P,R15,2*%
%TO.N,/X4+*%
X87630000Y-17729200D03*
%TD*%
D14*
%TO.P,R2,1*%
%TO.N,/XH1-*%
X21031200Y-10922000D03*
D15*
%TO.P,R2,2*%
%TO.N,AGND*%
X23571200Y-10922000D03*
%TD*%
D19*
%TO.N,AGND*%
X61518800Y-31877000D03*
X16992600Y-32334200D03*
X83896200Y-31978600D03*
X39420800Y-32207200D03*
%TD*%
D20*
%TO.N,/XH2+*%
X3802000Y-33197800D02*
X2899800Y-34100000D01*
X9144000Y-24434800D02*
X9144000Y-30861000D01*
X9144000Y-30861000D02*
X6807200Y-33197800D01*
X13055600Y-20523200D02*
X9144000Y-24434800D01*
X22682200Y-20523200D02*
X13055600Y-20523200D01*
X27889200Y-15316200D02*
X22682200Y-20523200D01*
X29718000Y-15316200D02*
X27889200Y-15316200D01*
X6807200Y-33197800D02*
X3802000Y-33197800D01*
X29692600Y-15290800D02*
X29718000Y-15316200D01*
%TO.N,/X4+*%
X87630000Y-17729200D02*
X87604600Y-17754600D01*
X87604600Y-17754600D02*
X87604600Y-21437600D01*
X87604600Y-21437600D02*
X94919800Y-28752800D01*
X94919800Y-28752800D02*
X95037200Y-28752800D01*
%TO.N,/X2+*%
X50545800Y-28261400D02*
X50537200Y-28261400D01*
X42748200Y-20472400D02*
X32334200Y-20472400D01*
X51037200Y-28752800D02*
X50545800Y-28261400D01*
X50537200Y-28261400D02*
X42748200Y-20472400D01*
X32334200Y-20472400D02*
X29692600Y-17830800D01*
%TO.N,Net-(J6-RN)*%
X34366200Y-35128200D02*
X34315400Y-35179000D01*
X34332600Y-35128200D02*
X34307200Y-35102800D01*
%TO.N,Net-(J6-TN)*%
X34358000Y-28803600D02*
X34307200Y-28752800D01*
%TO.N,/1-*%
X22436200Y-703200D02*
X21082000Y-2057400D01*
X50901600Y-7874000D02*
X50901600Y-2633600D01*
X50901600Y-2633600D02*
X48971200Y-703200D01*
X21082000Y-2057400D02*
X21082000Y-3175000D01*
X48971200Y-703200D02*
X22436200Y-703200D01*
X50850800Y-7924800D02*
X50901600Y-7874000D01*
%TO.N,/1+*%
X14164523Y-3175000D02*
X12496800Y-3175000D01*
X50850800Y-10464800D02*
X50850800Y-12014200D01*
X46151800Y-12471400D02*
X42468800Y-8788400D01*
X50850800Y-12014200D02*
X50393600Y-12471400D01*
X42468800Y-8788400D02*
X19777923Y-8788400D01*
X19777923Y-8788400D02*
X14164523Y-3175000D01*
X50393600Y-12471400D02*
X46151800Y-12471400D01*
%TO.N,/2+*%
X43281600Y-7442200D02*
X45034200Y-9194800D01*
X29946600Y-3098800D02*
X29870400Y-3175000D01*
X45034200Y-9194800D02*
X52120800Y-9194800D01*
X29870400Y-3175000D02*
X29667200Y-3175000D01*
X52120800Y-9194800D02*
X53390800Y-10464800D01*
X35661600Y-7442200D02*
X43281600Y-7442200D01*
X31419800Y-3200400D02*
X35661600Y-7442200D01*
X29692600Y-3200400D02*
X31419800Y-3200400D01*
X29667200Y-3175000D02*
X29692600Y-3200400D01*
%TO.N,/3+*%
X62585600Y-9169400D02*
X63931800Y-7823200D01*
X55930800Y-10464800D02*
X57226200Y-9169400D01*
X70143379Y-3059421D02*
X70205600Y-2997200D01*
X65368179Y-3059421D02*
X70143379Y-3059421D01*
X63931800Y-4495800D02*
X65368179Y-3059421D01*
X63931800Y-7823200D02*
X63931800Y-4495800D01*
X57226200Y-9169400D02*
X62585600Y-9169400D01*
%TO.N,/4-*%
X92176600Y-762000D02*
X94513400Y-3098800D01*
X58420000Y-2692400D02*
X60350400Y-762000D01*
X60350400Y-762000D02*
X92176600Y-762000D01*
X58470800Y-7924800D02*
X58420000Y-7874000D01*
X94513400Y-3098800D02*
X96215200Y-3098800D01*
X58420000Y-7874000D02*
X58420000Y-2692400D01*
%TO.N,/4+*%
X61899800Y-12471400D02*
X66167000Y-8204200D01*
X86119979Y-3059421D02*
X87505954Y-3059421D01*
X80975200Y-8204200D02*
X86119979Y-3059421D01*
X59461400Y-12471400D02*
X61899800Y-12471400D01*
X58470800Y-10464800D02*
X58470800Y-11480800D01*
X58470800Y-11480800D02*
X59461400Y-12471400D01*
X87505954Y-3059421D02*
X87545333Y-3098800D01*
X66167000Y-8204200D02*
X80975200Y-8204200D01*
%TO.N,/XH4+*%
X101899800Y-34600000D02*
X99949000Y-32649200D01*
X99949000Y-32649200D02*
X99949000Y-26009600D01*
X99949000Y-26009600D02*
X89103200Y-15163800D01*
X89103200Y-15163800D02*
X87655400Y-15163800D01*
X87655400Y-15163800D02*
X87630000Y-15189200D01*
%TO.N,/XH3+*%
X102409200Y-39090600D02*
X101899800Y-39600000D01*
X70154800Y-15163800D02*
X72466200Y-15163800D01*
X72466200Y-15163800D02*
X74599800Y-13030200D01*
X107010200Y-38138100D02*
X106057700Y-39090600D01*
X74599800Y-13030200D02*
X101828600Y-13030200D01*
X106057700Y-39090600D02*
X102409200Y-39090600D01*
X107010200Y-18211800D02*
X107010200Y-38138100D01*
X101828600Y-13030200D02*
X107010200Y-18211800D01*
%TD*%
%TA.AperFunction,Conductor*%
%TO.N,AGND*%
G36*
X21687449Y-520185D02*
G01*
X21733204Y-572989D01*
X21743148Y-642147D01*
X21714123Y-705703D01*
X21708091Y-712181D01*
X20675100Y-1745171D01*
X20675098Y-1745173D01*
X20673890Y-1747267D01*
X20671751Y-1750972D01*
X20621594Y-1837845D01*
X20608154Y-1861124D01*
X20576892Y-1977794D01*
X20540527Y-2037454D01*
X20477679Y-2067983D01*
X20457118Y-2069700D01*
X20236428Y-2069700D01*
X20236405Y-2069702D01*
X20210893Y-2072661D01*
X20210890Y-2072662D01*
X20106475Y-2118765D01*
X20025766Y-2199474D01*
X19979662Y-2303888D01*
X19979662Y-2303890D01*
X19976700Y-2329419D01*
X19976700Y-4020571D01*
X19976702Y-4020594D01*
X19979661Y-4046106D01*
X19979662Y-4046109D01*
X20025765Y-4150524D01*
X20025766Y-4150525D01*
X20106475Y-4231234D01*
X20210891Y-4277338D01*
X20236421Y-4280300D01*
X21927578Y-4280299D01*
X21953109Y-4277338D01*
X22057525Y-4231234D01*
X22138234Y-4150525D01*
X22184338Y-4046109D01*
X22187300Y-4020579D01*
X22187299Y-2329422D01*
X22184338Y-2303891D01*
X22138234Y-2199475D01*
X22057525Y-2118766D01*
X22038127Y-2110201D01*
X22002684Y-2094551D01*
X21949308Y-2049465D01*
X21928781Y-1982678D01*
X21947620Y-1915396D01*
X21965085Y-1893441D01*
X22610509Y-1248019D01*
X22671832Y-1214534D01*
X22698190Y-1211700D01*
X48709210Y-1211700D01*
X48776249Y-1231385D01*
X48796891Y-1248019D01*
X50356781Y-2807908D01*
X50390266Y-2869231D01*
X50393100Y-2895589D01*
X50393100Y-6813456D01*
X50373415Y-6880495D01*
X50325397Y-6923940D01*
X50258393Y-6958081D01*
X50240385Y-6971165D01*
X50114459Y-7062656D01*
X50114457Y-7062658D01*
X50114456Y-7062658D01*
X49988658Y-7188456D01*
X49988658Y-7188457D01*
X49988656Y-7188459D01*
X49945941Y-7247251D01*
X49884081Y-7332393D01*
X49803308Y-7490917D01*
X49748332Y-7660119D01*
X49725273Y-7805705D01*
X49720500Y-7835843D01*
X49720500Y-8013757D01*
X49728082Y-8061625D01*
X49748332Y-8189480D01*
X49803308Y-8358682D01*
X49878374Y-8506005D01*
X49891270Y-8574674D01*
X49864994Y-8639414D01*
X49807888Y-8679672D01*
X49767889Y-8686300D01*
X49393711Y-8686300D01*
X49326672Y-8666615D01*
X49280917Y-8613811D01*
X49270973Y-8544653D01*
X49283226Y-8506005D01*
X49318224Y-8437318D01*
X49358290Y-8358685D01*
X49413268Y-8189479D01*
X49441100Y-8013757D01*
X49441100Y-7835843D01*
X49413268Y-7660121D01*
X49381130Y-7561210D01*
X49358291Y-7490917D01*
X49277518Y-7332393D01*
X49244626Y-7287121D01*
X49172944Y-7188459D01*
X49047141Y-7062656D01*
X48903206Y-6958081D01*
X48870099Y-6941212D01*
X48744682Y-6877308D01*
X48575480Y-6822332D01*
X48487618Y-6808416D01*
X48399757Y-6794500D01*
X48221843Y-6794500D01*
X48163269Y-6803777D01*
X48046119Y-6822332D01*
X47876917Y-6877308D01*
X47718393Y-6958081D01*
X47700385Y-6971165D01*
X47574459Y-7062656D01*
X47574457Y-7062658D01*
X47574456Y-7062658D01*
X47448658Y-7188456D01*
X47448658Y-7188457D01*
X47448656Y-7188459D01*
X47405941Y-7247251D01*
X47344081Y-7332393D01*
X47263308Y-7490917D01*
X47208332Y-7660119D01*
X47185273Y-7805705D01*
X47180500Y-7835843D01*
X47180500Y-8013757D01*
X47188082Y-8061625D01*
X47208332Y-8189480D01*
X47263308Y-8358682D01*
X47338374Y-8506005D01*
X47351270Y-8574674D01*
X47324994Y-8639414D01*
X47267888Y-8679672D01*
X47227889Y-8686300D01*
X45296189Y-8686300D01*
X45229150Y-8666615D01*
X45208508Y-8649981D01*
X44410918Y-7852391D01*
X43593827Y-7035299D01*
X43535850Y-7001826D01*
X43477875Y-6968353D01*
X43413209Y-6951026D01*
X43348545Y-6933700D01*
X43348544Y-6933700D01*
X38733193Y-6933700D01*
X38666154Y-6914015D01*
X38620399Y-6861211D01*
X38610455Y-6792053D01*
X38639480Y-6728497D01*
X38676898Y-6699215D01*
X38676991Y-6699167D01*
X38831704Y-6620337D01*
X38972455Y-6518076D01*
X39095476Y-6395055D01*
X39197737Y-6254304D01*
X39276722Y-6099288D01*
X39330484Y-5933825D01*
X39335124Y-5904527D01*
X39357700Y-5761994D01*
X39357700Y-5588005D01*
X39330484Y-5416174D01*
X39310218Y-5353803D01*
X39276722Y-5250712D01*
X39197737Y-5095696D01*
X39142372Y-5019492D01*
X39095481Y-4954951D01*
X39095477Y-4954946D01*
X38972453Y-4831922D01*
X38972448Y-4831918D01*
X38831707Y-4729665D01*
X38831706Y-4729664D01*
X38831704Y-4729663D01*
X38676688Y-4650678D01*
X38633776Y-4636735D01*
X38511225Y-4596915D01*
X38339394Y-4569700D01*
X38339389Y-4569700D01*
X38165411Y-4569700D01*
X38165406Y-4569700D01*
X37993574Y-4596915D01*
X37828109Y-4650679D01*
X37673092Y-4729665D01*
X37532351Y-4831918D01*
X37532346Y-4831922D01*
X37409322Y-4954946D01*
X37409318Y-4954951D01*
X37307065Y-5095692D01*
X37228079Y-5250709D01*
X37174315Y-5416174D01*
X37147100Y-5588005D01*
X37147100Y-5761994D01*
X37174315Y-5933825D01*
X37203319Y-6023088D01*
X37228078Y-6099288D01*
X37300029Y-6240500D01*
X37307065Y-6254307D01*
X37409318Y-6395048D01*
X37409322Y-6395053D01*
X37532346Y-6518077D01*
X37532351Y-6518081D01*
X37655112Y-6607271D01*
X37673096Y-6620337D01*
X37827758Y-6699142D01*
X37827902Y-6699215D01*
X37878698Y-6747190D01*
X37895493Y-6815011D01*
X37872955Y-6881146D01*
X37818240Y-6924597D01*
X37771607Y-6933700D01*
X35923590Y-6933700D01*
X35856551Y-6914015D01*
X35835909Y-6897381D01*
X31732029Y-2793501D01*
X31732027Y-2793499D01*
X31670256Y-2757835D01*
X31616075Y-2726553D01*
X31517124Y-2700040D01*
X31486745Y-2691900D01*
X31486744Y-2691900D01*
X30896499Y-2691900D01*
X30887813Y-2689349D01*
X30878852Y-2690638D01*
X30854811Y-2679659D01*
X30829460Y-2672215D01*
X30823532Y-2665374D01*
X30815296Y-2661613D01*
X30801006Y-2639378D01*
X30783705Y-2619411D01*
X30781417Y-2608896D01*
X30777522Y-2602835D01*
X30772499Y-2567900D01*
X30772499Y-2329419D01*
X37147100Y-2329419D01*
X37147100Y-4020571D01*
X37147102Y-4020594D01*
X37150061Y-4046106D01*
X37150062Y-4046109D01*
X37196165Y-4150524D01*
X37196166Y-4150525D01*
X37276875Y-4231234D01*
X37381291Y-4277338D01*
X37406821Y-4280300D01*
X39097978Y-4280299D01*
X39123509Y-4277338D01*
X39227925Y-4231234D01*
X39308634Y-4150525D01*
X39354738Y-4046109D01*
X39357700Y-4020579D01*
X39357699Y-2329422D01*
X39354738Y-2303891D01*
X39308634Y-2199475D01*
X39227925Y-2118766D01*
X39208527Y-2110201D01*
X39123510Y-2072662D01*
X39097979Y-2069700D01*
X37406828Y-2069700D01*
X37406805Y-2069702D01*
X37381293Y-2072661D01*
X37381290Y-2072662D01*
X37276875Y-2118765D01*
X37196166Y-2199474D01*
X37150062Y-2303888D01*
X37150062Y-2303890D01*
X37147100Y-2329419D01*
X30772499Y-2329419D01*
X30772499Y-2329416D01*
X30769538Y-2303893D01*
X30769538Y-2303891D01*
X30723434Y-2199475D01*
X30642725Y-2118766D01*
X30623327Y-2110201D01*
X30538310Y-2072662D01*
X30512779Y-2069700D01*
X28821628Y-2069700D01*
X28821605Y-2069702D01*
X28796093Y-2072661D01*
X28796090Y-2072662D01*
X28691675Y-2118765D01*
X28610966Y-2199474D01*
X28564862Y-2303888D01*
X28564862Y-2303890D01*
X28561900Y-2329419D01*
X28561900Y-4020571D01*
X28561902Y-4020594D01*
X28564861Y-4046106D01*
X28564862Y-4046109D01*
X28610965Y-4150524D01*
X28610966Y-4150525D01*
X28691675Y-4231234D01*
X28796091Y-4277338D01*
X28821621Y-4280300D01*
X30512778Y-4280299D01*
X30538309Y-4277338D01*
X30642725Y-4231234D01*
X30723434Y-4150525D01*
X30769538Y-4046109D01*
X30772500Y-4020579D01*
X30772500Y-3832900D01*
X30792185Y-3765861D01*
X30844989Y-3720106D01*
X30896500Y-3708900D01*
X31157810Y-3708900D01*
X31224849Y-3728585D01*
X31245491Y-3745219D01*
X35349373Y-7849101D01*
X35465326Y-7916047D01*
X35594655Y-7950700D01*
X35728545Y-7950700D01*
X43019610Y-7950700D01*
X43086649Y-7970385D01*
X43107291Y-7987019D01*
X44627299Y-9507026D01*
X44721974Y-9601701D01*
X44837926Y-9668647D01*
X44967255Y-9703300D01*
X47056500Y-9703300D01*
X47123539Y-9722985D01*
X47169294Y-9775789D01*
X47180500Y-9827300D01*
X47180500Y-11335371D01*
X47180502Y-11335394D01*
X47183461Y-11360906D01*
X47183462Y-11360909D01*
X47229565Y-11465324D01*
X47229566Y-11465325D01*
X47310275Y-11546034D01*
X47414691Y-11592138D01*
X47440221Y-11595100D01*
X49181378Y-11595099D01*
X49206909Y-11592138D01*
X49311325Y-11546034D01*
X49392034Y-11465325D01*
X49438138Y-11360909D01*
X49441100Y-11335379D01*
X49441099Y-9827299D01*
X49460784Y-9760261D01*
X49513587Y-9714506D01*
X49565099Y-9703300D01*
X49767889Y-9703300D01*
X49834928Y-9722985D01*
X49880683Y-9775789D01*
X49890627Y-9844947D01*
X49878374Y-9883595D01*
X49803308Y-10030917D01*
X49748332Y-10200119D01*
X49739739Y-10254374D01*
X49720500Y-10375843D01*
X49720500Y-10553757D01*
X49727167Y-10595852D01*
X49748332Y-10729480D01*
X49803308Y-10898682D01*
X49851614Y-10993486D01*
X49884081Y-11057206D01*
X49988656Y-11201141D01*
X50114459Y-11326944D01*
X50258394Y-11431519D01*
X50272755Y-11438836D01*
X50274592Y-11439772D01*
X50285656Y-11450221D01*
X50299503Y-11456545D01*
X50310544Y-11473725D01*
X50325389Y-11487745D01*
X50329630Y-11503425D01*
X50337277Y-11515323D01*
X50342300Y-11550258D01*
X50342300Y-11752210D01*
X50322615Y-11819249D01*
X50305981Y-11839891D01*
X50219291Y-11926581D01*
X50157968Y-11960066D01*
X50131610Y-11962900D01*
X46413789Y-11962900D01*
X46346750Y-11943215D01*
X46326108Y-11926581D01*
X44567140Y-10167613D01*
X42781027Y-8381499D01*
X42707410Y-8338996D01*
X42665075Y-8314553D01*
X42600409Y-8297226D01*
X42535745Y-8279900D01*
X42535744Y-8279900D01*
X20039913Y-8279900D01*
X19972874Y-8260215D01*
X19952232Y-8243581D01*
X17296656Y-5588005D01*
X19976700Y-5588005D01*
X19976700Y-5761994D01*
X20003915Y-5933825D01*
X20032919Y-6023088D01*
X20057678Y-6099288D01*
X20129629Y-6240500D01*
X20136665Y-6254307D01*
X20238918Y-6395048D01*
X20238922Y-6395053D01*
X20361946Y-6518077D01*
X20361951Y-6518081D01*
X20484712Y-6607271D01*
X20502696Y-6620337D01*
X20657712Y-6699322D01*
X20760538Y-6732732D01*
X20823174Y-6753084D01*
X20995006Y-6780300D01*
X20995011Y-6780300D01*
X21168994Y-6780300D01*
X21340825Y-6753084D01*
X21506288Y-6699322D01*
X21661304Y-6620337D01*
X21802055Y-6518076D01*
X21925076Y-6395055D01*
X22027337Y-6254304D01*
X22106322Y-6099288D01*
X22160084Y-5933825D01*
X22164724Y-5904527D01*
X22187300Y-5761994D01*
X22187300Y-5588005D01*
X28561900Y-5588005D01*
X28561900Y-5761994D01*
X28589115Y-5933825D01*
X28618119Y-6023088D01*
X28642878Y-6099288D01*
X28714829Y-6240500D01*
X28721865Y-6254307D01*
X28824118Y-6395048D01*
X28824122Y-6395053D01*
X28947146Y-6518077D01*
X28947151Y-6518081D01*
X29069912Y-6607271D01*
X29087896Y-6620337D01*
X29242912Y-6699322D01*
X29345738Y-6732732D01*
X29408374Y-6753084D01*
X29580206Y-6780300D01*
X29580211Y-6780300D01*
X29754194Y-6780300D01*
X29926025Y-6753084D01*
X30091488Y-6699322D01*
X30246504Y-6620337D01*
X30387255Y-6518076D01*
X30510276Y-6395055D01*
X30612537Y-6254304D01*
X30691522Y-6099288D01*
X30745284Y-5933825D01*
X30749924Y-5904527D01*
X30772500Y-5761994D01*
X30772500Y-5588005D01*
X30745284Y-5416174D01*
X30725018Y-5353803D01*
X30691522Y-5250712D01*
X30612537Y-5095696D01*
X30557172Y-5019492D01*
X30510281Y-4954951D01*
X30510277Y-4954946D01*
X30387253Y-4831922D01*
X30387248Y-4831918D01*
X30246507Y-4729665D01*
X30246506Y-4729664D01*
X30246504Y-4729663D01*
X30091488Y-4650678D01*
X30048576Y-4636735D01*
X29926025Y-4596915D01*
X29754194Y-4569700D01*
X29754189Y-4569700D01*
X29580211Y-4569700D01*
X29580206Y-4569700D01*
X29408374Y-4596915D01*
X29242909Y-4650679D01*
X29087892Y-4729665D01*
X28947151Y-4831918D01*
X28947146Y-4831922D01*
X28824122Y-4954946D01*
X28824118Y-4954951D01*
X28721865Y-5095692D01*
X28642879Y-5250709D01*
X28589115Y-5416174D01*
X28561900Y-5588005D01*
X22187300Y-5588005D01*
X22160084Y-5416174D01*
X22139818Y-5353803D01*
X22106322Y-5250712D01*
X22027337Y-5095696D01*
X21971972Y-5019492D01*
X21925081Y-4954951D01*
X21925077Y-4954946D01*
X21802053Y-4831922D01*
X21802048Y-4831918D01*
X21661307Y-4729665D01*
X21661306Y-4729664D01*
X21661304Y-4729663D01*
X21506288Y-4650678D01*
X21463376Y-4636735D01*
X21340825Y-4596915D01*
X21168994Y-4569700D01*
X21168989Y-4569700D01*
X20995011Y-4569700D01*
X20995006Y-4569700D01*
X20823174Y-4596915D01*
X20657709Y-4650679D01*
X20502692Y-4729665D01*
X20361951Y-4831918D01*
X20361946Y-4831922D01*
X20238922Y-4954946D01*
X20238918Y-4954951D01*
X20136665Y-5095692D01*
X20057679Y-5250709D01*
X20003915Y-5416174D01*
X19976700Y-5588005D01*
X17296656Y-5588005D01*
X14476752Y-2768101D01*
X14476750Y-2768099D01*
X14404791Y-2726553D01*
X14360798Y-2701153D01*
X14280579Y-2679659D01*
X14231468Y-2666500D01*
X14231467Y-2666500D01*
X13726099Y-2666500D01*
X13659060Y-2646815D01*
X13613305Y-2594011D01*
X13602099Y-2542500D01*
X13602099Y-2329428D01*
X13602099Y-2329422D01*
X13599138Y-2303891D01*
X13553034Y-2199475D01*
X13472325Y-2118766D01*
X13452927Y-2110201D01*
X13367910Y-2072662D01*
X13342379Y-2069700D01*
X11651228Y-2069700D01*
X11651205Y-2069702D01*
X11625693Y-2072661D01*
X11625690Y-2072662D01*
X11521275Y-2118765D01*
X11440566Y-2199474D01*
X11394462Y-2303888D01*
X11394462Y-2303890D01*
X11391500Y-2329419D01*
X11391500Y-4020571D01*
X11391502Y-4020594D01*
X11394461Y-4046106D01*
X11394462Y-4046109D01*
X11440565Y-4150524D01*
X11440566Y-4150525D01*
X11521275Y-4231234D01*
X11625691Y-4277338D01*
X11651221Y-4280300D01*
X13342378Y-4280299D01*
X13367909Y-4277338D01*
X13472325Y-4231234D01*
X13553034Y-4150525D01*
X13599138Y-4046109D01*
X13602100Y-4020579D01*
X13602100Y-3807500D01*
X13604650Y-3798814D01*
X13603362Y-3789853D01*
X13614340Y-3765812D01*
X13621785Y-3740461D01*
X13628625Y-3734533D01*
X13632387Y-3726297D01*
X13654621Y-3712007D01*
X13674589Y-3694706D01*
X13685103Y-3692418D01*
X13691165Y-3688523D01*
X13726100Y-3683500D01*
X13902533Y-3683500D01*
X13969572Y-3703185D01*
X13990214Y-3719819D01*
X19465696Y-9195301D01*
X19580756Y-9261731D01*
X19580774Y-9261750D01*
X19580778Y-9261744D01*
X19580780Y-9261745D01*
X19581649Y-9262247D01*
X19710978Y-9296900D01*
X42206810Y-9296900D01*
X42273849Y-9316585D01*
X42294491Y-9333219D01*
X44030951Y-11069678D01*
X45744899Y-12783626D01*
X45839574Y-12878301D01*
X45955526Y-12945247D01*
X46084855Y-12979900D01*
X46084857Y-12979900D01*
X50460543Y-12979900D01*
X50460545Y-12979900D01*
X50589874Y-12945247D01*
X50705827Y-12878301D01*
X51257701Y-12326427D01*
X51324647Y-12210474D01*
X51359300Y-12081145D01*
X51359300Y-11550258D01*
X51378985Y-11483219D01*
X51427008Y-11439772D01*
X51428845Y-11438836D01*
X51443206Y-11431519D01*
X51587141Y-11326944D01*
X51712944Y-11201141D01*
X51817519Y-11057206D01*
X51898290Y-10898685D01*
X51953268Y-10729479D01*
X51981100Y-10553757D01*
X51981100Y-10375843D01*
X51953268Y-10200121D01*
X51918950Y-10094500D01*
X51898291Y-10030917D01*
X51896794Y-10027303D01*
X51895587Y-10016093D01*
X51890185Y-10006199D01*
X51891917Y-9981979D01*
X51889319Y-9957834D01*
X51894364Y-9947751D01*
X51895169Y-9936507D01*
X51909720Y-9917069D01*
X51920589Y-9895352D01*
X51930285Y-9889597D01*
X51937041Y-9880574D01*
X51959789Y-9872089D01*
X51980675Y-9859695D01*
X51991942Y-9860096D01*
X52002505Y-9856157D01*
X52026230Y-9861318D01*
X52050501Y-9862183D01*
X52061534Y-9868998D01*
X52070778Y-9871009D01*
X52099032Y-9892160D01*
X52263700Y-10056828D01*
X52297185Y-10118151D01*
X52293952Y-10182821D01*
X52288334Y-10200114D01*
X52288330Y-10200127D01*
X52263203Y-10358779D01*
X52260500Y-10375843D01*
X52260500Y-10553757D01*
X52267167Y-10595852D01*
X52288332Y-10729480D01*
X52343308Y-10898682D01*
X52391614Y-10993486D01*
X52424081Y-11057206D01*
X52528656Y-11201141D01*
X52654459Y-11326944D01*
X52798394Y-11431519D01*
X52933107Y-11500159D01*
X52956917Y-11512291D01*
X53011861Y-11530143D01*
X53126121Y-11567268D01*
X53301843Y-11595100D01*
X53301844Y-11595100D01*
X53479756Y-11595100D01*
X53479757Y-11595100D01*
X53655479Y-11567268D01*
X53824685Y-11512290D01*
X53983206Y-11431519D01*
X54127141Y-11326944D01*
X54252944Y-11201141D01*
X54357519Y-11057206D01*
X54438290Y-10898685D01*
X54493268Y-10729479D01*
X54521100Y-10553757D01*
X54521100Y-10375843D01*
X54493268Y-10200121D01*
X54458950Y-10094500D01*
X54438291Y-10030917D01*
X54398224Y-9952282D01*
X54357519Y-9872394D01*
X54252944Y-9728459D01*
X54127141Y-9602656D01*
X53983206Y-9498081D01*
X53824682Y-9417308D01*
X53655480Y-9362332D01*
X53567618Y-9348416D01*
X53479757Y-9334500D01*
X53301843Y-9334500D01*
X53281639Y-9337700D01*
X53126127Y-9362330D01*
X53126114Y-9362334D01*
X53108821Y-9367952D01*
X53093610Y-9368385D01*
X53079355Y-9373703D01*
X53059398Y-9369361D01*
X53038980Y-9369944D01*
X53024894Y-9361855D01*
X53011082Y-9358851D01*
X52982828Y-9337700D01*
X52818160Y-9173032D01*
X52784675Y-9111709D01*
X52789659Y-9042017D01*
X52831531Y-8986084D01*
X52896995Y-8961667D01*
X52953303Y-8970794D01*
X52956917Y-8972291D01*
X53041518Y-8999779D01*
X53126121Y-9027268D01*
X53301843Y-9055100D01*
X53301844Y-9055100D01*
X53479756Y-9055100D01*
X53479757Y-9055100D01*
X53655479Y-9027268D01*
X53824685Y-8972290D01*
X53983206Y-8891519D01*
X54127141Y-8786944D01*
X54252944Y-8661141D01*
X54357519Y-8517206D01*
X54438290Y-8358685D01*
X54493268Y-8189479D01*
X54521100Y-8013757D01*
X54521100Y-7835843D01*
X54493268Y-7660121D01*
X54461130Y-7561210D01*
X54438291Y-7490917D01*
X54357518Y-7332393D01*
X54324626Y-7287121D01*
X54252944Y-7188459D01*
X54127141Y-7062656D01*
X53983206Y-6958081D01*
X53950099Y-6941212D01*
X53824682Y-6877308D01*
X53655480Y-6822332D01*
X53567618Y-6808416D01*
X53479757Y-6794500D01*
X53301843Y-6794500D01*
X53243269Y-6803777D01*
X53126119Y-6822332D01*
X52956917Y-6877308D01*
X52798393Y-6958081D01*
X52780385Y-6971165D01*
X52654459Y-7062656D01*
X52654457Y-7062658D01*
X52654456Y-7062658D01*
X52528658Y-7188456D01*
X52528658Y-7188457D01*
X52528656Y-7188459D01*
X52485941Y-7247251D01*
X52424081Y-7332393D01*
X52343308Y-7490917D01*
X52288332Y-7660119D01*
X52265273Y-7805705D01*
X52260500Y-7835843D01*
X52260500Y-8013757D01*
X52268082Y-8061625D01*
X52288332Y-8189480D01*
X52343308Y-8358682D01*
X52424082Y-8517208D01*
X52427946Y-8522527D01*
X52451421Y-8588335D01*
X52435592Y-8656388D01*
X52385483Y-8705079D01*
X52317004Y-8718950D01*
X52295536Y-8715182D01*
X52187745Y-8686300D01*
X52187744Y-8686300D01*
X51933711Y-8686300D01*
X51866672Y-8666615D01*
X51820917Y-8613811D01*
X51810973Y-8544653D01*
X51823226Y-8506005D01*
X51858224Y-8437318D01*
X51898290Y-8358685D01*
X51953268Y-8189479D01*
X51981100Y-8013757D01*
X51981100Y-7835843D01*
X51953268Y-7660121D01*
X51921130Y-7561210D01*
X51898291Y-7490917D01*
X51817518Y-7332393D01*
X51784626Y-7287121D01*
X51712944Y-7188459D01*
X51587141Y-7062656D01*
X51461213Y-6971164D01*
X51418549Y-6915835D01*
X51410100Y-6870847D01*
X51410100Y-2566657D01*
X51410100Y-2566655D01*
X51375447Y-2437326D01*
X51308501Y-2321374D01*
X51213826Y-2226699D01*
X50552989Y-1565862D01*
X49699309Y-712181D01*
X49665824Y-650858D01*
X49670808Y-581166D01*
X49712680Y-525233D01*
X49778144Y-500816D01*
X49786990Y-500500D01*
X59593411Y-500500D01*
X59660450Y-520185D01*
X59706205Y-572989D01*
X59716149Y-642147D01*
X59687124Y-705703D01*
X59681092Y-712181D01*
X58013101Y-2380170D01*
X58013099Y-2380173D01*
X57964527Y-2464301D01*
X57964526Y-2464301D01*
X57946154Y-2496123D01*
X57946153Y-2496126D01*
X57911500Y-2625455D01*
X57911500Y-6870847D01*
X57891815Y-6937886D01*
X57860387Y-6971163D01*
X57772853Y-7034760D01*
X57734456Y-7062658D01*
X57608658Y-7188456D01*
X57608658Y-7188457D01*
X57608656Y-7188459D01*
X57565941Y-7247251D01*
X57504081Y-7332393D01*
X57423308Y-7490917D01*
X57368332Y-7660119D01*
X57345273Y-7805705D01*
X57340500Y-7835843D01*
X57340500Y-8013757D01*
X57348082Y-8061625D01*
X57368332Y-8189480D01*
X57423308Y-8358682D01*
X57485432Y-8480605D01*
X57498328Y-8549274D01*
X57472052Y-8614014D01*
X57414946Y-8654272D01*
X57374947Y-8660900D01*
X57159255Y-8660900D01*
X57040361Y-8692757D01*
X56970511Y-8691094D01*
X56912649Y-8651931D01*
X56885145Y-8587702D01*
X56896732Y-8518800D01*
X56897783Y-8516687D01*
X56938224Y-8437318D01*
X56978290Y-8358685D01*
X57033268Y-8189479D01*
X57061100Y-8013757D01*
X57061100Y-7835843D01*
X57033268Y-7660121D01*
X57001130Y-7561210D01*
X56978291Y-7490917D01*
X56897518Y-7332393D01*
X56864626Y-7287121D01*
X56792944Y-7188459D01*
X56667141Y-7062656D01*
X56523206Y-6958081D01*
X56490099Y-6941212D01*
X56364682Y-6877308D01*
X56195480Y-6822332D01*
X56107618Y-6808416D01*
X56019757Y-6794500D01*
X55841843Y-6794500D01*
X55783269Y-6803777D01*
X55666119Y-6822332D01*
X55496917Y-6877308D01*
X55338393Y-6958081D01*
X55320385Y-6971165D01*
X55194459Y-7062656D01*
X55194457Y-7062658D01*
X55194456Y-7062658D01*
X55068658Y-7188456D01*
X55068658Y-7188457D01*
X55068656Y-7188459D01*
X55025941Y-7247251D01*
X54964081Y-7332393D01*
X54883308Y-7490917D01*
X54828332Y-7660119D01*
X54805273Y-7805705D01*
X54800500Y-7835843D01*
X54800500Y-8013757D01*
X54808082Y-8061625D01*
X54828332Y-8189480D01*
X54883308Y-8358682D01*
X54894934Y-8381499D01*
X54964081Y-8517206D01*
X55068656Y-8661141D01*
X55194459Y-8786944D01*
X55338394Y-8891519D01*
X55481010Y-8964186D01*
X55496917Y-8972291D01*
X55581518Y-8999779D01*
X55666121Y-9027268D01*
X55841843Y-9055100D01*
X55841844Y-9055100D01*
X56019756Y-9055100D01*
X56019757Y-9055100D01*
X56195479Y-9027268D01*
X56364685Y-8972290D01*
X56364694Y-8972285D01*
X56368291Y-8970796D01*
X56379502Y-8969589D01*
X56389398Y-8964186D01*
X56413617Y-8965918D01*
X56437760Y-8963320D01*
X56447842Y-8968365D01*
X56459090Y-8969170D01*
X56478528Y-8983721D01*
X56500242Y-8994588D01*
X56505996Y-9004284D01*
X56515023Y-9011042D01*
X56523507Y-9033790D01*
X56535901Y-9054673D01*
X56535499Y-9065941D01*
X56539440Y-9076506D01*
X56534279Y-9100230D01*
X56533415Y-9124499D01*
X56526599Y-9135533D01*
X56524588Y-9144779D01*
X56503438Y-9173032D01*
X56338770Y-9337700D01*
X56277447Y-9371185D01*
X56212772Y-9367950D01*
X56195481Y-9362332D01*
X56195482Y-9362332D01*
X56063687Y-9341458D01*
X56019757Y-9334500D01*
X55841843Y-9334500D01*
X55783269Y-9343777D01*
X55666119Y-9362332D01*
X55496917Y-9417308D01*
X55338393Y-9498081D01*
X55256273Y-9557745D01*
X55194459Y-9602656D01*
X55194457Y-9602658D01*
X55194456Y-9602658D01*
X55068658Y-9728456D01*
X55068658Y-9728457D01*
X55068656Y-9728459D01*
X55034269Y-9775789D01*
X54964081Y-9872393D01*
X54883308Y-10030917D01*
X54828332Y-10200119D01*
X54819739Y-10254374D01*
X54800500Y-10375843D01*
X54800500Y-10553757D01*
X54807167Y-10595852D01*
X54828332Y-10729480D01*
X54883308Y-10898682D01*
X54931614Y-10993486D01*
X54964081Y-11057206D01*
X55068656Y-11201141D01*
X55194459Y-11326944D01*
X55338394Y-11431519D01*
X55473107Y-11500159D01*
X55496917Y-11512291D01*
X55551861Y-11530143D01*
X55666121Y-11567268D01*
X55841843Y-11595100D01*
X55841844Y-11595100D01*
X56019756Y-11595100D01*
X56019757Y-11595100D01*
X56195479Y-11567268D01*
X56364685Y-11512290D01*
X56523206Y-11431519D01*
X56667141Y-11326944D01*
X56792944Y-11201141D01*
X56897519Y-11057206D01*
X56978290Y-10898685D01*
X57033268Y-10729479D01*
X57061100Y-10553757D01*
X57061100Y-10375843D01*
X57033268Y-10200121D01*
X57032810Y-10198710D01*
X57027649Y-10182825D01*
X57027214Y-10167613D01*
X57021896Y-10153354D01*
X57026237Y-10133398D01*
X57025654Y-10112984D01*
X57033742Y-10098897D01*
X57036748Y-10085081D01*
X57057892Y-10056834D01*
X57222570Y-9892157D01*
X57283890Y-9858675D01*
X57353582Y-9863659D01*
X57409515Y-9905531D01*
X57433932Y-9970995D01*
X57424810Y-10027291D01*
X57423310Y-10030911D01*
X57368332Y-10200119D01*
X57359739Y-10254374D01*
X57340500Y-10375843D01*
X57340500Y-10553757D01*
X57347167Y-10595852D01*
X57368332Y-10729480D01*
X57423308Y-10898682D01*
X57471614Y-10993486D01*
X57504081Y-11057206D01*
X57608656Y-11201141D01*
X57734459Y-11326944D01*
X57878394Y-11431519D01*
X57892755Y-11438836D01*
X57894592Y-11439772D01*
X57945389Y-11487745D01*
X57959501Y-11539913D01*
X57961239Y-11539685D01*
X57962300Y-11547744D01*
X57962300Y-11547745D01*
X57965965Y-11561423D01*
X57996953Y-11677075D01*
X58022596Y-11721489D01*
X58063899Y-11793027D01*
X59149173Y-12878301D01*
X59265126Y-12945247D01*
X59394455Y-12979900D01*
X59394457Y-12979900D01*
X61966743Y-12979900D01*
X61966745Y-12979900D01*
X62096074Y-12945247D01*
X62212027Y-12878301D01*
X64089546Y-11000782D01*
X69200300Y-11000782D01*
X69200300Y-11198817D01*
X69238931Y-11393027D01*
X69238933Y-11393035D01*
X69314713Y-11575985D01*
X69314718Y-11575994D01*
X69424732Y-11740640D01*
X69424735Y-11740644D01*
X69564755Y-11880664D01*
X69564759Y-11880667D01*
X69729405Y-11990681D01*
X69729414Y-11990686D01*
X69770858Y-12007852D01*
X69912365Y-12066467D01*
X70106582Y-12105099D01*
X70106586Y-12105100D01*
X70106587Y-12105100D01*
X70304614Y-12105100D01*
X70304615Y-12105099D01*
X70498835Y-12066467D01*
X70681788Y-11990685D01*
X70846441Y-11880667D01*
X70986467Y-11740641D01*
X71096485Y-11575988D01*
X71162216Y-11417300D01*
X71844511Y-11417300D01*
X71900174Y-11551686D01*
X71900176Y-11551689D01*
X72004576Y-11707935D01*
X72004582Y-11707943D01*
X72137456Y-11840817D01*
X72137464Y-11840823D01*
X72293710Y-11945223D01*
X72293713Y-11945225D01*
X72428099Y-12000889D01*
X72428100Y-12000889D01*
X73063100Y-12000889D01*
X73197486Y-11945225D01*
X73197489Y-11945223D01*
X73353735Y-11840823D01*
X73353743Y-11840817D01*
X73486617Y-11707943D01*
X73486623Y-11707935D01*
X73591023Y-11551689D01*
X73591025Y-11551686D01*
X73646689Y-11417300D01*
X73063100Y-11417300D01*
X73063100Y-12000889D01*
X72428100Y-12000889D01*
X72428100Y-11417300D01*
X71844511Y-11417300D01*
X71162216Y-11417300D01*
X71172267Y-11393035D01*
X71210900Y-11198813D01*
X71210900Y-11053722D01*
X72395600Y-11053722D01*
X72395600Y-11145878D01*
X72419452Y-11234895D01*
X72465530Y-11314705D01*
X72530695Y-11379870D01*
X72610505Y-11425948D01*
X72699522Y-11449800D01*
X72791678Y-11449800D01*
X72880695Y-11425948D01*
X72960505Y-11379870D01*
X73025670Y-11314705D01*
X73071748Y-11234895D01*
X73095600Y-11145878D01*
X73095600Y-11053722D01*
X73081415Y-11000782D01*
X77760100Y-11000782D01*
X77760100Y-11198817D01*
X77798731Y-11393027D01*
X77798733Y-11393035D01*
X77874513Y-11575985D01*
X77874518Y-11575994D01*
X77984532Y-11740640D01*
X77984535Y-11740644D01*
X78124555Y-11880664D01*
X78124559Y-11880667D01*
X78289205Y-11990681D01*
X78289214Y-11990686D01*
X78330658Y-12007852D01*
X78472165Y-12066467D01*
X78666382Y-12105099D01*
X78666386Y-12105100D01*
X78666387Y-12105100D01*
X78864414Y-12105100D01*
X78864415Y-12105099D01*
X79058635Y-12066467D01*
X79241588Y-11990685D01*
X79406241Y-11880667D01*
X79546267Y-11740641D01*
X79656285Y-11575988D01*
X79722016Y-11417300D01*
X80404311Y-11417300D01*
X80459974Y-11551686D01*
X80459976Y-11551689D01*
X80564376Y-11707935D01*
X80564382Y-11707943D01*
X80697256Y-11840817D01*
X80697264Y-11840823D01*
X80853510Y-11945223D01*
X80853513Y-11945225D01*
X80987899Y-12000889D01*
X80987900Y-12000889D01*
X81622900Y-12000889D01*
X81757286Y-11945225D01*
X81757289Y-11945223D01*
X81913535Y-11840823D01*
X81913543Y-11840817D01*
X82046417Y-11707943D01*
X82046423Y-11707935D01*
X82150823Y-11551689D01*
X82150825Y-11551686D01*
X82206489Y-11417300D01*
X81622900Y-11417300D01*
X81622900Y-12000889D01*
X80987900Y-12000889D01*
X80987900Y-11417300D01*
X80404311Y-11417300D01*
X79722016Y-11417300D01*
X79732067Y-11393035D01*
X79770700Y-11198813D01*
X79770700Y-11053722D01*
X80955400Y-11053722D01*
X80955400Y-11145878D01*
X80979252Y-11234895D01*
X81025330Y-11314705D01*
X81090495Y-11379870D01*
X81170305Y-11425948D01*
X81259322Y-11449800D01*
X81351478Y-11449800D01*
X81440495Y-11425948D01*
X81520305Y-11379870D01*
X81585470Y-11314705D01*
X81631548Y-11234895D01*
X81655400Y-11145878D01*
X81655400Y-11053722D01*
X81641215Y-11000782D01*
X86573900Y-11000782D01*
X86573900Y-11198817D01*
X86612531Y-11393027D01*
X86612533Y-11393035D01*
X86688313Y-11575985D01*
X86688318Y-11575994D01*
X86798332Y-11740640D01*
X86798335Y-11740644D01*
X86938355Y-11880664D01*
X86938359Y-11880667D01*
X87103005Y-11990681D01*
X87103014Y-11990686D01*
X87144458Y-12007852D01*
X87285965Y-12066467D01*
X87480182Y-12105099D01*
X87480186Y-12105100D01*
X87480187Y-12105100D01*
X87678214Y-12105100D01*
X87678215Y-12105099D01*
X87872435Y-12066467D01*
X88055388Y-11990685D01*
X88220041Y-11880667D01*
X88360067Y-11740641D01*
X88470085Y-11575988D01*
X88535816Y-11417300D01*
X89218111Y-11417300D01*
X89273774Y-11551686D01*
X89273776Y-11551689D01*
X89378176Y-11707935D01*
X89378182Y-11707943D01*
X89511056Y-11840817D01*
X89511064Y-11840823D01*
X89667310Y-11945223D01*
X89667313Y-11945225D01*
X89801699Y-12000889D01*
X89801700Y-12000889D01*
X90436700Y-12000889D01*
X90571086Y-11945225D01*
X90571089Y-11945223D01*
X90727335Y-11840823D01*
X90727343Y-11840817D01*
X90860217Y-11707943D01*
X90860223Y-11707935D01*
X90964623Y-11551689D01*
X90964625Y-11551686D01*
X91020289Y-11417300D01*
X90436700Y-11417300D01*
X90436700Y-12000889D01*
X89801700Y-12000889D01*
X89801700Y-11417300D01*
X89218111Y-11417300D01*
X88535816Y-11417300D01*
X88545867Y-11393035D01*
X88584500Y-11198813D01*
X88584500Y-11053722D01*
X89769200Y-11053722D01*
X89769200Y-11145878D01*
X89793052Y-11234895D01*
X89839130Y-11314705D01*
X89904295Y-11379870D01*
X89984105Y-11425948D01*
X90073122Y-11449800D01*
X90165278Y-11449800D01*
X90254295Y-11425948D01*
X90334105Y-11379870D01*
X90399270Y-11314705D01*
X90445348Y-11234895D01*
X90469200Y-11145878D01*
X90469200Y-11053722D01*
X90448209Y-10975382D01*
X95387700Y-10975382D01*
X95387700Y-11173417D01*
X95426331Y-11367627D01*
X95426333Y-11367635D01*
X95502113Y-11550585D01*
X95502118Y-11550594D01*
X95612132Y-11715240D01*
X95612135Y-11715244D01*
X95752155Y-11855264D01*
X95752159Y-11855267D01*
X95916805Y-11965281D01*
X95916814Y-11965286D01*
X95958258Y-11982452D01*
X96099765Y-12041067D01*
X96293982Y-12079699D01*
X96293986Y-12079700D01*
X96293987Y-12079700D01*
X96492014Y-12079700D01*
X96492015Y-12079699D01*
X96686235Y-12041067D01*
X96869188Y-11965285D01*
X97033841Y-11855267D01*
X97173867Y-11715241D01*
X97283885Y-11550588D01*
X97349616Y-11391900D01*
X98031911Y-11391900D01*
X98087574Y-11526286D01*
X98087576Y-11526289D01*
X98191976Y-11682535D01*
X98191982Y-11682543D01*
X98324856Y-11815417D01*
X98324864Y-11815423D01*
X98481110Y-11919823D01*
X98481113Y-11919825D01*
X98615499Y-11975489D01*
X98615500Y-11975489D01*
X99250500Y-11975489D01*
X99384886Y-11919825D01*
X99384889Y-11919823D01*
X99541135Y-11815423D01*
X99541143Y-11815417D01*
X99674017Y-11682543D01*
X99674023Y-11682535D01*
X99778423Y-11526289D01*
X99778425Y-11526286D01*
X99834089Y-11391900D01*
X99250500Y-11391900D01*
X99250500Y-11975489D01*
X98615500Y-11975489D01*
X98615500Y-11391900D01*
X98031911Y-11391900D01*
X97349616Y-11391900D01*
X97359667Y-11367635D01*
X97398300Y-11173413D01*
X97398300Y-11028322D01*
X98583000Y-11028322D01*
X98583000Y-11120478D01*
X98606852Y-11209495D01*
X98652930Y-11289305D01*
X98718095Y-11354470D01*
X98797905Y-11400548D01*
X98886922Y-11424400D01*
X98979078Y-11424400D01*
X99068095Y-11400548D01*
X99147905Y-11354470D01*
X99213070Y-11289305D01*
X99259148Y-11209495D01*
X99283000Y-11120478D01*
X99283000Y-11028322D01*
X99259148Y-10939305D01*
X99213070Y-10859495D01*
X99147905Y-10794330D01*
X99083074Y-10756900D01*
X99250500Y-10756900D01*
X99834089Y-10756900D01*
X99834089Y-10756899D01*
X99778425Y-10622513D01*
X99778423Y-10622510D01*
X99674023Y-10466264D01*
X99674017Y-10466256D01*
X99541143Y-10333382D01*
X99541139Y-10333379D01*
X99384894Y-10228979D01*
X99384884Y-10228974D01*
X99250500Y-10173310D01*
X99250500Y-10756900D01*
X99083074Y-10756900D01*
X99068095Y-10748252D01*
X98979078Y-10724400D01*
X98886922Y-10724400D01*
X98797905Y-10748252D01*
X98718095Y-10794330D01*
X98652930Y-10859495D01*
X98606852Y-10939305D01*
X98583000Y-11028322D01*
X97398300Y-11028322D01*
X97398300Y-10975387D01*
X97383043Y-10898685D01*
X97362395Y-10794878D01*
X97362393Y-10794872D01*
X97359667Y-10781165D01*
X97349616Y-10756899D01*
X98031910Y-10756899D01*
X98031911Y-10756900D01*
X98615500Y-10756900D01*
X98615500Y-10173310D01*
X98615499Y-10173310D01*
X98481115Y-10228974D01*
X98481105Y-10228979D01*
X98324860Y-10333379D01*
X98324856Y-10333382D01*
X98191982Y-10466256D01*
X98191976Y-10466264D01*
X98087576Y-10622510D01*
X98087574Y-10622513D01*
X98031910Y-10756899D01*
X97349616Y-10756899D01*
X97283885Y-10598212D01*
X97283884Y-10598211D01*
X97283881Y-10598205D01*
X97173867Y-10433559D01*
X97173864Y-10433555D01*
X97033844Y-10293535D01*
X97033840Y-10293532D01*
X96869194Y-10183518D01*
X96869185Y-10183513D01*
X96686235Y-10107733D01*
X96686227Y-10107731D01*
X96492017Y-10069100D01*
X96492013Y-10069100D01*
X96293987Y-10069100D01*
X96293982Y-10069100D01*
X96099772Y-10107731D01*
X96099764Y-10107733D01*
X95916814Y-10183513D01*
X95916805Y-10183518D01*
X95752159Y-10293532D01*
X95752155Y-10293535D01*
X95612135Y-10433555D01*
X95612132Y-10433559D01*
X95502118Y-10598205D01*
X95502113Y-10598214D01*
X95426333Y-10781164D01*
X95426331Y-10781172D01*
X95387700Y-10975382D01*
X90448209Y-10975382D01*
X90445348Y-10964705D01*
X90399270Y-10884895D01*
X90334105Y-10819730D01*
X90269274Y-10782300D01*
X90436700Y-10782300D01*
X91020289Y-10782300D01*
X91020289Y-10782299D01*
X90964625Y-10647913D01*
X90964623Y-10647910D01*
X90860223Y-10491664D01*
X90860217Y-10491656D01*
X90727343Y-10358782D01*
X90727339Y-10358779D01*
X90571094Y-10254379D01*
X90571084Y-10254374D01*
X90436700Y-10198710D01*
X90436700Y-10782300D01*
X90269274Y-10782300D01*
X90254295Y-10773652D01*
X90165278Y-10749800D01*
X90073122Y-10749800D01*
X89984105Y-10773652D01*
X89904295Y-10819730D01*
X89839130Y-10884895D01*
X89793052Y-10964705D01*
X89769200Y-11053722D01*
X88584500Y-11053722D01*
X88584500Y-11000787D01*
X88583048Y-10993486D01*
X88548595Y-10820278D01*
X88548593Y-10820272D01*
X88545867Y-10806565D01*
X88535816Y-10782299D01*
X89218110Y-10782299D01*
X89218111Y-10782300D01*
X89801700Y-10782300D01*
X89801700Y-10198710D01*
X89801699Y-10198710D01*
X89667315Y-10254374D01*
X89667305Y-10254379D01*
X89511060Y-10358779D01*
X89511056Y-10358782D01*
X89378182Y-10491656D01*
X89378176Y-10491664D01*
X89273776Y-10647910D01*
X89273774Y-10647913D01*
X89218110Y-10782299D01*
X88535816Y-10782299D01*
X88477673Y-10641930D01*
X88470086Y-10623614D01*
X88470081Y-10623605D01*
X88360067Y-10458959D01*
X88360064Y-10458955D01*
X88220044Y-10318935D01*
X88220040Y-10318932D01*
X88055394Y-10208918D01*
X88055385Y-10208913D01*
X87872435Y-10133133D01*
X87872427Y-10133131D01*
X87678217Y-10094500D01*
X87678213Y-10094500D01*
X87480187Y-10094500D01*
X87480182Y-10094500D01*
X87285972Y-10133131D01*
X87285964Y-10133133D01*
X87103014Y-10208913D01*
X87103005Y-10208918D01*
X86938359Y-10318932D01*
X86938355Y-10318935D01*
X86798335Y-10458955D01*
X86798332Y-10458959D01*
X86688318Y-10623605D01*
X86688313Y-10623614D01*
X86612533Y-10806564D01*
X86612531Y-10806572D01*
X86573900Y-11000782D01*
X81641215Y-11000782D01*
X81631548Y-10964705D01*
X81585470Y-10884895D01*
X81520305Y-10819730D01*
X81455474Y-10782300D01*
X81622900Y-10782300D01*
X82206489Y-10782300D01*
X82206489Y-10782299D01*
X82150825Y-10647913D01*
X82150823Y-10647910D01*
X82046423Y-10491664D01*
X82046417Y-10491656D01*
X81913543Y-10358782D01*
X81913539Y-10358779D01*
X81757294Y-10254379D01*
X81757284Y-10254374D01*
X81622900Y-10198710D01*
X81622900Y-10782300D01*
X81455474Y-10782300D01*
X81440495Y-10773652D01*
X81351478Y-10749800D01*
X81259322Y-10749800D01*
X81170305Y-10773652D01*
X81090495Y-10819730D01*
X81025330Y-10884895D01*
X80979252Y-10964705D01*
X80955400Y-11053722D01*
X79770700Y-11053722D01*
X79770700Y-11000787D01*
X79732067Y-10806565D01*
X79722016Y-10782299D01*
X80404310Y-10782299D01*
X80404311Y-10782300D01*
X80987900Y-10782300D01*
X80987900Y-10198710D01*
X80987899Y-10198710D01*
X80853515Y-10254374D01*
X80853505Y-10254379D01*
X80697260Y-10358779D01*
X80697256Y-10358782D01*
X80564382Y-10491656D01*
X80564376Y-10491664D01*
X80459976Y-10647910D01*
X80459974Y-10647913D01*
X80404310Y-10782299D01*
X79722016Y-10782299D01*
X79663873Y-10641930D01*
X79656286Y-10623614D01*
X79656281Y-10623605D01*
X79546267Y-10458959D01*
X79546264Y-10458955D01*
X79406244Y-10318935D01*
X79406240Y-10318932D01*
X79241594Y-10208918D01*
X79241585Y-10208913D01*
X79058635Y-10133133D01*
X79058627Y-10133131D01*
X78864417Y-10094500D01*
X78864413Y-10094500D01*
X78666387Y-10094500D01*
X78666382Y-10094500D01*
X78472172Y-10133131D01*
X78472164Y-10133133D01*
X78289214Y-10208913D01*
X78289205Y-10208918D01*
X78124559Y-10318932D01*
X78124555Y-10318935D01*
X77984535Y-10458955D01*
X77984532Y-10458959D01*
X77874518Y-10623605D01*
X77874513Y-10623614D01*
X77798733Y-10806564D01*
X77798731Y-10806572D01*
X77760100Y-11000782D01*
X73081415Y-11000782D01*
X73071748Y-10964705D01*
X73025670Y-10884895D01*
X72960505Y-10819730D01*
X72895674Y-10782300D01*
X73063100Y-10782300D01*
X73646689Y-10782300D01*
X73646689Y-10782299D01*
X73591025Y-10647913D01*
X73591023Y-10647910D01*
X73486623Y-10491664D01*
X73486617Y-10491656D01*
X73353743Y-10358782D01*
X73353739Y-10358779D01*
X73197494Y-10254379D01*
X73197484Y-10254374D01*
X73063100Y-10198710D01*
X73063100Y-10782300D01*
X72895674Y-10782300D01*
X72880695Y-10773652D01*
X72791678Y-10749800D01*
X72699522Y-10749800D01*
X72610505Y-10773652D01*
X72530695Y-10819730D01*
X72465530Y-10884895D01*
X72419452Y-10964705D01*
X72395600Y-11053722D01*
X71210900Y-11053722D01*
X71210900Y-11000787D01*
X71172267Y-10806565D01*
X71162216Y-10782299D01*
X71844510Y-10782299D01*
X71844511Y-10782300D01*
X72428100Y-10782300D01*
X72428100Y-10198710D01*
X72428099Y-10198710D01*
X72293715Y-10254374D01*
X72293705Y-10254379D01*
X72137460Y-10358779D01*
X72137456Y-10358782D01*
X72004582Y-10491656D01*
X72004576Y-10491664D01*
X71900176Y-10647910D01*
X71900174Y-10647913D01*
X71844510Y-10782299D01*
X71162216Y-10782299D01*
X71104073Y-10641930D01*
X71096486Y-10623614D01*
X71096481Y-10623605D01*
X70986467Y-10458959D01*
X70986464Y-10458955D01*
X70846444Y-10318935D01*
X70846440Y-10318932D01*
X70681794Y-10208918D01*
X70681785Y-10208913D01*
X70498835Y-10133133D01*
X70498827Y-10133131D01*
X70304617Y-10094500D01*
X70304613Y-10094500D01*
X70106587Y-10094500D01*
X70106582Y-10094500D01*
X69912372Y-10133131D01*
X69912364Y-10133133D01*
X69729414Y-10208913D01*
X69729405Y-10208918D01*
X69564759Y-10318932D01*
X69564755Y-10318935D01*
X69424735Y-10458955D01*
X69424732Y-10458959D01*
X69314718Y-10623605D01*
X69314713Y-10623614D01*
X69238933Y-10806564D01*
X69238931Y-10806572D01*
X69200300Y-11000782D01*
X64089546Y-11000782D01*
X66341309Y-8749019D01*
X66402632Y-8715534D01*
X66428990Y-8712700D01*
X81042143Y-8712700D01*
X81042145Y-8712700D01*
X81171474Y-8678047D01*
X81287427Y-8611101D01*
X84386723Y-5511805D01*
X86440033Y-5511805D01*
X86440033Y-5685794D01*
X86467248Y-5857625D01*
X86507068Y-5980176D01*
X86521011Y-6023088D01*
X86596232Y-6170717D01*
X86599998Y-6178107D01*
X86702251Y-6318848D01*
X86702255Y-6318853D01*
X86825279Y-6441877D01*
X86825284Y-6441881D01*
X86920027Y-6510715D01*
X86966029Y-6544137D01*
X87121045Y-6623122D01*
X87246687Y-6663945D01*
X87286507Y-6676884D01*
X87458339Y-6704100D01*
X87458344Y-6704100D01*
X87632327Y-6704100D01*
X87804158Y-6676884D01*
X87969621Y-6623122D01*
X88124637Y-6544137D01*
X88265388Y-6441876D01*
X88388409Y-6318855D01*
X88490670Y-6178104D01*
X88569655Y-6023088D01*
X88623417Y-5857625D01*
X88635718Y-5779959D01*
X88650633Y-5685794D01*
X88650633Y-5511805D01*
X95109900Y-5511805D01*
X95109900Y-5685794D01*
X95137115Y-5857625D01*
X95176935Y-5980176D01*
X95190878Y-6023088D01*
X95266099Y-6170717D01*
X95269865Y-6178107D01*
X95372118Y-6318848D01*
X95372122Y-6318853D01*
X95495146Y-6441877D01*
X95495151Y-6441881D01*
X95589894Y-6510715D01*
X95635896Y-6544137D01*
X95790912Y-6623122D01*
X95916554Y-6663945D01*
X95956374Y-6676884D01*
X96128206Y-6704100D01*
X96128211Y-6704100D01*
X96302194Y-6704100D01*
X96474025Y-6676884D01*
X96639488Y-6623122D01*
X96794504Y-6544137D01*
X96935255Y-6441876D01*
X97058276Y-6318855D01*
X97160537Y-6178104D01*
X97239522Y-6023088D01*
X97293284Y-5857625D01*
X97305585Y-5779959D01*
X97320500Y-5685794D01*
X97320500Y-5511805D01*
X97293284Y-5339974D01*
X97280345Y-5300154D01*
X97239522Y-5174512D01*
X97160537Y-5019496D01*
X97113638Y-4954945D01*
X97058281Y-4878751D01*
X97058277Y-4878746D01*
X96935253Y-4755722D01*
X96935248Y-4755718D01*
X96794507Y-4653465D01*
X96794506Y-4653464D01*
X96794504Y-4653463D01*
X96639488Y-4574478D01*
X96596576Y-4560535D01*
X96474025Y-4520715D01*
X96302194Y-4493500D01*
X96302189Y-4493500D01*
X96128211Y-4493500D01*
X96128206Y-4493500D01*
X95956374Y-4520715D01*
X95790909Y-4574479D01*
X95635892Y-4653465D01*
X95495151Y-4755718D01*
X95495146Y-4755722D01*
X95372122Y-4878746D01*
X95372118Y-4878751D01*
X95269865Y-5019492D01*
X95190879Y-5174509D01*
X95137115Y-5339974D01*
X95109900Y-5511805D01*
X88650633Y-5511805D01*
X88623417Y-5339974D01*
X88610478Y-5300154D01*
X88569655Y-5174512D01*
X88490670Y-5019496D01*
X88443771Y-4954945D01*
X88388414Y-4878751D01*
X88388410Y-4878746D01*
X88265386Y-4755722D01*
X88265381Y-4755718D01*
X88124640Y-4653465D01*
X88124639Y-4653464D01*
X88124637Y-4653463D01*
X87969621Y-4574478D01*
X87926709Y-4560535D01*
X87804158Y-4520715D01*
X87632327Y-4493500D01*
X87632322Y-4493500D01*
X87458344Y-4493500D01*
X87458339Y-4493500D01*
X87286507Y-4520715D01*
X87121042Y-4574479D01*
X86966025Y-4653465D01*
X86825284Y-4755718D01*
X86825279Y-4755722D01*
X86702255Y-4878746D01*
X86702251Y-4878751D01*
X86599998Y-5019492D01*
X86521012Y-5174509D01*
X86467248Y-5339974D01*
X86440033Y-5511805D01*
X84386723Y-5511805D01*
X86228353Y-3670175D01*
X86289676Y-3636690D01*
X86359368Y-3641674D01*
X86415301Y-3683546D01*
X86439718Y-3749010D01*
X86440034Y-3757856D01*
X86440034Y-3944371D01*
X86440035Y-3944394D01*
X86442994Y-3969906D01*
X86442995Y-3969909D01*
X86489098Y-4074324D01*
X86489099Y-4074325D01*
X86569808Y-4155034D01*
X86674224Y-4201138D01*
X86699754Y-4204100D01*
X88390911Y-4204099D01*
X88416442Y-4201138D01*
X88520858Y-4155034D01*
X88601567Y-4074325D01*
X88647671Y-3969909D01*
X88650633Y-3944379D01*
X88650632Y-2253222D01*
X88647671Y-2227691D01*
X88601567Y-2123275D01*
X88520858Y-2042566D01*
X88509280Y-2037454D01*
X88416443Y-1996462D01*
X88390912Y-1993500D01*
X86699761Y-1993500D01*
X86699738Y-1993502D01*
X86674226Y-1996461D01*
X86674223Y-1996462D01*
X86569808Y-2042565D01*
X86489099Y-2123274D01*
X86442995Y-2227688D01*
X86442995Y-2227690D01*
X86440033Y-2253219D01*
X86440033Y-2426921D01*
X86420348Y-2493960D01*
X86367544Y-2539715D01*
X86316033Y-2550921D01*
X86053034Y-2550921D01*
X85923703Y-2585574D01*
X85807752Y-2652520D01*
X85807749Y-2652522D01*
X80800891Y-7659381D01*
X80739568Y-7692866D01*
X80713210Y-7695700D01*
X66100055Y-7695700D01*
X65977545Y-7728526D01*
X65977543Y-7728526D01*
X65970727Y-7730352D01*
X65854776Y-7797297D01*
X65854770Y-7797301D01*
X61725491Y-11926581D01*
X61664168Y-11960066D01*
X61637810Y-11962900D01*
X59723390Y-11962900D01*
X59656351Y-11943215D01*
X59635709Y-11926581D01*
X59209287Y-11500159D01*
X59204948Y-11492213D01*
X59197701Y-11486788D01*
X59188466Y-11462028D01*
X59175802Y-11438836D01*
X59176447Y-11429806D01*
X59173284Y-11421324D01*
X59178900Y-11395503D01*
X59180786Y-11369144D01*
X59186604Y-11360090D01*
X59188136Y-11353051D01*
X59209284Y-11324800D01*
X59332944Y-11201141D01*
X59437519Y-11057206D01*
X59518290Y-10898685D01*
X59573268Y-10729479D01*
X59601100Y-10553757D01*
X59601100Y-10375843D01*
X59573268Y-10200121D01*
X59538950Y-10094500D01*
X59518291Y-10030917D01*
X59478224Y-9952282D01*
X59437519Y-9872394D01*
X59437517Y-9872392D01*
X59437514Y-9872385D01*
X59434973Y-9868238D01*
X59436570Y-9867259D01*
X59415777Y-9808972D01*
X59431606Y-9740919D01*
X59481715Y-9692227D01*
X59539575Y-9677900D01*
X60005436Y-9677900D01*
X60072475Y-9697585D01*
X60118230Y-9750389D01*
X60128174Y-9819547D01*
X60105754Y-9874786D01*
X60087957Y-9899280D01*
X60010853Y-10050603D01*
X59958368Y-10212133D01*
X59931800Y-10379881D01*
X59931800Y-10549718D01*
X59958368Y-10717466D01*
X60010853Y-10878996D01*
X60057008Y-10969577D01*
X60466839Y-10559746D01*
X60498282Y-10677092D01*
X60570690Y-10802508D01*
X60673092Y-10904910D01*
X60798508Y-10977318D01*
X60915851Y-11008760D01*
X60506020Y-11418590D01*
X60596609Y-11464747D01*
X60758133Y-11517231D01*
X60925882Y-11543800D01*
X61095718Y-11543800D01*
X61263466Y-11517231D01*
X61424993Y-11464746D01*
X61424997Y-11464745D01*
X61515578Y-11418590D01*
X61105749Y-11008760D01*
X61223092Y-10977318D01*
X61348508Y-10904910D01*
X61450910Y-10802508D01*
X61523318Y-10677092D01*
X61554760Y-10559748D01*
X61964590Y-10969578D01*
X62010745Y-10878997D01*
X62010746Y-10878993D01*
X62063231Y-10717466D01*
X62089800Y-10549718D01*
X62089800Y-10379881D01*
X62063231Y-10212133D01*
X62010746Y-10050603D01*
X61933642Y-9899280D01*
X61915846Y-9874786D01*
X61892366Y-9808980D01*
X61908191Y-9740926D01*
X61958296Y-9692231D01*
X62016164Y-9677900D01*
X62652543Y-9677900D01*
X62652545Y-9677900D01*
X62781874Y-9643247D01*
X62897827Y-9576301D01*
X64338701Y-8135427D01*
X64405647Y-8019474D01*
X64411613Y-7997209D01*
X64414592Y-7986093D01*
X64431014Y-7924800D01*
X64440300Y-7890145D01*
X64440300Y-5511805D01*
X69100300Y-5511805D01*
X69100300Y-5685794D01*
X69127515Y-5857625D01*
X69167335Y-5980176D01*
X69181278Y-6023088D01*
X69256499Y-6170717D01*
X69260265Y-6178107D01*
X69362518Y-6318848D01*
X69362522Y-6318853D01*
X69485546Y-6441877D01*
X69485551Y-6441881D01*
X69580294Y-6510715D01*
X69626296Y-6544137D01*
X69781312Y-6623122D01*
X69906954Y-6663945D01*
X69946774Y-6676884D01*
X70118606Y-6704100D01*
X70118611Y-6704100D01*
X70292594Y-6704100D01*
X70464425Y-6676884D01*
X70629888Y-6623122D01*
X70784904Y-6544137D01*
X70925655Y-6441876D01*
X71048676Y-6318855D01*
X71150937Y-6178104D01*
X71229922Y-6023088D01*
X71283684Y-5857625D01*
X71295985Y-5779959D01*
X71310900Y-5685794D01*
X71310900Y-5511805D01*
X77770167Y-5511805D01*
X77770167Y-5685794D01*
X77797382Y-5857625D01*
X77837202Y-5980176D01*
X77851145Y-6023088D01*
X77926366Y-6170717D01*
X77930132Y-6178107D01*
X78032385Y-6318848D01*
X78032389Y-6318853D01*
X78155413Y-6441877D01*
X78155418Y-6441881D01*
X78250161Y-6510715D01*
X78296163Y-6544137D01*
X78451179Y-6623122D01*
X78576821Y-6663945D01*
X78616641Y-6676884D01*
X78788473Y-6704100D01*
X78788478Y-6704100D01*
X78962461Y-6704100D01*
X79134292Y-6676884D01*
X79299755Y-6623122D01*
X79454771Y-6544137D01*
X79595522Y-6441876D01*
X79718543Y-6318855D01*
X79820804Y-6178104D01*
X79899789Y-6023088D01*
X79953551Y-5857625D01*
X79965852Y-5779959D01*
X79980767Y-5685794D01*
X79980767Y-5511805D01*
X79953551Y-5339974D01*
X79940612Y-5300154D01*
X79899789Y-5174512D01*
X79820804Y-5019496D01*
X79773905Y-4954945D01*
X79718548Y-4878751D01*
X79718544Y-4878746D01*
X79595520Y-4755722D01*
X79595515Y-4755718D01*
X79454774Y-4653465D01*
X79454773Y-4653464D01*
X79454771Y-4653463D01*
X79299755Y-4574478D01*
X79256843Y-4560535D01*
X79134292Y-4520715D01*
X78962461Y-4493500D01*
X78962456Y-4493500D01*
X78788478Y-4493500D01*
X78788473Y-4493500D01*
X78616641Y-4520715D01*
X78451176Y-4574479D01*
X78296159Y-4653465D01*
X78155418Y-4755718D01*
X78155413Y-4755722D01*
X78032389Y-4878746D01*
X78032385Y-4878751D01*
X77930132Y-5019492D01*
X77851146Y-5174509D01*
X77797382Y-5339974D01*
X77770167Y-5511805D01*
X71310900Y-5511805D01*
X71283684Y-5339974D01*
X71270745Y-5300154D01*
X71229922Y-5174512D01*
X71150937Y-5019496D01*
X71104038Y-4954945D01*
X71048681Y-4878751D01*
X71048677Y-4878746D01*
X70925653Y-4755722D01*
X70925648Y-4755718D01*
X70784907Y-4653465D01*
X70784906Y-4653464D01*
X70784904Y-4653463D01*
X70629888Y-4574478D01*
X70586976Y-4560535D01*
X70464425Y-4520715D01*
X70292594Y-4493500D01*
X70292589Y-4493500D01*
X70118611Y-4493500D01*
X70118606Y-4493500D01*
X69946774Y-4520715D01*
X69781309Y-4574479D01*
X69626292Y-4653465D01*
X69485551Y-4755718D01*
X69485546Y-4755722D01*
X69362522Y-4878746D01*
X69362518Y-4878751D01*
X69260265Y-5019492D01*
X69181279Y-5174509D01*
X69127515Y-5339974D01*
X69100300Y-5511805D01*
X64440300Y-5511805D01*
X64440300Y-4757789D01*
X64459985Y-4690750D01*
X64476619Y-4670108D01*
X65542487Y-3604240D01*
X65603810Y-3570755D01*
X65630168Y-3567921D01*
X68976301Y-3567921D01*
X69043340Y-3587606D01*
X69089095Y-3640410D01*
X69100301Y-3691921D01*
X69100301Y-3944371D01*
X69100302Y-3944394D01*
X69103261Y-3969906D01*
X69103262Y-3969909D01*
X69149365Y-4074324D01*
X69149366Y-4074325D01*
X69230075Y-4155034D01*
X69334491Y-4201138D01*
X69360021Y-4204100D01*
X71051178Y-4204099D01*
X71076709Y-4201138D01*
X71181125Y-4155034D01*
X71261834Y-4074325D01*
X71307938Y-3969909D01*
X71310900Y-3944379D01*
X71310899Y-2253222D01*
X71310899Y-2253219D01*
X77770167Y-2253219D01*
X77770167Y-3944371D01*
X77770169Y-3944394D01*
X77773128Y-3969906D01*
X77773129Y-3969909D01*
X77819232Y-4074324D01*
X77819233Y-4074325D01*
X77899942Y-4155034D01*
X78004358Y-4201138D01*
X78029888Y-4204100D01*
X79721045Y-4204099D01*
X79746576Y-4201138D01*
X79850992Y-4155034D01*
X79931701Y-4074325D01*
X79977805Y-3969909D01*
X79980767Y-3944379D01*
X79980766Y-2253222D01*
X79977805Y-2227691D01*
X79931701Y-2123275D01*
X79850992Y-2042566D01*
X79839414Y-2037454D01*
X79746577Y-1996462D01*
X79721046Y-1993500D01*
X78029895Y-1993500D01*
X78029872Y-1993502D01*
X78004360Y-1996461D01*
X78004357Y-1996462D01*
X77899942Y-2042565D01*
X77819233Y-2123274D01*
X77773129Y-2227688D01*
X77773129Y-2227690D01*
X77770167Y-2253219D01*
X71310899Y-2253219D01*
X71310899Y-2253216D01*
X71307938Y-2227693D01*
X71307938Y-2227691D01*
X71261834Y-2123275D01*
X71181125Y-2042566D01*
X71169547Y-2037454D01*
X71076710Y-1996462D01*
X71051179Y-1993500D01*
X69360028Y-1993500D01*
X69360005Y-1993502D01*
X69334493Y-1996461D01*
X69334490Y-1996462D01*
X69230075Y-2042565D01*
X69149366Y-2123274D01*
X69103262Y-2227688D01*
X69103262Y-2227690D01*
X69100300Y-2253219D01*
X69100300Y-2426921D01*
X69080615Y-2493960D01*
X69027811Y-2539715D01*
X68976300Y-2550921D01*
X65301234Y-2550921D01*
X65171904Y-2585574D01*
X65055953Y-2652520D01*
X65055950Y-2652522D01*
X63524900Y-4183571D01*
X63524896Y-4183576D01*
X63513048Y-4204099D01*
X63513048Y-4204100D01*
X63457953Y-4299524D01*
X63423300Y-4428855D01*
X63423300Y-7561210D01*
X63403615Y-7628249D01*
X63386981Y-7648891D01*
X62411291Y-8624581D01*
X62349968Y-8658066D01*
X62323610Y-8660900D01*
X62049077Y-8660900D01*
X61982038Y-8641215D01*
X61936283Y-8588411D01*
X61926339Y-8519253D01*
X61938592Y-8480605D01*
X62010746Y-8338996D01*
X62063231Y-8177466D01*
X62089800Y-8009718D01*
X62089800Y-7839881D01*
X62063231Y-7672133D01*
X62010747Y-7510609D01*
X61964590Y-7420020D01*
X61554760Y-7829849D01*
X61523318Y-7712508D01*
X61450910Y-7587092D01*
X61348508Y-7484690D01*
X61223092Y-7412282D01*
X61105748Y-7380839D01*
X61515578Y-6971008D01*
X61424996Y-6924853D01*
X61263466Y-6872368D01*
X61095718Y-6845800D01*
X60925882Y-6845800D01*
X60758132Y-6872369D01*
X60758129Y-6872369D01*
X60596610Y-6924850D01*
X60506021Y-6971008D01*
X60915852Y-7380839D01*
X60798508Y-7412282D01*
X60673092Y-7484690D01*
X60570690Y-7587092D01*
X60498282Y-7712508D01*
X60466839Y-7829852D01*
X60057008Y-7420021D01*
X60010850Y-7510610D01*
X59958369Y-7672129D01*
X59958369Y-7672132D01*
X59931800Y-7839881D01*
X59931800Y-8009718D01*
X59958368Y-8177466D01*
X60010853Y-8338996D01*
X60083008Y-8480605D01*
X60095904Y-8549274D01*
X60069628Y-8614014D01*
X60012522Y-8654272D01*
X59972523Y-8660900D01*
X59566653Y-8660900D01*
X59499614Y-8641215D01*
X59453859Y-8588411D01*
X59443915Y-8519253D01*
X59456168Y-8480605D01*
X59478224Y-8437318D01*
X59518290Y-8358685D01*
X59573268Y-8189479D01*
X59601100Y-8013757D01*
X59601100Y-7835843D01*
X59573268Y-7660121D01*
X59541130Y-7561210D01*
X59518291Y-7490917D01*
X59437518Y-7332393D01*
X59404626Y-7287121D01*
X59332944Y-7188459D01*
X59207141Y-7062656D01*
X59063206Y-6958081D01*
X58996203Y-6923940D01*
X58945408Y-6875965D01*
X58928500Y-6813456D01*
X58928500Y-2954389D01*
X58948185Y-2887350D01*
X58964819Y-2866708D01*
X60524708Y-1306819D01*
X60586031Y-1273334D01*
X60612389Y-1270500D01*
X91914610Y-1270500D01*
X91981649Y-1290185D01*
X92002291Y-1306819D01*
X94201173Y-3505701D01*
X94308940Y-3567921D01*
X94317126Y-3572647D01*
X94317128Y-3572648D01*
X94381790Y-3589973D01*
X94446455Y-3607300D01*
X94985901Y-3607300D01*
X95052940Y-3626985D01*
X95098695Y-3679789D01*
X95109901Y-3731300D01*
X95109901Y-3944371D01*
X95109902Y-3944394D01*
X95112861Y-3969906D01*
X95112862Y-3969909D01*
X95158965Y-4074324D01*
X95158966Y-4074325D01*
X95239675Y-4155034D01*
X95344091Y-4201138D01*
X95369621Y-4204100D01*
X97060778Y-4204099D01*
X97086309Y-4201138D01*
X97190725Y-4155034D01*
X97271434Y-4074325D01*
X97317538Y-3969909D01*
X97320500Y-3944379D01*
X97320499Y-2253222D01*
X97317538Y-2227691D01*
X97271434Y-2123275D01*
X97190725Y-2042566D01*
X97179147Y-2037454D01*
X97086310Y-1996462D01*
X97060779Y-1993500D01*
X95369628Y-1993500D01*
X95369605Y-1993502D01*
X95344093Y-1996461D01*
X95344090Y-1996462D01*
X95239675Y-2042565D01*
X95158966Y-2123274D01*
X95112862Y-2227688D01*
X95112862Y-2227690D01*
X95109900Y-2253219D01*
X95109900Y-2466300D01*
X95107349Y-2474985D01*
X95108638Y-2483947D01*
X95097659Y-2507987D01*
X95090215Y-2533339D01*
X95083374Y-2539266D01*
X95079613Y-2547503D01*
X95057378Y-2561792D01*
X95037411Y-2579094D01*
X95026896Y-2581381D01*
X95020835Y-2585277D01*
X94985900Y-2590300D01*
X94775390Y-2590300D01*
X94708351Y-2570615D01*
X94687709Y-2553981D01*
X92845909Y-712181D01*
X92812424Y-650858D01*
X92817408Y-581166D01*
X92859280Y-525233D01*
X92924744Y-500816D01*
X92933590Y-500500D01*
X103020356Y-500500D01*
X103087395Y-520185D01*
X103133150Y-572989D01*
X103143094Y-642147D01*
X103114069Y-705703D01*
X103067809Y-739060D01*
X102980915Y-775053D01*
X102880810Y-816518D01*
X102880805Y-816520D01*
X102553061Y-991703D01*
X102553043Y-991714D01*
X102244045Y-1198180D01*
X102244031Y-1198190D01*
X101956744Y-1433960D01*
X101693960Y-1696744D01*
X101458190Y-1984031D01*
X101458180Y-1984045D01*
X101251714Y-2293043D01*
X101251703Y-2293061D01*
X101076520Y-2620805D01*
X101076518Y-2620810D01*
X100934294Y-2964168D01*
X100826411Y-3319811D01*
X100826408Y-3319822D01*
X100753904Y-3684319D01*
X100739271Y-3832900D01*
X100717478Y-4054177D01*
X100717478Y-4068877D01*
X100717478Y-4425823D01*
X100726824Y-4520715D01*
X100753904Y-4795680D01*
X100826408Y-5160177D01*
X100826411Y-5160188D01*
X100934294Y-5515831D01*
X101076518Y-5859189D01*
X101076520Y-5859194D01*
X101251703Y-6186938D01*
X101251714Y-6186956D01*
X101458180Y-6495954D01*
X101458190Y-6495968D01*
X101693960Y-6783255D01*
X101956744Y-7046039D01*
X101956749Y-7046043D01*
X101956750Y-7046044D01*
X102244037Y-7281814D01*
X102553050Y-7488290D01*
X102553059Y-7488295D01*
X102553061Y-7488296D01*
X102880805Y-7663479D01*
X102880807Y-7663479D01*
X102880813Y-7663483D01*
X103224170Y-7805706D01*
X103579814Y-7913590D01*
X103944319Y-7986095D01*
X104314177Y-8022522D01*
X104314180Y-8022522D01*
X104685820Y-8022522D01*
X104685823Y-8022522D01*
X105055681Y-7986095D01*
X105420186Y-7913590D01*
X105775830Y-7805706D01*
X106119187Y-7663483D01*
X106446950Y-7488290D01*
X106755963Y-7281814D01*
X107043250Y-7046044D01*
X107306044Y-6783250D01*
X107541814Y-6495963D01*
X107729198Y-6215522D01*
X107782810Y-6170717D01*
X107852135Y-6162010D01*
X107915162Y-6192164D01*
X107951882Y-6251607D01*
X107956300Y-6284413D01*
X107956300Y-43915500D01*
X107936615Y-43982539D01*
X107883811Y-44028294D01*
X107832300Y-44039500D01*
X624552Y-44039500D01*
X557513Y-44019815D01*
X511758Y-43967011D01*
X500552Y-43915500D01*
X500552Y-39693662D01*
X1182368Y-39693662D01*
X1182368Y-39930601D01*
X1219434Y-40164627D01*
X1292648Y-40389961D01*
X1292650Y-40389967D01*
X1400222Y-40601084D01*
X1539483Y-40792762D01*
X1539487Y-40792767D01*
X1707032Y-40960312D01*
X1707037Y-40960316D01*
X1874229Y-41081787D01*
X1898719Y-41099580D01*
X2006238Y-41154364D01*
X2109832Y-41207149D01*
X2109838Y-41207151D01*
X2335173Y-41280365D01*
X2335176Y-41280366D01*
X2569198Y-41317432D01*
X2569199Y-41317432D01*
X2806137Y-41317432D01*
X2806138Y-41317432D01*
X3040160Y-41280366D01*
X3265503Y-41207149D01*
X3369099Y-41154363D01*
X3437766Y-41141467D01*
X3502506Y-41167742D01*
X3542764Y-41224848D01*
X3545758Y-41294654D01*
X3525712Y-41337732D01*
X3444097Y-41450067D01*
X3340192Y-41653988D01*
X3340190Y-41653994D01*
X3269471Y-41871649D01*
X3233668Y-42097699D01*
X3233668Y-42326564D01*
X3269471Y-42552614D01*
X3340190Y-42770269D01*
X3340194Y-42770280D01*
X3444092Y-42974187D01*
X3444099Y-42974198D01*
X3457769Y-42993015D01*
X3457771Y-42993015D01*
X4002919Y-42447867D01*
X4013611Y-42473678D01*
X4123049Y-42637463D01*
X4262337Y-42776751D01*
X4426122Y-42886189D01*
X4451930Y-42896879D01*
X3906782Y-43442028D01*
X3925606Y-43455703D01*
X4129519Y-43559605D01*
X4129530Y-43559609D01*
X4347186Y-43630328D01*
X4347185Y-43630328D01*
X4573236Y-43666132D01*
X4802100Y-43666132D01*
X5028150Y-43630328D01*
X5245805Y-43559609D01*
X5245811Y-43559607D01*
X5449733Y-43455701D01*
X5634886Y-43321180D01*
X5634892Y-43321176D01*
X5648979Y-43307089D01*
X5703427Y-43252639D01*
X5703427Y-43252638D01*
X5347667Y-42896879D01*
X5373478Y-42886189D01*
X5537263Y-42776751D01*
X5676551Y-42637463D01*
X5785989Y-42473678D01*
X5796679Y-42447867D01*
X6152438Y-42803627D01*
X6152440Y-42803627D01*
X6220976Y-42735091D01*
X6355504Y-42549930D01*
X6393899Y-42474578D01*
X6459406Y-42346011D01*
X6459409Y-42346005D01*
X6530128Y-42128350D01*
X6565932Y-41902299D01*
X6565932Y-41673435D01*
X6530128Y-41447385D01*
X6509410Y-41383618D01*
X6498543Y-41350173D01*
X11503200Y-41350173D01*
X11503200Y-41555426D01*
X11535309Y-41758154D01*
X11598737Y-41953366D01*
X11686121Y-42124864D01*
X12139930Y-41671055D01*
X12186868Y-41784374D01*
X12263474Y-41899024D01*
X12360976Y-41996526D01*
X12475626Y-42073132D01*
X12588942Y-42120068D01*
X12135134Y-42573877D01*
X12306633Y-42661262D01*
X12501845Y-42724690D01*
X12704574Y-42756800D01*
X12909826Y-42756800D01*
X13112554Y-42724690D01*
X13307760Y-42661263D01*
X13479264Y-42573877D01*
X13025457Y-42120068D01*
X13138774Y-42073132D01*
X13253424Y-41996526D01*
X13350926Y-41899024D01*
X13427532Y-41784374D01*
X13474469Y-41671056D01*
X13928277Y-42124864D01*
X14015663Y-41953360D01*
X14079090Y-41758154D01*
X14111200Y-41555426D01*
X14111200Y-41350173D01*
X27733200Y-41350173D01*
X27733200Y-41555426D01*
X27765309Y-41758154D01*
X27828737Y-41953366D01*
X27916121Y-42124864D01*
X28369930Y-41671055D01*
X28416868Y-41784374D01*
X28493474Y-41899024D01*
X28590976Y-41996526D01*
X28705626Y-42073132D01*
X28818942Y-42120068D01*
X28365134Y-42573877D01*
X28536633Y-42661262D01*
X28731845Y-42724690D01*
X28934574Y-42756800D01*
X29139826Y-42756800D01*
X29342554Y-42724690D01*
X29537760Y-42661263D01*
X29709264Y-42573877D01*
X29255457Y-42120068D01*
X29368774Y-42073132D01*
X29483424Y-41996526D01*
X29580926Y-41899024D01*
X29657532Y-41784374D01*
X29704469Y-41671056D01*
X30158277Y-42124864D01*
X30245663Y-41953360D01*
X30309090Y-41758154D01*
X30341200Y-41555426D01*
X30341200Y-41350173D01*
X33503200Y-41350173D01*
X33503200Y-41555426D01*
X33535309Y-41758154D01*
X33598737Y-41953366D01*
X33686121Y-42124864D01*
X34139930Y-41671055D01*
X34186868Y-41784374D01*
X34263474Y-41899024D01*
X34360976Y-41996526D01*
X34475626Y-42073132D01*
X34588942Y-42120068D01*
X34135134Y-42573877D01*
X34306633Y-42661262D01*
X34501845Y-42724690D01*
X34704574Y-42756800D01*
X34909826Y-42756800D01*
X35112554Y-42724690D01*
X35307760Y-42661263D01*
X35479264Y-42573877D01*
X35025457Y-42120068D01*
X35138774Y-42073132D01*
X35253424Y-41996526D01*
X35350926Y-41899024D01*
X35427532Y-41784374D01*
X35474469Y-41671056D01*
X35928277Y-42124864D01*
X36015663Y-41953360D01*
X36079090Y-41758154D01*
X36111200Y-41555426D01*
X36111200Y-41350173D01*
X49733200Y-41350173D01*
X49733200Y-41555426D01*
X49765309Y-41758154D01*
X49828737Y-41953366D01*
X49916121Y-42124864D01*
X50369930Y-41671055D01*
X50416868Y-41784374D01*
X50493474Y-41899024D01*
X50590976Y-41996526D01*
X50705626Y-42073132D01*
X50818942Y-42120068D01*
X50365134Y-42573877D01*
X50536633Y-42661262D01*
X50731845Y-42724690D01*
X50934574Y-42756800D01*
X51139826Y-42756800D01*
X51342554Y-42724690D01*
X51537760Y-42661263D01*
X51709264Y-42573877D01*
X51255457Y-42120068D01*
X51368774Y-42073132D01*
X51483424Y-41996526D01*
X51580926Y-41899024D01*
X51657532Y-41784374D01*
X51704469Y-41671056D01*
X52158277Y-42124864D01*
X52245663Y-41953360D01*
X52309090Y-41758154D01*
X52341200Y-41555426D01*
X52341200Y-41350173D01*
X55503200Y-41350173D01*
X55503200Y-41555426D01*
X55535309Y-41758154D01*
X55598737Y-41953366D01*
X55686121Y-42124864D01*
X56139930Y-41671055D01*
X56186868Y-41784374D01*
X56263474Y-41899024D01*
X56360976Y-41996526D01*
X56475626Y-42073132D01*
X56588942Y-42120068D01*
X56135134Y-42573877D01*
X56306633Y-42661262D01*
X56501845Y-42724690D01*
X56704574Y-42756800D01*
X56909826Y-42756800D01*
X57112554Y-42724690D01*
X57307760Y-42661263D01*
X57479264Y-42573877D01*
X57025457Y-42120068D01*
X57138774Y-42073132D01*
X57253424Y-41996526D01*
X57350926Y-41899024D01*
X57427532Y-41784374D01*
X57474469Y-41671056D01*
X57928277Y-42124864D01*
X58015663Y-41953360D01*
X58079090Y-41758154D01*
X58111200Y-41555426D01*
X58111200Y-41350173D01*
X71733200Y-41350173D01*
X71733200Y-41555426D01*
X71765309Y-41758154D01*
X71828737Y-41953366D01*
X71916121Y-42124864D01*
X72369930Y-41671055D01*
X72416868Y-41784374D01*
X72493474Y-41899024D01*
X72590976Y-41996526D01*
X72705626Y-42073132D01*
X72818942Y-42120068D01*
X72365134Y-42573877D01*
X72536633Y-42661262D01*
X72731845Y-42724690D01*
X72934574Y-42756800D01*
X73139826Y-42756800D01*
X73342554Y-42724690D01*
X73537760Y-42661263D01*
X73709264Y-42573877D01*
X73255457Y-42120068D01*
X73368774Y-42073132D01*
X73483424Y-41996526D01*
X73580926Y-41899024D01*
X73657532Y-41784374D01*
X73704469Y-41671056D01*
X74158277Y-42124864D01*
X74245663Y-41953360D01*
X74309090Y-41758154D01*
X74341200Y-41555426D01*
X74341200Y-41350173D01*
X77503200Y-41350173D01*
X77503200Y-41555426D01*
X77535309Y-41758154D01*
X77598737Y-41953366D01*
X77686121Y-42124864D01*
X78139930Y-41671055D01*
X78186868Y-41784374D01*
X78263474Y-41899024D01*
X78360976Y-41996526D01*
X78475626Y-42073132D01*
X78588942Y-42120068D01*
X78135134Y-42573877D01*
X78306633Y-42661262D01*
X78501845Y-42724690D01*
X78704574Y-42756800D01*
X78909826Y-42756800D01*
X79112554Y-42724690D01*
X79307760Y-42661263D01*
X79479264Y-42573877D01*
X79025457Y-42120068D01*
X79138774Y-42073132D01*
X79253424Y-41996526D01*
X79350926Y-41899024D01*
X79427532Y-41784374D01*
X79474469Y-41671056D01*
X79928277Y-42124864D01*
X80015663Y-41953360D01*
X80079090Y-41758154D01*
X80111200Y-41555426D01*
X80111200Y-41350173D01*
X93733200Y-41350173D01*
X93733200Y-41555426D01*
X93765309Y-41758154D01*
X93828737Y-41953366D01*
X93916121Y-42124864D01*
X94369930Y-41671055D01*
X94416868Y-41784374D01*
X94493474Y-41899024D01*
X94590976Y-41996526D01*
X94705626Y-42073132D01*
X94818942Y-42120068D01*
X94365134Y-42573877D01*
X94536633Y-42661262D01*
X94731845Y-42724690D01*
X94934574Y-42756800D01*
X95139826Y-42756800D01*
X95342554Y-42724690D01*
X95537760Y-42661263D01*
X95709264Y-42573877D01*
X95255457Y-42120068D01*
X95368774Y-42073132D01*
X95483424Y-41996526D01*
X95580926Y-41899024D01*
X95657532Y-41784374D01*
X95704469Y-41671056D01*
X96158277Y-42124864D01*
X96245663Y-41953360D01*
X96309090Y-41758154D01*
X96341200Y-41555426D01*
X96341200Y-41350173D01*
X96309090Y-41147445D01*
X96245662Y-40952233D01*
X96158277Y-40780734D01*
X95704468Y-41234542D01*
X95657532Y-41121226D01*
X95580926Y-41006576D01*
X95483424Y-40909074D01*
X95368774Y-40832468D01*
X95255456Y-40785530D01*
X95709264Y-40331721D01*
X95537766Y-40244337D01*
X95342554Y-40180909D01*
X95139826Y-40148800D01*
X94934574Y-40148800D01*
X94731844Y-40180909D01*
X94731841Y-40180909D01*
X94536640Y-40244334D01*
X94365134Y-40331721D01*
X94818943Y-40785530D01*
X94705626Y-40832468D01*
X94590976Y-40909074D01*
X94493474Y-41006576D01*
X94416868Y-41121226D01*
X94369930Y-41234543D01*
X93916121Y-40780734D01*
X93828734Y-40952240D01*
X93765309Y-41147441D01*
X93765309Y-41147444D01*
X93733200Y-41350173D01*
X80111200Y-41350173D01*
X80079090Y-41147445D01*
X80015662Y-40952233D01*
X79928277Y-40780734D01*
X79474468Y-41234542D01*
X79427532Y-41121226D01*
X79350926Y-41006576D01*
X79253424Y-40909074D01*
X79138774Y-40832468D01*
X79025456Y-40785530D01*
X79479264Y-40331721D01*
X79307766Y-40244337D01*
X79112554Y-40180909D01*
X78909826Y-40148800D01*
X78704574Y-40148800D01*
X78501844Y-40180909D01*
X78501841Y-40180909D01*
X78306640Y-40244334D01*
X78135134Y-40331721D01*
X78588943Y-40785530D01*
X78475626Y-40832468D01*
X78360976Y-40909074D01*
X78263474Y-41006576D01*
X78186868Y-41121226D01*
X78139930Y-41234543D01*
X77686121Y-40780734D01*
X77598734Y-40952240D01*
X77535309Y-41147441D01*
X77535309Y-41147444D01*
X77503200Y-41350173D01*
X74341200Y-41350173D01*
X74309090Y-41147445D01*
X74245662Y-40952233D01*
X74158277Y-40780734D01*
X73704468Y-41234542D01*
X73657532Y-41121226D01*
X73580926Y-41006576D01*
X73483424Y-40909074D01*
X73368774Y-40832468D01*
X73255456Y-40785530D01*
X73709264Y-40331721D01*
X73537766Y-40244337D01*
X73342554Y-40180909D01*
X73139826Y-40148800D01*
X72934574Y-40148800D01*
X72731844Y-40180909D01*
X72731841Y-40180909D01*
X72536640Y-40244334D01*
X72365134Y-40331721D01*
X72818943Y-40785530D01*
X72705626Y-40832468D01*
X72590976Y-40909074D01*
X72493474Y-41006576D01*
X72416868Y-41121226D01*
X72369930Y-41234543D01*
X71916121Y-40780734D01*
X71828734Y-40952240D01*
X71765309Y-41147441D01*
X71765309Y-41147444D01*
X71733200Y-41350173D01*
X58111200Y-41350173D01*
X58079090Y-41147445D01*
X58015662Y-40952233D01*
X57928277Y-40780734D01*
X57474468Y-41234542D01*
X57427532Y-41121226D01*
X57350926Y-41006576D01*
X57253424Y-40909074D01*
X57138774Y-40832468D01*
X57025456Y-40785530D01*
X57479264Y-40331721D01*
X57307766Y-40244337D01*
X57112554Y-40180909D01*
X56909826Y-40148800D01*
X56704574Y-40148800D01*
X56501844Y-40180909D01*
X56501841Y-40180909D01*
X56306640Y-40244334D01*
X56135134Y-40331721D01*
X56588943Y-40785530D01*
X56475626Y-40832468D01*
X56360976Y-40909074D01*
X56263474Y-41006576D01*
X56186868Y-41121226D01*
X56139930Y-41234543D01*
X55686121Y-40780734D01*
X55598734Y-40952240D01*
X55535309Y-41147441D01*
X55535309Y-41147444D01*
X55503200Y-41350173D01*
X52341200Y-41350173D01*
X52309090Y-41147445D01*
X52245662Y-40952233D01*
X52158277Y-40780734D01*
X51704468Y-41234542D01*
X51657532Y-41121226D01*
X51580926Y-41006576D01*
X51483424Y-40909074D01*
X51368774Y-40832468D01*
X51255456Y-40785530D01*
X51709264Y-40331721D01*
X51537766Y-40244337D01*
X51342554Y-40180909D01*
X51139826Y-40148800D01*
X50934574Y-40148800D01*
X50731844Y-40180909D01*
X50731841Y-40180909D01*
X50536640Y-40244334D01*
X50365134Y-40331721D01*
X50818943Y-40785530D01*
X50705626Y-40832468D01*
X50590976Y-40909074D01*
X50493474Y-41006576D01*
X50416868Y-41121226D01*
X50369930Y-41234543D01*
X49916121Y-40780734D01*
X49828734Y-40952240D01*
X49765309Y-41147441D01*
X49765309Y-41147444D01*
X49733200Y-41350173D01*
X36111200Y-41350173D01*
X36079090Y-41147445D01*
X36015662Y-40952233D01*
X35928277Y-40780734D01*
X35474468Y-41234542D01*
X35427532Y-41121226D01*
X35350926Y-41006576D01*
X35253424Y-40909074D01*
X35138774Y-40832468D01*
X35025456Y-40785530D01*
X35479264Y-40331721D01*
X35307766Y-40244337D01*
X35112554Y-40180909D01*
X34909826Y-40148800D01*
X34704574Y-40148800D01*
X34501844Y-40180909D01*
X34501841Y-40180909D01*
X34306640Y-40244334D01*
X34135134Y-40331721D01*
X34588943Y-40785530D01*
X34475626Y-40832468D01*
X34360976Y-40909074D01*
X34263474Y-41006576D01*
X34186868Y-41121226D01*
X34139930Y-41234543D01*
X33686121Y-40780734D01*
X33598734Y-40952240D01*
X33535309Y-41147441D01*
X33535309Y-41147444D01*
X33503200Y-41350173D01*
X30341200Y-41350173D01*
X30309090Y-41147445D01*
X30245662Y-40952233D01*
X30158277Y-40780734D01*
X29704468Y-41234542D01*
X29657532Y-41121226D01*
X29580926Y-41006576D01*
X29483424Y-40909074D01*
X29368774Y-40832468D01*
X29255456Y-40785530D01*
X29709264Y-40331721D01*
X29537766Y-40244337D01*
X29342554Y-40180909D01*
X29139826Y-40148800D01*
X28934574Y-40148800D01*
X28731844Y-40180909D01*
X28731841Y-40180909D01*
X28536640Y-40244334D01*
X28365134Y-40331721D01*
X28818943Y-40785530D01*
X28705626Y-40832468D01*
X28590976Y-40909074D01*
X28493474Y-41006576D01*
X28416868Y-41121226D01*
X28369930Y-41234543D01*
X27916121Y-40780734D01*
X27828734Y-40952240D01*
X27765309Y-41147441D01*
X27765309Y-41147444D01*
X27733200Y-41350173D01*
X14111200Y-41350173D01*
X14079090Y-41147445D01*
X14015662Y-40952233D01*
X13928277Y-40780734D01*
X13474468Y-41234542D01*
X13427532Y-41121226D01*
X13350926Y-41006576D01*
X13253424Y-40909074D01*
X13138774Y-40832468D01*
X13025456Y-40785530D01*
X13479264Y-40331721D01*
X13307766Y-40244337D01*
X13112554Y-40180909D01*
X12909826Y-40148800D01*
X12704574Y-40148800D01*
X12501844Y-40180909D01*
X12501841Y-40180909D01*
X12306640Y-40244334D01*
X12135134Y-40331721D01*
X12588943Y-40785530D01*
X12475626Y-40832468D01*
X12360976Y-40909074D01*
X12263474Y-41006576D01*
X12186868Y-41121226D01*
X12139930Y-41234543D01*
X11686121Y-40780734D01*
X11598734Y-40952240D01*
X11535309Y-41147441D01*
X11535309Y-41147444D01*
X11503200Y-41350173D01*
X6498543Y-41350173D01*
X6459408Y-41229727D01*
X6459407Y-41229724D01*
X6355505Y-41025806D01*
X6341828Y-41006983D01*
X6341828Y-41006982D01*
X5796679Y-41552130D01*
X5785989Y-41526322D01*
X5676551Y-41362537D01*
X5537263Y-41223249D01*
X5373478Y-41113811D01*
X5347667Y-41103119D01*
X5892816Y-40557970D01*
X5873994Y-40544295D01*
X5758035Y-40485211D01*
X5670075Y-40440392D01*
X5670069Y-40440390D01*
X5452413Y-40369671D01*
X5452414Y-40369671D01*
X5226364Y-40333868D01*
X4997501Y-40333868D01*
X4771449Y-40369671D01*
X4553794Y-40440390D01*
X4553782Y-40440395D01*
X4464764Y-40485752D01*
X4396095Y-40498648D01*
X4331355Y-40472371D01*
X4291098Y-40415264D01*
X4288106Y-40345459D01*
X4308150Y-40302383D01*
X4399380Y-40176817D01*
X4506949Y-39965703D01*
X4580166Y-39740360D01*
X4617232Y-39506338D01*
X4617232Y-39269398D01*
X4580166Y-39035376D01*
X4580165Y-39035372D01*
X4506951Y-38810038D01*
X4506949Y-38810032D01*
X4399379Y-38598917D01*
X4385102Y-38579266D01*
X4260111Y-38407231D01*
X4092569Y-38239689D01*
X3900882Y-38100420D01*
X3689767Y-37992850D01*
X3689761Y-37992848D01*
X3464426Y-37919634D01*
X3464427Y-37919634D01*
X3288907Y-37891834D01*
X3230402Y-37882568D01*
X2993462Y-37882568D01*
X2946657Y-37889981D01*
X2759436Y-37919634D01*
X2534102Y-37992848D01*
X2534096Y-37992850D01*
X2322979Y-38100422D01*
X2131301Y-38239683D01*
X2131296Y-38239687D01*
X1539487Y-38831496D01*
X1539483Y-38831501D01*
X1400222Y-39023179D01*
X1292650Y-39234296D01*
X1292648Y-39234302D01*
X1219434Y-39459636D01*
X1182368Y-39693662D01*
X500552Y-39693662D01*
X500552Y-34193662D01*
X1182368Y-34193662D01*
X1182368Y-34430601D01*
X1219434Y-34664627D01*
X1292648Y-34889961D01*
X1292650Y-34889967D01*
X1400222Y-35101084D01*
X1539483Y-35292762D01*
X1539487Y-35292767D01*
X1707032Y-35460312D01*
X1707037Y-35460316D01*
X1857177Y-35569398D01*
X1898719Y-35599580D01*
X2036724Y-35669898D01*
X2109832Y-35707149D01*
X2109838Y-35707151D01*
X2335173Y-35780365D01*
X2335176Y-35780366D01*
X2569198Y-35817432D01*
X2569199Y-35817432D01*
X2806137Y-35817432D01*
X2806138Y-35817432D01*
X3040160Y-35780366D01*
X3040173Y-35780361D01*
X3042648Y-35779768D01*
X3043627Y-35779816D01*
X3044972Y-35779604D01*
X3045016Y-35779886D01*
X3112430Y-35783254D01*
X3169251Y-35823914D01*
X3195068Y-35888839D01*
X3194076Y-35919737D01*
X3182368Y-35993661D01*
X3182368Y-36230601D01*
X3219434Y-36464627D01*
X3292648Y-36689961D01*
X3292650Y-36689967D01*
X3400222Y-36901084D01*
X3539483Y-37092762D01*
X3539487Y-37092767D01*
X3707032Y-37260312D01*
X3707037Y-37260316D01*
X3874229Y-37381787D01*
X3898719Y-37399580D01*
X4036724Y-37469898D01*
X4109832Y-37507149D01*
X4109838Y-37507151D01*
X4335173Y-37580365D01*
X4335176Y-37580366D01*
X4569198Y-37617432D01*
X4569199Y-37617432D01*
X4806137Y-37617432D01*
X4806138Y-37617432D01*
X5040160Y-37580366D01*
X5265503Y-37507149D01*
X5476617Y-37399580D01*
X5668305Y-37260311D01*
X6260111Y-36668505D01*
X6399380Y-36476817D01*
X6506949Y-36265703D01*
X6508167Y-36261956D01*
X6580165Y-36040363D01*
X6580164Y-36040363D01*
X6580166Y-36040360D01*
X6617232Y-35806338D01*
X6617232Y-35569398D01*
X6580166Y-35335376D01*
X6580165Y-35335372D01*
X6506951Y-35110038D01*
X6506949Y-35110032D01*
X6475117Y-35047559D01*
X6448912Y-34996130D01*
X11451900Y-34996130D01*
X11451900Y-35209469D01*
X11485272Y-35420168D01*
X11551192Y-35623052D01*
X11551194Y-35623055D01*
X11648043Y-35813132D01*
X11773435Y-35985719D01*
X11924281Y-36136565D01*
X12096868Y-36261957D01*
X12286945Y-36358806D01*
X12286947Y-36358807D01*
X12388389Y-36391767D01*
X12489833Y-36424728D01*
X12587418Y-36440184D01*
X12700531Y-36458100D01*
X12700536Y-36458100D01*
X12913869Y-36458100D01*
X13016013Y-36441921D01*
X13124567Y-36424728D01*
X13327455Y-36358806D01*
X13517532Y-36261957D01*
X13690119Y-36136565D01*
X13840965Y-35985719D01*
X13966357Y-35813132D01*
X14063206Y-35623055D01*
X14129128Y-35420167D01*
X14149307Y-35292762D01*
X14162500Y-35209469D01*
X14162500Y-34996130D01*
X27681900Y-34996130D01*
X27681900Y-35209469D01*
X27715272Y-35420168D01*
X27781192Y-35623052D01*
X27781194Y-35623055D01*
X27878043Y-35813132D01*
X28003435Y-35985719D01*
X28154281Y-36136565D01*
X28326868Y-36261957D01*
X28516945Y-36358806D01*
X28516947Y-36358807D01*
X28618389Y-36391767D01*
X28719833Y-36424728D01*
X28817418Y-36440184D01*
X28930531Y-36458100D01*
X28930536Y-36458100D01*
X29143869Y-36458100D01*
X29246013Y-36441921D01*
X29354567Y-36424728D01*
X29557455Y-36358806D01*
X29747532Y-36261957D01*
X29920119Y-36136565D01*
X30070965Y-35985719D01*
X30196357Y-35813132D01*
X30293206Y-35623055D01*
X30359128Y-35420167D01*
X30379307Y-35292762D01*
X30392500Y-35209469D01*
X30392500Y-34996130D01*
X33451900Y-34996130D01*
X33451900Y-35209469D01*
X33485272Y-35420168D01*
X33551192Y-35623052D01*
X33551194Y-35623055D01*
X33648043Y-35813132D01*
X33773435Y-35985719D01*
X33924281Y-36136565D01*
X34096868Y-36261957D01*
X34286945Y-36358806D01*
X34286947Y-36358807D01*
X34388389Y-36391767D01*
X34489833Y-36424728D01*
X34587418Y-36440184D01*
X34700531Y-36458100D01*
X34700536Y-36458100D01*
X34913869Y-36458100D01*
X35016013Y-36441921D01*
X35124567Y-36424728D01*
X35327455Y-36358806D01*
X35517532Y-36261957D01*
X35690119Y-36136565D01*
X35840965Y-35985719D01*
X35966357Y-35813132D01*
X36063206Y-35623055D01*
X36129128Y-35420167D01*
X36149307Y-35292762D01*
X36162500Y-35209469D01*
X36162500Y-34996130D01*
X49681900Y-34996130D01*
X49681900Y-35209469D01*
X49715272Y-35420168D01*
X49781192Y-35623052D01*
X49781194Y-35623055D01*
X49878043Y-35813132D01*
X50003435Y-35985719D01*
X50154281Y-36136565D01*
X50326868Y-36261957D01*
X50516945Y-36358806D01*
X50516947Y-36358807D01*
X50618389Y-36391767D01*
X50719833Y-36424728D01*
X50817418Y-36440184D01*
X50930531Y-36458100D01*
X50930536Y-36458100D01*
X51143869Y-36458100D01*
X51246013Y-36441921D01*
X51354567Y-36424728D01*
X51557455Y-36358806D01*
X51747532Y-36261957D01*
X51920119Y-36136565D01*
X52070965Y-35985719D01*
X52196357Y-35813132D01*
X52293206Y-35623055D01*
X52359128Y-35420167D01*
X52379307Y-35292762D01*
X52392500Y-35209469D01*
X52392500Y-34996130D01*
X55451900Y-34996130D01*
X55451900Y-35209469D01*
X55485272Y-35420168D01*
X55551192Y-35623052D01*
X55551194Y-35623055D01*
X55648043Y-35813132D01*
X55773435Y-35985719D01*
X55924281Y-36136565D01*
X56096868Y-36261957D01*
X56286945Y-36358806D01*
X56286947Y-36358807D01*
X56388389Y-36391767D01*
X56489833Y-36424728D01*
X56587418Y-36440184D01*
X56700531Y-36458100D01*
X56700536Y-36458100D01*
X56913869Y-36458100D01*
X57016013Y-36441921D01*
X57124567Y-36424728D01*
X57327455Y-36358806D01*
X57517532Y-36261957D01*
X57690119Y-36136565D01*
X57840965Y-35985719D01*
X57966357Y-35813132D01*
X58063206Y-35623055D01*
X58129128Y-35420167D01*
X58149307Y-35292762D01*
X58162500Y-35209469D01*
X58162500Y-34996130D01*
X71681900Y-34996130D01*
X71681900Y-35209469D01*
X71715272Y-35420168D01*
X71781192Y-35623052D01*
X71781194Y-35623055D01*
X71878043Y-35813132D01*
X72003435Y-35985719D01*
X72154281Y-36136565D01*
X72326868Y-36261957D01*
X72516945Y-36358806D01*
X72516947Y-36358807D01*
X72618389Y-36391767D01*
X72719833Y-36424728D01*
X72817418Y-36440184D01*
X72930531Y-36458100D01*
X72930536Y-36458100D01*
X73143869Y-36458100D01*
X73246013Y-36441921D01*
X73354567Y-36424728D01*
X73557455Y-36358806D01*
X73747532Y-36261957D01*
X73920119Y-36136565D01*
X74070965Y-35985719D01*
X74196357Y-35813132D01*
X74293206Y-35623055D01*
X74359128Y-35420167D01*
X74379307Y-35292762D01*
X74392500Y-35209469D01*
X74392500Y-34996130D01*
X77451900Y-34996130D01*
X77451900Y-35209469D01*
X77485272Y-35420168D01*
X77551192Y-35623052D01*
X77551194Y-35623055D01*
X77648043Y-35813132D01*
X77773435Y-35985719D01*
X77924281Y-36136565D01*
X78096868Y-36261957D01*
X78286945Y-36358806D01*
X78286947Y-36358807D01*
X78388389Y-36391767D01*
X78489833Y-36424728D01*
X78587418Y-36440184D01*
X78700531Y-36458100D01*
X78700536Y-36458100D01*
X78913869Y-36458100D01*
X79016013Y-36441921D01*
X79124567Y-36424728D01*
X79327455Y-36358806D01*
X79517532Y-36261957D01*
X79690119Y-36136565D01*
X79840965Y-35985719D01*
X79966357Y-35813132D01*
X80063206Y-35623055D01*
X80129128Y-35420167D01*
X80149307Y-35292762D01*
X80162500Y-35209469D01*
X80162500Y-34996130D01*
X93681900Y-34996130D01*
X93681900Y-35209469D01*
X93715272Y-35420168D01*
X93781192Y-35623052D01*
X93781194Y-35623055D01*
X93878043Y-35813132D01*
X94003435Y-35985719D01*
X94154281Y-36136565D01*
X94326868Y-36261957D01*
X94516945Y-36358806D01*
X94516947Y-36358807D01*
X94618389Y-36391767D01*
X94719833Y-36424728D01*
X94817418Y-36440184D01*
X94930531Y-36458100D01*
X94930536Y-36458100D01*
X95143869Y-36458100D01*
X95246013Y-36441921D01*
X95354567Y-36424728D01*
X95557455Y-36358806D01*
X95747532Y-36261957D01*
X95920119Y-36136565D01*
X96070965Y-35985719D01*
X96196357Y-35813132D01*
X96293206Y-35623055D01*
X96359128Y-35420167D01*
X96379307Y-35292762D01*
X96392500Y-35209469D01*
X96392500Y-34996130D01*
X96373085Y-34873556D01*
X96359128Y-34785433D01*
X96293206Y-34582545D01*
X96196357Y-34392468D01*
X96070965Y-34219881D01*
X95920119Y-34069035D01*
X95747532Y-33943643D01*
X95557452Y-33846792D01*
X95354568Y-33780872D01*
X95143869Y-33747500D01*
X95143864Y-33747500D01*
X94930536Y-33747500D01*
X94930531Y-33747500D01*
X94719831Y-33780872D01*
X94516947Y-33846792D01*
X94326867Y-33943643D01*
X94240580Y-34006335D01*
X94154281Y-34069035D01*
X94154279Y-34069037D01*
X94154278Y-34069037D01*
X94003437Y-34219878D01*
X94003437Y-34219879D01*
X94003435Y-34219881D01*
X93958077Y-34282311D01*
X93878043Y-34392467D01*
X93781192Y-34582547D01*
X93715272Y-34785431D01*
X93681900Y-34996130D01*
X80162500Y-34996130D01*
X80143085Y-34873556D01*
X80129128Y-34785433D01*
X80063206Y-34582545D01*
X79966357Y-34392468D01*
X79840965Y-34219881D01*
X79690119Y-34069035D01*
X79517532Y-33943643D01*
X79327452Y-33846792D01*
X79124568Y-33780872D01*
X78913869Y-33747500D01*
X78913864Y-33747500D01*
X78700536Y-33747500D01*
X78700531Y-33747500D01*
X78489831Y-33780872D01*
X78286947Y-33846792D01*
X78096867Y-33943643D01*
X78010580Y-34006335D01*
X77924281Y-34069035D01*
X77924279Y-34069037D01*
X77924278Y-34069037D01*
X77773437Y-34219878D01*
X77773437Y-34219879D01*
X77773435Y-34219881D01*
X77728077Y-34282311D01*
X77648043Y-34392467D01*
X77551192Y-34582547D01*
X77485272Y-34785431D01*
X77451900Y-34996130D01*
X74392500Y-34996130D01*
X74373085Y-34873556D01*
X74359128Y-34785433D01*
X74293206Y-34582545D01*
X74196357Y-34392468D01*
X74070965Y-34219881D01*
X73920119Y-34069035D01*
X73747532Y-33943643D01*
X73557452Y-33846792D01*
X73354568Y-33780872D01*
X73143869Y-33747500D01*
X73143864Y-33747500D01*
X72930536Y-33747500D01*
X72930531Y-33747500D01*
X72719831Y-33780872D01*
X72516947Y-33846792D01*
X72326867Y-33943643D01*
X72240580Y-34006335D01*
X72154281Y-34069035D01*
X72154279Y-34069037D01*
X72154278Y-34069037D01*
X72003437Y-34219878D01*
X72003437Y-34219879D01*
X72003435Y-34219881D01*
X71958077Y-34282311D01*
X71878043Y-34392467D01*
X71781192Y-34582547D01*
X71715272Y-34785431D01*
X71681900Y-34996130D01*
X58162500Y-34996130D01*
X58143085Y-34873556D01*
X58129128Y-34785433D01*
X58063206Y-34582545D01*
X57966357Y-34392468D01*
X57840965Y-34219881D01*
X57690119Y-34069035D01*
X57517532Y-33943643D01*
X57327452Y-33846792D01*
X57124568Y-33780872D01*
X56913869Y-33747500D01*
X56913864Y-33747500D01*
X56700536Y-33747500D01*
X56700531Y-33747500D01*
X56489831Y-33780872D01*
X56286947Y-33846792D01*
X56096867Y-33943643D01*
X56010580Y-34006335D01*
X55924281Y-34069035D01*
X55924279Y-34069037D01*
X55924278Y-34069037D01*
X55773437Y-34219878D01*
X55773437Y-34219879D01*
X55773435Y-34219881D01*
X55728077Y-34282311D01*
X55648043Y-34392467D01*
X55551192Y-34582547D01*
X55485272Y-34785431D01*
X55451900Y-34996130D01*
X52392500Y-34996130D01*
X52373085Y-34873556D01*
X52359128Y-34785433D01*
X52293206Y-34582545D01*
X52196357Y-34392468D01*
X52070965Y-34219881D01*
X51920119Y-34069035D01*
X51747532Y-33943643D01*
X51557452Y-33846792D01*
X51354568Y-33780872D01*
X51143869Y-33747500D01*
X51143864Y-33747500D01*
X50930536Y-33747500D01*
X50930531Y-33747500D01*
X50719831Y-33780872D01*
X50516947Y-33846792D01*
X50326867Y-33943643D01*
X50240580Y-34006335D01*
X50154281Y-34069035D01*
X50154279Y-34069037D01*
X50154278Y-34069037D01*
X50003437Y-34219878D01*
X50003437Y-34219879D01*
X50003435Y-34219881D01*
X49958077Y-34282311D01*
X49878043Y-34392467D01*
X49781192Y-34582547D01*
X49715272Y-34785431D01*
X49681900Y-34996130D01*
X36162500Y-34996130D01*
X36143085Y-34873556D01*
X36129128Y-34785433D01*
X36063206Y-34582545D01*
X35966357Y-34392468D01*
X35840965Y-34219881D01*
X35690119Y-34069035D01*
X35517532Y-33943643D01*
X35327452Y-33846792D01*
X35124568Y-33780872D01*
X34913869Y-33747500D01*
X34913864Y-33747500D01*
X34700536Y-33747500D01*
X34700531Y-33747500D01*
X34489831Y-33780872D01*
X34286947Y-33846792D01*
X34096867Y-33943643D01*
X34010580Y-34006335D01*
X33924281Y-34069035D01*
X33924279Y-34069037D01*
X33924278Y-34069037D01*
X33773437Y-34219878D01*
X33773437Y-34219879D01*
X33773435Y-34219881D01*
X33728077Y-34282311D01*
X33648043Y-34392467D01*
X33551192Y-34582547D01*
X33485272Y-34785431D01*
X33451900Y-34996130D01*
X30392500Y-34996130D01*
X30373085Y-34873556D01*
X30359128Y-34785433D01*
X30293206Y-34582545D01*
X30196357Y-34392468D01*
X30070965Y-34219881D01*
X29920119Y-34069035D01*
X29747532Y-33943643D01*
X29557452Y-33846792D01*
X29354568Y-33780872D01*
X29143869Y-33747500D01*
X29143864Y-33747500D01*
X28930536Y-33747500D01*
X28930531Y-33747500D01*
X28719831Y-33780872D01*
X28516947Y-33846792D01*
X28326867Y-33943643D01*
X28240580Y-34006335D01*
X28154281Y-34069035D01*
X28154279Y-34069037D01*
X28154278Y-34069037D01*
X28003437Y-34219878D01*
X28003437Y-34219879D01*
X28003435Y-34219881D01*
X27958077Y-34282311D01*
X27878043Y-34392467D01*
X27781192Y-34582547D01*
X27715272Y-34785431D01*
X27681900Y-34996130D01*
X14162500Y-34996130D01*
X14143085Y-34873556D01*
X14129128Y-34785433D01*
X14063206Y-34582545D01*
X13966357Y-34392468D01*
X13840965Y-34219881D01*
X13690119Y-34069035D01*
X13517532Y-33943643D01*
X13327452Y-33846792D01*
X13124568Y-33780872D01*
X12913869Y-33747500D01*
X12913864Y-33747500D01*
X12700536Y-33747500D01*
X12700531Y-33747500D01*
X12489831Y-33780872D01*
X12286947Y-33846792D01*
X12096867Y-33943643D01*
X12010580Y-34006335D01*
X11924281Y-34069035D01*
X11924279Y-34069037D01*
X11924278Y-34069037D01*
X11773437Y-34219878D01*
X11773437Y-34219879D01*
X11773435Y-34219881D01*
X11728077Y-34282311D01*
X11648043Y-34392467D01*
X11551192Y-34582547D01*
X11485272Y-34785431D01*
X11451900Y-34996130D01*
X6448912Y-34996130D01*
X6399379Y-34898917D01*
X6260111Y-34707231D01*
X6092569Y-34539689D01*
X5900882Y-34400420D01*
X5689767Y-34292850D01*
X5689761Y-34292848D01*
X5464426Y-34219634D01*
X5464427Y-34219634D01*
X5288907Y-34191834D01*
X5230402Y-34182568D01*
X4993462Y-34182568D01*
X4939212Y-34191160D01*
X4759443Y-34219633D01*
X4756932Y-34220236D01*
X4755949Y-34220186D01*
X4754628Y-34220396D01*
X4754584Y-34220118D01*
X4687150Y-34216738D01*
X4630336Y-34176069D01*
X4604529Y-34111140D01*
X4605522Y-34080265D01*
X4617232Y-34006338D01*
X4617232Y-33830300D01*
X4636917Y-33763261D01*
X4689721Y-33717506D01*
X4741232Y-33706300D01*
X6874143Y-33706300D01*
X6874145Y-33706300D01*
X7003474Y-33671647D01*
X7119427Y-33604701D01*
X9550901Y-31173227D01*
X9617847Y-31057274D01*
X9642672Y-30964624D01*
X9652500Y-30927945D01*
X9652500Y-28646130D01*
X11451900Y-28646130D01*
X11451900Y-28859469D01*
X11485272Y-29070168D01*
X11551192Y-29273052D01*
X11551194Y-29273055D01*
X11648043Y-29463132D01*
X11773435Y-29635719D01*
X11924281Y-29786565D01*
X12096868Y-29911957D01*
X12286945Y-30008806D01*
X12286947Y-30008807D01*
X12365414Y-30034302D01*
X12489833Y-30074728D01*
X12587418Y-30090184D01*
X12700531Y-30108100D01*
X12700536Y-30108100D01*
X12913869Y-30108100D01*
X13016013Y-30091921D01*
X13124567Y-30074728D01*
X13327455Y-30008806D01*
X13517532Y-29911957D01*
X13690119Y-29786565D01*
X13840965Y-29635719D01*
X13966357Y-29463132D01*
X14063206Y-29273055D01*
X14129128Y-29070167D01*
X14156013Y-28900422D01*
X14162500Y-28859469D01*
X14162500Y-28646130D01*
X27681900Y-28646130D01*
X27681900Y-28859469D01*
X27715272Y-29070168D01*
X27781192Y-29273052D01*
X27781194Y-29273055D01*
X27878043Y-29463132D01*
X28003435Y-29635719D01*
X28154281Y-29786565D01*
X28326868Y-29911957D01*
X28516945Y-30008806D01*
X28516947Y-30008807D01*
X28595414Y-30034302D01*
X28719833Y-30074728D01*
X28817418Y-30090184D01*
X28930531Y-30108100D01*
X28930536Y-30108100D01*
X29143869Y-30108100D01*
X29246013Y-30091921D01*
X29354567Y-30074728D01*
X29557455Y-30008806D01*
X29747532Y-29911957D01*
X29920119Y-29786565D01*
X30070965Y-29635719D01*
X30196357Y-29463132D01*
X30293206Y-29273055D01*
X30359128Y-29070167D01*
X30386013Y-28900422D01*
X30392500Y-28859469D01*
X30392500Y-28646130D01*
X33451900Y-28646130D01*
X33451900Y-28859469D01*
X33485272Y-29070168D01*
X33551192Y-29273052D01*
X33551194Y-29273055D01*
X33648043Y-29463132D01*
X33773435Y-29635719D01*
X33924281Y-29786565D01*
X34096868Y-29911957D01*
X34286945Y-30008806D01*
X34286947Y-30008807D01*
X34365414Y-30034302D01*
X34489833Y-30074728D01*
X34587418Y-30090184D01*
X34700531Y-30108100D01*
X34700536Y-30108100D01*
X34913869Y-30108100D01*
X35016013Y-30091921D01*
X35124567Y-30074728D01*
X35327455Y-30008806D01*
X35517532Y-29911957D01*
X35690119Y-29786565D01*
X35840965Y-29635719D01*
X35966357Y-29463132D01*
X36063206Y-29273055D01*
X36129128Y-29070167D01*
X36156013Y-28900422D01*
X36162500Y-28859469D01*
X36162500Y-28646130D01*
X36143085Y-28523556D01*
X36129128Y-28435433D01*
X36087920Y-28308607D01*
X36063207Y-28232547D01*
X35966356Y-28042467D01*
X35840965Y-27869881D01*
X35690119Y-27719035D01*
X35517532Y-27593643D01*
X35361275Y-27514026D01*
X35327452Y-27496792D01*
X35124568Y-27430872D01*
X34913869Y-27397500D01*
X34913864Y-27397500D01*
X34700536Y-27397500D01*
X34700531Y-27397500D01*
X34489831Y-27430872D01*
X34286947Y-27496792D01*
X34096867Y-27593643D01*
X33998400Y-27665183D01*
X33924281Y-27719035D01*
X33924279Y-27719037D01*
X33924278Y-27719037D01*
X33773437Y-27869878D01*
X33773437Y-27869879D01*
X33773435Y-27869881D01*
X33719583Y-27944000D01*
X33648043Y-28042467D01*
X33551192Y-28232547D01*
X33485272Y-28435431D01*
X33451900Y-28646130D01*
X30392500Y-28646130D01*
X30373085Y-28523556D01*
X30359128Y-28435433D01*
X30317920Y-28308607D01*
X30293207Y-28232547D01*
X30196356Y-28042467D01*
X30070965Y-27869881D01*
X29920119Y-27719035D01*
X29747532Y-27593643D01*
X29591275Y-27514026D01*
X29557452Y-27496792D01*
X29354568Y-27430872D01*
X29143869Y-27397500D01*
X29143864Y-27397500D01*
X28930536Y-27397500D01*
X28930531Y-27397500D01*
X28719831Y-27430872D01*
X28516947Y-27496792D01*
X28326867Y-27593643D01*
X28228400Y-27665183D01*
X28154281Y-27719035D01*
X28154279Y-27719037D01*
X28154278Y-27719037D01*
X28003437Y-27869878D01*
X28003437Y-27869879D01*
X28003435Y-27869881D01*
X27949583Y-27944000D01*
X27878043Y-28042467D01*
X27781192Y-28232547D01*
X27715272Y-28435431D01*
X27681900Y-28646130D01*
X14162500Y-28646130D01*
X14143085Y-28523556D01*
X14129128Y-28435433D01*
X14087920Y-28308607D01*
X14063207Y-28232547D01*
X13966356Y-28042467D01*
X13840965Y-27869881D01*
X13690119Y-27719035D01*
X13517532Y-27593643D01*
X13361275Y-27514026D01*
X13327452Y-27496792D01*
X13124568Y-27430872D01*
X12913869Y-27397500D01*
X12913864Y-27397500D01*
X12700536Y-27397500D01*
X12700531Y-27397500D01*
X12489831Y-27430872D01*
X12286947Y-27496792D01*
X12096867Y-27593643D01*
X11998400Y-27665183D01*
X11924281Y-27719035D01*
X11924279Y-27719037D01*
X11924278Y-27719037D01*
X11773437Y-27869878D01*
X11773437Y-27869879D01*
X11773435Y-27869881D01*
X11719583Y-27944000D01*
X11648043Y-28042467D01*
X11551192Y-28232547D01*
X11485272Y-28435431D01*
X11451900Y-28646130D01*
X9652500Y-28646130D01*
X9652500Y-24696789D01*
X9672185Y-24629750D01*
X9688819Y-24609108D01*
X13229908Y-21068019D01*
X13291231Y-21034534D01*
X13317589Y-21031700D01*
X22749143Y-21031700D01*
X22749145Y-21031700D01*
X22878474Y-20997047D01*
X22994427Y-20930101D01*
X26192746Y-17731782D01*
X28687300Y-17731782D01*
X28687300Y-17929817D01*
X28725931Y-18124027D01*
X28725933Y-18124035D01*
X28801713Y-18306985D01*
X28801718Y-18306994D01*
X28911732Y-18471640D01*
X28911735Y-18471644D01*
X29051755Y-18611664D01*
X29051759Y-18611667D01*
X29216405Y-18721681D01*
X29216411Y-18721684D01*
X29216412Y-18721685D01*
X29399365Y-18797467D01*
X29533782Y-18824204D01*
X29593582Y-18836099D01*
X29593586Y-18836100D01*
X29593587Y-18836100D01*
X29791614Y-18836100D01*
X29806049Y-18833228D01*
X29882715Y-18817978D01*
X29952304Y-18824204D01*
X29994586Y-18851914D01*
X31927299Y-20784626D01*
X32021974Y-20879301D01*
X32137926Y-20946247D01*
X32267255Y-20980900D01*
X32401146Y-20980900D01*
X42486210Y-20980900D01*
X42553249Y-21000585D01*
X42573891Y-21017219D01*
X49729430Y-28172758D01*
X49762915Y-28234081D01*
X49759680Y-28298757D01*
X49715272Y-28435431D01*
X49681900Y-28646130D01*
X49681900Y-28859469D01*
X49715272Y-29070168D01*
X49781192Y-29273052D01*
X49781194Y-29273055D01*
X49878043Y-29463132D01*
X50003435Y-29635719D01*
X50154281Y-29786565D01*
X50326868Y-29911957D01*
X50516945Y-30008806D01*
X50516947Y-30008807D01*
X50595414Y-30034302D01*
X50719833Y-30074728D01*
X50817418Y-30090184D01*
X50930531Y-30108100D01*
X50930536Y-30108100D01*
X51143869Y-30108100D01*
X51246013Y-30091921D01*
X51354567Y-30074728D01*
X51557455Y-30008806D01*
X51747532Y-29911957D01*
X51920119Y-29786565D01*
X52070965Y-29635719D01*
X52196357Y-29463132D01*
X52293206Y-29273055D01*
X52359128Y-29070167D01*
X52386013Y-28900422D01*
X52392500Y-28859469D01*
X52392500Y-28646130D01*
X55451900Y-28646130D01*
X55451900Y-28859469D01*
X55485272Y-29070168D01*
X55551192Y-29273052D01*
X55551194Y-29273055D01*
X55648043Y-29463132D01*
X55773435Y-29635719D01*
X55924281Y-29786565D01*
X56096868Y-29911957D01*
X56286945Y-30008806D01*
X56286947Y-30008807D01*
X56365414Y-30034302D01*
X56489833Y-30074728D01*
X56587418Y-30090184D01*
X56700531Y-30108100D01*
X56700536Y-30108100D01*
X56913869Y-30108100D01*
X57016013Y-30091921D01*
X57124567Y-30074728D01*
X57327455Y-30008806D01*
X57517532Y-29911957D01*
X57690119Y-29786565D01*
X57840965Y-29635719D01*
X57966357Y-29463132D01*
X58063206Y-29273055D01*
X58129128Y-29070167D01*
X58156013Y-28900422D01*
X58162500Y-28859469D01*
X58162500Y-28646130D01*
X71681900Y-28646130D01*
X71681900Y-28859469D01*
X71715272Y-29070168D01*
X71781192Y-29273052D01*
X71781194Y-29273055D01*
X71878043Y-29463132D01*
X72003435Y-29635719D01*
X72154281Y-29786565D01*
X72326868Y-29911957D01*
X72516945Y-30008806D01*
X72516947Y-30008807D01*
X72595414Y-30034302D01*
X72719833Y-30074728D01*
X72817418Y-30090184D01*
X72930531Y-30108100D01*
X72930536Y-30108100D01*
X73143869Y-30108100D01*
X73246013Y-30091921D01*
X73354567Y-30074728D01*
X73557455Y-30008806D01*
X73747532Y-29911957D01*
X73920119Y-29786565D01*
X74070965Y-29635719D01*
X74196357Y-29463132D01*
X74293206Y-29273055D01*
X74359128Y-29070167D01*
X74386013Y-28900422D01*
X74392500Y-28859469D01*
X74392500Y-28646130D01*
X77451900Y-28646130D01*
X77451900Y-28859469D01*
X77485272Y-29070168D01*
X77551192Y-29273052D01*
X77551194Y-29273055D01*
X77648043Y-29463132D01*
X77773435Y-29635719D01*
X77924281Y-29786565D01*
X78096868Y-29911957D01*
X78286945Y-30008806D01*
X78286947Y-30008807D01*
X78365414Y-30034302D01*
X78489833Y-30074728D01*
X78587418Y-30090184D01*
X78700531Y-30108100D01*
X78700536Y-30108100D01*
X78913869Y-30108100D01*
X79016013Y-30091921D01*
X79124567Y-30074728D01*
X79327455Y-30008806D01*
X79517532Y-29911957D01*
X79690119Y-29786565D01*
X79840965Y-29635719D01*
X79966357Y-29463132D01*
X80063206Y-29273055D01*
X80129128Y-29070167D01*
X80156013Y-28900422D01*
X80162500Y-28859469D01*
X80162500Y-28646130D01*
X80143085Y-28523556D01*
X80129128Y-28435433D01*
X80087920Y-28308607D01*
X80063207Y-28232547D01*
X79966356Y-28042467D01*
X79840965Y-27869881D01*
X79690119Y-27719035D01*
X79517532Y-27593643D01*
X79361275Y-27514026D01*
X79327452Y-27496792D01*
X79124568Y-27430872D01*
X78913869Y-27397500D01*
X78913864Y-27397500D01*
X78700536Y-27397500D01*
X78700531Y-27397500D01*
X78489831Y-27430872D01*
X78286947Y-27496792D01*
X78096867Y-27593643D01*
X77998400Y-27665183D01*
X77924281Y-27719035D01*
X77924279Y-27719037D01*
X77924278Y-27719037D01*
X77773437Y-27869878D01*
X77773437Y-27869879D01*
X77773435Y-27869881D01*
X77719583Y-27944000D01*
X77648043Y-28042467D01*
X77551192Y-28232547D01*
X77485272Y-28435431D01*
X77451900Y-28646130D01*
X74392500Y-28646130D01*
X74373085Y-28523556D01*
X74359128Y-28435433D01*
X74317920Y-28308607D01*
X74293207Y-28232547D01*
X74196356Y-28042467D01*
X74070965Y-27869881D01*
X73920119Y-27719035D01*
X73747532Y-27593643D01*
X73591275Y-27514026D01*
X73557452Y-27496792D01*
X73354568Y-27430872D01*
X73143869Y-27397500D01*
X73143864Y-27397500D01*
X72930536Y-27397500D01*
X72930531Y-27397500D01*
X72719831Y-27430872D01*
X72516947Y-27496792D01*
X72326867Y-27593643D01*
X72228400Y-27665183D01*
X72154281Y-27719035D01*
X72154279Y-27719037D01*
X72154278Y-27719037D01*
X72003437Y-27869878D01*
X72003437Y-27869879D01*
X72003435Y-27869881D01*
X71949583Y-27944000D01*
X71878043Y-28042467D01*
X71781192Y-28232547D01*
X71715272Y-28435431D01*
X71681900Y-28646130D01*
X58162500Y-28646130D01*
X58143085Y-28523556D01*
X58129128Y-28435433D01*
X58087920Y-28308607D01*
X58063207Y-28232547D01*
X57966356Y-28042467D01*
X57840965Y-27869881D01*
X57690119Y-27719035D01*
X57517532Y-27593643D01*
X57361275Y-27514026D01*
X57327452Y-27496792D01*
X57124568Y-27430872D01*
X56913869Y-27397500D01*
X56913864Y-27397500D01*
X56700536Y-27397500D01*
X56700531Y-27397500D01*
X56489831Y-27430872D01*
X56286947Y-27496792D01*
X56096867Y-27593643D01*
X55998400Y-27665183D01*
X55924281Y-27719035D01*
X55924279Y-27719037D01*
X55924278Y-27719037D01*
X55773437Y-27869878D01*
X55773437Y-27869879D01*
X55773435Y-27869881D01*
X55719583Y-27944000D01*
X55648043Y-28042467D01*
X55551192Y-28232547D01*
X55485272Y-28435431D01*
X55451900Y-28646130D01*
X52392500Y-28646130D01*
X52373085Y-28523556D01*
X52359128Y-28435433D01*
X52317920Y-28308607D01*
X52293207Y-28232547D01*
X52196356Y-28042467D01*
X52070965Y-27869881D01*
X51920119Y-27719035D01*
X51747532Y-27593643D01*
X51591275Y-27514026D01*
X51557452Y-27496792D01*
X51354568Y-27430872D01*
X51143869Y-27397500D01*
X51143864Y-27397500D01*
X50930536Y-27397500D01*
X50930531Y-27397500D01*
X50719831Y-27430872D01*
X50570175Y-27479498D01*
X50500334Y-27481493D01*
X50444176Y-27449248D01*
X43060429Y-20065501D01*
X43060427Y-20065499D01*
X43002450Y-20032026D01*
X42944475Y-19998553D01*
X42869190Y-19978381D01*
X42815145Y-19963900D01*
X42815144Y-19963900D01*
X32596189Y-19963900D01*
X32529150Y-19944215D01*
X32508508Y-19927581D01*
X30713714Y-18132786D01*
X30680229Y-18071463D01*
X30679778Y-18020917D01*
X30697900Y-17929813D01*
X30697900Y-17731787D01*
X30697841Y-17731491D01*
X30691396Y-17699086D01*
X30687795Y-17680982D01*
X37323300Y-17680982D01*
X37323300Y-17879017D01*
X37361931Y-18073227D01*
X37361933Y-18073235D01*
X37437713Y-18256185D01*
X37437718Y-18256194D01*
X37547732Y-18420840D01*
X37547735Y-18420844D01*
X37687755Y-18560864D01*
X37687759Y-18560867D01*
X37852405Y-18670881D01*
X37852411Y-18670884D01*
X37852412Y-18670885D01*
X38035365Y-18746667D01*
X38229582Y-18785299D01*
X38229586Y-18785300D01*
X38229587Y-18785300D01*
X38427614Y-18785300D01*
X38427615Y-18785299D01*
X38621835Y-18746667D01*
X38804788Y-18670885D01*
X38969441Y-18560867D01*
X39109467Y-18420841D01*
X39219485Y-18256188D01*
X39295267Y-18073235D01*
X39333900Y-17879013D01*
X39333900Y-17680987D01*
X39322343Y-17622885D01*
X39322343Y-17622882D01*
X39318743Y-17604782D01*
X69149500Y-17604782D01*
X69149500Y-17802817D01*
X69188131Y-17997027D01*
X69188133Y-17997035D01*
X69263913Y-18179985D01*
X69263918Y-18179994D01*
X69373932Y-18344640D01*
X69373935Y-18344644D01*
X69513955Y-18484664D01*
X69513959Y-18484667D01*
X69678605Y-18594681D01*
X69678611Y-18594684D01*
X69678612Y-18594685D01*
X69861565Y-18670467D01*
X70055782Y-18709099D01*
X70055786Y-18709100D01*
X70055787Y-18709100D01*
X70253814Y-18709100D01*
X70253815Y-18709099D01*
X70448035Y-18670467D01*
X70630988Y-18594685D01*
X70795641Y-18484667D01*
X70935667Y-18344641D01*
X71045685Y-18179988D01*
X71121467Y-17997035D01*
X71160100Y-17802813D01*
X71160100Y-17655582D01*
X77760100Y-17655582D01*
X77760100Y-17853617D01*
X77798731Y-18047827D01*
X77798733Y-18047835D01*
X77874513Y-18230785D01*
X77874518Y-18230794D01*
X77984532Y-18395440D01*
X77984535Y-18395444D01*
X78124555Y-18535464D01*
X78124559Y-18535467D01*
X78289205Y-18645481D01*
X78289211Y-18645484D01*
X78289212Y-18645485D01*
X78472165Y-18721267D01*
X78666382Y-18759899D01*
X78666386Y-18759900D01*
X78666387Y-18759900D01*
X78864414Y-18759900D01*
X78864415Y-18759899D01*
X79058635Y-18721267D01*
X79241588Y-18645485D01*
X79406241Y-18535467D01*
X79546267Y-18395441D01*
X79656285Y-18230788D01*
X79732067Y-18047835D01*
X79770700Y-17853613D01*
X79770700Y-17655587D01*
X79767433Y-17639165D01*
X79765646Y-17630182D01*
X86624700Y-17630182D01*
X86624700Y-17828217D01*
X86663331Y-18022427D01*
X86663333Y-18022435D01*
X86739113Y-18205385D01*
X86739118Y-18205394D01*
X86849132Y-18370040D01*
X86849135Y-18370044D01*
X86989153Y-18510062D01*
X86989156Y-18510064D01*
X86989159Y-18510067D01*
X87040991Y-18544700D01*
X87085795Y-18598310D01*
X87096100Y-18647801D01*
X87096100Y-21504544D01*
X87130753Y-21633875D01*
X87164226Y-21691850D01*
X87197699Y-21749827D01*
X87197701Y-21749829D01*
X93702748Y-28254876D01*
X93736233Y-28316199D01*
X93732998Y-28380874D01*
X93715272Y-28435429D01*
X93681900Y-28646130D01*
X93681900Y-28859469D01*
X93715272Y-29070168D01*
X93781192Y-29273052D01*
X93781194Y-29273055D01*
X93878043Y-29463132D01*
X94003435Y-29635719D01*
X94154281Y-29786565D01*
X94326868Y-29911957D01*
X94516945Y-30008806D01*
X94516947Y-30008807D01*
X94595414Y-30034302D01*
X94719833Y-30074728D01*
X94817418Y-30090184D01*
X94930531Y-30108100D01*
X94930536Y-30108100D01*
X95143869Y-30108100D01*
X95246013Y-30091921D01*
X95354567Y-30074728D01*
X95557455Y-30008806D01*
X95747532Y-29911957D01*
X95920119Y-29786565D01*
X96070965Y-29635719D01*
X96196357Y-29463132D01*
X96293206Y-29273055D01*
X96359128Y-29070167D01*
X96386013Y-28900422D01*
X96392500Y-28859469D01*
X96392500Y-28646130D01*
X96373085Y-28523556D01*
X96359128Y-28435433D01*
X96317920Y-28308607D01*
X96293207Y-28232547D01*
X96196356Y-28042467D01*
X96070965Y-27869881D01*
X95920119Y-27719035D01*
X95747532Y-27593643D01*
X95591275Y-27514026D01*
X95557452Y-27496792D01*
X95354568Y-27430872D01*
X95143869Y-27397500D01*
X95143864Y-27397500D01*
X94930536Y-27397500D01*
X94930531Y-27397500D01*
X94719831Y-27430872D01*
X94516947Y-27496792D01*
X94516935Y-27496797D01*
X94508424Y-27501134D01*
X94439754Y-27514026D01*
X94375016Y-27487746D01*
X94364455Y-27478327D01*
X88149419Y-21263291D01*
X88115934Y-21201968D01*
X88113100Y-21175610D01*
X88113100Y-18681745D01*
X88132785Y-18614706D01*
X88168207Y-18578644D01*
X88270841Y-18510067D01*
X88410867Y-18370041D01*
X88520885Y-18205388D01*
X88596667Y-18022435D01*
X88635300Y-17828213D01*
X88635300Y-17630187D01*
X88596667Y-17435965D01*
X88520885Y-17253012D01*
X88520884Y-17253011D01*
X88520881Y-17253005D01*
X88410867Y-17088359D01*
X88410864Y-17088355D01*
X88270844Y-16948335D01*
X88270840Y-16948332D01*
X88106194Y-16838318D01*
X88106185Y-16838313D01*
X87923235Y-16762533D01*
X87923227Y-16762531D01*
X87729017Y-16723900D01*
X87729013Y-16723900D01*
X87530987Y-16723900D01*
X87530982Y-16723900D01*
X87336772Y-16762531D01*
X87336764Y-16762533D01*
X87153814Y-16838313D01*
X87153805Y-16838318D01*
X86989159Y-16948332D01*
X86989155Y-16948335D01*
X86849135Y-17088355D01*
X86849132Y-17088359D01*
X86739118Y-17253005D01*
X86739113Y-17253014D01*
X86663333Y-17435964D01*
X86663331Y-17435972D01*
X86624700Y-17630182D01*
X79765646Y-17630182D01*
X79747224Y-17537564D01*
X79732067Y-17461365D01*
X79656285Y-17278412D01*
X79656284Y-17278411D01*
X79656281Y-17278405D01*
X79546267Y-17113759D01*
X79546264Y-17113755D01*
X79406244Y-16973735D01*
X79406240Y-16973732D01*
X79241594Y-16863718D01*
X79241585Y-16863713D01*
X79058635Y-16787933D01*
X79058627Y-16787931D01*
X78864417Y-16749300D01*
X78864413Y-16749300D01*
X78666387Y-16749300D01*
X78666382Y-16749300D01*
X78472172Y-16787931D01*
X78472164Y-16787933D01*
X78289214Y-16863713D01*
X78289205Y-16863718D01*
X78124559Y-16973732D01*
X78124555Y-16973735D01*
X77984535Y-17113755D01*
X77984532Y-17113759D01*
X77874518Y-17278405D01*
X77874513Y-17278414D01*
X77798733Y-17461364D01*
X77798731Y-17461372D01*
X77760100Y-17655582D01*
X71160100Y-17655582D01*
X71160100Y-17604787D01*
X71121467Y-17410565D01*
X71045685Y-17227612D01*
X71045684Y-17227611D01*
X71045681Y-17227605D01*
X70935667Y-17062959D01*
X70935664Y-17062955D01*
X70795644Y-16922935D01*
X70795640Y-16922932D01*
X70630994Y-16812918D01*
X70630985Y-16812913D01*
X70448035Y-16737133D01*
X70448027Y-16737131D01*
X70253817Y-16698500D01*
X70253813Y-16698500D01*
X70055787Y-16698500D01*
X70055782Y-16698500D01*
X69861572Y-16737131D01*
X69861564Y-16737133D01*
X69678614Y-16812913D01*
X69678605Y-16812918D01*
X69513959Y-16922932D01*
X69513955Y-16922935D01*
X69373935Y-17062955D01*
X69373932Y-17062959D01*
X69263918Y-17227605D01*
X69263913Y-17227614D01*
X69188133Y-17410564D01*
X69188131Y-17410572D01*
X69149500Y-17604782D01*
X39318743Y-17604782D01*
X39295268Y-17486772D01*
X39295267Y-17486765D01*
X39219485Y-17303812D01*
X39219484Y-17303811D01*
X39219481Y-17303805D01*
X39109467Y-17139159D01*
X39109464Y-17139155D01*
X38969444Y-16999135D01*
X38969440Y-16999132D01*
X38804794Y-16889118D01*
X38804785Y-16889113D01*
X38621835Y-16813333D01*
X38621827Y-16813331D01*
X38427617Y-16774700D01*
X38427613Y-16774700D01*
X38229587Y-16774700D01*
X38229582Y-16774700D01*
X38035372Y-16813331D01*
X38035364Y-16813333D01*
X37852414Y-16889113D01*
X37852405Y-16889118D01*
X37687759Y-16999132D01*
X37687755Y-16999135D01*
X37547735Y-17139155D01*
X37547732Y-17139159D01*
X37437718Y-17303805D01*
X37437713Y-17303814D01*
X37361933Y-17486764D01*
X37361931Y-17486772D01*
X37323300Y-17680982D01*
X30687795Y-17680982D01*
X30669372Y-17588365D01*
X30659267Y-17537565D01*
X30583485Y-17354612D01*
X30583484Y-17354611D01*
X30583481Y-17354605D01*
X30473467Y-17189959D01*
X30473464Y-17189955D01*
X30333444Y-17049935D01*
X30333440Y-17049932D01*
X30168794Y-16939918D01*
X30168785Y-16939913D01*
X29985835Y-16864133D01*
X29985827Y-16864131D01*
X29791617Y-16825500D01*
X29791613Y-16825500D01*
X29593587Y-16825500D01*
X29593582Y-16825500D01*
X29399372Y-16864131D01*
X29399364Y-16864133D01*
X29216414Y-16939913D01*
X29216405Y-16939918D01*
X29051759Y-17049932D01*
X29051755Y-17049935D01*
X28911735Y-17189955D01*
X28911732Y-17189959D01*
X28801718Y-17354605D01*
X28801713Y-17354614D01*
X28725933Y-17537564D01*
X28725931Y-17537572D01*
X28687300Y-17731782D01*
X26192746Y-17731782D01*
X28063509Y-15861019D01*
X28124832Y-15827534D01*
X28151190Y-15824700D01*
X28773998Y-15824700D01*
X28841037Y-15844385D01*
X28877099Y-15879808D01*
X28898073Y-15911197D01*
X28911734Y-15931643D01*
X29051755Y-16071664D01*
X29051759Y-16071667D01*
X29216405Y-16181681D01*
X29216414Y-16181686D01*
X29247350Y-16194500D01*
X29399365Y-16257467D01*
X29593582Y-16296099D01*
X29593586Y-16296100D01*
X29593587Y-16296100D01*
X29791614Y-16296100D01*
X29791615Y-16296099D01*
X29985835Y-16257467D01*
X30168788Y-16181685D01*
X30333441Y-16071667D01*
X30473467Y-15931641D01*
X30583485Y-15766988D01*
X30659267Y-15584035D01*
X30697900Y-15389813D01*
X30697900Y-15191787D01*
X30697841Y-15191491D01*
X30691396Y-15159086D01*
X30687795Y-15140982D01*
X37323300Y-15140982D01*
X37323300Y-15339017D01*
X37361931Y-15533227D01*
X37361933Y-15533235D01*
X37437713Y-15716185D01*
X37437718Y-15716194D01*
X37547732Y-15880840D01*
X37547735Y-15880844D01*
X37687755Y-16020864D01*
X37687759Y-16020867D01*
X37852405Y-16130881D01*
X37852411Y-16130884D01*
X37852412Y-16130885D01*
X38035365Y-16206667D01*
X38229582Y-16245299D01*
X38229586Y-16245300D01*
X38229587Y-16245300D01*
X38427614Y-16245300D01*
X38427615Y-16245299D01*
X38621835Y-16206667D01*
X38804788Y-16130885D01*
X38969441Y-16020867D01*
X39109467Y-15880841D01*
X39219485Y-15716188D01*
X39295267Y-15533235D01*
X39333900Y-15339013D01*
X39333900Y-15140987D01*
X39322343Y-15082885D01*
X39322343Y-15082882D01*
X39318743Y-15064782D01*
X69149500Y-15064782D01*
X69149500Y-15262817D01*
X69188131Y-15457027D01*
X69188133Y-15457035D01*
X69263913Y-15639985D01*
X69263918Y-15639994D01*
X69373932Y-15804640D01*
X69373935Y-15804644D01*
X69513955Y-15944664D01*
X69513959Y-15944667D01*
X69678605Y-16054681D01*
X69678611Y-16054684D01*
X69678612Y-16054685D01*
X69861565Y-16130467D01*
X70055782Y-16169099D01*
X70055786Y-16169100D01*
X70055787Y-16169100D01*
X70253814Y-16169100D01*
X70253815Y-16169099D01*
X70448035Y-16130467D01*
X70630988Y-16054685D01*
X70795641Y-15944667D01*
X70935667Y-15804641D01*
X70987272Y-15727408D01*
X71040884Y-15682604D01*
X71090374Y-15672300D01*
X72533143Y-15672300D01*
X72533145Y-15672300D01*
X72662474Y-15637647D01*
X72778427Y-15570701D01*
X73233546Y-15115582D01*
X77760100Y-15115582D01*
X77760100Y-15313617D01*
X77798731Y-15507827D01*
X77798733Y-15507835D01*
X77874513Y-15690785D01*
X77874518Y-15690794D01*
X77984532Y-15855440D01*
X77984535Y-15855444D01*
X78124555Y-15995464D01*
X78124559Y-15995467D01*
X78289205Y-16105481D01*
X78289211Y-16105484D01*
X78289212Y-16105485D01*
X78472165Y-16181267D01*
X78666382Y-16219899D01*
X78666386Y-16219900D01*
X78666387Y-16219900D01*
X78864414Y-16219900D01*
X78864415Y-16219899D01*
X79058635Y-16181267D01*
X79241588Y-16105485D01*
X79406241Y-15995467D01*
X79546267Y-15855441D01*
X79656285Y-15690788D01*
X79732067Y-15507835D01*
X79770700Y-15313613D01*
X79770700Y-15115587D01*
X79767433Y-15099165D01*
X79765646Y-15090182D01*
X86624700Y-15090182D01*
X86624700Y-15288217D01*
X86663331Y-15482427D01*
X86663333Y-15482435D01*
X86739113Y-15665385D01*
X86739118Y-15665394D01*
X86849132Y-15830040D01*
X86849135Y-15830044D01*
X86989155Y-15970064D01*
X86989159Y-15970067D01*
X87153805Y-16080081D01*
X87153811Y-16080084D01*
X87153812Y-16080085D01*
X87336765Y-16155867D01*
X87530982Y-16194499D01*
X87530986Y-16194500D01*
X87530987Y-16194500D01*
X87729014Y-16194500D01*
X87729015Y-16194499D01*
X87923235Y-16155867D01*
X88106188Y-16080085D01*
X88270841Y-15970067D01*
X88410867Y-15830041D01*
X88479444Y-15727408D01*
X88533056Y-15682604D01*
X88582546Y-15672300D01*
X88841210Y-15672300D01*
X88908249Y-15691985D01*
X88928891Y-15708619D01*
X99404181Y-26183909D01*
X99437666Y-26245232D01*
X99440500Y-26271590D01*
X99440500Y-32582255D01*
X99440500Y-32716145D01*
X99446809Y-32739691D01*
X99475153Y-32845475D01*
X99487493Y-32866848D01*
X99542099Y-32961427D01*
X99542101Y-32961429D01*
X100244392Y-33663720D01*
X100277877Y-33725043D01*
X100274642Y-33789718D01*
X100219434Y-33959636D01*
X100182368Y-34193662D01*
X100182368Y-34430601D01*
X100219434Y-34664627D01*
X100292648Y-34889961D01*
X100292650Y-34889967D01*
X100400222Y-35101084D01*
X100539483Y-35292762D01*
X100539487Y-35292767D01*
X100707032Y-35460312D01*
X100707037Y-35460316D01*
X100857177Y-35569398D01*
X100898719Y-35599580D01*
X101036724Y-35669898D01*
X101109832Y-35707149D01*
X101109838Y-35707151D01*
X101335173Y-35780365D01*
X101335176Y-35780366D01*
X101569198Y-35817432D01*
X101569199Y-35817432D01*
X101806137Y-35817432D01*
X101806138Y-35817432D01*
X102040160Y-35780366D01*
X102040173Y-35780361D01*
X102042648Y-35779768D01*
X102043627Y-35779816D01*
X102044972Y-35779604D01*
X102045016Y-35779886D01*
X102112430Y-35783254D01*
X102169251Y-35823914D01*
X102195068Y-35888839D01*
X102194076Y-35919737D01*
X102182368Y-35993661D01*
X102182368Y-36230601D01*
X102219434Y-36464627D01*
X102292648Y-36689961D01*
X102292650Y-36689967D01*
X102400222Y-36901084D01*
X102539483Y-37092762D01*
X102539487Y-37092767D01*
X102707032Y-37260312D01*
X102707037Y-37260316D01*
X102874229Y-37381787D01*
X102898719Y-37399580D01*
X103036724Y-37469898D01*
X103109832Y-37507149D01*
X103109838Y-37507151D01*
X103335173Y-37580365D01*
X103335176Y-37580366D01*
X103569198Y-37617432D01*
X103569199Y-37617432D01*
X103806137Y-37617432D01*
X103806138Y-37617432D01*
X104040160Y-37580366D01*
X104265503Y-37507149D01*
X104476617Y-37399580D01*
X104668305Y-37260311D01*
X105260111Y-36668505D01*
X105399380Y-36476817D01*
X105506949Y-36265703D01*
X105508167Y-36261956D01*
X105580165Y-36040363D01*
X105580164Y-36040363D01*
X105580166Y-36040360D01*
X105617232Y-35806338D01*
X105617232Y-35569398D01*
X105580166Y-35335376D01*
X105580165Y-35335372D01*
X105506951Y-35110038D01*
X105506949Y-35110032D01*
X105399379Y-34898917D01*
X105260111Y-34707231D01*
X105092569Y-34539689D01*
X104900882Y-34400420D01*
X104689767Y-34292850D01*
X104689761Y-34292848D01*
X104464426Y-34219634D01*
X104464427Y-34219634D01*
X104288907Y-34191834D01*
X104230402Y-34182568D01*
X103993462Y-34182568D01*
X103939212Y-34191160D01*
X103759443Y-34219633D01*
X103756932Y-34220236D01*
X103755949Y-34220186D01*
X103754628Y-34220396D01*
X103754584Y-34220118D01*
X103687150Y-34216738D01*
X103630336Y-34176069D01*
X103604529Y-34111140D01*
X103605522Y-34080265D01*
X103617232Y-34006338D01*
X103617232Y-33769398D01*
X103580166Y-33535376D01*
X103580165Y-33535372D01*
X103506951Y-33310038D01*
X103506949Y-33310032D01*
X103399379Y-33098917D01*
X103260111Y-32907231D01*
X103092569Y-32739689D01*
X102900882Y-32600420D01*
X102689767Y-32492850D01*
X102689761Y-32492848D01*
X102464426Y-32419634D01*
X102464427Y-32419634D01*
X102288907Y-32391834D01*
X102230402Y-32382568D01*
X101993462Y-32382568D01*
X101964154Y-32387210D01*
X101759436Y-32419634D01*
X101534102Y-32492848D01*
X101534096Y-32492850D01*
X101322979Y-32600422D01*
X101131302Y-32739682D01*
X101131295Y-32739689D01*
X101032634Y-32838348D01*
X100971313Y-32871832D01*
X100901621Y-32866848D01*
X100857274Y-32838347D01*
X100688542Y-32669615D01*
X100493819Y-32474891D01*
X100460334Y-32413568D01*
X100457500Y-32387210D01*
X100457500Y-30493662D01*
X102182368Y-30493662D01*
X102182368Y-30730601D01*
X102219434Y-30964624D01*
X102219434Y-30964625D01*
X102292648Y-31189961D01*
X102292650Y-31189967D01*
X102400222Y-31401084D01*
X102539483Y-31592762D01*
X102539487Y-31592767D01*
X102707032Y-31760312D01*
X102707037Y-31760316D01*
X102874229Y-31881787D01*
X102898719Y-31899580D01*
X103036724Y-31969898D01*
X103109832Y-32007149D01*
X103109838Y-32007151D01*
X103335173Y-32080365D01*
X103335176Y-32080366D01*
X103569198Y-32117432D01*
X103569199Y-32117432D01*
X103806137Y-32117432D01*
X103806138Y-32117432D01*
X104040160Y-32080366D01*
X104265503Y-32007149D01*
X104476617Y-31899580D01*
X104668305Y-31760311D01*
X105260111Y-31168505D01*
X105399380Y-30976817D01*
X105506949Y-30765703D01*
X105580166Y-30540360D01*
X105617232Y-30306338D01*
X105617232Y-30069398D01*
X105580166Y-29835376D01*
X105580165Y-29835372D01*
X105506951Y-29610038D01*
X105506949Y-29610032D01*
X105399379Y-29398917D01*
X105260111Y-29207231D01*
X105092569Y-29039689D01*
X104900882Y-28900420D01*
X104820502Y-28859464D01*
X104689767Y-28792850D01*
X104689761Y-28792848D01*
X104464426Y-28719634D01*
X104464427Y-28719634D01*
X104288907Y-28691834D01*
X104230402Y-28682568D01*
X103993462Y-28682568D01*
X103946657Y-28689981D01*
X103759436Y-28719634D01*
X103534102Y-28792848D01*
X103534096Y-28792850D01*
X103322979Y-28900422D01*
X103131301Y-29039683D01*
X103131296Y-29039687D01*
X102539487Y-29631496D01*
X102539483Y-29631501D01*
X102400222Y-29823179D01*
X102292650Y-30034296D01*
X102292648Y-30034302D01*
X102219434Y-30259636D01*
X102182368Y-30493662D01*
X100457500Y-30493662D01*
X100457500Y-25942657D01*
X100457500Y-25942655D01*
X100422847Y-25813326D01*
X100355901Y-25697373D01*
X92314110Y-17655582D01*
X95438500Y-17655582D01*
X95438500Y-17853617D01*
X95477131Y-18047827D01*
X95477133Y-18047835D01*
X95552913Y-18230785D01*
X95552918Y-18230794D01*
X95662932Y-18395440D01*
X95662935Y-18395444D01*
X95802955Y-18535464D01*
X95802959Y-18535467D01*
X95967605Y-18645481D01*
X95967611Y-18645484D01*
X95967612Y-18645485D01*
X96150565Y-18721267D01*
X96344782Y-18759899D01*
X96344786Y-18759900D01*
X96344787Y-18759900D01*
X96542814Y-18759900D01*
X96542815Y-18759899D01*
X96737035Y-18721267D01*
X96919988Y-18645485D01*
X97084641Y-18535467D01*
X97224667Y-18395441D01*
X97334685Y-18230788D01*
X97410467Y-18047835D01*
X97449100Y-17853613D01*
X97449100Y-17655587D01*
X97410467Y-17461365D01*
X97334685Y-17278412D01*
X97334684Y-17278411D01*
X97334681Y-17278405D01*
X97224667Y-17113759D01*
X97224664Y-17113755D01*
X97084644Y-16973735D01*
X97084640Y-16973732D01*
X96919994Y-16863718D01*
X96919985Y-16863713D01*
X96737035Y-16787933D01*
X96737027Y-16787931D01*
X96542817Y-16749300D01*
X96542813Y-16749300D01*
X96344787Y-16749300D01*
X96344782Y-16749300D01*
X96150572Y-16787931D01*
X96150564Y-16787933D01*
X95967614Y-16863713D01*
X95967605Y-16863718D01*
X95802959Y-16973732D01*
X95802955Y-16973735D01*
X95662935Y-17113755D01*
X95662932Y-17113759D01*
X95552918Y-17278405D01*
X95552913Y-17278414D01*
X95477133Y-17461364D01*
X95477131Y-17461372D01*
X95438500Y-17655582D01*
X92314110Y-17655582D01*
X89774110Y-15115582D01*
X95438500Y-15115582D01*
X95438500Y-15313617D01*
X95477131Y-15507827D01*
X95477133Y-15507835D01*
X95552913Y-15690785D01*
X95552918Y-15690794D01*
X95662932Y-15855440D01*
X95662935Y-15855444D01*
X95802955Y-15995464D01*
X95802959Y-15995467D01*
X95967605Y-16105481D01*
X95967611Y-16105484D01*
X95967612Y-16105485D01*
X96150565Y-16181267D01*
X96344782Y-16219899D01*
X96344786Y-16219900D01*
X96344787Y-16219900D01*
X96542814Y-16219900D01*
X96542815Y-16219899D01*
X96737035Y-16181267D01*
X96919988Y-16105485D01*
X97084641Y-15995467D01*
X97224667Y-15855441D01*
X97334685Y-15690788D01*
X97410467Y-15507835D01*
X97449100Y-15313613D01*
X97449100Y-15115587D01*
X97410467Y-14921365D01*
X97345203Y-14763805D01*
X97334686Y-14738414D01*
X97334681Y-14738405D01*
X97224667Y-14573759D01*
X97224664Y-14573755D01*
X97084644Y-14433735D01*
X97084640Y-14433732D01*
X96919994Y-14323718D01*
X96919985Y-14323713D01*
X96737035Y-14247933D01*
X96737027Y-14247931D01*
X96542817Y-14209300D01*
X96542813Y-14209300D01*
X96344787Y-14209300D01*
X96344782Y-14209300D01*
X96150572Y-14247931D01*
X96150564Y-14247933D01*
X95967614Y-14323713D01*
X95967605Y-14323718D01*
X95802959Y-14433732D01*
X95802955Y-14433735D01*
X95662935Y-14573755D01*
X95662932Y-14573759D01*
X95552918Y-14738405D01*
X95552913Y-14738414D01*
X95477133Y-14921364D01*
X95477131Y-14921372D01*
X95438500Y-15115582D01*
X89774110Y-15115582D01*
X89415427Y-14756899D01*
X89339401Y-14713005D01*
X89299475Y-14689953D01*
X89234809Y-14672626D01*
X89170145Y-14655300D01*
X89170144Y-14655300D01*
X88548602Y-14655300D01*
X88481563Y-14635615D01*
X88445500Y-14600191D01*
X88410867Y-14548359D01*
X88410865Y-14548356D01*
X88270844Y-14408335D01*
X88270840Y-14408332D01*
X88106194Y-14298318D01*
X88106185Y-14298313D01*
X87923235Y-14222533D01*
X87923227Y-14222531D01*
X87729017Y-14183900D01*
X87729013Y-14183900D01*
X87530987Y-14183900D01*
X87530982Y-14183900D01*
X87336772Y-14222531D01*
X87336764Y-14222533D01*
X87153814Y-14298313D01*
X87153805Y-14298318D01*
X86989159Y-14408332D01*
X86989155Y-14408335D01*
X86849135Y-14548355D01*
X86849132Y-14548359D01*
X86739118Y-14713005D01*
X86739113Y-14713014D01*
X86663333Y-14895964D01*
X86663331Y-14895972D01*
X86624700Y-15090182D01*
X79765646Y-15090182D01*
X79747224Y-14997564D01*
X79732067Y-14921365D01*
X79666803Y-14763805D01*
X79656286Y-14738414D01*
X79656281Y-14738405D01*
X79546267Y-14573759D01*
X79546264Y-14573755D01*
X79406244Y-14433735D01*
X79406240Y-14433732D01*
X79241594Y-14323718D01*
X79241585Y-14323713D01*
X79058635Y-14247933D01*
X79058627Y-14247931D01*
X78864417Y-14209300D01*
X78864413Y-14209300D01*
X78666387Y-14209300D01*
X78666382Y-14209300D01*
X78472172Y-14247931D01*
X78472164Y-14247933D01*
X78289214Y-14323713D01*
X78289205Y-14323718D01*
X78124559Y-14433732D01*
X78124555Y-14433735D01*
X77984535Y-14573755D01*
X77984532Y-14573759D01*
X77874518Y-14738405D01*
X77874513Y-14738414D01*
X77798733Y-14921364D01*
X77798731Y-14921372D01*
X77760100Y-15115582D01*
X73233546Y-15115582D01*
X74774109Y-13575019D01*
X74835432Y-13541534D01*
X74861790Y-13538700D01*
X101566610Y-13538700D01*
X101633649Y-13558385D01*
X101654291Y-13575019D01*
X106465381Y-18386109D01*
X106498866Y-18447432D01*
X106501700Y-18473790D01*
X106501700Y-37876110D01*
X106482015Y-37943149D01*
X106465381Y-37963791D01*
X105883391Y-38545781D01*
X105822068Y-38579266D01*
X105795710Y-38582100D01*
X103450342Y-38582100D01*
X103383303Y-38562415D01*
X103350024Y-38530986D01*
X103260111Y-38407231D01*
X103092569Y-38239689D01*
X102900882Y-38100420D01*
X102689767Y-37992850D01*
X102689761Y-37992848D01*
X102464426Y-37919634D01*
X102464427Y-37919634D01*
X102288907Y-37891834D01*
X102230402Y-37882568D01*
X101993462Y-37882568D01*
X101946657Y-37889981D01*
X101759436Y-37919634D01*
X101534102Y-37992848D01*
X101534096Y-37992850D01*
X101322979Y-38100422D01*
X101131301Y-38239683D01*
X101131296Y-38239687D01*
X100539487Y-38831496D01*
X100539483Y-38831501D01*
X100400222Y-39023179D01*
X100292650Y-39234296D01*
X100292648Y-39234302D01*
X100219434Y-39459636D01*
X100182368Y-39693662D01*
X100182368Y-39930601D01*
X100219434Y-40164627D01*
X100292648Y-40389961D01*
X100292650Y-40389967D01*
X100400222Y-40601084D01*
X100539483Y-40792762D01*
X100539487Y-40792767D01*
X100707032Y-40960312D01*
X100707037Y-40960316D01*
X100874229Y-41081787D01*
X100898719Y-41099580D01*
X101006238Y-41154364D01*
X101109832Y-41207149D01*
X101109838Y-41207151D01*
X101335173Y-41280365D01*
X101335176Y-41280366D01*
X101569198Y-41317432D01*
X101569199Y-41317432D01*
X101806137Y-41317432D01*
X101806138Y-41317432D01*
X102040160Y-41280366D01*
X102265503Y-41207149D01*
X102369099Y-41154363D01*
X102437766Y-41141467D01*
X102502506Y-41167742D01*
X102542764Y-41224848D01*
X102545758Y-41294654D01*
X102525712Y-41337732D01*
X102444097Y-41450067D01*
X102340192Y-41653988D01*
X102340190Y-41653994D01*
X102269471Y-41871649D01*
X102233668Y-42097699D01*
X102233668Y-42326564D01*
X102269471Y-42552614D01*
X102340190Y-42770269D01*
X102340194Y-42770280D01*
X102444092Y-42974187D01*
X102444099Y-42974198D01*
X102457769Y-42993015D01*
X102457771Y-42993015D01*
X103002919Y-42447867D01*
X103013611Y-42473678D01*
X103123049Y-42637463D01*
X103262337Y-42776751D01*
X103426122Y-42886189D01*
X103451930Y-42896879D01*
X102906782Y-43442028D01*
X102925606Y-43455703D01*
X103129519Y-43559605D01*
X103129530Y-43559609D01*
X103347186Y-43630328D01*
X103347185Y-43630328D01*
X103573236Y-43666132D01*
X103802100Y-43666132D01*
X104028150Y-43630328D01*
X104245805Y-43559609D01*
X104245811Y-43559607D01*
X104449733Y-43455701D01*
X104634886Y-43321180D01*
X104634891Y-43321176D01*
X104703427Y-43252639D01*
X104703427Y-43252638D01*
X104347667Y-42896879D01*
X104373478Y-42886189D01*
X104537263Y-42776751D01*
X104676551Y-42637463D01*
X104785989Y-42473678D01*
X104796679Y-42447867D01*
X105152438Y-42803627D01*
X105152440Y-42803627D01*
X105220976Y-42735091D01*
X105355504Y-42549930D01*
X105459407Y-42346011D01*
X105459409Y-42346005D01*
X105530128Y-42128350D01*
X105565932Y-41902299D01*
X105565932Y-41673435D01*
X105530128Y-41447385D01*
X105459409Y-41229730D01*
X105459407Y-41229724D01*
X105355505Y-41025806D01*
X105341828Y-41006983D01*
X105341828Y-41006982D01*
X104796679Y-41552131D01*
X104785989Y-41526322D01*
X104676551Y-41362537D01*
X104537263Y-41223249D01*
X104373478Y-41113811D01*
X104347667Y-41103119D01*
X104892816Y-40557970D01*
X104873994Y-40544295D01*
X104670075Y-40440392D01*
X104670069Y-40440390D01*
X104452413Y-40369671D01*
X104452414Y-40369671D01*
X104226364Y-40333868D01*
X103997501Y-40333868D01*
X103771449Y-40369671D01*
X103553794Y-40440390D01*
X103553782Y-40440395D01*
X103464764Y-40485752D01*
X103396095Y-40498648D01*
X103331355Y-40472371D01*
X103291098Y-40415264D01*
X103288106Y-40345459D01*
X103308150Y-40302383D01*
X103399380Y-40176817D01*
X103506949Y-39965703D01*
X103580166Y-39740360D01*
X103585972Y-39703702D01*
X103615901Y-39640568D01*
X103675212Y-39603636D01*
X103708445Y-39599100D01*
X106124643Y-39599100D01*
X106124645Y-39599100D01*
X106253974Y-39564447D01*
X106369927Y-39497501D01*
X107417101Y-38450327D01*
X107484047Y-38334374D01*
X107509417Y-38239689D01*
X107518700Y-38205045D01*
X107518700Y-18144855D01*
X107484047Y-18015526D01*
X107473366Y-17997027D01*
X107429093Y-17920344D01*
X107429093Y-17920343D01*
X107429091Y-17920341D01*
X107417101Y-17899573D01*
X102140827Y-12623299D01*
X102082850Y-12589826D01*
X102024875Y-12556353D01*
X101960209Y-12539026D01*
X101895545Y-12521700D01*
X74666745Y-12521700D01*
X74532855Y-12521700D01*
X74403524Y-12556353D01*
X74287573Y-12623299D01*
X74287570Y-12623301D01*
X72291891Y-14618981D01*
X72230568Y-14652466D01*
X72204210Y-14655300D01*
X71090374Y-14655300D01*
X71023335Y-14635615D01*
X70987272Y-14600191D01*
X70986582Y-14599159D01*
X70969608Y-14573755D01*
X70935667Y-14522958D01*
X70795644Y-14382935D01*
X70795640Y-14382932D01*
X70630994Y-14272918D01*
X70630985Y-14272913D01*
X70448035Y-14197133D01*
X70448027Y-14197131D01*
X70253817Y-14158500D01*
X70253813Y-14158500D01*
X70055787Y-14158500D01*
X70055782Y-14158500D01*
X69861572Y-14197131D01*
X69861564Y-14197133D01*
X69678614Y-14272913D01*
X69678605Y-14272918D01*
X69513959Y-14382932D01*
X69513955Y-14382935D01*
X69373935Y-14522955D01*
X69373932Y-14522959D01*
X69263918Y-14687605D01*
X69263913Y-14687614D01*
X69188133Y-14870564D01*
X69188131Y-14870572D01*
X69149500Y-15064782D01*
X39318743Y-15064782D01*
X39295268Y-14946772D01*
X39295267Y-14946765D01*
X39219485Y-14763812D01*
X39219484Y-14763811D01*
X39219481Y-14763805D01*
X39109467Y-14599159D01*
X39109464Y-14599155D01*
X38969444Y-14459135D01*
X38969440Y-14459132D01*
X38804794Y-14349118D01*
X38804785Y-14349113D01*
X38621835Y-14273333D01*
X38621827Y-14273331D01*
X38427617Y-14234700D01*
X38427613Y-14234700D01*
X38229587Y-14234700D01*
X38229582Y-14234700D01*
X38035372Y-14273331D01*
X38035364Y-14273333D01*
X37852414Y-14349113D01*
X37852405Y-14349118D01*
X37687759Y-14459132D01*
X37687755Y-14459135D01*
X37547735Y-14599155D01*
X37547732Y-14599159D01*
X37437718Y-14763805D01*
X37437713Y-14763814D01*
X37361933Y-14946764D01*
X37361931Y-14946772D01*
X37323300Y-15140982D01*
X30687795Y-15140982D01*
X30669372Y-15048365D01*
X30659267Y-14997565D01*
X30583485Y-14814612D01*
X30583484Y-14814611D01*
X30583481Y-14814605D01*
X30473467Y-14649959D01*
X30473464Y-14649955D01*
X30333444Y-14509935D01*
X30333440Y-14509932D01*
X30168794Y-14399918D01*
X30168785Y-14399913D01*
X29985835Y-14324133D01*
X29985827Y-14324131D01*
X29791617Y-14285500D01*
X29791613Y-14285500D01*
X29593587Y-14285500D01*
X29593582Y-14285500D01*
X29399372Y-14324131D01*
X29399364Y-14324133D01*
X29216414Y-14399913D01*
X29216405Y-14399918D01*
X29051759Y-14509932D01*
X29051755Y-14509935D01*
X28911735Y-14649955D01*
X28911732Y-14649959D01*
X28843156Y-14752591D01*
X28789544Y-14797396D01*
X28740054Y-14807700D01*
X27822255Y-14807700D01*
X27692924Y-14842353D01*
X27576973Y-14909299D01*
X27576970Y-14909301D01*
X22507891Y-19978381D01*
X22446568Y-20011866D01*
X22420210Y-20014700D01*
X12988655Y-20014700D01*
X12859325Y-20049353D01*
X12743374Y-20116299D01*
X12743371Y-20116301D01*
X8737101Y-24122570D01*
X8737099Y-24122573D01*
X8670153Y-24238524D01*
X8635500Y-24367855D01*
X8635500Y-30599010D01*
X8615815Y-30666049D01*
X8599181Y-30686691D01*
X6632891Y-32652981D01*
X6571568Y-32686466D01*
X6545210Y-32689300D01*
X4063505Y-32689300D01*
X3996466Y-32669615D01*
X3990619Y-32665618D01*
X3900882Y-32600420D01*
X3689767Y-32492850D01*
X3689761Y-32492848D01*
X3464426Y-32419634D01*
X3464427Y-32419634D01*
X3288907Y-32391834D01*
X3230402Y-32382568D01*
X2993462Y-32382568D01*
X2964154Y-32387210D01*
X2759436Y-32419634D01*
X2534102Y-32492848D01*
X2534096Y-32492850D01*
X2322979Y-32600422D01*
X2131301Y-32739683D01*
X2131296Y-32739687D01*
X1539487Y-33331496D01*
X1539483Y-33331501D01*
X1400222Y-33523179D01*
X1292650Y-33734296D01*
X1292648Y-33734302D01*
X1219434Y-33959636D01*
X1182368Y-34193662D01*
X500552Y-34193662D01*
X500552Y-30493662D01*
X3182368Y-30493662D01*
X3182368Y-30730601D01*
X3219434Y-30964624D01*
X3219434Y-30964625D01*
X3292648Y-31189961D01*
X3292650Y-31189967D01*
X3400222Y-31401084D01*
X3539483Y-31592762D01*
X3539487Y-31592767D01*
X3707032Y-31760312D01*
X3707037Y-31760316D01*
X3874229Y-31881787D01*
X3898719Y-31899580D01*
X4036724Y-31969898D01*
X4109832Y-32007149D01*
X4109838Y-32007151D01*
X4335173Y-32080365D01*
X4335176Y-32080366D01*
X4569198Y-32117432D01*
X4569199Y-32117432D01*
X4806137Y-32117432D01*
X4806138Y-32117432D01*
X5040160Y-32080366D01*
X5265503Y-32007149D01*
X5476617Y-31899580D01*
X5668305Y-31760311D01*
X6260111Y-31168505D01*
X6399380Y-30976817D01*
X6506949Y-30765703D01*
X6580166Y-30540360D01*
X6617232Y-30306338D01*
X6617232Y-30069398D01*
X6580166Y-29835376D01*
X6580165Y-29835372D01*
X6506951Y-29610038D01*
X6506949Y-29610032D01*
X6399379Y-29398917D01*
X6260111Y-29207231D01*
X6092569Y-29039689D01*
X5900882Y-28900420D01*
X5820502Y-28859464D01*
X5689767Y-28792850D01*
X5689761Y-28792848D01*
X5464426Y-28719634D01*
X5464427Y-28719634D01*
X5288907Y-28691834D01*
X5230402Y-28682568D01*
X4993462Y-28682568D01*
X4946657Y-28689981D01*
X4759436Y-28719634D01*
X4534102Y-28792848D01*
X4534096Y-28792850D01*
X4322979Y-28900422D01*
X4131301Y-29039683D01*
X4131296Y-29039687D01*
X3539487Y-29631496D01*
X3539483Y-29631501D01*
X3400222Y-29823179D01*
X3292650Y-30034296D01*
X3292648Y-30034302D01*
X3219434Y-30259636D01*
X3182368Y-30493662D01*
X500552Y-30493662D01*
X500552Y-17782582D01*
X11491500Y-17782582D01*
X11491500Y-17980617D01*
X11530131Y-18174827D01*
X11530133Y-18174835D01*
X11605913Y-18357785D01*
X11605918Y-18357794D01*
X11715932Y-18522440D01*
X11715935Y-18522444D01*
X11855955Y-18662464D01*
X11855959Y-18662467D01*
X12020605Y-18772481D01*
X12020614Y-18772486D01*
X12051550Y-18785300D01*
X12203565Y-18848267D01*
X12397782Y-18886899D01*
X12397786Y-18886900D01*
X12397787Y-18886900D01*
X12595814Y-18886900D01*
X12595815Y-18886899D01*
X12790035Y-18848267D01*
X12972988Y-18772485D01*
X13137641Y-18662467D01*
X13277667Y-18522441D01*
X13387685Y-18357788D01*
X13463467Y-18174835D01*
X13502100Y-17980613D01*
X13502100Y-17833382D01*
X20051300Y-17833382D01*
X20051300Y-18031417D01*
X20089931Y-18225627D01*
X20089933Y-18225635D01*
X20165713Y-18408585D01*
X20165718Y-18408594D01*
X20275732Y-18573240D01*
X20275735Y-18573244D01*
X20415755Y-18713264D01*
X20415759Y-18713267D01*
X20580405Y-18823281D01*
X20580414Y-18823286D01*
X20611350Y-18836100D01*
X20763365Y-18899067D01*
X20957582Y-18937699D01*
X20957586Y-18937700D01*
X20957587Y-18937700D01*
X21155614Y-18937700D01*
X21155615Y-18937699D01*
X21349835Y-18899067D01*
X21532788Y-18823285D01*
X21697441Y-18713267D01*
X21837467Y-18573241D01*
X21947485Y-18408588D01*
X22023267Y-18225635D01*
X22061900Y-18031413D01*
X22061900Y-17833387D01*
X22023267Y-17639165D01*
X21960140Y-17486764D01*
X21947486Y-17456214D01*
X21947481Y-17456205D01*
X21837467Y-17291559D01*
X21837464Y-17291555D01*
X21697444Y-17151535D01*
X21697440Y-17151532D01*
X21532794Y-17041518D01*
X21532785Y-17041513D01*
X21349835Y-16965733D01*
X21349827Y-16965731D01*
X21155617Y-16927100D01*
X21155613Y-16927100D01*
X20957587Y-16927100D01*
X20957582Y-16927100D01*
X20763372Y-16965731D01*
X20763364Y-16965733D01*
X20580414Y-17041513D01*
X20580405Y-17041518D01*
X20415759Y-17151532D01*
X20415755Y-17151535D01*
X20275735Y-17291555D01*
X20275732Y-17291559D01*
X20165718Y-17456205D01*
X20165713Y-17456214D01*
X20089933Y-17639164D01*
X20089931Y-17639172D01*
X20051300Y-17833382D01*
X13502100Y-17833382D01*
X13502100Y-17782587D01*
X13463467Y-17588365D01*
X13400340Y-17435964D01*
X13387686Y-17405414D01*
X13387681Y-17405405D01*
X13277667Y-17240759D01*
X13277664Y-17240755D01*
X13137644Y-17100735D01*
X13137640Y-17100732D01*
X12972994Y-16990718D01*
X12972985Y-16990713D01*
X12790035Y-16914933D01*
X12790027Y-16914931D01*
X12595817Y-16876300D01*
X12595813Y-16876300D01*
X12397787Y-16876300D01*
X12397782Y-16876300D01*
X12203572Y-16914931D01*
X12203564Y-16914933D01*
X12020614Y-16990713D01*
X12020605Y-16990718D01*
X11855959Y-17100732D01*
X11855955Y-17100735D01*
X11715935Y-17240755D01*
X11715932Y-17240759D01*
X11605918Y-17405405D01*
X11605913Y-17405414D01*
X11530133Y-17588364D01*
X11530131Y-17588372D01*
X11491500Y-17782582D01*
X500552Y-17782582D01*
X500552Y-15242582D01*
X11491500Y-15242582D01*
X11491500Y-15440617D01*
X11530131Y-15634827D01*
X11530133Y-15634835D01*
X11605913Y-15817785D01*
X11605918Y-15817794D01*
X11715932Y-15982440D01*
X11715935Y-15982444D01*
X11855955Y-16122464D01*
X11855959Y-16122467D01*
X12020605Y-16232481D01*
X12020614Y-16232486D01*
X12051550Y-16245300D01*
X12203565Y-16308267D01*
X12397782Y-16346899D01*
X12397786Y-16346900D01*
X12397787Y-16346900D01*
X12595814Y-16346900D01*
X12595815Y-16346899D01*
X12790035Y-16308267D01*
X12972988Y-16232485D01*
X13137641Y-16122467D01*
X13277667Y-15982441D01*
X13387685Y-15817788D01*
X13463467Y-15634835D01*
X13502100Y-15440613D01*
X13502100Y-15293382D01*
X20051300Y-15293382D01*
X20051300Y-15491417D01*
X20089931Y-15685627D01*
X20089933Y-15685635D01*
X20165713Y-15868585D01*
X20165718Y-15868594D01*
X20275732Y-16033240D01*
X20275735Y-16033244D01*
X20415755Y-16173264D01*
X20415759Y-16173267D01*
X20580405Y-16283281D01*
X20580414Y-16283286D01*
X20611350Y-16296100D01*
X20763365Y-16359067D01*
X20957582Y-16397699D01*
X20957586Y-16397700D01*
X20957587Y-16397700D01*
X21155614Y-16397700D01*
X21155615Y-16397699D01*
X21349835Y-16359067D01*
X21532788Y-16283285D01*
X21697441Y-16173267D01*
X21837467Y-16033241D01*
X21947485Y-15868588D01*
X22023267Y-15685635D01*
X22061900Y-15491413D01*
X22061900Y-15293387D01*
X22023267Y-15099165D01*
X21960140Y-14946764D01*
X21947486Y-14916214D01*
X21947481Y-14916205D01*
X21837467Y-14751559D01*
X21837464Y-14751555D01*
X21697444Y-14611535D01*
X21697440Y-14611532D01*
X21532794Y-14501518D01*
X21532785Y-14501513D01*
X21349835Y-14425733D01*
X21349827Y-14425731D01*
X21155617Y-14387100D01*
X21155613Y-14387100D01*
X20957587Y-14387100D01*
X20957582Y-14387100D01*
X20763372Y-14425731D01*
X20763364Y-14425733D01*
X20580414Y-14501513D01*
X20580405Y-14501518D01*
X20415759Y-14611532D01*
X20415755Y-14611535D01*
X20275735Y-14751555D01*
X20275732Y-14751559D01*
X20165718Y-14916205D01*
X20165713Y-14916214D01*
X20089933Y-15099164D01*
X20089931Y-15099172D01*
X20051300Y-15293382D01*
X13502100Y-15293382D01*
X13502100Y-15242587D01*
X13463467Y-15048365D01*
X13400340Y-14895964D01*
X13387686Y-14865414D01*
X13387681Y-14865405D01*
X13277667Y-14700759D01*
X13277664Y-14700755D01*
X13137644Y-14560735D01*
X13137640Y-14560732D01*
X12972994Y-14450718D01*
X12972985Y-14450713D01*
X12790035Y-14374933D01*
X12790027Y-14374931D01*
X12595817Y-14336300D01*
X12595813Y-14336300D01*
X12397787Y-14336300D01*
X12397782Y-14336300D01*
X12203572Y-14374931D01*
X12203564Y-14374933D01*
X12020614Y-14450713D01*
X12020605Y-14450718D01*
X11855959Y-14560732D01*
X11855955Y-14560735D01*
X11715935Y-14700755D01*
X11715932Y-14700759D01*
X11605918Y-14865405D01*
X11605913Y-14865414D01*
X11530133Y-15048364D01*
X11530131Y-15048372D01*
X11491500Y-15242582D01*
X500552Y-15242582D01*
X500552Y-10924582D01*
X11542300Y-10924582D01*
X11542300Y-11122617D01*
X11580931Y-11316827D01*
X11580933Y-11316835D01*
X11656713Y-11499785D01*
X11656718Y-11499794D01*
X11766732Y-11664440D01*
X11766735Y-11664444D01*
X11906755Y-11804464D01*
X11906759Y-11804467D01*
X12071405Y-11914481D01*
X12071414Y-11914486D01*
X12102350Y-11927300D01*
X12254365Y-11990267D01*
X12448582Y-12028899D01*
X12448586Y-12028900D01*
X12448587Y-12028900D01*
X12646614Y-12028900D01*
X12646615Y-12028899D01*
X12840835Y-11990267D01*
X13023788Y-11914485D01*
X13188441Y-11804467D01*
X13328467Y-11664441D01*
X13438485Y-11499788D01*
X13504216Y-11341100D01*
X14186511Y-11341100D01*
X14242174Y-11475486D01*
X14242176Y-11475489D01*
X14346576Y-11631735D01*
X14346582Y-11631743D01*
X14479456Y-11764617D01*
X14479464Y-11764623D01*
X14635710Y-11869023D01*
X14635713Y-11869025D01*
X14770099Y-11924689D01*
X14770100Y-11924689D01*
X15405100Y-11924689D01*
X15539486Y-11869025D01*
X15539489Y-11869023D01*
X15695735Y-11764623D01*
X15695743Y-11764617D01*
X15828617Y-11631743D01*
X15828623Y-11631735D01*
X15933023Y-11475489D01*
X15933025Y-11475486D01*
X15988689Y-11341100D01*
X15405100Y-11341100D01*
X15405100Y-11924689D01*
X14770100Y-11924689D01*
X14770100Y-11341100D01*
X14186511Y-11341100D01*
X13504216Y-11341100D01*
X13514267Y-11316835D01*
X13552900Y-11122613D01*
X13552900Y-10977522D01*
X14737600Y-10977522D01*
X14737600Y-11069678D01*
X14761452Y-11158695D01*
X14807530Y-11238505D01*
X14872695Y-11303670D01*
X14952505Y-11349748D01*
X15041522Y-11373600D01*
X15133678Y-11373600D01*
X15222695Y-11349748D01*
X15302505Y-11303670D01*
X15367670Y-11238505D01*
X15413748Y-11158695D01*
X15437600Y-11069678D01*
X15437600Y-10977522D01*
X15413748Y-10888505D01*
X15375919Y-10822982D01*
X20025900Y-10822982D01*
X20025900Y-11021017D01*
X20064531Y-11215227D01*
X20064533Y-11215235D01*
X20140313Y-11398185D01*
X20140318Y-11398194D01*
X20250332Y-11562840D01*
X20250335Y-11562844D01*
X20390355Y-11702864D01*
X20390359Y-11702867D01*
X20555005Y-11812881D01*
X20555014Y-11812886D01*
X20585950Y-11825700D01*
X20737965Y-11888667D01*
X20919061Y-11924689D01*
X20932182Y-11927299D01*
X20932186Y-11927300D01*
X20932187Y-11927300D01*
X21130214Y-11927300D01*
X21130215Y-11927299D01*
X21324435Y-11888667D01*
X21507388Y-11812885D01*
X21672041Y-11702867D01*
X21812067Y-11562841D01*
X21922085Y-11398188D01*
X21987816Y-11239500D01*
X22670111Y-11239500D01*
X22725774Y-11373886D01*
X22725776Y-11373889D01*
X22830176Y-11530135D01*
X22830182Y-11530143D01*
X22963056Y-11663017D01*
X22963064Y-11663023D01*
X23119310Y-11767423D01*
X23119313Y-11767425D01*
X23253699Y-11823089D01*
X23253700Y-11823089D01*
X23888700Y-11823089D01*
X24023086Y-11767425D01*
X24023089Y-11767423D01*
X24179335Y-11663023D01*
X24179343Y-11663017D01*
X24312217Y-11530143D01*
X24312223Y-11530135D01*
X24416623Y-11373889D01*
X24416625Y-11373886D01*
X24472289Y-11239500D01*
X23888700Y-11239500D01*
X23888700Y-11823089D01*
X23253700Y-11823089D01*
X23253700Y-11239500D01*
X22670111Y-11239500D01*
X21987816Y-11239500D01*
X21997867Y-11215235D01*
X22036500Y-11021013D01*
X22036500Y-10875922D01*
X23221200Y-10875922D01*
X23221200Y-10968078D01*
X23245052Y-11057095D01*
X23291130Y-11136905D01*
X23356295Y-11202070D01*
X23436105Y-11248148D01*
X23525122Y-11272000D01*
X23617278Y-11272000D01*
X23706295Y-11248148D01*
X23786105Y-11202070D01*
X23851270Y-11136905D01*
X23897348Y-11057095D01*
X23921200Y-10968078D01*
X23921200Y-10875922D01*
X23897348Y-10786905D01*
X23859519Y-10721382D01*
X28738100Y-10721382D01*
X28738100Y-10919417D01*
X28776731Y-11113627D01*
X28776733Y-11113635D01*
X28852513Y-11296585D01*
X28852518Y-11296594D01*
X28962532Y-11461240D01*
X28962535Y-11461244D01*
X29102555Y-11601264D01*
X29102559Y-11601267D01*
X29267205Y-11711281D01*
X29267214Y-11711286D01*
X29308658Y-11728452D01*
X29450165Y-11787067D01*
X29592691Y-11815417D01*
X29644382Y-11825699D01*
X29644386Y-11825700D01*
X29644387Y-11825700D01*
X29842414Y-11825700D01*
X29842415Y-11825699D01*
X30036635Y-11787067D01*
X30219588Y-11711285D01*
X30384241Y-11601267D01*
X30524267Y-11461241D01*
X30634285Y-11296588D01*
X30700016Y-11137900D01*
X31382311Y-11137900D01*
X31437974Y-11272286D01*
X31437976Y-11272289D01*
X31542376Y-11428535D01*
X31542382Y-11428543D01*
X31675256Y-11561417D01*
X31675264Y-11561423D01*
X31831510Y-11665823D01*
X31831513Y-11665825D01*
X31965899Y-11721489D01*
X31965900Y-11721489D01*
X32600900Y-11721489D01*
X32735286Y-11665825D01*
X32735289Y-11665823D01*
X32891535Y-11561423D01*
X32891543Y-11561417D01*
X33024417Y-11428543D01*
X33024423Y-11428535D01*
X33128823Y-11272289D01*
X33128825Y-11272286D01*
X33184489Y-11137900D01*
X32600900Y-11137900D01*
X32600900Y-11721489D01*
X31965900Y-11721489D01*
X31965900Y-11137900D01*
X31382311Y-11137900D01*
X30700016Y-11137900D01*
X30710067Y-11113635D01*
X30748700Y-10919413D01*
X30748700Y-10774322D01*
X31933400Y-10774322D01*
X31933400Y-10866478D01*
X31957252Y-10955495D01*
X32003330Y-11035305D01*
X32068495Y-11100470D01*
X32148305Y-11146548D01*
X32237322Y-11170400D01*
X32329478Y-11170400D01*
X32418495Y-11146548D01*
X32498305Y-11100470D01*
X32563470Y-11035305D01*
X32609548Y-10955495D01*
X32633400Y-10866478D01*
X32633400Y-10774322D01*
X32619215Y-10721382D01*
X37297900Y-10721382D01*
X37297900Y-10919417D01*
X37336531Y-11113627D01*
X37336533Y-11113635D01*
X37412313Y-11296585D01*
X37412318Y-11296594D01*
X37522332Y-11461240D01*
X37522335Y-11461244D01*
X37662355Y-11601264D01*
X37662359Y-11601267D01*
X37827005Y-11711281D01*
X37827014Y-11711286D01*
X37868458Y-11728452D01*
X38009965Y-11787067D01*
X38152491Y-11815417D01*
X38204182Y-11825699D01*
X38204186Y-11825700D01*
X38204187Y-11825700D01*
X38402214Y-11825700D01*
X38402215Y-11825699D01*
X38596435Y-11787067D01*
X38779388Y-11711285D01*
X38944041Y-11601267D01*
X39084067Y-11461241D01*
X39194085Y-11296588D01*
X39259816Y-11137900D01*
X39942111Y-11137900D01*
X39997774Y-11272286D01*
X39997776Y-11272289D01*
X40102176Y-11428535D01*
X40102182Y-11428543D01*
X40235056Y-11561417D01*
X40235064Y-11561423D01*
X40391310Y-11665823D01*
X40391313Y-11665825D01*
X40525699Y-11721489D01*
X40525700Y-11721489D01*
X41160700Y-11721489D01*
X41295086Y-11665825D01*
X41295089Y-11665823D01*
X41451335Y-11561423D01*
X41451343Y-11561417D01*
X41584217Y-11428543D01*
X41584223Y-11428535D01*
X41688623Y-11272289D01*
X41688625Y-11272286D01*
X41744289Y-11137900D01*
X41160700Y-11137900D01*
X41160700Y-11721489D01*
X40525700Y-11721489D01*
X40525700Y-11137900D01*
X39942111Y-11137900D01*
X39259816Y-11137900D01*
X39269867Y-11113635D01*
X39308500Y-10919413D01*
X39308500Y-10774322D01*
X40493200Y-10774322D01*
X40493200Y-10866478D01*
X40517052Y-10955495D01*
X40563130Y-11035305D01*
X40628295Y-11100470D01*
X40708105Y-11146548D01*
X40797122Y-11170400D01*
X40889278Y-11170400D01*
X40978295Y-11146548D01*
X41058105Y-11100470D01*
X41123270Y-11035305D01*
X41169348Y-10955495D01*
X41193200Y-10866478D01*
X41193200Y-10774322D01*
X41169348Y-10685305D01*
X41123270Y-10605495D01*
X41058105Y-10540330D01*
X40993274Y-10502900D01*
X41160700Y-10502900D01*
X41744289Y-10502900D01*
X41744289Y-10502899D01*
X41688625Y-10368513D01*
X41688623Y-10368510D01*
X41584223Y-10212264D01*
X41584217Y-10212256D01*
X41451343Y-10079382D01*
X41451339Y-10079379D01*
X41295094Y-9974979D01*
X41295084Y-9974974D01*
X41160700Y-9919310D01*
X41160700Y-10502900D01*
X40993274Y-10502900D01*
X40978295Y-10494252D01*
X40889278Y-10470400D01*
X40797122Y-10470400D01*
X40708105Y-10494252D01*
X40628295Y-10540330D01*
X40563130Y-10605495D01*
X40517052Y-10685305D01*
X40493200Y-10774322D01*
X39308500Y-10774322D01*
X39308500Y-10721387D01*
X39289052Y-10623614D01*
X39272595Y-10540878D01*
X39272593Y-10540872D01*
X39269867Y-10527165D01*
X39259816Y-10502899D01*
X39942110Y-10502899D01*
X39942111Y-10502900D01*
X40525700Y-10502900D01*
X40525700Y-9919310D01*
X40525699Y-9919310D01*
X40391315Y-9974974D01*
X40391305Y-9974979D01*
X40235060Y-10079379D01*
X40235056Y-10079382D01*
X40102182Y-10212256D01*
X40102176Y-10212264D01*
X39997776Y-10368510D01*
X39997774Y-10368513D01*
X39942110Y-10502899D01*
X39259816Y-10502899D01*
X39194085Y-10344212D01*
X39194084Y-10344211D01*
X39194081Y-10344205D01*
X39084067Y-10179559D01*
X39084064Y-10179555D01*
X38944044Y-10039535D01*
X38944040Y-10039532D01*
X38779394Y-9929518D01*
X38779385Y-9929513D01*
X38596435Y-9853733D01*
X38596427Y-9853731D01*
X38402217Y-9815100D01*
X38402213Y-9815100D01*
X38204187Y-9815100D01*
X38204182Y-9815100D01*
X38009972Y-9853731D01*
X38009964Y-9853733D01*
X37827014Y-9929513D01*
X37827005Y-9929518D01*
X37662359Y-10039532D01*
X37662355Y-10039535D01*
X37522335Y-10179555D01*
X37522332Y-10179559D01*
X37412318Y-10344205D01*
X37412313Y-10344214D01*
X37336533Y-10527164D01*
X37336531Y-10527172D01*
X37297900Y-10721382D01*
X32619215Y-10721382D01*
X32609548Y-10685305D01*
X32563470Y-10605495D01*
X32498305Y-10540330D01*
X32433474Y-10502900D01*
X32600900Y-10502900D01*
X33184489Y-10502900D01*
X33184489Y-10502899D01*
X33128825Y-10368513D01*
X33128823Y-10368510D01*
X33024423Y-10212264D01*
X33024417Y-10212256D01*
X32891543Y-10079382D01*
X32891539Y-10079379D01*
X32735294Y-9974979D01*
X32735284Y-9974974D01*
X32600900Y-9919310D01*
X32600900Y-10502900D01*
X32433474Y-10502900D01*
X32418495Y-10494252D01*
X32329478Y-10470400D01*
X32237322Y-10470400D01*
X32148305Y-10494252D01*
X32068495Y-10540330D01*
X32003330Y-10605495D01*
X31957252Y-10685305D01*
X31933400Y-10774322D01*
X30748700Y-10774322D01*
X30748700Y-10721387D01*
X30710067Y-10527165D01*
X30700016Y-10502899D01*
X31382310Y-10502899D01*
X31382311Y-10502900D01*
X31965900Y-10502900D01*
X31965900Y-9919310D01*
X31965899Y-9919310D01*
X31831515Y-9974974D01*
X31831505Y-9974979D01*
X31675260Y-10079379D01*
X31675256Y-10079382D01*
X31542382Y-10212256D01*
X31542376Y-10212264D01*
X31437976Y-10368510D01*
X31437974Y-10368513D01*
X31382310Y-10502899D01*
X30700016Y-10502899D01*
X30634285Y-10344212D01*
X30634284Y-10344211D01*
X30634281Y-10344205D01*
X30524267Y-10179559D01*
X30524264Y-10179555D01*
X30384244Y-10039535D01*
X30384240Y-10039532D01*
X30219594Y-9929518D01*
X30219585Y-9929513D01*
X30036635Y-9853733D01*
X30036627Y-9853731D01*
X29842417Y-9815100D01*
X29842413Y-9815100D01*
X29644387Y-9815100D01*
X29644382Y-9815100D01*
X29450172Y-9853731D01*
X29450164Y-9853733D01*
X29267214Y-9929513D01*
X29267205Y-9929518D01*
X29102559Y-10039532D01*
X29102555Y-10039535D01*
X28962535Y-10179555D01*
X28962532Y-10179559D01*
X28852518Y-10344205D01*
X28852513Y-10344214D01*
X28776733Y-10527164D01*
X28776731Y-10527172D01*
X28738100Y-10721382D01*
X23859519Y-10721382D01*
X23851270Y-10707095D01*
X23786105Y-10641930D01*
X23721274Y-10604500D01*
X23888700Y-10604500D01*
X24472289Y-10604500D01*
X24472289Y-10604499D01*
X24416625Y-10470113D01*
X24416623Y-10470110D01*
X24312223Y-10313864D01*
X24312217Y-10313856D01*
X24179343Y-10180982D01*
X24179339Y-10180979D01*
X24023094Y-10076579D01*
X24023084Y-10076574D01*
X23888700Y-10020910D01*
X23888700Y-10604500D01*
X23721274Y-10604500D01*
X23706295Y-10595852D01*
X23617278Y-10572000D01*
X23525122Y-10572000D01*
X23436105Y-10595852D01*
X23356295Y-10641930D01*
X23291130Y-10707095D01*
X23245052Y-10786905D01*
X23221200Y-10875922D01*
X22036500Y-10875922D01*
X22036500Y-10822987D01*
X22011530Y-10697452D01*
X22000595Y-10642478D01*
X22000593Y-10642472D01*
X21997867Y-10628765D01*
X21987816Y-10604499D01*
X22670110Y-10604499D01*
X22670111Y-10604500D01*
X23253700Y-10604500D01*
X23253700Y-10020910D01*
X23253699Y-10020910D01*
X23119315Y-10076574D01*
X23119305Y-10076579D01*
X22963060Y-10180979D01*
X22963056Y-10180982D01*
X22830182Y-10313856D01*
X22830176Y-10313864D01*
X22725776Y-10470110D01*
X22725774Y-10470113D01*
X22670110Y-10604499D01*
X21987816Y-10604499D01*
X21922085Y-10445812D01*
X21922084Y-10445811D01*
X21922081Y-10445805D01*
X21812067Y-10281159D01*
X21812064Y-10281155D01*
X21672044Y-10141135D01*
X21672040Y-10141132D01*
X21507394Y-10031118D01*
X21507385Y-10031113D01*
X21324435Y-9955333D01*
X21324427Y-9955331D01*
X21130217Y-9916700D01*
X21130213Y-9916700D01*
X20932187Y-9916700D01*
X20932182Y-9916700D01*
X20737972Y-9955331D01*
X20737964Y-9955333D01*
X20555014Y-10031113D01*
X20555005Y-10031118D01*
X20390359Y-10141132D01*
X20390355Y-10141135D01*
X20250335Y-10281155D01*
X20250332Y-10281159D01*
X20140318Y-10445805D01*
X20140313Y-10445814D01*
X20064533Y-10628764D01*
X20064531Y-10628772D01*
X20025900Y-10822982D01*
X15375919Y-10822982D01*
X15367670Y-10808695D01*
X15302505Y-10743530D01*
X15237674Y-10706100D01*
X15405100Y-10706100D01*
X15988689Y-10706100D01*
X15988689Y-10706099D01*
X15933025Y-10571713D01*
X15933023Y-10571710D01*
X15828623Y-10415464D01*
X15828617Y-10415456D01*
X15695743Y-10282582D01*
X15695739Y-10282579D01*
X15539494Y-10178179D01*
X15539484Y-10178174D01*
X15405100Y-10122510D01*
X15405100Y-10706100D01*
X15237674Y-10706100D01*
X15222695Y-10697452D01*
X15133678Y-10673600D01*
X15041522Y-10673600D01*
X14952505Y-10697452D01*
X14872695Y-10743530D01*
X14807530Y-10808695D01*
X14761452Y-10888505D01*
X14737600Y-10977522D01*
X13552900Y-10977522D01*
X13552900Y-10924587D01*
X13529848Y-10808695D01*
X13516995Y-10744078D01*
X13516993Y-10744072D01*
X13514267Y-10730365D01*
X13504216Y-10706099D01*
X14186510Y-10706099D01*
X14186511Y-10706100D01*
X14770100Y-10706100D01*
X14770100Y-10122510D01*
X14770099Y-10122510D01*
X14635715Y-10178174D01*
X14635705Y-10178179D01*
X14479460Y-10282579D01*
X14479456Y-10282582D01*
X14346582Y-10415456D01*
X14346576Y-10415464D01*
X14242176Y-10571710D01*
X14242174Y-10571713D01*
X14186510Y-10706099D01*
X13504216Y-10706099D01*
X13438485Y-10547412D01*
X13438484Y-10547411D01*
X13438481Y-10547405D01*
X13328467Y-10382759D01*
X13328464Y-10382755D01*
X13188444Y-10242735D01*
X13188440Y-10242732D01*
X13023794Y-10132718D01*
X13023785Y-10132713D01*
X12840835Y-10056933D01*
X12840827Y-10056931D01*
X12646617Y-10018300D01*
X12646613Y-10018300D01*
X12448587Y-10018300D01*
X12448582Y-10018300D01*
X12254372Y-10056931D01*
X12254364Y-10056933D01*
X12071414Y-10132713D01*
X12071405Y-10132718D01*
X11906759Y-10242732D01*
X11906755Y-10242735D01*
X11766735Y-10382755D01*
X11766732Y-10382759D01*
X11656718Y-10547405D01*
X11656713Y-10547414D01*
X11580933Y-10730364D01*
X11580931Y-10730372D01*
X11542300Y-10924582D01*
X500552Y-10924582D01*
X500552Y-6369798D01*
X520237Y-6302759D01*
X573041Y-6257004D01*
X642199Y-6247060D01*
X705755Y-6276085D01*
X727652Y-6300905D01*
X821846Y-6441876D01*
X857980Y-6495954D01*
X857990Y-6495968D01*
X1093760Y-6783255D01*
X1356544Y-7046039D01*
X1356549Y-7046043D01*
X1356550Y-7046044D01*
X1643837Y-7281814D01*
X1952850Y-7488290D01*
X1952859Y-7488295D01*
X1952861Y-7488296D01*
X2280605Y-7663479D01*
X2280607Y-7663479D01*
X2280613Y-7663483D01*
X2623970Y-7805706D01*
X2979614Y-7913590D01*
X3344119Y-7986095D01*
X3713977Y-8022522D01*
X3713980Y-8022522D01*
X4085620Y-8022522D01*
X4085623Y-8022522D01*
X4455481Y-7986095D01*
X4819986Y-7913590D01*
X5175630Y-7805706D01*
X5518987Y-7663483D01*
X5846750Y-7488290D01*
X6155763Y-7281814D01*
X6443050Y-7046044D01*
X6705844Y-6783250D01*
X6941614Y-6495963D01*
X7148090Y-6186950D01*
X7323283Y-5859187D01*
X7435610Y-5588005D01*
X11391500Y-5588005D01*
X11391500Y-5761994D01*
X11418715Y-5933825D01*
X11447719Y-6023088D01*
X11472478Y-6099288D01*
X11544429Y-6240500D01*
X11551465Y-6254307D01*
X11653718Y-6395048D01*
X11653722Y-6395053D01*
X11776746Y-6518077D01*
X11776751Y-6518081D01*
X11899512Y-6607271D01*
X11917496Y-6620337D01*
X12072512Y-6699322D01*
X12175338Y-6732732D01*
X12237974Y-6753084D01*
X12409806Y-6780300D01*
X12409811Y-6780300D01*
X12583794Y-6780300D01*
X12755625Y-6753084D01*
X12921088Y-6699322D01*
X13076104Y-6620337D01*
X13216855Y-6518076D01*
X13339876Y-6395055D01*
X13442137Y-6254304D01*
X13521122Y-6099288D01*
X13574884Y-5933825D01*
X13579524Y-5904527D01*
X13602100Y-5761994D01*
X13602100Y-5588005D01*
X13574884Y-5416174D01*
X13554618Y-5353803D01*
X13521122Y-5250712D01*
X13442137Y-5095696D01*
X13386772Y-5019492D01*
X13339881Y-4954951D01*
X13339877Y-4954946D01*
X13216853Y-4831922D01*
X13216848Y-4831918D01*
X13076107Y-4729665D01*
X13076106Y-4729664D01*
X13076104Y-4729663D01*
X12921088Y-4650678D01*
X12878176Y-4636735D01*
X12755625Y-4596915D01*
X12583794Y-4569700D01*
X12583789Y-4569700D01*
X12409811Y-4569700D01*
X12409806Y-4569700D01*
X12237974Y-4596915D01*
X12072509Y-4650679D01*
X11917492Y-4729665D01*
X11776751Y-4831918D01*
X11776746Y-4831922D01*
X11653722Y-4954946D01*
X11653718Y-4954951D01*
X11551465Y-5095692D01*
X11472479Y-5250709D01*
X11418715Y-5416174D01*
X11391500Y-5588005D01*
X7435610Y-5588005D01*
X7465506Y-5515830D01*
X7573390Y-5160186D01*
X7645895Y-4795681D01*
X7682322Y-4425823D01*
X7682322Y-4054177D01*
X7645895Y-3684319D01*
X7573390Y-3319814D01*
X7465506Y-2964170D01*
X7323283Y-2620813D01*
X7316913Y-2608896D01*
X7148096Y-2293061D01*
X7148095Y-2293059D01*
X7148090Y-2293050D01*
X6941614Y-1984037D01*
X6705844Y-1696750D01*
X6705843Y-1696749D01*
X6705839Y-1696744D01*
X6443055Y-1433960D01*
X6155768Y-1198190D01*
X6155767Y-1198189D01*
X6155763Y-1198186D01*
X5846750Y-991710D01*
X5846745Y-991707D01*
X5846738Y-991703D01*
X5518994Y-816520D01*
X5518989Y-816518D01*
X5518987Y-816517D01*
X5331990Y-739060D01*
X5277588Y-695220D01*
X5255523Y-628926D01*
X5272802Y-561227D01*
X5323939Y-513616D01*
X5379444Y-500500D01*
X21620410Y-500500D01*
X21687449Y-520185D01*
G37*
%TD.AperFunction*%
%TD*%
%TA.AperFunction,NonConductor*%
G36*
X104678045Y-1193658D02*
G01*
X105004298Y-1230419D01*
X105018001Y-1232747D01*
X105338098Y-1305807D01*
X105351448Y-1309653D01*
X105660797Y-1417899D01*
X105661347Y-1418092D01*
X105674193Y-1423413D01*
X105969993Y-1565862D01*
X105982161Y-1572586D01*
X106179766Y-1696750D01*
X106260164Y-1747267D01*
X106271502Y-1755312D01*
X106528196Y-1960018D01*
X106538564Y-1969284D01*
X106770715Y-2201435D01*
X106779981Y-2211803D01*
X106984685Y-2468494D01*
X106992732Y-2479835D01*
X107167411Y-2757835D01*
X107174137Y-2770006D01*
X107316586Y-3065806D01*
X107321907Y-3078652D01*
X107430344Y-3388545D01*
X107434194Y-3401908D01*
X107507251Y-3721996D01*
X107509580Y-3735704D01*
X107546341Y-4061954D01*
X107547121Y-4075838D01*
X107547121Y-4404161D01*
X107546341Y-4418045D01*
X107509580Y-4744295D01*
X107507251Y-4758003D01*
X107434194Y-5078091D01*
X107430344Y-5091454D01*
X107321907Y-5401347D01*
X107316586Y-5414193D01*
X107174137Y-5709993D01*
X107167411Y-5722164D01*
X106992732Y-6000164D01*
X106984685Y-6011505D01*
X106779981Y-6268196D01*
X106770715Y-6278564D01*
X106538564Y-6510715D01*
X106528196Y-6519981D01*
X106271505Y-6724685D01*
X106260164Y-6732732D01*
X105982164Y-6907411D01*
X105969993Y-6914137D01*
X105674193Y-7056586D01*
X105661347Y-7061907D01*
X105351454Y-7170344D01*
X105338091Y-7174194D01*
X105018003Y-7247251D01*
X105004295Y-7249580D01*
X104678046Y-7286341D01*
X104664162Y-7287121D01*
X104335838Y-7287121D01*
X104321954Y-7286341D01*
X103995704Y-7249580D01*
X103981996Y-7247251D01*
X103661908Y-7174194D01*
X103648545Y-7170344D01*
X103338652Y-7061907D01*
X103325806Y-7056586D01*
X103030006Y-6914137D01*
X103017835Y-6907411D01*
X102739835Y-6732732D01*
X102728494Y-6724685D01*
X102471803Y-6519981D01*
X102461435Y-6510715D01*
X102229284Y-6278564D01*
X102220018Y-6268196D01*
X102159385Y-6192164D01*
X102015312Y-6011502D01*
X102007267Y-6000164D01*
X101965583Y-5933825D01*
X101832586Y-5722161D01*
X101825862Y-5709993D01*
X101814208Y-5685794D01*
X101683413Y-5414193D01*
X101678092Y-5401347D01*
X101625381Y-5250709D01*
X101569653Y-5091448D01*
X101565805Y-5078091D01*
X101552431Y-5019496D01*
X101492747Y-4758001D01*
X101490419Y-4744295D01*
X101488770Y-4729663D01*
X101453659Y-4418045D01*
X101452879Y-4404161D01*
X101452879Y-4108872D01*
X102499499Y-4108872D01*
X102499499Y-4371127D01*
X102515611Y-4493500D01*
X102533729Y-4631116D01*
X102601601Y-4884420D01*
X102601604Y-4884427D01*
X102701954Y-5126693D01*
X102701959Y-5126704D01*
X102833071Y-5353795D01*
X102833082Y-5353811D01*
X102992715Y-5561850D01*
X102992721Y-5561857D01*
X103178142Y-5747278D01*
X103178148Y-5747283D01*
X103386197Y-5906924D01*
X103386204Y-5906928D01*
X103613295Y-6038040D01*
X103613300Y-6038042D01*
X103613303Y-6038044D01*
X103855580Y-6138399D01*
X104108884Y-6206271D01*
X104368880Y-6240501D01*
X104368887Y-6240501D01*
X104631113Y-6240501D01*
X104631120Y-6240501D01*
X104891116Y-6206271D01*
X105144420Y-6138399D01*
X105386697Y-6038044D01*
X105613803Y-5906924D01*
X105821852Y-5747283D01*
X106007283Y-5561852D01*
X106166924Y-5353803D01*
X106298044Y-5126697D01*
X106398399Y-4884420D01*
X106466271Y-4631116D01*
X106500501Y-4371120D01*
X106500501Y-4108880D01*
X106466271Y-3848884D01*
X106398399Y-3595580D01*
X106298044Y-3353303D01*
X106298042Y-3353300D01*
X106298040Y-3353295D01*
X106166928Y-3126204D01*
X106166924Y-3126197D01*
X106007283Y-2918148D01*
X106007278Y-2918142D01*
X105821857Y-2732721D01*
X105821850Y-2732715D01*
X105613811Y-2573082D01*
X105613809Y-2573080D01*
X105613803Y-2573076D01*
X105613798Y-2573073D01*
X105613795Y-2573071D01*
X105386704Y-2441959D01*
X105386693Y-2441954D01*
X105144427Y-2341604D01*
X105144428Y-2341604D01*
X105144420Y-2341601D01*
X104891116Y-2273729D01*
X104847662Y-2268008D01*
X104631127Y-2239499D01*
X104631120Y-2239499D01*
X104368880Y-2239499D01*
X104368872Y-2239499D01*
X104121402Y-2272080D01*
X104108884Y-2273729D01*
X104036735Y-2293061D01*
X103855586Y-2341599D01*
X103855572Y-2341604D01*
X103613306Y-2441954D01*
X103613295Y-2441959D01*
X103386204Y-2573071D01*
X103386188Y-2573082D01*
X103178149Y-2732715D01*
X103178142Y-2732721D01*
X102992721Y-2918142D01*
X102992715Y-2918149D01*
X102833082Y-3126188D01*
X102833071Y-3126204D01*
X102701959Y-3353295D01*
X102701954Y-3353306D01*
X102601604Y-3595572D01*
X102601599Y-3595586D01*
X102533730Y-3848881D01*
X102533728Y-3848892D01*
X102499499Y-4108872D01*
X101452879Y-4108872D01*
X101452879Y-4075838D01*
X101453659Y-4061954D01*
X101464030Y-3969909D01*
X101490419Y-3735698D01*
X101492748Y-3721996D01*
X101565808Y-3401896D01*
X101569651Y-3388556D01*
X101678094Y-3078646D01*
X101683413Y-3065806D01*
X101825867Y-2769996D01*
X101832582Y-2757845D01*
X102007275Y-2479823D01*
X102015305Y-2468505D01*
X102220026Y-2211793D01*
X102229275Y-2201444D01*
X102461444Y-1969275D01*
X102471793Y-1960026D01*
X102728505Y-1755305D01*
X102739823Y-1747275D01*
X103017845Y-1572582D01*
X103029996Y-1565867D01*
X103325811Y-1423410D01*
X103338646Y-1418094D01*
X103648556Y-1309651D01*
X103661896Y-1305808D01*
X103982001Y-1232747D01*
X103995698Y-1230419D01*
X104321954Y-1193658D01*
X104335838Y-1192879D01*
X104664162Y-1192879D01*
X104678045Y-1193658D01*
G37*
%TD.AperFunction*%
%TA.AperFunction,NonConductor*%
G36*
X4077845Y-1193658D02*
G01*
X4404098Y-1230419D01*
X4417801Y-1232747D01*
X4737898Y-1305807D01*
X4751248Y-1309653D01*
X5060597Y-1417899D01*
X5061147Y-1418092D01*
X5073993Y-1423413D01*
X5369793Y-1565862D01*
X5381961Y-1572586D01*
X5579566Y-1696750D01*
X5659964Y-1747267D01*
X5671302Y-1755312D01*
X5927996Y-1960018D01*
X5938364Y-1969284D01*
X6170515Y-2201435D01*
X6179781Y-2211803D01*
X6384485Y-2468494D01*
X6392532Y-2479835D01*
X6567211Y-2757835D01*
X6573937Y-2770006D01*
X6716386Y-3065806D01*
X6721707Y-3078652D01*
X6830144Y-3388545D01*
X6833994Y-3401908D01*
X6907051Y-3721996D01*
X6909380Y-3735704D01*
X6946141Y-4061954D01*
X6946921Y-4075838D01*
X6946921Y-4404161D01*
X6946141Y-4418045D01*
X6909380Y-4744295D01*
X6907051Y-4758003D01*
X6833994Y-5078091D01*
X6830144Y-5091454D01*
X6721707Y-5401347D01*
X6716386Y-5414193D01*
X6573937Y-5709993D01*
X6567211Y-5722164D01*
X6392532Y-6000164D01*
X6384485Y-6011505D01*
X6179781Y-6268196D01*
X6170515Y-6278564D01*
X5938364Y-6510715D01*
X5927996Y-6519981D01*
X5671305Y-6724685D01*
X5659964Y-6732732D01*
X5381964Y-6907411D01*
X5369793Y-6914137D01*
X5073993Y-7056586D01*
X5061147Y-7061907D01*
X4751254Y-7170344D01*
X4737891Y-7174194D01*
X4417803Y-7247251D01*
X4404095Y-7249580D01*
X4077846Y-7286341D01*
X4063962Y-7287121D01*
X3735638Y-7287121D01*
X3721754Y-7286341D01*
X3395504Y-7249580D01*
X3381796Y-7247251D01*
X3061708Y-7174194D01*
X3048345Y-7170344D01*
X2738452Y-7061907D01*
X2725606Y-7056586D01*
X2429806Y-6914137D01*
X2417635Y-6907411D01*
X2139635Y-6732732D01*
X2128294Y-6724685D01*
X1871603Y-6519981D01*
X1861235Y-6510715D01*
X1629084Y-6278564D01*
X1619818Y-6268196D01*
X1559185Y-6192164D01*
X1415112Y-6011502D01*
X1407067Y-6000164D01*
X1365383Y-5933825D01*
X1232386Y-5722161D01*
X1225662Y-5709993D01*
X1214008Y-5685794D01*
X1083213Y-5414193D01*
X1077892Y-5401347D01*
X1025181Y-5250709D01*
X969453Y-5091448D01*
X965605Y-5078091D01*
X952231Y-5019496D01*
X892547Y-4758001D01*
X890219Y-4744295D01*
X888570Y-4729663D01*
X853459Y-4418045D01*
X852679Y-4404161D01*
X852679Y-4108872D01*
X1899299Y-4108872D01*
X1899299Y-4371127D01*
X1915411Y-4493500D01*
X1933529Y-4631116D01*
X2001401Y-4884420D01*
X2001404Y-4884427D01*
X2101754Y-5126693D01*
X2101759Y-5126704D01*
X2232871Y-5353795D01*
X2232882Y-5353811D01*
X2392515Y-5561850D01*
X2392521Y-5561857D01*
X2577942Y-5747278D01*
X2577948Y-5747283D01*
X2785997Y-5906924D01*
X2786004Y-5906928D01*
X3013095Y-6038040D01*
X3013100Y-6038042D01*
X3013103Y-6038044D01*
X3255380Y-6138399D01*
X3508684Y-6206271D01*
X3768680Y-6240501D01*
X3768687Y-6240501D01*
X4030913Y-6240501D01*
X4030920Y-6240501D01*
X4290916Y-6206271D01*
X4544220Y-6138399D01*
X4786497Y-6038044D01*
X5013603Y-5906924D01*
X5221652Y-5747283D01*
X5407083Y-5561852D01*
X5566724Y-5353803D01*
X5697844Y-5126697D01*
X5798199Y-4884420D01*
X5866071Y-4631116D01*
X5900301Y-4371120D01*
X5900301Y-4108880D01*
X5866071Y-3848884D01*
X5798199Y-3595580D01*
X5697844Y-3353303D01*
X5697842Y-3353300D01*
X5697840Y-3353295D01*
X5566728Y-3126204D01*
X5566724Y-3126197D01*
X5407083Y-2918148D01*
X5407078Y-2918142D01*
X5221657Y-2732721D01*
X5221650Y-2732715D01*
X5013611Y-2573082D01*
X5013609Y-2573080D01*
X5013603Y-2573076D01*
X5013598Y-2573073D01*
X5013595Y-2573071D01*
X4786504Y-2441959D01*
X4786493Y-2441954D01*
X4544227Y-2341604D01*
X4544228Y-2341604D01*
X4544220Y-2341601D01*
X4290916Y-2273729D01*
X4247462Y-2268008D01*
X4030927Y-2239499D01*
X4030920Y-2239499D01*
X3768680Y-2239499D01*
X3768672Y-2239499D01*
X3521202Y-2272080D01*
X3508684Y-2273729D01*
X3436535Y-2293061D01*
X3255386Y-2341599D01*
X3255372Y-2341604D01*
X3013106Y-2441954D01*
X3013095Y-2441959D01*
X2786004Y-2573071D01*
X2785988Y-2573082D01*
X2577949Y-2732715D01*
X2577942Y-2732721D01*
X2392521Y-2918142D01*
X2392515Y-2918149D01*
X2232882Y-3126188D01*
X2232871Y-3126204D01*
X2101759Y-3353295D01*
X2101754Y-3353306D01*
X2001404Y-3595572D01*
X2001399Y-3595586D01*
X1933530Y-3848881D01*
X1933528Y-3848892D01*
X1899299Y-4108872D01*
X852679Y-4108872D01*
X852679Y-4075838D01*
X853459Y-4061954D01*
X863830Y-3969909D01*
X890219Y-3735698D01*
X892548Y-3721996D01*
X965608Y-3401896D01*
X969451Y-3388556D01*
X1077894Y-3078646D01*
X1083213Y-3065806D01*
X1225667Y-2769996D01*
X1232382Y-2757845D01*
X1407075Y-2479823D01*
X1415105Y-2468505D01*
X1619826Y-2211793D01*
X1629075Y-2201444D01*
X1861244Y-1969275D01*
X1871593Y-1960026D01*
X2128305Y-1755305D01*
X2139623Y-1747275D01*
X2417645Y-1572582D01*
X2429796Y-1565867D01*
X2725611Y-1423410D01*
X2738446Y-1418094D01*
X3048356Y-1309651D01*
X3061696Y-1305808D01*
X3381801Y-1232747D01*
X3395498Y-1230419D01*
X3721754Y-1193658D01*
X3735638Y-1192879D01*
X4063962Y-1192879D01*
X4077845Y-1193658D01*
G37*
%TD.AperFunction*%
M02*
