%TF.GenerationSoftware,KiCad,Pcbnew,9.0.0*%
%TF.CreationDate,2025-03-26T11:57:41+11:00*%
%TF.ProjectId,Wing Board 4 TRS Mk IV,57696e67-2042-46f6-9172-642034205452,rev?*%
%TF.SameCoordinates,Original*%
%TF.FileFunction,Legend,Top*%
%TF.FilePolarity,Positive*%
%FSLAX46Y46*%
G04 Gerber Fmt 4.6, Leading zero omitted, Abs format (unit mm)*
G04 Created by KiCad (PCBNEW 9.0.0) date 2025-03-26 11:57:41*
%MOMM*%
%LPD*%
G01*
G04 APERTURE LIST*
G04 Aperture macros list*
%AMHorizOval*
0 Thick line with rounded ends*
0 $1 width*
0 $2 $3 position (X,Y) of the first rounded end (center of the circle)*
0 $4 $5 position (X,Y) of the second rounded end (center of the circle)*
0 Add line between two ends*
20,1,$1,$2,$3,$4,$5,0*
0 Add two circle primitives to create the rounded ends*
1,1,$1,$2,$3*
1,1,$1,$4,$5*%
G04 Aperture macros list end*
%ADD10C,0.228600*%
%ADD11C,0.254000*%
%ADD12C,0.203200*%
%ADD13C,0.150000*%
%ADD14C,0.120000*%
%ADD15C,0.100000*%
%ADD16C,0.200000*%
%ADD17R,1.600000X1.600000*%
%ADD18C,1.600000*%
%ADD19C,2.100000*%
%ADD20C,1.400000*%
%ADD21O,1.400000X1.400000*%
%ADD22HorizOval,2.400000X-0.212132X-0.212132X0.212132X0.212132X0*%
%ADD23R,1.650000X1.650000*%
%ADD24C,1.650000*%
%ADD25C,3.500001*%
G04 APERTURE END LIST*
D10*
X59602914Y-20041230D02*
X59820628Y-20041230D01*
X59820628Y-20041230D02*
X59929485Y-20095659D01*
X59929485Y-20095659D02*
X60038342Y-20204516D01*
X60038342Y-20204516D02*
X60092771Y-20422230D01*
X60092771Y-20422230D02*
X60092771Y-20803230D01*
X60092771Y-20803230D02*
X60038342Y-21020944D01*
X60038342Y-21020944D02*
X59929485Y-21129802D01*
X59929485Y-21129802D02*
X59820628Y-21184230D01*
X59820628Y-21184230D02*
X59602914Y-21184230D01*
X59602914Y-21184230D02*
X59494057Y-21129802D01*
X59494057Y-21129802D02*
X59385199Y-21020944D01*
X59385199Y-21020944D02*
X59330771Y-20803230D01*
X59330771Y-20803230D02*
X59330771Y-20422230D01*
X59330771Y-20422230D02*
X59385199Y-20204516D01*
X59385199Y-20204516D02*
X59494057Y-20095659D01*
X59494057Y-20095659D02*
X59602914Y-20041230D01*
X60582628Y-20041230D02*
X60582628Y-20966516D01*
X60582628Y-20966516D02*
X60637057Y-21075373D01*
X60637057Y-21075373D02*
X60691486Y-21129802D01*
X60691486Y-21129802D02*
X60800343Y-21184230D01*
X60800343Y-21184230D02*
X61018057Y-21184230D01*
X61018057Y-21184230D02*
X61126914Y-21129802D01*
X61126914Y-21129802D02*
X61181343Y-21075373D01*
X61181343Y-21075373D02*
X61235771Y-20966516D01*
X61235771Y-20966516D02*
X61235771Y-20041230D01*
X61616772Y-20041230D02*
X62269915Y-20041230D01*
X61943343Y-21184230D02*
X61943343Y-20041230D01*
X63412914Y-20041230D02*
X64120486Y-20041230D01*
X64120486Y-20041230D02*
X63739486Y-20476659D01*
X63739486Y-20476659D02*
X63902771Y-20476659D01*
X63902771Y-20476659D02*
X64011629Y-20531087D01*
X64011629Y-20531087D02*
X64066057Y-20585516D01*
X64066057Y-20585516D02*
X64120486Y-20694373D01*
X64120486Y-20694373D02*
X64120486Y-20966516D01*
X64120486Y-20966516D02*
X64066057Y-21075373D01*
X64066057Y-21075373D02*
X64011629Y-21129802D01*
X64011629Y-21129802D02*
X63902771Y-21184230D01*
X63902771Y-21184230D02*
X63576200Y-21184230D01*
X63576200Y-21184230D02*
X63467343Y-21129802D01*
X63467343Y-21129802D02*
X63412914Y-21075373D01*
X66297628Y-19986802D02*
X65317914Y-21456373D01*
X67549485Y-21184230D02*
X67549485Y-20041230D01*
X68093771Y-21184230D02*
X68093771Y-20041230D01*
X68093771Y-20041230D02*
X68746914Y-21184230D01*
X68746914Y-21184230D02*
X68746914Y-20041230D01*
X70978486Y-20150087D02*
X71032914Y-20095659D01*
X71032914Y-20095659D02*
X71141772Y-20041230D01*
X71141772Y-20041230D02*
X71413914Y-20041230D01*
X71413914Y-20041230D02*
X71522772Y-20095659D01*
X71522772Y-20095659D02*
X71577200Y-20150087D01*
X71577200Y-20150087D02*
X71631629Y-20258944D01*
X71631629Y-20258944D02*
X71631629Y-20367802D01*
X71631629Y-20367802D02*
X71577200Y-20531087D01*
X71577200Y-20531087D02*
X70924057Y-21184230D01*
X70924057Y-21184230D02*
X71631629Y-21184230D01*
X14746514Y-20117430D02*
X14964228Y-20117430D01*
X14964228Y-20117430D02*
X15073085Y-20171859D01*
X15073085Y-20171859D02*
X15181942Y-20280716D01*
X15181942Y-20280716D02*
X15236371Y-20498430D01*
X15236371Y-20498430D02*
X15236371Y-20879430D01*
X15236371Y-20879430D02*
X15181942Y-21097144D01*
X15181942Y-21097144D02*
X15073085Y-21206002D01*
X15073085Y-21206002D02*
X14964228Y-21260430D01*
X14964228Y-21260430D02*
X14746514Y-21260430D01*
X14746514Y-21260430D02*
X14637657Y-21206002D01*
X14637657Y-21206002D02*
X14528799Y-21097144D01*
X14528799Y-21097144D02*
X14474371Y-20879430D01*
X14474371Y-20879430D02*
X14474371Y-20498430D01*
X14474371Y-20498430D02*
X14528799Y-20280716D01*
X14528799Y-20280716D02*
X14637657Y-20171859D01*
X14637657Y-20171859D02*
X14746514Y-20117430D01*
X15726228Y-20117430D02*
X15726228Y-21042716D01*
X15726228Y-21042716D02*
X15780657Y-21151573D01*
X15780657Y-21151573D02*
X15835086Y-21206002D01*
X15835086Y-21206002D02*
X15943943Y-21260430D01*
X15943943Y-21260430D02*
X16161657Y-21260430D01*
X16161657Y-21260430D02*
X16270514Y-21206002D01*
X16270514Y-21206002D02*
X16324943Y-21151573D01*
X16324943Y-21151573D02*
X16379371Y-21042716D01*
X16379371Y-21042716D02*
X16379371Y-20117430D01*
X16760372Y-20117430D02*
X17413515Y-20117430D01*
X17086943Y-21260430D02*
X17086943Y-20117430D01*
X19264086Y-21260430D02*
X18610943Y-21260430D01*
X18937514Y-21260430D02*
X18937514Y-20117430D01*
X18937514Y-20117430D02*
X18828657Y-20280716D01*
X18828657Y-20280716D02*
X18719800Y-20389573D01*
X18719800Y-20389573D02*
X18610943Y-20444002D01*
X21441228Y-20063002D02*
X20461514Y-21532573D01*
X22693085Y-21260430D02*
X22693085Y-20117430D01*
X23237371Y-21260430D02*
X23237371Y-20117430D01*
X23237371Y-20117430D02*
X23890514Y-21260430D01*
X23890514Y-21260430D02*
X23890514Y-20117430D01*
X26666372Y-20498430D02*
X26666372Y-21260430D01*
X26394229Y-20063002D02*
X26122086Y-20879430D01*
X26122086Y-20879430D02*
X26829657Y-20879430D01*
D11*
X49203428Y-12996116D02*
X49058285Y-12923544D01*
X49058285Y-12923544D02*
X48985714Y-12850973D01*
X48985714Y-12850973D02*
X48913142Y-12705830D01*
X48913142Y-12705830D02*
X48913142Y-12633259D01*
X48913142Y-12633259D02*
X48985714Y-12488116D01*
X48985714Y-12488116D02*
X49058285Y-12415544D01*
X49058285Y-12415544D02*
X49203428Y-12342973D01*
X49203428Y-12342973D02*
X49493714Y-12342973D01*
X49493714Y-12342973D02*
X49638857Y-12415544D01*
X49638857Y-12415544D02*
X49711428Y-12488116D01*
X49711428Y-12488116D02*
X49783999Y-12633259D01*
X49783999Y-12633259D02*
X49783999Y-12705830D01*
X49783999Y-12705830D02*
X49711428Y-12850973D01*
X49711428Y-12850973D02*
X49638857Y-12923544D01*
X49638857Y-12923544D02*
X49493714Y-12996116D01*
X49493714Y-12996116D02*
X49203428Y-12996116D01*
X49203428Y-12996116D02*
X49058285Y-13068687D01*
X49058285Y-13068687D02*
X48985714Y-13141259D01*
X48985714Y-13141259D02*
X48913142Y-13286402D01*
X48913142Y-13286402D02*
X48913142Y-13576687D01*
X48913142Y-13576687D02*
X48985714Y-13721830D01*
X48985714Y-13721830D02*
X49058285Y-13794402D01*
X49058285Y-13794402D02*
X49203428Y-13866973D01*
X49203428Y-13866973D02*
X49493714Y-13866973D01*
X49493714Y-13866973D02*
X49638857Y-13794402D01*
X49638857Y-13794402D02*
X49711428Y-13721830D01*
X49711428Y-13721830D02*
X49783999Y-13576687D01*
X49783999Y-13576687D02*
X49783999Y-13286402D01*
X49783999Y-13286402D02*
X49711428Y-13141259D01*
X49711428Y-13141259D02*
X49638857Y-13068687D01*
X49638857Y-13068687D02*
X49493714Y-12996116D01*
X50292000Y-13866973D02*
X51090286Y-12850973D01*
X50292000Y-12850973D02*
X51090286Y-13866973D01*
X51888571Y-12996116D02*
X51743428Y-12923544D01*
X51743428Y-12923544D02*
X51670857Y-12850973D01*
X51670857Y-12850973D02*
X51598285Y-12705830D01*
X51598285Y-12705830D02*
X51598285Y-12633259D01*
X51598285Y-12633259D02*
X51670857Y-12488116D01*
X51670857Y-12488116D02*
X51743428Y-12415544D01*
X51743428Y-12415544D02*
X51888571Y-12342973D01*
X51888571Y-12342973D02*
X52178857Y-12342973D01*
X52178857Y-12342973D02*
X52324000Y-12415544D01*
X52324000Y-12415544D02*
X52396571Y-12488116D01*
X52396571Y-12488116D02*
X52469142Y-12633259D01*
X52469142Y-12633259D02*
X52469142Y-12705830D01*
X52469142Y-12705830D02*
X52396571Y-12850973D01*
X52396571Y-12850973D02*
X52324000Y-12923544D01*
X52324000Y-12923544D02*
X52178857Y-12996116D01*
X52178857Y-12996116D02*
X51888571Y-12996116D01*
X51888571Y-12996116D02*
X51743428Y-13068687D01*
X51743428Y-13068687D02*
X51670857Y-13141259D01*
X51670857Y-13141259D02*
X51598285Y-13286402D01*
X51598285Y-13286402D02*
X51598285Y-13576687D01*
X51598285Y-13576687D02*
X51670857Y-13721830D01*
X51670857Y-13721830D02*
X51743428Y-13794402D01*
X51743428Y-13794402D02*
X51888571Y-13866973D01*
X51888571Y-13866973D02*
X52178857Y-13866973D01*
X52178857Y-13866973D02*
X52324000Y-13794402D01*
X52324000Y-13794402D02*
X52396571Y-13721830D01*
X52396571Y-13721830D02*
X52469142Y-13576687D01*
X52469142Y-13576687D02*
X52469142Y-13286402D01*
X52469142Y-13286402D02*
X52396571Y-13141259D01*
X52396571Y-13141259D02*
X52324000Y-13068687D01*
X52324000Y-13068687D02*
X52178857Y-12996116D01*
X54210857Y-13431544D02*
X54936572Y-13431544D01*
X54065714Y-13866973D02*
X54573714Y-12342973D01*
X54573714Y-12342973D02*
X55081714Y-13866973D01*
X56242858Y-12850973D02*
X56242858Y-13866973D01*
X55589715Y-12850973D02*
X55589715Y-13649259D01*
X55589715Y-13649259D02*
X55662286Y-13794402D01*
X55662286Y-13794402D02*
X55807429Y-13866973D01*
X55807429Y-13866973D02*
X56025143Y-13866973D01*
X56025143Y-13866973D02*
X56170286Y-13794402D01*
X56170286Y-13794402D02*
X56242858Y-13721830D01*
X57621715Y-13866973D02*
X57621715Y-12342973D01*
X57621715Y-13794402D02*
X57476572Y-13866973D01*
X57476572Y-13866973D02*
X57186286Y-13866973D01*
X57186286Y-13866973D02*
X57041143Y-13794402D01*
X57041143Y-13794402D02*
X56968572Y-13721830D01*
X56968572Y-13721830D02*
X56896000Y-13576687D01*
X56896000Y-13576687D02*
X56896000Y-13141259D01*
X56896000Y-13141259D02*
X56968572Y-12996116D01*
X56968572Y-12996116D02*
X57041143Y-12923544D01*
X57041143Y-12923544D02*
X57186286Y-12850973D01*
X57186286Y-12850973D02*
X57476572Y-12850973D01*
X57476572Y-12850973D02*
X57621715Y-12923544D01*
X58347429Y-13866973D02*
X58347429Y-12850973D01*
X58347429Y-12342973D02*
X58274857Y-12415544D01*
X58274857Y-12415544D02*
X58347429Y-12488116D01*
X58347429Y-12488116D02*
X58420000Y-12415544D01*
X58420000Y-12415544D02*
X58347429Y-12342973D01*
X58347429Y-12342973D02*
X58347429Y-12488116D01*
X59290857Y-13866973D02*
X59145714Y-13794402D01*
X59145714Y-13794402D02*
X59073143Y-13721830D01*
X59073143Y-13721830D02*
X59000571Y-13576687D01*
X59000571Y-13576687D02*
X59000571Y-13141259D01*
X59000571Y-13141259D02*
X59073143Y-12996116D01*
X59073143Y-12996116D02*
X59145714Y-12923544D01*
X59145714Y-12923544D02*
X59290857Y-12850973D01*
X59290857Y-12850973D02*
X59508571Y-12850973D01*
X59508571Y-12850973D02*
X59653714Y-12923544D01*
X59653714Y-12923544D02*
X59726286Y-12996116D01*
X59726286Y-12996116D02*
X59798857Y-13141259D01*
X59798857Y-13141259D02*
X59798857Y-13576687D01*
X59798857Y-13576687D02*
X59726286Y-13721830D01*
X59726286Y-13721830D02*
X59653714Y-13794402D01*
X59653714Y-13794402D02*
X59508571Y-13866973D01*
X59508571Y-13866973D02*
X59290857Y-13866973D01*
X45357142Y-14796528D02*
X46228000Y-14796528D01*
X45792571Y-16320528D02*
X45792571Y-14796528D01*
X47606857Y-16320528D02*
X47098857Y-15594814D01*
X46736000Y-16320528D02*
X46736000Y-14796528D01*
X46736000Y-14796528D02*
X47316571Y-14796528D01*
X47316571Y-14796528D02*
X47461714Y-14869099D01*
X47461714Y-14869099D02*
X47534285Y-14941671D01*
X47534285Y-14941671D02*
X47606857Y-15086814D01*
X47606857Y-15086814D02*
X47606857Y-15304528D01*
X47606857Y-15304528D02*
X47534285Y-15449671D01*
X47534285Y-15449671D02*
X47461714Y-15522242D01*
X47461714Y-15522242D02*
X47316571Y-15594814D01*
X47316571Y-15594814D02*
X46736000Y-15594814D01*
X48187428Y-16247957D02*
X48405143Y-16320528D01*
X48405143Y-16320528D02*
X48768000Y-16320528D01*
X48768000Y-16320528D02*
X48913143Y-16247957D01*
X48913143Y-16247957D02*
X48985714Y-16175385D01*
X48985714Y-16175385D02*
X49058285Y-16030242D01*
X49058285Y-16030242D02*
X49058285Y-15885099D01*
X49058285Y-15885099D02*
X48985714Y-15739957D01*
X48985714Y-15739957D02*
X48913143Y-15667385D01*
X48913143Y-15667385D02*
X48768000Y-15594814D01*
X48768000Y-15594814D02*
X48477714Y-15522242D01*
X48477714Y-15522242D02*
X48332571Y-15449671D01*
X48332571Y-15449671D02*
X48260000Y-15377099D01*
X48260000Y-15377099D02*
X48187428Y-15231957D01*
X48187428Y-15231957D02*
X48187428Y-15086814D01*
X48187428Y-15086814D02*
X48260000Y-14941671D01*
X48260000Y-14941671D02*
X48332571Y-14869099D01*
X48332571Y-14869099D02*
X48477714Y-14796528D01*
X48477714Y-14796528D02*
X48840571Y-14796528D01*
X48840571Y-14796528D02*
X49058285Y-14869099D01*
X50727429Y-14796528D02*
X51090286Y-16320528D01*
X51090286Y-16320528D02*
X51380572Y-15231957D01*
X51380572Y-15231957D02*
X51670857Y-16320528D01*
X51670857Y-16320528D02*
X52033715Y-14796528D01*
X52614286Y-16320528D02*
X52614286Y-15304528D01*
X52614286Y-14796528D02*
X52541714Y-14869099D01*
X52541714Y-14869099D02*
X52614286Y-14941671D01*
X52614286Y-14941671D02*
X52686857Y-14869099D01*
X52686857Y-14869099D02*
X52614286Y-14796528D01*
X52614286Y-14796528D02*
X52614286Y-14941671D01*
X53340000Y-15304528D02*
X53340000Y-16320528D01*
X53340000Y-15449671D02*
X53412571Y-15377099D01*
X53412571Y-15377099D02*
X53557714Y-15304528D01*
X53557714Y-15304528D02*
X53775428Y-15304528D01*
X53775428Y-15304528D02*
X53920571Y-15377099D01*
X53920571Y-15377099D02*
X53993143Y-15522242D01*
X53993143Y-15522242D02*
X53993143Y-16320528D01*
X55372000Y-15304528D02*
X55372000Y-16538242D01*
X55372000Y-16538242D02*
X55299428Y-16683385D01*
X55299428Y-16683385D02*
X55226857Y-16755957D01*
X55226857Y-16755957D02*
X55081714Y-16828528D01*
X55081714Y-16828528D02*
X54864000Y-16828528D01*
X54864000Y-16828528D02*
X54718857Y-16755957D01*
X55372000Y-16247957D02*
X55226857Y-16320528D01*
X55226857Y-16320528D02*
X54936571Y-16320528D01*
X54936571Y-16320528D02*
X54791428Y-16247957D01*
X54791428Y-16247957D02*
X54718857Y-16175385D01*
X54718857Y-16175385D02*
X54646285Y-16030242D01*
X54646285Y-16030242D02*
X54646285Y-15594814D01*
X54646285Y-15594814D02*
X54718857Y-15449671D01*
X54718857Y-15449671D02*
X54791428Y-15377099D01*
X54791428Y-15377099D02*
X54936571Y-15304528D01*
X54936571Y-15304528D02*
X55226857Y-15304528D01*
X55226857Y-15304528D02*
X55372000Y-15377099D01*
X57766857Y-15522242D02*
X57984571Y-15594814D01*
X57984571Y-15594814D02*
X58057142Y-15667385D01*
X58057142Y-15667385D02*
X58129714Y-15812528D01*
X58129714Y-15812528D02*
X58129714Y-16030242D01*
X58129714Y-16030242D02*
X58057142Y-16175385D01*
X58057142Y-16175385D02*
X57984571Y-16247957D01*
X57984571Y-16247957D02*
X57839428Y-16320528D01*
X57839428Y-16320528D02*
X57258857Y-16320528D01*
X57258857Y-16320528D02*
X57258857Y-14796528D01*
X57258857Y-14796528D02*
X57766857Y-14796528D01*
X57766857Y-14796528D02*
X57912000Y-14869099D01*
X57912000Y-14869099D02*
X57984571Y-14941671D01*
X57984571Y-14941671D02*
X58057142Y-15086814D01*
X58057142Y-15086814D02*
X58057142Y-15231957D01*
X58057142Y-15231957D02*
X57984571Y-15377099D01*
X57984571Y-15377099D02*
X57912000Y-15449671D01*
X57912000Y-15449671D02*
X57766857Y-15522242D01*
X57766857Y-15522242D02*
X57258857Y-15522242D01*
X59000571Y-16320528D02*
X58855428Y-16247957D01*
X58855428Y-16247957D02*
X58782857Y-16175385D01*
X58782857Y-16175385D02*
X58710285Y-16030242D01*
X58710285Y-16030242D02*
X58710285Y-15594814D01*
X58710285Y-15594814D02*
X58782857Y-15449671D01*
X58782857Y-15449671D02*
X58855428Y-15377099D01*
X58855428Y-15377099D02*
X59000571Y-15304528D01*
X59000571Y-15304528D02*
X59218285Y-15304528D01*
X59218285Y-15304528D02*
X59363428Y-15377099D01*
X59363428Y-15377099D02*
X59436000Y-15449671D01*
X59436000Y-15449671D02*
X59508571Y-15594814D01*
X59508571Y-15594814D02*
X59508571Y-16030242D01*
X59508571Y-16030242D02*
X59436000Y-16175385D01*
X59436000Y-16175385D02*
X59363428Y-16247957D01*
X59363428Y-16247957D02*
X59218285Y-16320528D01*
X59218285Y-16320528D02*
X59000571Y-16320528D01*
X60814857Y-16320528D02*
X60814857Y-15522242D01*
X60814857Y-15522242D02*
X60742285Y-15377099D01*
X60742285Y-15377099D02*
X60597142Y-15304528D01*
X60597142Y-15304528D02*
X60306857Y-15304528D01*
X60306857Y-15304528D02*
X60161714Y-15377099D01*
X60814857Y-16247957D02*
X60669714Y-16320528D01*
X60669714Y-16320528D02*
X60306857Y-16320528D01*
X60306857Y-16320528D02*
X60161714Y-16247957D01*
X60161714Y-16247957D02*
X60089142Y-16102814D01*
X60089142Y-16102814D02*
X60089142Y-15957671D01*
X60089142Y-15957671D02*
X60161714Y-15812528D01*
X60161714Y-15812528D02*
X60306857Y-15739957D01*
X60306857Y-15739957D02*
X60669714Y-15739957D01*
X60669714Y-15739957D02*
X60814857Y-15667385D01*
X61540571Y-16320528D02*
X61540571Y-15304528D01*
X61540571Y-15594814D02*
X61613142Y-15449671D01*
X61613142Y-15449671D02*
X61685714Y-15377099D01*
X61685714Y-15377099D02*
X61830856Y-15304528D01*
X61830856Y-15304528D02*
X61975999Y-15304528D01*
X63137143Y-16320528D02*
X63137143Y-14796528D01*
X63137143Y-16247957D02*
X62992000Y-16320528D01*
X62992000Y-16320528D02*
X62701714Y-16320528D01*
X62701714Y-16320528D02*
X62556571Y-16247957D01*
X62556571Y-16247957D02*
X62484000Y-16175385D01*
X62484000Y-16175385D02*
X62411428Y-16030242D01*
X62411428Y-16030242D02*
X62411428Y-15594814D01*
X62411428Y-15594814D02*
X62484000Y-15449671D01*
X62484000Y-15449671D02*
X62556571Y-15377099D01*
X62556571Y-15377099D02*
X62701714Y-15304528D01*
X62701714Y-15304528D02*
X62992000Y-15304528D01*
X62992000Y-15304528D02*
X63137143Y-15377099D01*
X48187428Y-17250083D02*
X49058286Y-17250083D01*
X48622857Y-18774083D02*
X48622857Y-17250083D01*
X49493714Y-18338654D02*
X50219429Y-18338654D01*
X49348571Y-18774083D02*
X49856571Y-17250083D01*
X49856571Y-17250083D02*
X50364571Y-18774083D01*
X50872572Y-18193512D02*
X52033715Y-18193512D01*
X52541714Y-17250083D02*
X53412572Y-17250083D01*
X52977143Y-18774083D02*
X52977143Y-17250083D01*
X53920572Y-18774083D02*
X53920572Y-17250083D01*
X54936571Y-17250083D02*
X55226857Y-17250083D01*
X55226857Y-17250083D02*
X55372000Y-17322654D01*
X55372000Y-17322654D02*
X55517143Y-17467797D01*
X55517143Y-17467797D02*
X55589714Y-17758083D01*
X55589714Y-17758083D02*
X55589714Y-18266083D01*
X55589714Y-18266083D02*
X55517143Y-18556369D01*
X55517143Y-18556369D02*
X55372000Y-18701512D01*
X55372000Y-18701512D02*
X55226857Y-18774083D01*
X55226857Y-18774083D02*
X54936571Y-18774083D01*
X54936571Y-18774083D02*
X54791429Y-18701512D01*
X54791429Y-18701512D02*
X54646286Y-18556369D01*
X54646286Y-18556369D02*
X54573714Y-18266083D01*
X54573714Y-18266083D02*
X54573714Y-17758083D01*
X54573714Y-17758083D02*
X54646286Y-17467797D01*
X54646286Y-17467797D02*
X54791429Y-17322654D01*
X54791429Y-17322654D02*
X54936571Y-17250083D01*
X56242857Y-18193512D02*
X57404000Y-18193512D01*
X58419999Y-17250083D02*
X58565142Y-17250083D01*
X58565142Y-17250083D02*
X58710285Y-17322654D01*
X58710285Y-17322654D02*
X58782857Y-17395226D01*
X58782857Y-17395226D02*
X58855428Y-17540369D01*
X58855428Y-17540369D02*
X58927999Y-17830654D01*
X58927999Y-17830654D02*
X58927999Y-18193512D01*
X58927999Y-18193512D02*
X58855428Y-18483797D01*
X58855428Y-18483797D02*
X58782857Y-18628940D01*
X58782857Y-18628940D02*
X58710285Y-18701512D01*
X58710285Y-18701512D02*
X58565142Y-18774083D01*
X58565142Y-18774083D02*
X58419999Y-18774083D01*
X58419999Y-18774083D02*
X58274857Y-18701512D01*
X58274857Y-18701512D02*
X58202285Y-18628940D01*
X58202285Y-18628940D02*
X58129714Y-18483797D01*
X58129714Y-18483797D02*
X58057142Y-18193512D01*
X58057142Y-18193512D02*
X58057142Y-17830654D01*
X58057142Y-17830654D02*
X58129714Y-17540369D01*
X58129714Y-17540369D02*
X58202285Y-17395226D01*
X58202285Y-17395226D02*
X58274857Y-17322654D01*
X58274857Y-17322654D02*
X58419999Y-17250083D01*
X59508571Y-17395226D02*
X59581143Y-17322654D01*
X59581143Y-17322654D02*
X59726286Y-17250083D01*
X59726286Y-17250083D02*
X60089143Y-17250083D01*
X60089143Y-17250083D02*
X60234286Y-17322654D01*
X60234286Y-17322654D02*
X60306857Y-17395226D01*
X60306857Y-17395226D02*
X60379428Y-17540369D01*
X60379428Y-17540369D02*
X60379428Y-17685512D01*
X60379428Y-17685512D02*
X60306857Y-17903226D01*
X60306857Y-17903226D02*
X59436000Y-18774083D01*
X59436000Y-18774083D02*
X60379428Y-18774083D01*
D10*
X81472314Y-20041230D02*
X81690028Y-20041230D01*
X81690028Y-20041230D02*
X81798885Y-20095659D01*
X81798885Y-20095659D02*
X81907742Y-20204516D01*
X81907742Y-20204516D02*
X81962171Y-20422230D01*
X81962171Y-20422230D02*
X81962171Y-20803230D01*
X81962171Y-20803230D02*
X81907742Y-21020944D01*
X81907742Y-21020944D02*
X81798885Y-21129802D01*
X81798885Y-21129802D02*
X81690028Y-21184230D01*
X81690028Y-21184230D02*
X81472314Y-21184230D01*
X81472314Y-21184230D02*
X81363457Y-21129802D01*
X81363457Y-21129802D02*
X81254599Y-21020944D01*
X81254599Y-21020944D02*
X81200171Y-20803230D01*
X81200171Y-20803230D02*
X81200171Y-20422230D01*
X81200171Y-20422230D02*
X81254599Y-20204516D01*
X81254599Y-20204516D02*
X81363457Y-20095659D01*
X81363457Y-20095659D02*
X81472314Y-20041230D01*
X82452028Y-20041230D02*
X82452028Y-20966516D01*
X82452028Y-20966516D02*
X82506457Y-21075373D01*
X82506457Y-21075373D02*
X82560886Y-21129802D01*
X82560886Y-21129802D02*
X82669743Y-21184230D01*
X82669743Y-21184230D02*
X82887457Y-21184230D01*
X82887457Y-21184230D02*
X82996314Y-21129802D01*
X82996314Y-21129802D02*
X83050743Y-21075373D01*
X83050743Y-21075373D02*
X83105171Y-20966516D01*
X83105171Y-20966516D02*
X83105171Y-20041230D01*
X83486172Y-20041230D02*
X84139315Y-20041230D01*
X83812743Y-21184230D02*
X83812743Y-20041230D01*
X85881029Y-20422230D02*
X85881029Y-21184230D01*
X85608886Y-19986802D02*
X85336743Y-20803230D01*
X85336743Y-20803230D02*
X86044314Y-20803230D01*
X88167028Y-19986802D02*
X87187314Y-21456373D01*
X89418885Y-21184230D02*
X89418885Y-20041230D01*
X89963171Y-21184230D02*
X89963171Y-20041230D01*
X89963171Y-20041230D02*
X90616314Y-21184230D01*
X90616314Y-21184230D02*
X90616314Y-20041230D01*
X93501029Y-21184230D02*
X92847886Y-21184230D01*
X93174457Y-21184230D02*
X93174457Y-20041230D01*
X93174457Y-20041230D02*
X93065600Y-20204516D01*
X93065600Y-20204516D02*
X92956743Y-20313373D01*
X92956743Y-20313373D02*
X92847886Y-20367802D01*
X36666714Y-20142830D02*
X36884428Y-20142830D01*
X36884428Y-20142830D02*
X36993285Y-20197259D01*
X36993285Y-20197259D02*
X37102142Y-20306116D01*
X37102142Y-20306116D02*
X37156571Y-20523830D01*
X37156571Y-20523830D02*
X37156571Y-20904830D01*
X37156571Y-20904830D02*
X37102142Y-21122544D01*
X37102142Y-21122544D02*
X36993285Y-21231402D01*
X36993285Y-21231402D02*
X36884428Y-21285830D01*
X36884428Y-21285830D02*
X36666714Y-21285830D01*
X36666714Y-21285830D02*
X36557857Y-21231402D01*
X36557857Y-21231402D02*
X36448999Y-21122544D01*
X36448999Y-21122544D02*
X36394571Y-20904830D01*
X36394571Y-20904830D02*
X36394571Y-20523830D01*
X36394571Y-20523830D02*
X36448999Y-20306116D01*
X36448999Y-20306116D02*
X36557857Y-20197259D01*
X36557857Y-20197259D02*
X36666714Y-20142830D01*
X37646428Y-20142830D02*
X37646428Y-21068116D01*
X37646428Y-21068116D02*
X37700857Y-21176973D01*
X37700857Y-21176973D02*
X37755286Y-21231402D01*
X37755286Y-21231402D02*
X37864143Y-21285830D01*
X37864143Y-21285830D02*
X38081857Y-21285830D01*
X38081857Y-21285830D02*
X38190714Y-21231402D01*
X38190714Y-21231402D02*
X38245143Y-21176973D01*
X38245143Y-21176973D02*
X38299571Y-21068116D01*
X38299571Y-21068116D02*
X38299571Y-20142830D01*
X38680572Y-20142830D02*
X39333715Y-20142830D01*
X39007143Y-21285830D02*
X39007143Y-20142830D01*
X40531143Y-20251687D02*
X40585571Y-20197259D01*
X40585571Y-20197259D02*
X40694429Y-20142830D01*
X40694429Y-20142830D02*
X40966571Y-20142830D01*
X40966571Y-20142830D02*
X41075429Y-20197259D01*
X41075429Y-20197259D02*
X41129857Y-20251687D01*
X41129857Y-20251687D02*
X41184286Y-20360544D01*
X41184286Y-20360544D02*
X41184286Y-20469402D01*
X41184286Y-20469402D02*
X41129857Y-20632687D01*
X41129857Y-20632687D02*
X40476714Y-21285830D01*
X40476714Y-21285830D02*
X41184286Y-21285830D01*
X43361428Y-20088402D02*
X42381714Y-21557973D01*
X44613285Y-21285830D02*
X44613285Y-20142830D01*
X45157571Y-21285830D02*
X45157571Y-20142830D01*
X45157571Y-20142830D02*
X45810714Y-21285830D01*
X45810714Y-21285830D02*
X45810714Y-20142830D01*
X47987857Y-20142830D02*
X48695429Y-20142830D01*
X48695429Y-20142830D02*
X48314429Y-20578259D01*
X48314429Y-20578259D02*
X48477714Y-20578259D01*
X48477714Y-20578259D02*
X48586572Y-20632687D01*
X48586572Y-20632687D02*
X48641000Y-20687116D01*
X48641000Y-20687116D02*
X48695429Y-20795973D01*
X48695429Y-20795973D02*
X48695429Y-21068116D01*
X48695429Y-21068116D02*
X48641000Y-21176973D01*
X48641000Y-21176973D02*
X48586572Y-21231402D01*
X48586572Y-21231402D02*
X48477714Y-21285830D01*
X48477714Y-21285830D02*
X48151143Y-21285830D01*
X48151143Y-21285830D02*
X48042286Y-21231402D01*
X48042286Y-21231402D02*
X47987857Y-21176973D01*
D12*
X52444953Y-2415126D02*
X52396572Y-2463507D01*
X52396572Y-2463507D02*
X52251429Y-2511887D01*
X52251429Y-2511887D02*
X52154667Y-2511887D01*
X52154667Y-2511887D02*
X52009524Y-2463507D01*
X52009524Y-2463507D02*
X51912762Y-2366745D01*
X51912762Y-2366745D02*
X51864381Y-2269983D01*
X51864381Y-2269983D02*
X51816000Y-2076459D01*
X51816000Y-2076459D02*
X51816000Y-1931316D01*
X51816000Y-1931316D02*
X51864381Y-1737792D01*
X51864381Y-1737792D02*
X51912762Y-1641030D01*
X51912762Y-1641030D02*
X52009524Y-1544268D01*
X52009524Y-1544268D02*
X52154667Y-1495887D01*
X52154667Y-1495887D02*
X52251429Y-1495887D01*
X52251429Y-1495887D02*
X52396572Y-1544268D01*
X52396572Y-1544268D02*
X52444953Y-1592649D01*
X53315810Y-2511887D02*
X53315810Y-1979697D01*
X53315810Y-1979697D02*
X53267429Y-1882935D01*
X53267429Y-1882935D02*
X53170667Y-1834554D01*
X53170667Y-1834554D02*
X52977143Y-1834554D01*
X52977143Y-1834554D02*
X52880381Y-1882935D01*
X53315810Y-2463507D02*
X53219048Y-2511887D01*
X53219048Y-2511887D02*
X52977143Y-2511887D01*
X52977143Y-2511887D02*
X52880381Y-2463507D01*
X52880381Y-2463507D02*
X52832000Y-2366745D01*
X52832000Y-2366745D02*
X52832000Y-2269983D01*
X52832000Y-2269983D02*
X52880381Y-2173221D01*
X52880381Y-2173221D02*
X52977143Y-2124840D01*
X52977143Y-2124840D02*
X53219048Y-2124840D01*
X53219048Y-2124840D02*
X53315810Y-2076459D01*
X53799619Y-1834554D02*
X53799619Y-2850554D01*
X53799619Y-1882935D02*
X53896381Y-1834554D01*
X53896381Y-1834554D02*
X54089905Y-1834554D01*
X54089905Y-1834554D02*
X54186667Y-1882935D01*
X54186667Y-1882935D02*
X54235048Y-1931316D01*
X54235048Y-1931316D02*
X54283429Y-2028078D01*
X54283429Y-2028078D02*
X54283429Y-2318364D01*
X54283429Y-2318364D02*
X54235048Y-2415126D01*
X54235048Y-2415126D02*
X54186667Y-2463507D01*
X54186667Y-2463507D02*
X54089905Y-2511887D01*
X54089905Y-2511887D02*
X53896381Y-2511887D01*
X53896381Y-2511887D02*
X53799619Y-2463507D01*
X54670476Y-2463507D02*
X54767238Y-2511887D01*
X54767238Y-2511887D02*
X54960762Y-2511887D01*
X54960762Y-2511887D02*
X55057524Y-2463507D01*
X55057524Y-2463507D02*
X55105905Y-2366745D01*
X55105905Y-2366745D02*
X55105905Y-2318364D01*
X55105905Y-2318364D02*
X55057524Y-2221602D01*
X55057524Y-2221602D02*
X54960762Y-2173221D01*
X54960762Y-2173221D02*
X54815619Y-2173221D01*
X54815619Y-2173221D02*
X54718857Y-2124840D01*
X54718857Y-2124840D02*
X54670476Y-2028078D01*
X54670476Y-2028078D02*
X54670476Y-1979697D01*
X54670476Y-1979697D02*
X54718857Y-1882935D01*
X54718857Y-1882935D02*
X54815619Y-1834554D01*
X54815619Y-1834554D02*
X54960762Y-1834554D01*
X54960762Y-1834554D02*
X55057524Y-1882935D01*
X48671239Y-3131590D02*
X48864763Y-3131590D01*
X48864763Y-3131590D02*
X48961525Y-3179971D01*
X48961525Y-3179971D02*
X49058287Y-3276733D01*
X49058287Y-3276733D02*
X49106668Y-3470257D01*
X49106668Y-3470257D02*
X49106668Y-3808924D01*
X49106668Y-3808924D02*
X49058287Y-4002448D01*
X49058287Y-4002448D02*
X48961525Y-4099210D01*
X48961525Y-4099210D02*
X48864763Y-4147590D01*
X48864763Y-4147590D02*
X48671239Y-4147590D01*
X48671239Y-4147590D02*
X48574477Y-4099210D01*
X48574477Y-4099210D02*
X48477715Y-4002448D01*
X48477715Y-4002448D02*
X48429334Y-3808924D01*
X48429334Y-3808924D02*
X48429334Y-3470257D01*
X48429334Y-3470257D02*
X48477715Y-3276733D01*
X48477715Y-3276733D02*
X48574477Y-3179971D01*
X48574477Y-3179971D02*
X48671239Y-3131590D01*
X49977525Y-3470257D02*
X49977525Y-4147590D01*
X49542096Y-3470257D02*
X49542096Y-4002448D01*
X49542096Y-4002448D02*
X49590477Y-4099210D01*
X49590477Y-4099210D02*
X49687239Y-4147590D01*
X49687239Y-4147590D02*
X49832382Y-4147590D01*
X49832382Y-4147590D02*
X49929144Y-4099210D01*
X49929144Y-4099210D02*
X49977525Y-4050829D01*
X50316191Y-3470257D02*
X50703239Y-3470257D01*
X50461334Y-3131590D02*
X50461334Y-4002448D01*
X50461334Y-4002448D02*
X50509715Y-4099210D01*
X50509715Y-4099210D02*
X50606477Y-4147590D01*
X50606477Y-4147590D02*
X50703239Y-4147590D01*
X51041905Y-3470257D02*
X51041905Y-4486257D01*
X51041905Y-3518638D02*
X51138667Y-3470257D01*
X51138667Y-3470257D02*
X51332191Y-3470257D01*
X51332191Y-3470257D02*
X51428953Y-3518638D01*
X51428953Y-3518638D02*
X51477334Y-3567019D01*
X51477334Y-3567019D02*
X51525715Y-3663781D01*
X51525715Y-3663781D02*
X51525715Y-3954067D01*
X51525715Y-3954067D02*
X51477334Y-4050829D01*
X51477334Y-4050829D02*
X51428953Y-4099210D01*
X51428953Y-4099210D02*
X51332191Y-4147590D01*
X51332191Y-4147590D02*
X51138667Y-4147590D01*
X51138667Y-4147590D02*
X51041905Y-4099210D01*
X52396572Y-3470257D02*
X52396572Y-4147590D01*
X51961143Y-3470257D02*
X51961143Y-4002448D01*
X51961143Y-4002448D02*
X52009524Y-4099210D01*
X52009524Y-4099210D02*
X52106286Y-4147590D01*
X52106286Y-4147590D02*
X52251429Y-4147590D01*
X52251429Y-4147590D02*
X52348191Y-4099210D01*
X52348191Y-4099210D02*
X52396572Y-4050829D01*
X52735238Y-3470257D02*
X53122286Y-3470257D01*
X52880381Y-3131590D02*
X52880381Y-4002448D01*
X52880381Y-4002448D02*
X52928762Y-4099210D01*
X52928762Y-4099210D02*
X53025524Y-4147590D01*
X53025524Y-4147590D02*
X53122286Y-4147590D01*
X54767238Y-4147590D02*
X54186666Y-4147590D01*
X54476952Y-4147590D02*
X54476952Y-3131590D01*
X54476952Y-3131590D02*
X54380190Y-3276733D01*
X54380190Y-3276733D02*
X54283428Y-3373495D01*
X54283428Y-3373495D02*
X54186666Y-3421876D01*
X55396190Y-3131590D02*
X55492952Y-3131590D01*
X55492952Y-3131590D02*
X55589714Y-3179971D01*
X55589714Y-3179971D02*
X55638095Y-3228352D01*
X55638095Y-3228352D02*
X55686476Y-3325114D01*
X55686476Y-3325114D02*
X55734857Y-3518638D01*
X55734857Y-3518638D02*
X55734857Y-3760543D01*
X55734857Y-3760543D02*
X55686476Y-3954067D01*
X55686476Y-3954067D02*
X55638095Y-4050829D01*
X55638095Y-4050829D02*
X55589714Y-4099210D01*
X55589714Y-4099210D02*
X55492952Y-4147590D01*
X55492952Y-4147590D02*
X55396190Y-4147590D01*
X55396190Y-4147590D02*
X55299428Y-4099210D01*
X55299428Y-4099210D02*
X55251047Y-4050829D01*
X55251047Y-4050829D02*
X55202666Y-3954067D01*
X55202666Y-3954067D02*
X55154285Y-3760543D01*
X55154285Y-3760543D02*
X55154285Y-3518638D01*
X55154285Y-3518638D02*
X55202666Y-3325114D01*
X55202666Y-3325114D02*
X55251047Y-3228352D01*
X55251047Y-3228352D02*
X55299428Y-3179971D01*
X55299428Y-3179971D02*
X55396190Y-3131590D01*
X56363809Y-3131590D02*
X56460571Y-3131590D01*
X56460571Y-3131590D02*
X56557333Y-3179971D01*
X56557333Y-3179971D02*
X56605714Y-3228352D01*
X56605714Y-3228352D02*
X56654095Y-3325114D01*
X56654095Y-3325114D02*
X56702476Y-3518638D01*
X56702476Y-3518638D02*
X56702476Y-3760543D01*
X56702476Y-3760543D02*
X56654095Y-3954067D01*
X56654095Y-3954067D02*
X56605714Y-4050829D01*
X56605714Y-4050829D02*
X56557333Y-4099210D01*
X56557333Y-4099210D02*
X56460571Y-4147590D01*
X56460571Y-4147590D02*
X56363809Y-4147590D01*
X56363809Y-4147590D02*
X56267047Y-4099210D01*
X56267047Y-4099210D02*
X56218666Y-4050829D01*
X56218666Y-4050829D02*
X56170285Y-3954067D01*
X56170285Y-3954067D02*
X56121904Y-3760543D01*
X56121904Y-3760543D02*
X56121904Y-3518638D01*
X56121904Y-3518638D02*
X56170285Y-3325114D01*
X56170285Y-3325114D02*
X56218666Y-3228352D01*
X56218666Y-3228352D02*
X56267047Y-3179971D01*
X56267047Y-3179971D02*
X56363809Y-3131590D01*
X57573333Y-3470257D02*
X57573333Y-4147590D01*
X57137904Y-3470257D02*
X57137904Y-4002448D01*
X57137904Y-4002448D02*
X57186285Y-4099210D01*
X57186285Y-4099210D02*
X57283047Y-4147590D01*
X57283047Y-4147590D02*
X57428190Y-4147590D01*
X57428190Y-4147590D02*
X57524952Y-4099210D01*
X57524952Y-4099210D02*
X57573333Y-4050829D01*
X58395809Y-3615400D02*
X58057142Y-3615400D01*
X58057142Y-4147590D02*
X58057142Y-3131590D01*
X58057142Y-3131590D02*
X58540952Y-3131590D01*
X49929143Y-5783293D02*
X49929143Y-4767293D01*
X50412953Y-5105960D02*
X50412953Y-5783293D01*
X50412953Y-5202722D02*
X50461334Y-5154341D01*
X50461334Y-5154341D02*
X50558096Y-5105960D01*
X50558096Y-5105960D02*
X50703239Y-5105960D01*
X50703239Y-5105960D02*
X50800001Y-5154341D01*
X50800001Y-5154341D02*
X50848382Y-5251103D01*
X50848382Y-5251103D02*
X50848382Y-5783293D01*
X51332191Y-5105960D02*
X51332191Y-6121960D01*
X51332191Y-5154341D02*
X51428953Y-5105960D01*
X51428953Y-5105960D02*
X51622477Y-5105960D01*
X51622477Y-5105960D02*
X51719239Y-5154341D01*
X51719239Y-5154341D02*
X51767620Y-5202722D01*
X51767620Y-5202722D02*
X51816001Y-5299484D01*
X51816001Y-5299484D02*
X51816001Y-5589770D01*
X51816001Y-5589770D02*
X51767620Y-5686532D01*
X51767620Y-5686532D02*
X51719239Y-5734913D01*
X51719239Y-5734913D02*
X51622477Y-5783293D01*
X51622477Y-5783293D02*
X51428953Y-5783293D01*
X51428953Y-5783293D02*
X51332191Y-5734913D01*
X52686858Y-5105960D02*
X52686858Y-5783293D01*
X52251429Y-5105960D02*
X52251429Y-5638151D01*
X52251429Y-5638151D02*
X52299810Y-5734913D01*
X52299810Y-5734913D02*
X52396572Y-5783293D01*
X52396572Y-5783293D02*
X52541715Y-5783293D01*
X52541715Y-5783293D02*
X52638477Y-5734913D01*
X52638477Y-5734913D02*
X52686858Y-5686532D01*
X53025524Y-5105960D02*
X53412572Y-5105960D01*
X53170667Y-4767293D02*
X53170667Y-5638151D01*
X53170667Y-5638151D02*
X53219048Y-5734913D01*
X53219048Y-5734913D02*
X53315810Y-5783293D01*
X53315810Y-5783293D02*
X53412572Y-5783293D01*
X55057524Y-5783293D02*
X54476952Y-5783293D01*
X54767238Y-5783293D02*
X54767238Y-4767293D01*
X54767238Y-4767293D02*
X54670476Y-4912436D01*
X54670476Y-4912436D02*
X54573714Y-5009198D01*
X54573714Y-5009198D02*
X54476952Y-5057579D01*
X55686476Y-4767293D02*
X55783238Y-4767293D01*
X55783238Y-4767293D02*
X55880000Y-4815674D01*
X55880000Y-4815674D02*
X55928381Y-4864055D01*
X55928381Y-4864055D02*
X55976762Y-4960817D01*
X55976762Y-4960817D02*
X56025143Y-5154341D01*
X56025143Y-5154341D02*
X56025143Y-5396246D01*
X56025143Y-5396246D02*
X55976762Y-5589770D01*
X55976762Y-5589770D02*
X55928381Y-5686532D01*
X55928381Y-5686532D02*
X55880000Y-5734913D01*
X55880000Y-5734913D02*
X55783238Y-5783293D01*
X55783238Y-5783293D02*
X55686476Y-5783293D01*
X55686476Y-5783293D02*
X55589714Y-5734913D01*
X55589714Y-5734913D02*
X55541333Y-5686532D01*
X55541333Y-5686532D02*
X55492952Y-5589770D01*
X55492952Y-5589770D02*
X55444571Y-5396246D01*
X55444571Y-5396246D02*
X55444571Y-5154341D01*
X55444571Y-5154341D02*
X55492952Y-4960817D01*
X55492952Y-4960817D02*
X55541333Y-4864055D01*
X55541333Y-4864055D02*
X55589714Y-4815674D01*
X55589714Y-4815674D02*
X55686476Y-4767293D01*
X56896000Y-5105960D02*
X56896000Y-5783293D01*
X56460571Y-5105960D02*
X56460571Y-5638151D01*
X56460571Y-5638151D02*
X56508952Y-5734913D01*
X56508952Y-5734913D02*
X56605714Y-5783293D01*
X56605714Y-5783293D02*
X56750857Y-5783293D01*
X56750857Y-5783293D02*
X56847619Y-5734913D01*
X56847619Y-5734913D02*
X56896000Y-5686532D01*
X57718476Y-5251103D02*
X57379809Y-5251103D01*
X57379809Y-5783293D02*
X57379809Y-4767293D01*
X57379809Y-4767293D02*
X57863619Y-4767293D01*
D13*
X82210133Y-1897559D02*
X82162514Y-1945179D01*
X82162514Y-1945179D02*
X82019657Y-1992798D01*
X82019657Y-1992798D02*
X81924419Y-1992798D01*
X81924419Y-1992798D02*
X81781562Y-1945179D01*
X81781562Y-1945179D02*
X81686324Y-1849940D01*
X81686324Y-1849940D02*
X81638705Y-1754702D01*
X81638705Y-1754702D02*
X81591086Y-1564226D01*
X81591086Y-1564226D02*
X81591086Y-1421369D01*
X81591086Y-1421369D02*
X81638705Y-1230893D01*
X81638705Y-1230893D02*
X81686324Y-1135655D01*
X81686324Y-1135655D02*
X81781562Y-1040417D01*
X81781562Y-1040417D02*
X81924419Y-992798D01*
X81924419Y-992798D02*
X82019657Y-992798D01*
X82019657Y-992798D02*
X82162514Y-1040417D01*
X82162514Y-1040417D02*
X82210133Y-1088036D01*
X83067276Y-992798D02*
X82876800Y-992798D01*
X82876800Y-992798D02*
X82781562Y-1040417D01*
X82781562Y-1040417D02*
X82733943Y-1088036D01*
X82733943Y-1088036D02*
X82638705Y-1230893D01*
X82638705Y-1230893D02*
X82591086Y-1421369D01*
X82591086Y-1421369D02*
X82591086Y-1802321D01*
X82591086Y-1802321D02*
X82638705Y-1897559D01*
X82638705Y-1897559D02*
X82686324Y-1945179D01*
X82686324Y-1945179D02*
X82781562Y-1992798D01*
X82781562Y-1992798D02*
X82972038Y-1992798D01*
X82972038Y-1992798D02*
X83067276Y-1945179D01*
X83067276Y-1945179D02*
X83114895Y-1897559D01*
X83114895Y-1897559D02*
X83162514Y-1802321D01*
X83162514Y-1802321D02*
X83162514Y-1564226D01*
X83162514Y-1564226D02*
X83114895Y-1468988D01*
X83114895Y-1468988D02*
X83067276Y-1421369D01*
X83067276Y-1421369D02*
X82972038Y-1373750D01*
X82972038Y-1373750D02*
X82781562Y-1373750D01*
X82781562Y-1373750D02*
X82686324Y-1421369D01*
X82686324Y-1421369D02*
X82638705Y-1468988D01*
X82638705Y-1468988D02*
X82591086Y-1564226D01*
X79868733Y-9751219D02*
X79535400Y-9275028D01*
X79297305Y-9751219D02*
X79297305Y-8751219D01*
X79297305Y-8751219D02*
X79678257Y-8751219D01*
X79678257Y-8751219D02*
X79773495Y-8798838D01*
X79773495Y-8798838D02*
X79821114Y-8846457D01*
X79821114Y-8846457D02*
X79868733Y-8941695D01*
X79868733Y-8941695D02*
X79868733Y-9084552D01*
X79868733Y-9084552D02*
X79821114Y-9179790D01*
X79821114Y-9179790D02*
X79773495Y-9227409D01*
X79773495Y-9227409D02*
X79678257Y-9275028D01*
X79678257Y-9275028D02*
X79297305Y-9275028D01*
X80725876Y-8751219D02*
X80535400Y-8751219D01*
X80535400Y-8751219D02*
X80440162Y-8798838D01*
X80440162Y-8798838D02*
X80392543Y-8846457D01*
X80392543Y-8846457D02*
X80297305Y-8989314D01*
X80297305Y-8989314D02*
X80249686Y-9179790D01*
X80249686Y-9179790D02*
X80249686Y-9560742D01*
X80249686Y-9560742D02*
X80297305Y-9655980D01*
X80297305Y-9655980D02*
X80344924Y-9703600D01*
X80344924Y-9703600D02*
X80440162Y-9751219D01*
X80440162Y-9751219D02*
X80630638Y-9751219D01*
X80630638Y-9751219D02*
X80725876Y-9703600D01*
X80725876Y-9703600D02*
X80773495Y-9655980D01*
X80773495Y-9655980D02*
X80821114Y-9560742D01*
X80821114Y-9560742D02*
X80821114Y-9322647D01*
X80821114Y-9322647D02*
X80773495Y-9227409D01*
X80773495Y-9227409D02*
X80725876Y-9179790D01*
X80725876Y-9179790D02*
X80630638Y-9132171D01*
X80630638Y-9132171D02*
X80440162Y-9132171D01*
X80440162Y-9132171D02*
X80344924Y-9179790D01*
X80344924Y-9179790D02*
X80297305Y-9227409D01*
X80297305Y-9227409D02*
X80249686Y-9322647D01*
X37609542Y-13815219D02*
X37276209Y-13339028D01*
X37038114Y-13815219D02*
X37038114Y-12815219D01*
X37038114Y-12815219D02*
X37419066Y-12815219D01*
X37419066Y-12815219D02*
X37514304Y-12862838D01*
X37514304Y-12862838D02*
X37561923Y-12910457D01*
X37561923Y-12910457D02*
X37609542Y-13005695D01*
X37609542Y-13005695D02*
X37609542Y-13148552D01*
X37609542Y-13148552D02*
X37561923Y-13243790D01*
X37561923Y-13243790D02*
X37514304Y-13291409D01*
X37514304Y-13291409D02*
X37419066Y-13339028D01*
X37419066Y-13339028D02*
X37038114Y-13339028D01*
X38561923Y-13815219D02*
X37990495Y-13815219D01*
X38276209Y-13815219D02*
X38276209Y-12815219D01*
X38276209Y-12815219D02*
X38180971Y-12958076D01*
X38180971Y-12958076D02*
X38085733Y-13053314D01*
X38085733Y-13053314D02*
X37990495Y-13100933D01*
X38942876Y-12910457D02*
X38990495Y-12862838D01*
X38990495Y-12862838D02*
X39085733Y-12815219D01*
X39085733Y-12815219D02*
X39323828Y-12815219D01*
X39323828Y-12815219D02*
X39419066Y-12862838D01*
X39419066Y-12862838D02*
X39466685Y-12910457D01*
X39466685Y-12910457D02*
X39514304Y-13005695D01*
X39514304Y-13005695D02*
X39514304Y-13100933D01*
X39514304Y-13100933D02*
X39466685Y-13243790D01*
X39466685Y-13243790D02*
X38895257Y-13815219D01*
X38895257Y-13815219D02*
X39514304Y-13815219D01*
X39406533Y-9355219D02*
X39073200Y-8879028D01*
X38835105Y-9355219D02*
X38835105Y-8355219D01*
X38835105Y-8355219D02*
X39216057Y-8355219D01*
X39216057Y-8355219D02*
X39311295Y-8402838D01*
X39311295Y-8402838D02*
X39358914Y-8450457D01*
X39358914Y-8450457D02*
X39406533Y-8545695D01*
X39406533Y-8545695D02*
X39406533Y-8688552D01*
X39406533Y-8688552D02*
X39358914Y-8783790D01*
X39358914Y-8783790D02*
X39311295Y-8831409D01*
X39311295Y-8831409D02*
X39216057Y-8879028D01*
X39216057Y-8879028D02*
X38835105Y-8879028D01*
X40263676Y-8688552D02*
X40263676Y-9355219D01*
X40025581Y-8307600D02*
X39787486Y-9021885D01*
X39787486Y-9021885D02*
X40406533Y-9021885D01*
X73434533Y-1897559D02*
X73386914Y-1945179D01*
X73386914Y-1945179D02*
X73244057Y-1992798D01*
X73244057Y-1992798D02*
X73148819Y-1992798D01*
X73148819Y-1992798D02*
X73005962Y-1945179D01*
X73005962Y-1945179D02*
X72910724Y-1849940D01*
X72910724Y-1849940D02*
X72863105Y-1754702D01*
X72863105Y-1754702D02*
X72815486Y-1564226D01*
X72815486Y-1564226D02*
X72815486Y-1421369D01*
X72815486Y-1421369D02*
X72863105Y-1230893D01*
X72863105Y-1230893D02*
X72910724Y-1135655D01*
X72910724Y-1135655D02*
X73005962Y-1040417D01*
X73005962Y-1040417D02*
X73148819Y-992798D01*
X73148819Y-992798D02*
X73244057Y-992798D01*
X73244057Y-992798D02*
X73386914Y-1040417D01*
X73386914Y-1040417D02*
X73434533Y-1088036D01*
X74339295Y-992798D02*
X73863105Y-992798D01*
X73863105Y-992798D02*
X73815486Y-1468988D01*
X73815486Y-1468988D02*
X73863105Y-1421369D01*
X73863105Y-1421369D02*
X73958343Y-1373750D01*
X73958343Y-1373750D02*
X74196438Y-1373750D01*
X74196438Y-1373750D02*
X74291676Y-1421369D01*
X74291676Y-1421369D02*
X74339295Y-1468988D01*
X74339295Y-1468988D02*
X74386914Y-1564226D01*
X74386914Y-1564226D02*
X74386914Y-1802321D01*
X74386914Y-1802321D02*
X74339295Y-1897559D01*
X74339295Y-1897559D02*
X74291676Y-1945179D01*
X74291676Y-1945179D02*
X74196438Y-1992798D01*
X74196438Y-1992798D02*
X73958343Y-1992798D01*
X73958343Y-1992798D02*
X73863105Y-1945179D01*
X73863105Y-1945179D02*
X73815486Y-1897559D01*
X88683333Y-9700419D02*
X88350000Y-9224228D01*
X88111905Y-9700419D02*
X88111905Y-8700419D01*
X88111905Y-8700419D02*
X88492857Y-8700419D01*
X88492857Y-8700419D02*
X88588095Y-8748038D01*
X88588095Y-8748038D02*
X88635714Y-8795657D01*
X88635714Y-8795657D02*
X88683333Y-8890895D01*
X88683333Y-8890895D02*
X88683333Y-9033752D01*
X88683333Y-9033752D02*
X88635714Y-9128990D01*
X88635714Y-9128990D02*
X88588095Y-9176609D01*
X88588095Y-9176609D02*
X88492857Y-9224228D01*
X88492857Y-9224228D02*
X88111905Y-9224228D01*
X89016667Y-8700419D02*
X89683333Y-8700419D01*
X89683333Y-8700419D02*
X89254762Y-9700419D01*
X90934933Y-1795959D02*
X90887314Y-1843579D01*
X90887314Y-1843579D02*
X90744457Y-1891198D01*
X90744457Y-1891198D02*
X90649219Y-1891198D01*
X90649219Y-1891198D02*
X90506362Y-1843579D01*
X90506362Y-1843579D02*
X90411124Y-1748340D01*
X90411124Y-1748340D02*
X90363505Y-1653102D01*
X90363505Y-1653102D02*
X90315886Y-1462626D01*
X90315886Y-1462626D02*
X90315886Y-1319769D01*
X90315886Y-1319769D02*
X90363505Y-1129293D01*
X90363505Y-1129293D02*
X90411124Y-1034055D01*
X90411124Y-1034055D02*
X90506362Y-938817D01*
X90506362Y-938817D02*
X90649219Y-891198D01*
X90649219Y-891198D02*
X90744457Y-891198D01*
X90744457Y-891198D02*
X90887314Y-938817D01*
X90887314Y-938817D02*
X90934933Y-986436D01*
X91268267Y-891198D02*
X91934933Y-891198D01*
X91934933Y-891198D02*
X91506362Y-1891198D01*
X95826342Y-13993019D02*
X95493009Y-13516828D01*
X95254914Y-13993019D02*
X95254914Y-12993019D01*
X95254914Y-12993019D02*
X95635866Y-12993019D01*
X95635866Y-12993019D02*
X95731104Y-13040638D01*
X95731104Y-13040638D02*
X95778723Y-13088257D01*
X95778723Y-13088257D02*
X95826342Y-13183495D01*
X95826342Y-13183495D02*
X95826342Y-13326352D01*
X95826342Y-13326352D02*
X95778723Y-13421590D01*
X95778723Y-13421590D02*
X95731104Y-13469209D01*
X95731104Y-13469209D02*
X95635866Y-13516828D01*
X95635866Y-13516828D02*
X95254914Y-13516828D01*
X96778723Y-13993019D02*
X96207295Y-13993019D01*
X96493009Y-13993019D02*
X96493009Y-12993019D01*
X96493009Y-12993019D02*
X96397771Y-13135876D01*
X96397771Y-13135876D02*
X96302533Y-13231114D01*
X96302533Y-13231114D02*
X96207295Y-13278733D01*
X97635866Y-12993019D02*
X97445390Y-12993019D01*
X97445390Y-12993019D02*
X97350152Y-13040638D01*
X97350152Y-13040638D02*
X97302533Y-13088257D01*
X97302533Y-13088257D02*
X97207295Y-13231114D01*
X97207295Y-13231114D02*
X97159676Y-13421590D01*
X97159676Y-13421590D02*
X97159676Y-13802542D01*
X97159676Y-13802542D02*
X97207295Y-13897780D01*
X97207295Y-13897780D02*
X97254914Y-13945400D01*
X97254914Y-13945400D02*
X97350152Y-13993019D01*
X97350152Y-13993019D02*
X97540628Y-13993019D01*
X97540628Y-13993019D02*
X97635866Y-13945400D01*
X97635866Y-13945400D02*
X97683485Y-13897780D01*
X97683485Y-13897780D02*
X97731104Y-13802542D01*
X97731104Y-13802542D02*
X97731104Y-13564447D01*
X97731104Y-13564447D02*
X97683485Y-13469209D01*
X97683485Y-13469209D02*
X97635866Y-13421590D01*
X97635866Y-13421590D02*
X97540628Y-13373971D01*
X97540628Y-13373971D02*
X97350152Y-13373971D01*
X97350152Y-13373971D02*
X97254914Y-13421590D01*
X97254914Y-13421590D02*
X97207295Y-13469209D01*
X97207295Y-13469209D02*
X97159676Y-13564447D01*
X28897342Y-13866019D02*
X28564009Y-13389828D01*
X28325914Y-13866019D02*
X28325914Y-12866019D01*
X28325914Y-12866019D02*
X28706866Y-12866019D01*
X28706866Y-12866019D02*
X28802104Y-12913638D01*
X28802104Y-12913638D02*
X28849723Y-12961257D01*
X28849723Y-12961257D02*
X28897342Y-13056495D01*
X28897342Y-13056495D02*
X28897342Y-13199352D01*
X28897342Y-13199352D02*
X28849723Y-13294590D01*
X28849723Y-13294590D02*
X28802104Y-13342209D01*
X28802104Y-13342209D02*
X28706866Y-13389828D01*
X28706866Y-13389828D02*
X28325914Y-13389828D01*
X29849723Y-13866019D02*
X29278295Y-13866019D01*
X29564009Y-13866019D02*
X29564009Y-12866019D01*
X29564009Y-12866019D02*
X29468771Y-13008876D01*
X29468771Y-13008876D02*
X29373533Y-13104114D01*
X29373533Y-13104114D02*
X29278295Y-13151733D01*
X30802104Y-13866019D02*
X30230676Y-13866019D01*
X30516390Y-13866019D02*
X30516390Y-12866019D01*
X30516390Y-12866019D02*
X30421152Y-13008876D01*
X30421152Y-13008876D02*
X30325914Y-13104114D01*
X30325914Y-13104114D02*
X30230676Y-13151733D01*
X71308933Y-9675019D02*
X70975600Y-9198828D01*
X70737505Y-9675019D02*
X70737505Y-8675019D01*
X70737505Y-8675019D02*
X71118457Y-8675019D01*
X71118457Y-8675019D02*
X71213695Y-8722638D01*
X71213695Y-8722638D02*
X71261314Y-8770257D01*
X71261314Y-8770257D02*
X71308933Y-8865495D01*
X71308933Y-8865495D02*
X71308933Y-9008352D01*
X71308933Y-9008352D02*
X71261314Y-9103590D01*
X71261314Y-9103590D02*
X71213695Y-9151209D01*
X71213695Y-9151209D02*
X71118457Y-9198828D01*
X71118457Y-9198828D02*
X70737505Y-9198828D01*
X72213695Y-8675019D02*
X71737505Y-8675019D01*
X71737505Y-8675019D02*
X71689886Y-9151209D01*
X71689886Y-9151209D02*
X71737505Y-9103590D01*
X71737505Y-9103590D02*
X71832743Y-9055971D01*
X71832743Y-9055971D02*
X72070838Y-9055971D01*
X72070838Y-9055971D02*
X72166076Y-9103590D01*
X72166076Y-9103590D02*
X72213695Y-9151209D01*
X72213695Y-9151209D02*
X72261314Y-9246447D01*
X72261314Y-9246447D02*
X72261314Y-9484542D01*
X72261314Y-9484542D02*
X72213695Y-9579780D01*
X72213695Y-9579780D02*
X72166076Y-9627400D01*
X72166076Y-9627400D02*
X72070838Y-9675019D01*
X72070838Y-9675019D02*
X71832743Y-9675019D01*
X71832743Y-9675019D02*
X71737505Y-9627400D01*
X71737505Y-9627400D02*
X71689886Y-9579780D01*
X41687133Y-1922959D02*
X41639514Y-1970579D01*
X41639514Y-1970579D02*
X41496657Y-2018198D01*
X41496657Y-2018198D02*
X41401419Y-2018198D01*
X41401419Y-2018198D02*
X41258562Y-1970579D01*
X41258562Y-1970579D02*
X41163324Y-1875340D01*
X41163324Y-1875340D02*
X41115705Y-1780102D01*
X41115705Y-1780102D02*
X41068086Y-1589626D01*
X41068086Y-1589626D02*
X41068086Y-1446769D01*
X41068086Y-1446769D02*
X41115705Y-1256293D01*
X41115705Y-1256293D02*
X41163324Y-1161055D01*
X41163324Y-1161055D02*
X41258562Y-1065817D01*
X41258562Y-1065817D02*
X41401419Y-1018198D01*
X41401419Y-1018198D02*
X41496657Y-1018198D01*
X41496657Y-1018198D02*
X41639514Y-1065817D01*
X41639514Y-1065817D02*
X41687133Y-1113436D01*
X42544276Y-1351531D02*
X42544276Y-2018198D01*
X42306181Y-970579D02*
X42068086Y-1684864D01*
X42068086Y-1684864D02*
X42687133Y-1684864D01*
X33218533Y-2024559D02*
X33170914Y-2072179D01*
X33170914Y-2072179D02*
X33028057Y-2119798D01*
X33028057Y-2119798D02*
X32932819Y-2119798D01*
X32932819Y-2119798D02*
X32789962Y-2072179D01*
X32789962Y-2072179D02*
X32694724Y-1976940D01*
X32694724Y-1976940D02*
X32647105Y-1881702D01*
X32647105Y-1881702D02*
X32599486Y-1691226D01*
X32599486Y-1691226D02*
X32599486Y-1548369D01*
X32599486Y-1548369D02*
X32647105Y-1357893D01*
X32647105Y-1357893D02*
X32694724Y-1262655D01*
X32694724Y-1262655D02*
X32789962Y-1167417D01*
X32789962Y-1167417D02*
X32932819Y-1119798D01*
X32932819Y-1119798D02*
X33028057Y-1119798D01*
X33028057Y-1119798D02*
X33170914Y-1167417D01*
X33170914Y-1167417D02*
X33218533Y-1215036D01*
X33551867Y-1119798D02*
X34170914Y-1119798D01*
X34170914Y-1119798D02*
X33837581Y-1500750D01*
X33837581Y-1500750D02*
X33980438Y-1500750D01*
X33980438Y-1500750D02*
X34075676Y-1548369D01*
X34075676Y-1548369D02*
X34123295Y-1595988D01*
X34123295Y-1595988D02*
X34170914Y-1691226D01*
X34170914Y-1691226D02*
X34170914Y-1929321D01*
X34170914Y-1929321D02*
X34123295Y-2024559D01*
X34123295Y-2024559D02*
X34075676Y-2072179D01*
X34075676Y-2072179D02*
X33980438Y-2119798D01*
X33980438Y-2119798D02*
X33694724Y-2119798D01*
X33694724Y-2119798D02*
X33599486Y-2072179D01*
X33599486Y-2072179D02*
X33551867Y-2024559D01*
X12533333Y-14145419D02*
X12200000Y-13669228D01*
X11961905Y-14145419D02*
X11961905Y-13145419D01*
X11961905Y-13145419D02*
X12342857Y-13145419D01*
X12342857Y-13145419D02*
X12438095Y-13193038D01*
X12438095Y-13193038D02*
X12485714Y-13240657D01*
X12485714Y-13240657D02*
X12533333Y-13335895D01*
X12533333Y-13335895D02*
X12533333Y-13478752D01*
X12533333Y-13478752D02*
X12485714Y-13573990D01*
X12485714Y-13573990D02*
X12438095Y-13621609D01*
X12438095Y-13621609D02*
X12342857Y-13669228D01*
X12342857Y-13669228D02*
X11961905Y-13669228D01*
X13009524Y-14145419D02*
X13200000Y-14145419D01*
X13200000Y-14145419D02*
X13295238Y-14097800D01*
X13295238Y-14097800D02*
X13342857Y-14050180D01*
X13342857Y-14050180D02*
X13438095Y-13907323D01*
X13438095Y-13907323D02*
X13485714Y-13716847D01*
X13485714Y-13716847D02*
X13485714Y-13335895D01*
X13485714Y-13335895D02*
X13438095Y-13240657D01*
X13438095Y-13240657D02*
X13390476Y-13193038D01*
X13390476Y-13193038D02*
X13295238Y-13145419D01*
X13295238Y-13145419D02*
X13104762Y-13145419D01*
X13104762Y-13145419D02*
X13009524Y-13193038D01*
X13009524Y-13193038D02*
X12961905Y-13240657D01*
X12961905Y-13240657D02*
X12914286Y-13335895D01*
X12914286Y-13335895D02*
X12914286Y-13573990D01*
X12914286Y-13573990D02*
X12961905Y-13669228D01*
X12961905Y-13669228D02*
X13009524Y-13716847D01*
X13009524Y-13716847D02*
X13104762Y-13764466D01*
X13104762Y-13764466D02*
X13295238Y-13764466D01*
X13295238Y-13764466D02*
X13390476Y-13716847D01*
X13390476Y-13716847D02*
X13438095Y-13669228D01*
X13438095Y-13669228D02*
X13485714Y-13573990D01*
X13650933Y-9558419D02*
X13317600Y-9082228D01*
X13079505Y-9558419D02*
X13079505Y-8558419D01*
X13079505Y-8558419D02*
X13460457Y-8558419D01*
X13460457Y-8558419D02*
X13555695Y-8606038D01*
X13555695Y-8606038D02*
X13603314Y-8653657D01*
X13603314Y-8653657D02*
X13650933Y-8748895D01*
X13650933Y-8748895D02*
X13650933Y-8891752D01*
X13650933Y-8891752D02*
X13603314Y-8986990D01*
X13603314Y-8986990D02*
X13555695Y-9034609D01*
X13555695Y-9034609D02*
X13460457Y-9082228D01*
X13460457Y-9082228D02*
X13079505Y-9082228D01*
X14603314Y-9558419D02*
X14031886Y-9558419D01*
X14317600Y-9558419D02*
X14317600Y-8558419D01*
X14317600Y-8558419D02*
X14222362Y-8701276D01*
X14222362Y-8701276D02*
X14127124Y-8796514D01*
X14127124Y-8796514D02*
X14031886Y-8844133D01*
X7926533Y-10684752D02*
X7926533Y-11351419D01*
X7688438Y-10303800D02*
X7450343Y-11018085D01*
X7450343Y-11018085D02*
X8069390Y-11018085D01*
X8355105Y-10351419D02*
X9021771Y-10351419D01*
X9021771Y-10351419D02*
X8593200Y-11351419D01*
X9593200Y-10351419D02*
X9688438Y-10351419D01*
X9688438Y-10351419D02*
X9783676Y-10399038D01*
X9783676Y-10399038D02*
X9831295Y-10446657D01*
X9831295Y-10446657D02*
X9878914Y-10541895D01*
X9878914Y-10541895D02*
X9926533Y-10732371D01*
X9926533Y-10732371D02*
X9926533Y-10970466D01*
X9926533Y-10970466D02*
X9878914Y-11160942D01*
X9878914Y-11160942D02*
X9831295Y-11256180D01*
X9831295Y-11256180D02*
X9783676Y-11303800D01*
X9783676Y-11303800D02*
X9688438Y-11351419D01*
X9688438Y-11351419D02*
X9593200Y-11351419D01*
X9593200Y-11351419D02*
X9497962Y-11303800D01*
X9497962Y-11303800D02*
X9450343Y-11256180D01*
X9450343Y-11256180D02*
X9402724Y-11160942D01*
X9402724Y-11160942D02*
X9355105Y-10970466D01*
X9355105Y-10970466D02*
X9355105Y-10732371D01*
X9355105Y-10732371D02*
X9402724Y-10541895D01*
X9402724Y-10541895D02*
X9450343Y-10446657D01*
X9450343Y-10446657D02*
X9497962Y-10399038D01*
X9497962Y-10399038D02*
X9593200Y-10351419D01*
X10355105Y-11351419D02*
X10355105Y-10351419D01*
X10450343Y-10970466D02*
X10736057Y-11351419D01*
X10736057Y-10684752D02*
X10355105Y-11065704D01*
X69562742Y-13891419D02*
X69229409Y-13415228D01*
X68991314Y-13891419D02*
X68991314Y-12891419D01*
X68991314Y-12891419D02*
X69372266Y-12891419D01*
X69372266Y-12891419D02*
X69467504Y-12939038D01*
X69467504Y-12939038D02*
X69515123Y-12986657D01*
X69515123Y-12986657D02*
X69562742Y-13081895D01*
X69562742Y-13081895D02*
X69562742Y-13224752D01*
X69562742Y-13224752D02*
X69515123Y-13319990D01*
X69515123Y-13319990D02*
X69467504Y-13367609D01*
X69467504Y-13367609D02*
X69372266Y-13415228D01*
X69372266Y-13415228D02*
X68991314Y-13415228D01*
X70515123Y-13891419D02*
X69943695Y-13891419D01*
X70229409Y-13891419D02*
X70229409Y-12891419D01*
X70229409Y-12891419D02*
X70134171Y-13034276D01*
X70134171Y-13034276D02*
X70038933Y-13129514D01*
X70038933Y-13129514D02*
X69943695Y-13177133D01*
X70848457Y-12891419D02*
X71467504Y-12891419D01*
X71467504Y-12891419D02*
X71134171Y-13272371D01*
X71134171Y-13272371D02*
X71277028Y-13272371D01*
X71277028Y-13272371D02*
X71372266Y-13319990D01*
X71372266Y-13319990D02*
X71419885Y-13367609D01*
X71419885Y-13367609D02*
X71467504Y-13462847D01*
X71467504Y-13462847D02*
X71467504Y-13700942D01*
X71467504Y-13700942D02*
X71419885Y-13796180D01*
X71419885Y-13796180D02*
X71372266Y-13843800D01*
X71372266Y-13843800D02*
X71277028Y-13891419D01*
X71277028Y-13891419D02*
X70991314Y-13891419D01*
X70991314Y-13891419D02*
X70896076Y-13843800D01*
X70896076Y-13843800D02*
X70848457Y-13796180D01*
X99761333Y-1745159D02*
X99713714Y-1792779D01*
X99713714Y-1792779D02*
X99570857Y-1840398D01*
X99570857Y-1840398D02*
X99475619Y-1840398D01*
X99475619Y-1840398D02*
X99332762Y-1792779D01*
X99332762Y-1792779D02*
X99237524Y-1697540D01*
X99237524Y-1697540D02*
X99189905Y-1602302D01*
X99189905Y-1602302D02*
X99142286Y-1411826D01*
X99142286Y-1411826D02*
X99142286Y-1268969D01*
X99142286Y-1268969D02*
X99189905Y-1078493D01*
X99189905Y-1078493D02*
X99237524Y-983255D01*
X99237524Y-983255D02*
X99332762Y-888017D01*
X99332762Y-888017D02*
X99475619Y-840398D01*
X99475619Y-840398D02*
X99570857Y-840398D01*
X99570857Y-840398D02*
X99713714Y-888017D01*
X99713714Y-888017D02*
X99761333Y-935636D01*
X100332762Y-1268969D02*
X100237524Y-1221350D01*
X100237524Y-1221350D02*
X100189905Y-1173731D01*
X100189905Y-1173731D02*
X100142286Y-1078493D01*
X100142286Y-1078493D02*
X100142286Y-1030874D01*
X100142286Y-1030874D02*
X100189905Y-935636D01*
X100189905Y-935636D02*
X100237524Y-888017D01*
X100237524Y-888017D02*
X100332762Y-840398D01*
X100332762Y-840398D02*
X100523238Y-840398D01*
X100523238Y-840398D02*
X100618476Y-888017D01*
X100618476Y-888017D02*
X100666095Y-935636D01*
X100666095Y-935636D02*
X100713714Y-1030874D01*
X100713714Y-1030874D02*
X100713714Y-1078493D01*
X100713714Y-1078493D02*
X100666095Y-1173731D01*
X100666095Y-1173731D02*
X100618476Y-1221350D01*
X100618476Y-1221350D02*
X100523238Y-1268969D01*
X100523238Y-1268969D02*
X100332762Y-1268969D01*
X100332762Y-1268969D02*
X100237524Y-1316588D01*
X100237524Y-1316588D02*
X100189905Y-1364207D01*
X100189905Y-1364207D02*
X100142286Y-1459445D01*
X100142286Y-1459445D02*
X100142286Y-1649921D01*
X100142286Y-1649921D02*
X100189905Y-1745159D01*
X100189905Y-1745159D02*
X100237524Y-1792779D01*
X100237524Y-1792779D02*
X100332762Y-1840398D01*
X100332762Y-1840398D02*
X100523238Y-1840398D01*
X100523238Y-1840398D02*
X100618476Y-1792779D01*
X100618476Y-1792779D02*
X100666095Y-1745159D01*
X100666095Y-1745159D02*
X100713714Y-1649921D01*
X100713714Y-1649921D02*
X100713714Y-1459445D01*
X100713714Y-1459445D02*
X100666095Y-1364207D01*
X100666095Y-1364207D02*
X100618476Y-1316588D01*
X100618476Y-1316588D02*
X100523238Y-1268969D01*
X78147942Y-13943019D02*
X77814609Y-13466828D01*
X77576514Y-13943019D02*
X77576514Y-12943019D01*
X77576514Y-12943019D02*
X77957466Y-12943019D01*
X77957466Y-12943019D02*
X78052704Y-12990638D01*
X78052704Y-12990638D02*
X78100323Y-13038257D01*
X78100323Y-13038257D02*
X78147942Y-13133495D01*
X78147942Y-13133495D02*
X78147942Y-13276352D01*
X78147942Y-13276352D02*
X78100323Y-13371590D01*
X78100323Y-13371590D02*
X78052704Y-13419209D01*
X78052704Y-13419209D02*
X77957466Y-13466828D01*
X77957466Y-13466828D02*
X77576514Y-13466828D01*
X79100323Y-13943019D02*
X78528895Y-13943019D01*
X78814609Y-13943019D02*
X78814609Y-12943019D01*
X78814609Y-12943019D02*
X78719371Y-13085876D01*
X78719371Y-13085876D02*
X78624133Y-13181114D01*
X78624133Y-13181114D02*
X78528895Y-13228733D01*
X79957466Y-13276352D02*
X79957466Y-13943019D01*
X79719371Y-12895400D02*
X79481276Y-13609685D01*
X79481276Y-13609685D02*
X80100323Y-13609685D01*
X97573333Y-9776619D02*
X97240000Y-9300428D01*
X97001905Y-9776619D02*
X97001905Y-8776619D01*
X97001905Y-8776619D02*
X97382857Y-8776619D01*
X97382857Y-8776619D02*
X97478095Y-8824238D01*
X97478095Y-8824238D02*
X97525714Y-8871857D01*
X97525714Y-8871857D02*
X97573333Y-8967095D01*
X97573333Y-8967095D02*
X97573333Y-9109952D01*
X97573333Y-9109952D02*
X97525714Y-9205190D01*
X97525714Y-9205190D02*
X97478095Y-9252809D01*
X97478095Y-9252809D02*
X97382857Y-9300428D01*
X97382857Y-9300428D02*
X97001905Y-9300428D01*
X98144762Y-9205190D02*
X98049524Y-9157571D01*
X98049524Y-9157571D02*
X98001905Y-9109952D01*
X98001905Y-9109952D02*
X97954286Y-9014714D01*
X97954286Y-9014714D02*
X97954286Y-8967095D01*
X97954286Y-8967095D02*
X98001905Y-8871857D01*
X98001905Y-8871857D02*
X98049524Y-8824238D01*
X98049524Y-8824238D02*
X98144762Y-8776619D01*
X98144762Y-8776619D02*
X98335238Y-8776619D01*
X98335238Y-8776619D02*
X98430476Y-8824238D01*
X98430476Y-8824238D02*
X98478095Y-8871857D01*
X98478095Y-8871857D02*
X98525714Y-8967095D01*
X98525714Y-8967095D02*
X98525714Y-9014714D01*
X98525714Y-9014714D02*
X98478095Y-9109952D01*
X98478095Y-9109952D02*
X98430476Y-9157571D01*
X98430476Y-9157571D02*
X98335238Y-9205190D01*
X98335238Y-9205190D02*
X98144762Y-9205190D01*
X98144762Y-9205190D02*
X98049524Y-9252809D01*
X98049524Y-9252809D02*
X98001905Y-9300428D01*
X98001905Y-9300428D02*
X97954286Y-9395666D01*
X97954286Y-9395666D02*
X97954286Y-9586142D01*
X97954286Y-9586142D02*
X98001905Y-9681380D01*
X98001905Y-9681380D02*
X98049524Y-9729000D01*
X98049524Y-9729000D02*
X98144762Y-9776619D01*
X98144762Y-9776619D02*
X98335238Y-9776619D01*
X98335238Y-9776619D02*
X98430476Y-9729000D01*
X98430476Y-9729000D02*
X98478095Y-9681380D01*
X98478095Y-9681380D02*
X98525714Y-9586142D01*
X98525714Y-9586142D02*
X98525714Y-9395666D01*
X98525714Y-9395666D02*
X98478095Y-9300428D01*
X98478095Y-9300428D02*
X98430476Y-9252809D01*
X98430476Y-9252809D02*
X98335238Y-9205190D01*
X20489942Y-14018419D02*
X20156609Y-13542228D01*
X19918514Y-14018419D02*
X19918514Y-13018419D01*
X19918514Y-13018419D02*
X20299466Y-13018419D01*
X20299466Y-13018419D02*
X20394704Y-13066038D01*
X20394704Y-13066038D02*
X20442323Y-13113657D01*
X20442323Y-13113657D02*
X20489942Y-13208895D01*
X20489942Y-13208895D02*
X20489942Y-13351752D01*
X20489942Y-13351752D02*
X20442323Y-13446990D01*
X20442323Y-13446990D02*
X20394704Y-13494609D01*
X20394704Y-13494609D02*
X20299466Y-13542228D01*
X20299466Y-13542228D02*
X19918514Y-13542228D01*
X21442323Y-14018419D02*
X20870895Y-14018419D01*
X21156609Y-14018419D02*
X21156609Y-13018419D01*
X21156609Y-13018419D02*
X21061371Y-13161276D01*
X21061371Y-13161276D02*
X20966133Y-13256514D01*
X20966133Y-13256514D02*
X20870895Y-13304133D01*
X22061371Y-13018419D02*
X22156609Y-13018419D01*
X22156609Y-13018419D02*
X22251847Y-13066038D01*
X22251847Y-13066038D02*
X22299466Y-13113657D01*
X22299466Y-13113657D02*
X22347085Y-13208895D01*
X22347085Y-13208895D02*
X22394704Y-13399371D01*
X22394704Y-13399371D02*
X22394704Y-13637466D01*
X22394704Y-13637466D02*
X22347085Y-13827942D01*
X22347085Y-13827942D02*
X22299466Y-13923180D01*
X22299466Y-13923180D02*
X22251847Y-13970800D01*
X22251847Y-13970800D02*
X22156609Y-14018419D01*
X22156609Y-14018419D02*
X22061371Y-14018419D01*
X22061371Y-14018419D02*
X21966133Y-13970800D01*
X21966133Y-13970800D02*
X21918514Y-13923180D01*
X21918514Y-13923180D02*
X21870895Y-13827942D01*
X21870895Y-13827942D02*
X21823276Y-13637466D01*
X21823276Y-13637466D02*
X21823276Y-13399371D01*
X21823276Y-13399371D02*
X21870895Y-13208895D01*
X21870895Y-13208895D02*
X21918514Y-13113657D01*
X21918514Y-13113657D02*
X21966133Y-13066038D01*
X21966133Y-13066038D02*
X22061371Y-13018419D01*
X8883685Y-16221952D02*
X8883685Y-16888619D01*
X8645590Y-15841000D02*
X8407495Y-16555285D01*
X8407495Y-16555285D02*
X9026542Y-16555285D01*
X9312257Y-15888619D02*
X9978923Y-15888619D01*
X9978923Y-15888619D02*
X9550352Y-16888619D01*
X30846733Y-9355219D02*
X30513400Y-8879028D01*
X30275305Y-9355219D02*
X30275305Y-8355219D01*
X30275305Y-8355219D02*
X30656257Y-8355219D01*
X30656257Y-8355219D02*
X30751495Y-8402838D01*
X30751495Y-8402838D02*
X30799114Y-8450457D01*
X30799114Y-8450457D02*
X30846733Y-8545695D01*
X30846733Y-8545695D02*
X30846733Y-8688552D01*
X30846733Y-8688552D02*
X30799114Y-8783790D01*
X30799114Y-8783790D02*
X30751495Y-8831409D01*
X30751495Y-8831409D02*
X30656257Y-8879028D01*
X30656257Y-8879028D02*
X30275305Y-8879028D01*
X31180067Y-8355219D02*
X31799114Y-8355219D01*
X31799114Y-8355219D02*
X31465781Y-8736171D01*
X31465781Y-8736171D02*
X31608638Y-8736171D01*
X31608638Y-8736171D02*
X31703876Y-8783790D01*
X31703876Y-8783790D02*
X31751495Y-8831409D01*
X31751495Y-8831409D02*
X31799114Y-8926647D01*
X31799114Y-8926647D02*
X31799114Y-9164742D01*
X31799114Y-9164742D02*
X31751495Y-9259980D01*
X31751495Y-9259980D02*
X31703876Y-9307600D01*
X31703876Y-9307600D02*
X31608638Y-9355219D01*
X31608638Y-9355219D02*
X31322924Y-9355219D01*
X31322924Y-9355219D02*
X31227686Y-9307600D01*
X31227686Y-9307600D02*
X31180067Y-9259980D01*
X24416600Y-1999159D02*
X24368981Y-2046779D01*
X24368981Y-2046779D02*
X24226124Y-2094398D01*
X24226124Y-2094398D02*
X24130886Y-2094398D01*
X24130886Y-2094398D02*
X23988029Y-2046779D01*
X23988029Y-2046779D02*
X23892791Y-1951540D01*
X23892791Y-1951540D02*
X23845172Y-1856302D01*
X23845172Y-1856302D02*
X23797553Y-1665826D01*
X23797553Y-1665826D02*
X23797553Y-1522969D01*
X23797553Y-1522969D02*
X23845172Y-1332493D01*
X23845172Y-1332493D02*
X23892791Y-1237255D01*
X23892791Y-1237255D02*
X23988029Y-1142017D01*
X23988029Y-1142017D02*
X24130886Y-1094398D01*
X24130886Y-1094398D02*
X24226124Y-1094398D01*
X24226124Y-1094398D02*
X24368981Y-1142017D01*
X24368981Y-1142017D02*
X24416600Y-1189636D01*
X24797553Y-1189636D02*
X24845172Y-1142017D01*
X24845172Y-1142017D02*
X24940410Y-1094398D01*
X24940410Y-1094398D02*
X25178505Y-1094398D01*
X25178505Y-1094398D02*
X25273743Y-1142017D01*
X25273743Y-1142017D02*
X25321362Y-1189636D01*
X25321362Y-1189636D02*
X25368981Y-1284874D01*
X25368981Y-1284874D02*
X25368981Y-1380112D01*
X25368981Y-1380112D02*
X25321362Y-1522969D01*
X25321362Y-1522969D02*
X24749934Y-2094398D01*
X24749934Y-2094398D02*
X25368981Y-2094398D01*
X16001933Y-1846759D02*
X15954314Y-1894379D01*
X15954314Y-1894379D02*
X15811457Y-1941998D01*
X15811457Y-1941998D02*
X15716219Y-1941998D01*
X15716219Y-1941998D02*
X15573362Y-1894379D01*
X15573362Y-1894379D02*
X15478124Y-1799140D01*
X15478124Y-1799140D02*
X15430505Y-1703902D01*
X15430505Y-1703902D02*
X15382886Y-1513426D01*
X15382886Y-1513426D02*
X15382886Y-1370569D01*
X15382886Y-1370569D02*
X15430505Y-1180093D01*
X15430505Y-1180093D02*
X15478124Y-1084855D01*
X15478124Y-1084855D02*
X15573362Y-989617D01*
X15573362Y-989617D02*
X15716219Y-941998D01*
X15716219Y-941998D02*
X15811457Y-941998D01*
X15811457Y-941998D02*
X15954314Y-989617D01*
X15954314Y-989617D02*
X16001933Y-1037236D01*
X16954314Y-1941998D02*
X16382886Y-1941998D01*
X16668600Y-1941998D02*
X16668600Y-941998D01*
X16668600Y-941998D02*
X16573362Y-1084855D01*
X16573362Y-1084855D02*
X16478124Y-1180093D01*
X16478124Y-1180093D02*
X16382886Y-1227712D01*
X87037942Y-13967619D02*
X86704609Y-13491428D01*
X86466514Y-13967619D02*
X86466514Y-12967619D01*
X86466514Y-12967619D02*
X86847466Y-12967619D01*
X86847466Y-12967619D02*
X86942704Y-13015238D01*
X86942704Y-13015238D02*
X86990323Y-13062857D01*
X86990323Y-13062857D02*
X87037942Y-13158095D01*
X87037942Y-13158095D02*
X87037942Y-13300952D01*
X87037942Y-13300952D02*
X86990323Y-13396190D01*
X86990323Y-13396190D02*
X86942704Y-13443809D01*
X86942704Y-13443809D02*
X86847466Y-13491428D01*
X86847466Y-13491428D02*
X86466514Y-13491428D01*
X87990323Y-13967619D02*
X87418895Y-13967619D01*
X87704609Y-13967619D02*
X87704609Y-12967619D01*
X87704609Y-12967619D02*
X87609371Y-13110476D01*
X87609371Y-13110476D02*
X87514133Y-13205714D01*
X87514133Y-13205714D02*
X87418895Y-13253333D01*
X88895085Y-12967619D02*
X88418895Y-12967619D01*
X88418895Y-12967619D02*
X88371276Y-13443809D01*
X88371276Y-13443809D02*
X88418895Y-13396190D01*
X88418895Y-13396190D02*
X88514133Y-13348571D01*
X88514133Y-13348571D02*
X88752228Y-13348571D01*
X88752228Y-13348571D02*
X88847466Y-13396190D01*
X88847466Y-13396190D02*
X88895085Y-13443809D01*
X88895085Y-13443809D02*
X88942704Y-13539047D01*
X88942704Y-13539047D02*
X88942704Y-13777142D01*
X88942704Y-13777142D02*
X88895085Y-13872380D01*
X88895085Y-13872380D02*
X88847466Y-13920000D01*
X88847466Y-13920000D02*
X88752228Y-13967619D01*
X88752228Y-13967619D02*
X88514133Y-13967619D01*
X88514133Y-13967619D02*
X88418895Y-13920000D01*
X88418895Y-13920000D02*
X88371276Y-13872380D01*
X22134533Y-9456819D02*
X21801200Y-8980628D01*
X21563105Y-9456819D02*
X21563105Y-8456819D01*
X21563105Y-8456819D02*
X21944057Y-8456819D01*
X21944057Y-8456819D02*
X22039295Y-8504438D01*
X22039295Y-8504438D02*
X22086914Y-8552057D01*
X22086914Y-8552057D02*
X22134533Y-8647295D01*
X22134533Y-8647295D02*
X22134533Y-8790152D01*
X22134533Y-8790152D02*
X22086914Y-8885390D01*
X22086914Y-8885390D02*
X22039295Y-8933009D01*
X22039295Y-8933009D02*
X21944057Y-8980628D01*
X21944057Y-8980628D02*
X21563105Y-8980628D01*
X22515486Y-8552057D02*
X22563105Y-8504438D01*
X22563105Y-8504438D02*
X22658343Y-8456819D01*
X22658343Y-8456819D02*
X22896438Y-8456819D01*
X22896438Y-8456819D02*
X22991676Y-8504438D01*
X22991676Y-8504438D02*
X23039295Y-8552057D01*
X23039295Y-8552057D02*
X23086914Y-8647295D01*
X23086914Y-8647295D02*
X23086914Y-8742533D01*
X23086914Y-8742533D02*
X23039295Y-8885390D01*
X23039295Y-8885390D02*
X22467867Y-9456819D01*
X22467867Y-9456819D02*
X23086914Y-9456819D01*
D14*
%TO.C,C6*%
X77835467Y-4588800D02*
X75653467Y-4588800D01*
X77835467Y-4628800D02*
X75657467Y-4628800D01*
X77835467Y-4668800D02*
X75660467Y-4668800D01*
X77835467Y-4708800D02*
X75664467Y-4708800D01*
X77835467Y-4748800D02*
X75669467Y-4748800D01*
X77835467Y-4788800D02*
X75674467Y-4788800D01*
X77835467Y-4828800D02*
X75680467Y-4828800D01*
X77835467Y-4868800D02*
X75686467Y-4868800D01*
X77835467Y-4908800D02*
X75693467Y-4908800D01*
X77835467Y-4948800D02*
X75700467Y-4948800D01*
X77835467Y-4988800D02*
X75708467Y-4988800D01*
X77835467Y-5028800D02*
X75716467Y-5028800D01*
X77835467Y-5069800D02*
X75725467Y-5069800D01*
X77835467Y-5109800D02*
X75734467Y-5109800D01*
X77835467Y-5149800D02*
X75744467Y-5149800D01*
X77835467Y-5189800D02*
X75754467Y-5189800D01*
X77835467Y-5229800D02*
X75765467Y-5229800D01*
X77835467Y-5269800D02*
X75777467Y-5269800D01*
X77835467Y-5309800D02*
X75789467Y-5309800D01*
X77835467Y-5349800D02*
X75801467Y-5349800D01*
X77835467Y-5389800D02*
X75814467Y-5389800D01*
X77835467Y-5429800D02*
X75828467Y-5429800D01*
X77835467Y-5469800D02*
X75842467Y-5469800D01*
X77835467Y-5509800D02*
X75857467Y-5509800D01*
X77835467Y-5549800D02*
X75873467Y-5549800D01*
X77835467Y-5589800D02*
X75889467Y-5589800D01*
X77835467Y-5629800D02*
X75905467Y-5629800D01*
X77835467Y-5669800D02*
X75923467Y-5669800D01*
X77835467Y-5709800D02*
X75941467Y-5709800D01*
X77835467Y-5749800D02*
X75959467Y-5749800D01*
X77835467Y-5789800D02*
X75979467Y-5789800D01*
X77835467Y-5829800D02*
X75999467Y-5829800D01*
X77835467Y-5869800D02*
X76019467Y-5869800D01*
X77835467Y-5909800D02*
X76041467Y-5909800D01*
X77835467Y-5949800D02*
X76063467Y-5949800D01*
X77835467Y-5989800D02*
X76085467Y-5989800D01*
X77835467Y-6029800D02*
X76109467Y-6029800D01*
X77835467Y-6069800D02*
X76133467Y-6069800D01*
X77835467Y-6109800D02*
X76159467Y-6109800D01*
X77835467Y-6149800D02*
X76185467Y-6149800D01*
X77835467Y-6189800D02*
X76211467Y-6189800D01*
X77835467Y-6229800D02*
X76239467Y-6229800D01*
X77835467Y-6269800D02*
X76268467Y-6269800D01*
X77835467Y-6309800D02*
X76297467Y-6309800D01*
X77835467Y-6349800D02*
X76327467Y-6349800D01*
X77835467Y-6389800D02*
X76359467Y-6389800D01*
X77835467Y-6429800D02*
X76391467Y-6429800D01*
X77835467Y-6469800D02*
X76425467Y-6469800D01*
X77835467Y-6509800D02*
X76459467Y-6509800D01*
X77835467Y-6549800D02*
X76495467Y-6549800D01*
X77835467Y-6589800D02*
X76532467Y-6589800D01*
X77835467Y-6629800D02*
X76570467Y-6629800D01*
X79277467Y-7589800D02*
X78473467Y-7589800D01*
X79508467Y-7549800D02*
X78242467Y-7549800D01*
X79677467Y-7509800D02*
X78073467Y-7509800D01*
X79815467Y-7469800D02*
X77935467Y-7469800D01*
X79934467Y-7429800D02*
X77816467Y-7429800D01*
X80040467Y-7389800D02*
X77710467Y-7389800D01*
X80137467Y-7349800D02*
X77613467Y-7349800D01*
X80225467Y-7309800D02*
X77525467Y-7309800D01*
X80307467Y-7269800D02*
X77443467Y-7269800D01*
X80384467Y-7229800D02*
X77366467Y-7229800D01*
X80456467Y-7189800D02*
X77294467Y-7189800D01*
X80525467Y-7149800D02*
X77225467Y-7149800D01*
X80589467Y-7109800D02*
X77161467Y-7109800D01*
X80651467Y-7069800D02*
X77099467Y-7069800D01*
X80709467Y-7029800D02*
X77041467Y-7029800D01*
X80714467Y-848559D02*
X80714467Y-1478559D01*
X80765467Y-6989800D02*
X76985467Y-6989800D01*
X80819467Y-6949800D02*
X76931467Y-6949800D01*
X80870467Y-6909800D02*
X76880467Y-6909800D01*
X80919467Y-6869800D02*
X76831467Y-6869800D01*
X80967467Y-6829800D02*
X76783467Y-6829800D01*
X81012467Y-6789800D02*
X76738467Y-6789800D01*
X81029467Y-1163559D02*
X80399467Y-1163559D01*
X81057467Y-6749800D02*
X76693467Y-6749800D01*
X81099467Y-6709800D02*
X76651467Y-6709800D01*
X81140467Y-6669800D02*
X76610467Y-6669800D01*
X81180467Y-6629800D02*
X79915467Y-6629800D01*
X81218467Y-6589800D02*
X79915467Y-6589800D01*
X81255467Y-6549800D02*
X79915467Y-6549800D01*
X81291467Y-6509800D02*
X79915467Y-6509800D01*
X81325467Y-6469800D02*
X79915467Y-6469800D01*
X81359467Y-6429800D02*
X79915467Y-6429800D01*
X81391467Y-6389800D02*
X79915467Y-6389800D01*
X81423467Y-6349800D02*
X79915467Y-6349800D01*
X81453467Y-6309800D02*
X79915467Y-6309800D01*
X81482467Y-6269800D02*
X79915467Y-6269800D01*
X81511467Y-6229800D02*
X79915467Y-6229800D01*
X81539467Y-6189800D02*
X79915467Y-6189800D01*
X81565467Y-6149800D02*
X79915467Y-6149800D01*
X81591467Y-6109800D02*
X79915467Y-6109800D01*
X81617467Y-6069800D02*
X79915467Y-6069800D01*
X81641467Y-6029800D02*
X79915467Y-6029800D01*
X81665467Y-5989800D02*
X79915467Y-5989800D01*
X81687467Y-5949800D02*
X79915467Y-5949800D01*
X81709467Y-5909800D02*
X79915467Y-5909800D01*
X81731467Y-5869800D02*
X79915467Y-5869800D01*
X81751467Y-5829800D02*
X79915467Y-5829800D01*
X81771467Y-5789800D02*
X79915467Y-5789800D01*
X81791467Y-5749800D02*
X79915467Y-5749800D01*
X81809467Y-5709800D02*
X79915467Y-5709800D01*
X81827467Y-5669800D02*
X79915467Y-5669800D01*
X81845467Y-5629800D02*
X79915467Y-5629800D01*
X81861467Y-5589800D02*
X79915467Y-5589800D01*
X81877467Y-5549800D02*
X79915467Y-5549800D01*
X81893467Y-5509800D02*
X79915467Y-5509800D01*
X81908467Y-5469800D02*
X79915467Y-5469800D01*
X81922467Y-5429800D02*
X79915467Y-5429800D01*
X81936467Y-5389800D02*
X79915467Y-5389800D01*
X81949467Y-5349800D02*
X79915467Y-5349800D01*
X81961467Y-5309800D02*
X79915467Y-5309800D01*
X81973467Y-5269800D02*
X79915467Y-5269800D01*
X81985467Y-5229800D02*
X79915467Y-5229800D01*
X81996467Y-5189800D02*
X79915467Y-5189800D01*
X82006467Y-5149800D02*
X79915467Y-5149800D01*
X82016467Y-5109800D02*
X79915467Y-5109800D01*
X82025467Y-5069800D02*
X79915467Y-5069800D01*
X82034467Y-5028800D02*
X79915467Y-5028800D01*
X82042467Y-4988800D02*
X79915467Y-4988800D01*
X82050467Y-4948800D02*
X79915467Y-4948800D01*
X82057467Y-4908800D02*
X79915467Y-4908800D01*
X82064467Y-4868800D02*
X79915467Y-4868800D01*
X82070467Y-4828800D02*
X79915467Y-4828800D01*
X82076467Y-4788800D02*
X79915467Y-4788800D01*
X82081467Y-4748800D02*
X79915467Y-4748800D01*
X82086467Y-4708800D02*
X79915467Y-4708800D01*
X82090467Y-4668800D02*
X79915467Y-4668800D01*
X82093467Y-4628800D02*
X79915467Y-4628800D01*
X82097467Y-4588800D02*
X79915467Y-4588800D01*
X82099467Y-4548800D02*
X75651467Y-4548800D01*
X82102467Y-4508800D02*
X75648467Y-4508800D01*
X82103467Y-4468800D02*
X75647467Y-4468800D01*
X82105467Y-4348800D02*
X75645467Y-4348800D01*
X82105467Y-4388800D02*
X75645467Y-4388800D01*
X82105467Y-4428800D02*
X75645467Y-4428800D01*
X82145467Y-4348800D02*
G75*
G02*
X75605467Y-4348800I-3270000J0D01*
G01*
X75605467Y-4348800D02*
G75*
G02*
X82145467Y-4348800I3270000J0D01*
G01*
D15*
%TO.C,J5*%
X55822200Y-21802800D02*
X55822200Y-21802800D01*
X55822200Y-21802800D02*
X55822200Y-21802800D01*
X55822200Y-21802800D02*
X55822200Y-24402800D01*
X55822200Y-21802800D02*
X74022200Y-21802800D01*
X55822200Y-24402800D02*
X55822200Y-21802800D01*
X55822200Y-24402800D02*
X55822200Y-24402800D01*
X55822200Y-43452800D02*
X55822200Y-43452800D01*
X55822200Y-43452800D02*
X55822200Y-45802800D01*
X55822200Y-45802800D02*
X55822200Y-43452800D01*
X55822200Y-45802800D02*
X55822200Y-45802800D01*
X55822200Y-45802800D02*
X55822200Y-45802800D01*
X55822200Y-45802800D02*
X74022200Y-45802800D01*
X74022200Y-21802800D02*
X55822200Y-21802800D01*
X74022200Y-21802800D02*
X74022200Y-21802800D01*
X74022200Y-21802800D02*
X74022200Y-21802800D01*
X74022200Y-21802800D02*
X74022200Y-24402800D01*
X74022200Y-24402800D02*
X74022200Y-21802800D01*
X74022200Y-24402800D02*
X74022200Y-24402800D01*
X74022200Y-45802800D02*
X55822200Y-45802800D01*
X74022200Y-45802800D02*
X74022200Y-45802800D01*
X74037200Y-42952800D02*
X74037200Y-42952800D01*
X74037200Y-42952800D02*
X74037200Y-45802800D01*
X74037200Y-45802800D02*
X74037200Y-42952800D01*
X74037200Y-45802800D02*
X74037200Y-45802800D01*
D16*
X75237200Y-41452800D02*
X75237200Y-41452800D01*
X75237200Y-41452800D02*
X75237200Y-41452800D01*
X75237200Y-41552800D02*
X75237200Y-41552800D01*
X75237200Y-41452800D02*
G75*
G02*
X75237200Y-41552800I0J-50000D01*
G01*
X75237200Y-41552800D02*
G75*
G02*
X75237200Y-41452800I0J50000D01*
G01*
X75237200Y-41552800D02*
G75*
G02*
X75237200Y-41452800I0J50000D01*
G01*
D14*
%TO.C,R6*%
X79685400Y-11099800D02*
X80305400Y-11099800D01*
X79685400Y-11099800D02*
G75*
G02*
X77845400Y-11099800I-920000J0D01*
G01*
X77845400Y-11099800D02*
G75*
G02*
X79685400Y-11099800I920000J0D01*
G01*
%TO.C,R12*%
X38328600Y-16160000D02*
X38328600Y-16780000D01*
X39248600Y-15240000D02*
G75*
G02*
X37408600Y-15240000I-920000J0D01*
G01*
X37408600Y-15240000D02*
G75*
G02*
X39248600Y-15240000I920000J0D01*
G01*
%TO.C,R4*%
X39223200Y-10820400D02*
X39843200Y-10820400D01*
X39223200Y-10820400D02*
G75*
G02*
X37383200Y-10820400I-920000J0D01*
G01*
X37383200Y-10820400D02*
G75*
G02*
X39223200Y-10820400I920000J0D01*
G01*
%TO.C,C5*%
X69165600Y-4588800D02*
X66983600Y-4588800D01*
X69165600Y-4628800D02*
X66987600Y-4628800D01*
X69165600Y-4668800D02*
X66990600Y-4668800D01*
X69165600Y-4708800D02*
X66994600Y-4708800D01*
X69165600Y-4748800D02*
X66999600Y-4748800D01*
X69165600Y-4788800D02*
X67004600Y-4788800D01*
X69165600Y-4828800D02*
X67010600Y-4828800D01*
X69165600Y-4868800D02*
X67016600Y-4868800D01*
X69165600Y-4908800D02*
X67023600Y-4908800D01*
X69165600Y-4948800D02*
X67030600Y-4948800D01*
X69165600Y-4988800D02*
X67038600Y-4988800D01*
X69165600Y-5028800D02*
X67046600Y-5028800D01*
X69165600Y-5069800D02*
X67055600Y-5069800D01*
X69165600Y-5109800D02*
X67064600Y-5109800D01*
X69165600Y-5149800D02*
X67074600Y-5149800D01*
X69165600Y-5189800D02*
X67084600Y-5189800D01*
X69165600Y-5229800D02*
X67095600Y-5229800D01*
X69165600Y-5269800D02*
X67107600Y-5269800D01*
X69165600Y-5309800D02*
X67119600Y-5309800D01*
X69165600Y-5349800D02*
X67131600Y-5349800D01*
X69165600Y-5389800D02*
X67144600Y-5389800D01*
X69165600Y-5429800D02*
X67158600Y-5429800D01*
X69165600Y-5469800D02*
X67172600Y-5469800D01*
X69165600Y-5509800D02*
X67187600Y-5509800D01*
X69165600Y-5549800D02*
X67203600Y-5549800D01*
X69165600Y-5589800D02*
X67219600Y-5589800D01*
X69165600Y-5629800D02*
X67235600Y-5629800D01*
X69165600Y-5669800D02*
X67253600Y-5669800D01*
X69165600Y-5709800D02*
X67271600Y-5709800D01*
X69165600Y-5749800D02*
X67289600Y-5749800D01*
X69165600Y-5789800D02*
X67309600Y-5789800D01*
X69165600Y-5829800D02*
X67329600Y-5829800D01*
X69165600Y-5869800D02*
X67349600Y-5869800D01*
X69165600Y-5909800D02*
X67371600Y-5909800D01*
X69165600Y-5949800D02*
X67393600Y-5949800D01*
X69165600Y-5989800D02*
X67415600Y-5989800D01*
X69165600Y-6029800D02*
X67439600Y-6029800D01*
X69165600Y-6069800D02*
X67463600Y-6069800D01*
X69165600Y-6109800D02*
X67489600Y-6109800D01*
X69165600Y-6149800D02*
X67515600Y-6149800D01*
X69165600Y-6189800D02*
X67541600Y-6189800D01*
X69165600Y-6229800D02*
X67569600Y-6229800D01*
X69165600Y-6269800D02*
X67598600Y-6269800D01*
X69165600Y-6309800D02*
X67627600Y-6309800D01*
X69165600Y-6349800D02*
X67657600Y-6349800D01*
X69165600Y-6389800D02*
X67689600Y-6389800D01*
X69165600Y-6429800D02*
X67721600Y-6429800D01*
X69165600Y-6469800D02*
X67755600Y-6469800D01*
X69165600Y-6509800D02*
X67789600Y-6509800D01*
X69165600Y-6549800D02*
X67825600Y-6549800D01*
X69165600Y-6589800D02*
X67862600Y-6589800D01*
X69165600Y-6629800D02*
X67900600Y-6629800D01*
X70607600Y-7589800D02*
X69803600Y-7589800D01*
X70838600Y-7549800D02*
X69572600Y-7549800D01*
X71007600Y-7509800D02*
X69403600Y-7509800D01*
X71145600Y-7469800D02*
X69265600Y-7469800D01*
X71264600Y-7429800D02*
X69146600Y-7429800D01*
X71370600Y-7389800D02*
X69040600Y-7389800D01*
X71467600Y-7349800D02*
X68943600Y-7349800D01*
X71555600Y-7309800D02*
X68855600Y-7309800D01*
X71637600Y-7269800D02*
X68773600Y-7269800D01*
X71714600Y-7229800D02*
X68696600Y-7229800D01*
X71786600Y-7189800D02*
X68624600Y-7189800D01*
X71855600Y-7149800D02*
X68555600Y-7149800D01*
X71919600Y-7109800D02*
X68491600Y-7109800D01*
X71981600Y-7069800D02*
X68429600Y-7069800D01*
X72039600Y-7029800D02*
X68371600Y-7029800D01*
X72044600Y-848559D02*
X72044600Y-1478559D01*
X72095600Y-6989800D02*
X68315600Y-6989800D01*
X72149600Y-6949800D02*
X68261600Y-6949800D01*
X72200600Y-6909800D02*
X68210600Y-6909800D01*
X72249600Y-6869800D02*
X68161600Y-6869800D01*
X72297600Y-6829800D02*
X68113600Y-6829800D01*
X72342600Y-6789800D02*
X68068600Y-6789800D01*
X72359600Y-1163559D02*
X71729600Y-1163559D01*
X72387600Y-6749800D02*
X68023600Y-6749800D01*
X72429600Y-6709800D02*
X67981600Y-6709800D01*
X72470600Y-6669800D02*
X67940600Y-6669800D01*
X72510600Y-6629800D02*
X71245600Y-6629800D01*
X72548600Y-6589800D02*
X71245600Y-6589800D01*
X72585600Y-6549800D02*
X71245600Y-6549800D01*
X72621600Y-6509800D02*
X71245600Y-6509800D01*
X72655600Y-6469800D02*
X71245600Y-6469800D01*
X72689600Y-6429800D02*
X71245600Y-6429800D01*
X72721600Y-6389800D02*
X71245600Y-6389800D01*
X72753600Y-6349800D02*
X71245600Y-6349800D01*
X72783600Y-6309800D02*
X71245600Y-6309800D01*
X72812600Y-6269800D02*
X71245600Y-6269800D01*
X72841600Y-6229800D02*
X71245600Y-6229800D01*
X72869600Y-6189800D02*
X71245600Y-6189800D01*
X72895600Y-6149800D02*
X71245600Y-6149800D01*
X72921600Y-6109800D02*
X71245600Y-6109800D01*
X72947600Y-6069800D02*
X71245600Y-6069800D01*
X72971600Y-6029800D02*
X71245600Y-6029800D01*
X72995600Y-5989800D02*
X71245600Y-5989800D01*
X73017600Y-5949800D02*
X71245600Y-5949800D01*
X73039600Y-5909800D02*
X71245600Y-5909800D01*
X73061600Y-5869800D02*
X71245600Y-5869800D01*
X73081600Y-5829800D02*
X71245600Y-5829800D01*
X73101600Y-5789800D02*
X71245600Y-5789800D01*
X73121600Y-5749800D02*
X71245600Y-5749800D01*
X73139600Y-5709800D02*
X71245600Y-5709800D01*
X73157600Y-5669800D02*
X71245600Y-5669800D01*
X73175600Y-5629800D02*
X71245600Y-5629800D01*
X73191600Y-5589800D02*
X71245600Y-5589800D01*
X73207600Y-5549800D02*
X71245600Y-5549800D01*
X73223600Y-5509800D02*
X71245600Y-5509800D01*
X73238600Y-5469800D02*
X71245600Y-5469800D01*
X73252600Y-5429800D02*
X71245600Y-5429800D01*
X73266600Y-5389800D02*
X71245600Y-5389800D01*
X73279600Y-5349800D02*
X71245600Y-5349800D01*
X73291600Y-5309800D02*
X71245600Y-5309800D01*
X73303600Y-5269800D02*
X71245600Y-5269800D01*
X73315600Y-5229800D02*
X71245600Y-5229800D01*
X73326600Y-5189800D02*
X71245600Y-5189800D01*
X73336600Y-5149800D02*
X71245600Y-5149800D01*
X73346600Y-5109800D02*
X71245600Y-5109800D01*
X73355600Y-5069800D02*
X71245600Y-5069800D01*
X73364600Y-5028800D02*
X71245600Y-5028800D01*
X73372600Y-4988800D02*
X71245600Y-4988800D01*
X73380600Y-4948800D02*
X71245600Y-4948800D01*
X73387600Y-4908800D02*
X71245600Y-4908800D01*
X73394600Y-4868800D02*
X71245600Y-4868800D01*
X73400600Y-4828800D02*
X71245600Y-4828800D01*
X73406600Y-4788800D02*
X71245600Y-4788800D01*
X73411600Y-4748800D02*
X71245600Y-4748800D01*
X73416600Y-4708800D02*
X71245600Y-4708800D01*
X73420600Y-4668800D02*
X71245600Y-4668800D01*
X73423600Y-4628800D02*
X71245600Y-4628800D01*
X73427600Y-4588800D02*
X71245600Y-4588800D01*
X73429600Y-4548800D02*
X66981600Y-4548800D01*
X73432600Y-4508800D02*
X66978600Y-4508800D01*
X73433600Y-4468800D02*
X66977600Y-4468800D01*
X73435600Y-4348800D02*
X66975600Y-4348800D01*
X73435600Y-4388800D02*
X66975600Y-4388800D01*
X73435600Y-4428800D02*
X66975600Y-4428800D01*
X73475600Y-4348800D02*
G75*
G02*
X66935600Y-4348800I-3270000J0D01*
G01*
X66935600Y-4348800D02*
G75*
G02*
X73475600Y-4348800I3270000J0D01*
G01*
%TO.C,J2*%
X579800Y-29080000D02*
X3899800Y-29080000D01*
X579800Y-43320000D02*
X579800Y-29080000D01*
X879800Y-43320000D02*
X579800Y-43320000D01*
X879800Y-47320000D02*
X879800Y-43320000D01*
X6149800Y-29080000D02*
X9019800Y-29080000D01*
X7119800Y-43320000D02*
X7119800Y-47320000D01*
X7119800Y-47320000D02*
X879800Y-47320000D01*
X9019800Y-29080000D02*
X9019800Y-43320000D01*
X9019800Y-43320000D02*
X7119800Y-43320000D01*
%TO.C,R7*%
X88499200Y-11099800D02*
X89119200Y-11099800D01*
X88499200Y-11099800D02*
G75*
G02*
X86659200Y-11099800I-920000J0D01*
G01*
X86659200Y-11099800D02*
G75*
G02*
X88499200Y-11099800I920000J0D01*
G01*
%TO.C,C7*%
X86505333Y-4588800D02*
X84323333Y-4588800D01*
X86505333Y-4628800D02*
X84327333Y-4628800D01*
X86505333Y-4668800D02*
X84330333Y-4668800D01*
X86505333Y-4708800D02*
X84334333Y-4708800D01*
X86505333Y-4748800D02*
X84339333Y-4748800D01*
X86505333Y-4788800D02*
X84344333Y-4788800D01*
X86505333Y-4828800D02*
X84350333Y-4828800D01*
X86505333Y-4868800D02*
X84356333Y-4868800D01*
X86505333Y-4908800D02*
X84363333Y-4908800D01*
X86505333Y-4948800D02*
X84370333Y-4948800D01*
X86505333Y-4988800D02*
X84378333Y-4988800D01*
X86505333Y-5028800D02*
X84386333Y-5028800D01*
X86505333Y-5069800D02*
X84395333Y-5069800D01*
X86505333Y-5109800D02*
X84404333Y-5109800D01*
X86505333Y-5149800D02*
X84414333Y-5149800D01*
X86505333Y-5189800D02*
X84424333Y-5189800D01*
X86505333Y-5229800D02*
X84435333Y-5229800D01*
X86505333Y-5269800D02*
X84447333Y-5269800D01*
X86505333Y-5309800D02*
X84459333Y-5309800D01*
X86505333Y-5349800D02*
X84471333Y-5349800D01*
X86505333Y-5389800D02*
X84484333Y-5389800D01*
X86505333Y-5429800D02*
X84498333Y-5429800D01*
X86505333Y-5469800D02*
X84512333Y-5469800D01*
X86505333Y-5509800D02*
X84527333Y-5509800D01*
X86505333Y-5549800D02*
X84543333Y-5549800D01*
X86505333Y-5589800D02*
X84559333Y-5589800D01*
X86505333Y-5629800D02*
X84575333Y-5629800D01*
X86505333Y-5669800D02*
X84593333Y-5669800D01*
X86505333Y-5709800D02*
X84611333Y-5709800D01*
X86505333Y-5749800D02*
X84629333Y-5749800D01*
X86505333Y-5789800D02*
X84649333Y-5789800D01*
X86505333Y-5829800D02*
X84669333Y-5829800D01*
X86505333Y-5869800D02*
X84689333Y-5869800D01*
X86505333Y-5909800D02*
X84711333Y-5909800D01*
X86505333Y-5949800D02*
X84733333Y-5949800D01*
X86505333Y-5989800D02*
X84755333Y-5989800D01*
X86505333Y-6029800D02*
X84779333Y-6029800D01*
X86505333Y-6069800D02*
X84803333Y-6069800D01*
X86505333Y-6109800D02*
X84829333Y-6109800D01*
X86505333Y-6149800D02*
X84855333Y-6149800D01*
X86505333Y-6189800D02*
X84881333Y-6189800D01*
X86505333Y-6229800D02*
X84909333Y-6229800D01*
X86505333Y-6269800D02*
X84938333Y-6269800D01*
X86505333Y-6309800D02*
X84967333Y-6309800D01*
X86505333Y-6349800D02*
X84997333Y-6349800D01*
X86505333Y-6389800D02*
X85029333Y-6389800D01*
X86505333Y-6429800D02*
X85061333Y-6429800D01*
X86505333Y-6469800D02*
X85095333Y-6469800D01*
X86505333Y-6509800D02*
X85129333Y-6509800D01*
X86505333Y-6549800D02*
X85165333Y-6549800D01*
X86505333Y-6589800D02*
X85202333Y-6589800D01*
X86505333Y-6629800D02*
X85240333Y-6629800D01*
X87947333Y-7589800D02*
X87143333Y-7589800D01*
X88178333Y-7549800D02*
X86912333Y-7549800D01*
X88347333Y-7509800D02*
X86743333Y-7509800D01*
X88485333Y-7469800D02*
X86605333Y-7469800D01*
X88604333Y-7429800D02*
X86486333Y-7429800D01*
X88710333Y-7389800D02*
X86380333Y-7389800D01*
X88807333Y-7349800D02*
X86283333Y-7349800D01*
X88895333Y-7309800D02*
X86195333Y-7309800D01*
X88977333Y-7269800D02*
X86113333Y-7269800D01*
X89054333Y-7229800D02*
X86036333Y-7229800D01*
X89126333Y-7189800D02*
X85964333Y-7189800D01*
X89195333Y-7149800D02*
X85895333Y-7149800D01*
X89259333Y-7109800D02*
X85831333Y-7109800D01*
X89321333Y-7069800D02*
X85769333Y-7069800D01*
X89379333Y-7029800D02*
X85711333Y-7029800D01*
X89384333Y-848559D02*
X89384333Y-1478559D01*
X89435333Y-6989800D02*
X85655333Y-6989800D01*
X89489333Y-6949800D02*
X85601333Y-6949800D01*
X89540333Y-6909800D02*
X85550333Y-6909800D01*
X89589333Y-6869800D02*
X85501333Y-6869800D01*
X89637333Y-6829800D02*
X85453333Y-6829800D01*
X89682333Y-6789800D02*
X85408333Y-6789800D01*
X89699333Y-1163559D02*
X89069333Y-1163559D01*
X89727333Y-6749800D02*
X85363333Y-6749800D01*
X89769333Y-6709800D02*
X85321333Y-6709800D01*
X89810333Y-6669800D02*
X85280333Y-6669800D01*
X89850333Y-6629800D02*
X88585333Y-6629800D01*
X89888333Y-6589800D02*
X88585333Y-6589800D01*
X89925333Y-6549800D02*
X88585333Y-6549800D01*
X89961333Y-6509800D02*
X88585333Y-6509800D01*
X89995333Y-6469800D02*
X88585333Y-6469800D01*
X90029333Y-6429800D02*
X88585333Y-6429800D01*
X90061333Y-6389800D02*
X88585333Y-6389800D01*
X90093333Y-6349800D02*
X88585333Y-6349800D01*
X90123333Y-6309800D02*
X88585333Y-6309800D01*
X90152333Y-6269800D02*
X88585333Y-6269800D01*
X90181333Y-6229800D02*
X88585333Y-6229800D01*
X90209333Y-6189800D02*
X88585333Y-6189800D01*
X90235333Y-6149800D02*
X88585333Y-6149800D01*
X90261333Y-6109800D02*
X88585333Y-6109800D01*
X90287333Y-6069800D02*
X88585333Y-6069800D01*
X90311333Y-6029800D02*
X88585333Y-6029800D01*
X90335333Y-5989800D02*
X88585333Y-5989800D01*
X90357333Y-5949800D02*
X88585333Y-5949800D01*
X90379333Y-5909800D02*
X88585333Y-5909800D01*
X90401333Y-5869800D02*
X88585333Y-5869800D01*
X90421333Y-5829800D02*
X88585333Y-5829800D01*
X90441333Y-5789800D02*
X88585333Y-5789800D01*
X90461333Y-5749800D02*
X88585333Y-5749800D01*
X90479333Y-5709800D02*
X88585333Y-5709800D01*
X90497333Y-5669800D02*
X88585333Y-5669800D01*
X90515333Y-5629800D02*
X88585333Y-5629800D01*
X90531333Y-5589800D02*
X88585333Y-5589800D01*
X90547333Y-5549800D02*
X88585333Y-5549800D01*
X90563333Y-5509800D02*
X88585333Y-5509800D01*
X90578333Y-5469800D02*
X88585333Y-5469800D01*
X90592333Y-5429800D02*
X88585333Y-5429800D01*
X90606333Y-5389800D02*
X88585333Y-5389800D01*
X90619333Y-5349800D02*
X88585333Y-5349800D01*
X90631333Y-5309800D02*
X88585333Y-5309800D01*
X90643333Y-5269800D02*
X88585333Y-5269800D01*
X90655333Y-5229800D02*
X88585333Y-5229800D01*
X90666333Y-5189800D02*
X88585333Y-5189800D01*
X90676333Y-5149800D02*
X88585333Y-5149800D01*
X90686333Y-5109800D02*
X88585333Y-5109800D01*
X90695333Y-5069800D02*
X88585333Y-5069800D01*
X90704333Y-5028800D02*
X88585333Y-5028800D01*
X90712333Y-4988800D02*
X88585333Y-4988800D01*
X90720333Y-4948800D02*
X88585333Y-4948800D01*
X90727333Y-4908800D02*
X88585333Y-4908800D01*
X90734333Y-4868800D02*
X88585333Y-4868800D01*
X90740333Y-4828800D02*
X88585333Y-4828800D01*
X90746333Y-4788800D02*
X88585333Y-4788800D01*
X90751333Y-4748800D02*
X88585333Y-4748800D01*
X90756333Y-4708800D02*
X88585333Y-4708800D01*
X90760333Y-4668800D02*
X88585333Y-4668800D01*
X90763333Y-4628800D02*
X88585333Y-4628800D01*
X90767333Y-4588800D02*
X88585333Y-4588800D01*
X90769333Y-4548800D02*
X84321333Y-4548800D01*
X90772333Y-4508800D02*
X84318333Y-4508800D01*
X90773333Y-4468800D02*
X84317333Y-4468800D01*
X90775333Y-4348800D02*
X84315333Y-4348800D01*
X90775333Y-4388800D02*
X84315333Y-4388800D01*
X90775333Y-4428800D02*
X84315333Y-4428800D01*
X90815333Y-4348800D02*
G75*
G02*
X84275333Y-4348800I-3270000J0D01*
G01*
X84275333Y-4348800D02*
G75*
G02*
X90815333Y-4348800I3270000J0D01*
G01*
D15*
%TO.C,J6*%
X77822200Y-21802800D02*
X77822200Y-21802800D01*
X77822200Y-21802800D02*
X77822200Y-21802800D01*
X77822200Y-21802800D02*
X77822200Y-24402800D01*
X77822200Y-21802800D02*
X96022200Y-21802800D01*
X77822200Y-24402800D02*
X77822200Y-21802800D01*
X77822200Y-24402800D02*
X77822200Y-24402800D01*
X77822200Y-43452800D02*
X77822200Y-43452800D01*
X77822200Y-43452800D02*
X77822200Y-45802800D01*
X77822200Y-45802800D02*
X77822200Y-43452800D01*
X77822200Y-45802800D02*
X77822200Y-45802800D01*
X77822200Y-45802800D02*
X77822200Y-45802800D01*
X77822200Y-45802800D02*
X96022200Y-45802800D01*
X96022200Y-21802800D02*
X77822200Y-21802800D01*
X96022200Y-21802800D02*
X96022200Y-21802800D01*
X96022200Y-21802800D02*
X96022200Y-21802800D01*
X96022200Y-21802800D02*
X96022200Y-24402800D01*
X96022200Y-24402800D02*
X96022200Y-21802800D01*
X96022200Y-24402800D02*
X96022200Y-24402800D01*
X96022200Y-45802800D02*
X77822200Y-45802800D01*
X96022200Y-45802800D02*
X96022200Y-45802800D01*
X96037200Y-42952800D02*
X96037200Y-42952800D01*
X96037200Y-42952800D02*
X96037200Y-45802800D01*
X96037200Y-45802800D02*
X96037200Y-42952800D01*
X96037200Y-45802800D02*
X96037200Y-45802800D01*
D16*
X97237200Y-41452800D02*
X97237200Y-41452800D01*
X97237200Y-41452800D02*
X97237200Y-41452800D01*
X97237200Y-41552800D02*
X97237200Y-41552800D01*
X97237200Y-41452800D02*
G75*
G02*
X97237200Y-41552800I0J-50000D01*
G01*
X97237200Y-41552800D02*
G75*
G02*
X97237200Y-41452800I0J50000D01*
G01*
X97237200Y-41552800D02*
G75*
G02*
X97237200Y-41452800I0J50000D01*
G01*
D14*
%TO.C,R16*%
X96443800Y-16134600D02*
X96443800Y-16754600D01*
X97363800Y-15214600D02*
G75*
G02*
X95523800Y-15214600I-920000J0D01*
G01*
X95523800Y-15214600D02*
G75*
G02*
X97363800Y-15214600I920000J0D01*
G01*
%TO.C,R11*%
X29692600Y-16210800D02*
X29692600Y-16830800D01*
X30612600Y-15290800D02*
G75*
G02*
X28772600Y-15290800I-920000J0D01*
G01*
X28772600Y-15290800D02*
G75*
G02*
X30612600Y-15290800I920000J0D01*
G01*
%TO.C,R5*%
X71125600Y-11099800D02*
X71745600Y-11099800D01*
X71125600Y-11099800D02*
G75*
G02*
X69285600Y-11099800I-920000J0D01*
G01*
X69285600Y-11099800D02*
G75*
G02*
X71125600Y-11099800I920000J0D01*
G01*
%TO.C,C4*%
X37212400Y-4665000D02*
X35030400Y-4665000D01*
X37212400Y-4705000D02*
X35034400Y-4705000D01*
X37212400Y-4745000D02*
X35037400Y-4745000D01*
X37212400Y-4785000D02*
X35041400Y-4785000D01*
X37212400Y-4825000D02*
X35046400Y-4825000D01*
X37212400Y-4865000D02*
X35051400Y-4865000D01*
X37212400Y-4905000D02*
X35057400Y-4905000D01*
X37212400Y-4945000D02*
X35063400Y-4945000D01*
X37212400Y-4985000D02*
X35070400Y-4985000D01*
X37212400Y-5025000D02*
X35077400Y-5025000D01*
X37212400Y-5065000D02*
X35085400Y-5065000D01*
X37212400Y-5105000D02*
X35093400Y-5105000D01*
X37212400Y-5146000D02*
X35102400Y-5146000D01*
X37212400Y-5186000D02*
X35111400Y-5186000D01*
X37212400Y-5226000D02*
X35121400Y-5226000D01*
X37212400Y-5266000D02*
X35131400Y-5266000D01*
X37212400Y-5306000D02*
X35142400Y-5306000D01*
X37212400Y-5346000D02*
X35154400Y-5346000D01*
X37212400Y-5386000D02*
X35166400Y-5386000D01*
X37212400Y-5426000D02*
X35178400Y-5426000D01*
X37212400Y-5466000D02*
X35191400Y-5466000D01*
X37212400Y-5506000D02*
X35205400Y-5506000D01*
X37212400Y-5546000D02*
X35219400Y-5546000D01*
X37212400Y-5586000D02*
X35234400Y-5586000D01*
X37212400Y-5626000D02*
X35250400Y-5626000D01*
X37212400Y-5666000D02*
X35266400Y-5666000D01*
X37212400Y-5706000D02*
X35282400Y-5706000D01*
X37212400Y-5746000D02*
X35300400Y-5746000D01*
X37212400Y-5786000D02*
X35318400Y-5786000D01*
X37212400Y-5826000D02*
X35336400Y-5826000D01*
X37212400Y-5866000D02*
X35356400Y-5866000D01*
X37212400Y-5906000D02*
X35376400Y-5906000D01*
X37212400Y-5946000D02*
X35396400Y-5946000D01*
X37212400Y-5986000D02*
X35418400Y-5986000D01*
X37212400Y-6026000D02*
X35440400Y-6026000D01*
X37212400Y-6066000D02*
X35462400Y-6066000D01*
X37212400Y-6106000D02*
X35486400Y-6106000D01*
X37212400Y-6146000D02*
X35510400Y-6146000D01*
X37212400Y-6186000D02*
X35536400Y-6186000D01*
X37212400Y-6226000D02*
X35562400Y-6226000D01*
X37212400Y-6266000D02*
X35588400Y-6266000D01*
X37212400Y-6306000D02*
X35616400Y-6306000D01*
X37212400Y-6346000D02*
X35645400Y-6346000D01*
X37212400Y-6386000D02*
X35674400Y-6386000D01*
X37212400Y-6426000D02*
X35704400Y-6426000D01*
X37212400Y-6466000D02*
X35736400Y-6466000D01*
X37212400Y-6506000D02*
X35768400Y-6506000D01*
X37212400Y-6546000D02*
X35802400Y-6546000D01*
X37212400Y-6586000D02*
X35836400Y-6586000D01*
X37212400Y-6626000D02*
X35872400Y-6626000D01*
X37212400Y-6666000D02*
X35909400Y-6666000D01*
X37212400Y-6706000D02*
X35947400Y-6706000D01*
X38654400Y-7666000D02*
X37850400Y-7666000D01*
X38885400Y-7626000D02*
X37619400Y-7626000D01*
X39054400Y-7586000D02*
X37450400Y-7586000D01*
X39192400Y-7546000D02*
X37312400Y-7546000D01*
X39311400Y-7506000D02*
X37193400Y-7506000D01*
X39417400Y-7466000D02*
X37087400Y-7466000D01*
X39514400Y-7426000D02*
X36990400Y-7426000D01*
X39602400Y-7386000D02*
X36902400Y-7386000D01*
X39684400Y-7346000D02*
X36820400Y-7346000D01*
X39761400Y-7306000D02*
X36743400Y-7306000D01*
X39833400Y-7266000D02*
X36671400Y-7266000D01*
X39902400Y-7226000D02*
X36602400Y-7226000D01*
X39966400Y-7186000D02*
X36538400Y-7186000D01*
X40028400Y-7146000D02*
X36476400Y-7146000D01*
X40086400Y-7106000D02*
X36418400Y-7106000D01*
X40091400Y-924759D02*
X40091400Y-1554759D01*
X40142400Y-7066000D02*
X36362400Y-7066000D01*
X40196400Y-7026000D02*
X36308400Y-7026000D01*
X40247400Y-6986000D02*
X36257400Y-6986000D01*
X40296400Y-6946000D02*
X36208400Y-6946000D01*
X40344400Y-6906000D02*
X36160400Y-6906000D01*
X40389400Y-6866000D02*
X36115400Y-6866000D01*
X40406400Y-1239759D02*
X39776400Y-1239759D01*
X40434400Y-6826000D02*
X36070400Y-6826000D01*
X40476400Y-6786000D02*
X36028400Y-6786000D01*
X40517400Y-6746000D02*
X35987400Y-6746000D01*
X40557400Y-6706000D02*
X39292400Y-6706000D01*
X40595400Y-6666000D02*
X39292400Y-6666000D01*
X40632400Y-6626000D02*
X39292400Y-6626000D01*
X40668400Y-6586000D02*
X39292400Y-6586000D01*
X40702400Y-6546000D02*
X39292400Y-6546000D01*
X40736400Y-6506000D02*
X39292400Y-6506000D01*
X40768400Y-6466000D02*
X39292400Y-6466000D01*
X40800400Y-6426000D02*
X39292400Y-6426000D01*
X40830400Y-6386000D02*
X39292400Y-6386000D01*
X40859400Y-6346000D02*
X39292400Y-6346000D01*
X40888400Y-6306000D02*
X39292400Y-6306000D01*
X40916400Y-6266000D02*
X39292400Y-6266000D01*
X40942400Y-6226000D02*
X39292400Y-6226000D01*
X40968400Y-6186000D02*
X39292400Y-6186000D01*
X40994400Y-6146000D02*
X39292400Y-6146000D01*
X41018400Y-6106000D02*
X39292400Y-6106000D01*
X41042400Y-6066000D02*
X39292400Y-6066000D01*
X41064400Y-6026000D02*
X39292400Y-6026000D01*
X41086400Y-5986000D02*
X39292400Y-5986000D01*
X41108400Y-5946000D02*
X39292400Y-5946000D01*
X41128400Y-5906000D02*
X39292400Y-5906000D01*
X41148400Y-5866000D02*
X39292400Y-5866000D01*
X41168400Y-5826000D02*
X39292400Y-5826000D01*
X41186400Y-5786000D02*
X39292400Y-5786000D01*
X41204400Y-5746000D02*
X39292400Y-5746000D01*
X41222400Y-5706000D02*
X39292400Y-5706000D01*
X41238400Y-5666000D02*
X39292400Y-5666000D01*
X41254400Y-5626000D02*
X39292400Y-5626000D01*
X41270400Y-5586000D02*
X39292400Y-5586000D01*
X41285400Y-5546000D02*
X39292400Y-5546000D01*
X41299400Y-5506000D02*
X39292400Y-5506000D01*
X41313400Y-5466000D02*
X39292400Y-5466000D01*
X41326400Y-5426000D02*
X39292400Y-5426000D01*
X41338400Y-5386000D02*
X39292400Y-5386000D01*
X41350400Y-5346000D02*
X39292400Y-5346000D01*
X41362400Y-5306000D02*
X39292400Y-5306000D01*
X41373400Y-5266000D02*
X39292400Y-5266000D01*
X41383400Y-5226000D02*
X39292400Y-5226000D01*
X41393400Y-5186000D02*
X39292400Y-5186000D01*
X41402400Y-5146000D02*
X39292400Y-5146000D01*
X41411400Y-5105000D02*
X39292400Y-5105000D01*
X41419400Y-5065000D02*
X39292400Y-5065000D01*
X41427400Y-5025000D02*
X39292400Y-5025000D01*
X41434400Y-4985000D02*
X39292400Y-4985000D01*
X41441400Y-4945000D02*
X39292400Y-4945000D01*
X41447400Y-4905000D02*
X39292400Y-4905000D01*
X41453400Y-4865000D02*
X39292400Y-4865000D01*
X41458400Y-4825000D02*
X39292400Y-4825000D01*
X41463400Y-4785000D02*
X39292400Y-4785000D01*
X41467400Y-4745000D02*
X39292400Y-4745000D01*
X41470400Y-4705000D02*
X39292400Y-4705000D01*
X41474400Y-4665000D02*
X39292400Y-4665000D01*
X41476400Y-4625000D02*
X35028400Y-4625000D01*
X41479400Y-4585000D02*
X35025400Y-4585000D01*
X41480400Y-4545000D02*
X35024400Y-4545000D01*
X41482400Y-4425000D02*
X35022400Y-4425000D01*
X41482400Y-4465000D02*
X35022400Y-4465000D01*
X41482400Y-4505000D02*
X35022400Y-4505000D01*
X41522400Y-4425000D02*
G75*
G02*
X34982400Y-4425000I-3270000J0D01*
G01*
X34982400Y-4425000D02*
G75*
G02*
X41522400Y-4425000I3270000J0D01*
G01*
%TO.C,C3*%
X28627200Y-4665000D02*
X26445200Y-4665000D01*
X28627200Y-4705000D02*
X26449200Y-4705000D01*
X28627200Y-4745000D02*
X26452200Y-4745000D01*
X28627200Y-4785000D02*
X26456200Y-4785000D01*
X28627200Y-4825000D02*
X26461200Y-4825000D01*
X28627200Y-4865000D02*
X26466200Y-4865000D01*
X28627200Y-4905000D02*
X26472200Y-4905000D01*
X28627200Y-4945000D02*
X26478200Y-4945000D01*
X28627200Y-4985000D02*
X26485200Y-4985000D01*
X28627200Y-5025000D02*
X26492200Y-5025000D01*
X28627200Y-5065000D02*
X26500200Y-5065000D01*
X28627200Y-5105000D02*
X26508200Y-5105000D01*
X28627200Y-5146000D02*
X26517200Y-5146000D01*
X28627200Y-5186000D02*
X26526200Y-5186000D01*
X28627200Y-5226000D02*
X26536200Y-5226000D01*
X28627200Y-5266000D02*
X26546200Y-5266000D01*
X28627200Y-5306000D02*
X26557200Y-5306000D01*
X28627200Y-5346000D02*
X26569200Y-5346000D01*
X28627200Y-5386000D02*
X26581200Y-5386000D01*
X28627200Y-5426000D02*
X26593200Y-5426000D01*
X28627200Y-5466000D02*
X26606200Y-5466000D01*
X28627200Y-5506000D02*
X26620200Y-5506000D01*
X28627200Y-5546000D02*
X26634200Y-5546000D01*
X28627200Y-5586000D02*
X26649200Y-5586000D01*
X28627200Y-5626000D02*
X26665200Y-5626000D01*
X28627200Y-5666000D02*
X26681200Y-5666000D01*
X28627200Y-5706000D02*
X26697200Y-5706000D01*
X28627200Y-5746000D02*
X26715200Y-5746000D01*
X28627200Y-5786000D02*
X26733200Y-5786000D01*
X28627200Y-5826000D02*
X26751200Y-5826000D01*
X28627200Y-5866000D02*
X26771200Y-5866000D01*
X28627200Y-5906000D02*
X26791200Y-5906000D01*
X28627200Y-5946000D02*
X26811200Y-5946000D01*
X28627200Y-5986000D02*
X26833200Y-5986000D01*
X28627200Y-6026000D02*
X26855200Y-6026000D01*
X28627200Y-6066000D02*
X26877200Y-6066000D01*
X28627200Y-6106000D02*
X26901200Y-6106000D01*
X28627200Y-6146000D02*
X26925200Y-6146000D01*
X28627200Y-6186000D02*
X26951200Y-6186000D01*
X28627200Y-6226000D02*
X26977200Y-6226000D01*
X28627200Y-6266000D02*
X27003200Y-6266000D01*
X28627200Y-6306000D02*
X27031200Y-6306000D01*
X28627200Y-6346000D02*
X27060200Y-6346000D01*
X28627200Y-6386000D02*
X27089200Y-6386000D01*
X28627200Y-6426000D02*
X27119200Y-6426000D01*
X28627200Y-6466000D02*
X27151200Y-6466000D01*
X28627200Y-6506000D02*
X27183200Y-6506000D01*
X28627200Y-6546000D02*
X27217200Y-6546000D01*
X28627200Y-6586000D02*
X27251200Y-6586000D01*
X28627200Y-6626000D02*
X27287200Y-6626000D01*
X28627200Y-6666000D02*
X27324200Y-6666000D01*
X28627200Y-6706000D02*
X27362200Y-6706000D01*
X30069200Y-7666000D02*
X29265200Y-7666000D01*
X30300200Y-7626000D02*
X29034200Y-7626000D01*
X30469200Y-7586000D02*
X28865200Y-7586000D01*
X30607200Y-7546000D02*
X28727200Y-7546000D01*
X30726200Y-7506000D02*
X28608200Y-7506000D01*
X30832200Y-7466000D02*
X28502200Y-7466000D01*
X30929200Y-7426000D02*
X28405200Y-7426000D01*
X31017200Y-7386000D02*
X28317200Y-7386000D01*
X31099200Y-7346000D02*
X28235200Y-7346000D01*
X31176200Y-7306000D02*
X28158200Y-7306000D01*
X31248200Y-7266000D02*
X28086200Y-7266000D01*
X31317200Y-7226000D02*
X28017200Y-7226000D01*
X31381200Y-7186000D02*
X27953200Y-7186000D01*
X31443200Y-7146000D02*
X27891200Y-7146000D01*
X31501200Y-7106000D02*
X27833200Y-7106000D01*
X31506200Y-924759D02*
X31506200Y-1554759D01*
X31557200Y-7066000D02*
X27777200Y-7066000D01*
X31611200Y-7026000D02*
X27723200Y-7026000D01*
X31662200Y-6986000D02*
X27672200Y-6986000D01*
X31711200Y-6946000D02*
X27623200Y-6946000D01*
X31759200Y-6906000D02*
X27575200Y-6906000D01*
X31804200Y-6866000D02*
X27530200Y-6866000D01*
X31821200Y-1239759D02*
X31191200Y-1239759D01*
X31849200Y-6826000D02*
X27485200Y-6826000D01*
X31891200Y-6786000D02*
X27443200Y-6786000D01*
X31932200Y-6746000D02*
X27402200Y-6746000D01*
X31972200Y-6706000D02*
X30707200Y-6706000D01*
X32010200Y-6666000D02*
X30707200Y-6666000D01*
X32047200Y-6626000D02*
X30707200Y-6626000D01*
X32083200Y-6586000D02*
X30707200Y-6586000D01*
X32117200Y-6546000D02*
X30707200Y-6546000D01*
X32151200Y-6506000D02*
X30707200Y-6506000D01*
X32183200Y-6466000D02*
X30707200Y-6466000D01*
X32215200Y-6426000D02*
X30707200Y-6426000D01*
X32245200Y-6386000D02*
X30707200Y-6386000D01*
X32274200Y-6346000D02*
X30707200Y-6346000D01*
X32303200Y-6306000D02*
X30707200Y-6306000D01*
X32331200Y-6266000D02*
X30707200Y-6266000D01*
X32357200Y-6226000D02*
X30707200Y-6226000D01*
X32383200Y-6186000D02*
X30707200Y-6186000D01*
X32409200Y-6146000D02*
X30707200Y-6146000D01*
X32433200Y-6106000D02*
X30707200Y-6106000D01*
X32457200Y-6066000D02*
X30707200Y-6066000D01*
X32479200Y-6026000D02*
X30707200Y-6026000D01*
X32501200Y-5986000D02*
X30707200Y-5986000D01*
X32523200Y-5946000D02*
X30707200Y-5946000D01*
X32543200Y-5906000D02*
X30707200Y-5906000D01*
X32563200Y-5866000D02*
X30707200Y-5866000D01*
X32583200Y-5826000D02*
X30707200Y-5826000D01*
X32601200Y-5786000D02*
X30707200Y-5786000D01*
X32619200Y-5746000D02*
X30707200Y-5746000D01*
X32637200Y-5706000D02*
X30707200Y-5706000D01*
X32653200Y-5666000D02*
X30707200Y-5666000D01*
X32669200Y-5626000D02*
X30707200Y-5626000D01*
X32685200Y-5586000D02*
X30707200Y-5586000D01*
X32700200Y-5546000D02*
X30707200Y-5546000D01*
X32714200Y-5506000D02*
X30707200Y-5506000D01*
X32728200Y-5466000D02*
X30707200Y-5466000D01*
X32741200Y-5426000D02*
X30707200Y-5426000D01*
X32753200Y-5386000D02*
X30707200Y-5386000D01*
X32765200Y-5346000D02*
X30707200Y-5346000D01*
X32777200Y-5306000D02*
X30707200Y-5306000D01*
X32788200Y-5266000D02*
X30707200Y-5266000D01*
X32798200Y-5226000D02*
X30707200Y-5226000D01*
X32808200Y-5186000D02*
X30707200Y-5186000D01*
X32817200Y-5146000D02*
X30707200Y-5146000D01*
X32826200Y-5105000D02*
X30707200Y-5105000D01*
X32834200Y-5065000D02*
X30707200Y-5065000D01*
X32842200Y-5025000D02*
X30707200Y-5025000D01*
X32849200Y-4985000D02*
X30707200Y-4985000D01*
X32856200Y-4945000D02*
X30707200Y-4945000D01*
X32862200Y-4905000D02*
X30707200Y-4905000D01*
X32868200Y-4865000D02*
X30707200Y-4865000D01*
X32873200Y-4825000D02*
X30707200Y-4825000D01*
X32878200Y-4785000D02*
X30707200Y-4785000D01*
X32882200Y-4745000D02*
X30707200Y-4745000D01*
X32885200Y-4705000D02*
X30707200Y-4705000D01*
X32889200Y-4665000D02*
X30707200Y-4665000D01*
X32891200Y-4625000D02*
X26443200Y-4625000D01*
X32894200Y-4585000D02*
X26440200Y-4585000D01*
X32895200Y-4545000D02*
X26439200Y-4545000D01*
X32897200Y-4425000D02*
X26437200Y-4425000D01*
X32897200Y-4465000D02*
X26437200Y-4465000D01*
X32897200Y-4505000D02*
X26437200Y-4505000D01*
X32937200Y-4425000D02*
G75*
G02*
X26397200Y-4425000I-3270000J0D01*
G01*
X26397200Y-4425000D02*
G75*
G02*
X32937200Y-4425000I3270000J0D01*
G01*
%TO.C,R9*%
X12496800Y-16961600D02*
X12496800Y-16341600D01*
X13416800Y-17881600D02*
G75*
G02*
X11576800Y-17881600I-920000J0D01*
G01*
X11576800Y-17881600D02*
G75*
G02*
X13416800Y-17881600I920000J0D01*
G01*
%TO.C,R1*%
X13467600Y-11023600D02*
X14087600Y-11023600D01*
X13467600Y-11023600D02*
G75*
G02*
X11627600Y-11023600I-920000J0D01*
G01*
X11627600Y-11023600D02*
G75*
G02*
X13467600Y-11023600I920000J0D01*
G01*
D15*
%TO.C,J4*%
X33822200Y-21802800D02*
X33822200Y-21802800D01*
X33822200Y-21802800D02*
X33822200Y-21802800D01*
X33822200Y-21802800D02*
X33822200Y-24402800D01*
X33822200Y-21802800D02*
X52022200Y-21802800D01*
X33822200Y-24402800D02*
X33822200Y-21802800D01*
X33822200Y-24402800D02*
X33822200Y-24402800D01*
X33822200Y-43452800D02*
X33822200Y-43452800D01*
X33822200Y-43452800D02*
X33822200Y-45802800D01*
X33822200Y-45802800D02*
X33822200Y-43452800D01*
X33822200Y-45802800D02*
X33822200Y-45802800D01*
X33822200Y-45802800D02*
X33822200Y-45802800D01*
X33822200Y-45802800D02*
X52022200Y-45802800D01*
X52022200Y-21802800D02*
X33822200Y-21802800D01*
X52022200Y-21802800D02*
X52022200Y-21802800D01*
X52022200Y-21802800D02*
X52022200Y-21802800D01*
X52022200Y-21802800D02*
X52022200Y-24402800D01*
X52022200Y-24402800D02*
X52022200Y-21802800D01*
X52022200Y-24402800D02*
X52022200Y-24402800D01*
X52022200Y-45802800D02*
X33822200Y-45802800D01*
X52022200Y-45802800D02*
X52022200Y-45802800D01*
X52037200Y-42952800D02*
X52037200Y-42952800D01*
X52037200Y-42952800D02*
X52037200Y-45802800D01*
X52037200Y-45802800D02*
X52037200Y-42952800D01*
X52037200Y-45802800D02*
X52037200Y-45802800D01*
D16*
X53237200Y-41452800D02*
X53237200Y-41452800D01*
X53237200Y-41452800D02*
X53237200Y-41452800D01*
X53237200Y-41552800D02*
X53237200Y-41552800D01*
X53237200Y-41452800D02*
G75*
G02*
X53237200Y-41552800I0J-50000D01*
G01*
X53237200Y-41552800D02*
G75*
G02*
X53237200Y-41452800I0J50000D01*
G01*
X53237200Y-41552800D02*
G75*
G02*
X53237200Y-41452800I0J50000D01*
G01*
%TO.C,J1*%
X45870800Y2813200D02*
X63650800Y2813200D01*
X45870800Y-10464800D02*
X45870800Y2813200D01*
X63650800Y2813200D02*
X63650800Y-8286800D01*
D14*
%TO.C,R13*%
X70154800Y-16083800D02*
X70154800Y-16703800D01*
X71074800Y-15163800D02*
G75*
G02*
X69234800Y-15163800I-920000J0D01*
G01*
X69234800Y-15163800D02*
G75*
G02*
X71074800Y-15163800I920000J0D01*
G01*
%TO.C,C8*%
X95175200Y-4588800D02*
X92993200Y-4588800D01*
X95175200Y-4628800D02*
X92997200Y-4628800D01*
X95175200Y-4668800D02*
X93000200Y-4668800D01*
X95175200Y-4708800D02*
X93004200Y-4708800D01*
X95175200Y-4748800D02*
X93009200Y-4748800D01*
X95175200Y-4788800D02*
X93014200Y-4788800D01*
X95175200Y-4828800D02*
X93020200Y-4828800D01*
X95175200Y-4868800D02*
X93026200Y-4868800D01*
X95175200Y-4908800D02*
X93033200Y-4908800D01*
X95175200Y-4948800D02*
X93040200Y-4948800D01*
X95175200Y-4988800D02*
X93048200Y-4988800D01*
X95175200Y-5028800D02*
X93056200Y-5028800D01*
X95175200Y-5069800D02*
X93065200Y-5069800D01*
X95175200Y-5109800D02*
X93074200Y-5109800D01*
X95175200Y-5149800D02*
X93084200Y-5149800D01*
X95175200Y-5189800D02*
X93094200Y-5189800D01*
X95175200Y-5229800D02*
X93105200Y-5229800D01*
X95175200Y-5269800D02*
X93117200Y-5269800D01*
X95175200Y-5309800D02*
X93129200Y-5309800D01*
X95175200Y-5349800D02*
X93141200Y-5349800D01*
X95175200Y-5389800D02*
X93154200Y-5389800D01*
X95175200Y-5429800D02*
X93168200Y-5429800D01*
X95175200Y-5469800D02*
X93182200Y-5469800D01*
X95175200Y-5509800D02*
X93197200Y-5509800D01*
X95175200Y-5549800D02*
X93213200Y-5549800D01*
X95175200Y-5589800D02*
X93229200Y-5589800D01*
X95175200Y-5629800D02*
X93245200Y-5629800D01*
X95175200Y-5669800D02*
X93263200Y-5669800D01*
X95175200Y-5709800D02*
X93281200Y-5709800D01*
X95175200Y-5749800D02*
X93299200Y-5749800D01*
X95175200Y-5789800D02*
X93319200Y-5789800D01*
X95175200Y-5829800D02*
X93339200Y-5829800D01*
X95175200Y-5869800D02*
X93359200Y-5869800D01*
X95175200Y-5909800D02*
X93381200Y-5909800D01*
X95175200Y-5949800D02*
X93403200Y-5949800D01*
X95175200Y-5989800D02*
X93425200Y-5989800D01*
X95175200Y-6029800D02*
X93449200Y-6029800D01*
X95175200Y-6069800D02*
X93473200Y-6069800D01*
X95175200Y-6109800D02*
X93499200Y-6109800D01*
X95175200Y-6149800D02*
X93525200Y-6149800D01*
X95175200Y-6189800D02*
X93551200Y-6189800D01*
X95175200Y-6229800D02*
X93579200Y-6229800D01*
X95175200Y-6269800D02*
X93608200Y-6269800D01*
X95175200Y-6309800D02*
X93637200Y-6309800D01*
X95175200Y-6349800D02*
X93667200Y-6349800D01*
X95175200Y-6389800D02*
X93699200Y-6389800D01*
X95175200Y-6429800D02*
X93731200Y-6429800D01*
X95175200Y-6469800D02*
X93765200Y-6469800D01*
X95175200Y-6509800D02*
X93799200Y-6509800D01*
X95175200Y-6549800D02*
X93835200Y-6549800D01*
X95175200Y-6589800D02*
X93872200Y-6589800D01*
X95175200Y-6629800D02*
X93910200Y-6629800D01*
X96617200Y-7589800D02*
X95813200Y-7589800D01*
X96848200Y-7549800D02*
X95582200Y-7549800D01*
X97017200Y-7509800D02*
X95413200Y-7509800D01*
X97155200Y-7469800D02*
X95275200Y-7469800D01*
X97274200Y-7429800D02*
X95156200Y-7429800D01*
X97380200Y-7389800D02*
X95050200Y-7389800D01*
X97477200Y-7349800D02*
X94953200Y-7349800D01*
X97565200Y-7309800D02*
X94865200Y-7309800D01*
X97647200Y-7269800D02*
X94783200Y-7269800D01*
X97724200Y-7229800D02*
X94706200Y-7229800D01*
X97796200Y-7189800D02*
X94634200Y-7189800D01*
X97865200Y-7149800D02*
X94565200Y-7149800D01*
X97929200Y-7109800D02*
X94501200Y-7109800D01*
X97991200Y-7069800D02*
X94439200Y-7069800D01*
X98049200Y-7029800D02*
X94381200Y-7029800D01*
X98054200Y-848559D02*
X98054200Y-1478559D01*
X98105200Y-6989800D02*
X94325200Y-6989800D01*
X98159200Y-6949800D02*
X94271200Y-6949800D01*
X98210200Y-6909800D02*
X94220200Y-6909800D01*
X98259200Y-6869800D02*
X94171200Y-6869800D01*
X98307200Y-6829800D02*
X94123200Y-6829800D01*
X98352200Y-6789800D02*
X94078200Y-6789800D01*
X98369200Y-1163559D02*
X97739200Y-1163559D01*
X98397200Y-6749800D02*
X94033200Y-6749800D01*
X98439200Y-6709800D02*
X93991200Y-6709800D01*
X98480200Y-6669800D02*
X93950200Y-6669800D01*
X98520200Y-6629800D02*
X97255200Y-6629800D01*
X98558200Y-6589800D02*
X97255200Y-6589800D01*
X98595200Y-6549800D02*
X97255200Y-6549800D01*
X98631200Y-6509800D02*
X97255200Y-6509800D01*
X98665200Y-6469800D02*
X97255200Y-6469800D01*
X98699200Y-6429800D02*
X97255200Y-6429800D01*
X98731200Y-6389800D02*
X97255200Y-6389800D01*
X98763200Y-6349800D02*
X97255200Y-6349800D01*
X98793200Y-6309800D02*
X97255200Y-6309800D01*
X98822200Y-6269800D02*
X97255200Y-6269800D01*
X98851200Y-6229800D02*
X97255200Y-6229800D01*
X98879200Y-6189800D02*
X97255200Y-6189800D01*
X98905200Y-6149800D02*
X97255200Y-6149800D01*
X98931200Y-6109800D02*
X97255200Y-6109800D01*
X98957200Y-6069800D02*
X97255200Y-6069800D01*
X98981200Y-6029800D02*
X97255200Y-6029800D01*
X99005200Y-5989800D02*
X97255200Y-5989800D01*
X99027200Y-5949800D02*
X97255200Y-5949800D01*
X99049200Y-5909800D02*
X97255200Y-5909800D01*
X99071200Y-5869800D02*
X97255200Y-5869800D01*
X99091200Y-5829800D02*
X97255200Y-5829800D01*
X99111200Y-5789800D02*
X97255200Y-5789800D01*
X99131200Y-5749800D02*
X97255200Y-5749800D01*
X99149200Y-5709800D02*
X97255200Y-5709800D01*
X99167200Y-5669800D02*
X97255200Y-5669800D01*
X99185200Y-5629800D02*
X97255200Y-5629800D01*
X99201200Y-5589800D02*
X97255200Y-5589800D01*
X99217200Y-5549800D02*
X97255200Y-5549800D01*
X99233200Y-5509800D02*
X97255200Y-5509800D01*
X99248200Y-5469800D02*
X97255200Y-5469800D01*
X99262200Y-5429800D02*
X97255200Y-5429800D01*
X99276200Y-5389800D02*
X97255200Y-5389800D01*
X99289200Y-5349800D02*
X97255200Y-5349800D01*
X99301200Y-5309800D02*
X97255200Y-5309800D01*
X99313200Y-5269800D02*
X97255200Y-5269800D01*
X99325200Y-5229800D02*
X97255200Y-5229800D01*
X99336200Y-5189800D02*
X97255200Y-5189800D01*
X99346200Y-5149800D02*
X97255200Y-5149800D01*
X99356200Y-5109800D02*
X97255200Y-5109800D01*
X99365200Y-5069800D02*
X97255200Y-5069800D01*
X99374200Y-5028800D02*
X97255200Y-5028800D01*
X99382200Y-4988800D02*
X97255200Y-4988800D01*
X99390200Y-4948800D02*
X97255200Y-4948800D01*
X99397200Y-4908800D02*
X97255200Y-4908800D01*
X99404200Y-4868800D02*
X97255200Y-4868800D01*
X99410200Y-4828800D02*
X97255200Y-4828800D01*
X99416200Y-4788800D02*
X97255200Y-4788800D01*
X99421200Y-4748800D02*
X97255200Y-4748800D01*
X99426200Y-4708800D02*
X97255200Y-4708800D01*
X99430200Y-4668800D02*
X97255200Y-4668800D01*
X99433200Y-4628800D02*
X97255200Y-4628800D01*
X99437200Y-4588800D02*
X97255200Y-4588800D01*
X99439200Y-4548800D02*
X92991200Y-4548800D01*
X99442200Y-4508800D02*
X92988200Y-4508800D01*
X99443200Y-4468800D02*
X92987200Y-4468800D01*
X99445200Y-4348800D02*
X92985200Y-4348800D01*
X99445200Y-4388800D02*
X92985200Y-4388800D01*
X99445200Y-4428800D02*
X92985200Y-4428800D01*
X99485200Y-4348800D02*
G75*
G02*
X92945200Y-4348800I-3270000J0D01*
G01*
X92945200Y-4348800D02*
G75*
G02*
X99485200Y-4348800I3270000J0D01*
G01*
%TO.C,R14*%
X78765400Y-16134600D02*
X78765400Y-16754600D01*
X79685400Y-15214600D02*
G75*
G02*
X77845400Y-15214600I-920000J0D01*
G01*
X77845400Y-15214600D02*
G75*
G02*
X79685400Y-15214600I920000J0D01*
G01*
%TO.C,J7*%
X99579800Y-29080000D02*
X102899800Y-29080000D01*
X99579800Y-43320000D02*
X99579800Y-29080000D01*
X99879800Y-43320000D02*
X99579800Y-43320000D01*
X99879800Y-47320000D02*
X99879800Y-43320000D01*
X105149800Y-29080000D02*
X108019800Y-29080000D01*
X106119800Y-43320000D02*
X106119800Y-47320000D01*
X106119800Y-47320000D02*
X99879800Y-47320000D01*
X108019800Y-29080000D02*
X108019800Y-43320000D01*
X108019800Y-43320000D02*
X106119800Y-43320000D01*
D15*
%TO.C,J3*%
X11822200Y-21802800D02*
X11822200Y-21802800D01*
X11822200Y-21802800D02*
X11822200Y-21802800D01*
X11822200Y-21802800D02*
X11822200Y-24402800D01*
X11822200Y-21802800D02*
X30022200Y-21802800D01*
X11822200Y-24402800D02*
X11822200Y-21802800D01*
X11822200Y-24402800D02*
X11822200Y-24402800D01*
X11822200Y-43452800D02*
X11822200Y-43452800D01*
X11822200Y-43452800D02*
X11822200Y-45802800D01*
X11822200Y-45802800D02*
X11822200Y-43452800D01*
X11822200Y-45802800D02*
X11822200Y-45802800D01*
X11822200Y-45802800D02*
X11822200Y-45802800D01*
X11822200Y-45802800D02*
X30022200Y-45802800D01*
X30022200Y-21802800D02*
X11822200Y-21802800D01*
X30022200Y-21802800D02*
X30022200Y-21802800D01*
X30022200Y-21802800D02*
X30022200Y-21802800D01*
X30022200Y-21802800D02*
X30022200Y-24402800D01*
X30022200Y-24402800D02*
X30022200Y-21802800D01*
X30022200Y-24402800D02*
X30022200Y-24402800D01*
X30022200Y-45802800D02*
X11822200Y-45802800D01*
X30022200Y-45802800D02*
X30022200Y-45802800D01*
X30037200Y-42952800D02*
X30037200Y-42952800D01*
X30037200Y-42952800D02*
X30037200Y-45802800D01*
X30037200Y-45802800D02*
X30037200Y-42952800D01*
X30037200Y-45802800D02*
X30037200Y-45802800D01*
D16*
X31237200Y-41452800D02*
X31237200Y-41452800D01*
X31237200Y-41452800D02*
X31237200Y-41452800D01*
X31237200Y-41552800D02*
X31237200Y-41552800D01*
X31237200Y-41452800D02*
G75*
G02*
X31237200Y-41552800I0J-50000D01*
G01*
X31237200Y-41552800D02*
G75*
G02*
X31237200Y-41452800I0J50000D01*
G01*
X31237200Y-41552800D02*
G75*
G02*
X31237200Y-41452800I0J50000D01*
G01*
D14*
%TO.C,R8*%
X97313000Y-11074400D02*
X97933000Y-11074400D01*
X97313000Y-11074400D02*
G75*
G02*
X95473000Y-11074400I-920000J0D01*
G01*
X95473000Y-11074400D02*
G75*
G02*
X97313000Y-11074400I920000J0D01*
G01*
%TO.C,R10*%
X21056600Y-16312400D02*
X21056600Y-16932400D01*
X21976600Y-15392400D02*
G75*
G02*
X20136600Y-15392400I-920000J0D01*
G01*
X20136600Y-15392400D02*
G75*
G02*
X21976600Y-15392400I920000J0D01*
G01*
%TO.C,R3*%
X30663400Y-10820400D02*
X31283400Y-10820400D01*
X30663400Y-10820400D02*
G75*
G02*
X28823400Y-10820400I-920000J0D01*
G01*
X28823400Y-10820400D02*
G75*
G02*
X30663400Y-10820400I920000J0D01*
G01*
%TO.C,C2*%
X20042000Y-4665000D02*
X17860000Y-4665000D01*
X20042000Y-4705000D02*
X17864000Y-4705000D01*
X20042000Y-4745000D02*
X17867000Y-4745000D01*
X20042000Y-4785000D02*
X17871000Y-4785000D01*
X20042000Y-4825000D02*
X17876000Y-4825000D01*
X20042000Y-4865000D02*
X17881000Y-4865000D01*
X20042000Y-4905000D02*
X17887000Y-4905000D01*
X20042000Y-4945000D02*
X17893000Y-4945000D01*
X20042000Y-4985000D02*
X17900000Y-4985000D01*
X20042000Y-5025000D02*
X17907000Y-5025000D01*
X20042000Y-5065000D02*
X17915000Y-5065000D01*
X20042000Y-5105000D02*
X17923000Y-5105000D01*
X20042000Y-5146000D02*
X17932000Y-5146000D01*
X20042000Y-5186000D02*
X17941000Y-5186000D01*
X20042000Y-5226000D02*
X17951000Y-5226000D01*
X20042000Y-5266000D02*
X17961000Y-5266000D01*
X20042000Y-5306000D02*
X17972000Y-5306000D01*
X20042000Y-5346000D02*
X17984000Y-5346000D01*
X20042000Y-5386000D02*
X17996000Y-5386000D01*
X20042000Y-5426000D02*
X18008000Y-5426000D01*
X20042000Y-5466000D02*
X18021000Y-5466000D01*
X20042000Y-5506000D02*
X18035000Y-5506000D01*
X20042000Y-5546000D02*
X18049000Y-5546000D01*
X20042000Y-5586000D02*
X18064000Y-5586000D01*
X20042000Y-5626000D02*
X18080000Y-5626000D01*
X20042000Y-5666000D02*
X18096000Y-5666000D01*
X20042000Y-5706000D02*
X18112000Y-5706000D01*
X20042000Y-5746000D02*
X18130000Y-5746000D01*
X20042000Y-5786000D02*
X18148000Y-5786000D01*
X20042000Y-5826000D02*
X18166000Y-5826000D01*
X20042000Y-5866000D02*
X18186000Y-5866000D01*
X20042000Y-5906000D02*
X18206000Y-5906000D01*
X20042000Y-5946000D02*
X18226000Y-5946000D01*
X20042000Y-5986000D02*
X18248000Y-5986000D01*
X20042000Y-6026000D02*
X18270000Y-6026000D01*
X20042000Y-6066000D02*
X18292000Y-6066000D01*
X20042000Y-6106000D02*
X18316000Y-6106000D01*
X20042000Y-6146000D02*
X18340000Y-6146000D01*
X20042000Y-6186000D02*
X18366000Y-6186000D01*
X20042000Y-6226000D02*
X18392000Y-6226000D01*
X20042000Y-6266000D02*
X18418000Y-6266000D01*
X20042000Y-6306000D02*
X18446000Y-6306000D01*
X20042000Y-6346000D02*
X18475000Y-6346000D01*
X20042000Y-6386000D02*
X18504000Y-6386000D01*
X20042000Y-6426000D02*
X18534000Y-6426000D01*
X20042000Y-6466000D02*
X18566000Y-6466000D01*
X20042000Y-6506000D02*
X18598000Y-6506000D01*
X20042000Y-6546000D02*
X18632000Y-6546000D01*
X20042000Y-6586000D02*
X18666000Y-6586000D01*
X20042000Y-6626000D02*
X18702000Y-6626000D01*
X20042000Y-6666000D02*
X18739000Y-6666000D01*
X20042000Y-6706000D02*
X18777000Y-6706000D01*
X21484000Y-7666000D02*
X20680000Y-7666000D01*
X21715000Y-7626000D02*
X20449000Y-7626000D01*
X21884000Y-7586000D02*
X20280000Y-7586000D01*
X22022000Y-7546000D02*
X20142000Y-7546000D01*
X22141000Y-7506000D02*
X20023000Y-7506000D01*
X22247000Y-7466000D02*
X19917000Y-7466000D01*
X22344000Y-7426000D02*
X19820000Y-7426000D01*
X22432000Y-7386000D02*
X19732000Y-7386000D01*
X22514000Y-7346000D02*
X19650000Y-7346000D01*
X22591000Y-7306000D02*
X19573000Y-7306000D01*
X22663000Y-7266000D02*
X19501000Y-7266000D01*
X22732000Y-7226000D02*
X19432000Y-7226000D01*
X22796000Y-7186000D02*
X19368000Y-7186000D01*
X22858000Y-7146000D02*
X19306000Y-7146000D01*
X22916000Y-7106000D02*
X19248000Y-7106000D01*
X22921000Y-924759D02*
X22921000Y-1554759D01*
X22972000Y-7066000D02*
X19192000Y-7066000D01*
X23026000Y-7026000D02*
X19138000Y-7026000D01*
X23077000Y-6986000D02*
X19087000Y-6986000D01*
X23126000Y-6946000D02*
X19038000Y-6946000D01*
X23174000Y-6906000D02*
X18990000Y-6906000D01*
X23219000Y-6866000D02*
X18945000Y-6866000D01*
X23236000Y-1239759D02*
X22606000Y-1239759D01*
X23264000Y-6826000D02*
X18900000Y-6826000D01*
X23306000Y-6786000D02*
X18858000Y-6786000D01*
X23347000Y-6746000D02*
X18817000Y-6746000D01*
X23387000Y-6706000D02*
X22122000Y-6706000D01*
X23425000Y-6666000D02*
X22122000Y-6666000D01*
X23462000Y-6626000D02*
X22122000Y-6626000D01*
X23498000Y-6586000D02*
X22122000Y-6586000D01*
X23532000Y-6546000D02*
X22122000Y-6546000D01*
X23566000Y-6506000D02*
X22122000Y-6506000D01*
X23598000Y-6466000D02*
X22122000Y-6466000D01*
X23630000Y-6426000D02*
X22122000Y-6426000D01*
X23660000Y-6386000D02*
X22122000Y-6386000D01*
X23689000Y-6346000D02*
X22122000Y-6346000D01*
X23718000Y-6306000D02*
X22122000Y-6306000D01*
X23746000Y-6266000D02*
X22122000Y-6266000D01*
X23772000Y-6226000D02*
X22122000Y-6226000D01*
X23798000Y-6186000D02*
X22122000Y-6186000D01*
X23824000Y-6146000D02*
X22122000Y-6146000D01*
X23848000Y-6106000D02*
X22122000Y-6106000D01*
X23872000Y-6066000D02*
X22122000Y-6066000D01*
X23894000Y-6026000D02*
X22122000Y-6026000D01*
X23916000Y-5986000D02*
X22122000Y-5986000D01*
X23938000Y-5946000D02*
X22122000Y-5946000D01*
X23958000Y-5906000D02*
X22122000Y-5906000D01*
X23978000Y-5866000D02*
X22122000Y-5866000D01*
X23998000Y-5826000D02*
X22122000Y-5826000D01*
X24016000Y-5786000D02*
X22122000Y-5786000D01*
X24034000Y-5746000D02*
X22122000Y-5746000D01*
X24052000Y-5706000D02*
X22122000Y-5706000D01*
X24068000Y-5666000D02*
X22122000Y-5666000D01*
X24084000Y-5626000D02*
X22122000Y-5626000D01*
X24100000Y-5586000D02*
X22122000Y-5586000D01*
X24115000Y-5546000D02*
X22122000Y-5546000D01*
X24129000Y-5506000D02*
X22122000Y-5506000D01*
X24143000Y-5466000D02*
X22122000Y-5466000D01*
X24156000Y-5426000D02*
X22122000Y-5426000D01*
X24168000Y-5386000D02*
X22122000Y-5386000D01*
X24180000Y-5346000D02*
X22122000Y-5346000D01*
X24192000Y-5306000D02*
X22122000Y-5306000D01*
X24203000Y-5266000D02*
X22122000Y-5266000D01*
X24213000Y-5226000D02*
X22122000Y-5226000D01*
X24223000Y-5186000D02*
X22122000Y-5186000D01*
X24232000Y-5146000D02*
X22122000Y-5146000D01*
X24241000Y-5105000D02*
X22122000Y-5105000D01*
X24249000Y-5065000D02*
X22122000Y-5065000D01*
X24257000Y-5025000D02*
X22122000Y-5025000D01*
X24264000Y-4985000D02*
X22122000Y-4985000D01*
X24271000Y-4945000D02*
X22122000Y-4945000D01*
X24277000Y-4905000D02*
X22122000Y-4905000D01*
X24283000Y-4865000D02*
X22122000Y-4865000D01*
X24288000Y-4825000D02*
X22122000Y-4825000D01*
X24293000Y-4785000D02*
X22122000Y-4785000D01*
X24297000Y-4745000D02*
X22122000Y-4745000D01*
X24300000Y-4705000D02*
X22122000Y-4705000D01*
X24304000Y-4665000D02*
X22122000Y-4665000D01*
X24306000Y-4625000D02*
X17858000Y-4625000D01*
X24309000Y-4585000D02*
X17855000Y-4585000D01*
X24310000Y-4545000D02*
X17854000Y-4545000D01*
X24312000Y-4425000D02*
X17852000Y-4425000D01*
X24312000Y-4465000D02*
X17852000Y-4465000D01*
X24312000Y-4505000D02*
X17852000Y-4505000D01*
X24352000Y-4425000D02*
G75*
G02*
X17812000Y-4425000I-3270000J0D01*
G01*
X17812000Y-4425000D02*
G75*
G02*
X24352000Y-4425000I3270000J0D01*
G01*
%TO.C,C1*%
X11456800Y-4665000D02*
X9274800Y-4665000D01*
X11456800Y-4705000D02*
X9278800Y-4705000D01*
X11456800Y-4745000D02*
X9281800Y-4745000D01*
X11456800Y-4785000D02*
X9285800Y-4785000D01*
X11456800Y-4825000D02*
X9290800Y-4825000D01*
X11456800Y-4865000D02*
X9295800Y-4865000D01*
X11456800Y-4905000D02*
X9301800Y-4905000D01*
X11456800Y-4945000D02*
X9307800Y-4945000D01*
X11456800Y-4985000D02*
X9314800Y-4985000D01*
X11456800Y-5025000D02*
X9321800Y-5025000D01*
X11456800Y-5065000D02*
X9329800Y-5065000D01*
X11456800Y-5105000D02*
X9337800Y-5105000D01*
X11456800Y-5146000D02*
X9346800Y-5146000D01*
X11456800Y-5186000D02*
X9355800Y-5186000D01*
X11456800Y-5226000D02*
X9365800Y-5226000D01*
X11456800Y-5266000D02*
X9375800Y-5266000D01*
X11456800Y-5306000D02*
X9386800Y-5306000D01*
X11456800Y-5346000D02*
X9398800Y-5346000D01*
X11456800Y-5386000D02*
X9410800Y-5386000D01*
X11456800Y-5426000D02*
X9422800Y-5426000D01*
X11456800Y-5466000D02*
X9435800Y-5466000D01*
X11456800Y-5506000D02*
X9449800Y-5506000D01*
X11456800Y-5546000D02*
X9463800Y-5546000D01*
X11456800Y-5586000D02*
X9478800Y-5586000D01*
X11456800Y-5626000D02*
X9494800Y-5626000D01*
X11456800Y-5666000D02*
X9510800Y-5666000D01*
X11456800Y-5706000D02*
X9526800Y-5706000D01*
X11456800Y-5746000D02*
X9544800Y-5746000D01*
X11456800Y-5786000D02*
X9562800Y-5786000D01*
X11456800Y-5826000D02*
X9580800Y-5826000D01*
X11456800Y-5866000D02*
X9600800Y-5866000D01*
X11456800Y-5906000D02*
X9620800Y-5906000D01*
X11456800Y-5946000D02*
X9640800Y-5946000D01*
X11456800Y-5986000D02*
X9662800Y-5986000D01*
X11456800Y-6026000D02*
X9684800Y-6026000D01*
X11456800Y-6066000D02*
X9706800Y-6066000D01*
X11456800Y-6106000D02*
X9730800Y-6106000D01*
X11456800Y-6146000D02*
X9754800Y-6146000D01*
X11456800Y-6186000D02*
X9780800Y-6186000D01*
X11456800Y-6226000D02*
X9806800Y-6226000D01*
X11456800Y-6266000D02*
X9832800Y-6266000D01*
X11456800Y-6306000D02*
X9860800Y-6306000D01*
X11456800Y-6346000D02*
X9889800Y-6346000D01*
X11456800Y-6386000D02*
X9918800Y-6386000D01*
X11456800Y-6426000D02*
X9948800Y-6426000D01*
X11456800Y-6466000D02*
X9980800Y-6466000D01*
X11456800Y-6506000D02*
X10012800Y-6506000D01*
X11456800Y-6546000D02*
X10046800Y-6546000D01*
X11456800Y-6586000D02*
X10080800Y-6586000D01*
X11456800Y-6626000D02*
X10116800Y-6626000D01*
X11456800Y-6666000D02*
X10153800Y-6666000D01*
X11456800Y-6706000D02*
X10191800Y-6706000D01*
X12898800Y-7666000D02*
X12094800Y-7666000D01*
X13129800Y-7626000D02*
X11863800Y-7626000D01*
X13298800Y-7586000D02*
X11694800Y-7586000D01*
X13436800Y-7546000D02*
X11556800Y-7546000D01*
X13555800Y-7506000D02*
X11437800Y-7506000D01*
X13661800Y-7466000D02*
X11331800Y-7466000D01*
X13758800Y-7426000D02*
X11234800Y-7426000D01*
X13846800Y-7386000D02*
X11146800Y-7386000D01*
X13928800Y-7346000D02*
X11064800Y-7346000D01*
X14005800Y-7306000D02*
X10987800Y-7306000D01*
X14077800Y-7266000D02*
X10915800Y-7266000D01*
X14146800Y-7226000D02*
X10846800Y-7226000D01*
X14210800Y-7186000D02*
X10782800Y-7186000D01*
X14272800Y-7146000D02*
X10720800Y-7146000D01*
X14330800Y-7106000D02*
X10662800Y-7106000D01*
X14335800Y-924759D02*
X14335800Y-1554759D01*
X14386800Y-7066000D02*
X10606800Y-7066000D01*
X14440800Y-7026000D02*
X10552800Y-7026000D01*
X14491800Y-6986000D02*
X10501800Y-6986000D01*
X14540800Y-6946000D02*
X10452800Y-6946000D01*
X14588800Y-6906000D02*
X10404800Y-6906000D01*
X14633800Y-6866000D02*
X10359800Y-6866000D01*
X14650800Y-1239759D02*
X14020800Y-1239759D01*
X14678800Y-6826000D02*
X10314800Y-6826000D01*
X14720800Y-6786000D02*
X10272800Y-6786000D01*
X14761800Y-6746000D02*
X10231800Y-6746000D01*
X14801800Y-6706000D02*
X13536800Y-6706000D01*
X14839800Y-6666000D02*
X13536800Y-6666000D01*
X14876800Y-6626000D02*
X13536800Y-6626000D01*
X14912800Y-6586000D02*
X13536800Y-6586000D01*
X14946800Y-6546000D02*
X13536800Y-6546000D01*
X14980800Y-6506000D02*
X13536800Y-6506000D01*
X15012800Y-6466000D02*
X13536800Y-6466000D01*
X15044800Y-6426000D02*
X13536800Y-6426000D01*
X15074800Y-6386000D02*
X13536800Y-6386000D01*
X15103800Y-6346000D02*
X13536800Y-6346000D01*
X15132800Y-6306000D02*
X13536800Y-6306000D01*
X15160800Y-6266000D02*
X13536800Y-6266000D01*
X15186800Y-6226000D02*
X13536800Y-6226000D01*
X15212800Y-6186000D02*
X13536800Y-6186000D01*
X15238800Y-6146000D02*
X13536800Y-6146000D01*
X15262800Y-6106000D02*
X13536800Y-6106000D01*
X15286800Y-6066000D02*
X13536800Y-6066000D01*
X15308800Y-6026000D02*
X13536800Y-6026000D01*
X15330800Y-5986000D02*
X13536800Y-5986000D01*
X15352800Y-5946000D02*
X13536800Y-5946000D01*
X15372800Y-5906000D02*
X13536800Y-5906000D01*
X15392800Y-5866000D02*
X13536800Y-5866000D01*
X15412800Y-5826000D02*
X13536800Y-5826000D01*
X15430800Y-5786000D02*
X13536800Y-5786000D01*
X15448800Y-5746000D02*
X13536800Y-5746000D01*
X15466800Y-5706000D02*
X13536800Y-5706000D01*
X15482800Y-5666000D02*
X13536800Y-5666000D01*
X15498800Y-5626000D02*
X13536800Y-5626000D01*
X15514800Y-5586000D02*
X13536800Y-5586000D01*
X15529800Y-5546000D02*
X13536800Y-5546000D01*
X15543800Y-5506000D02*
X13536800Y-5506000D01*
X15557800Y-5466000D02*
X13536800Y-5466000D01*
X15570800Y-5426000D02*
X13536800Y-5426000D01*
X15582800Y-5386000D02*
X13536800Y-5386000D01*
X15594800Y-5346000D02*
X13536800Y-5346000D01*
X15606800Y-5306000D02*
X13536800Y-5306000D01*
X15617800Y-5266000D02*
X13536800Y-5266000D01*
X15627800Y-5226000D02*
X13536800Y-5226000D01*
X15637800Y-5186000D02*
X13536800Y-5186000D01*
X15646800Y-5146000D02*
X13536800Y-5146000D01*
X15655800Y-5105000D02*
X13536800Y-5105000D01*
X15663800Y-5065000D02*
X13536800Y-5065000D01*
X15671800Y-5025000D02*
X13536800Y-5025000D01*
X15678800Y-4985000D02*
X13536800Y-4985000D01*
X15685800Y-4945000D02*
X13536800Y-4945000D01*
X15691800Y-4905000D02*
X13536800Y-4905000D01*
X15697800Y-4865000D02*
X13536800Y-4865000D01*
X15702800Y-4825000D02*
X13536800Y-4825000D01*
X15707800Y-4785000D02*
X13536800Y-4785000D01*
X15711800Y-4745000D02*
X13536800Y-4745000D01*
X15714800Y-4705000D02*
X13536800Y-4705000D01*
X15718800Y-4665000D02*
X13536800Y-4665000D01*
X15720800Y-4625000D02*
X9272800Y-4625000D01*
X15723800Y-4585000D02*
X9269800Y-4585000D01*
X15724800Y-4545000D02*
X9268800Y-4545000D01*
X15726800Y-4425000D02*
X9266800Y-4425000D01*
X15726800Y-4465000D02*
X9266800Y-4465000D01*
X15726800Y-4505000D02*
X9266800Y-4505000D01*
X15766800Y-4425000D02*
G75*
G02*
X9226800Y-4425000I-3270000J0D01*
G01*
X9226800Y-4425000D02*
G75*
G02*
X15766800Y-4425000I3270000J0D01*
G01*
%TO.C,R15*%
X87630000Y-16109200D02*
X87630000Y-16729200D01*
X88550000Y-15189200D02*
G75*
G02*
X86710000Y-15189200I-920000J0D01*
G01*
X86710000Y-15189200D02*
G75*
G02*
X88550000Y-15189200I920000J0D01*
G01*
%TO.C,R2*%
X21951200Y-10922000D02*
X22571200Y-10922000D01*
X21951200Y-10922000D02*
G75*
G02*
X20111200Y-10922000I-920000J0D01*
G01*
X20111200Y-10922000D02*
G75*
G02*
X21951200Y-10922000I920000J0D01*
G01*
%TD*%
%LPC*%
D17*
%TO.C,C6*%
X78875467Y-3098800D03*
D18*
X78875467Y-5598800D03*
%TD*%
D19*
%TO.C,J5*%
X73037200Y-41452800D03*
X56807200Y-41452800D03*
X73037200Y-35102800D03*
X56807200Y-35102800D03*
X73037200Y-28752800D03*
X56807200Y-28752800D03*
%TD*%
D20*
%TO.C,R6*%
X78765400Y-11099800D03*
D21*
X81305400Y-11099800D03*
%TD*%
D20*
%TO.C,R12*%
X38328600Y-15240000D03*
D21*
X38328600Y-17780000D03*
%TD*%
D20*
%TO.C,R4*%
X38303200Y-10820400D03*
D21*
X40843200Y-10820400D03*
%TD*%
D17*
%TO.C,C5*%
X70205600Y-3098800D03*
D18*
X70205600Y-5598800D03*
%TD*%
D22*
%TO.C,J2*%
X2899800Y-34100000D03*
X4899800Y-35900000D03*
X4899800Y-42000000D03*
X2899800Y-39600000D03*
X4899800Y-30400000D03*
%TD*%
D20*
%TO.C,R7*%
X87579200Y-11099800D03*
D21*
X90119200Y-11099800D03*
%TD*%
D17*
%TO.C,C7*%
X87545333Y-3098800D03*
D18*
X87545333Y-5598800D03*
%TD*%
D19*
%TO.C,J6*%
X95037200Y-41452800D03*
X78807200Y-41452800D03*
X95037200Y-35102800D03*
X78807200Y-35102800D03*
X95037200Y-28752800D03*
X78807200Y-28752800D03*
%TD*%
D20*
%TO.C,R16*%
X96443800Y-15214600D03*
D21*
X96443800Y-17754600D03*
%TD*%
D20*
%TO.C,R11*%
X29692600Y-15290800D03*
D21*
X29692600Y-17830800D03*
%TD*%
D20*
%TO.C,R5*%
X70205600Y-11099800D03*
D21*
X72745600Y-11099800D03*
%TD*%
D17*
%TO.C,C4*%
X38252400Y-3175000D03*
D18*
X38252400Y-5675000D03*
%TD*%
D17*
%TO.C,C3*%
X29667200Y-3175000D03*
D18*
X29667200Y-5675000D03*
%TD*%
D20*
%TO.C,R9*%
X12496800Y-17881600D03*
D21*
X12496800Y-15341600D03*
%TD*%
D20*
%TO.C,R1*%
X12547600Y-11023600D03*
D21*
X15087600Y-11023600D03*
%TD*%
D19*
%TO.C,J4*%
X51037200Y-41452800D03*
X34807200Y-41452800D03*
X51037200Y-35102800D03*
X34807200Y-35102800D03*
X51037200Y-28752800D03*
X34807200Y-28752800D03*
%TD*%
D23*
%TO.C,J1*%
X48310800Y-10464800D03*
D24*
X48310800Y-7924800D03*
X50850800Y-10464800D03*
X50850800Y-7924800D03*
X53390800Y-10464800D03*
X53390800Y-7924800D03*
X55930800Y-10464800D03*
X55930800Y-7924800D03*
X58470800Y-10464800D03*
X58470800Y-7924800D03*
X61010800Y-10464800D03*
X61010800Y-7924800D03*
%TD*%
D20*
%TO.C,R13*%
X70154800Y-15163800D03*
D21*
X70154800Y-17703800D03*
%TD*%
D17*
%TO.C,C8*%
X96215200Y-3098800D03*
D18*
X96215200Y-5598800D03*
%TD*%
D20*
%TO.C,R14*%
X78765400Y-15214600D03*
D21*
X78765400Y-17754600D03*
%TD*%
D22*
%TO.C,J7*%
X101899800Y-34100000D03*
X103899800Y-35900000D03*
X103899800Y-42000000D03*
X101899800Y-39600000D03*
X103899800Y-30400000D03*
%TD*%
D19*
%TO.C,J3*%
X29037200Y-41452800D03*
X12807200Y-41452800D03*
X29037200Y-35102800D03*
X12807200Y-35102800D03*
X29037200Y-28752800D03*
X12807200Y-28752800D03*
%TD*%
D25*
%TO.C,H2*%
X104500000Y-4240000D03*
%TD*%
D20*
%TO.C,R8*%
X96393000Y-11074400D03*
D21*
X98933000Y-11074400D03*
%TD*%
D20*
%TO.C,R10*%
X21056600Y-15392400D03*
D21*
X21056600Y-17932400D03*
%TD*%
D20*
%TO.C,R3*%
X29743400Y-10820400D03*
D21*
X32283400Y-10820400D03*
%TD*%
D25*
%TO.C,H1*%
X3899800Y-4240000D03*
%TD*%
D17*
%TO.C,C2*%
X21082000Y-3175000D03*
D18*
X21082000Y-5675000D03*
%TD*%
D17*
%TO.C,C1*%
X12496800Y-3175000D03*
D18*
X12496800Y-5675000D03*
%TD*%
D20*
%TO.C,R15*%
X87630000Y-15189200D03*
D21*
X87630000Y-17729200D03*
%TD*%
D20*
%TO.C,R2*%
X21031200Y-10922000D03*
D21*
X23571200Y-10922000D03*
%TD*%
%LPD*%
M02*
