%TF.GenerationSoftware,KiCad,Pcbnew,9.0.0*%
%TF.CreationDate,2025-03-26T11:57:41+11:00*%
%TF.ProjectId,Wing Board 4 TRS Mk IV,57696e67-2042-46f6-9172-642034205452,rev?*%
%TF.SameCoordinates,Original*%
%TF.FileFunction,Legend,Bot*%
%TF.FilePolarity,Positive*%
%FSLAX46Y46*%
G04 Gerber Fmt 4.6, Leading zero omitted, Abs format (unit mm)*
G04 Created by KiCad (PCBNEW 9.0.0) date 2025-03-26 11:57:41*
%MOMM*%
%LPD*%
G01*
G04 APERTURE LIST*
G04 Aperture macros list*
%AMHorizOval*
0 Thick line with rounded ends*
0 $1 width*
0 $2 $3 position (X,Y) of the first rounded end (center of the circle)*
0 $4 $5 position (X,Y) of the second rounded end (center of the circle)*
0 Add line between two ends*
20,1,$1,$2,$3,$4,$5,0*
0 Add two circle primitives to create the rounded ends*
1,1,$1,$2,$3*
1,1,$1,$4,$5*%
%AMFreePoly0*
4,1,23,0.500000,-0.750000,0.000000,-0.750000,0.000000,-0.745722,-0.065263,-0.745722,-0.191342,-0.711940,-0.304381,-0.646677,-0.396677,-0.554381,-0.461940,-0.441342,-0.495722,-0.315263,-0.495722,-0.250000,-0.500000,-0.250000,-0.500000,0.250000,-0.495722,0.250000,-0.495722,0.315263,-0.461940,0.441342,-0.396677,0.554381,-0.304381,0.646677,-0.191342,0.711940,-0.065263,0.745722,0.000000,0.745722,
0.000000,0.750000,0.500000,0.750000,0.500000,-0.750000,0.500000,-0.750000,$1*%
%AMFreePoly1*
4,1,23,0.000000,0.745722,0.065263,0.745722,0.191342,0.711940,0.304381,0.646677,0.396677,0.554381,0.461940,0.441342,0.495722,0.315263,0.495722,0.250000,0.500000,0.250000,0.500000,-0.250000,0.495722,-0.250000,0.495722,-0.315263,0.461940,-0.441342,0.396677,-0.554381,0.304381,-0.646677,0.191342,-0.711940,0.065263,-0.745722,0.000000,-0.745722,0.000000,-0.750000,-0.500000,-0.750000,
-0.500000,0.750000,0.000000,0.750000,0.000000,0.745722,0.000000,0.745722,$1*%
G04 Aperture macros list end*
%ADD10C,0.087312*%
%ADD11C,0.070590*%
%ADD12C,0.203200*%
%ADD13C,0.200000*%
%ADD14C,0.152400*%
%ADD15C,0.254000*%
%ADD16C,0.044450*%
%ADD17C,0.127000*%
%ADD18C,0.120000*%
%ADD19R,1.600000X1.600000*%
%ADD20C,1.600000*%
%ADD21C,2.100000*%
%ADD22C,1.400000*%
%ADD23O,1.400000X1.400000*%
%ADD24HorizOval,2.400000X-0.212132X-0.212132X0.212132X0.212132X0*%
%ADD25R,1.650000X1.650000*%
%ADD26C,1.650000*%
%ADD27C,3.500001*%
%ADD28FreePoly0,180.000000*%
%ADD29FreePoly1,180.000000*%
G04 APERTURE END LIST*
D10*
X25830271Y-23218451D02*
X25908281Y-23222638D01*
X25986627Y-23230207D01*
X26065142Y-23241156D01*
X26143659Y-23255478D01*
X26222013Y-23273172D01*
X26300034Y-23294231D01*
X26377558Y-23318652D01*
X26454417Y-23346431D01*
X26530443Y-23377563D01*
X26605470Y-23412044D01*
X26679332Y-23449870D01*
X26751861Y-23491037D01*
X26822890Y-23535541D01*
X26892253Y-23583377D01*
X26959782Y-23634540D01*
X27025312Y-23689028D01*
X27088673Y-23746835D01*
X27149701Y-23807958D01*
X27208228Y-23872391D01*
X27264087Y-23940132D01*
X27317112Y-24011175D01*
X27367134Y-24085517D01*
X27413988Y-24163153D01*
X27457507Y-24244079D01*
X27502836Y-24334991D01*
X27544440Y-24423844D01*
X27581922Y-24511287D01*
X27614886Y-24597966D01*
X27642935Y-24684528D01*
X27665673Y-24771622D01*
X27682703Y-24859896D01*
X27693627Y-24949995D01*
X27698050Y-25042569D01*
X27695575Y-25138264D01*
X27685805Y-25237728D01*
X27668344Y-25341609D01*
X27642794Y-25450553D01*
X27608759Y-25565210D01*
X27565843Y-25686225D01*
X27513649Y-25814247D01*
X27506078Y-25795629D01*
X27497624Y-25778102D01*
X27488314Y-25761635D01*
X27478174Y-25746199D01*
X27467231Y-25731763D01*
X27455512Y-25718297D01*
X27443043Y-25705770D01*
X27429851Y-25694154D01*
X27415962Y-25683417D01*
X27401404Y-25673529D01*
X27386202Y-25664460D01*
X27370383Y-25656179D01*
X27337001Y-25641865D01*
X27301472Y-25630343D01*
X27264007Y-25621373D01*
X27224821Y-25614713D01*
X27184125Y-25610121D01*
X27142133Y-25607355D01*
X27099058Y-25606175D01*
X27055111Y-25606338D01*
X26965458Y-25609730D01*
X26838684Y-25619267D01*
X26719528Y-25630670D01*
X26607794Y-25644102D01*
X26503282Y-25659727D01*
X26405794Y-25677711D01*
X26315131Y-25698217D01*
X26272298Y-25709467D01*
X26231096Y-25721409D01*
X26191502Y-25734064D01*
X26153490Y-25747453D01*
X26117036Y-25761595D01*
X26082115Y-25776511D01*
X26048701Y-25792222D01*
X26016771Y-25808749D01*
X25986300Y-25826111D01*
X25957262Y-25844330D01*
X25929633Y-25863426D01*
X25903389Y-25883420D01*
X25878503Y-25904331D01*
X25854952Y-25926181D01*
X25832711Y-25948991D01*
X25811755Y-25972779D01*
X25792059Y-25997569D01*
X25773598Y-26023378D01*
X25756348Y-26050230D01*
X25740283Y-26078142D01*
X25733697Y-26086455D01*
X25728153Y-26094700D01*
X25723607Y-26102885D01*
X25720018Y-26111020D01*
X25717343Y-26119114D01*
X25715540Y-26127176D01*
X25714567Y-26135215D01*
X25714381Y-26143240D01*
X25714940Y-26151260D01*
X25716202Y-26159284D01*
X25718123Y-26167322D01*
X25720663Y-26175382D01*
X25723779Y-26183474D01*
X25727428Y-26191605D01*
X25736156Y-26208027D01*
X25746510Y-26224719D01*
X25758150Y-26241754D01*
X25783937Y-26277143D01*
X25797406Y-26295643D01*
X25810807Y-26314776D01*
X25823802Y-26334614D01*
X25836053Y-26355230D01*
X25735180Y-26326260D01*
X25638701Y-26295069D01*
X25546541Y-26261734D01*
X25458623Y-26226335D01*
X25374874Y-26188951D01*
X25295216Y-26149658D01*
X25219575Y-26108537D01*
X25147874Y-26065666D01*
X25080038Y-26021123D01*
X25015992Y-25974986D01*
X24955660Y-25927334D01*
X24898966Y-25878247D01*
X24845835Y-25827801D01*
X24796192Y-25776076D01*
X24749959Y-25723151D01*
X24707063Y-25669103D01*
X24667427Y-25614012D01*
X24630976Y-25557955D01*
X24597634Y-25501012D01*
X24567326Y-25443260D01*
X24539976Y-25384779D01*
X24515508Y-25325647D01*
X24493848Y-25265942D01*
X24474918Y-25205743D01*
X24444950Y-25084176D01*
X24425001Y-24961576D01*
X24414465Y-24838569D01*
X24412737Y-24715785D01*
X24412736Y-24715785D01*
X24415404Y-24655282D01*
X24420266Y-24595052D01*
X24427251Y-24535173D01*
X24436290Y-24475724D01*
X24447313Y-24416786D01*
X24460248Y-24358436D01*
X24475027Y-24300754D01*
X24491579Y-24243820D01*
X24509833Y-24187711D01*
X24529720Y-24132508D01*
X24551170Y-24078290D01*
X24574112Y-24025135D01*
X24598476Y-23973123D01*
X24624192Y-23922333D01*
X24651191Y-23872844D01*
X24679401Y-23824734D01*
X24708752Y-23778085D01*
X24739175Y-23732973D01*
X24770600Y-23689479D01*
X24802955Y-23647682D01*
X24836172Y-23607660D01*
X24870180Y-23569494D01*
X24904908Y-23533261D01*
X24940287Y-23499042D01*
X24976246Y-23466914D01*
X25012716Y-23436958D01*
X25049626Y-23409253D01*
X25086906Y-23383877D01*
X25124486Y-23360910D01*
X25162296Y-23340431D01*
X25200265Y-23322519D01*
X25238323Y-23307253D01*
X25307635Y-23284223D01*
X25378619Y-23264611D01*
X25451106Y-23248411D01*
X25524932Y-23235619D01*
X25599928Y-23226231D01*
X25675928Y-23220244D01*
X25752764Y-23217652D01*
X25830271Y-23218451D01*
D11*
X27139020Y-23796422D02*
X27069862Y-23728788D01*
X26997842Y-23665328D01*
X26923195Y-23606048D01*
X26846155Y-23550954D01*
X26766955Y-23500054D01*
X26685832Y-23453352D01*
X26603018Y-23410856D01*
X26518748Y-23372571D01*
X26433257Y-23338504D01*
X26346778Y-23308661D01*
X26259547Y-23283048D01*
X26171796Y-23261672D01*
X26083761Y-23244539D01*
X25995676Y-23231655D01*
X25907775Y-23223027D01*
X25820293Y-23218660D01*
X25820293Y-23218670D01*
X25766350Y-23193116D01*
X25714674Y-23166740D01*
X25665130Y-23139573D01*
X25617578Y-23111646D01*
X25527905Y-23053638D01*
X25444556Y-22992964D01*
X25366432Y-22929873D01*
X25292431Y-22864612D01*
X25221456Y-22797431D01*
X25152406Y-22728578D01*
X24873470Y-22441418D01*
X24797554Y-22367933D01*
X24716966Y-22294268D01*
X24630606Y-22220670D01*
X24537376Y-22147389D01*
X27942562Y-22141749D01*
X27139020Y-23796422D01*
G36*
X27139020Y-23796422D02*
G01*
X27069862Y-23728788D01*
X26997842Y-23665328D01*
X26923195Y-23606048D01*
X26846155Y-23550954D01*
X26766955Y-23500054D01*
X26685832Y-23453352D01*
X26603018Y-23410856D01*
X26518748Y-23372571D01*
X26433257Y-23338504D01*
X26346778Y-23308661D01*
X26259547Y-23283048D01*
X26171796Y-23261672D01*
X26083761Y-23244539D01*
X25995676Y-23231655D01*
X25907775Y-23223027D01*
X25820293Y-23218660D01*
X25820293Y-23218670D01*
X25766350Y-23193116D01*
X25714674Y-23166740D01*
X25665130Y-23139573D01*
X25617578Y-23111646D01*
X25527905Y-23053638D01*
X25444556Y-22992964D01*
X25366432Y-22929873D01*
X25292431Y-22864612D01*
X25221456Y-22797431D01*
X25152406Y-22728578D01*
X24873470Y-22441418D01*
X24797554Y-22367933D01*
X24716966Y-22294268D01*
X24630606Y-22220670D01*
X24537376Y-22147389D01*
X27942562Y-22141749D01*
X27139020Y-23796422D01*
G37*
D10*
X27785689Y-25095553D02*
X27853069Y-25120682D01*
X27925896Y-25144701D01*
X28002946Y-25168173D01*
X28164820Y-25215740D01*
X28247196Y-25240966D01*
X28328899Y-25267908D01*
X28408706Y-25297130D01*
X28485394Y-25329198D01*
X28557737Y-25364678D01*
X28591897Y-25383873D01*
X28624512Y-25404134D01*
X28655429Y-25425530D01*
X28684495Y-25448132D01*
X28711557Y-25472011D01*
X28736463Y-25497238D01*
X28759058Y-25523883D01*
X28779191Y-25552016D01*
X28796708Y-25581709D01*
X28811456Y-25613033D01*
X28813155Y-25617432D01*
X28813949Y-25620784D01*
X28813878Y-25623165D01*
X28812984Y-25624646D01*
X28811308Y-25625305D01*
X28808894Y-25625213D01*
X28802012Y-25623079D01*
X28753251Y-25599420D01*
X28737420Y-25592696D01*
X28720801Y-25586837D01*
X28712300Y-25584418D01*
X28703727Y-25582438D01*
X28695124Y-25580971D01*
X28686533Y-25580092D01*
X28677994Y-25579875D01*
X28669551Y-25580394D01*
X28661244Y-25581724D01*
X28653115Y-25583939D01*
X28645207Y-25587113D01*
X28637561Y-25591321D01*
X28630217Y-25596636D01*
X28623220Y-25603133D01*
X28616791Y-25610459D01*
X28611100Y-25617597D01*
X28606114Y-25624551D01*
X28601796Y-25631326D01*
X28598112Y-25637927D01*
X28595026Y-25644359D01*
X28592504Y-25650626D01*
X28590511Y-25656735D01*
X28589011Y-25662688D01*
X28587969Y-25668492D01*
X28587350Y-25674151D01*
X28587120Y-25679669D01*
X28587242Y-25685053D01*
X28587683Y-25690306D01*
X28588407Y-25695433D01*
X28589378Y-25700440D01*
X28590563Y-25705330D01*
X28591925Y-25710110D01*
X28595042Y-25719355D01*
X28601867Y-25736724D01*
X28605013Y-25744925D01*
X28607607Y-25752857D01*
X28608610Y-25756733D01*
X28609370Y-25760556D01*
X28609851Y-25764331D01*
X28610019Y-25768062D01*
X28609985Y-25771321D01*
X28609282Y-25773715D01*
X28607938Y-25775310D01*
X28605981Y-25776169D01*
X28603439Y-25776356D01*
X28600339Y-25775936D01*
X28592578Y-25773528D01*
X28544796Y-25752396D01*
X28529779Y-25746799D01*
X28513979Y-25742100D01*
X28505854Y-25740248D01*
X28497617Y-25738813D01*
X28489295Y-25737858D01*
X28480917Y-25737448D01*
X28472509Y-25737647D01*
X28464100Y-25738519D01*
X28455718Y-25740128D01*
X28447390Y-25742538D01*
X28439145Y-25745812D01*
X28431009Y-25750016D01*
X28423012Y-25755212D01*
X28415180Y-25761466D01*
X28407617Y-25768578D01*
X28400992Y-25775683D01*
X28395257Y-25782775D01*
X28390364Y-25789847D01*
X28386264Y-25796893D01*
X28382909Y-25803905D01*
X28380251Y-25810877D01*
X28378241Y-25817803D01*
X28376830Y-25824675D01*
X28375971Y-25831488D01*
X28375615Y-25838234D01*
X28375714Y-25844907D01*
X28376218Y-25851500D01*
X28377081Y-25858007D01*
X28378254Y-25864421D01*
X28379687Y-25870736D01*
X28383145Y-25883039D01*
X28387066Y-25894863D01*
X28394755Y-25916865D01*
X28397749Y-25926936D01*
X28398863Y-25931716D01*
X28399659Y-25936316D01*
X28400087Y-25940730D01*
X28400099Y-25944952D01*
X28399646Y-25948975D01*
X28398681Y-25952791D01*
X28396725Y-25956900D01*
X28393984Y-25959992D01*
X28390505Y-25962135D01*
X28386335Y-25963395D01*
X28381523Y-25963839D01*
X28376114Y-25963532D01*
X28370156Y-25962542D01*
X28363696Y-25960934D01*
X28349459Y-25956133D01*
X28333781Y-25949660D01*
X28299610Y-25933824D01*
X28264200Y-25917679D01*
X28246974Y-25910820D01*
X28230570Y-25905477D01*
X28222795Y-25903541D01*
X28215367Y-25902183D01*
X28208332Y-25901471D01*
X28201740Y-25901470D01*
X28195636Y-25902247D01*
X28190067Y-25903868D01*
X28185082Y-25906400D01*
X28180726Y-25909910D01*
X28176608Y-25914024D01*
X28172907Y-25918316D01*
X28169594Y-25922772D01*
X28166641Y-25927375D01*
X28164020Y-25932112D01*
X28161701Y-25936966D01*
X28159658Y-25941922D01*
X28157860Y-25946967D01*
X28154890Y-25957258D01*
X28152564Y-25967718D01*
X28148934Y-25988662D01*
X28147174Y-25998905D01*
X28145149Y-26008834D01*
X28142631Y-26018328D01*
X28141115Y-26022874D01*
X28139391Y-26027266D01*
X28137430Y-26031490D01*
X28135204Y-26035529D01*
X28132683Y-26039369D01*
X28129840Y-26042994D01*
X28126647Y-26046390D01*
X28123074Y-26049541D01*
X28119093Y-26052433D01*
X28114677Y-26055050D01*
X28107698Y-26057031D01*
X28099209Y-26056865D01*
X28089304Y-26054667D01*
X28078080Y-26050552D01*
X28065633Y-26044635D01*
X28052057Y-26037030D01*
X28021902Y-26017217D01*
X27988380Y-25992030D01*
X27952256Y-25962389D01*
X27914294Y-25929211D01*
X27875257Y-25893414D01*
X27797020Y-25817635D01*
X27723659Y-25742397D01*
X27661289Y-25675045D01*
X27616024Y-25622922D01*
X27616004Y-25622922D01*
X27626334Y-25595318D01*
X27636263Y-25565829D01*
X27645776Y-25534658D01*
X27654859Y-25502008D01*
X27671675Y-25433084D01*
X27686594Y-25360680D01*
X27699501Y-25286421D01*
X27710278Y-25211929D01*
X27718810Y-25138830D01*
X27724980Y-25068746D01*
X27785689Y-25095553D01*
D11*
X19702112Y-22133743D02*
X19702102Y-22133743D01*
X19702113Y-22133733D01*
X19702112Y-22133743D01*
G36*
X19702112Y-22133743D02*
G01*
X19702102Y-22133743D01*
X19702113Y-22133733D01*
X19702112Y-22133743D01*
G37*
D10*
X18726381Y-24317564D02*
X18749754Y-24461327D01*
X18782047Y-24599517D01*
X18823106Y-24731744D01*
X18872780Y-24857618D01*
X18930915Y-24976749D01*
X18997359Y-25088746D01*
X19071960Y-25193220D01*
X19112271Y-25242514D01*
X19154564Y-25289781D01*
X19198820Y-25334972D01*
X19245020Y-25378038D01*
X19293144Y-25418931D01*
X19343174Y-25457601D01*
X19395090Y-25494001D01*
X19448874Y-25528081D01*
X19504506Y-25559793D01*
X19561967Y-25589088D01*
X19621239Y-25615916D01*
X19682301Y-25640230D01*
X19745136Y-25661981D01*
X19809724Y-25681119D01*
X19876045Y-25697596D01*
X19944081Y-25711364D01*
X19944081Y-25711374D01*
X19895334Y-25823804D01*
X19852023Y-25935065D01*
X19780943Y-26153901D01*
X19729299Y-26367524D01*
X19695550Y-26575576D01*
X19678155Y-26777699D01*
X19675574Y-26973535D01*
X19686264Y-27162728D01*
X19708685Y-27344918D01*
X19741296Y-27519749D01*
X19782556Y-27686863D01*
X19830924Y-27845902D01*
X19884858Y-27996508D01*
X19942818Y-28138324D01*
X20003263Y-28270991D01*
X20125441Y-28507451D01*
X20167373Y-28587476D01*
X20210313Y-28677566D01*
X20252330Y-28776450D01*
X20291495Y-28882861D01*
X20325875Y-28995527D01*
X20353540Y-29113181D01*
X20372560Y-29234552D01*
X20378224Y-29296235D01*
X20381003Y-29358372D01*
X20380655Y-29420804D01*
X20376939Y-29483371D01*
X20369613Y-29545916D01*
X20358437Y-29608280D01*
X20343168Y-29670304D01*
X20323565Y-29731829D01*
X20299388Y-29792697D01*
X20270394Y-29852749D01*
X20236343Y-29911827D01*
X20196992Y-29969771D01*
X20152102Y-30026424D01*
X20101429Y-30081626D01*
X20044734Y-30135219D01*
X19981774Y-30187044D01*
X19912308Y-30236942D01*
X19836095Y-30284756D01*
X19790078Y-30309749D01*
X19742383Y-30331701D01*
X19693130Y-30350669D01*
X19642435Y-30366711D01*
X19590419Y-30379884D01*
X19537198Y-30390247D01*
X19482891Y-30397857D01*
X19427615Y-30402772D01*
X19371490Y-30405051D01*
X19314633Y-30404750D01*
X19199197Y-30396643D01*
X19082251Y-30378914D01*
X18964740Y-30352026D01*
X18847611Y-30316442D01*
X18731808Y-30272624D01*
X18618276Y-30221036D01*
X18507961Y-30162141D01*
X18401807Y-30096400D01*
X18300760Y-30024278D01*
X18205765Y-29946237D01*
X18117767Y-29862739D01*
X18052334Y-29792465D01*
X17990320Y-29719505D01*
X17931662Y-29644036D01*
X17876298Y-29566238D01*
X17775203Y-29404365D01*
X17686535Y-29235309D01*
X17609797Y-29060496D01*
X17544489Y-28881349D01*
X17490112Y-28699293D01*
X17446169Y-28515753D01*
X17412160Y-28332154D01*
X17387586Y-28149919D01*
X17371948Y-27970474D01*
X17364749Y-27795244D01*
X17365488Y-27625652D01*
X17373668Y-27463123D01*
X17388790Y-27309082D01*
X17410354Y-27164953D01*
X17472753Y-26862566D01*
X17544068Y-26584167D01*
X17622930Y-26327905D01*
X17707972Y-26091928D01*
X17797823Y-25874386D01*
X17891114Y-25673427D01*
X17986477Y-25487199D01*
X18082543Y-25313852D01*
X18446451Y-24712243D01*
X18525495Y-24575529D01*
X18597027Y-24440587D01*
X18659678Y-24305568D01*
X18712080Y-24168618D01*
X18726381Y-24317564D01*
X25820549Y-24968456D02*
X25827139Y-24969134D01*
X25833929Y-24970162D01*
X25840906Y-24971542D01*
X25848060Y-24973274D01*
X25855380Y-24975361D01*
X25862852Y-24977802D01*
X25870467Y-24980600D01*
X25878213Y-24983755D01*
X25886077Y-24987269D01*
X25894049Y-24991143D01*
X25902118Y-24995379D01*
X25910270Y-24999976D01*
X25918496Y-25004937D01*
X25926784Y-25010263D01*
X25935122Y-25015955D01*
X25935122Y-25015965D01*
X25951481Y-25027505D01*
X25967081Y-25039785D01*
X25981858Y-25052692D01*
X25995751Y-25066116D01*
X26008695Y-25079947D01*
X26020628Y-25094072D01*
X26031487Y-25108380D01*
X26041209Y-25122761D01*
X26049732Y-25137103D01*
X26056992Y-25151296D01*
X26062927Y-25165227D01*
X26067473Y-25178787D01*
X26069206Y-25185392D01*
X26070568Y-25191863D01*
X26071552Y-25198185D01*
X26072149Y-25204344D01*
X26072352Y-25210327D01*
X26072153Y-25216120D01*
X26071544Y-25221709D01*
X26070517Y-25227079D01*
X26069078Y-25232472D01*
X26067245Y-25237516D01*
X26065027Y-25242211D01*
X26062438Y-25246556D01*
X26059489Y-25250551D01*
X26056190Y-25254195D01*
X26052554Y-25257487D01*
X26048592Y-25260428D01*
X26044315Y-25263015D01*
X26039736Y-25265249D01*
X26034864Y-25267129D01*
X26029713Y-25268655D01*
X26024294Y-25269825D01*
X26018617Y-25270640D01*
X26012695Y-25271098D01*
X26006538Y-25271200D01*
X26000160Y-25270943D01*
X25993570Y-25270329D01*
X25986780Y-25269356D01*
X25979803Y-25268023D01*
X25972649Y-25266330D01*
X25965329Y-25264277D01*
X25957857Y-25261862D01*
X25950242Y-25259086D01*
X25942496Y-25255947D01*
X25934632Y-25252445D01*
X25926659Y-25248580D01*
X25918591Y-25244350D01*
X25910438Y-25239755D01*
X25902212Y-25234795D01*
X25893924Y-25229469D01*
X25885586Y-25223776D01*
X25869226Y-25212236D01*
X25853627Y-25199951D01*
X25838849Y-25187028D01*
X25824957Y-25173574D01*
X25812013Y-25159694D01*
X25800080Y-25145496D01*
X25789220Y-25131085D01*
X25779498Y-25116568D01*
X25770975Y-25102050D01*
X25763715Y-25087639D01*
X25757780Y-25073441D01*
X25753234Y-25059561D01*
X25751501Y-25052775D01*
X25750139Y-25046107D01*
X25749155Y-25039573D01*
X25748558Y-25033185D01*
X25748355Y-25026956D01*
X25748554Y-25020900D01*
X25749163Y-25015030D01*
X25750190Y-25009359D01*
X25751629Y-25004266D01*
X25753463Y-24999504D01*
X25755680Y-24995072D01*
X25758269Y-24990972D01*
X25761219Y-24987206D01*
X25764518Y-24983775D01*
X25768154Y-24980679D01*
X25772116Y-24977920D01*
X25776393Y-24975500D01*
X25780973Y-24973419D01*
X25785844Y-24971678D01*
X25790995Y-24970280D01*
X25796415Y-24969224D01*
X25802092Y-24968513D01*
X25808014Y-24968147D01*
X25814170Y-24968128D01*
X25820549Y-24968456D01*
D12*
X61823600Y-27711400D02*
X61823600Y-24517350D01*
D11*
X19601831Y-22228866D02*
X19508145Y-22326813D01*
X19420815Y-22427241D01*
X19339598Y-22529815D01*
X19264254Y-22634202D01*
X19194540Y-22740068D01*
X19130215Y-22847079D01*
X19071038Y-22954902D01*
X19016766Y-23063203D01*
X18967160Y-23171648D01*
X18921976Y-23279903D01*
X18880974Y-23387635D01*
X18843912Y-23494509D01*
X18810548Y-23600193D01*
X18780641Y-23704353D01*
X18753950Y-23806654D01*
X18744080Y-23849661D01*
X18735716Y-23892561D01*
X18728792Y-23935343D01*
X18723246Y-23977993D01*
X18719011Y-24020500D01*
X18716024Y-24062851D01*
X18714219Y-24105034D01*
X18713533Y-24147036D01*
X18697072Y-24193562D01*
X18679306Y-24239777D01*
X18660293Y-24285744D01*
X18640091Y-24331529D01*
X18618757Y-24377195D01*
X18596350Y-24422807D01*
X18548545Y-24514123D01*
X18497137Y-24605992D01*
X18442589Y-24698925D01*
X18325917Y-24890040D01*
X17004971Y-22138164D01*
X19702102Y-22133743D01*
X19601831Y-22228866D01*
G36*
X19601831Y-22228866D02*
G01*
X19508145Y-22326813D01*
X19420815Y-22427241D01*
X19339598Y-22529815D01*
X19264254Y-22634202D01*
X19194540Y-22740068D01*
X19130215Y-22847079D01*
X19071038Y-22954902D01*
X19016766Y-23063203D01*
X18967160Y-23171648D01*
X18921976Y-23279903D01*
X18880974Y-23387635D01*
X18843912Y-23494509D01*
X18810548Y-23600193D01*
X18780641Y-23704353D01*
X18753950Y-23806654D01*
X18744080Y-23849661D01*
X18735716Y-23892561D01*
X18728792Y-23935343D01*
X18723246Y-23977993D01*
X18719011Y-24020500D01*
X18716024Y-24062851D01*
X18714219Y-24105034D01*
X18713533Y-24147036D01*
X18697072Y-24193562D01*
X18679306Y-24239777D01*
X18660293Y-24285744D01*
X18640091Y-24331529D01*
X18618757Y-24377195D01*
X18596350Y-24422807D01*
X18548545Y-24514123D01*
X18497137Y-24605992D01*
X18442589Y-24698925D01*
X18325917Y-24890040D01*
X17004971Y-22138164D01*
X19702102Y-22133743D01*
X19601831Y-22228866D01*
G37*
X22377098Y-25210792D02*
X22503564Y-25219706D01*
X22629174Y-25233033D01*
X22752190Y-25250109D01*
X22870878Y-25270272D01*
X22983500Y-25292862D01*
X23088320Y-25317215D01*
X23183602Y-25342669D01*
X23267609Y-25368562D01*
X23338605Y-25394233D01*
X23394855Y-25419019D01*
X23397249Y-25460413D01*
X23401280Y-25500526D01*
X23406858Y-25539434D01*
X23413899Y-25577208D01*
X23422313Y-25613924D01*
X23432015Y-25649655D01*
X23442917Y-25684474D01*
X23454932Y-25718455D01*
X23481952Y-25784200D01*
X23512379Y-25847479D01*
X23545515Y-25908883D01*
X23580664Y-25969000D01*
X23654212Y-26087738D01*
X23691217Y-26147538D01*
X23727447Y-26208412D01*
X23762206Y-26270950D01*
X23794795Y-26335742D01*
X23824519Y-26403378D01*
X23838089Y-26438447D01*
X23850680Y-26474449D01*
X23851744Y-26474666D01*
X23852723Y-26474837D01*
X23853644Y-26474978D01*
X23854535Y-26475104D01*
X23855424Y-26475231D01*
X23856339Y-26475373D01*
X23857308Y-26475547D01*
X23858359Y-26475768D01*
X23867953Y-26534551D01*
X23874495Y-26594842D01*
X23878310Y-26656296D01*
X23879721Y-26718571D01*
X23879055Y-26781323D01*
X23876637Y-26844208D01*
X23867839Y-26969004D01*
X23843501Y-27205084D01*
X23833157Y-27310873D01*
X23829578Y-27359502D01*
X23827495Y-27404829D01*
X23827557Y-27449846D01*
X23828918Y-27497774D01*
X23831481Y-27547810D01*
X23835148Y-27599151D01*
X23839824Y-27650996D01*
X23845409Y-27702542D01*
X23851808Y-27752987D01*
X23858924Y-27801528D01*
X23866658Y-27847364D01*
X23874915Y-27889691D01*
X23883596Y-27927707D01*
X23892605Y-27960611D01*
X23901845Y-27987600D01*
X23911219Y-28007870D01*
X23915925Y-28015236D01*
X23920629Y-28020621D01*
X23925317Y-28023926D01*
X23929978Y-28025050D01*
X23935787Y-28026114D01*
X23941463Y-28026256D01*
X23947028Y-28025540D01*
X23952505Y-28024028D01*
X23957916Y-28021784D01*
X23963285Y-28018872D01*
X23968632Y-28015355D01*
X23973980Y-28011296D01*
X23984771Y-28001807D01*
X23995838Y-27990913D01*
X24019511Y-27966935D01*
X24032477Y-27954866D01*
X24039321Y-27949034D01*
X24046435Y-27943421D01*
X24053842Y-27938091D01*
X24061564Y-27933107D01*
X24069624Y-27928532D01*
X24078044Y-27924430D01*
X24086846Y-27920864D01*
X24096053Y-27917898D01*
X24105687Y-27915595D01*
X24115771Y-27914018D01*
X24126327Y-27913232D01*
X24137377Y-27913298D01*
X24148945Y-27914281D01*
X24161051Y-27916245D01*
X24173583Y-27919070D01*
X24185800Y-27922567D01*
X24197716Y-27926694D01*
X24209345Y-27931407D01*
X24220701Y-27936663D01*
X24231798Y-27942421D01*
X24242650Y-27948636D01*
X24253270Y-27955266D01*
X24263672Y-27962268D01*
X24273871Y-27969600D01*
X24293714Y-27985078D01*
X24312909Y-28001359D01*
X24331566Y-28018098D01*
X24367716Y-28051582D01*
X24385429Y-28067640D01*
X24403050Y-28082785D01*
X24420690Y-28096673D01*
X24429551Y-28103039D01*
X24438459Y-28108962D01*
X24447427Y-28114400D01*
X24456469Y-28119308D01*
X24465599Y-28123646D01*
X24474831Y-28127369D01*
X24483095Y-28125825D01*
X24490595Y-28123097D01*
X24497396Y-28119260D01*
X24503567Y-28114386D01*
X24509173Y-28108551D01*
X24514284Y-28101827D01*
X24518965Y-28094288D01*
X24523283Y-28086009D01*
X24531102Y-28067522D01*
X24538277Y-28046956D01*
X24552845Y-28001947D01*
X24561311Y-27978684D01*
X24571282Y-27955702D01*
X24577000Y-27944500D01*
X24583295Y-27933590D01*
X24590234Y-27923045D01*
X24597886Y-27912938D01*
X24606316Y-27903345D01*
X24615592Y-27894338D01*
X24625782Y-27885990D01*
X24636951Y-27878377D01*
X24649169Y-27871571D01*
X24662500Y-27865647D01*
X24677014Y-27860677D01*
X24692776Y-27856736D01*
X24701561Y-27855682D01*
X24711163Y-27855566D01*
X24721527Y-27856324D01*
X24732599Y-27857889D01*
X24756646Y-27863180D01*
X24782870Y-27870911D01*
X24810836Y-27880555D01*
X24840107Y-27891586D01*
X24900826Y-27915702D01*
X24961545Y-27939045D01*
X24990816Y-27949109D01*
X25018781Y-27957399D01*
X25045004Y-27963389D01*
X25057326Y-27965357D01*
X25069050Y-27966552D01*
X25080120Y-27966908D01*
X25090484Y-27966360D01*
X25100085Y-27964843D01*
X25108870Y-27962289D01*
X25113296Y-27959984D01*
X25116721Y-27956800D01*
X25119229Y-27952764D01*
X25120903Y-27947906D01*
X25121827Y-27942253D01*
X25122084Y-27935834D01*
X25120932Y-27920810D01*
X25106348Y-27835740D01*
X25103547Y-27809363D01*
X25102421Y-27781396D01*
X25103637Y-27752066D01*
X25105332Y-27736961D01*
X25107863Y-27721600D01*
X25111313Y-27706012D01*
X25115766Y-27690225D01*
X25121305Y-27674267D01*
X25128015Y-27658167D01*
X25135977Y-27641953D01*
X25145277Y-27625654D01*
X25155997Y-27609297D01*
X25168221Y-27592912D01*
X25172693Y-27587688D01*
X25177251Y-27582750D01*
X25181891Y-27578090D01*
X25186608Y-27573700D01*
X25191399Y-27569574D01*
X25196259Y-27565701D01*
X25206173Y-27558691D01*
X25216315Y-27552607D01*
X25226656Y-27547388D01*
X25237161Y-27542972D01*
X25247799Y-27539296D01*
X25258538Y-27536299D01*
X25269344Y-27533920D01*
X25280187Y-27532096D01*
X25291034Y-27530764D01*
X25301851Y-27529864D01*
X25312608Y-27529334D01*
X25323272Y-27529111D01*
X25333810Y-27529133D01*
X25206418Y-27793452D01*
X24822548Y-28581653D01*
X20161800Y-28583153D01*
X20025601Y-28324791D01*
X19957129Y-28183968D01*
X19923631Y-28108581D01*
X19890943Y-28029089D01*
X19859301Y-27944904D01*
X19828944Y-27855434D01*
X19800108Y-27760090D01*
X19773032Y-27658281D01*
X19747952Y-27549418D01*
X19725108Y-27432911D01*
X19704735Y-27308168D01*
X19687072Y-27174601D01*
X19680218Y-27105528D01*
X19675790Y-27036576D01*
X19673641Y-26967882D01*
X19673628Y-26899580D01*
X19675605Y-26831807D01*
X19679429Y-26764699D01*
X19684953Y-26698391D01*
X19692034Y-26633020D01*
X19710286Y-26505629D01*
X19733027Y-26383614D01*
X19759098Y-26268062D01*
X19787342Y-26160058D01*
X19816599Y-26060691D01*
X19845713Y-25971047D01*
X19873526Y-25892212D01*
X19898878Y-25825273D01*
X19937571Y-25731434D01*
X19952527Y-25698221D01*
X19991520Y-25702868D01*
X20029428Y-25705662D01*
X20067027Y-25706709D01*
X20105093Y-25706117D01*
X20144400Y-25703992D01*
X20185725Y-25700439D01*
X20229842Y-25695567D01*
X20277528Y-25689480D01*
X20276816Y-25715142D01*
X20277636Y-25740848D01*
X20279893Y-25766575D01*
X20283493Y-25792299D01*
X20288342Y-25817996D01*
X20294344Y-25843642D01*
X20301405Y-25869215D01*
X20309430Y-25894689D01*
X20327995Y-25945249D01*
X20349282Y-25995132D01*
X20372533Y-26044148D01*
X20396991Y-26092107D01*
X20491755Y-26269571D01*
X20510892Y-26309394D01*
X20526694Y-26347020D01*
X20538403Y-26382259D01*
X20542487Y-26398923D01*
X20545263Y-26414920D01*
X20557610Y-26574608D01*
X20568453Y-26784182D01*
X20582259Y-27023578D01*
X20603494Y-27272728D01*
X20618293Y-27394691D01*
X20636624Y-27511568D01*
X20659045Y-27620851D01*
X20686115Y-27720031D01*
X20701568Y-27765049D01*
X20718392Y-27806600D01*
X20736657Y-27844372D01*
X20756434Y-27878051D01*
X20777791Y-27907322D01*
X20800799Y-27931874D01*
X20825528Y-27951391D01*
X20852047Y-27965562D01*
X20856928Y-27966668D01*
X20861683Y-27966328D01*
X20866343Y-27964625D01*
X20870936Y-27961639D01*
X20875491Y-27957452D01*
X20880036Y-27952145D01*
X20889216Y-27938500D01*
X20898706Y-27921356D01*
X20908740Y-27901366D01*
X20931363Y-27855455D01*
X20944417Y-27830840D01*
X20958940Y-27805988D01*
X20975166Y-27781552D01*
X20983989Y-27769693D01*
X20993325Y-27758184D01*
X21003203Y-27747104D01*
X21013650Y-27736536D01*
X21024697Y-27726562D01*
X21036373Y-27717262D01*
X21048706Y-27708719D01*
X21061724Y-27701014D01*
X21075459Y-27694228D01*
X21089937Y-27688443D01*
X21104905Y-27684247D01*
X21119470Y-27682083D01*
X21133639Y-27681821D01*
X21147415Y-27683329D01*
X21160803Y-27686474D01*
X21173809Y-27691127D01*
X21186438Y-27697153D01*
X21198693Y-27704423D01*
X21210581Y-27712804D01*
X21222106Y-27722165D01*
X21233272Y-27732374D01*
X21244085Y-27743299D01*
X21264671Y-27766771D01*
X21283902Y-27791529D01*
X21348059Y-27882346D01*
X21361101Y-27897730D01*
X21367199Y-27903599D01*
X21373022Y-27908078D01*
X21378575Y-27911035D01*
X21383862Y-27912339D01*
X21388888Y-27911856D01*
X21393658Y-27909457D01*
X21396981Y-27906744D01*
X21400156Y-27902981D01*
X21403210Y-27898242D01*
X21406169Y-27892598D01*
X21411910Y-27878880D01*
X21417593Y-27862404D01*
X21429634Y-27823476D01*
X21436419Y-27802174D01*
X21443997Y-27780412D01*
X21452581Y-27758767D01*
X21462384Y-27737812D01*
X21467810Y-27727774D01*
X21473620Y-27718123D01*
X21479841Y-27708933D01*
X21486500Y-27700275D01*
X21493624Y-27692221D01*
X21501238Y-27684842D01*
X21509371Y-27678211D01*
X21518048Y-27672399D01*
X21527296Y-27667479D01*
X21537141Y-27663522D01*
X21547611Y-27660600D01*
X21558731Y-27658785D01*
X21569798Y-27658405D01*
X21580704Y-27659073D01*
X21591443Y-27660715D01*
X21602009Y-27663257D01*
X21612396Y-27666626D01*
X21622598Y-27670747D01*
X21632609Y-27675547D01*
X21642423Y-27680953D01*
X21652034Y-27686891D01*
X21661436Y-27693286D01*
X21670623Y-27700066D01*
X21679588Y-27707156D01*
X21696830Y-27721973D01*
X21713115Y-27737148D01*
X21742617Y-27766212D01*
X21755737Y-27778922D01*
X21767707Y-27789631D01*
X21773245Y-27794051D01*
X21778476Y-27797749D01*
X21783396Y-27800652D01*
X21787998Y-27802687D01*
X21792275Y-27803779D01*
X21796222Y-27803854D01*
X21799833Y-27802840D01*
X21803102Y-27800662D01*
X21804163Y-27796421D01*
X21804899Y-27791169D01*
X21805556Y-27777911D01*
X21804767Y-27742365D01*
X21803365Y-27698545D01*
X21803255Y-27674947D01*
X21803978Y-27650976D01*
X21805861Y-27627199D01*
X21809235Y-27604180D01*
X21811583Y-27593131D01*
X21814426Y-27582485D01*
X21817807Y-27572310D01*
X21821765Y-27562679D01*
X21826342Y-27553661D01*
X21831579Y-27545327D01*
X21837516Y-27537749D01*
X21844197Y-27530996D01*
X21851660Y-27525140D01*
X21859947Y-27520250D01*
X21869100Y-27516398D01*
X21879159Y-27513655D01*
X21889825Y-27512214D01*
X21900746Y-27511563D01*
X21911890Y-27511638D01*
X21923223Y-27512379D01*
X21934710Y-27513724D01*
X21946318Y-27515611D01*
X21958014Y-27517979D01*
X21969762Y-27520766D01*
X21993282Y-27527351D01*
X22016609Y-27534873D01*
X22061598Y-27550758D01*
X22082718Y-27558135D01*
X22102562Y-27564478D01*
X22120857Y-27569294D01*
X22129340Y-27570975D01*
X22137335Y-27572090D01*
X22144807Y-27572577D01*
X22151722Y-27572374D01*
X22158048Y-27571420D01*
X22163750Y-27569653D01*
X22168794Y-27567011D01*
X22173146Y-27563433D01*
X22176773Y-27558858D01*
X22179640Y-27553223D01*
X22180933Y-27536601D01*
X22178695Y-27512097D01*
X22173032Y-27480644D01*
X22164051Y-27443175D01*
X22151858Y-27400622D01*
X22136560Y-27353918D01*
X22118263Y-27303996D01*
X22097073Y-27251787D01*
X22073097Y-27198226D01*
X22046441Y-27144244D01*
X22017211Y-27090775D01*
X21985515Y-27038750D01*
X21951457Y-26989103D01*
X21915146Y-26942767D01*
X21876687Y-26900673D01*
X21856685Y-26881509D01*
X21836186Y-26863756D01*
X21793479Y-26829784D01*
X21749786Y-26797010D01*
X21705436Y-26765240D01*
X21660758Y-26734282D01*
X21485335Y-26614697D01*
X21443947Y-26584897D01*
X21404203Y-26554750D01*
X21366432Y-26524061D01*
X21330963Y-26492639D01*
X21298126Y-26460289D01*
X21268248Y-26426819D01*
X21254521Y-26409603D01*
X21241658Y-26392035D01*
X21229699Y-26374090D01*
X21218686Y-26355744D01*
X21214137Y-26357044D01*
X21209397Y-26358243D01*
X21204521Y-26359371D01*
X21199562Y-26360456D01*
X21189613Y-26362614D01*
X21184731Y-26363745D01*
X21179983Y-26364949D01*
X21202646Y-26358647D01*
X21214025Y-26355520D01*
X21225344Y-26352511D01*
X21221928Y-26329749D01*
X21220887Y-26306590D01*
X21222102Y-26283007D01*
X21225451Y-26258972D01*
X21230816Y-26234456D01*
X21238074Y-26209431D01*
X21257793Y-26157738D01*
X21283646Y-26103668D01*
X21314669Y-26046994D01*
X21388379Y-25924922D01*
X21471222Y-25789706D01*
X21513662Y-25716601D01*
X21555498Y-25639529D01*
X21595767Y-25558264D01*
X21633507Y-25472577D01*
X21667754Y-25382241D01*
X21697547Y-25287031D01*
X21743815Y-25270211D01*
X21792690Y-25255570D01*
X21897394Y-25232494D01*
X22009923Y-25217140D01*
X22128541Y-25208847D01*
X22251512Y-25206951D01*
X22377098Y-25210792D01*
G36*
X22377098Y-25210792D02*
G01*
X22503564Y-25219706D01*
X22629174Y-25233033D01*
X22752190Y-25250109D01*
X22870878Y-25270272D01*
X22983500Y-25292862D01*
X23088320Y-25317215D01*
X23183602Y-25342669D01*
X23267609Y-25368562D01*
X23338605Y-25394233D01*
X23394855Y-25419019D01*
X23397249Y-25460413D01*
X23401280Y-25500526D01*
X23406858Y-25539434D01*
X23413899Y-25577208D01*
X23422313Y-25613924D01*
X23432015Y-25649655D01*
X23442917Y-25684474D01*
X23454932Y-25718455D01*
X23481952Y-25784200D01*
X23512379Y-25847479D01*
X23545515Y-25908883D01*
X23580664Y-25969000D01*
X23654212Y-26087738D01*
X23691217Y-26147538D01*
X23727447Y-26208412D01*
X23762206Y-26270950D01*
X23794795Y-26335742D01*
X23824519Y-26403378D01*
X23838089Y-26438447D01*
X23850680Y-26474449D01*
X23851744Y-26474666D01*
X23852723Y-26474837D01*
X23853644Y-26474978D01*
X23854535Y-26475104D01*
X23855424Y-26475231D01*
X23856339Y-26475373D01*
X23857308Y-26475547D01*
X23858359Y-26475768D01*
X23867953Y-26534551D01*
X23874495Y-26594842D01*
X23878310Y-26656296D01*
X23879721Y-26718571D01*
X23879055Y-26781323D01*
X23876637Y-26844208D01*
X23867839Y-26969004D01*
X23843501Y-27205084D01*
X23833157Y-27310873D01*
X23829578Y-27359502D01*
X23827495Y-27404829D01*
X23827557Y-27449846D01*
X23828918Y-27497774D01*
X23831481Y-27547810D01*
X23835148Y-27599151D01*
X23839824Y-27650996D01*
X23845409Y-27702542D01*
X23851808Y-27752987D01*
X23858924Y-27801528D01*
X23866658Y-27847364D01*
X23874915Y-27889691D01*
X23883596Y-27927707D01*
X23892605Y-27960611D01*
X23901845Y-27987600D01*
X23911219Y-28007870D01*
X23915925Y-28015236D01*
X23920629Y-28020621D01*
X23925317Y-28023926D01*
X23929978Y-28025050D01*
X23935787Y-28026114D01*
X23941463Y-28026256D01*
X23947028Y-28025540D01*
X23952505Y-28024028D01*
X23957916Y-28021784D01*
X23963285Y-28018872D01*
X23968632Y-28015355D01*
X23973980Y-28011296D01*
X23984771Y-28001807D01*
X23995838Y-27990913D01*
X24019511Y-27966935D01*
X24032477Y-27954866D01*
X24039321Y-27949034D01*
X24046435Y-27943421D01*
X24053842Y-27938091D01*
X24061564Y-27933107D01*
X24069624Y-27928532D01*
X24078044Y-27924430D01*
X24086846Y-27920864D01*
X24096053Y-27917898D01*
X24105687Y-27915595D01*
X24115771Y-27914018D01*
X24126327Y-27913232D01*
X24137377Y-27913298D01*
X24148945Y-27914281D01*
X24161051Y-27916245D01*
X24173583Y-27919070D01*
X24185800Y-27922567D01*
X24197716Y-27926694D01*
X24209345Y-27931407D01*
X24220701Y-27936663D01*
X24231798Y-27942421D01*
X24242650Y-27948636D01*
X24253270Y-27955266D01*
X24263672Y-27962268D01*
X24273871Y-27969600D01*
X24293714Y-27985078D01*
X24312909Y-28001359D01*
X24331566Y-28018098D01*
X24367716Y-28051582D01*
X24385429Y-28067640D01*
X24403050Y-28082785D01*
X24420690Y-28096673D01*
X24429551Y-28103039D01*
X24438459Y-28108962D01*
X24447427Y-28114400D01*
X24456469Y-28119308D01*
X24465599Y-28123646D01*
X24474831Y-28127369D01*
X24483095Y-28125825D01*
X24490595Y-28123097D01*
X24497396Y-28119260D01*
X24503567Y-28114386D01*
X24509173Y-28108551D01*
X24514284Y-28101827D01*
X24518965Y-28094288D01*
X24523283Y-28086009D01*
X24531102Y-28067522D01*
X24538277Y-28046956D01*
X24552845Y-28001947D01*
X24561311Y-27978684D01*
X24571282Y-27955702D01*
X24577000Y-27944500D01*
X24583295Y-27933590D01*
X24590234Y-27923045D01*
X24597886Y-27912938D01*
X24606316Y-27903345D01*
X24615592Y-27894338D01*
X24625782Y-27885990D01*
X24636951Y-27878377D01*
X24649169Y-27871571D01*
X24662500Y-27865647D01*
X24677014Y-27860677D01*
X24692776Y-27856736D01*
X24701561Y-27855682D01*
X24711163Y-27855566D01*
X24721527Y-27856324D01*
X24732599Y-27857889D01*
X24756646Y-27863180D01*
X24782870Y-27870911D01*
X24810836Y-27880555D01*
X24840107Y-27891586D01*
X24900826Y-27915702D01*
X24961545Y-27939045D01*
X24990816Y-27949109D01*
X25018781Y-27957399D01*
X25045004Y-27963389D01*
X25057326Y-27965357D01*
X25069050Y-27966552D01*
X25080120Y-27966908D01*
X25090484Y-27966360D01*
X25100085Y-27964843D01*
X25108870Y-27962289D01*
X25113296Y-27959984D01*
X25116721Y-27956800D01*
X25119229Y-27952764D01*
X25120903Y-27947906D01*
X25121827Y-27942253D01*
X25122084Y-27935834D01*
X25120932Y-27920810D01*
X25106348Y-27835740D01*
X25103547Y-27809363D01*
X25102421Y-27781396D01*
X25103637Y-27752066D01*
X25105332Y-27736961D01*
X25107863Y-27721600D01*
X25111313Y-27706012D01*
X25115766Y-27690225D01*
X25121305Y-27674267D01*
X25128015Y-27658167D01*
X25135977Y-27641953D01*
X25145277Y-27625654D01*
X25155997Y-27609297D01*
X25168221Y-27592912D01*
X25172693Y-27587688D01*
X25177251Y-27582750D01*
X25181891Y-27578090D01*
X25186608Y-27573700D01*
X25191399Y-27569574D01*
X25196259Y-27565701D01*
X25206173Y-27558691D01*
X25216315Y-27552607D01*
X25226656Y-27547388D01*
X25237161Y-27542972D01*
X25247799Y-27539296D01*
X25258538Y-27536299D01*
X25269344Y-27533920D01*
X25280187Y-27532096D01*
X25291034Y-27530764D01*
X25301851Y-27529864D01*
X25312608Y-27529334D01*
X25323272Y-27529111D01*
X25333810Y-27529133D01*
X25206418Y-27793452D01*
X24822548Y-28581653D01*
X20161800Y-28583153D01*
X20025601Y-28324791D01*
X19957129Y-28183968D01*
X19923631Y-28108581D01*
X19890943Y-28029089D01*
X19859301Y-27944904D01*
X19828944Y-27855434D01*
X19800108Y-27760090D01*
X19773032Y-27658281D01*
X19747952Y-27549418D01*
X19725108Y-27432911D01*
X19704735Y-27308168D01*
X19687072Y-27174601D01*
X19680218Y-27105528D01*
X19675790Y-27036576D01*
X19673641Y-26967882D01*
X19673628Y-26899580D01*
X19675605Y-26831807D01*
X19679429Y-26764699D01*
X19684953Y-26698391D01*
X19692034Y-26633020D01*
X19710286Y-26505629D01*
X19733027Y-26383614D01*
X19759098Y-26268062D01*
X19787342Y-26160058D01*
X19816599Y-26060691D01*
X19845713Y-25971047D01*
X19873526Y-25892212D01*
X19898878Y-25825273D01*
X19937571Y-25731434D01*
X19952527Y-25698221D01*
X19991520Y-25702868D01*
X20029428Y-25705662D01*
X20067027Y-25706709D01*
X20105093Y-25706117D01*
X20144400Y-25703992D01*
X20185725Y-25700439D01*
X20229842Y-25695567D01*
X20277528Y-25689480D01*
X20276816Y-25715142D01*
X20277636Y-25740848D01*
X20279893Y-25766575D01*
X20283493Y-25792299D01*
X20288342Y-25817996D01*
X20294344Y-25843642D01*
X20301405Y-25869215D01*
X20309430Y-25894689D01*
X20327995Y-25945249D01*
X20349282Y-25995132D01*
X20372533Y-26044148D01*
X20396991Y-26092107D01*
X20491755Y-26269571D01*
X20510892Y-26309394D01*
X20526694Y-26347020D01*
X20538403Y-26382259D01*
X20542487Y-26398923D01*
X20545263Y-26414920D01*
X20557610Y-26574608D01*
X20568453Y-26784182D01*
X20582259Y-27023578D01*
X20603494Y-27272728D01*
X20618293Y-27394691D01*
X20636624Y-27511568D01*
X20659045Y-27620851D01*
X20686115Y-27720031D01*
X20701568Y-27765049D01*
X20718392Y-27806600D01*
X20736657Y-27844372D01*
X20756434Y-27878051D01*
X20777791Y-27907322D01*
X20800799Y-27931874D01*
X20825528Y-27951391D01*
X20852047Y-27965562D01*
X20856928Y-27966668D01*
X20861683Y-27966328D01*
X20866343Y-27964625D01*
X20870936Y-27961639D01*
X20875491Y-27957452D01*
X20880036Y-27952145D01*
X20889216Y-27938500D01*
X20898706Y-27921356D01*
X20908740Y-27901366D01*
X20931363Y-27855455D01*
X20944417Y-27830840D01*
X20958940Y-27805988D01*
X20975166Y-27781552D01*
X20983989Y-27769693D01*
X20993325Y-27758184D01*
X21003203Y-27747104D01*
X21013650Y-27736536D01*
X21024697Y-27726562D01*
X21036373Y-27717262D01*
X21048706Y-27708719D01*
X21061724Y-27701014D01*
X21075459Y-27694228D01*
X21089937Y-27688443D01*
X21104905Y-27684247D01*
X21119470Y-27682083D01*
X21133639Y-27681821D01*
X21147415Y-27683329D01*
X21160803Y-27686474D01*
X21173809Y-27691127D01*
X21186438Y-27697153D01*
X21198693Y-27704423D01*
X21210581Y-27712804D01*
X21222106Y-27722165D01*
X21233272Y-27732374D01*
X21244085Y-27743299D01*
X21264671Y-27766771D01*
X21283902Y-27791529D01*
X21348059Y-27882346D01*
X21361101Y-27897730D01*
X21367199Y-27903599D01*
X21373022Y-27908078D01*
X21378575Y-27911035D01*
X21383862Y-27912339D01*
X21388888Y-27911856D01*
X21393658Y-27909457D01*
X21396981Y-27906744D01*
X21400156Y-27902981D01*
X21403210Y-27898242D01*
X21406169Y-27892598D01*
X21411910Y-27878880D01*
X21417593Y-27862404D01*
X21429634Y-27823476D01*
X21436419Y-27802174D01*
X21443997Y-27780412D01*
X21452581Y-27758767D01*
X21462384Y-27737812D01*
X21467810Y-27727774D01*
X21473620Y-27718123D01*
X21479841Y-27708933D01*
X21486500Y-27700275D01*
X21493624Y-27692221D01*
X21501238Y-27684842D01*
X21509371Y-27678211D01*
X21518048Y-27672399D01*
X21527296Y-27667479D01*
X21537141Y-27663522D01*
X21547611Y-27660600D01*
X21558731Y-27658785D01*
X21569798Y-27658405D01*
X21580704Y-27659073D01*
X21591443Y-27660715D01*
X21602009Y-27663257D01*
X21612396Y-27666626D01*
X21622598Y-27670747D01*
X21632609Y-27675547D01*
X21642423Y-27680953D01*
X21652034Y-27686891D01*
X21661436Y-27693286D01*
X21670623Y-27700066D01*
X21679588Y-27707156D01*
X21696830Y-27721973D01*
X21713115Y-27737148D01*
X21742617Y-27766212D01*
X21755737Y-27778922D01*
X21767707Y-27789631D01*
X21773245Y-27794051D01*
X21778476Y-27797749D01*
X21783396Y-27800652D01*
X21787998Y-27802687D01*
X21792275Y-27803779D01*
X21796222Y-27803854D01*
X21799833Y-27802840D01*
X21803102Y-27800662D01*
X21804163Y-27796421D01*
X21804899Y-27791169D01*
X21805556Y-27777911D01*
X21804767Y-27742365D01*
X21803365Y-27698545D01*
X21803255Y-27674947D01*
X21803978Y-27650976D01*
X21805861Y-27627199D01*
X21809235Y-27604180D01*
X21811583Y-27593131D01*
X21814426Y-27582485D01*
X21817807Y-27572310D01*
X21821765Y-27562679D01*
X21826342Y-27553661D01*
X21831579Y-27545327D01*
X21837516Y-27537749D01*
X21844197Y-27530996D01*
X21851660Y-27525140D01*
X21859947Y-27520250D01*
X21869100Y-27516398D01*
X21879159Y-27513655D01*
X21889825Y-27512214D01*
X21900746Y-27511563D01*
X21911890Y-27511638D01*
X21923223Y-27512379D01*
X21934710Y-27513724D01*
X21946318Y-27515611D01*
X21958014Y-27517979D01*
X21969762Y-27520766D01*
X21993282Y-27527351D01*
X22016609Y-27534873D01*
X22061598Y-27550758D01*
X22082718Y-27558135D01*
X22102562Y-27564478D01*
X22120857Y-27569294D01*
X22129340Y-27570975D01*
X22137335Y-27572090D01*
X22144807Y-27572577D01*
X22151722Y-27572374D01*
X22158048Y-27571420D01*
X22163750Y-27569653D01*
X22168794Y-27567011D01*
X22173146Y-27563433D01*
X22176773Y-27558858D01*
X22179640Y-27553223D01*
X22180933Y-27536601D01*
X22178695Y-27512097D01*
X22173032Y-27480644D01*
X22164051Y-27443175D01*
X22151858Y-27400622D01*
X22136560Y-27353918D01*
X22118263Y-27303996D01*
X22097073Y-27251787D01*
X22073097Y-27198226D01*
X22046441Y-27144244D01*
X22017211Y-27090775D01*
X21985515Y-27038750D01*
X21951457Y-26989103D01*
X21915146Y-26942767D01*
X21876687Y-26900673D01*
X21856685Y-26881509D01*
X21836186Y-26863756D01*
X21793479Y-26829784D01*
X21749786Y-26797010D01*
X21705436Y-26765240D01*
X21660758Y-26734282D01*
X21485335Y-26614697D01*
X21443947Y-26584897D01*
X21404203Y-26554750D01*
X21366432Y-26524061D01*
X21330963Y-26492639D01*
X21298126Y-26460289D01*
X21268248Y-26426819D01*
X21254521Y-26409603D01*
X21241658Y-26392035D01*
X21229699Y-26374090D01*
X21218686Y-26355744D01*
X21214137Y-26357044D01*
X21209397Y-26358243D01*
X21204521Y-26359371D01*
X21199562Y-26360456D01*
X21189613Y-26362614D01*
X21184731Y-26363745D01*
X21179983Y-26364949D01*
X21202646Y-26358647D01*
X21214025Y-26355520D01*
X21225344Y-26352511D01*
X21221928Y-26329749D01*
X21220887Y-26306590D01*
X21222102Y-26283007D01*
X21225451Y-26258972D01*
X21230816Y-26234456D01*
X21238074Y-26209431D01*
X21257793Y-26157738D01*
X21283646Y-26103668D01*
X21314669Y-26046994D01*
X21388379Y-25924922D01*
X21471222Y-25789706D01*
X21513662Y-25716601D01*
X21555498Y-25639529D01*
X21595767Y-25558264D01*
X21633507Y-25472577D01*
X21667754Y-25382241D01*
X21697547Y-25287031D01*
X21743815Y-25270211D01*
X21792690Y-25255570D01*
X21897394Y-25232494D01*
X22009923Y-25217140D01*
X22128541Y-25208847D01*
X22251512Y-25206951D01*
X22377098Y-25210792D01*
G37*
D10*
X23928687Y-26482327D02*
X24003409Y-26493931D01*
X24074029Y-26503911D01*
X24108369Y-26507796D01*
X24142366Y-26510681D01*
X24176246Y-26512367D01*
X24210238Y-26512658D01*
X24244568Y-26511353D01*
X24279465Y-26508257D01*
X24315154Y-26503170D01*
X24351865Y-26495894D01*
X24389823Y-26486232D01*
X24429257Y-26473985D01*
X24483854Y-26532333D01*
X24550709Y-26597659D01*
X24711711Y-26744063D01*
X25076519Y-27063622D01*
X25242398Y-27216057D01*
X25312910Y-27285906D01*
X25371976Y-27349783D01*
X25417227Y-27406392D01*
X25433931Y-27431567D01*
X25446292Y-27454439D01*
X25454014Y-27474847D01*
X25456801Y-27492629D01*
X25454356Y-27507623D01*
X25446382Y-27519667D01*
X25442044Y-27523339D01*
X25437097Y-27526353D01*
X25431574Y-27528767D01*
X25425504Y-27530638D01*
X25418920Y-27532024D01*
X25411851Y-27532981D01*
X25396383Y-27533840D01*
X25321306Y-27531625D01*
X25300469Y-27531953D01*
X25279298Y-27533552D01*
X25268664Y-27534971D01*
X25258040Y-27536880D01*
X25247455Y-27539337D01*
X25236941Y-27542398D01*
X25226529Y-27546122D01*
X25216249Y-27550564D01*
X25206132Y-27555784D01*
X25196210Y-27561837D01*
X25186512Y-27568782D01*
X25177071Y-27576676D01*
X25167915Y-27585576D01*
X25159078Y-27595540D01*
X25146854Y-27611926D01*
X25136134Y-27628283D01*
X25126833Y-27644583D01*
X25118869Y-27660798D01*
X25112158Y-27676900D01*
X25106616Y-27692860D01*
X25102160Y-27708649D01*
X25098707Y-27724240D01*
X25096173Y-27739603D01*
X25094475Y-27754711D01*
X25093251Y-27784047D01*
X25094369Y-27812020D01*
X25097160Y-27838404D01*
X25111711Y-27923498D01*
X25112857Y-27938526D01*
X25112598Y-27944947D01*
X25111672Y-27950602D01*
X25109996Y-27955462D01*
X25107487Y-27959498D01*
X25104061Y-27962683D01*
X25099635Y-27964988D01*
X25090849Y-27967541D01*
X25081248Y-27969059D01*
X25070884Y-27969607D01*
X25059813Y-27969251D01*
X25048089Y-27968056D01*
X25035766Y-27966088D01*
X25009543Y-27960098D01*
X24981578Y-27951808D01*
X24952307Y-27941743D01*
X24891587Y-27918401D01*
X24830868Y-27894285D01*
X24801597Y-27883254D01*
X24773631Y-27873610D01*
X24747408Y-27865879D01*
X24723361Y-27860588D01*
X24712289Y-27859023D01*
X24701926Y-27858265D01*
X24692324Y-27858381D01*
X24683538Y-27859435D01*
X24667776Y-27863376D01*
X24653263Y-27868344D01*
X24639931Y-27874267D01*
X24627714Y-27881070D01*
X24616544Y-27888680D01*
X24606354Y-27897024D01*
X24597078Y-27906027D01*
X24588647Y-27915615D01*
X24580995Y-27925716D01*
X24574055Y-27936256D01*
X24567759Y-27947160D01*
X24562041Y-27958356D01*
X24552069Y-27981326D01*
X24543601Y-28004576D01*
X24529030Y-28049559D01*
X24521854Y-28070113D01*
X24514035Y-28088589D01*
X24509716Y-28096864D01*
X24505035Y-28104398D01*
X24499924Y-28111118D01*
X24494317Y-28116950D01*
X24488147Y-28121821D01*
X24481346Y-28125657D01*
X24473847Y-28128383D01*
X24465583Y-28129927D01*
X24456351Y-28126204D01*
X24447222Y-28121866D01*
X24438180Y-28116958D01*
X24429213Y-28111520D01*
X24420306Y-28105597D01*
X24411446Y-28099231D01*
X24393810Y-28085343D01*
X24376193Y-28070199D01*
X24358484Y-28054141D01*
X24322345Y-28020658D01*
X24303693Y-28003919D01*
X24284503Y-27987639D01*
X24264666Y-27972161D01*
X24254469Y-27964830D01*
X24244069Y-27957828D01*
X24233450Y-27951199D01*
X24222601Y-27944984D01*
X24211505Y-27939227D01*
X24200150Y-27933971D01*
X24188522Y-27929259D01*
X24176607Y-27925133D01*
X24164391Y-27921637D01*
X24151859Y-27918813D01*
X24139752Y-27916850D01*
X24128184Y-27915867D01*
X24117132Y-27915801D01*
X24106575Y-27916588D01*
X24096489Y-27918166D01*
X24086852Y-27920471D01*
X24077642Y-27923438D01*
X24068837Y-27927006D01*
X24060413Y-27931110D01*
X24052350Y-27935686D01*
X24044624Y-27940673D01*
X24037213Y-27946005D01*
X24030095Y-27951621D01*
X24023246Y-27957455D01*
X24010272Y-27969528D01*
X23986581Y-27993515D01*
X23975507Y-28004414D01*
X23964709Y-28013907D01*
X23959357Y-28017967D01*
X23954008Y-28021486D01*
X23948637Y-28024400D01*
X23943224Y-28026644D01*
X23937745Y-28028157D01*
X23932179Y-28028874D01*
X23926503Y-28028732D01*
X23920694Y-28027668D01*
X23920684Y-28027658D01*
X23916023Y-28026534D01*
X23911335Y-28023230D01*
X23906633Y-28017846D01*
X23901928Y-28010482D01*
X23892560Y-27990214D01*
X23883327Y-27963230D01*
X23874327Y-27930332D01*
X23865655Y-27892322D01*
X23857409Y-27850001D01*
X23849685Y-27804172D01*
X23842580Y-27755637D01*
X23836192Y-27705199D01*
X23830616Y-27653659D01*
X23825949Y-27601819D01*
X23822289Y-27550482D01*
X23819731Y-27500450D01*
X23818373Y-27452525D01*
X23818312Y-27407508D01*
X23820422Y-27361798D01*
X23824057Y-27312729D01*
X23834564Y-27205928D01*
X23859178Y-26967548D01*
X23867945Y-26841612D01*
X23870276Y-26778192D01*
X23870793Y-26714941D01*
X23869161Y-26652212D01*
X23865049Y-26590357D01*
X23858121Y-26529730D01*
X23848044Y-26470682D01*
X23928687Y-26482327D01*
D11*
X24790442Y-25772793D02*
X24836566Y-25821926D01*
X24885784Y-25869937D01*
X24938158Y-25916758D01*
X24993753Y-25962324D01*
X25052632Y-26006569D01*
X25114859Y-26049426D01*
X25180497Y-26090829D01*
X25249611Y-26130713D01*
X25322263Y-26169010D01*
X25398518Y-26205656D01*
X25478439Y-26240583D01*
X25562090Y-26273726D01*
X25649535Y-26305018D01*
X25740836Y-26334394D01*
X25836059Y-26361787D01*
X25835465Y-26368860D01*
X25835359Y-26369748D01*
X25835230Y-26370639D01*
X25835072Y-26371534D01*
X25834881Y-26372435D01*
X25834651Y-26373342D01*
X25834378Y-26374256D01*
X25834057Y-26375177D01*
X25833683Y-26376107D01*
X25765240Y-26524879D01*
X25734789Y-26592494D01*
X25707736Y-26656264D01*
X25695691Y-26686864D01*
X25684745Y-26716691D01*
X25674980Y-26745808D01*
X25666480Y-26774276D01*
X25659327Y-26802160D01*
X25653604Y-26829522D01*
X25649395Y-26856425D01*
X25646781Y-26882930D01*
X25435495Y-27318130D01*
X25401380Y-27389069D01*
X25363397Y-27344123D01*
X25317814Y-27295186D01*
X25265660Y-27242821D01*
X25207960Y-27187588D01*
X25080032Y-27070763D01*
X24942246Y-26949200D01*
X24669954Y-26709821D01*
X24551878Y-26600983D01*
X24500952Y-26551241D01*
X24456953Y-26505522D01*
X24457637Y-26505416D01*
X24458430Y-26505312D01*
X24459190Y-26505228D01*
X24459934Y-26505158D01*
X24461446Y-26505033D01*
X24462248Y-26504964D01*
X24463106Y-26504883D01*
X24462123Y-26469217D01*
X24462237Y-26435148D01*
X24463404Y-26402587D01*
X24465577Y-26371447D01*
X24468709Y-26341642D01*
X24472755Y-26313084D01*
X24477669Y-26285687D01*
X24483403Y-26259363D01*
X24489914Y-26234025D01*
X24497153Y-26209586D01*
X24505075Y-26185959D01*
X24513635Y-26163058D01*
X24532480Y-26119082D01*
X24553319Y-26076963D01*
X24575784Y-26036003D01*
X24599504Y-25995507D01*
X24649240Y-25913119D01*
X24674516Y-25869835D01*
X24699573Y-25824230D01*
X24724042Y-25775606D01*
X24747553Y-25723268D01*
X24747347Y-25722603D01*
X24790442Y-25772793D01*
G36*
X24790442Y-25772793D02*
G01*
X24836566Y-25821926D01*
X24885784Y-25869937D01*
X24938158Y-25916758D01*
X24993753Y-25962324D01*
X25052632Y-26006569D01*
X25114859Y-26049426D01*
X25180497Y-26090829D01*
X25249611Y-26130713D01*
X25322263Y-26169010D01*
X25398518Y-26205656D01*
X25478439Y-26240583D01*
X25562090Y-26273726D01*
X25649535Y-26305018D01*
X25740836Y-26334394D01*
X25836059Y-26361787D01*
X25835465Y-26368860D01*
X25835359Y-26369748D01*
X25835230Y-26370639D01*
X25835072Y-26371534D01*
X25834881Y-26372435D01*
X25834651Y-26373342D01*
X25834378Y-26374256D01*
X25834057Y-26375177D01*
X25833683Y-26376107D01*
X25765240Y-26524879D01*
X25734789Y-26592494D01*
X25707736Y-26656264D01*
X25695691Y-26686864D01*
X25684745Y-26716691D01*
X25674980Y-26745808D01*
X25666480Y-26774276D01*
X25659327Y-26802160D01*
X25653604Y-26829522D01*
X25649395Y-26856425D01*
X25646781Y-26882930D01*
X25435495Y-27318130D01*
X25401380Y-27389069D01*
X25363397Y-27344123D01*
X25317814Y-27295186D01*
X25265660Y-27242821D01*
X25207960Y-27187588D01*
X25080032Y-27070763D01*
X24942246Y-26949200D01*
X24669954Y-26709821D01*
X24551878Y-26600983D01*
X24500952Y-26551241D01*
X24456953Y-26505522D01*
X24457637Y-26505416D01*
X24458430Y-26505312D01*
X24459190Y-26505228D01*
X24459934Y-26505158D01*
X24461446Y-26505033D01*
X24462248Y-26504964D01*
X24463106Y-26504883D01*
X24462123Y-26469217D01*
X24462237Y-26435148D01*
X24463404Y-26402587D01*
X24465577Y-26371447D01*
X24468709Y-26341642D01*
X24472755Y-26313084D01*
X24477669Y-26285687D01*
X24483403Y-26259363D01*
X24489914Y-26234025D01*
X24497153Y-26209586D01*
X24505075Y-26185959D01*
X24513635Y-26163058D01*
X24532480Y-26119082D01*
X24553319Y-26076963D01*
X24575784Y-26036003D01*
X24599504Y-25995507D01*
X24649240Y-25913119D01*
X24674516Y-25869835D01*
X24699573Y-25824230D01*
X24724042Y-25775606D01*
X24747553Y-25723268D01*
X24747347Y-25722603D01*
X24790442Y-25772793D01*
G37*
D12*
X45280868Y-20212035D02*
X65773300Y-20212035D01*
X65773300Y-24377635D01*
X45280868Y-24377635D01*
X45280868Y-20212035D01*
D10*
X27033562Y-25610641D02*
X27145905Y-25618607D01*
X27249459Y-25632822D01*
X27273190Y-25637306D01*
X27295493Y-25642104D01*
X27316413Y-25647219D01*
X27335993Y-25652657D01*
X27354276Y-25658421D01*
X27371306Y-25664515D01*
X27387127Y-25670944D01*
X27401782Y-25677712D01*
X27415315Y-25684823D01*
X27427769Y-25692281D01*
X27439188Y-25700091D01*
X27449615Y-25708256D01*
X27459094Y-25716782D01*
X27467668Y-25725672D01*
X27475381Y-25734930D01*
X27482277Y-25744561D01*
X27488398Y-25754569D01*
X27493789Y-25764958D01*
X27498494Y-25775733D01*
X27502554Y-25786897D01*
X27506015Y-25798454D01*
X27508920Y-25810410D01*
X27513235Y-25835533D01*
X27515847Y-25862299D01*
X27517104Y-25890741D01*
X27517356Y-25920894D01*
X27516950Y-25952791D01*
X27517529Y-25998247D01*
X27522974Y-26048782D01*
X27533276Y-26103675D01*
X27548426Y-26162206D01*
X27568412Y-26223656D01*
X27593227Y-26287305D01*
X27622860Y-26352432D01*
X27657301Y-26418318D01*
X27696540Y-26484242D01*
X27740569Y-26549485D01*
X27789377Y-26613326D01*
X27842955Y-26675046D01*
X27901293Y-26733925D01*
X27932244Y-26762074D01*
X27964381Y-26789243D01*
X27997704Y-26815341D01*
X28032210Y-26840279D01*
X28067899Y-26863967D01*
X28104770Y-26886314D01*
X28104771Y-26886314D01*
X28104771Y-26886315D01*
X28104772Y-26886316D01*
X28104773Y-26886317D01*
X28104774Y-26886319D01*
X28104775Y-26886320D01*
X28104775Y-26886321D01*
X28104776Y-26886322D01*
X28104777Y-26886323D01*
X28104778Y-26886324D01*
X28104779Y-26886324D01*
X28104780Y-26886324D01*
X28151395Y-26915237D01*
X28191671Y-26943789D01*
X28225790Y-26971912D01*
X28253934Y-26999534D01*
X28276285Y-27026587D01*
X28293026Y-27052999D01*
X28304338Y-27078701D01*
X28310403Y-27103622D01*
X28311403Y-27127693D01*
X28307521Y-27150844D01*
X28298937Y-27173004D01*
X28285835Y-27194104D01*
X28268397Y-27214073D01*
X28246803Y-27232841D01*
X28221237Y-27250338D01*
X28191880Y-27266494D01*
X28158914Y-27281240D01*
X28122522Y-27294504D01*
X28040184Y-27316310D01*
X27946325Y-27331350D01*
X27842398Y-27339066D01*
X27729861Y-27338895D01*
X27610169Y-27330277D01*
X27484778Y-27312653D01*
X27355145Y-27285460D01*
X27313683Y-27275961D01*
X27273487Y-27267828D01*
X27234528Y-27261001D01*
X27196774Y-27255415D01*
X27160195Y-27251008D01*
X27124762Y-27247717D01*
X27090444Y-27245479D01*
X27057211Y-27244232D01*
X27025032Y-27243913D01*
X26993877Y-27244459D01*
X26934521Y-27247893D01*
X26878898Y-27254033D01*
X26826769Y-27262377D01*
X26777890Y-27272421D01*
X26732019Y-27283663D01*
X26688916Y-27295601D01*
X26648338Y-27307733D01*
X26573791Y-27330565D01*
X26539337Y-27340262D01*
X26506441Y-27348141D01*
X26462191Y-27356374D01*
X26417457Y-27363602D01*
X26372376Y-27369593D01*
X26327081Y-27374115D01*
X26281709Y-27376937D01*
X26236395Y-27377826D01*
X26191275Y-27376551D01*
X26146483Y-27372879D01*
X26102156Y-27366578D01*
X26058429Y-27357417D01*
X26015437Y-27345163D01*
X25973316Y-27329584D01*
X25952624Y-27320476D01*
X25932201Y-27310449D01*
X25912063Y-27299476D01*
X25892227Y-27287526D01*
X25872710Y-27274571D01*
X25853530Y-27260582D01*
X25834703Y-27245530D01*
X25816246Y-27229386D01*
X25789337Y-27204232D01*
X25764910Y-27179454D01*
X25742894Y-27155004D01*
X25723216Y-27130832D01*
X25705804Y-27106889D01*
X25690587Y-27083127D01*
X25677492Y-27059497D01*
X25666448Y-27035949D01*
X25657383Y-27012436D01*
X25650224Y-26988907D01*
X25644899Y-26965314D01*
X25641337Y-26941608D01*
X25639466Y-26917741D01*
X25639214Y-26893662D01*
X25640509Y-26869324D01*
X25643278Y-26844678D01*
X25647450Y-26819673D01*
X25652954Y-26794263D01*
X25667665Y-26742026D01*
X25686836Y-26687576D01*
X25709892Y-26630522D01*
X25765354Y-26507035D01*
X25829446Y-26368433D01*
X25831768Y-26362005D01*
X25833195Y-26355705D01*
X25833781Y-26349525D01*
X25833581Y-26343460D01*
X25832648Y-26337500D01*
X25831036Y-26331640D01*
X25828799Y-26325871D01*
X25825990Y-26320187D01*
X25822664Y-26314580D01*
X25818874Y-26309044D01*
X25814674Y-26303570D01*
X25810117Y-26298152D01*
X25800151Y-26287453D01*
X25789407Y-26276890D01*
X25767303Y-26255937D01*
X25756804Y-26245433D01*
X25747250Y-26234831D01*
X25742960Y-26229476D01*
X25739069Y-26224075D01*
X25735628Y-26218621D01*
X25732692Y-26213107D01*
X25730315Y-26207525D01*
X25728550Y-26201868D01*
X25727452Y-26196129D01*
X25727074Y-26190301D01*
X25730532Y-26146357D01*
X25739491Y-26104202D01*
X25753685Y-26063829D01*
X25772850Y-26025231D01*
X25796718Y-25988398D01*
X25825025Y-25953324D01*
X25857506Y-25920000D01*
X25893895Y-25888419D01*
X25933927Y-25858572D01*
X25977336Y-25830453D01*
X26073222Y-25779363D01*
X26179432Y-25735086D01*
X26293842Y-25697559D01*
X26414327Y-25666721D01*
X26538764Y-25642507D01*
X26665030Y-25624854D01*
X26791001Y-25613701D01*
X26914552Y-25608984D01*
X27033562Y-25610641D01*
D11*
X24456953Y-26505522D02*
X24456793Y-26505547D01*
X24456803Y-26505366D01*
X24456953Y-26505522D01*
G36*
X24456953Y-26505522D02*
G01*
X24456793Y-26505547D01*
X24456803Y-26505366D01*
X24456953Y-26505522D01*
G37*
D10*
X21983026Y-21340265D02*
X22149221Y-21348580D01*
X22323117Y-21363684D01*
X22503437Y-21385775D01*
X22688904Y-21415052D01*
X22878242Y-21451711D01*
X23070172Y-21495952D01*
X23263418Y-21547972D01*
X23456703Y-21607971D01*
X23648749Y-21676145D01*
X23838280Y-21752692D01*
X24024018Y-21837812D01*
X24204687Y-21931703D01*
X24278817Y-21974302D01*
X24349051Y-22017330D01*
X24415631Y-22060731D01*
X24478801Y-22104451D01*
X24595887Y-22192625D01*
X24702258Y-22281413D01*
X24799864Y-22370375D01*
X24890654Y-22459071D01*
X25059584Y-22633908D01*
X25141623Y-22719169D01*
X25224644Y-22802405D01*
X25310596Y-22883177D01*
X25401430Y-22961045D01*
X25499093Y-23035569D01*
X25551096Y-23071440D01*
X25605537Y-23106310D01*
X25662660Y-23140124D01*
X25722710Y-23172828D01*
X25785929Y-23204366D01*
X25852561Y-23234683D01*
X25779273Y-23225258D01*
X25708012Y-23220359D01*
X25638774Y-23219799D01*
X25571552Y-23223388D01*
X25506343Y-23230937D01*
X25443141Y-23242256D01*
X25381942Y-23257157D01*
X25322740Y-23275451D01*
X25265532Y-23296949D01*
X25210312Y-23321461D01*
X25157076Y-23348799D01*
X25105817Y-23378773D01*
X25056533Y-23411195D01*
X25009217Y-23445875D01*
X24963865Y-23482624D01*
X24920473Y-23521253D01*
X24839546Y-23603397D01*
X24766397Y-23690794D01*
X24700989Y-23781930D01*
X24643281Y-23875293D01*
X24593236Y-23969372D01*
X24550815Y-24062654D01*
X24515978Y-24153626D01*
X24488688Y-24240775D01*
X24464475Y-24332609D01*
X24444048Y-24424979D01*
X24427715Y-24517803D01*
X24415778Y-24611000D01*
X24408544Y-24704486D01*
X24406316Y-24798180D01*
X24409400Y-24892000D01*
X24418100Y-24985864D01*
X24432722Y-25079688D01*
X24453569Y-25173392D01*
X24480946Y-25266893D01*
X24515159Y-25360108D01*
X24556512Y-25452956D01*
X24605310Y-25545355D01*
X24661858Y-25637221D01*
X24726460Y-25728474D01*
X24703138Y-25780666D01*
X24679207Y-25828877D01*
X24654986Y-25873840D01*
X24630794Y-25916291D01*
X24583774Y-25996593D01*
X24561584Y-26035913D01*
X24540701Y-26075659D01*
X24521443Y-26116564D01*
X24504130Y-26159363D01*
X24496302Y-26181703D01*
X24489081Y-26204791D01*
X24482505Y-26228720D01*
X24476615Y-26253582D01*
X24471450Y-26279468D01*
X24467051Y-26306471D01*
X24463458Y-26334681D01*
X24460709Y-26364192D01*
X24458846Y-26395094D01*
X24457909Y-26427479D01*
X24457936Y-26461440D01*
X24458968Y-26497068D01*
X24378795Y-26504880D01*
X24306749Y-26510681D01*
X24239192Y-26514007D01*
X24205960Y-26514596D01*
X24172487Y-26514393D01*
X24138317Y-26513339D01*
X24102995Y-26511376D01*
X24066068Y-26508447D01*
X24027080Y-26504493D01*
X23985576Y-26499456D01*
X23941102Y-26493278D01*
X23841425Y-26477268D01*
X23828833Y-26441267D01*
X23815264Y-26406197D01*
X23785543Y-26338556D01*
X23752958Y-26273756D01*
X23718206Y-26211208D01*
X23681983Y-26150323D01*
X23644986Y-26090510D01*
X23571457Y-25971746D01*
X23536318Y-25911615D01*
X23503192Y-25850198D01*
X23472774Y-25786907D01*
X23445762Y-25721152D01*
X23433751Y-25687166D01*
X23422852Y-25652343D01*
X23413153Y-25616609D01*
X23404741Y-25579890D01*
X23397703Y-25542114D01*
X23392125Y-25503205D01*
X23388096Y-25463091D01*
X23385701Y-25421698D01*
X23329451Y-25396912D01*
X23258451Y-25371243D01*
X23174438Y-25345351D01*
X23079149Y-25319900D01*
X22974321Y-25295550D01*
X22861690Y-25272964D01*
X22742993Y-25252804D01*
X22619967Y-25235732D01*
X22494347Y-25222409D01*
X22367871Y-25213498D01*
X22242276Y-25209661D01*
X22119298Y-25211560D01*
X22000673Y-25219856D01*
X21888139Y-25235212D01*
X21783431Y-25258289D01*
X21734555Y-25272930D01*
X21688287Y-25289750D01*
X21688290Y-25289760D01*
X21658497Y-25384970D01*
X21624249Y-25475305D01*
X21586508Y-25560991D01*
X21546238Y-25642256D01*
X21504400Y-25719326D01*
X21461957Y-25792429D01*
X21379108Y-25927642D01*
X21305392Y-26049712D01*
X21274366Y-26106385D01*
X21248511Y-26160455D01*
X21228789Y-26212147D01*
X21221529Y-26237172D01*
X21216164Y-26261689D01*
X21212814Y-26285724D01*
X21211598Y-26309308D01*
X21212638Y-26332467D01*
X21216054Y-26355230D01*
X21081484Y-26392135D01*
X21010561Y-26409968D01*
X20973309Y-26418054D01*
X20934529Y-26425327D01*
X20893968Y-26431595D01*
X20851376Y-26436665D01*
X20806501Y-26440343D01*
X20759091Y-26442436D01*
X20708895Y-26442751D01*
X20655660Y-26441094D01*
X20599137Y-26437273D01*
X20539072Y-26431094D01*
X20537377Y-26415259D01*
X20534218Y-26398696D01*
X20529697Y-26381432D01*
X20523917Y-26363492D01*
X20508990Y-26325687D01*
X20490262Y-26285490D01*
X20468553Y-26243109D01*
X20444687Y-26198752D01*
X20393771Y-26104940D01*
X20368366Y-26055900D01*
X20344092Y-26005715D01*
X20321774Y-25954592D01*
X20302231Y-25902740D01*
X20293758Y-25876605D01*
X20286288Y-25850366D01*
X20279923Y-25824048D01*
X20274766Y-25797677D01*
X20270921Y-25771280D01*
X20268489Y-25744882D01*
X20267573Y-25718510D01*
X20268277Y-25692189D01*
X20218939Y-25698288D01*
X20172180Y-25702942D01*
X20127559Y-25706099D01*
X20084636Y-25707704D01*
X20042970Y-25707706D01*
X20002122Y-25706050D01*
X19961651Y-25702683D01*
X19921118Y-25697553D01*
X19880081Y-25690606D01*
X19838101Y-25681789D01*
X19794737Y-25671049D01*
X19749550Y-25658332D01*
X19702098Y-25643586D01*
X19651943Y-25626757D01*
X19598643Y-25607791D01*
X19541759Y-25586637D01*
X19501733Y-25569395D01*
X19461023Y-25548664D01*
X19419797Y-25524549D01*
X19378222Y-25497155D01*
X19336465Y-25466590D01*
X19294695Y-25432958D01*
X19253078Y-25396365D01*
X19211782Y-25356917D01*
X19170975Y-25314720D01*
X19130823Y-25269878D01*
X19091496Y-25222499D01*
X19053159Y-25172687D01*
X19015981Y-25120549D01*
X18980129Y-25066190D01*
X18945771Y-25009715D01*
X18913074Y-24951231D01*
X18882205Y-24890844D01*
X18853332Y-24828658D01*
X18826623Y-24764779D01*
X18802245Y-24699314D01*
X18780365Y-24632368D01*
X18761152Y-24564047D01*
X18744772Y-24494456D01*
X18731393Y-24423701D01*
X18721182Y-24351888D01*
X18714308Y-24279123D01*
X18710937Y-24205510D01*
X18711237Y-24131157D01*
X18715376Y-24056168D01*
X18723520Y-23980650D01*
X18735839Y-23904707D01*
X18752498Y-23828447D01*
X18800387Y-23651030D01*
X18858212Y-23468761D01*
X18927240Y-23283362D01*
X19008740Y-23096552D01*
X19103978Y-22910051D01*
X19214221Y-22725580D01*
X19340738Y-22544858D01*
X19410495Y-22456441D01*
X19484795Y-22369606D01*
X19563797Y-22284569D01*
X19647660Y-22201544D01*
X19736542Y-22120747D01*
X19830601Y-22042393D01*
X19929995Y-21966696D01*
X20034884Y-21893872D01*
X20145425Y-21824135D01*
X20261777Y-21757701D01*
X20384099Y-21694785D01*
X20512548Y-21635602D01*
X20647284Y-21580366D01*
X20788464Y-21529293D01*
X20936247Y-21482598D01*
X21090792Y-21440496D01*
X21252257Y-21403202D01*
X21420800Y-21370930D01*
X21543420Y-21354071D01*
X21678848Y-21343209D01*
X21825809Y-21338541D01*
X21983026Y-21340265D01*
X21220461Y-26376870D02*
X21232420Y-26394816D01*
X21259010Y-26429600D01*
X21288889Y-26463069D01*
X21321729Y-26495418D01*
X21357200Y-26526839D01*
X21394974Y-26557525D01*
X21434722Y-26587670D01*
X21476114Y-26617467D01*
X21651553Y-26737042D01*
X21740588Y-26799768D01*
X21784283Y-26832542D01*
X21826991Y-26866515D01*
X21847490Y-26884268D01*
X21867491Y-26903431D01*
X21886982Y-26923888D01*
X21905950Y-26945522D01*
X21942260Y-26991855D01*
X21976317Y-27041499D01*
X22008012Y-27093520D01*
X22037241Y-27146986D01*
X22063896Y-27200965D01*
X22087872Y-27254523D01*
X22109061Y-27306728D01*
X22127357Y-27356647D01*
X22142655Y-27403349D01*
X22154847Y-27445899D01*
X22163828Y-27483366D01*
X22169490Y-27514818D01*
X22171728Y-27539320D01*
X22171530Y-27548674D01*
X22170436Y-27555942D01*
X22167568Y-27561577D01*
X22163940Y-27566152D01*
X22159588Y-27569729D01*
X22154543Y-27572370D01*
X22148840Y-27574137D01*
X22142514Y-27575090D01*
X22135597Y-27575292D01*
X22128124Y-27574805D01*
X22111644Y-27572006D01*
X22093346Y-27567188D01*
X22073500Y-27560842D01*
X22052376Y-27553463D01*
X22007382Y-27537574D01*
X21984052Y-27530050D01*
X21960530Y-27523464D01*
X21937084Y-27518308D01*
X21913987Y-27515076D01*
X21902654Y-27514335D01*
X21891509Y-27514260D01*
X21880587Y-27514912D01*
X21869922Y-27516353D01*
X21859863Y-27519096D01*
X21850711Y-27522947D01*
X21842424Y-27527836D01*
X21834963Y-27533691D01*
X21828285Y-27540443D01*
X21822350Y-27548021D01*
X21817116Y-27556353D01*
X21812542Y-27565370D01*
X21808587Y-27575001D01*
X21805211Y-27585174D01*
X21802371Y-27595820D01*
X21800028Y-27606868D01*
X21796663Y-27629885D01*
X21794789Y-27653661D01*
X21794075Y-27677631D01*
X21794194Y-27701228D01*
X21795613Y-27745045D01*
X21796414Y-27780591D01*
X21795760Y-27793848D01*
X21793965Y-27803341D01*
X21790696Y-27805518D01*
X21787085Y-27806532D01*
X21783137Y-27806456D01*
X21778860Y-27805364D01*
X21774258Y-27803330D01*
X21769338Y-27800428D01*
X21758568Y-27792312D01*
X21746599Y-27781606D01*
X21733478Y-27768899D01*
X21703976Y-27739843D01*
X21687692Y-27724673D01*
X21670450Y-27709860D01*
X21652298Y-27695994D01*
X21642897Y-27689600D01*
X21633286Y-27683665D01*
X21623472Y-27678260D01*
X21613461Y-27673461D01*
X21603259Y-27669341D01*
X21592871Y-27665974D01*
X21582305Y-27663433D01*
X21571566Y-27661792D01*
X21560660Y-27661124D01*
X21549593Y-27661504D01*
X21538472Y-27663319D01*
X21528002Y-27666241D01*
X21518156Y-27670199D01*
X21508907Y-27675119D01*
X21500229Y-27680931D01*
X21492095Y-27687563D01*
X21484479Y-27694942D01*
X21477354Y-27702997D01*
X21470693Y-27711656D01*
X21464470Y-27720847D01*
X21458658Y-27730499D01*
X21453231Y-27740538D01*
X21443424Y-27761495D01*
X21434836Y-27783143D01*
X21427254Y-27804907D01*
X21420466Y-27826211D01*
X21408417Y-27865144D01*
X21402732Y-27881623D01*
X21396988Y-27895343D01*
X21394028Y-27900988D01*
X21390973Y-27905729D01*
X21387798Y-27909492D01*
X21384475Y-27912206D01*
X21379705Y-27914606D01*
X21374678Y-27915088D01*
X21369389Y-27913785D01*
X21363835Y-27910828D01*
X21358010Y-27906349D01*
X21351909Y-27900479D01*
X21338861Y-27885095D01*
X21274671Y-27794279D01*
X21255431Y-27769521D01*
X21234837Y-27746048D01*
X21224019Y-27735123D01*
X21212849Y-27724914D01*
X21201321Y-27715553D01*
X21189429Y-27707172D01*
X21177171Y-27699903D01*
X21164539Y-27693876D01*
X21151531Y-27689224D01*
X21138140Y-27686078D01*
X21124362Y-27684571D01*
X21110192Y-27684833D01*
X21095626Y-27686996D01*
X21080658Y-27691193D01*
X21066180Y-27696977D01*
X21052446Y-27703763D01*
X21039429Y-27711468D01*
X21027098Y-27720010D01*
X21015426Y-27729309D01*
X21004382Y-27739283D01*
X20993938Y-27749850D01*
X20984065Y-27760928D01*
X20974733Y-27772437D01*
X20965915Y-27784294D01*
X20949700Y-27808728D01*
X20935187Y-27833577D01*
X20922145Y-27858189D01*
X20899545Y-27904094D01*
X20889522Y-27924082D01*
X20880040Y-27941224D01*
X20875430Y-27948524D01*
X20870869Y-27954867D01*
X20866327Y-27960173D01*
X20861775Y-27964359D01*
X20857184Y-27967345D01*
X20852526Y-27969048D01*
X20847771Y-27969387D01*
X20842890Y-27968281D01*
X20816261Y-27954030D01*
X20791439Y-27934377D01*
X20768353Y-27909639D01*
X20746931Y-27880136D01*
X20727104Y-27846184D01*
X20708799Y-27808103D01*
X20676477Y-27720825D01*
X20649399Y-27620849D01*
X20627000Y-27510721D01*
X20608712Y-27392988D01*
X20593970Y-27270195D01*
X20572861Y-27019619D01*
X20559143Y-26779364D01*
X20548288Y-26569802D01*
X20535769Y-26411305D01*
X20584983Y-26414553D01*
X20633522Y-26416883D01*
X20681325Y-26418305D01*
X20728335Y-26418828D01*
X20774494Y-26418463D01*
X20819744Y-26417218D01*
X20864026Y-26415103D01*
X20907282Y-26412128D01*
X20949455Y-26408303D01*
X20990487Y-26403636D01*
X21030318Y-26398139D01*
X21068892Y-26391820D01*
X21106150Y-26384690D01*
X21142034Y-26376757D01*
X21176486Y-26368032D01*
X21209449Y-26358524D01*
X21220461Y-26376870D01*
D13*
X60823647Y-28702000D02*
X61849000Y-28702000D01*
D10*
D12*
X91131571Y-40156580D02*
X90889666Y-40156580D01*
X90889666Y-40156580D02*
X90768714Y-40217056D01*
X90768714Y-40217056D02*
X90647761Y-40338008D01*
X90647761Y-40338008D02*
X90587285Y-40579913D01*
X90587285Y-40579913D02*
X90587285Y-41003246D01*
X90587285Y-41003246D02*
X90647761Y-41245151D01*
X90647761Y-41245151D02*
X90768714Y-41366104D01*
X90768714Y-41366104D02*
X90889666Y-41426580D01*
X90889666Y-41426580D02*
X91131571Y-41426580D01*
X91131571Y-41426580D02*
X91252523Y-41366104D01*
X91252523Y-41366104D02*
X91373476Y-41245151D01*
X91373476Y-41245151D02*
X91433952Y-41003246D01*
X91433952Y-41003246D02*
X91433952Y-40579913D01*
X91433952Y-40579913D02*
X91373476Y-40338008D01*
X91373476Y-40338008D02*
X91252523Y-40217056D01*
X91252523Y-40217056D02*
X91131571Y-40156580D01*
X90043000Y-40156580D02*
X90043000Y-41184675D01*
X90043000Y-41184675D02*
X89982523Y-41305627D01*
X89982523Y-41305627D02*
X89922047Y-41366104D01*
X89922047Y-41366104D02*
X89801095Y-41426580D01*
X89801095Y-41426580D02*
X89559190Y-41426580D01*
X89559190Y-41426580D02*
X89438238Y-41366104D01*
X89438238Y-41366104D02*
X89377761Y-41305627D01*
X89377761Y-41305627D02*
X89317285Y-41184675D01*
X89317285Y-41184675D02*
X89317285Y-40156580D01*
X88893952Y-40156580D02*
X88168238Y-40156580D01*
X88531095Y-41426580D02*
X88531095Y-40156580D01*
X86233000Y-40579913D02*
X86233000Y-41426580D01*
X86535381Y-40096104D02*
X86837762Y-41003246D01*
X86837762Y-41003246D02*
X86051571Y-41003246D01*
X91010619Y-43471209D02*
X91010619Y-42201209D01*
X90405857Y-43471209D02*
X90405857Y-42201209D01*
X90405857Y-42201209D02*
X89680142Y-43471209D01*
X89680142Y-43471209D02*
X89680142Y-42201209D01*
X86474904Y-43471209D02*
X87200619Y-43471209D01*
X86837762Y-43471209D02*
X86837762Y-42201209D01*
X86837762Y-42201209D02*
X86958714Y-42382637D01*
X86958714Y-42382637D02*
X87079666Y-42503590D01*
X87079666Y-42503590D02*
X87200619Y-42564066D01*
X21154571Y-39927980D02*
X20912666Y-39927980D01*
X20912666Y-39927980D02*
X20791714Y-39988456D01*
X20791714Y-39988456D02*
X20670761Y-40109408D01*
X20670761Y-40109408D02*
X20610285Y-40351313D01*
X20610285Y-40351313D02*
X20610285Y-40774646D01*
X20610285Y-40774646D02*
X20670761Y-41016551D01*
X20670761Y-41016551D02*
X20791714Y-41137504D01*
X20791714Y-41137504D02*
X20912666Y-41197980D01*
X20912666Y-41197980D02*
X21154571Y-41197980D01*
X21154571Y-41197980D02*
X21275523Y-41137504D01*
X21275523Y-41137504D02*
X21396476Y-41016551D01*
X21396476Y-41016551D02*
X21456952Y-40774646D01*
X21456952Y-40774646D02*
X21456952Y-40351313D01*
X21456952Y-40351313D02*
X21396476Y-40109408D01*
X21396476Y-40109408D02*
X21275523Y-39988456D01*
X21275523Y-39988456D02*
X21154571Y-39927980D01*
X20066000Y-39927980D02*
X20066000Y-40956075D01*
X20066000Y-40956075D02*
X20005523Y-41077027D01*
X20005523Y-41077027D02*
X19945047Y-41137504D01*
X19945047Y-41137504D02*
X19824095Y-41197980D01*
X19824095Y-41197980D02*
X19582190Y-41197980D01*
X19582190Y-41197980D02*
X19461238Y-41137504D01*
X19461238Y-41137504D02*
X19400761Y-41077027D01*
X19400761Y-41077027D02*
X19340285Y-40956075D01*
X19340285Y-40956075D02*
X19340285Y-39927980D01*
X18916952Y-39927980D02*
X18191238Y-39927980D01*
X18554095Y-41197980D02*
X18554095Y-39927980D01*
X16135047Y-41197980D02*
X16860762Y-41197980D01*
X16497905Y-41197980D02*
X16497905Y-39927980D01*
X16497905Y-39927980D02*
X16618857Y-40109408D01*
X16618857Y-40109408D02*
X16739809Y-40230361D01*
X16739809Y-40230361D02*
X16860762Y-40290837D01*
X21033619Y-43242609D02*
X21033619Y-41972609D01*
X20428857Y-43242609D02*
X20428857Y-41972609D01*
X20428857Y-41972609D02*
X19703142Y-43242609D01*
X19703142Y-43242609D02*
X19703142Y-41972609D01*
X16618857Y-42395942D02*
X16618857Y-43242609D01*
X16921238Y-41912133D02*
X17223619Y-42819275D01*
X17223619Y-42819275D02*
X16437428Y-42819275D01*
D14*
X64380531Y-21879432D02*
X64864341Y-21879432D01*
X64864341Y-21879432D02*
X64864341Y-20863432D01*
X64041865Y-21879432D02*
X64041865Y-21202099D01*
X64041865Y-20863432D02*
X64090246Y-20911813D01*
X64090246Y-20911813D02*
X64041865Y-20960194D01*
X64041865Y-20960194D02*
X63993484Y-20911813D01*
X63993484Y-20911813D02*
X64041865Y-20863432D01*
X64041865Y-20863432D02*
X64041865Y-20960194D01*
X63558055Y-21202099D02*
X63558055Y-21879432D01*
X63558055Y-21298861D02*
X63509674Y-21250480D01*
X63509674Y-21250480D02*
X63412912Y-21202099D01*
X63412912Y-21202099D02*
X63267769Y-21202099D01*
X63267769Y-21202099D02*
X63171007Y-21250480D01*
X63171007Y-21250480D02*
X63122626Y-21347242D01*
X63122626Y-21347242D02*
X63122626Y-21879432D01*
X62638817Y-21879432D02*
X62638817Y-20863432D01*
X62542055Y-21492385D02*
X62251769Y-21879432D01*
X62251769Y-21202099D02*
X62638817Y-21589147D01*
X61090627Y-21831052D02*
X60993865Y-21879432D01*
X60993865Y-21879432D02*
X60800341Y-21879432D01*
X60800341Y-21879432D02*
X60703579Y-21831052D01*
X60703579Y-21831052D02*
X60655198Y-21734290D01*
X60655198Y-21734290D02*
X60655198Y-21685909D01*
X60655198Y-21685909D02*
X60703579Y-21589147D01*
X60703579Y-21589147D02*
X60800341Y-21540766D01*
X60800341Y-21540766D02*
X60945484Y-21540766D01*
X60945484Y-21540766D02*
X61042246Y-21492385D01*
X61042246Y-21492385D02*
X61090627Y-21395623D01*
X61090627Y-21395623D02*
X61090627Y-21347242D01*
X61090627Y-21347242D02*
X61042246Y-21250480D01*
X61042246Y-21250480D02*
X60945484Y-21202099D01*
X60945484Y-21202099D02*
X60800341Y-21202099D01*
X60800341Y-21202099D02*
X60703579Y-21250480D01*
X60316532Y-21202099D02*
X60123008Y-21879432D01*
X60123008Y-21879432D02*
X59929484Y-21395623D01*
X59929484Y-21395623D02*
X59735960Y-21879432D01*
X59735960Y-21879432D02*
X59542436Y-21202099D01*
X59155389Y-21879432D02*
X59155389Y-21202099D01*
X59155389Y-20863432D02*
X59203770Y-20911813D01*
X59203770Y-20911813D02*
X59155389Y-20960194D01*
X59155389Y-20960194D02*
X59107008Y-20911813D01*
X59107008Y-20911813D02*
X59155389Y-20863432D01*
X59155389Y-20863432D02*
X59155389Y-20960194D01*
X58816722Y-21202099D02*
X58429674Y-21202099D01*
X58671579Y-20863432D02*
X58671579Y-21734290D01*
X58671579Y-21734290D02*
X58623198Y-21831052D01*
X58623198Y-21831052D02*
X58526436Y-21879432D01*
X58526436Y-21879432D02*
X58429674Y-21879432D01*
X57655579Y-21831052D02*
X57752341Y-21879432D01*
X57752341Y-21879432D02*
X57945865Y-21879432D01*
X57945865Y-21879432D02*
X58042627Y-21831052D01*
X58042627Y-21831052D02*
X58091008Y-21782671D01*
X58091008Y-21782671D02*
X58139389Y-21685909D01*
X58139389Y-21685909D02*
X58139389Y-21395623D01*
X58139389Y-21395623D02*
X58091008Y-21298861D01*
X58091008Y-21298861D02*
X58042627Y-21250480D01*
X58042627Y-21250480D02*
X57945865Y-21202099D01*
X57945865Y-21202099D02*
X57752341Y-21202099D01*
X57752341Y-21202099D02*
X57655579Y-21250480D01*
X57220151Y-21879432D02*
X57220151Y-20863432D01*
X56784722Y-21879432D02*
X56784722Y-21347242D01*
X56784722Y-21347242D02*
X56833103Y-21250480D01*
X56833103Y-21250480D02*
X56929865Y-21202099D01*
X56929865Y-21202099D02*
X57075008Y-21202099D01*
X57075008Y-21202099D02*
X57171770Y-21250480D01*
X57171770Y-21250480D02*
X57220151Y-21298861D01*
X55526818Y-21202099D02*
X55526818Y-22218099D01*
X55526818Y-21250480D02*
X55430056Y-21202099D01*
X55430056Y-21202099D02*
X55236532Y-21202099D01*
X55236532Y-21202099D02*
X55139770Y-21250480D01*
X55139770Y-21250480D02*
X55091389Y-21298861D01*
X55091389Y-21298861D02*
X55043008Y-21395623D01*
X55043008Y-21395623D02*
X55043008Y-21685909D01*
X55043008Y-21685909D02*
X55091389Y-21782671D01*
X55091389Y-21782671D02*
X55139770Y-21831052D01*
X55139770Y-21831052D02*
X55236532Y-21879432D01*
X55236532Y-21879432D02*
X55430056Y-21879432D01*
X55430056Y-21879432D02*
X55526818Y-21831052D01*
X54172151Y-21879432D02*
X54172151Y-21347242D01*
X54172151Y-21347242D02*
X54220532Y-21250480D01*
X54220532Y-21250480D02*
X54317294Y-21202099D01*
X54317294Y-21202099D02*
X54510818Y-21202099D01*
X54510818Y-21202099D02*
X54607580Y-21250480D01*
X54172151Y-21831052D02*
X54268913Y-21879432D01*
X54268913Y-21879432D02*
X54510818Y-21879432D01*
X54510818Y-21879432D02*
X54607580Y-21831052D01*
X54607580Y-21831052D02*
X54655961Y-21734290D01*
X54655961Y-21734290D02*
X54655961Y-21637528D01*
X54655961Y-21637528D02*
X54607580Y-21540766D01*
X54607580Y-21540766D02*
X54510818Y-21492385D01*
X54510818Y-21492385D02*
X54268913Y-21492385D01*
X54268913Y-21492385D02*
X54172151Y-21444004D01*
X53252913Y-21879432D02*
X53252913Y-20863432D01*
X53252913Y-21831052D02*
X53349675Y-21879432D01*
X53349675Y-21879432D02*
X53543199Y-21879432D01*
X53543199Y-21879432D02*
X53639961Y-21831052D01*
X53639961Y-21831052D02*
X53688342Y-21782671D01*
X53688342Y-21782671D02*
X53736723Y-21685909D01*
X53736723Y-21685909D02*
X53736723Y-21395623D01*
X53736723Y-21395623D02*
X53688342Y-21298861D01*
X53688342Y-21298861D02*
X53639961Y-21250480D01*
X53639961Y-21250480D02*
X53543199Y-21202099D01*
X53543199Y-21202099D02*
X53349675Y-21202099D01*
X53349675Y-21202099D02*
X53252913Y-21250480D01*
X52817485Y-21831052D02*
X52720723Y-21879432D01*
X52720723Y-21879432D02*
X52527199Y-21879432D01*
X52527199Y-21879432D02*
X52430437Y-21831052D01*
X52430437Y-21831052D02*
X52382056Y-21734290D01*
X52382056Y-21734290D02*
X52382056Y-21685909D01*
X52382056Y-21685909D02*
X52430437Y-21589147D01*
X52430437Y-21589147D02*
X52527199Y-21540766D01*
X52527199Y-21540766D02*
X52672342Y-21540766D01*
X52672342Y-21540766D02*
X52769104Y-21492385D01*
X52769104Y-21492385D02*
X52817485Y-21395623D01*
X52817485Y-21395623D02*
X52817485Y-21347242D01*
X52817485Y-21347242D02*
X52769104Y-21250480D01*
X52769104Y-21250480D02*
X52672342Y-21202099D01*
X52672342Y-21202099D02*
X52527199Y-21202099D01*
X52527199Y-21202099D02*
X52430437Y-21250480D01*
X51317676Y-21202099D02*
X50930628Y-21202099D01*
X51172533Y-20863432D02*
X51172533Y-21734290D01*
X51172533Y-21734290D02*
X51124152Y-21831052D01*
X51124152Y-21831052D02*
X51027390Y-21879432D01*
X51027390Y-21879432D02*
X50930628Y-21879432D01*
X50446819Y-21879432D02*
X50543581Y-21831052D01*
X50543581Y-21831052D02*
X50591962Y-21782671D01*
X50591962Y-21782671D02*
X50640343Y-21685909D01*
X50640343Y-21685909D02*
X50640343Y-21395623D01*
X50640343Y-21395623D02*
X50591962Y-21298861D01*
X50591962Y-21298861D02*
X50543581Y-21250480D01*
X50543581Y-21250480D02*
X50446819Y-21202099D01*
X50446819Y-21202099D02*
X50301676Y-21202099D01*
X50301676Y-21202099D02*
X50204914Y-21250480D01*
X50204914Y-21250480D02*
X50156533Y-21298861D01*
X50156533Y-21298861D02*
X50108152Y-21395623D01*
X50108152Y-21395623D02*
X50108152Y-21685909D01*
X50108152Y-21685909D02*
X50156533Y-21782671D01*
X50156533Y-21782671D02*
X50204914Y-21831052D01*
X50204914Y-21831052D02*
X50301676Y-21879432D01*
X50301676Y-21879432D02*
X50446819Y-21879432D01*
X48366438Y-20911813D02*
X48463200Y-20863432D01*
X48463200Y-20863432D02*
X48608343Y-20863432D01*
X48608343Y-20863432D02*
X48753486Y-20911813D01*
X48753486Y-20911813D02*
X48850248Y-21008575D01*
X48850248Y-21008575D02*
X48898629Y-21105337D01*
X48898629Y-21105337D02*
X48947010Y-21298861D01*
X48947010Y-21298861D02*
X48947010Y-21444004D01*
X48947010Y-21444004D02*
X48898629Y-21637528D01*
X48898629Y-21637528D02*
X48850248Y-21734290D01*
X48850248Y-21734290D02*
X48753486Y-21831052D01*
X48753486Y-21831052D02*
X48608343Y-21879432D01*
X48608343Y-21879432D02*
X48511581Y-21879432D01*
X48511581Y-21879432D02*
X48366438Y-21831052D01*
X48366438Y-21831052D02*
X48318057Y-21782671D01*
X48318057Y-21782671D02*
X48318057Y-21444004D01*
X48318057Y-21444004D02*
X48511581Y-21444004D01*
X47882629Y-21879432D02*
X47882629Y-20863432D01*
X47882629Y-20863432D02*
X47302057Y-21879432D01*
X47302057Y-21879432D02*
X47302057Y-20863432D01*
X46818248Y-21879432D02*
X46818248Y-20863432D01*
X46818248Y-20863432D02*
X46576343Y-20863432D01*
X46576343Y-20863432D02*
X46431200Y-20911813D01*
X46431200Y-20911813D02*
X46334438Y-21008575D01*
X46334438Y-21008575D02*
X46286057Y-21105337D01*
X46286057Y-21105337D02*
X46237676Y-21298861D01*
X46237676Y-21298861D02*
X46237676Y-21444004D01*
X46237676Y-21444004D02*
X46286057Y-21637528D01*
X46286057Y-21637528D02*
X46334438Y-21734290D01*
X46334438Y-21734290D02*
X46431200Y-21831052D01*
X46431200Y-21831052D02*
X46576343Y-21879432D01*
X46576343Y-21879432D02*
X46818248Y-21879432D01*
X61913104Y-22837802D02*
X61526056Y-22837802D01*
X61767961Y-23515135D02*
X61767961Y-22644278D01*
X61767961Y-22644278D02*
X61719580Y-22547516D01*
X61719580Y-22547516D02*
X61622818Y-22499135D01*
X61622818Y-22499135D02*
X61526056Y-22499135D01*
X61042247Y-23515135D02*
X61139009Y-23466755D01*
X61139009Y-23466755D02*
X61187390Y-23418374D01*
X61187390Y-23418374D02*
X61235771Y-23321612D01*
X61235771Y-23321612D02*
X61235771Y-23031326D01*
X61235771Y-23031326D02*
X61187390Y-22934564D01*
X61187390Y-22934564D02*
X61139009Y-22886183D01*
X61139009Y-22886183D02*
X61042247Y-22837802D01*
X61042247Y-22837802D02*
X60897104Y-22837802D01*
X60897104Y-22837802D02*
X60800342Y-22886183D01*
X60800342Y-22886183D02*
X60751961Y-22934564D01*
X60751961Y-22934564D02*
X60703580Y-23031326D01*
X60703580Y-23031326D02*
X60703580Y-23321612D01*
X60703580Y-23321612D02*
X60751961Y-23418374D01*
X60751961Y-23418374D02*
X60800342Y-23466755D01*
X60800342Y-23466755D02*
X60897104Y-23515135D01*
X60897104Y-23515135D02*
X61042247Y-23515135D01*
X60268152Y-23515135D02*
X60268152Y-22837802D01*
X60268152Y-23031326D02*
X60219771Y-22934564D01*
X60219771Y-22934564D02*
X60171390Y-22886183D01*
X60171390Y-22886183D02*
X60074628Y-22837802D01*
X60074628Y-22837802D02*
X59977866Y-22837802D01*
X58865105Y-23515135D02*
X58865105Y-22499135D01*
X58381295Y-23515135D02*
X58381295Y-22499135D01*
X58381295Y-22499135D02*
X57800723Y-23515135D01*
X57800723Y-23515135D02*
X57800723Y-22499135D01*
X57316914Y-23515135D02*
X57316914Y-22499135D01*
X57316914Y-22499135D02*
X56929866Y-22499135D01*
X56929866Y-22499135D02*
X56833104Y-22547516D01*
X56833104Y-22547516D02*
X56784723Y-22595897D01*
X56784723Y-22595897D02*
X56736342Y-22692659D01*
X56736342Y-22692659D02*
X56736342Y-22837802D01*
X56736342Y-22837802D02*
X56784723Y-22934564D01*
X56784723Y-22934564D02*
X56833104Y-22982945D01*
X56833104Y-22982945D02*
X56929866Y-23031326D01*
X56929866Y-23031326D02*
X57316914Y-23031326D01*
X56300914Y-22499135D02*
X56300914Y-23321612D01*
X56300914Y-23321612D02*
X56252533Y-23418374D01*
X56252533Y-23418374D02*
X56204152Y-23466755D01*
X56204152Y-23466755D02*
X56107390Y-23515135D01*
X56107390Y-23515135D02*
X55913866Y-23515135D01*
X55913866Y-23515135D02*
X55817104Y-23466755D01*
X55817104Y-23466755D02*
X55768723Y-23418374D01*
X55768723Y-23418374D02*
X55720342Y-23321612D01*
X55720342Y-23321612D02*
X55720342Y-22499135D01*
X55381676Y-22499135D02*
X54801104Y-22499135D01*
X55091390Y-23515135D02*
X55091390Y-22499135D01*
X54510819Y-23466755D02*
X54365676Y-23515135D01*
X54365676Y-23515135D02*
X54123771Y-23515135D01*
X54123771Y-23515135D02*
X54027009Y-23466755D01*
X54027009Y-23466755D02*
X53978628Y-23418374D01*
X53978628Y-23418374D02*
X53930247Y-23321612D01*
X53930247Y-23321612D02*
X53930247Y-23224850D01*
X53930247Y-23224850D02*
X53978628Y-23128088D01*
X53978628Y-23128088D02*
X54027009Y-23079707D01*
X54027009Y-23079707D02*
X54123771Y-23031326D01*
X54123771Y-23031326D02*
X54317295Y-22982945D01*
X54317295Y-22982945D02*
X54414057Y-22934564D01*
X54414057Y-22934564D02*
X54462438Y-22886183D01*
X54462438Y-22886183D02*
X54510819Y-22789421D01*
X54510819Y-22789421D02*
X54510819Y-22692659D01*
X54510819Y-22692659D02*
X54462438Y-22595897D01*
X54462438Y-22595897D02*
X54414057Y-22547516D01*
X54414057Y-22547516D02*
X54317295Y-22499135D01*
X54317295Y-22499135D02*
X54075390Y-22499135D01*
X54075390Y-22499135D02*
X53930247Y-22547516D01*
X52527200Y-22499135D02*
X52333676Y-22499135D01*
X52333676Y-22499135D02*
X52236914Y-22547516D01*
X52236914Y-22547516D02*
X52140152Y-22644278D01*
X52140152Y-22644278D02*
X52091771Y-22837802D01*
X52091771Y-22837802D02*
X52091771Y-23176469D01*
X52091771Y-23176469D02*
X52140152Y-23369993D01*
X52140152Y-23369993D02*
X52236914Y-23466755D01*
X52236914Y-23466755D02*
X52333676Y-23515135D01*
X52333676Y-23515135D02*
X52527200Y-23515135D01*
X52527200Y-23515135D02*
X52623962Y-23466755D01*
X52623962Y-23466755D02*
X52720724Y-23369993D01*
X52720724Y-23369993D02*
X52769105Y-23176469D01*
X52769105Y-23176469D02*
X52769105Y-22837802D01*
X52769105Y-22837802D02*
X52720724Y-22644278D01*
X52720724Y-22644278D02*
X52623962Y-22547516D01*
X52623962Y-22547516D02*
X52527200Y-22499135D01*
X51656343Y-23515135D02*
X51656343Y-22499135D01*
X51656343Y-22499135D02*
X51075771Y-23515135D01*
X51075771Y-23515135D02*
X51075771Y-22499135D01*
X50108152Y-23515135D02*
X50591962Y-23515135D01*
X50591962Y-23515135D02*
X50591962Y-22499135D01*
X49575962Y-23031326D02*
X49575962Y-23515135D01*
X49914629Y-22499135D02*
X49575962Y-23031326D01*
X49575962Y-23031326D02*
X49237295Y-22499135D01*
D15*
X60392733Y-13594519D02*
X60562067Y-13509853D01*
X60562067Y-13509853D02*
X60646733Y-13425186D01*
X60646733Y-13425186D02*
X60731400Y-13255853D01*
X60731400Y-13255853D02*
X60731400Y-13171186D01*
X60731400Y-13171186D02*
X60646733Y-13001853D01*
X60646733Y-13001853D02*
X60562067Y-12917186D01*
X60562067Y-12917186D02*
X60392733Y-12832519D01*
X60392733Y-12832519D02*
X60054067Y-12832519D01*
X60054067Y-12832519D02*
X59884733Y-12917186D01*
X59884733Y-12917186D02*
X59800067Y-13001853D01*
X59800067Y-13001853D02*
X59715400Y-13171186D01*
X59715400Y-13171186D02*
X59715400Y-13255853D01*
X59715400Y-13255853D02*
X59800067Y-13425186D01*
X59800067Y-13425186D02*
X59884733Y-13509853D01*
X59884733Y-13509853D02*
X60054067Y-13594519D01*
X60054067Y-13594519D02*
X60392733Y-13594519D01*
X60392733Y-13594519D02*
X60562067Y-13679186D01*
X60562067Y-13679186D02*
X60646733Y-13763853D01*
X60646733Y-13763853D02*
X60731400Y-13933186D01*
X60731400Y-13933186D02*
X60731400Y-14271853D01*
X60731400Y-14271853D02*
X60646733Y-14441186D01*
X60646733Y-14441186D02*
X60562067Y-14525853D01*
X60562067Y-14525853D02*
X60392733Y-14610519D01*
X60392733Y-14610519D02*
X60054067Y-14610519D01*
X60054067Y-14610519D02*
X59884733Y-14525853D01*
X59884733Y-14525853D02*
X59800067Y-14441186D01*
X59800067Y-14441186D02*
X59715400Y-14271853D01*
X59715400Y-14271853D02*
X59715400Y-13933186D01*
X59715400Y-13933186D02*
X59800067Y-13763853D01*
X59800067Y-13763853D02*
X59884733Y-13679186D01*
X59884733Y-13679186D02*
X60054067Y-13594519D01*
X59122734Y-14610519D02*
X58191400Y-13425186D01*
X59122734Y-13425186D02*
X58191400Y-14610519D01*
X57260067Y-13594519D02*
X57429401Y-13509853D01*
X57429401Y-13509853D02*
X57514067Y-13425186D01*
X57514067Y-13425186D02*
X57598734Y-13255853D01*
X57598734Y-13255853D02*
X57598734Y-13171186D01*
X57598734Y-13171186D02*
X57514067Y-13001853D01*
X57514067Y-13001853D02*
X57429401Y-12917186D01*
X57429401Y-12917186D02*
X57260067Y-12832519D01*
X57260067Y-12832519D02*
X56921401Y-12832519D01*
X56921401Y-12832519D02*
X56752067Y-12917186D01*
X56752067Y-12917186D02*
X56667401Y-13001853D01*
X56667401Y-13001853D02*
X56582734Y-13171186D01*
X56582734Y-13171186D02*
X56582734Y-13255853D01*
X56582734Y-13255853D02*
X56667401Y-13425186D01*
X56667401Y-13425186D02*
X56752067Y-13509853D01*
X56752067Y-13509853D02*
X56921401Y-13594519D01*
X56921401Y-13594519D02*
X57260067Y-13594519D01*
X57260067Y-13594519D02*
X57429401Y-13679186D01*
X57429401Y-13679186D02*
X57514067Y-13763853D01*
X57514067Y-13763853D02*
X57598734Y-13933186D01*
X57598734Y-13933186D02*
X57598734Y-14271853D01*
X57598734Y-14271853D02*
X57514067Y-14441186D01*
X57514067Y-14441186D02*
X57429401Y-14525853D01*
X57429401Y-14525853D02*
X57260067Y-14610519D01*
X57260067Y-14610519D02*
X56921401Y-14610519D01*
X56921401Y-14610519D02*
X56752067Y-14525853D01*
X56752067Y-14525853D02*
X56667401Y-14441186D01*
X56667401Y-14441186D02*
X56582734Y-14271853D01*
X56582734Y-14271853D02*
X56582734Y-13933186D01*
X56582734Y-13933186D02*
X56667401Y-13763853D01*
X56667401Y-13763853D02*
X56752067Y-13679186D01*
X56752067Y-13679186D02*
X56921401Y-13594519D01*
X54550734Y-14102519D02*
X53704067Y-14102519D01*
X54720067Y-14610519D02*
X54127401Y-12832519D01*
X54127401Y-12832519D02*
X53534734Y-14610519D01*
X52180067Y-13425186D02*
X52180067Y-14610519D01*
X52942067Y-13425186D02*
X52942067Y-14356519D01*
X52942067Y-14356519D02*
X52857401Y-14525853D01*
X52857401Y-14525853D02*
X52688067Y-14610519D01*
X52688067Y-14610519D02*
X52434067Y-14610519D01*
X52434067Y-14610519D02*
X52264734Y-14525853D01*
X52264734Y-14525853D02*
X52180067Y-14441186D01*
X50571400Y-14610519D02*
X50571400Y-12832519D01*
X50571400Y-14525853D02*
X50740734Y-14610519D01*
X50740734Y-14610519D02*
X51079400Y-14610519D01*
X51079400Y-14610519D02*
X51248734Y-14525853D01*
X51248734Y-14525853D02*
X51333400Y-14441186D01*
X51333400Y-14441186D02*
X51418067Y-14271853D01*
X51418067Y-14271853D02*
X51418067Y-13763853D01*
X51418067Y-13763853D02*
X51333400Y-13594519D01*
X51333400Y-13594519D02*
X51248734Y-13509853D01*
X51248734Y-13509853D02*
X51079400Y-13425186D01*
X51079400Y-13425186D02*
X50740734Y-13425186D01*
X50740734Y-13425186D02*
X50571400Y-13509853D01*
X49724733Y-14610519D02*
X49724733Y-13425186D01*
X49724733Y-12832519D02*
X49809400Y-12917186D01*
X49809400Y-12917186D02*
X49724733Y-13001853D01*
X49724733Y-13001853D02*
X49640067Y-12917186D01*
X49640067Y-12917186D02*
X49724733Y-12832519D01*
X49724733Y-12832519D02*
X49724733Y-13001853D01*
X48624066Y-14610519D02*
X48793400Y-14525853D01*
X48793400Y-14525853D02*
X48878066Y-14441186D01*
X48878066Y-14441186D02*
X48962733Y-14271853D01*
X48962733Y-14271853D02*
X48962733Y-13763853D01*
X48962733Y-13763853D02*
X48878066Y-13594519D01*
X48878066Y-13594519D02*
X48793400Y-13509853D01*
X48793400Y-13509853D02*
X48624066Y-13425186D01*
X48624066Y-13425186D02*
X48370066Y-13425186D01*
X48370066Y-13425186D02*
X48200733Y-13509853D01*
X48200733Y-13509853D02*
X48116066Y-13594519D01*
X48116066Y-13594519D02*
X48031400Y-13763853D01*
X48031400Y-13763853D02*
X48031400Y-14271853D01*
X48031400Y-14271853D02*
X48116066Y-14441186D01*
X48116066Y-14441186D02*
X48200733Y-14525853D01*
X48200733Y-14525853D02*
X48370066Y-14610519D01*
X48370066Y-14610519D02*
X48624066Y-14610519D01*
X64880067Y-15694999D02*
X63864067Y-15694999D01*
X64372067Y-17472999D02*
X64372067Y-15694999D01*
X62255400Y-17472999D02*
X62848067Y-16626333D01*
X63271400Y-17472999D02*
X63271400Y-15694999D01*
X63271400Y-15694999D02*
X62594067Y-15694999D01*
X62594067Y-15694999D02*
X62424734Y-15779666D01*
X62424734Y-15779666D02*
X62340067Y-15864333D01*
X62340067Y-15864333D02*
X62255400Y-16033666D01*
X62255400Y-16033666D02*
X62255400Y-16287666D01*
X62255400Y-16287666D02*
X62340067Y-16456999D01*
X62340067Y-16456999D02*
X62424734Y-16541666D01*
X62424734Y-16541666D02*
X62594067Y-16626333D01*
X62594067Y-16626333D02*
X63271400Y-16626333D01*
X61578067Y-17388333D02*
X61324067Y-17472999D01*
X61324067Y-17472999D02*
X60900734Y-17472999D01*
X60900734Y-17472999D02*
X60731400Y-17388333D01*
X60731400Y-17388333D02*
X60646734Y-17303666D01*
X60646734Y-17303666D02*
X60562067Y-17134333D01*
X60562067Y-17134333D02*
X60562067Y-16964999D01*
X60562067Y-16964999D02*
X60646734Y-16795666D01*
X60646734Y-16795666D02*
X60731400Y-16710999D01*
X60731400Y-16710999D02*
X60900734Y-16626333D01*
X60900734Y-16626333D02*
X61239400Y-16541666D01*
X61239400Y-16541666D02*
X61408734Y-16456999D01*
X61408734Y-16456999D02*
X61493400Y-16372333D01*
X61493400Y-16372333D02*
X61578067Y-16202999D01*
X61578067Y-16202999D02*
X61578067Y-16033666D01*
X61578067Y-16033666D02*
X61493400Y-15864333D01*
X61493400Y-15864333D02*
X61408734Y-15779666D01*
X61408734Y-15779666D02*
X61239400Y-15694999D01*
X61239400Y-15694999D02*
X60816067Y-15694999D01*
X60816067Y-15694999D02*
X60562067Y-15779666D01*
X58614734Y-15694999D02*
X58191400Y-17472999D01*
X58191400Y-17472999D02*
X57852734Y-16202999D01*
X57852734Y-16202999D02*
X57514067Y-17472999D01*
X57514067Y-17472999D02*
X57090734Y-15694999D01*
X56413400Y-17472999D02*
X56413400Y-16287666D01*
X56413400Y-15694999D02*
X56498067Y-15779666D01*
X56498067Y-15779666D02*
X56413400Y-15864333D01*
X56413400Y-15864333D02*
X56328734Y-15779666D01*
X56328734Y-15779666D02*
X56413400Y-15694999D01*
X56413400Y-15694999D02*
X56413400Y-15864333D01*
X55566733Y-16287666D02*
X55566733Y-17472999D01*
X55566733Y-16456999D02*
X55482067Y-16372333D01*
X55482067Y-16372333D02*
X55312733Y-16287666D01*
X55312733Y-16287666D02*
X55058733Y-16287666D01*
X55058733Y-16287666D02*
X54889400Y-16372333D01*
X54889400Y-16372333D02*
X54804733Y-16541666D01*
X54804733Y-16541666D02*
X54804733Y-17472999D01*
X53196066Y-16287666D02*
X53196066Y-17726999D01*
X53196066Y-17726999D02*
X53280733Y-17896333D01*
X53280733Y-17896333D02*
X53365400Y-17980999D01*
X53365400Y-17980999D02*
X53534733Y-18065666D01*
X53534733Y-18065666D02*
X53788733Y-18065666D01*
X53788733Y-18065666D02*
X53958066Y-17980999D01*
X53196066Y-17388333D02*
X53365400Y-17472999D01*
X53365400Y-17472999D02*
X53704066Y-17472999D01*
X53704066Y-17472999D02*
X53873400Y-17388333D01*
X53873400Y-17388333D02*
X53958066Y-17303666D01*
X53958066Y-17303666D02*
X54042733Y-17134333D01*
X54042733Y-17134333D02*
X54042733Y-16626333D01*
X54042733Y-16626333D02*
X53958066Y-16456999D01*
X53958066Y-16456999D02*
X53873400Y-16372333D01*
X53873400Y-16372333D02*
X53704066Y-16287666D01*
X53704066Y-16287666D02*
X53365400Y-16287666D01*
X53365400Y-16287666D02*
X53196066Y-16372333D01*
X50402066Y-16541666D02*
X50148066Y-16626333D01*
X50148066Y-16626333D02*
X50063399Y-16710999D01*
X50063399Y-16710999D02*
X49978732Y-16880333D01*
X49978732Y-16880333D02*
X49978732Y-17134333D01*
X49978732Y-17134333D02*
X50063399Y-17303666D01*
X50063399Y-17303666D02*
X50148066Y-17388333D01*
X50148066Y-17388333D02*
X50317399Y-17472999D01*
X50317399Y-17472999D02*
X50994732Y-17472999D01*
X50994732Y-17472999D02*
X50994732Y-15694999D01*
X50994732Y-15694999D02*
X50402066Y-15694999D01*
X50402066Y-15694999D02*
X50232732Y-15779666D01*
X50232732Y-15779666D02*
X50148066Y-15864333D01*
X50148066Y-15864333D02*
X50063399Y-16033666D01*
X50063399Y-16033666D02*
X50063399Y-16202999D01*
X50063399Y-16202999D02*
X50148066Y-16372333D01*
X50148066Y-16372333D02*
X50232732Y-16456999D01*
X50232732Y-16456999D02*
X50402066Y-16541666D01*
X50402066Y-16541666D02*
X50994732Y-16541666D01*
X48962732Y-17472999D02*
X49132066Y-17388333D01*
X49132066Y-17388333D02*
X49216732Y-17303666D01*
X49216732Y-17303666D02*
X49301399Y-17134333D01*
X49301399Y-17134333D02*
X49301399Y-16626333D01*
X49301399Y-16626333D02*
X49216732Y-16456999D01*
X49216732Y-16456999D02*
X49132066Y-16372333D01*
X49132066Y-16372333D02*
X48962732Y-16287666D01*
X48962732Y-16287666D02*
X48708732Y-16287666D01*
X48708732Y-16287666D02*
X48539399Y-16372333D01*
X48539399Y-16372333D02*
X48454732Y-16456999D01*
X48454732Y-16456999D02*
X48370066Y-16626333D01*
X48370066Y-16626333D02*
X48370066Y-17134333D01*
X48370066Y-17134333D02*
X48454732Y-17303666D01*
X48454732Y-17303666D02*
X48539399Y-17388333D01*
X48539399Y-17388333D02*
X48708732Y-17472999D01*
X48708732Y-17472999D02*
X48962732Y-17472999D01*
X46846065Y-17472999D02*
X46846065Y-16541666D01*
X46846065Y-16541666D02*
X46930732Y-16372333D01*
X46930732Y-16372333D02*
X47100065Y-16287666D01*
X47100065Y-16287666D02*
X47438732Y-16287666D01*
X47438732Y-16287666D02*
X47608065Y-16372333D01*
X46846065Y-17388333D02*
X47015399Y-17472999D01*
X47015399Y-17472999D02*
X47438732Y-17472999D01*
X47438732Y-17472999D02*
X47608065Y-17388333D01*
X47608065Y-17388333D02*
X47692732Y-17218999D01*
X47692732Y-17218999D02*
X47692732Y-17049666D01*
X47692732Y-17049666D02*
X47608065Y-16880333D01*
X47608065Y-16880333D02*
X47438732Y-16795666D01*
X47438732Y-16795666D02*
X47015399Y-16795666D01*
X47015399Y-16795666D02*
X46846065Y-16710999D01*
X45999398Y-17472999D02*
X45999398Y-16287666D01*
X45999398Y-16626333D02*
X45914732Y-16456999D01*
X45914732Y-16456999D02*
X45830065Y-16372333D01*
X45830065Y-16372333D02*
X45660732Y-16287666D01*
X45660732Y-16287666D02*
X45491398Y-16287666D01*
X44136731Y-17472999D02*
X44136731Y-15694999D01*
X44136731Y-17388333D02*
X44306065Y-17472999D01*
X44306065Y-17472999D02*
X44644731Y-17472999D01*
X44644731Y-17472999D02*
X44814065Y-17388333D01*
X44814065Y-17388333D02*
X44898731Y-17303666D01*
X44898731Y-17303666D02*
X44983398Y-17134333D01*
X44983398Y-17134333D02*
X44983398Y-16626333D01*
X44983398Y-16626333D02*
X44898731Y-16456999D01*
X44898731Y-16456999D02*
X44814065Y-16372333D01*
X44814065Y-16372333D02*
X44644731Y-16287666D01*
X44644731Y-16287666D02*
X44306065Y-16287666D01*
X44306065Y-16287666D02*
X44136731Y-16372333D01*
D12*
X57091008Y-38959009D02*
X57514342Y-38354247D01*
X57816723Y-38959009D02*
X57816723Y-37689009D01*
X57816723Y-37689009D02*
X57332913Y-37689009D01*
X57332913Y-37689009D02*
X57211961Y-37749485D01*
X57211961Y-37749485D02*
X57151484Y-37809961D01*
X57151484Y-37809961D02*
X57091008Y-37930913D01*
X57091008Y-37930913D02*
X57091008Y-38112342D01*
X57091008Y-38112342D02*
X57151484Y-38233294D01*
X57151484Y-38233294D02*
X57211961Y-38293771D01*
X57211961Y-38293771D02*
X57332913Y-38354247D01*
X57332913Y-38354247D02*
X57816723Y-38354247D01*
X56062913Y-38898533D02*
X56183865Y-38959009D01*
X56183865Y-38959009D02*
X56425770Y-38959009D01*
X56425770Y-38959009D02*
X56546723Y-38898533D01*
X56546723Y-38898533D02*
X56607199Y-38777580D01*
X56607199Y-38777580D02*
X56607199Y-38293771D01*
X56607199Y-38293771D02*
X56546723Y-38172818D01*
X56546723Y-38172818D02*
X56425770Y-38112342D01*
X56425770Y-38112342D02*
X56183865Y-38112342D01*
X56183865Y-38112342D02*
X56062913Y-38172818D01*
X56062913Y-38172818D02*
X56002437Y-38293771D01*
X56002437Y-38293771D02*
X56002437Y-38414723D01*
X56002437Y-38414723D02*
X56607199Y-38535675D01*
X55579104Y-38112342D02*
X55276723Y-38959009D01*
X55276723Y-38959009D02*
X54974342Y-38112342D01*
X53522914Y-38959009D02*
X53522914Y-37689009D01*
X52797199Y-38959009D02*
X53341485Y-38233294D01*
X52797199Y-37689009D02*
X53522914Y-38414723D01*
D16*
G36*
X28682983Y-19481494D02*
G01*
X28579227Y-19487926D01*
X28528819Y-19502121D01*
X28493004Y-19526808D01*
X28471062Y-19557164D01*
X28460152Y-19603733D01*
X28454669Y-19724681D01*
X28454669Y-20801655D01*
X28460167Y-20922543D01*
X28471062Y-20968630D01*
X28492817Y-20998629D01*
X28528168Y-21023673D01*
X28578195Y-21038211D01*
X28682983Y-21044843D01*
X28682983Y-21086533D01*
X27846157Y-21086533D01*
X27846157Y-21044843D01*
X27948951Y-21038477D01*
X27999778Y-21024324D01*
X28036060Y-20999531D01*
X28058078Y-20969281D01*
X28068991Y-20922616D01*
X28074471Y-20801655D01*
X28074471Y-20336125D01*
X27814232Y-20327282D01*
X27676143Y-20307138D01*
X27564640Y-20270283D01*
X27474300Y-20218653D01*
X27401688Y-20152540D01*
X27346513Y-20072105D01*
X27313409Y-19982056D01*
X27302699Y-19885576D01*
X27705238Y-19885576D01*
X27715697Y-20006917D01*
X27743528Y-20095659D01*
X27785468Y-20159705D01*
X27844323Y-20207688D01*
X27918851Y-20237558D01*
X28013783Y-20248295D01*
X28074471Y-20245798D01*
X28074471Y-19530131D01*
X28024639Y-19530131D01*
X27922081Y-19540815D01*
X27844318Y-19569972D01*
X27785468Y-19615681D01*
X27743616Y-19677792D01*
X27715754Y-19764998D01*
X27705238Y-19885576D01*
X27302699Y-19885576D01*
X27302024Y-19879496D01*
X27311704Y-19789023D01*
X27340044Y-19707863D01*
X27387467Y-19633788D01*
X27456297Y-19565415D01*
X27535084Y-19515629D01*
X27641209Y-19476268D01*
X27781760Y-19449714D01*
X27965145Y-19439804D01*
X28682983Y-19439804D01*
X28682983Y-19481494D01*
G37*
G36*
X25655839Y-20509830D02*
G01*
X25717721Y-21086533D01*
X27180105Y-21086533D01*
X27180105Y-21044843D01*
X27125496Y-21044843D01*
X27058197Y-21037704D01*
X27010090Y-21018679D01*
X26982880Y-20995865D01*
X26961453Y-20958750D01*
X26952651Y-20917032D01*
X26948099Y-20801655D01*
X26948099Y-19724681D01*
X26952603Y-19606835D01*
X26961453Y-19562592D01*
X26980602Y-19533277D01*
X27015519Y-19505812D01*
X27060660Y-19488191D01*
X27125496Y-19481494D01*
X27180105Y-19481494D01*
X27180105Y-19439804D01*
X26301915Y-19439804D01*
X26301915Y-19481494D01*
X26373568Y-19481494D01*
X26440787Y-19488627D01*
X26488974Y-19507658D01*
X26516434Y-19530435D01*
X26538806Y-19567586D01*
X26547608Y-19609305D01*
X26552159Y-19724681D01*
X26552159Y-20772994D01*
X26547341Y-20887886D01*
X26537611Y-20933780D01*
X26516805Y-20963229D01*
X26480506Y-20985240D01*
X26439578Y-20992535D01*
X26333507Y-20996206D01*
X26196280Y-20996206D01*
X26109777Y-20990545D01*
X26037736Y-20974742D01*
X25977737Y-20950065D01*
X25923495Y-20914461D01*
X25873179Y-20866418D01*
X25826505Y-20804152D01*
X25768624Y-20690946D01*
X25705562Y-20509830D01*
X25655839Y-20509830D01*
G37*
G36*
X25261310Y-20716865D02*
G01*
X25346545Y-20890349D01*
X25402229Y-20970041D01*
X25443404Y-21005334D01*
X25491487Y-21030187D01*
X25547924Y-21044843D01*
X25547924Y-21086533D01*
X25000101Y-21086533D01*
X25000101Y-21044843D01*
X25116723Y-21030289D01*
X25161755Y-21015422D01*
X25192683Y-20989420D01*
X25211058Y-20955974D01*
X25217558Y-20912610D01*
X25210176Y-20857396D01*
X25183577Y-20779074D01*
X25114312Y-20614054D01*
X24532507Y-20614054D01*
X24445111Y-20819895D01*
X24408633Y-20913587D01*
X24401359Y-20959836D01*
X24408250Y-20993459D01*
X24428067Y-21017376D01*
X24474992Y-21036623D01*
X24562905Y-21044843D01*
X24595692Y-21044843D01*
X24595692Y-21086533D01*
X23798927Y-21086533D01*
X23798927Y-21044843D01*
X23867955Y-21029733D01*
X23915527Y-21000223D01*
X23968618Y-20928983D01*
X24055251Y-20753561D01*
X24156466Y-20523727D01*
X24573871Y-20523727D01*
X25071754Y-20523727D01*
X24819121Y-19966783D01*
X24573871Y-20523727D01*
X24156466Y-20523727D01*
X24649107Y-19405063D01*
X24672231Y-19405063D01*
X25261310Y-20716865D01*
G37*
G36*
X22386158Y-19439804D02*
G01*
X22386158Y-19891439D01*
X22429802Y-19891439D01*
X22474569Y-19748127D01*
X22516112Y-19667684D01*
X22571431Y-19607208D01*
X22646065Y-19559118D01*
X22701096Y-19543828D01*
X22807611Y-19537079D01*
X22930291Y-19537079D01*
X22930291Y-20801655D01*
X22925608Y-20919498D01*
X22916394Y-20963853D01*
X22896752Y-20993107D01*
X22861677Y-21020524D01*
X22816397Y-21038115D01*
X22750506Y-21044843D01*
X22695897Y-21044843D01*
X22695897Y-21086533D01*
X23558236Y-21086533D01*
X23558236Y-21044843D01*
X23503628Y-21044843D01*
X23436328Y-21037704D01*
X23388222Y-21018679D01*
X23360762Y-20995902D01*
X23338390Y-20958750D01*
X23329588Y-20917032D01*
X23325037Y-20801655D01*
X23325037Y-19537079D01*
X23444025Y-19537079D01*
X23552938Y-19546469D01*
X23630889Y-19571224D01*
X23685693Y-19608190D01*
X23745485Y-19680564D01*
X23790388Y-19773388D01*
X23819337Y-19891439D01*
X23865478Y-19891439D01*
X23865478Y-19439804D01*
X22386158Y-19439804D01*
G37*
G36*
X20528052Y-19439804D02*
G01*
X20528052Y-19481494D01*
X20603003Y-19500017D01*
X20653120Y-19529045D01*
X20717694Y-19604699D01*
X20845065Y-19808060D01*
X21202138Y-20406367D01*
X21202138Y-20801655D01*
X21197613Y-20920502D01*
X21188784Y-20964396D01*
X21169912Y-20993262D01*
X21136021Y-21020524D01*
X21092329Y-21038201D01*
X21030821Y-21044843D01*
X20938540Y-21044843D01*
X20938540Y-21086533D01*
X21862870Y-21086533D01*
X21862870Y-21044843D01*
X21776669Y-21044843D01*
X21708484Y-21037634D01*
X21661263Y-21018679D01*
X21633803Y-20995902D01*
X21611432Y-20958750D01*
X21602630Y-20917032D01*
X21598078Y-20801655D01*
X21598078Y-20474329D01*
X21985550Y-19766588D01*
X22097261Y-19580515D01*
X22148399Y-19519926D01*
X22201437Y-19492381D01*
X22274661Y-19481494D01*
X22274661Y-19439804D01*
X21485169Y-19439804D01*
X21485169Y-19481494D01*
X21520345Y-19481494D01*
X21585869Y-19487770D01*
X21620551Y-19502447D01*
X21642753Y-19525171D01*
X21649104Y-19546633D01*
X21633073Y-19604613D01*
X21551938Y-19768868D01*
X21254358Y-20311263D01*
X20957973Y-19817722D01*
X20886463Y-19688748D01*
X20855052Y-19613617D01*
X20847453Y-19573557D01*
X20855029Y-19543757D01*
X20879046Y-19518297D01*
X20930107Y-19495736D01*
X21030930Y-19481494D01*
X21030930Y-19439804D01*
X20528052Y-19439804D01*
G37*
G36*
X20437182Y-19481494D02*
G01*
X20333426Y-19487926D01*
X20283019Y-19502121D01*
X20247204Y-19526808D01*
X20225262Y-19557164D01*
X20214351Y-19603733D01*
X20208868Y-19724681D01*
X20208868Y-20801655D01*
X20214367Y-20922543D01*
X20225262Y-20968630D01*
X20247017Y-20998629D01*
X20282367Y-21023673D01*
X20332394Y-21038211D01*
X20437182Y-21044843D01*
X20437182Y-21086533D01*
X19600356Y-21086533D01*
X19600356Y-21044843D01*
X19703151Y-21038477D01*
X19753977Y-21024324D01*
X19790259Y-20999531D01*
X19812277Y-20969281D01*
X19823190Y-20922616D01*
X19828670Y-20801655D01*
X19828670Y-20336125D01*
X19568431Y-20327282D01*
X19430342Y-20307138D01*
X19318840Y-20270283D01*
X19228500Y-20218653D01*
X19155887Y-20152540D01*
X19100712Y-20072105D01*
X19067608Y-19982056D01*
X19056899Y-19885576D01*
X19459438Y-19885576D01*
X19469896Y-20006917D01*
X19497727Y-20095659D01*
X19539668Y-20159705D01*
X19598522Y-20207688D01*
X19673050Y-20237558D01*
X19767982Y-20248295D01*
X19828670Y-20245798D01*
X19828670Y-19530131D01*
X19778839Y-19530131D01*
X19676281Y-19540815D01*
X19598517Y-19569972D01*
X19539668Y-19615681D01*
X19497815Y-19677792D01*
X19469953Y-19764998D01*
X19459438Y-19885576D01*
X19056899Y-19885576D01*
X19056224Y-19879496D01*
X19065903Y-19789023D01*
X19094243Y-19707863D01*
X19141667Y-19633788D01*
X19210496Y-19565415D01*
X19289283Y-19515629D01*
X19395408Y-19476268D01*
X19535959Y-19449714D01*
X19719344Y-19439804D01*
X20437182Y-19439804D01*
X20437182Y-19481494D01*
G37*
G36*
X18922145Y-19439804D02*
G01*
X18071965Y-19439804D01*
X18071965Y-19481494D01*
X18114523Y-19481494D01*
X18202523Y-19487829D01*
X18246213Y-19502013D01*
X18277056Y-19526605D01*
X18297239Y-19558575D01*
X18307313Y-19607723D01*
X18312438Y-19738578D01*
X18312438Y-20540012D01*
X18307310Y-20689483D01*
X18294939Y-20780373D01*
X18279109Y-20830860D01*
X18235810Y-20895064D01*
X18169131Y-20949197D01*
X18116136Y-20974436D01*
X18052526Y-20990476D01*
X17975992Y-20996206D01*
X17888604Y-20989120D01*
X17813400Y-20968933D01*
X17748221Y-20936494D01*
X17690836Y-20891686D01*
X17644140Y-20837144D01*
X17607411Y-20771691D01*
X17584447Y-20698788D01*
X17567423Y-20582196D01*
X17560619Y-20406041D01*
X17560619Y-19738578D01*
X17567593Y-19633932D01*
X17583744Y-19577140D01*
X17610924Y-19534876D01*
X17641935Y-19510046D01*
X17703014Y-19489566D01*
X17796207Y-19481494D01*
X17796207Y-19439804D01*
X17226562Y-19439804D01*
X17226562Y-19481494D01*
X17260543Y-19481494D01*
X17325819Y-19489083D01*
X17375948Y-19510046D01*
X17415258Y-19545126D01*
X17442825Y-19595705D01*
X17453693Y-19643483D01*
X17458567Y-19738578D01*
X17458567Y-20360986D01*
X17464021Y-20556066D01*
X17477892Y-20690200D01*
X17496891Y-20777988D01*
X17532108Y-20857041D01*
X17592411Y-20935204D01*
X17683299Y-21013685D01*
X17759019Y-21058359D01*
X17849705Y-21091972D01*
X17958159Y-21113549D01*
X18087707Y-21121274D01*
X18230280Y-21113771D01*
X18338040Y-21093812D01*
X18418073Y-21064494D01*
X18517752Y-21005185D01*
X18591220Y-20939177D01*
X18642804Y-20866252D01*
X18677255Y-20782999D01*
X18700009Y-20676435D01*
X18708378Y-20541097D01*
X18708378Y-19738578D01*
X18713743Y-19606743D01*
X18724229Y-19557924D01*
X18745293Y-19526565D01*
X18778838Y-19501361D01*
X18826195Y-19487006D01*
X18922145Y-19481494D01*
X18922145Y-19439804D01*
G37*
G36*
X16015943Y-19405063D02*
G01*
X16002589Y-19953973D01*
X16052312Y-19953973D01*
X16077204Y-19852932D01*
X16114449Y-19764947D01*
X16163702Y-19688191D01*
X16225367Y-19621326D01*
X16322809Y-19549629D01*
X16421328Y-19508803D01*
X16523597Y-19495390D01*
X16603722Y-19503378D01*
X16667974Y-19525638D01*
X16719776Y-19561072D01*
X16760823Y-19608490D01*
X16784211Y-19658341D01*
X16791972Y-19712305D01*
X16785439Y-19764131D01*
X16766459Y-19808711D01*
X16723282Y-19862440D01*
X16653551Y-19920860D01*
X16577140Y-19966238D01*
X16389953Y-20061887D01*
X16199900Y-20165416D01*
X16075495Y-20253741D01*
X16000092Y-20329068D01*
X15944691Y-20417416D01*
X15911734Y-20512875D01*
X15900537Y-20617853D01*
X15910579Y-20717240D01*
X15940152Y-20808227D01*
X15989744Y-20892896D01*
X16061541Y-20972647D01*
X16146061Y-21036841D01*
X16240919Y-21082931D01*
X16348088Y-21111374D01*
X16470183Y-21121274D01*
X16546624Y-21117332D01*
X16617181Y-21105857D01*
X16690027Y-21085331D01*
X16790778Y-21047774D01*
X16847171Y-21029159D01*
X16886750Y-21023999D01*
X16917968Y-21029540D01*
X16953627Y-21047992D01*
X16984605Y-21077213D01*
X17010624Y-21121274D01*
X17055570Y-21121274D01*
X17055570Y-20509830D01*
X17010624Y-20509830D01*
X16975593Y-20635365D01*
X16929155Y-20739886D01*
X16872189Y-20826442D01*
X16804783Y-20897411D01*
X16724320Y-20957574D01*
X16643482Y-20998753D01*
X16561239Y-21022910D01*
X16476262Y-21030947D01*
X16388353Y-21022063D01*
X16317290Y-20997204D01*
X16259456Y-20957448D01*
X16213660Y-20904351D01*
X16187430Y-20847924D01*
X16178683Y-20786239D01*
X16186300Y-20729823D01*
X16209733Y-20674199D01*
X16247269Y-20622915D01*
X16303860Y-20571170D01*
X16380358Y-20521203D01*
X16527288Y-20443931D01*
X16734193Y-20334358D01*
X16850381Y-20257197D01*
X16938660Y-20174025D01*
X17001613Y-20084795D01*
X17030784Y-20019581D01*
X17048388Y-19950023D01*
X17054376Y-19875045D01*
X17045231Y-19780494D01*
X17018448Y-19694764D01*
X16973873Y-19615887D01*
X16909875Y-19542508D01*
X16833648Y-19482869D01*
X16748729Y-19440288D01*
X16653419Y-19414136D01*
X16545419Y-19405063D01*
X16466209Y-19409875D01*
X16389953Y-19424171D01*
X16330523Y-19443159D01*
X16250880Y-19477368D01*
X16173921Y-19508891D01*
X16136125Y-19516235D01*
X16107290Y-19511232D01*
X16086294Y-19497127D01*
X16070992Y-19470547D01*
X16052312Y-19405063D01*
X16015943Y-19405063D01*
G37*
D12*
X44116171Y-39978780D02*
X43874266Y-39978780D01*
X43874266Y-39978780D02*
X43753314Y-40039256D01*
X43753314Y-40039256D02*
X43632361Y-40160208D01*
X43632361Y-40160208D02*
X43571885Y-40402113D01*
X43571885Y-40402113D02*
X43571885Y-40825446D01*
X43571885Y-40825446D02*
X43632361Y-41067351D01*
X43632361Y-41067351D02*
X43753314Y-41188304D01*
X43753314Y-41188304D02*
X43874266Y-41248780D01*
X43874266Y-41248780D02*
X44116171Y-41248780D01*
X44116171Y-41248780D02*
X44237123Y-41188304D01*
X44237123Y-41188304D02*
X44358076Y-41067351D01*
X44358076Y-41067351D02*
X44418552Y-40825446D01*
X44418552Y-40825446D02*
X44418552Y-40402113D01*
X44418552Y-40402113D02*
X44358076Y-40160208D01*
X44358076Y-40160208D02*
X44237123Y-40039256D01*
X44237123Y-40039256D02*
X44116171Y-39978780D01*
X43027600Y-39978780D02*
X43027600Y-41006875D01*
X43027600Y-41006875D02*
X42967123Y-41127827D01*
X42967123Y-41127827D02*
X42906647Y-41188304D01*
X42906647Y-41188304D02*
X42785695Y-41248780D01*
X42785695Y-41248780D02*
X42543790Y-41248780D01*
X42543790Y-41248780D02*
X42422838Y-41188304D01*
X42422838Y-41188304D02*
X42362361Y-41127827D01*
X42362361Y-41127827D02*
X42301885Y-41006875D01*
X42301885Y-41006875D02*
X42301885Y-39978780D01*
X41878552Y-39978780D02*
X41152838Y-39978780D01*
X41515695Y-41248780D02*
X41515695Y-39978780D01*
X39822362Y-40099732D02*
X39761886Y-40039256D01*
X39761886Y-40039256D02*
X39640933Y-39978780D01*
X39640933Y-39978780D02*
X39338552Y-39978780D01*
X39338552Y-39978780D02*
X39217600Y-40039256D01*
X39217600Y-40039256D02*
X39157124Y-40099732D01*
X39157124Y-40099732D02*
X39096647Y-40220684D01*
X39096647Y-40220684D02*
X39096647Y-40341637D01*
X39096647Y-40341637D02*
X39157124Y-40523065D01*
X39157124Y-40523065D02*
X39882838Y-41248780D01*
X39882838Y-41248780D02*
X39096647Y-41248780D01*
X43995219Y-43293409D02*
X43995219Y-42023409D01*
X43390457Y-43293409D02*
X43390457Y-42023409D01*
X43390457Y-42023409D02*
X42664742Y-43293409D01*
X42664742Y-43293409D02*
X42664742Y-42023409D01*
X40245695Y-42023409D02*
X39459504Y-42023409D01*
X39459504Y-42023409D02*
X39882838Y-42507218D01*
X39882838Y-42507218D02*
X39701409Y-42507218D01*
X39701409Y-42507218D02*
X39580457Y-42567694D01*
X39580457Y-42567694D02*
X39519981Y-42628171D01*
X39519981Y-42628171D02*
X39459504Y-42749123D01*
X39459504Y-42749123D02*
X39459504Y-43051504D01*
X39459504Y-43051504D02*
X39519981Y-43172456D01*
X39519981Y-43172456D02*
X39580457Y-43232933D01*
X39580457Y-43232933D02*
X39701409Y-43293409D01*
X39701409Y-43293409D02*
X40064266Y-43293409D01*
X40064266Y-43293409D02*
X40185219Y-43232933D01*
X40185219Y-43232933D02*
X40245695Y-43172456D01*
D17*
X65528371Y-28511427D02*
X65600943Y-28475141D01*
X65600943Y-28475141D02*
X65709800Y-28475141D01*
X65709800Y-28475141D02*
X65818657Y-28511427D01*
X65818657Y-28511427D02*
X65891228Y-28583998D01*
X65891228Y-28583998D02*
X65927514Y-28656570D01*
X65927514Y-28656570D02*
X65963800Y-28801713D01*
X65963800Y-28801713D02*
X65963800Y-28910570D01*
X65963800Y-28910570D02*
X65927514Y-29055713D01*
X65927514Y-29055713D02*
X65891228Y-29128284D01*
X65891228Y-29128284D02*
X65818657Y-29200856D01*
X65818657Y-29200856D02*
X65709800Y-29237141D01*
X65709800Y-29237141D02*
X65637228Y-29237141D01*
X65637228Y-29237141D02*
X65528371Y-29200856D01*
X65528371Y-29200856D02*
X65492085Y-29164570D01*
X65492085Y-29164570D02*
X65492085Y-28910570D01*
X65492085Y-28910570D02*
X65637228Y-28910570D01*
X65165514Y-29237141D02*
X65165514Y-28475141D01*
X65165514Y-28475141D02*
X64730085Y-29237141D01*
X64730085Y-29237141D02*
X64730085Y-28475141D01*
X64367228Y-29237141D02*
X64367228Y-28475141D01*
X64367228Y-28475141D02*
X64185799Y-28475141D01*
X64185799Y-28475141D02*
X64076942Y-28511427D01*
X64076942Y-28511427D02*
X64004371Y-28583998D01*
X64004371Y-28583998D02*
X63968085Y-28656570D01*
X63968085Y-28656570D02*
X63931799Y-28801713D01*
X63931799Y-28801713D02*
X63931799Y-28910570D01*
X63931799Y-28910570D02*
X63968085Y-29055713D01*
X63968085Y-29055713D02*
X64004371Y-29128284D01*
X64004371Y-29128284D02*
X64076942Y-29200856D01*
X64076942Y-29200856D02*
X64185799Y-29237141D01*
X64185799Y-29237141D02*
X64367228Y-29237141D01*
D12*
X67890571Y-40080380D02*
X67648666Y-40080380D01*
X67648666Y-40080380D02*
X67527714Y-40140856D01*
X67527714Y-40140856D02*
X67406761Y-40261808D01*
X67406761Y-40261808D02*
X67346285Y-40503713D01*
X67346285Y-40503713D02*
X67346285Y-40927046D01*
X67346285Y-40927046D02*
X67406761Y-41168951D01*
X67406761Y-41168951D02*
X67527714Y-41289904D01*
X67527714Y-41289904D02*
X67648666Y-41350380D01*
X67648666Y-41350380D02*
X67890571Y-41350380D01*
X67890571Y-41350380D02*
X68011523Y-41289904D01*
X68011523Y-41289904D02*
X68132476Y-41168951D01*
X68132476Y-41168951D02*
X68192952Y-40927046D01*
X68192952Y-40927046D02*
X68192952Y-40503713D01*
X68192952Y-40503713D02*
X68132476Y-40261808D01*
X68132476Y-40261808D02*
X68011523Y-40140856D01*
X68011523Y-40140856D02*
X67890571Y-40080380D01*
X66802000Y-40080380D02*
X66802000Y-41108475D01*
X66802000Y-41108475D02*
X66741523Y-41229427D01*
X66741523Y-41229427D02*
X66681047Y-41289904D01*
X66681047Y-41289904D02*
X66560095Y-41350380D01*
X66560095Y-41350380D02*
X66318190Y-41350380D01*
X66318190Y-41350380D02*
X66197238Y-41289904D01*
X66197238Y-41289904D02*
X66136761Y-41229427D01*
X66136761Y-41229427D02*
X66076285Y-41108475D01*
X66076285Y-41108475D02*
X66076285Y-40080380D01*
X65652952Y-40080380D02*
X64927238Y-40080380D01*
X65290095Y-41350380D02*
X65290095Y-40080380D01*
X63657238Y-40080380D02*
X62871047Y-40080380D01*
X62871047Y-40080380D02*
X63294381Y-40564189D01*
X63294381Y-40564189D02*
X63112952Y-40564189D01*
X63112952Y-40564189D02*
X62992000Y-40624665D01*
X62992000Y-40624665D02*
X62931524Y-40685142D01*
X62931524Y-40685142D02*
X62871047Y-40806094D01*
X62871047Y-40806094D02*
X62871047Y-41108475D01*
X62871047Y-41108475D02*
X62931524Y-41229427D01*
X62931524Y-41229427D02*
X62992000Y-41289904D01*
X62992000Y-41289904D02*
X63112952Y-41350380D01*
X63112952Y-41350380D02*
X63475809Y-41350380D01*
X63475809Y-41350380D02*
X63596762Y-41289904D01*
X63596762Y-41289904D02*
X63657238Y-41229427D01*
X67769619Y-43395009D02*
X67769619Y-42125009D01*
X67164857Y-43395009D02*
X67164857Y-42125009D01*
X67164857Y-42125009D02*
X66439142Y-43395009D01*
X66439142Y-43395009D02*
X66439142Y-42125009D01*
X63959619Y-42245961D02*
X63899143Y-42185485D01*
X63899143Y-42185485D02*
X63778190Y-42125009D01*
X63778190Y-42125009D02*
X63475809Y-42125009D01*
X63475809Y-42125009D02*
X63354857Y-42185485D01*
X63354857Y-42185485D02*
X63294381Y-42245961D01*
X63294381Y-42245961D02*
X63233904Y-42366913D01*
X63233904Y-42366913D02*
X63233904Y-42487866D01*
X63233904Y-42487866D02*
X63294381Y-42669294D01*
X63294381Y-42669294D02*
X64020095Y-43395009D01*
X64020095Y-43395009D02*
X63233904Y-43395009D01*
D18*
%TO.C,JP8*%
X14983000Y-34828200D02*
X14983000Y-35428200D01*
X15683000Y-36128200D02*
X17083000Y-36128200D01*
X17083000Y-34128200D02*
X15683000Y-34128200D01*
X17783000Y-35428200D02*
X17783000Y-34828200D01*
X14983000Y-34828200D02*
G75*
G02*
X15683000Y-34128200I700000J0D01*
G01*
X15683000Y-36128200D02*
G75*
G02*
X14983000Y-35428200I0J700000D01*
G01*
X17083000Y-34128200D02*
G75*
G02*
X17783000Y-34828200I1J-699999D01*
G01*
X17783000Y-35428200D02*
G75*
G02*
X17083000Y-36128200I-699999J-1D01*
G01*
%TO.C,JP3*%
X59534600Y-28503600D02*
X59534600Y-29103600D01*
X60234600Y-29803600D02*
X61634600Y-29803600D01*
X61634600Y-27803600D02*
X60234600Y-27803600D01*
X62334600Y-29103600D02*
X62334600Y-28503600D01*
X59534600Y-28503600D02*
G75*
G02*
X60234600Y-27803600I700000J0D01*
G01*
X60234600Y-29803600D02*
G75*
G02*
X59534600Y-29103600I0J700000D01*
G01*
X61634600Y-27803600D02*
G75*
G02*
X62334600Y-28503600I1J-699999D01*
G01*
X62334600Y-29103600D02*
G75*
G02*
X61634600Y-29803600I-699999J-1D01*
G01*
%TO.C,JP5*%
X37563600Y-28503600D02*
X37563600Y-29103600D01*
X38263600Y-29803600D02*
X39663600Y-29803600D01*
X39663600Y-27803600D02*
X38263600Y-27803600D01*
X40363600Y-29103600D02*
X40363600Y-28503600D01*
X37563600Y-28503600D02*
G75*
G02*
X38263600Y-27803600I700000J0D01*
G01*
X38263600Y-29803600D02*
G75*
G02*
X37563600Y-29103600I0J700000D01*
G01*
X39663600Y-27803600D02*
G75*
G02*
X40363600Y-28503600I1J-699999D01*
G01*
X40363600Y-29103600D02*
G75*
G02*
X39663600Y-29803600I-699999J-1D01*
G01*
%TO.C,JP7*%
X15033800Y-28452800D02*
X15033800Y-29052800D01*
X15733800Y-29752800D02*
X17133800Y-29752800D01*
X17133800Y-27752800D02*
X15733800Y-27752800D01*
X17833800Y-29052800D02*
X17833800Y-28452800D01*
X15033800Y-28452800D02*
G75*
G02*
X15733800Y-27752800I700000J0D01*
G01*
X15733800Y-29752800D02*
G75*
G02*
X15033800Y-29052800I0J700000D01*
G01*
X17133800Y-27752800D02*
G75*
G02*
X17833800Y-28452800I1J-699999D01*
G01*
X17833800Y-29052800D02*
G75*
G02*
X17133800Y-29752800I-699999J-1D01*
G01*
%TO.C,JP1*%
X81912000Y-28452800D02*
X81912000Y-29052800D01*
X82612000Y-29752800D02*
X84012000Y-29752800D01*
X84012000Y-27752800D02*
X82612000Y-27752800D01*
X84712000Y-29052800D02*
X84712000Y-28452800D01*
X81912000Y-28452800D02*
G75*
G02*
X82612000Y-27752800I700000J0D01*
G01*
X82612000Y-29752800D02*
G75*
G02*
X81912000Y-29052800I0J700000D01*
G01*
X84012000Y-27752800D02*
G75*
G02*
X84712000Y-28452800I1J-699999D01*
G01*
X84712000Y-29052800D02*
G75*
G02*
X84012000Y-29752800I-699999J-1D01*
G01*
%TO.C,JP2*%
X81912000Y-34828200D02*
X81912000Y-35428200D01*
X82612000Y-36128200D02*
X84012000Y-36128200D01*
X84012000Y-34128200D02*
X82612000Y-34128200D01*
X84712000Y-35428200D02*
X84712000Y-34828200D01*
X81912000Y-34828200D02*
G75*
G02*
X82612000Y-34128200I700000J0D01*
G01*
X82612000Y-36128200D02*
G75*
G02*
X81912000Y-35428200I0J700000D01*
G01*
X84012000Y-34128200D02*
G75*
G02*
X84712000Y-34828200I1J-699999D01*
G01*
X84712000Y-35428200D02*
G75*
G02*
X84012000Y-36128200I-699999J-1D01*
G01*
%TO.C,JP4*%
X59509200Y-34802800D02*
X59509200Y-35402800D01*
X60209200Y-36102800D02*
X61609200Y-36102800D01*
X61609200Y-34102800D02*
X60209200Y-34102800D01*
X62309200Y-35402800D02*
X62309200Y-34802800D01*
X59509200Y-34802800D02*
G75*
G02*
X60209200Y-34102800I700000J0D01*
G01*
X60209200Y-36102800D02*
G75*
G02*
X59509200Y-35402800I0J700000D01*
G01*
X61609200Y-34102800D02*
G75*
G02*
X62309200Y-34802800I1J-699999D01*
G01*
X62309200Y-35402800D02*
G75*
G02*
X61609200Y-36102800I-699999J-1D01*
G01*
%TO.C,JP6*%
X37563600Y-34802800D02*
X37563600Y-35402800D01*
X38263600Y-36102800D02*
X39663600Y-36102800D01*
X39663600Y-34102800D02*
X38263600Y-34102800D01*
X40363600Y-35402800D02*
X40363600Y-34802800D01*
X37563600Y-34802800D02*
G75*
G02*
X38263600Y-34102800I700000J0D01*
G01*
X38263600Y-36102800D02*
G75*
G02*
X37563600Y-35402800I0J700000D01*
G01*
X39663600Y-34102800D02*
G75*
G02*
X40363600Y-34802800I1J-699999D01*
G01*
X40363600Y-35402800D02*
G75*
G02*
X39663600Y-36102800I-699999J-1D01*
G01*
%TD*%
%LPC*%
%TO.C,JP8*%
G36*
X16533000Y-34378200D02*
G01*
X16233000Y-34378200D01*
X16233000Y-35878200D01*
X16533000Y-35878200D01*
X16533000Y-34378200D01*
G37*
%TO.C,JP3*%
G36*
X61084600Y-28053600D02*
G01*
X60784600Y-28053600D01*
X60784600Y-29553600D01*
X61084600Y-29553600D01*
X61084600Y-28053600D01*
G37*
%TO.C,JP5*%
G36*
X39113600Y-28053600D02*
G01*
X38813600Y-28053600D01*
X38813600Y-29553600D01*
X39113600Y-29553600D01*
X39113600Y-28053600D01*
G37*
%TO.C,JP7*%
G36*
X16583800Y-28002800D02*
G01*
X16283800Y-28002800D01*
X16283800Y-29502800D01*
X16583800Y-29502800D01*
X16583800Y-28002800D01*
G37*
%TO.C,JP1*%
G36*
X83462000Y-28002800D02*
G01*
X83162000Y-28002800D01*
X83162000Y-29502800D01*
X83462000Y-29502800D01*
X83462000Y-28002800D01*
G37*
%TO.C,JP2*%
G36*
X83462000Y-34378200D02*
G01*
X83162000Y-34378200D01*
X83162000Y-35878200D01*
X83462000Y-35878200D01*
X83462000Y-34378200D01*
G37*
%TO.C,JP4*%
G36*
X61059200Y-34352800D02*
G01*
X60759200Y-34352800D01*
X60759200Y-35852800D01*
X61059200Y-35852800D01*
X61059200Y-34352800D01*
G37*
%TO.C,JP6*%
G36*
X39113600Y-34352800D02*
G01*
X38813600Y-34352800D01*
X38813600Y-35852800D01*
X39113600Y-35852800D01*
X39113600Y-34352800D01*
G37*
%TD*%
D19*
%TO.C,C6*%
X78875467Y-3098800D03*
D20*
X78875467Y-5598800D03*
%TD*%
D21*
%TO.C,J5*%
X73037200Y-41452800D03*
X56807200Y-41452800D03*
X73037200Y-35102800D03*
X56807200Y-35102800D03*
X73037200Y-28752800D03*
X56807200Y-28752800D03*
%TD*%
D22*
%TO.C,R6*%
X78765400Y-11099800D03*
D23*
X81305400Y-11099800D03*
%TD*%
D22*
%TO.C,R12*%
X38328600Y-15240000D03*
D23*
X38328600Y-17780000D03*
%TD*%
D22*
%TO.C,R4*%
X38303200Y-10820400D03*
D23*
X40843200Y-10820400D03*
%TD*%
D19*
%TO.C,C5*%
X70205600Y-3098800D03*
D20*
X70205600Y-5598800D03*
%TD*%
D24*
%TO.C,J2*%
X2899800Y-34100000D03*
X4899800Y-35900000D03*
X4899800Y-42000000D03*
X2899800Y-39600000D03*
X4899800Y-30400000D03*
%TD*%
D22*
%TO.C,R7*%
X87579200Y-11099800D03*
D23*
X90119200Y-11099800D03*
%TD*%
D19*
%TO.C,C7*%
X87545333Y-3098800D03*
D20*
X87545333Y-5598800D03*
%TD*%
D21*
%TO.C,J6*%
X95037200Y-41452800D03*
X78807200Y-41452800D03*
X95037200Y-35102800D03*
X78807200Y-35102800D03*
X95037200Y-28752800D03*
X78807200Y-28752800D03*
%TD*%
D22*
%TO.C,R16*%
X96443800Y-15214600D03*
D23*
X96443800Y-17754600D03*
%TD*%
D22*
%TO.C,R11*%
X29692600Y-15290800D03*
D23*
X29692600Y-17830800D03*
%TD*%
D22*
%TO.C,R5*%
X70205600Y-11099800D03*
D23*
X72745600Y-11099800D03*
%TD*%
D19*
%TO.C,C4*%
X38252400Y-3175000D03*
D20*
X38252400Y-5675000D03*
%TD*%
D19*
%TO.C,C3*%
X29667200Y-3175000D03*
D20*
X29667200Y-5675000D03*
%TD*%
D22*
%TO.C,R9*%
X12496800Y-17881600D03*
D23*
X12496800Y-15341600D03*
%TD*%
D22*
%TO.C,R1*%
X12547600Y-11023600D03*
D23*
X15087600Y-11023600D03*
%TD*%
D21*
%TO.C,J4*%
X51037200Y-41452800D03*
X34807200Y-41452800D03*
X51037200Y-35102800D03*
X34807200Y-35102800D03*
X51037200Y-28752800D03*
X34807200Y-28752800D03*
%TD*%
D25*
%TO.C,J1*%
X48310800Y-10464800D03*
D26*
X48310800Y-7924800D03*
X50850800Y-10464800D03*
X50850800Y-7924800D03*
X53390800Y-10464800D03*
X53390800Y-7924800D03*
X55930800Y-10464800D03*
X55930800Y-7924800D03*
X58470800Y-10464800D03*
X58470800Y-7924800D03*
X61010800Y-10464800D03*
X61010800Y-7924800D03*
%TD*%
D22*
%TO.C,R13*%
X70154800Y-15163800D03*
D23*
X70154800Y-17703800D03*
%TD*%
D19*
%TO.C,C8*%
X96215200Y-3098800D03*
D20*
X96215200Y-5598800D03*
%TD*%
D22*
%TO.C,R14*%
X78765400Y-15214600D03*
D23*
X78765400Y-17754600D03*
%TD*%
D24*
%TO.C,J7*%
X101899800Y-34100000D03*
X103899800Y-35900000D03*
X103899800Y-42000000D03*
X101899800Y-39600000D03*
X103899800Y-30400000D03*
%TD*%
D21*
%TO.C,J3*%
X29037200Y-41452800D03*
X12807200Y-41452800D03*
X29037200Y-35102800D03*
X12807200Y-35102800D03*
X29037200Y-28752800D03*
X12807200Y-28752800D03*
%TD*%
D27*
%TO.C,H2*%
X104500000Y-4240000D03*
%TD*%
D22*
%TO.C,R8*%
X96393000Y-11074400D03*
D23*
X98933000Y-11074400D03*
%TD*%
D22*
%TO.C,R10*%
X21056600Y-15392400D03*
D23*
X21056600Y-17932400D03*
%TD*%
D22*
%TO.C,R3*%
X29743400Y-10820400D03*
D23*
X32283400Y-10820400D03*
%TD*%
D27*
%TO.C,H1*%
X3899800Y-4240000D03*
%TD*%
D19*
%TO.C,C2*%
X21082000Y-3175000D03*
D20*
X21082000Y-5675000D03*
%TD*%
D19*
%TO.C,C1*%
X12496800Y-3175000D03*
D20*
X12496800Y-5675000D03*
%TD*%
D22*
%TO.C,R15*%
X87630000Y-15189200D03*
D23*
X87630000Y-17729200D03*
%TD*%
D22*
%TO.C,R2*%
X21031200Y-10922000D03*
D23*
X23571200Y-10922000D03*
%TD*%
D28*
%TO.C,JP8*%
X17033000Y-35128200D03*
D29*
X15733000Y-35128200D03*
%TD*%
D28*
%TO.C,JP3*%
X61584600Y-28803600D03*
D29*
X60284600Y-28803600D03*
%TD*%
D28*
%TO.C,JP5*%
X39613600Y-28803600D03*
D29*
X38313600Y-28803600D03*
%TD*%
D28*
%TO.C,JP7*%
X17083800Y-28752800D03*
D29*
X15783800Y-28752800D03*
%TD*%
D28*
%TO.C,JP1*%
X83962000Y-28752800D03*
D29*
X82662000Y-28752800D03*
%TD*%
D28*
%TO.C,JP2*%
X83962000Y-35128200D03*
D29*
X82662000Y-35128200D03*
%TD*%
D28*
%TO.C,JP4*%
X61559200Y-35102800D03*
D29*
X60259200Y-35102800D03*
%TD*%
D28*
%TO.C,JP6*%
X39613600Y-35102800D03*
D29*
X38313600Y-35102800D03*
%TD*%
%LPD*%
M02*
