M48
; DRILL file {KiCad 9.0.0} date 2025-03-26T11:57:41+1100
; FORMAT={-:-/ absolute / inch / decimal}
; #@! TF.CreationDate,2025-03-26T11:57:41+11:00
; #@! TF.GenerationSoftware,Kicad,Pcbnew,9.0.0
; #@! TF.FileFunction,Plated,1,2,PTH
FMAT,2
INCH
; #@! TA.AperFunction,Plated,PTH,ViaDrill
T1C0.0150
; #@! TA.AperFunction,Plated,PTH,ComponentDrill
T2C0.0276
; #@! TA.AperFunction,Plated,PTH,ComponentDrill
T3C0.0315
; #@! TA.AperFunction,Plated,PTH,ComponentDrill
T4C0.0433
; #@! TA.AperFunction,Plated,PTH,ComponentDrill
T5C0.0551
; #@! TA.AperFunction,Plated,PTH,ComponentDrill
T6C0.0787
%
G90
G05
T1
X0.669Y-1.273
X1.552Y-1.268
X2.422Y-1.255
X3.303Y-1.259
T2
X0.492Y-0.604
X0.492Y-0.704
X0.494Y-0.434
X0.594Y-0.434
X0.828Y-0.43
X0.829Y-0.606
X0.829Y-0.706
X0.928Y-0.43
X1.169Y-0.602
X1.169Y-0.702
X1.171Y-0.426
X1.271Y-0.426
X1.508Y-0.426
X1.509Y-0.6
X1.509Y-0.7
X1.608Y-0.426
X2.762Y-0.597
X2.762Y-0.697
X2.764Y-0.437
X2.864Y-0.437
X3.101Y-0.437
X3.101Y-0.599
X3.101Y-0.699
X3.201Y-0.437
X3.448Y-0.437
X3.45Y-0.598
X3.45Y-0.698
X3.548Y-0.437
X3.795Y-0.436
X3.797Y-0.599
X3.797Y-0.699
X3.895Y-0.436
T3
X0.492Y-0.125
X0.492Y-0.2234
X0.83Y-0.125
X0.83Y-0.2234
X1.168Y-0.125
X1.168Y-0.2234
X1.506Y-0.125
X1.506Y-0.2234
X2.764Y-0.122
X2.764Y-0.2204
X3.1053Y-0.122
X3.1053Y-0.2204
X3.4467Y-0.122
X3.4467Y-0.2204
X3.788Y-0.122
X3.788Y-0.2204
T4
X1.902Y-0.312
X1.902Y-0.412
X2.002Y-0.312
X2.002Y-0.412
X2.102Y-0.312
X2.102Y-0.412
X2.202Y-0.312
X2.202Y-0.412
X2.302Y-0.312
X2.302Y-0.412
X2.402Y-0.312
X2.402Y-0.412
T5
X0.5042Y-1.132
X0.5042Y-1.382
X0.5042Y-1.632
X1.1432Y-1.132
X1.1432Y-1.382
X1.1432Y-1.632
X1.3704Y-1.132
X1.3704Y-1.382
X1.3704Y-1.632
X2.0093Y-1.132
X2.0093Y-1.382
X2.0093Y-1.632
X2.2365Y-1.132
X2.2365Y-1.382
X2.2365Y-1.632
X2.8755Y-1.132
X2.8755Y-1.382
X2.8755Y-1.632
X3.1026Y-1.132
X3.1026Y-1.382
X3.1026Y-1.632
X3.7416Y-1.132
X3.7416Y-1.382
X3.7416Y-1.632
T6
X0.1142Y-1.3425
X0.1142Y-1.5591
X0.1929Y-1.1969
X0.1929Y-1.4134
X0.1929Y-1.6535
X4.0118Y-1.3425
X4.0118Y-1.5591
X4.0905Y-1.1969
X4.0905Y-1.4134
X4.0905Y-1.6535
M30
