%TF.GenerationSoftware,KiCad,Pcbnew,9.0.0*%
%TF.CreationDate,2025-03-26T11:57:41+11:00*%
%TF.ProjectId,Wing Board 4 TRS Mk IV,57696e67-2042-46f6-9172-642034205452,rev?*%
%TF.SameCoordinates,Original*%
%TF.FileFunction,Copper,L2,Bot*%
%TF.FilePolarity,Positive*%
%FSLAX46Y46*%
G04 Gerber Fmt 4.6, Leading zero omitted, Abs format (unit mm)*
G04 Created by KiCad (PCBNEW 9.0.0) date 2025-03-26 11:57:41*
%MOMM*%
%LPD*%
G01*
G04 APERTURE LIST*
G04 Aperture macros list*
%AMHorizOval*
0 Thick line with rounded ends*
0 $1 width*
0 $2 $3 position (X,Y) of the first rounded end (center of the circle)*
0 $4 $5 position (X,Y) of the second rounded end (center of the circle)*
0 Add line between two ends*
20,1,$1,$2,$3,$4,$5,0*
0 Add two circle primitives to create the rounded ends*
1,1,$1,$2,$3*
1,1,$1,$4,$5*%
%AMFreePoly0*
4,1,23,0.500000,-0.750000,0.000000,-0.750000,0.000000,-0.745722,-0.065263,-0.745722,-0.191342,-0.711940,-0.304381,-0.646677,-0.396677,-0.554381,-0.461940,-0.441342,-0.495722,-0.315263,-0.495722,-0.250000,-0.500000,-0.250000,-0.500000,0.250000,-0.495722,0.250000,-0.495722,0.315263,-0.461940,0.441342,-0.396677,0.554381,-0.304381,0.646677,-0.191342,0.711940,-0.065263,0.745722,0.000000,0.745722,
0.000000,0.750000,0.500000,0.750000,0.500000,-0.750000,0.500000,-0.750000,$1*%
%AMFreePoly1*
4,1,23,0.000000,0.745722,0.065263,0.745722,0.191342,0.711940,0.304381,0.646677,0.396677,0.554381,0.461940,0.441342,0.495722,0.315263,0.495722,0.250000,0.500000,0.250000,0.500000,-0.250000,0.495722,-0.250000,0.495722,-0.315263,0.461940,-0.441342,0.396677,-0.554381,0.304381,-0.646677,0.191342,-0.711940,0.065263,-0.745722,0.000000,-0.745722,0.000000,-0.750000,-0.500000,-0.750000,
-0.500000,0.750000,0.000000,0.750000,0.000000,0.745722,0.000000,0.745722,$1*%
G04 Aperture macros list end*
%TA.AperFunction,ComponentPad*%
%ADD10R,1.600000X1.600000*%
%TD*%
%TA.AperFunction,ComponentPad*%
%ADD11C,1.600000*%
%TD*%
%TA.AperFunction,ComponentPad*%
%ADD12C,2.100000*%
%TD*%
%TA.AperFunction,ComponentPad*%
%ADD13C,1.400000*%
%TD*%
%TA.AperFunction,ComponentPad*%
%ADD14O,1.400000X1.400000*%
%TD*%
%TA.AperFunction,ComponentPad*%
%ADD15HorizOval,2.400000X-0.212132X-0.212132X0.212132X0.212132X0*%
%TD*%
%TA.AperFunction,ComponentPad*%
%ADD16R,1.650000X1.650000*%
%TD*%
%TA.AperFunction,ComponentPad*%
%ADD17C,1.650000*%
%TD*%
%TA.AperFunction,SMDPad,CuDef*%
%ADD18FreePoly0,180.000000*%
%TD*%
%TA.AperFunction,SMDPad,CuDef*%
%ADD19FreePoly1,180.000000*%
%TD*%
%TA.AperFunction,ViaPad*%
%ADD20C,0.889000*%
%TD*%
%TA.AperFunction,Conductor*%
%ADD21C,0.406400*%
%TD*%
G04 APERTURE END LIST*
D10*
%TO.P,C6,1*%
%TO.N,/3-*%
X78875467Y-3098800D03*
D11*
%TO.P,C6,2*%
%TO.N,/XH3-*%
X78875467Y-5598800D03*
%TD*%
D12*
%TO.P,J5,1,S*%
%TO.N,AGND*%
X73037200Y-41452800D03*
%TO.P,J5,2,SN*%
X56807200Y-41452800D03*
%TO.P,J5,3,R*%
%TO.N,/X3-*%
X73037200Y-35102800D03*
%TO.P,J5,4,RN*%
%TO.N,Net-(J4-RN)*%
X56807200Y-35102800D03*
%TO.P,J5,5,T*%
%TO.N,/X3+*%
X73037200Y-28752800D03*
%TO.P,J5,6,TN*%
%TO.N,Net-(J4-TN)*%
X56807200Y-28752800D03*
%TD*%
D13*
%TO.P,R6,1*%
%TO.N,/XH3-*%
X78765400Y-11099800D03*
D14*
%TO.P,R6,2*%
%TO.N,AGND*%
X81305400Y-11099800D03*
%TD*%
D13*
%TO.P,R12,1*%
%TO.N,/XH2-*%
X38328600Y-15240000D03*
D14*
%TO.P,R12,2*%
%TO.N,/X2-*%
X38328600Y-17780000D03*
%TD*%
D13*
%TO.P,R4,1*%
%TO.N,/XH2-*%
X38303200Y-10820400D03*
D14*
%TO.P,R4,2*%
%TO.N,AGND*%
X40843200Y-10820400D03*
%TD*%
D10*
%TO.P,C5,1*%
%TO.N,/3+*%
X70205600Y-3098800D03*
D11*
%TO.P,C5,2*%
%TO.N,/XH3+*%
X70205600Y-5598800D03*
%TD*%
D15*
%TO.P,J2,R*%
%TO.N,/XH2+*%
X2899800Y-34100000D03*
%TO.P,J2,RN*%
%TO.N,unconnected-(J5-PadRN)*%
X4899800Y-35900000D03*
%TO.P,J2,S*%
%TO.N,AGND*%
X4899800Y-42000000D03*
%TO.P,J2,T*%
%TO.N,/XH1+*%
X2899800Y-39600000D03*
%TO.P,J2,TN*%
%TO.N,unconnected-(J5-PadTN)*%
X4899800Y-30400000D03*
%TD*%
D13*
%TO.P,R7,1*%
%TO.N,/XH4+*%
X87579200Y-11099800D03*
D14*
%TO.P,R7,2*%
%TO.N,AGND*%
X90119200Y-11099800D03*
%TD*%
D10*
%TO.P,C7,1*%
%TO.N,/4+*%
X87545333Y-3098800D03*
D11*
%TO.P,C7,2*%
%TO.N,/XH4+*%
X87545333Y-5598800D03*
%TD*%
D12*
%TO.P,J6,1,S*%
%TO.N,AGND*%
X95037200Y-41452800D03*
%TO.P,J6,2,SN*%
X78807200Y-41452800D03*
%TO.P,J6,3,R*%
%TO.N,/X4-*%
X95037200Y-35102800D03*
%TO.P,J6,4,RN*%
%TO.N,Net-(J2-RN)*%
X78807200Y-35102800D03*
%TO.P,J6,5,T*%
%TO.N,/X4+*%
X95037200Y-28752800D03*
%TO.P,J6,6,TN*%
%TO.N,Net-(J2-TN)*%
X78807200Y-28752800D03*
%TD*%
D13*
%TO.P,R16,1*%
%TO.N,/XH4-*%
X96443800Y-15214600D03*
D14*
%TO.P,R16,2*%
%TO.N,/X4-*%
X96443800Y-17754600D03*
%TD*%
D13*
%TO.P,R11,1*%
%TO.N,/XH2+*%
X29692600Y-15290800D03*
D14*
%TO.P,R11,2*%
%TO.N,/X2+*%
X29692600Y-17830800D03*
%TD*%
D13*
%TO.P,R5,1*%
%TO.N,/XH3+*%
X70205600Y-11099800D03*
D14*
%TO.P,R5,2*%
%TO.N,AGND*%
X72745600Y-11099800D03*
%TD*%
D10*
%TO.P,C4,1*%
%TO.N,/2-*%
X38252400Y-3175000D03*
D11*
%TO.P,C4,2*%
%TO.N,/XH2-*%
X38252400Y-5675000D03*
%TD*%
D10*
%TO.P,C3,1*%
%TO.N,/2+*%
X29667200Y-3175000D03*
D11*
%TO.P,C3,2*%
%TO.N,/XH2+*%
X29667200Y-5675000D03*
%TD*%
D13*
%TO.P,R9,1*%
%TO.N,/X1+*%
X12496800Y-17881600D03*
D14*
%TO.P,R9,2*%
%TO.N,/XH1+*%
X12496800Y-15341600D03*
%TD*%
D13*
%TO.P,R1,1*%
%TO.N,/XH1+*%
X12547600Y-11023600D03*
D14*
%TO.P,R1,2*%
%TO.N,AGND*%
X15087600Y-11023600D03*
%TD*%
D12*
%TO.P,J4,1,S*%
%TO.N,AGND*%
X51037200Y-41452800D03*
%TO.P,J4,2,SN*%
X34807200Y-41452800D03*
%TO.P,J4,3,R*%
%TO.N,/X2-*%
X51037200Y-35102800D03*
%TO.P,J4,4,RN*%
%TO.N,Net-(J6-RN)*%
X34807200Y-35102800D03*
%TO.P,J4,5,T*%
%TO.N,/X2+*%
X51037200Y-28752800D03*
%TO.P,J4,6,TN*%
%TO.N,Net-(J6-TN)*%
X34807200Y-28752800D03*
%TD*%
D16*
%TO.P,J1,1,Pin_1*%
%TO.N,V+*%
X48310800Y-10464800D03*
D17*
%TO.P,J1,2,Pin_2*%
%TO.N,V-*%
X48310800Y-7924800D03*
%TO.P,J1,3,Pin_3*%
%TO.N,/1+*%
X50850800Y-10464800D03*
%TO.P,J1,4,Pin_4*%
%TO.N,/1-*%
X50850800Y-7924800D03*
%TO.P,J1,5,Pin_5*%
%TO.N,/2+*%
X53390800Y-10464800D03*
%TO.P,J1,6,Pin_6*%
%TO.N,/2-*%
X53390800Y-7924800D03*
%TO.P,J1,7,Pin_7*%
%TO.N,/3+*%
X55930800Y-10464800D03*
%TO.P,J1,8,Pin_8*%
%TO.N,/3-*%
X55930800Y-7924800D03*
%TO.P,J1,9,Pin_9*%
%TO.N,/4+*%
X58470800Y-10464800D03*
%TO.P,J1,10,Pin_10*%
%TO.N,/4-*%
X58470800Y-7924800D03*
%TO.P,J1,11,Pin_11*%
%TO.N,AGND*%
X61010800Y-10464800D03*
%TO.P,J1,12,Pin_12*%
X61010800Y-7924800D03*
%TD*%
D13*
%TO.P,R13,1*%
%TO.N,/XH3+*%
X70154800Y-15163800D03*
D14*
%TO.P,R13,2*%
%TO.N,/X3+*%
X70154800Y-17703800D03*
%TD*%
D10*
%TO.P,C8,1*%
%TO.N,/4-*%
X96215200Y-3098800D03*
D11*
%TO.P,C8,2*%
%TO.N,/XH4-*%
X96215200Y-5598800D03*
%TD*%
D13*
%TO.P,R14,1*%
%TO.N,/XH3-*%
X78765400Y-15214600D03*
D14*
%TO.P,R14,2*%
%TO.N,/X3-*%
X78765400Y-17754600D03*
%TD*%
D15*
%TO.P,J7,R*%
%TO.N,/XH4+*%
X101899800Y-34100000D03*
%TO.P,J7,RN*%
%TO.N,unconnected-(J3-PadRN)*%
X103899800Y-35900000D03*
%TO.P,J7,S*%
%TO.N,AGND*%
X103899800Y-42000000D03*
%TO.P,J7,T*%
%TO.N,/XH3+*%
X101899800Y-39600000D03*
%TO.P,J7,TN*%
%TO.N,unconnected-(J3-PadTN)*%
X103899800Y-30400000D03*
%TD*%
D12*
%TO.P,J3,1,S*%
%TO.N,AGND*%
X29037200Y-41452800D03*
%TO.P,J3,2,SN*%
X12807200Y-41452800D03*
%TO.P,J3,3,R*%
%TO.N,/X1-*%
X29037200Y-35102800D03*
%TO.P,J3,4,RN*%
%TO.N,Net-(J7-RN)*%
X12807200Y-35102800D03*
%TO.P,J3,5,T*%
%TO.N,/X1+*%
X29037200Y-28752800D03*
%TO.P,J3,6,TN*%
%TO.N,Net-(J7-TN)*%
X12807200Y-28752800D03*
%TD*%
D13*
%TO.P,R8,1*%
%TO.N,/XH4-*%
X96393000Y-11074400D03*
D14*
%TO.P,R8,2*%
%TO.N,AGND*%
X98933000Y-11074400D03*
%TD*%
D13*
%TO.P,R10,1*%
%TO.N,/XH1-*%
X21056600Y-15392400D03*
D14*
%TO.P,R10,2*%
%TO.N,/X1-*%
X21056600Y-17932400D03*
%TD*%
D13*
%TO.P,R3,1*%
%TO.N,/XH2+*%
X29743400Y-10820400D03*
D14*
%TO.P,R3,2*%
%TO.N,AGND*%
X32283400Y-10820400D03*
%TD*%
D10*
%TO.P,C2,1*%
%TO.N,/1-*%
X21082000Y-3175000D03*
D11*
%TO.P,C2,2*%
%TO.N,/XH1-*%
X21082000Y-5675000D03*
%TD*%
D10*
%TO.P,C1,1*%
%TO.N,/1+*%
X12496800Y-3175000D03*
D11*
%TO.P,C1,2*%
%TO.N,/XH1+*%
X12496800Y-5675000D03*
%TD*%
D13*
%TO.P,R15,1*%
%TO.N,/XH4+*%
X87630000Y-15189200D03*
D14*
%TO.P,R15,2*%
%TO.N,/X4+*%
X87630000Y-17729200D03*
%TD*%
D13*
%TO.P,R2,1*%
%TO.N,/XH1-*%
X21031200Y-10922000D03*
D14*
%TO.P,R2,2*%
%TO.N,AGND*%
X23571200Y-10922000D03*
%TD*%
D18*
%TO.P,JP8,1,A*%
%TO.N,AGND*%
X17033000Y-35128200D03*
D19*
%TO.P,JP8,2,B*%
%TO.N,Net-(J7-RN)*%
X15733000Y-35128200D03*
%TD*%
D18*
%TO.P,JP3,1,A*%
%TO.N,AGND*%
X61584600Y-28803600D03*
D19*
%TO.P,JP3,2,B*%
%TO.N,Net-(J4-TN)*%
X60284600Y-28803600D03*
%TD*%
D18*
%TO.P,JP5,1,A*%
%TO.N,AGND*%
X39613600Y-28803600D03*
D19*
%TO.P,JP5,2,B*%
%TO.N,Net-(J6-TN)*%
X38313600Y-28803600D03*
%TD*%
D18*
%TO.P,JP7,1,A*%
%TO.N,AGND*%
X17083800Y-28752800D03*
D19*
%TO.P,JP7,2,B*%
%TO.N,Net-(J7-TN)*%
X15783800Y-28752800D03*
%TD*%
D18*
%TO.P,JP1,1,A*%
%TO.N,AGND*%
X83962000Y-28752800D03*
D19*
%TO.P,JP1,2,B*%
%TO.N,Net-(J2-TN)*%
X82662000Y-28752800D03*
%TD*%
D18*
%TO.P,JP2,1,A*%
%TO.N,AGND*%
X83962000Y-35128200D03*
D19*
%TO.P,JP2,2,B*%
%TO.N,Net-(J2-RN)*%
X82662000Y-35128200D03*
%TD*%
D18*
%TO.P,JP4,1,A*%
%TO.N,AGND*%
X61559200Y-35102800D03*
D19*
%TO.P,JP4,2,B*%
%TO.N,Net-(J4-RN)*%
X60259200Y-35102800D03*
%TD*%
D18*
%TO.P,JP6,1,A*%
%TO.N,AGND*%
X39613600Y-35102800D03*
D19*
%TO.P,JP6,2,B*%
%TO.N,Net-(J6-RN)*%
X38313600Y-35102800D03*
%TD*%
D20*
%TO.N,AGND*%
X61518800Y-31877000D03*
X16992600Y-32334200D03*
X83896200Y-31978600D03*
X39420800Y-32207200D03*
%TD*%
D21*
%TO.N,/X3+*%
X72898000Y-28752800D02*
X70154800Y-26009600D01*
X73037200Y-28752800D02*
X72898000Y-28752800D01*
X70154800Y-26009600D02*
X70154800Y-17703800D01*
%TO.N,/X4-*%
X98450400Y-31699200D02*
X98450400Y-19761200D01*
X95046800Y-35102800D02*
X98450400Y-31699200D01*
X95037200Y-35102800D02*
X95046800Y-35102800D01*
X98450400Y-19761200D02*
X96443800Y-17754600D01*
%TO.N,/X3-*%
X75920600Y-32219400D02*
X75920600Y-20624800D01*
X75920600Y-20624800D02*
X78765400Y-17780000D01*
X73037200Y-35102800D02*
X75920600Y-32219400D01*
X78765400Y-17780000D02*
X78765400Y-17754600D01*
%TO.N,/X1-*%
X29037200Y-35047000D02*
X29037200Y-35102800D01*
X32080200Y-26314400D02*
X32080200Y-32004000D01*
X23698200Y-17932400D02*
X32080200Y-26314400D01*
X32080200Y-32004000D02*
X29037200Y-35047000D01*
X21056600Y-17932400D02*
X23698200Y-17932400D01*
%TO.N,/X2-*%
X38328600Y-22894200D02*
X50537200Y-35102800D01*
X38328600Y-17780000D02*
X38328600Y-22894200D01*
%TO.N,/X1+*%
X12496800Y-17881600D02*
X23368000Y-28752800D01*
X23368000Y-28752800D02*
X29037200Y-28752800D01*
%TO.N,Net-(J2-TN)*%
X82662000Y-28752800D02*
X78807200Y-28752800D01*
%TO.N,Net-(J2-RN)*%
X82636600Y-35102800D02*
X78807200Y-35102800D01*
X82662000Y-35128200D02*
X82636600Y-35102800D01*
%TO.N,Net-(J4-RN)*%
X60233800Y-35077400D02*
X56832600Y-35077400D01*
X60259200Y-35102800D02*
X60233800Y-35077400D01*
X56807200Y-35102800D02*
X57307200Y-35102800D01*
X56832600Y-35077400D02*
X56807200Y-35102800D01*
%TO.N,Net-(J4-TN)*%
X60233800Y-28752800D02*
X56807200Y-28752800D01*
X60284600Y-28803600D02*
X60233800Y-28752800D01*
%TO.N,Net-(J6-RN)*%
X38313600Y-35102800D02*
X37958000Y-35102800D01*
X34832600Y-35128200D02*
X34807200Y-35102800D01*
X37932600Y-35128200D02*
X34832600Y-35128200D01*
X37958000Y-35102800D02*
X37932600Y-35128200D01*
%TO.N,Net-(J6-TN)*%
X38313600Y-28803600D02*
X34858000Y-28803600D01*
X34858000Y-28803600D02*
X34807200Y-28752800D01*
%TO.N,/2-*%
X51206400Y-762000D02*
X40720400Y-762000D01*
X40720400Y-762000D02*
X39537200Y-1945200D01*
X53365400Y-7899400D02*
X53365400Y-2921000D01*
X53365400Y-2921000D02*
X51206400Y-762000D01*
X39482200Y-1945200D02*
X38252400Y-3175000D01*
X39537200Y-1945200D02*
X39482200Y-1945200D01*
X53390800Y-7924800D02*
X53365400Y-7899400D01*
%TO.N,/3-*%
X77317600Y-762000D02*
X78875467Y-2319867D01*
X78875467Y-2319867D02*
X78875467Y-3098800D01*
X55905400Y-2667000D02*
X57810400Y-762000D01*
X55930800Y-7924800D02*
X55905400Y-7899400D01*
X57810400Y-762000D02*
X77317600Y-762000D01*
X55905400Y-7899400D02*
X55905400Y-2667000D01*
%TO.N,/XH4-*%
X96215200Y-5598800D02*
X96215200Y-10896600D01*
X96393000Y-11074400D02*
X96393000Y-12573000D01*
X96443800Y-12573000D02*
X96443800Y-15214600D01*
X96215200Y-10896600D02*
X96393000Y-11074400D01*
X96393000Y-12573000D02*
X96443800Y-12573000D01*
%TO.N,/XH4+*%
X87505954Y-5559421D02*
X87545333Y-5598800D01*
X87545333Y-5598800D02*
X87545333Y-11065933D01*
X87503000Y-11099800D02*
X87579200Y-11176000D01*
X87545333Y-11065933D02*
X87579200Y-11099800D01*
X87579200Y-11099800D02*
X87503000Y-11099800D01*
X87579200Y-11176000D02*
X87579200Y-15189200D01*
%TO.N,/XH3-*%
X78875467Y-7829954D02*
X78841600Y-7863821D01*
X78841600Y-11150600D02*
X78765400Y-11226800D01*
X78875467Y-5598800D02*
X78875467Y-7829954D01*
X78841600Y-7863821D02*
X78841600Y-11150600D01*
X78765400Y-11226800D02*
X78765400Y-15214600D01*
%TO.N,/XH3+*%
X70205600Y-11099800D02*
X70205600Y-15113000D01*
X70205600Y-5497200D02*
X70104000Y-5497200D01*
X70205600Y-5598800D02*
X70205600Y-11099800D01*
X70104000Y-5497200D02*
X70205600Y-5598800D01*
X70205600Y-15113000D02*
X70154800Y-15163800D01*
%TO.N,/XH2-*%
X38252400Y-10769600D02*
X38303200Y-10820400D01*
X38303200Y-10820400D02*
X38303200Y-15214600D01*
X38252400Y-5675000D02*
X38252400Y-10769600D01*
X38303200Y-15214600D02*
X38328600Y-15240000D01*
%TO.N,/XH2+*%
X29768800Y-15214600D02*
X29692600Y-15290800D01*
X29743400Y-10820400D02*
X29768800Y-10845800D01*
X29718000Y-10820400D02*
X29743400Y-10820400D01*
X29768800Y-10845800D02*
X29768800Y-15214600D01*
X29946600Y-5598800D02*
X29870400Y-5675000D01*
X29692600Y-10795000D02*
X29718000Y-10820400D01*
X29692600Y-5700400D02*
X29692600Y-10795000D01*
X29667200Y-5675000D02*
X29692600Y-5700400D01*
X29870400Y-5675000D02*
X29667200Y-5675000D01*
%TO.N,/XH1-*%
X21082000Y-5675000D02*
X21082000Y-6360800D01*
X21031200Y-10922000D02*
X21056600Y-10947400D01*
X21056600Y-10896600D02*
X21031200Y-10922000D01*
X21056600Y-10947400D02*
X21056600Y-15392400D01*
X21082000Y-6360800D02*
X21056600Y-6386200D01*
X21056600Y-6386200D02*
X21056600Y-10896600D01*
%TO.N,/XH1+*%
X10744200Y-15341600D02*
X8890000Y-17195800D01*
X12496800Y-10972800D02*
X12547600Y-11023600D01*
X6654800Y-39116000D02*
X3383800Y-39116000D01*
X12496800Y-5675000D02*
X12496800Y-10972800D01*
X12496800Y-15341600D02*
X12420600Y-15265400D01*
X12420600Y-15265400D02*
X12420600Y-11150600D01*
X8890000Y-36880800D02*
X6654800Y-39116000D01*
X12420600Y-11150600D02*
X12547600Y-11023600D01*
X12496800Y-15341600D02*
X10744200Y-15341600D01*
X12496800Y-5675000D02*
X12612379Y-5559421D01*
X3383800Y-39116000D02*
X2899800Y-39600000D01*
X8890000Y-17195800D02*
X8890000Y-36880800D01*
%TO.N,Net-(J7-RN)*%
X12832600Y-35128200D02*
X12807200Y-35102800D01*
X15733000Y-35128200D02*
X12832600Y-35128200D01*
%TO.N,Net-(J7-TN)*%
X15783800Y-28752800D02*
X12807200Y-28752800D01*
%TD*%
%TA.AperFunction,Conductor*%
%TO.N,AGND*%
G36*
X40030449Y-520185D02*
G01*
X40076204Y-572989D01*
X40086148Y-642147D01*
X40057123Y-705703D01*
X40051091Y-712181D01*
X39311648Y-1451622D01*
X39285969Y-1471327D01*
X39169977Y-1538297D01*
X39169971Y-1538301D01*
X38674891Y-2033381D01*
X38613568Y-2066866D01*
X38587210Y-2069700D01*
X37406828Y-2069700D01*
X37406805Y-2069702D01*
X37381293Y-2072661D01*
X37381290Y-2072662D01*
X37276875Y-2118765D01*
X37196166Y-2199474D01*
X37150062Y-2303888D01*
X37150062Y-2303890D01*
X37147100Y-2329419D01*
X37147100Y-4020571D01*
X37147102Y-4020594D01*
X37150061Y-4046106D01*
X37150062Y-4046109D01*
X37196165Y-4150524D01*
X37196166Y-4150525D01*
X37276875Y-4231234D01*
X37381291Y-4277338D01*
X37406821Y-4280300D01*
X39097978Y-4280299D01*
X39123509Y-4277338D01*
X39227925Y-4231234D01*
X39308634Y-4150525D01*
X39354738Y-4046109D01*
X39357700Y-4020579D01*
X39357699Y-2840188D01*
X39377384Y-2773150D01*
X39394014Y-2752512D01*
X39707750Y-2438775D01*
X39733427Y-2419073D01*
X39733470Y-2419047D01*
X39733474Y-2419047D01*
X39849427Y-2352101D01*
X40894709Y-1306819D01*
X40956032Y-1273334D01*
X40982390Y-1270500D01*
X50944410Y-1270500D01*
X51011449Y-1290185D01*
X51032091Y-1306819D01*
X52820581Y-3095309D01*
X52854066Y-3156632D01*
X52856900Y-3182990D01*
X52856900Y-6852784D01*
X52837215Y-6919823D01*
X52801806Y-6954487D01*
X52802336Y-6955217D01*
X52798394Y-6958080D01*
X52798394Y-6958081D01*
X52654459Y-7062656D01*
X52654457Y-7062658D01*
X52654456Y-7062658D01*
X52528658Y-7188456D01*
X52528658Y-7188457D01*
X52528656Y-7188459D01*
X52483745Y-7250273D01*
X52424081Y-7332393D01*
X52343308Y-7490917D01*
X52288332Y-7660119D01*
X52260500Y-7835843D01*
X52260500Y-8013756D01*
X52288332Y-8189480D01*
X52343308Y-8358682D01*
X52379432Y-8429578D01*
X52424081Y-8517206D01*
X52528656Y-8661141D01*
X52654459Y-8786944D01*
X52798394Y-8891519D01*
X52956915Y-8972290D01*
X52956917Y-8972291D01*
X53041518Y-8999779D01*
X53126121Y-9027268D01*
X53301843Y-9055100D01*
X53301844Y-9055100D01*
X53479756Y-9055100D01*
X53479757Y-9055100D01*
X53655479Y-9027268D01*
X53824685Y-8972290D01*
X53983206Y-8891519D01*
X54127141Y-8786944D01*
X54252944Y-8661141D01*
X54357519Y-8517206D01*
X54438290Y-8358685D01*
X54493268Y-8189479D01*
X54521100Y-8013757D01*
X54521100Y-7835843D01*
X54493268Y-7660121D01*
X54465779Y-7575518D01*
X54438291Y-7490917D01*
X54357518Y-7332393D01*
X54252944Y-7188459D01*
X54127141Y-7062656D01*
X54055173Y-7010368D01*
X53983204Y-6958079D01*
X53941604Y-6936883D01*
X53890809Y-6888909D01*
X53873900Y-6826399D01*
X53873900Y-2854057D01*
X53873900Y-2854055D01*
X53839247Y-2724726D01*
X53782915Y-2627157D01*
X53772301Y-2608773D01*
X51875709Y-712181D01*
X51842224Y-650858D01*
X51847208Y-581166D01*
X51889080Y-525233D01*
X51954544Y-500816D01*
X51963390Y-500500D01*
X57053411Y-500500D01*
X57120450Y-520185D01*
X57166205Y-572989D01*
X57176149Y-642147D01*
X57147124Y-705703D01*
X57141092Y-712181D01*
X55498501Y-2354770D01*
X55498497Y-2354776D01*
X55445163Y-2447153D01*
X55445162Y-2447155D01*
X55431553Y-2470723D01*
X55396900Y-2600055D01*
X55396900Y-6852784D01*
X55377215Y-6919823D01*
X55341806Y-6954487D01*
X55342336Y-6955217D01*
X55338394Y-6958080D01*
X55338394Y-6958081D01*
X55194459Y-7062656D01*
X55194457Y-7062658D01*
X55194456Y-7062658D01*
X55068658Y-7188456D01*
X55068658Y-7188457D01*
X55068656Y-7188459D01*
X55023745Y-7250273D01*
X54964081Y-7332393D01*
X54883308Y-7490917D01*
X54828332Y-7660119D01*
X54800500Y-7835843D01*
X54800500Y-8013756D01*
X54828332Y-8189480D01*
X54883308Y-8358682D01*
X54919432Y-8429578D01*
X54964081Y-8517206D01*
X55068656Y-8661141D01*
X55194459Y-8786944D01*
X55338394Y-8891519D01*
X55496915Y-8972290D01*
X55496917Y-8972291D01*
X55581518Y-8999779D01*
X55666121Y-9027268D01*
X55841843Y-9055100D01*
X55841844Y-9055100D01*
X56019756Y-9055100D01*
X56019757Y-9055100D01*
X56195479Y-9027268D01*
X56364685Y-8972290D01*
X56523206Y-8891519D01*
X56667141Y-8786944D01*
X56792944Y-8661141D01*
X56897519Y-8517206D01*
X56978290Y-8358685D01*
X57033268Y-8189479D01*
X57061100Y-8013757D01*
X57061100Y-7835843D01*
X57340500Y-7835843D01*
X57340500Y-8013756D01*
X57368332Y-8189480D01*
X57423308Y-8358682D01*
X57459432Y-8429578D01*
X57504081Y-8517206D01*
X57608656Y-8661141D01*
X57734459Y-8786944D01*
X57878394Y-8891519D01*
X58036915Y-8972290D01*
X58036917Y-8972291D01*
X58121518Y-8999779D01*
X58206121Y-9027268D01*
X58381843Y-9055100D01*
X58381844Y-9055100D01*
X58559756Y-9055100D01*
X58559757Y-9055100D01*
X58735479Y-9027268D01*
X58904685Y-8972290D01*
X59063206Y-8891519D01*
X59207141Y-8786944D01*
X59332944Y-8661141D01*
X59437519Y-8517206D01*
X59518290Y-8358685D01*
X59573268Y-8189479D01*
X59601100Y-8013757D01*
X59601100Y-7839881D01*
X59931800Y-7839881D01*
X59931800Y-8009718D01*
X59958368Y-8177466D01*
X60010853Y-8338996D01*
X60057007Y-8429577D01*
X60466839Y-8019747D01*
X60498282Y-8137092D01*
X60570690Y-8262508D01*
X60673092Y-8364910D01*
X60798508Y-8437318D01*
X60915851Y-8468760D01*
X60506020Y-8878590D01*
X60596609Y-8924747D01*
X60758133Y-8977231D01*
X60925882Y-9003800D01*
X61095718Y-9003800D01*
X61263466Y-8977231D01*
X61424993Y-8924746D01*
X61424997Y-8924745D01*
X61515578Y-8878590D01*
X61105749Y-8468760D01*
X61223092Y-8437318D01*
X61348508Y-8364910D01*
X61450910Y-8262508D01*
X61523318Y-8137092D01*
X61554760Y-8019748D01*
X61964590Y-8429578D01*
X62010745Y-8338997D01*
X62010746Y-8338993D01*
X62063231Y-8177466D01*
X62089800Y-8009718D01*
X62089800Y-7839881D01*
X62063231Y-7672133D01*
X62010747Y-7510609D01*
X61964590Y-7420020D01*
X61554760Y-7829850D01*
X61523318Y-7712508D01*
X61450910Y-7587092D01*
X61348508Y-7484690D01*
X61223092Y-7412282D01*
X61105748Y-7380839D01*
X61515578Y-6971008D01*
X61424996Y-6924853D01*
X61263466Y-6872368D01*
X61095718Y-6845800D01*
X60925882Y-6845800D01*
X60758132Y-6872369D01*
X60758129Y-6872369D01*
X60596610Y-6924850D01*
X60506021Y-6971008D01*
X60915852Y-7380839D01*
X60798508Y-7412282D01*
X60673092Y-7484690D01*
X60570690Y-7587092D01*
X60498282Y-7712508D01*
X60466839Y-7829852D01*
X60057008Y-7420021D01*
X60010850Y-7510610D01*
X59958369Y-7672129D01*
X59958369Y-7672132D01*
X59931800Y-7839881D01*
X59601100Y-7839881D01*
X59601100Y-7835843D01*
X59573268Y-7660121D01*
X59545779Y-7575518D01*
X59518291Y-7490917D01*
X59437518Y-7332393D01*
X59332944Y-7188459D01*
X59207141Y-7062656D01*
X59063206Y-6958081D01*
X58988121Y-6919823D01*
X58904682Y-6877308D01*
X58735480Y-6822332D01*
X58647618Y-6808416D01*
X58559757Y-6794500D01*
X58381843Y-6794500D01*
X58323269Y-6803777D01*
X58206119Y-6822332D01*
X58036917Y-6877308D01*
X57878393Y-6958081D01*
X57796273Y-7017745D01*
X57734459Y-7062656D01*
X57734457Y-7062658D01*
X57734456Y-7062658D01*
X57608658Y-7188456D01*
X57608658Y-7188457D01*
X57608656Y-7188459D01*
X57563745Y-7250273D01*
X57504081Y-7332393D01*
X57423308Y-7490917D01*
X57368332Y-7660119D01*
X57340500Y-7835843D01*
X57061100Y-7835843D01*
X57033268Y-7660121D01*
X57005779Y-7575518D01*
X56978291Y-7490917D01*
X56897518Y-7332393D01*
X56792944Y-7188459D01*
X56667141Y-7062656D01*
X56595173Y-7010368D01*
X56523204Y-6958079D01*
X56481604Y-6936883D01*
X56430809Y-6888909D01*
X56413900Y-6826399D01*
X56413900Y-5511805D01*
X69100300Y-5511805D01*
X69100300Y-5685794D01*
X69127515Y-5857625D01*
X69167335Y-5980176D01*
X69181278Y-6023088D01*
X69240032Y-6138399D01*
X69260265Y-6178107D01*
X69362518Y-6318848D01*
X69362522Y-6318853D01*
X69485546Y-6441877D01*
X69485551Y-6441881D01*
X69590426Y-6518076D01*
X69626296Y-6544137D01*
X69629393Y-6545715D01*
X69630355Y-6546623D01*
X69630444Y-6546678D01*
X69630432Y-6546696D01*
X69680188Y-6593685D01*
X69697100Y-6656200D01*
X69697100Y-10164225D01*
X69677415Y-10231264D01*
X69641991Y-10267327D01*
X69564759Y-10318932D01*
X69564755Y-10318935D01*
X69424735Y-10458955D01*
X69424732Y-10458959D01*
X69314718Y-10623605D01*
X69314713Y-10623614D01*
X69238933Y-10806564D01*
X69238931Y-10806572D01*
X69200300Y-11000782D01*
X69200300Y-11198817D01*
X69238931Y-11393027D01*
X69238933Y-11393035D01*
X69314713Y-11575985D01*
X69314718Y-11575994D01*
X69424732Y-11740640D01*
X69424735Y-11740644D01*
X69564756Y-11880665D01*
X69564759Y-11880667D01*
X69641991Y-11932271D01*
X69686795Y-11985882D01*
X69697100Y-12035373D01*
X69697100Y-14194282D01*
X69677415Y-14261321D01*
X69641991Y-14297384D01*
X69513959Y-14382932D01*
X69513955Y-14382935D01*
X69373935Y-14522955D01*
X69373932Y-14522959D01*
X69263918Y-14687605D01*
X69263913Y-14687614D01*
X69188133Y-14870564D01*
X69188131Y-14870572D01*
X69149500Y-15064782D01*
X69149500Y-15262817D01*
X69188131Y-15457027D01*
X69188133Y-15457035D01*
X69263913Y-15639985D01*
X69263918Y-15639994D01*
X69373932Y-15804640D01*
X69373935Y-15804644D01*
X69513955Y-15944664D01*
X69513959Y-15944667D01*
X69678605Y-16054681D01*
X69678611Y-16054684D01*
X69678612Y-16054685D01*
X69861565Y-16130467D01*
X70055782Y-16169099D01*
X70055786Y-16169100D01*
X70055787Y-16169100D01*
X70253814Y-16169100D01*
X70253815Y-16169099D01*
X70448035Y-16130467D01*
X70630988Y-16054685D01*
X70795641Y-15944667D01*
X70935667Y-15804641D01*
X71045685Y-15639988D01*
X71121467Y-15457035D01*
X71160100Y-15262813D01*
X71160100Y-15064787D01*
X71121467Y-14870565D01*
X71045685Y-14687612D01*
X71045684Y-14687611D01*
X71045681Y-14687605D01*
X70935667Y-14522959D01*
X70935664Y-14522955D01*
X70795648Y-14382939D01*
X70795642Y-14382934D01*
X70795639Y-14382932D01*
X70778305Y-14371349D01*
X70769206Y-14365269D01*
X70724403Y-14311656D01*
X70714100Y-14262169D01*
X70714100Y-12035373D01*
X70733785Y-11968334D01*
X70769207Y-11932272D01*
X70846441Y-11880667D01*
X70986467Y-11740641D01*
X71096485Y-11575988D01*
X71162216Y-11417300D01*
X71844511Y-11417300D01*
X71900174Y-11551686D01*
X71900176Y-11551689D01*
X72004576Y-11707935D01*
X72004582Y-11707943D01*
X72137456Y-11840817D01*
X72137464Y-11840823D01*
X72293710Y-11945223D01*
X72293713Y-11945225D01*
X72428099Y-12000889D01*
X72428100Y-12000889D01*
X73063100Y-12000889D01*
X73197486Y-11945225D01*
X73197489Y-11945223D01*
X73353735Y-11840823D01*
X73353743Y-11840817D01*
X73486617Y-11707943D01*
X73486623Y-11707935D01*
X73591023Y-11551689D01*
X73591025Y-11551686D01*
X73646689Y-11417300D01*
X73063100Y-11417300D01*
X73063100Y-12000889D01*
X72428100Y-12000889D01*
X72428100Y-11417300D01*
X71844511Y-11417300D01*
X71162216Y-11417300D01*
X71172267Y-11393035D01*
X71210900Y-11198813D01*
X71210900Y-11053722D01*
X72395600Y-11053722D01*
X72395600Y-11145878D01*
X72419452Y-11234895D01*
X72465530Y-11314705D01*
X72530695Y-11379870D01*
X72610505Y-11425948D01*
X72699522Y-11449800D01*
X72791678Y-11449800D01*
X72880695Y-11425948D01*
X72960505Y-11379870D01*
X73025670Y-11314705D01*
X73071748Y-11234895D01*
X73095600Y-11145878D01*
X73095600Y-11053722D01*
X73081415Y-11000782D01*
X77760100Y-11000782D01*
X77760100Y-11198817D01*
X77798731Y-11393027D01*
X77798733Y-11393035D01*
X77874513Y-11575985D01*
X77874518Y-11575994D01*
X77984532Y-11740640D01*
X77984535Y-11740644D01*
X78124556Y-11880665D01*
X78124559Y-11880667D01*
X78201791Y-11932271D01*
X78246595Y-11985882D01*
X78256900Y-12035373D01*
X78256900Y-14279025D01*
X78237215Y-14346064D01*
X78201791Y-14382127D01*
X78124559Y-14433732D01*
X78124555Y-14433735D01*
X77984535Y-14573755D01*
X77984532Y-14573759D01*
X77874518Y-14738405D01*
X77874513Y-14738414D01*
X77798733Y-14921364D01*
X77798731Y-14921372D01*
X77760100Y-15115582D01*
X77760100Y-15313617D01*
X77798731Y-15507827D01*
X77798733Y-15507835D01*
X77874513Y-15690785D01*
X77874518Y-15690794D01*
X77984532Y-15855440D01*
X77984535Y-15855444D01*
X78124555Y-15995464D01*
X78124559Y-15995467D01*
X78289205Y-16105481D01*
X78289211Y-16105484D01*
X78289212Y-16105485D01*
X78472165Y-16181267D01*
X78666382Y-16219899D01*
X78666386Y-16219900D01*
X78666387Y-16219900D01*
X78864414Y-16219900D01*
X78864415Y-16219899D01*
X79058635Y-16181267D01*
X79241588Y-16105485D01*
X79406241Y-15995467D01*
X79546267Y-15855441D01*
X79656285Y-15690788D01*
X79732067Y-15507835D01*
X79770700Y-15313613D01*
X79770700Y-15115587D01*
X79732067Y-14921365D01*
X79656285Y-14738412D01*
X79656284Y-14738411D01*
X79656281Y-14738405D01*
X79546267Y-14573759D01*
X79546264Y-14573755D01*
X79406244Y-14433735D01*
X79406240Y-14433732D01*
X79329009Y-14382127D01*
X79284204Y-14328514D01*
X79273900Y-14279025D01*
X79273900Y-12035373D01*
X79293585Y-11968334D01*
X79329007Y-11932272D01*
X79406241Y-11880667D01*
X79546267Y-11740641D01*
X79656285Y-11575988D01*
X79722016Y-11417300D01*
X80404311Y-11417300D01*
X80459974Y-11551686D01*
X80459976Y-11551689D01*
X80564376Y-11707935D01*
X80564382Y-11707943D01*
X80697256Y-11840817D01*
X80697264Y-11840823D01*
X80853510Y-11945223D01*
X80853513Y-11945225D01*
X80987899Y-12000889D01*
X80987900Y-12000889D01*
X81622900Y-12000889D01*
X81757286Y-11945225D01*
X81757289Y-11945223D01*
X81913535Y-11840823D01*
X81913543Y-11840817D01*
X82046417Y-11707943D01*
X82046423Y-11707935D01*
X82150823Y-11551689D01*
X82150825Y-11551686D01*
X82206489Y-11417300D01*
X81622900Y-11417300D01*
X81622900Y-12000889D01*
X80987900Y-12000889D01*
X80987900Y-11417300D01*
X80404311Y-11417300D01*
X79722016Y-11417300D01*
X79732067Y-11393035D01*
X79770700Y-11198813D01*
X79770700Y-11053722D01*
X80955400Y-11053722D01*
X80955400Y-11145878D01*
X80979252Y-11234895D01*
X81025330Y-11314705D01*
X81090495Y-11379870D01*
X81170305Y-11425948D01*
X81259322Y-11449800D01*
X81351478Y-11449800D01*
X81440495Y-11425948D01*
X81520305Y-11379870D01*
X81585470Y-11314705D01*
X81631548Y-11234895D01*
X81655400Y-11145878D01*
X81655400Y-11053722D01*
X81631548Y-10964705D01*
X81585470Y-10884895D01*
X81520305Y-10819730D01*
X81455474Y-10782300D01*
X81622900Y-10782300D01*
X82206489Y-10782300D01*
X82206489Y-10782299D01*
X82150825Y-10647913D01*
X82150823Y-10647910D01*
X82046423Y-10491664D01*
X82046417Y-10491656D01*
X81913543Y-10358782D01*
X81913539Y-10358779D01*
X81757294Y-10254379D01*
X81757284Y-10254374D01*
X81622900Y-10198710D01*
X81622900Y-10782300D01*
X81455474Y-10782300D01*
X81440495Y-10773652D01*
X81351478Y-10749800D01*
X81259322Y-10749800D01*
X81170305Y-10773652D01*
X81090495Y-10819730D01*
X81025330Y-10884895D01*
X80979252Y-10964705D01*
X80955400Y-11053722D01*
X79770700Y-11053722D01*
X79770700Y-11000787D01*
X79746475Y-10878997D01*
X79734795Y-10820278D01*
X79734793Y-10820272D01*
X79732067Y-10806565D01*
X79722016Y-10782299D01*
X80404310Y-10782299D01*
X80404311Y-10782300D01*
X80987900Y-10782300D01*
X80987900Y-10198710D01*
X80853515Y-10254374D01*
X80853505Y-10254379D01*
X80697260Y-10358779D01*
X80697256Y-10358782D01*
X80564382Y-10491656D01*
X80564376Y-10491664D01*
X80459976Y-10647910D01*
X80459974Y-10647913D01*
X80404310Y-10782299D01*
X79722016Y-10782299D01*
X79663873Y-10641930D01*
X79656286Y-10623614D01*
X79656281Y-10623605D01*
X79546267Y-10458959D01*
X79546264Y-10458955D01*
X79406246Y-10318937D01*
X79406241Y-10318933D01*
X79405204Y-10318240D01*
X79404783Y-10317737D01*
X79401535Y-10315071D01*
X79402040Y-10314454D01*
X79360402Y-10264625D01*
X79350100Y-10215141D01*
X79350100Y-8039618D01*
X79354325Y-8007525D01*
X79357089Y-7997209D01*
X79383967Y-7896899D01*
X79383967Y-6656200D01*
X79403652Y-6589161D01*
X79451673Y-6545715D01*
X79454771Y-6544137D01*
X79595522Y-6441876D01*
X79718543Y-6318855D01*
X79820804Y-6178104D01*
X79899789Y-6023088D01*
X79953551Y-5857625D01*
X79980767Y-5685794D01*
X79980767Y-5511805D01*
X86440033Y-5511805D01*
X86440033Y-5685794D01*
X86467248Y-5857625D01*
X86507068Y-5980176D01*
X86521011Y-6023088D01*
X86579765Y-6138399D01*
X86599998Y-6178107D01*
X86702251Y-6318848D01*
X86702255Y-6318853D01*
X86825279Y-6441877D01*
X86825284Y-6441881D01*
X86930159Y-6518076D01*
X86966029Y-6544137D01*
X86969126Y-6545715D01*
X86970088Y-6546623D01*
X86970177Y-6546678D01*
X86970165Y-6546696D01*
X87019921Y-6593685D01*
X87036833Y-6656200D01*
X87036833Y-10186854D01*
X87017148Y-10253893D01*
X86981725Y-10289955D01*
X86938361Y-10318930D01*
X86938355Y-10318935D01*
X86798335Y-10458955D01*
X86798332Y-10458959D01*
X86688318Y-10623605D01*
X86688313Y-10623614D01*
X86612533Y-10806564D01*
X86612531Y-10806572D01*
X86573900Y-11000782D01*
X86573900Y-11198817D01*
X86612531Y-11393027D01*
X86612533Y-11393035D01*
X86688313Y-11575985D01*
X86688318Y-11575994D01*
X86798332Y-11740640D01*
X86798335Y-11740644D01*
X86938356Y-11880665D01*
X86938359Y-11880667D01*
X87015591Y-11932271D01*
X87060395Y-11985882D01*
X87070700Y-12035373D01*
X87070700Y-14287569D01*
X87051015Y-14354608D01*
X87015594Y-14390669D01*
X86989157Y-14408334D01*
X86989152Y-14408339D01*
X86849135Y-14548355D01*
X86849132Y-14548359D01*
X86739118Y-14713005D01*
X86739113Y-14713014D01*
X86663333Y-14895964D01*
X86663331Y-14895972D01*
X86624700Y-15090182D01*
X86624700Y-15288217D01*
X86663331Y-15482427D01*
X86663333Y-15482435D01*
X86739113Y-15665385D01*
X86739118Y-15665394D01*
X86849132Y-15830040D01*
X86849135Y-15830044D01*
X86989155Y-15970064D01*
X86989159Y-15970067D01*
X87153805Y-16080081D01*
X87153811Y-16080084D01*
X87153812Y-16080085D01*
X87336765Y-16155867D01*
X87530982Y-16194499D01*
X87530986Y-16194500D01*
X87530987Y-16194500D01*
X87729014Y-16194500D01*
X87729015Y-16194499D01*
X87923235Y-16155867D01*
X88106188Y-16080085D01*
X88270841Y-15970067D01*
X88410867Y-15830041D01*
X88520885Y-15665388D01*
X88596667Y-15482435D01*
X88635300Y-15288213D01*
X88635300Y-15090187D01*
X88596667Y-14895965D01*
X88520885Y-14713012D01*
X88520884Y-14713011D01*
X88520881Y-14713005D01*
X88410867Y-14548359D01*
X88410864Y-14548355D01*
X88270844Y-14408335D01*
X88270840Y-14408332D01*
X88142809Y-14322784D01*
X88098004Y-14269172D01*
X88087700Y-14219682D01*
X88087700Y-12035373D01*
X88107385Y-11968334D01*
X88142807Y-11932272D01*
X88220041Y-11880667D01*
X88360067Y-11740641D01*
X88470085Y-11575988D01*
X88535816Y-11417300D01*
X89218111Y-11417300D01*
X89273774Y-11551686D01*
X89273776Y-11551689D01*
X89378176Y-11707935D01*
X89378182Y-11707943D01*
X89511056Y-11840817D01*
X89511064Y-11840823D01*
X89667310Y-11945223D01*
X89667313Y-11945225D01*
X89801699Y-12000889D01*
X89801700Y-12000889D01*
X90436700Y-12000889D01*
X90571086Y-11945225D01*
X90571089Y-11945223D01*
X90727335Y-11840823D01*
X90727343Y-11840817D01*
X90860217Y-11707943D01*
X90860223Y-11707935D01*
X90964623Y-11551689D01*
X90964625Y-11551686D01*
X91020289Y-11417300D01*
X90436700Y-11417300D01*
X90436700Y-12000889D01*
X89801700Y-12000889D01*
X89801700Y-11417300D01*
X89218111Y-11417300D01*
X88535816Y-11417300D01*
X88545867Y-11393035D01*
X88584500Y-11198813D01*
X88584500Y-11053722D01*
X89769200Y-11053722D01*
X89769200Y-11145878D01*
X89793052Y-11234895D01*
X89839130Y-11314705D01*
X89904295Y-11379870D01*
X89984105Y-11425948D01*
X90073122Y-11449800D01*
X90165278Y-11449800D01*
X90254295Y-11425948D01*
X90334105Y-11379870D01*
X90399270Y-11314705D01*
X90445348Y-11234895D01*
X90469200Y-11145878D01*
X90469200Y-11053722D01*
X90445348Y-10964705D01*
X90399270Y-10884895D01*
X90334105Y-10819730D01*
X90269274Y-10782300D01*
X90436700Y-10782300D01*
X91020289Y-10782300D01*
X91020289Y-10782299D01*
X90964625Y-10647913D01*
X90964623Y-10647910D01*
X90860223Y-10491664D01*
X90860217Y-10491656D01*
X90727343Y-10358782D01*
X90727339Y-10358779D01*
X90571094Y-10254379D01*
X90571084Y-10254374D01*
X90436700Y-10198710D01*
X90436700Y-10782300D01*
X90269274Y-10782300D01*
X90254295Y-10773652D01*
X90165278Y-10749800D01*
X90073122Y-10749800D01*
X89984105Y-10773652D01*
X89904295Y-10819730D01*
X89839130Y-10884895D01*
X89793052Y-10964705D01*
X89769200Y-11053722D01*
X88584500Y-11053722D01*
X88584500Y-11000787D01*
X88560275Y-10878997D01*
X88548595Y-10820278D01*
X88548593Y-10820272D01*
X88545867Y-10806565D01*
X88535816Y-10782299D01*
X89218110Y-10782299D01*
X89218111Y-10782300D01*
X89801700Y-10782300D01*
X89801700Y-10198710D01*
X89801699Y-10198710D01*
X89667315Y-10254374D01*
X89667305Y-10254379D01*
X89511060Y-10358779D01*
X89511056Y-10358782D01*
X89378182Y-10491656D01*
X89378176Y-10491664D01*
X89273776Y-10647910D01*
X89273774Y-10647913D01*
X89218110Y-10782299D01*
X88535816Y-10782299D01*
X88477673Y-10641930D01*
X88470086Y-10623614D01*
X88470081Y-10623605D01*
X88360067Y-10458959D01*
X88360064Y-10458955D01*
X88220044Y-10318935D01*
X88220040Y-10318932D01*
X88108942Y-10244698D01*
X88064137Y-10191086D01*
X88053833Y-10141596D01*
X88053833Y-6656200D01*
X88073518Y-6589161D01*
X88121539Y-6545715D01*
X88124637Y-6544137D01*
X88265388Y-6441876D01*
X88388409Y-6318855D01*
X88490670Y-6178104D01*
X88569655Y-6023088D01*
X88623417Y-5857625D01*
X88650633Y-5685794D01*
X88650633Y-5511805D01*
X95109900Y-5511805D01*
X95109900Y-5685794D01*
X95137115Y-5857625D01*
X95176935Y-5980176D01*
X95190878Y-6023088D01*
X95249632Y-6138399D01*
X95269865Y-6178107D01*
X95372118Y-6318848D01*
X95372122Y-6318853D01*
X95495146Y-6441877D01*
X95495151Y-6441881D01*
X95600026Y-6518076D01*
X95635896Y-6544137D01*
X95638993Y-6545715D01*
X95639955Y-6546623D01*
X95640044Y-6546678D01*
X95640032Y-6546696D01*
X95689788Y-6593685D01*
X95706700Y-6656200D01*
X95706700Y-10287629D01*
X95687015Y-10354668D01*
X95670381Y-10375310D01*
X95612135Y-10433555D01*
X95612132Y-10433559D01*
X95502118Y-10598205D01*
X95502113Y-10598214D01*
X95426333Y-10781164D01*
X95426331Y-10781172D01*
X95387700Y-10975382D01*
X95387700Y-11173417D01*
X95426331Y-11367627D01*
X95426333Y-11367635D01*
X95502113Y-11550585D01*
X95502118Y-11550594D01*
X95612132Y-11715240D01*
X95612135Y-11715244D01*
X95752156Y-11855265D01*
X95752159Y-11855267D01*
X95829391Y-11906871D01*
X95874195Y-11960482D01*
X95884500Y-12009973D01*
X95884500Y-12639944D01*
X95919154Y-12769277D01*
X95922264Y-12776785D01*
X95921048Y-12777288D01*
X95935300Y-12830466D01*
X95935300Y-14279025D01*
X95915615Y-14346064D01*
X95880191Y-14382127D01*
X95802959Y-14433732D01*
X95802955Y-14433735D01*
X95662935Y-14573755D01*
X95662932Y-14573759D01*
X95552918Y-14738405D01*
X95552913Y-14738414D01*
X95477133Y-14921364D01*
X95477131Y-14921372D01*
X95438500Y-15115582D01*
X95438500Y-15313617D01*
X95477131Y-15507827D01*
X95477133Y-15507835D01*
X95552913Y-15690785D01*
X95552918Y-15690794D01*
X95662932Y-15855440D01*
X95662935Y-15855444D01*
X95802955Y-15995464D01*
X95802959Y-15995467D01*
X95967605Y-16105481D01*
X95967611Y-16105484D01*
X95967612Y-16105485D01*
X96150565Y-16181267D01*
X96344782Y-16219899D01*
X96344786Y-16219900D01*
X96344787Y-16219900D01*
X96542814Y-16219900D01*
X96542815Y-16219899D01*
X96737035Y-16181267D01*
X96919988Y-16105485D01*
X97084641Y-15995467D01*
X97224667Y-15855441D01*
X97334685Y-15690788D01*
X97410467Y-15507835D01*
X97449100Y-15313613D01*
X97449100Y-15115587D01*
X97410467Y-14921365D01*
X97334685Y-14738412D01*
X97334684Y-14738411D01*
X97334681Y-14738405D01*
X97224667Y-14573759D01*
X97224664Y-14573755D01*
X97084644Y-14433735D01*
X97084640Y-14433732D01*
X97007409Y-14382127D01*
X96962604Y-14328514D01*
X96952300Y-14279025D01*
X96952300Y-12506057D01*
X96952300Y-12506055D01*
X96917647Y-12376726D01*
X96917644Y-12376721D01*
X96914535Y-12369212D01*
X96915749Y-12368709D01*
X96901500Y-12315532D01*
X96901500Y-12009973D01*
X96921185Y-11942934D01*
X96956607Y-11906872D01*
X97033841Y-11855267D01*
X97173867Y-11715241D01*
X97283885Y-11550588D01*
X97349616Y-11391900D01*
X98031911Y-11391900D01*
X98087574Y-11526286D01*
X98087576Y-11526289D01*
X98191976Y-11682535D01*
X98191982Y-11682543D01*
X98324856Y-11815417D01*
X98324864Y-11815423D01*
X98481110Y-11919823D01*
X98481113Y-11919825D01*
X98615499Y-11975489D01*
X98615500Y-11975489D01*
X99250500Y-11975489D01*
X99384886Y-11919825D01*
X99384889Y-11919823D01*
X99541135Y-11815423D01*
X99541143Y-11815417D01*
X99674017Y-11682543D01*
X99674023Y-11682535D01*
X99778423Y-11526289D01*
X99778425Y-11526286D01*
X99834089Y-11391900D01*
X99250500Y-11391900D01*
X99250500Y-11975489D01*
X98615500Y-11975489D01*
X98615500Y-11391900D01*
X98031911Y-11391900D01*
X97349616Y-11391900D01*
X97359667Y-11367635D01*
X97398300Y-11173413D01*
X97398300Y-11028322D01*
X98583000Y-11028322D01*
X98583000Y-11120478D01*
X98606852Y-11209495D01*
X98652930Y-11289305D01*
X98718095Y-11354470D01*
X98797905Y-11400548D01*
X98886922Y-11424400D01*
X98979078Y-11424400D01*
X99068095Y-11400548D01*
X99147905Y-11354470D01*
X99213070Y-11289305D01*
X99259148Y-11209495D01*
X99283000Y-11120478D01*
X99283000Y-11028322D01*
X99259148Y-10939305D01*
X99213070Y-10859495D01*
X99147905Y-10794330D01*
X99083074Y-10756900D01*
X99250500Y-10756900D01*
X99834089Y-10756900D01*
X99834089Y-10756899D01*
X99778425Y-10622513D01*
X99778423Y-10622510D01*
X99674023Y-10466264D01*
X99674017Y-10466256D01*
X99541143Y-10333382D01*
X99541139Y-10333379D01*
X99384894Y-10228979D01*
X99384884Y-10228974D01*
X99250500Y-10173310D01*
X99250500Y-10756900D01*
X99083074Y-10756900D01*
X99068095Y-10748252D01*
X98979078Y-10724400D01*
X98886922Y-10724400D01*
X98797905Y-10748252D01*
X98718095Y-10794330D01*
X98652930Y-10859495D01*
X98606852Y-10939305D01*
X98583000Y-11028322D01*
X97398300Y-11028322D01*
X97398300Y-10975387D01*
X97383043Y-10898685D01*
X97362395Y-10794878D01*
X97362393Y-10794872D01*
X97359667Y-10781165D01*
X97349616Y-10756899D01*
X98031910Y-10756899D01*
X98031911Y-10756900D01*
X98615500Y-10756900D01*
X98615500Y-10173310D01*
X98615499Y-10173310D01*
X98481115Y-10228974D01*
X98481105Y-10228979D01*
X98324860Y-10333379D01*
X98324856Y-10333382D01*
X98191982Y-10466256D01*
X98191976Y-10466264D01*
X98087576Y-10622510D01*
X98087574Y-10622513D01*
X98031910Y-10756899D01*
X97349616Y-10756899D01*
X97283885Y-10598212D01*
X97283884Y-10598211D01*
X97283881Y-10598205D01*
X97173867Y-10433559D01*
X97173864Y-10433555D01*
X97033841Y-10293532D01*
X96869185Y-10183513D01*
X96800247Y-10154958D01*
X96745843Y-10111116D01*
X96723779Y-10044822D01*
X96723700Y-10040397D01*
X96723700Y-6656200D01*
X96743385Y-6589161D01*
X96791406Y-6545715D01*
X96794504Y-6544137D01*
X96935255Y-6441876D01*
X97058276Y-6318855D01*
X97160537Y-6178104D01*
X97239522Y-6023088D01*
X97293284Y-5857625D01*
X97320500Y-5685794D01*
X97320500Y-5511805D01*
X97293284Y-5339974D01*
X97280345Y-5300154D01*
X97239522Y-5174512D01*
X97160537Y-5019496D01*
X97113638Y-4954945D01*
X97058281Y-4878751D01*
X97058277Y-4878746D01*
X96935253Y-4755722D01*
X96935248Y-4755718D01*
X96794507Y-4653465D01*
X96794506Y-4653464D01*
X96794504Y-4653463D01*
X96639488Y-4574478D01*
X96596576Y-4560535D01*
X96474025Y-4520715D01*
X96302194Y-4493500D01*
X96302189Y-4493500D01*
X96128211Y-4493500D01*
X96128206Y-4493500D01*
X95956374Y-4520715D01*
X95790909Y-4574479D01*
X95635892Y-4653465D01*
X95495151Y-4755718D01*
X95495146Y-4755722D01*
X95372122Y-4878746D01*
X95372118Y-4878751D01*
X95269865Y-5019492D01*
X95190879Y-5174509D01*
X95137115Y-5339974D01*
X95109900Y-5511805D01*
X88650633Y-5511805D01*
X88623417Y-5339974D01*
X88610478Y-5300154D01*
X88569655Y-5174512D01*
X88490670Y-5019496D01*
X88443771Y-4954945D01*
X88388414Y-4878751D01*
X88388410Y-4878746D01*
X88265386Y-4755722D01*
X88265381Y-4755718D01*
X88124640Y-4653465D01*
X88124639Y-4653464D01*
X88124637Y-4653463D01*
X87969621Y-4574478D01*
X87926709Y-4560535D01*
X87804158Y-4520715D01*
X87632327Y-4493500D01*
X87632322Y-4493500D01*
X87458344Y-4493500D01*
X87458339Y-4493500D01*
X87286507Y-4520715D01*
X87121042Y-4574479D01*
X86966025Y-4653465D01*
X86825284Y-4755718D01*
X86825279Y-4755722D01*
X86702255Y-4878746D01*
X86702251Y-4878751D01*
X86599998Y-5019492D01*
X86521012Y-5174509D01*
X86467248Y-5339974D01*
X86440033Y-5511805D01*
X79980767Y-5511805D01*
X79953551Y-5339974D01*
X79940612Y-5300154D01*
X79899789Y-5174512D01*
X79820804Y-5019496D01*
X79773905Y-4954945D01*
X79718548Y-4878751D01*
X79718544Y-4878746D01*
X79595520Y-4755722D01*
X79595515Y-4755718D01*
X79454774Y-4653465D01*
X79454773Y-4653464D01*
X79454771Y-4653463D01*
X79299755Y-4574478D01*
X79256843Y-4560535D01*
X79134292Y-4520715D01*
X78962461Y-4493500D01*
X78962456Y-4493500D01*
X78788478Y-4493500D01*
X78788473Y-4493500D01*
X78616641Y-4520715D01*
X78451176Y-4574479D01*
X78296159Y-4653465D01*
X78155418Y-4755718D01*
X78155413Y-4755722D01*
X78032389Y-4878746D01*
X78032385Y-4878751D01*
X77930132Y-5019492D01*
X77851146Y-5174509D01*
X77797382Y-5339974D01*
X77770167Y-5511805D01*
X77770167Y-5685794D01*
X77797382Y-5857625D01*
X77837202Y-5980176D01*
X77851145Y-6023088D01*
X77909899Y-6138399D01*
X77930132Y-6178107D01*
X78032385Y-6318848D01*
X78032389Y-6318853D01*
X78155413Y-6441877D01*
X78155418Y-6441881D01*
X78260293Y-6518076D01*
X78296163Y-6544137D01*
X78299260Y-6545715D01*
X78300222Y-6546623D01*
X78300311Y-6546678D01*
X78300299Y-6546696D01*
X78350055Y-6593685D01*
X78366967Y-6656200D01*
X78366967Y-7654155D01*
X78362742Y-7686248D01*
X78333100Y-7796876D01*
X78333100Y-10113310D01*
X78313415Y-10180349D01*
X78277991Y-10216412D01*
X78124559Y-10318932D01*
X78124555Y-10318935D01*
X77984535Y-10458955D01*
X77984532Y-10458959D01*
X77874518Y-10623605D01*
X77874513Y-10623614D01*
X77798733Y-10806564D01*
X77798731Y-10806572D01*
X77760100Y-11000782D01*
X73081415Y-11000782D01*
X73071748Y-10964705D01*
X73025670Y-10884895D01*
X72960505Y-10819730D01*
X72895674Y-10782300D01*
X73063100Y-10782300D01*
X73646689Y-10782300D01*
X73646689Y-10782299D01*
X73591025Y-10647913D01*
X73591023Y-10647910D01*
X73486623Y-10491664D01*
X73486617Y-10491656D01*
X73353743Y-10358782D01*
X73353739Y-10358779D01*
X73197494Y-10254379D01*
X73197484Y-10254374D01*
X73063100Y-10198710D01*
X73063100Y-10782300D01*
X72895674Y-10782300D01*
X72880695Y-10773652D01*
X72791678Y-10749800D01*
X72699522Y-10749800D01*
X72610505Y-10773652D01*
X72530695Y-10819730D01*
X72465530Y-10884895D01*
X72419452Y-10964705D01*
X72395600Y-11053722D01*
X71210900Y-11053722D01*
X71210900Y-11000787D01*
X71172267Y-10806565D01*
X71162216Y-10782299D01*
X71844510Y-10782299D01*
X71844511Y-10782300D01*
X72428100Y-10782300D01*
X72428100Y-10198710D01*
X72293715Y-10254374D01*
X72293705Y-10254379D01*
X72137460Y-10358779D01*
X72137456Y-10358782D01*
X72004582Y-10491656D01*
X72004576Y-10491664D01*
X71900176Y-10647910D01*
X71900174Y-10647913D01*
X71844510Y-10782299D01*
X71162216Y-10782299D01*
X71104073Y-10641930D01*
X71096486Y-10623614D01*
X71096481Y-10623605D01*
X70986467Y-10458959D01*
X70986464Y-10458955D01*
X70846444Y-10318935D01*
X70846440Y-10318932D01*
X70769209Y-10267327D01*
X70724404Y-10213714D01*
X70714100Y-10164225D01*
X70714100Y-6656200D01*
X70733785Y-6589161D01*
X70781806Y-6545715D01*
X70784904Y-6544137D01*
X70925655Y-6441876D01*
X71048676Y-6318855D01*
X71150937Y-6178104D01*
X71229922Y-6023088D01*
X71283684Y-5857625D01*
X71310900Y-5685794D01*
X71310900Y-5511805D01*
X71283684Y-5339974D01*
X71270745Y-5300154D01*
X71229922Y-5174512D01*
X71150937Y-5019496D01*
X71104038Y-4954945D01*
X71048681Y-4878751D01*
X71048677Y-4878746D01*
X70925653Y-4755722D01*
X70925648Y-4755718D01*
X70784907Y-4653465D01*
X70784906Y-4653464D01*
X70784904Y-4653463D01*
X70629888Y-4574478D01*
X70586976Y-4560535D01*
X70464425Y-4520715D01*
X70292594Y-4493500D01*
X70292589Y-4493500D01*
X70118611Y-4493500D01*
X70118606Y-4493500D01*
X69946774Y-4520715D01*
X69781309Y-4574479D01*
X69626292Y-4653465D01*
X69485551Y-4755718D01*
X69485546Y-4755722D01*
X69362522Y-4878746D01*
X69362518Y-4878751D01*
X69260265Y-5019492D01*
X69181279Y-5174509D01*
X69127515Y-5339974D01*
X69100300Y-5511805D01*
X56413900Y-5511805D01*
X56413900Y-2928989D01*
X56433585Y-2861950D01*
X56450219Y-2841308D01*
X57038308Y-2253219D01*
X69100300Y-2253219D01*
X69100300Y-3944371D01*
X69100302Y-3944394D01*
X69103261Y-3969906D01*
X69103262Y-3969909D01*
X69149365Y-4074324D01*
X69149366Y-4074325D01*
X69230075Y-4155034D01*
X69334491Y-4201138D01*
X69360021Y-4204100D01*
X71051178Y-4204099D01*
X71076709Y-4201138D01*
X71181125Y-4155034D01*
X71261834Y-4074325D01*
X71307938Y-3969909D01*
X71310900Y-3944379D01*
X71310899Y-2253222D01*
X71307938Y-2227691D01*
X71261834Y-2123275D01*
X71181125Y-2042566D01*
X71149035Y-2028397D01*
X71076710Y-1996462D01*
X71051179Y-1993500D01*
X69360028Y-1993500D01*
X69360005Y-1993502D01*
X69334493Y-1996461D01*
X69334490Y-1996462D01*
X69230075Y-2042565D01*
X69149366Y-2123274D01*
X69103262Y-2227688D01*
X69103262Y-2227690D01*
X69100300Y-2253219D01*
X57038308Y-2253219D01*
X57984708Y-1306819D01*
X58046031Y-1273334D01*
X58072389Y-1270500D01*
X77055610Y-1270500D01*
X77122649Y-1290185D01*
X77143291Y-1306819D01*
X77803547Y-1967074D01*
X77837032Y-2028397D01*
X77832048Y-2098088D01*
X77820701Y-2119950D01*
X77773129Y-2227688D01*
X77773129Y-2227690D01*
X77770167Y-2253219D01*
X77770167Y-3944371D01*
X77770169Y-3944394D01*
X77773128Y-3969906D01*
X77773129Y-3969909D01*
X77819232Y-4074324D01*
X77819233Y-4074325D01*
X77899942Y-4155034D01*
X78004358Y-4201138D01*
X78029888Y-4204100D01*
X79721045Y-4204099D01*
X79746576Y-4201138D01*
X79850992Y-4155034D01*
X79931701Y-4074325D01*
X79977805Y-3969909D01*
X79980767Y-3944379D01*
X79980766Y-2253222D01*
X79980766Y-2253219D01*
X86440033Y-2253219D01*
X86440033Y-3944371D01*
X86440035Y-3944394D01*
X86442994Y-3969906D01*
X86442995Y-3969909D01*
X86489098Y-4074324D01*
X86489099Y-4074325D01*
X86569808Y-4155034D01*
X86674224Y-4201138D01*
X86699754Y-4204100D01*
X88390911Y-4204099D01*
X88416442Y-4201138D01*
X88520858Y-4155034D01*
X88601567Y-4074325D01*
X88647671Y-3969909D01*
X88650633Y-3944379D01*
X88650632Y-2253222D01*
X88650632Y-2253219D01*
X95109900Y-2253219D01*
X95109900Y-3944371D01*
X95109902Y-3944394D01*
X95112861Y-3969906D01*
X95112862Y-3969909D01*
X95158965Y-4074324D01*
X95158966Y-4074325D01*
X95239675Y-4155034D01*
X95344091Y-4201138D01*
X95369621Y-4204100D01*
X97060778Y-4204099D01*
X97086309Y-4201138D01*
X97190725Y-4155034D01*
X97236887Y-4108872D01*
X102499499Y-4108872D01*
X102499499Y-4371127D01*
X102515611Y-4493500D01*
X102533729Y-4631116D01*
X102601601Y-4884420D01*
X102601604Y-4884427D01*
X102701954Y-5126693D01*
X102701959Y-5126704D01*
X102833071Y-5353795D01*
X102833082Y-5353811D01*
X102992715Y-5561850D01*
X102992721Y-5561857D01*
X103178142Y-5747278D01*
X103178148Y-5747283D01*
X103386197Y-5906924D01*
X103386204Y-5906928D01*
X103613295Y-6038040D01*
X103613300Y-6038042D01*
X103613303Y-6038044D01*
X103855580Y-6138399D01*
X104108884Y-6206271D01*
X104368880Y-6240501D01*
X104368887Y-6240501D01*
X104631113Y-6240501D01*
X104631120Y-6240501D01*
X104891116Y-6206271D01*
X105144420Y-6138399D01*
X105386697Y-6038044D01*
X105613803Y-5906924D01*
X105821852Y-5747283D01*
X106007283Y-5561852D01*
X106166924Y-5353803D01*
X106298044Y-5126697D01*
X106398399Y-4884420D01*
X106466271Y-4631116D01*
X106500501Y-4371120D01*
X106500501Y-4108880D01*
X106466271Y-3848884D01*
X106398399Y-3595580D01*
X106298044Y-3353303D01*
X106298042Y-3353300D01*
X106298040Y-3353295D01*
X106166928Y-3126204D01*
X106166924Y-3126197D01*
X106007283Y-2918148D01*
X106007278Y-2918142D01*
X105821857Y-2732721D01*
X105821850Y-2732715D01*
X105613811Y-2573082D01*
X105613809Y-2573080D01*
X105613803Y-2573076D01*
X105613798Y-2573073D01*
X105613795Y-2573071D01*
X105386704Y-2441959D01*
X105386693Y-2441954D01*
X105176220Y-2354773D01*
X105144420Y-2341601D01*
X104891116Y-2273729D01*
X104847662Y-2268008D01*
X104631127Y-2239499D01*
X104631120Y-2239499D01*
X104368880Y-2239499D01*
X104368872Y-2239499D01*
X104121402Y-2272080D01*
X104108884Y-2273729D01*
X104024449Y-2296353D01*
X103855586Y-2341599D01*
X103855572Y-2341604D01*
X103613306Y-2441954D01*
X103613295Y-2441959D01*
X103386204Y-2573071D01*
X103386188Y-2573082D01*
X103178149Y-2732715D01*
X103178142Y-2732721D01*
X102992721Y-2918142D01*
X102992715Y-2918149D01*
X102833082Y-3126188D01*
X102833071Y-3126204D01*
X102701959Y-3353295D01*
X102701954Y-3353306D01*
X102601604Y-3595572D01*
X102601599Y-3595586D01*
X102533730Y-3848881D01*
X102533728Y-3848892D01*
X102499499Y-4108872D01*
X97236887Y-4108872D01*
X97271434Y-4074325D01*
X97317538Y-3969909D01*
X97320500Y-3944379D01*
X97320499Y-2253222D01*
X97317538Y-2227691D01*
X97271434Y-2123275D01*
X97190725Y-2042566D01*
X97158635Y-2028397D01*
X97086310Y-1996462D01*
X97060779Y-1993500D01*
X95369628Y-1993500D01*
X95369605Y-1993502D01*
X95344093Y-1996461D01*
X95344090Y-1996462D01*
X95239675Y-2042565D01*
X95158966Y-2123274D01*
X95112862Y-2227688D01*
X95112862Y-2227690D01*
X95109900Y-2253219D01*
X88650632Y-2253219D01*
X88650632Y-2253216D01*
X88647671Y-2227693D01*
X88647671Y-2227691D01*
X88601567Y-2123275D01*
X88520858Y-2042566D01*
X88488768Y-2028397D01*
X88416443Y-1996462D01*
X88390912Y-1993500D01*
X86699761Y-1993500D01*
X86699738Y-1993502D01*
X86674226Y-1996461D01*
X86674223Y-1996462D01*
X86569808Y-2042565D01*
X86489099Y-2123274D01*
X86442995Y-2227688D01*
X86442995Y-2227690D01*
X86440033Y-2253219D01*
X79980766Y-2253219D01*
X79980766Y-2253216D01*
X79977805Y-2227693D01*
X79977805Y-2227691D01*
X79931701Y-2123275D01*
X79850992Y-2042566D01*
X79818902Y-2028397D01*
X79746577Y-1996462D01*
X79721047Y-1993500D01*
X79721046Y-1993500D01*
X79319589Y-1993500D01*
X79290148Y-1984855D01*
X79260162Y-1978332D01*
X79255146Y-1974577D01*
X79252550Y-1973815D01*
X79231908Y-1957181D01*
X79187693Y-1912966D01*
X77986909Y-712181D01*
X77953424Y-650858D01*
X77958408Y-581166D01*
X78000280Y-525233D01*
X78065744Y-500816D01*
X78074590Y-500500D01*
X107832300Y-500500D01*
X107899339Y-520185D01*
X107945094Y-572989D01*
X107956300Y-624500D01*
X107956300Y-43915500D01*
X107936615Y-43982539D01*
X107883811Y-44028294D01*
X107832300Y-44039500D01*
X624552Y-44039500D01*
X557513Y-44019815D01*
X511758Y-43967011D01*
X500552Y-43915500D01*
X500552Y-39693662D01*
X1182368Y-39693662D01*
X1182368Y-39930601D01*
X1219434Y-40164627D01*
X1292648Y-40389961D01*
X1292650Y-40389967D01*
X1400222Y-40601084D01*
X1539483Y-40792762D01*
X1539487Y-40792767D01*
X1707032Y-40960312D01*
X1707037Y-40960316D01*
X1874229Y-41081787D01*
X1898719Y-41099580D01*
X2006238Y-41154364D01*
X2109832Y-41207149D01*
X2109838Y-41207151D01*
X2335173Y-41280365D01*
X2335176Y-41280366D01*
X2569198Y-41317432D01*
X2569199Y-41317432D01*
X2806137Y-41317432D01*
X2806138Y-41317432D01*
X3040160Y-41280366D01*
X3265503Y-41207149D01*
X3369099Y-41154363D01*
X3437766Y-41141467D01*
X3502506Y-41167742D01*
X3542764Y-41224848D01*
X3545758Y-41294654D01*
X3525712Y-41337732D01*
X3444097Y-41450067D01*
X3340192Y-41653988D01*
X3340190Y-41653994D01*
X3269471Y-41871649D01*
X3233668Y-42097699D01*
X3233668Y-42326564D01*
X3269471Y-42552614D01*
X3340190Y-42770269D01*
X3340194Y-42770280D01*
X3444092Y-42974187D01*
X3444099Y-42974198D01*
X3457769Y-42993015D01*
X3457771Y-42993015D01*
X4002919Y-42447867D01*
X4013611Y-42473678D01*
X4123049Y-42637463D01*
X4262337Y-42776751D01*
X4426122Y-42886189D01*
X4451930Y-42896879D01*
X3906782Y-43442028D01*
X3925606Y-43455703D01*
X4129519Y-43559605D01*
X4129530Y-43559609D01*
X4347186Y-43630328D01*
X4347185Y-43630328D01*
X4573236Y-43666132D01*
X4802100Y-43666132D01*
X5028150Y-43630328D01*
X5245805Y-43559609D01*
X5245811Y-43559607D01*
X5449733Y-43455701D01*
X5634886Y-43321180D01*
X5634892Y-43321176D01*
X5648979Y-43307089D01*
X5703427Y-43252639D01*
X5703427Y-43252638D01*
X5347667Y-42896879D01*
X5373478Y-42886189D01*
X5537263Y-42776751D01*
X5676551Y-42637463D01*
X5785989Y-42473678D01*
X5796679Y-42447867D01*
X6152438Y-42803627D01*
X6152440Y-42803627D01*
X6220976Y-42735091D01*
X6355504Y-42549930D01*
X6393899Y-42474578D01*
X6459406Y-42346011D01*
X6459409Y-42346005D01*
X6530128Y-42128350D01*
X6565932Y-41902299D01*
X6565932Y-41673435D01*
X6530128Y-41447385D01*
X6509410Y-41383618D01*
X6498543Y-41350173D01*
X11503200Y-41350173D01*
X11503200Y-41555426D01*
X11535309Y-41758154D01*
X11598737Y-41953366D01*
X11686121Y-42124864D01*
X12139930Y-41671055D01*
X12186868Y-41784374D01*
X12263474Y-41899024D01*
X12360976Y-41996526D01*
X12475626Y-42073132D01*
X12588942Y-42120068D01*
X12135134Y-42573877D01*
X12306633Y-42661262D01*
X12501845Y-42724690D01*
X12704574Y-42756800D01*
X12909826Y-42756800D01*
X13112554Y-42724690D01*
X13307760Y-42661263D01*
X13479264Y-42573877D01*
X13025457Y-42120068D01*
X13138774Y-42073132D01*
X13253424Y-41996526D01*
X13350926Y-41899024D01*
X13427532Y-41784374D01*
X13474469Y-41671056D01*
X13928277Y-42124864D01*
X14015663Y-41953360D01*
X14079090Y-41758154D01*
X14111200Y-41555426D01*
X14111200Y-41350173D01*
X27733200Y-41350173D01*
X27733200Y-41555426D01*
X27765309Y-41758154D01*
X27828737Y-41953366D01*
X27916121Y-42124864D01*
X28369930Y-41671055D01*
X28416868Y-41784374D01*
X28493474Y-41899024D01*
X28590976Y-41996526D01*
X28705626Y-42073132D01*
X28818942Y-42120068D01*
X28365134Y-42573877D01*
X28536633Y-42661262D01*
X28731845Y-42724690D01*
X28934574Y-42756800D01*
X29139826Y-42756800D01*
X29342554Y-42724690D01*
X29537760Y-42661263D01*
X29709264Y-42573877D01*
X29255457Y-42120068D01*
X29368774Y-42073132D01*
X29483424Y-41996526D01*
X29580926Y-41899024D01*
X29657532Y-41784374D01*
X29704469Y-41671056D01*
X30158277Y-42124864D01*
X30245663Y-41953360D01*
X30309090Y-41758154D01*
X30341200Y-41555426D01*
X30341200Y-41350173D01*
X33503200Y-41350173D01*
X33503200Y-41555426D01*
X33535309Y-41758154D01*
X33598737Y-41953366D01*
X33686121Y-42124864D01*
X34139930Y-41671055D01*
X34186868Y-41784374D01*
X34263474Y-41899024D01*
X34360976Y-41996526D01*
X34475626Y-42073132D01*
X34588942Y-42120068D01*
X34135134Y-42573877D01*
X34306633Y-42661262D01*
X34501845Y-42724690D01*
X34704574Y-42756800D01*
X34909826Y-42756800D01*
X35112554Y-42724690D01*
X35307760Y-42661263D01*
X35479264Y-42573877D01*
X35025457Y-42120068D01*
X35138774Y-42073132D01*
X35253424Y-41996526D01*
X35350926Y-41899024D01*
X35427532Y-41784374D01*
X35474469Y-41671056D01*
X35928277Y-42124864D01*
X36015663Y-41953360D01*
X36079090Y-41758154D01*
X36111200Y-41555426D01*
X36111200Y-41350173D01*
X49733200Y-41350173D01*
X49733200Y-41555426D01*
X49765309Y-41758154D01*
X49828737Y-41953366D01*
X49916121Y-42124864D01*
X50369930Y-41671055D01*
X50416868Y-41784374D01*
X50493474Y-41899024D01*
X50590976Y-41996526D01*
X50705626Y-42073132D01*
X50818942Y-42120068D01*
X50365134Y-42573877D01*
X50536633Y-42661262D01*
X50731845Y-42724690D01*
X50934574Y-42756800D01*
X51139826Y-42756800D01*
X51342554Y-42724690D01*
X51537760Y-42661263D01*
X51709264Y-42573877D01*
X51255457Y-42120068D01*
X51368774Y-42073132D01*
X51483424Y-41996526D01*
X51580926Y-41899024D01*
X51657532Y-41784374D01*
X51704469Y-41671056D01*
X52158277Y-42124864D01*
X52245663Y-41953360D01*
X52309090Y-41758154D01*
X52341200Y-41555426D01*
X52341200Y-41350173D01*
X55503200Y-41350173D01*
X55503200Y-41555426D01*
X55535309Y-41758154D01*
X55598737Y-41953366D01*
X55686121Y-42124864D01*
X56139930Y-41671055D01*
X56186868Y-41784374D01*
X56263474Y-41899024D01*
X56360976Y-41996526D01*
X56475626Y-42073132D01*
X56588942Y-42120068D01*
X56135134Y-42573877D01*
X56306633Y-42661262D01*
X56501845Y-42724690D01*
X56704574Y-42756800D01*
X56909826Y-42756800D01*
X57112554Y-42724690D01*
X57307760Y-42661263D01*
X57479264Y-42573877D01*
X57025457Y-42120068D01*
X57138774Y-42073132D01*
X57253424Y-41996526D01*
X57350926Y-41899024D01*
X57427532Y-41784374D01*
X57474469Y-41671056D01*
X57928277Y-42124864D01*
X58015663Y-41953360D01*
X58079090Y-41758154D01*
X58111200Y-41555426D01*
X58111200Y-41350173D01*
X71733200Y-41350173D01*
X71733200Y-41555426D01*
X71765309Y-41758154D01*
X71828737Y-41953366D01*
X71916121Y-42124864D01*
X72369930Y-41671055D01*
X72416868Y-41784374D01*
X72493474Y-41899024D01*
X72590976Y-41996526D01*
X72705626Y-42073132D01*
X72818942Y-42120068D01*
X72365134Y-42573877D01*
X72536633Y-42661262D01*
X72731845Y-42724690D01*
X72934574Y-42756800D01*
X73139826Y-42756800D01*
X73342554Y-42724690D01*
X73537760Y-42661263D01*
X73709264Y-42573877D01*
X73255457Y-42120068D01*
X73368774Y-42073132D01*
X73483424Y-41996526D01*
X73580926Y-41899024D01*
X73657532Y-41784374D01*
X73704469Y-41671056D01*
X74158277Y-42124864D01*
X74245663Y-41953360D01*
X74309090Y-41758154D01*
X74341200Y-41555426D01*
X74341200Y-41350173D01*
X77503200Y-41350173D01*
X77503200Y-41555426D01*
X77535309Y-41758154D01*
X77598737Y-41953366D01*
X77686121Y-42124864D01*
X78139930Y-41671055D01*
X78186868Y-41784374D01*
X78263474Y-41899024D01*
X78360976Y-41996526D01*
X78475626Y-42073132D01*
X78588942Y-42120068D01*
X78135134Y-42573877D01*
X78306633Y-42661262D01*
X78501845Y-42724690D01*
X78704574Y-42756800D01*
X78909826Y-42756800D01*
X79112554Y-42724690D01*
X79307760Y-42661263D01*
X79479264Y-42573877D01*
X79025457Y-42120068D01*
X79138774Y-42073132D01*
X79253424Y-41996526D01*
X79350926Y-41899024D01*
X79427532Y-41784374D01*
X79474469Y-41671056D01*
X79928277Y-42124864D01*
X80015663Y-41953360D01*
X80079090Y-41758154D01*
X80111200Y-41555426D01*
X80111200Y-41350173D01*
X93733200Y-41350173D01*
X93733200Y-41555426D01*
X93765309Y-41758154D01*
X93828737Y-41953366D01*
X93916121Y-42124864D01*
X94369930Y-41671055D01*
X94416868Y-41784374D01*
X94493474Y-41899024D01*
X94590976Y-41996526D01*
X94705626Y-42073132D01*
X94818942Y-42120068D01*
X94365134Y-42573877D01*
X94536633Y-42661262D01*
X94731845Y-42724690D01*
X94934574Y-42756800D01*
X95139826Y-42756800D01*
X95342554Y-42724690D01*
X95537760Y-42661263D01*
X95709264Y-42573877D01*
X95255457Y-42120068D01*
X95368774Y-42073132D01*
X95483424Y-41996526D01*
X95580926Y-41899024D01*
X95657532Y-41784374D01*
X95704469Y-41671056D01*
X96158277Y-42124864D01*
X96245663Y-41953360D01*
X96309090Y-41758154D01*
X96341200Y-41555426D01*
X96341200Y-41350173D01*
X96309090Y-41147445D01*
X96245662Y-40952233D01*
X96158277Y-40780734D01*
X95704468Y-41234542D01*
X95657532Y-41121226D01*
X95580926Y-41006576D01*
X95483424Y-40909074D01*
X95368774Y-40832468D01*
X95255456Y-40785530D01*
X95709264Y-40331721D01*
X95537766Y-40244337D01*
X95342554Y-40180909D01*
X95139826Y-40148800D01*
X94934574Y-40148800D01*
X94731844Y-40180909D01*
X94731841Y-40180909D01*
X94536640Y-40244334D01*
X94365134Y-40331721D01*
X94818943Y-40785530D01*
X94705626Y-40832468D01*
X94590976Y-40909074D01*
X94493474Y-41006576D01*
X94416868Y-41121226D01*
X94369930Y-41234543D01*
X93916121Y-40780734D01*
X93828734Y-40952240D01*
X93765309Y-41147441D01*
X93765309Y-41147444D01*
X93733200Y-41350173D01*
X80111200Y-41350173D01*
X80079090Y-41147445D01*
X80015662Y-40952233D01*
X79928277Y-40780734D01*
X79474468Y-41234542D01*
X79427532Y-41121226D01*
X79350926Y-41006576D01*
X79253424Y-40909074D01*
X79138774Y-40832468D01*
X79025456Y-40785530D01*
X79479264Y-40331721D01*
X79307766Y-40244337D01*
X79112554Y-40180909D01*
X78909826Y-40148800D01*
X78704574Y-40148800D01*
X78501844Y-40180909D01*
X78501841Y-40180909D01*
X78306640Y-40244334D01*
X78135134Y-40331721D01*
X78588943Y-40785530D01*
X78475626Y-40832468D01*
X78360976Y-40909074D01*
X78263474Y-41006576D01*
X78186868Y-41121226D01*
X78139930Y-41234543D01*
X77686121Y-40780734D01*
X77598734Y-40952240D01*
X77535309Y-41147441D01*
X77535309Y-41147444D01*
X77503200Y-41350173D01*
X74341200Y-41350173D01*
X74309090Y-41147445D01*
X74245662Y-40952233D01*
X74158277Y-40780734D01*
X73704468Y-41234542D01*
X73657532Y-41121226D01*
X73580926Y-41006576D01*
X73483424Y-40909074D01*
X73368774Y-40832468D01*
X73255456Y-40785530D01*
X73709264Y-40331721D01*
X73537766Y-40244337D01*
X73342554Y-40180909D01*
X73139826Y-40148800D01*
X72934574Y-40148800D01*
X72731844Y-40180909D01*
X72731841Y-40180909D01*
X72536640Y-40244334D01*
X72365134Y-40331721D01*
X72818943Y-40785530D01*
X72705626Y-40832468D01*
X72590976Y-40909074D01*
X72493474Y-41006576D01*
X72416868Y-41121226D01*
X72369930Y-41234543D01*
X71916121Y-40780734D01*
X71828734Y-40952240D01*
X71765309Y-41147441D01*
X71765309Y-41147444D01*
X71733200Y-41350173D01*
X58111200Y-41350173D01*
X58079090Y-41147445D01*
X58015662Y-40952233D01*
X57928277Y-40780734D01*
X57474468Y-41234542D01*
X57427532Y-41121226D01*
X57350926Y-41006576D01*
X57253424Y-40909074D01*
X57138774Y-40832468D01*
X57025456Y-40785530D01*
X57479264Y-40331721D01*
X57307766Y-40244337D01*
X57112554Y-40180909D01*
X56909826Y-40148800D01*
X56704574Y-40148800D01*
X56501844Y-40180909D01*
X56501841Y-40180909D01*
X56306640Y-40244334D01*
X56135134Y-40331721D01*
X56588943Y-40785530D01*
X56475626Y-40832468D01*
X56360976Y-40909074D01*
X56263474Y-41006576D01*
X56186868Y-41121226D01*
X56139930Y-41234543D01*
X55686121Y-40780734D01*
X55598734Y-40952240D01*
X55535309Y-41147441D01*
X55535309Y-41147444D01*
X55503200Y-41350173D01*
X52341200Y-41350173D01*
X52309090Y-41147445D01*
X52245662Y-40952233D01*
X52158277Y-40780734D01*
X51704468Y-41234542D01*
X51657532Y-41121226D01*
X51580926Y-41006576D01*
X51483424Y-40909074D01*
X51368774Y-40832468D01*
X51255456Y-40785530D01*
X51709264Y-40331721D01*
X51537766Y-40244337D01*
X51342554Y-40180909D01*
X51139826Y-40148800D01*
X50934574Y-40148800D01*
X50731844Y-40180909D01*
X50731841Y-40180909D01*
X50536640Y-40244334D01*
X50365134Y-40331721D01*
X50818943Y-40785530D01*
X50705626Y-40832468D01*
X50590976Y-40909074D01*
X50493474Y-41006576D01*
X50416868Y-41121226D01*
X50369930Y-41234543D01*
X49916121Y-40780734D01*
X49828734Y-40952240D01*
X49765309Y-41147441D01*
X49765309Y-41147444D01*
X49733200Y-41350173D01*
X36111200Y-41350173D01*
X36079090Y-41147445D01*
X36015662Y-40952233D01*
X35928277Y-40780734D01*
X35474468Y-41234542D01*
X35427532Y-41121226D01*
X35350926Y-41006576D01*
X35253424Y-40909074D01*
X35138774Y-40832468D01*
X35025456Y-40785530D01*
X35479264Y-40331721D01*
X35307766Y-40244337D01*
X35112554Y-40180909D01*
X34909826Y-40148800D01*
X34704574Y-40148800D01*
X34501844Y-40180909D01*
X34501841Y-40180909D01*
X34306640Y-40244334D01*
X34135134Y-40331721D01*
X34588943Y-40785530D01*
X34475626Y-40832468D01*
X34360976Y-40909074D01*
X34263474Y-41006576D01*
X34186868Y-41121226D01*
X34139930Y-41234543D01*
X33686121Y-40780734D01*
X33598734Y-40952240D01*
X33535309Y-41147441D01*
X33535309Y-41147444D01*
X33503200Y-41350173D01*
X30341200Y-41350173D01*
X30309090Y-41147445D01*
X30245662Y-40952233D01*
X30158277Y-40780734D01*
X29704468Y-41234542D01*
X29657532Y-41121226D01*
X29580926Y-41006576D01*
X29483424Y-40909074D01*
X29368774Y-40832468D01*
X29255456Y-40785530D01*
X29709264Y-40331721D01*
X29537766Y-40244337D01*
X29342554Y-40180909D01*
X29139826Y-40148800D01*
X28934574Y-40148800D01*
X28731844Y-40180909D01*
X28731841Y-40180909D01*
X28536640Y-40244334D01*
X28365134Y-40331721D01*
X28818943Y-40785530D01*
X28705626Y-40832468D01*
X28590976Y-40909074D01*
X28493474Y-41006576D01*
X28416868Y-41121226D01*
X28369930Y-41234543D01*
X27916121Y-40780734D01*
X27828734Y-40952240D01*
X27765309Y-41147441D01*
X27765309Y-41147444D01*
X27733200Y-41350173D01*
X14111200Y-41350173D01*
X14079090Y-41147445D01*
X14015662Y-40952233D01*
X13928277Y-40780734D01*
X13474468Y-41234542D01*
X13427532Y-41121226D01*
X13350926Y-41006576D01*
X13253424Y-40909074D01*
X13138774Y-40832468D01*
X13025456Y-40785530D01*
X13479264Y-40331721D01*
X13307766Y-40244337D01*
X13112554Y-40180909D01*
X12909826Y-40148800D01*
X12704574Y-40148800D01*
X12501844Y-40180909D01*
X12501841Y-40180909D01*
X12306640Y-40244334D01*
X12135134Y-40331721D01*
X12588943Y-40785530D01*
X12475626Y-40832468D01*
X12360976Y-40909074D01*
X12263474Y-41006576D01*
X12186868Y-41121226D01*
X12139930Y-41234543D01*
X11686121Y-40780734D01*
X11598734Y-40952240D01*
X11535309Y-41147441D01*
X11535309Y-41147444D01*
X11503200Y-41350173D01*
X6498543Y-41350173D01*
X6459408Y-41229727D01*
X6459407Y-41229724D01*
X6355505Y-41025806D01*
X6341828Y-41006983D01*
X6341828Y-41006982D01*
X5796679Y-41552130D01*
X5785989Y-41526322D01*
X5676551Y-41362537D01*
X5537263Y-41223249D01*
X5373478Y-41113811D01*
X5347667Y-41103119D01*
X5892816Y-40557970D01*
X5873994Y-40544295D01*
X5758035Y-40485211D01*
X5670075Y-40440392D01*
X5670069Y-40440390D01*
X5452413Y-40369671D01*
X5452414Y-40369671D01*
X5226364Y-40333868D01*
X4997501Y-40333868D01*
X4771449Y-40369671D01*
X4553794Y-40440390D01*
X4553782Y-40440395D01*
X4464764Y-40485752D01*
X4396095Y-40498648D01*
X4331355Y-40472371D01*
X4291098Y-40415264D01*
X4288106Y-40345459D01*
X4308150Y-40302383D01*
X4399380Y-40176817D01*
X4506949Y-39965703D01*
X4580166Y-39740360D01*
X4581949Y-39729101D01*
X4598749Y-39693662D01*
X100182368Y-39693662D01*
X100182368Y-39930601D01*
X100219434Y-40164627D01*
X100292648Y-40389961D01*
X100292650Y-40389967D01*
X100400222Y-40601084D01*
X100539483Y-40792762D01*
X100539487Y-40792767D01*
X100707032Y-40960312D01*
X100707037Y-40960316D01*
X100874229Y-41081787D01*
X100898719Y-41099580D01*
X101006238Y-41154364D01*
X101109832Y-41207149D01*
X101109838Y-41207151D01*
X101335173Y-41280365D01*
X101335176Y-41280366D01*
X101569198Y-41317432D01*
X101569199Y-41317432D01*
X101806137Y-41317432D01*
X101806138Y-41317432D01*
X102040160Y-41280366D01*
X102265503Y-41207149D01*
X102369099Y-41154363D01*
X102437766Y-41141467D01*
X102502506Y-41167742D01*
X102542764Y-41224848D01*
X102545758Y-41294654D01*
X102525712Y-41337732D01*
X102444097Y-41450067D01*
X102340192Y-41653988D01*
X102340190Y-41653994D01*
X102269471Y-41871649D01*
X102233668Y-42097699D01*
X102233668Y-42326564D01*
X102269471Y-42552614D01*
X102340190Y-42770269D01*
X102340194Y-42770280D01*
X102444092Y-42974187D01*
X102444099Y-42974198D01*
X102457769Y-42993015D01*
X102457771Y-42993015D01*
X103002919Y-42447867D01*
X103013611Y-42473678D01*
X103123049Y-42637463D01*
X103262337Y-42776751D01*
X103426122Y-42886189D01*
X103451930Y-42896879D01*
X102906782Y-43442028D01*
X102925606Y-43455703D01*
X103129519Y-43559605D01*
X103129530Y-43559609D01*
X103347186Y-43630328D01*
X103347185Y-43630328D01*
X103573236Y-43666132D01*
X103802100Y-43666132D01*
X104028150Y-43630328D01*
X104245805Y-43559609D01*
X104245811Y-43559607D01*
X104449733Y-43455701D01*
X104634886Y-43321180D01*
X104634891Y-43321176D01*
X104703427Y-43252639D01*
X104703427Y-43252638D01*
X104347667Y-42896879D01*
X104373478Y-42886189D01*
X104537263Y-42776751D01*
X104676551Y-42637463D01*
X104785989Y-42473678D01*
X104796679Y-42447867D01*
X105152438Y-42803627D01*
X105152440Y-42803627D01*
X105220976Y-42735091D01*
X105355504Y-42549930D01*
X105459407Y-42346011D01*
X105459409Y-42346005D01*
X105530128Y-42128350D01*
X105565932Y-41902299D01*
X105565932Y-41673435D01*
X105530128Y-41447385D01*
X105459409Y-41229730D01*
X105459407Y-41229724D01*
X105355505Y-41025806D01*
X105341828Y-41006983D01*
X105341828Y-41006982D01*
X104796679Y-41552131D01*
X104785989Y-41526322D01*
X104676551Y-41362537D01*
X104537263Y-41223249D01*
X104373478Y-41113811D01*
X104347667Y-41103119D01*
X104892816Y-40557970D01*
X104873994Y-40544295D01*
X104670075Y-40440392D01*
X104670069Y-40440390D01*
X104452413Y-40369671D01*
X104452414Y-40369671D01*
X104226364Y-40333868D01*
X103997501Y-40333868D01*
X103771449Y-40369671D01*
X103553794Y-40440390D01*
X103553782Y-40440395D01*
X103464764Y-40485752D01*
X103396095Y-40498648D01*
X103331355Y-40472371D01*
X103291098Y-40415264D01*
X103288106Y-40345459D01*
X103308150Y-40302383D01*
X103399380Y-40176817D01*
X103506949Y-39965703D01*
X103580166Y-39740360D01*
X103617232Y-39506338D01*
X103617232Y-39269398D01*
X103580166Y-39035376D01*
X103580165Y-39035372D01*
X103506951Y-38810038D01*
X103506949Y-38810032D01*
X103452139Y-38702463D01*
X103399380Y-38598918D01*
X103260111Y-38407231D01*
X103092569Y-38239689D01*
X102900882Y-38100420D01*
X102689767Y-37992850D01*
X102689761Y-37992848D01*
X102464426Y-37919634D01*
X102464427Y-37919634D01*
X102288907Y-37891834D01*
X102230402Y-37882568D01*
X101993462Y-37882568D01*
X101946657Y-37889981D01*
X101759436Y-37919634D01*
X101534102Y-37992848D01*
X101534096Y-37992850D01*
X101322979Y-38100422D01*
X101131301Y-38239683D01*
X101131296Y-38239687D01*
X100539487Y-38831496D01*
X100539483Y-38831501D01*
X100400222Y-39023179D01*
X100292650Y-39234296D01*
X100292648Y-39234302D01*
X100219434Y-39459636D01*
X100182368Y-39693662D01*
X4598749Y-39693662D01*
X4611877Y-39665969D01*
X4671188Y-39629037D01*
X4704422Y-39624500D01*
X6721743Y-39624500D01*
X6721745Y-39624500D01*
X6851074Y-39589847D01*
X6967027Y-39522901D01*
X9296901Y-37193027D01*
X9363847Y-37077074D01*
X9380106Y-37016392D01*
X9398500Y-36947745D01*
X9398500Y-34996130D01*
X11451900Y-34996130D01*
X11451900Y-35209469D01*
X11485272Y-35420168D01*
X11551192Y-35623052D01*
X11599412Y-35717688D01*
X11648043Y-35813132D01*
X11773435Y-35985719D01*
X11924281Y-36136565D01*
X12096868Y-36261957D01*
X12286945Y-36358806D01*
X12286947Y-36358807D01*
X12388389Y-36391767D01*
X12489833Y-36424728D01*
X12587418Y-36440184D01*
X12700531Y-36458100D01*
X12700536Y-36458100D01*
X12913869Y-36458100D01*
X13016013Y-36441921D01*
X13124567Y-36424728D01*
X13327455Y-36358806D01*
X13517532Y-36261957D01*
X13690119Y-36136565D01*
X13840965Y-35985719D01*
X13966357Y-35813132D01*
X14021756Y-35704404D01*
X14069731Y-35653609D01*
X14132241Y-35636700D01*
X14878361Y-35636700D01*
X14945400Y-35656385D01*
X14991155Y-35709189D01*
X14992922Y-35713246D01*
X14998347Y-35726343D01*
X15064173Y-35840357D01*
X15113486Y-35904622D01*
X15206578Y-35997714D01*
X15270843Y-36047027D01*
X15384857Y-36112853D01*
X15384862Y-36112855D01*
X15384868Y-36112858D01*
X15459686Y-36143848D01*
X15459688Y-36143848D01*
X15459694Y-36143851D01*
X15586861Y-36177926D01*
X15667174Y-36188500D01*
X16232994Y-36188500D01*
X16233000Y-36188500D01*
X16261631Y-36187176D01*
X16371313Y-36155969D01*
X16462314Y-36087248D01*
X16522346Y-35990293D01*
X16543300Y-35878200D01*
X16543300Y-34378200D01*
X16541976Y-34349569D01*
X16510769Y-34239887D01*
X16510768Y-34239886D01*
X16510768Y-34239885D01*
X16442048Y-34148886D01*
X16345093Y-34088854D01*
X16335972Y-34087149D01*
X16233000Y-34067900D01*
X15667174Y-34067900D01*
X15586868Y-34078473D01*
X15586861Y-34078474D01*
X15459686Y-34112551D01*
X15384868Y-34143541D01*
X15384854Y-34143548D01*
X15270849Y-34209369D01*
X15270840Y-34209375D01*
X15206575Y-34258688D01*
X15113488Y-34351775D01*
X15064175Y-34416040D01*
X15064169Y-34416049D01*
X14998348Y-34530054D01*
X14998346Y-34530058D01*
X14992922Y-34543154D01*
X14949080Y-34597557D01*
X14882786Y-34619621D01*
X14878361Y-34619700D01*
X14158125Y-34619700D01*
X14091086Y-34600015D01*
X14047640Y-34551995D01*
X14036590Y-34530308D01*
X13966357Y-34392468D01*
X13840965Y-34219881D01*
X13690119Y-34069035D01*
X13517532Y-33943643D01*
X13517530Y-33943642D01*
X13327452Y-33846792D01*
X13124568Y-33780872D01*
X12913869Y-33747500D01*
X12913864Y-33747500D01*
X12700536Y-33747500D01*
X12700531Y-33747500D01*
X12489831Y-33780872D01*
X12286947Y-33846792D01*
X12096867Y-33943643D01*
X12038976Y-33985704D01*
X11924281Y-34069035D01*
X11924279Y-34069037D01*
X11924278Y-34069037D01*
X11773437Y-34219878D01*
X11773437Y-34219879D01*
X11773435Y-34219881D01*
X11745240Y-34258688D01*
X11648043Y-34392467D01*
X11551192Y-34582547D01*
X11485272Y-34785431D01*
X11451900Y-34996130D01*
X9398500Y-34996130D01*
X9398500Y-28646130D01*
X11451900Y-28646130D01*
X11451900Y-28859469D01*
X11485272Y-29070168D01*
X11551192Y-29273052D01*
X11615324Y-29398917D01*
X11648043Y-29463132D01*
X11773435Y-29635719D01*
X11924281Y-29786565D01*
X12096868Y-29911957D01*
X12286945Y-30008806D01*
X12286947Y-30008807D01*
X12365414Y-30034302D01*
X12489833Y-30074728D01*
X12587418Y-30090184D01*
X12700531Y-30108100D01*
X12700536Y-30108100D01*
X12913869Y-30108100D01*
X13016013Y-30091921D01*
X13124567Y-30074728D01*
X13327455Y-30008806D01*
X13517532Y-29911957D01*
X13690119Y-29786565D01*
X13840965Y-29635719D01*
X13966357Y-29463132D01*
X14034698Y-29329004D01*
X14082673Y-29278209D01*
X14145183Y-29261300D01*
X14929161Y-29261300D01*
X14996200Y-29280985D01*
X15041955Y-29333789D01*
X15043722Y-29337846D01*
X15049146Y-29350941D01*
X15049148Y-29350945D01*
X15101059Y-29440858D01*
X15114973Y-29464957D01*
X15164286Y-29529222D01*
X15257378Y-29622314D01*
X15321643Y-29671627D01*
X15435657Y-29737453D01*
X15435662Y-29737455D01*
X15435668Y-29737458D01*
X15510486Y-29768448D01*
X15510488Y-29768448D01*
X15510494Y-29768451D01*
X15637661Y-29802526D01*
X15717974Y-29813100D01*
X16283794Y-29813100D01*
X16283800Y-29813100D01*
X16312431Y-29811776D01*
X16422113Y-29780569D01*
X16513114Y-29711848D01*
X16573146Y-29614893D01*
X16594100Y-29502800D01*
X16594100Y-28002800D01*
X16592776Y-27974169D01*
X16561569Y-27864487D01*
X16561568Y-27864486D01*
X16561568Y-27864485D01*
X16492848Y-27773486D01*
X16395893Y-27713454D01*
X16283800Y-27692500D01*
X15717974Y-27692500D01*
X15637668Y-27703073D01*
X15637661Y-27703074D01*
X15510486Y-27737151D01*
X15435668Y-27768141D01*
X15435654Y-27768148D01*
X15321649Y-27833969D01*
X15321640Y-27833975D01*
X15257375Y-27883288D01*
X15164288Y-27976375D01*
X15114975Y-28040640D01*
X15114969Y-28040649D01*
X15049148Y-28154654D01*
X15049146Y-28154658D01*
X15043722Y-28167754D01*
X14999880Y-28222157D01*
X14933586Y-28244221D01*
X14929161Y-28244300D01*
X14145183Y-28244300D01*
X14078144Y-28224615D01*
X14034698Y-28176595D01*
X14030193Y-28167754D01*
X13966357Y-28042468D01*
X13840965Y-27869881D01*
X13690119Y-27719035D01*
X13517532Y-27593643D01*
X13350412Y-27508491D01*
X13327452Y-27496792D01*
X13124568Y-27430872D01*
X12913869Y-27397500D01*
X12913864Y-27397500D01*
X12700536Y-27397500D01*
X12700531Y-27397500D01*
X12489831Y-27430872D01*
X12286947Y-27496792D01*
X12096867Y-27593643D01*
X11998400Y-27665183D01*
X11924281Y-27719035D01*
X11924279Y-27719037D01*
X11924278Y-27719037D01*
X11773437Y-27869878D01*
X11773437Y-27869879D01*
X11773435Y-27869881D01*
X11762614Y-27884775D01*
X11648043Y-28042467D01*
X11551192Y-28232547D01*
X11485272Y-28435431D01*
X11451900Y-28646130D01*
X9398500Y-28646130D01*
X9398500Y-17782582D01*
X11491500Y-17782582D01*
X11491500Y-17980617D01*
X11530131Y-18174827D01*
X11530133Y-18174835D01*
X11605913Y-18357785D01*
X11605918Y-18357794D01*
X11715932Y-18522440D01*
X11715935Y-18522444D01*
X11855955Y-18662464D01*
X11855959Y-18662467D01*
X12020605Y-18772481D01*
X12020611Y-18772484D01*
X12020612Y-18772485D01*
X12203565Y-18848267D01*
X12337982Y-18875004D01*
X12397782Y-18886899D01*
X12397786Y-18886900D01*
X12397787Y-18886900D01*
X12595814Y-18886900D01*
X12610249Y-18884028D01*
X12686915Y-18868778D01*
X12756504Y-18875004D01*
X12798786Y-18902714D01*
X23055773Y-29159701D01*
X23138097Y-29207231D01*
X23171726Y-29226647D01*
X23301055Y-29261300D01*
X27699217Y-29261300D01*
X27766256Y-29280985D01*
X27809701Y-29329004D01*
X27878043Y-29463132D01*
X28003435Y-29635719D01*
X28154281Y-29786565D01*
X28326868Y-29911957D01*
X28516945Y-30008806D01*
X28516947Y-30008807D01*
X28595414Y-30034302D01*
X28719833Y-30074728D01*
X28817418Y-30090184D01*
X28930531Y-30108100D01*
X28930536Y-30108100D01*
X29143869Y-30108100D01*
X29246013Y-30091921D01*
X29354567Y-30074728D01*
X29557455Y-30008806D01*
X29747532Y-29911957D01*
X29920119Y-29786565D01*
X30070965Y-29635719D01*
X30196357Y-29463132D01*
X30293206Y-29273055D01*
X30359128Y-29070167D01*
X30386013Y-28900422D01*
X30392500Y-28859469D01*
X30392500Y-28646130D01*
X30373085Y-28523556D01*
X30359128Y-28435433D01*
X30305808Y-28271330D01*
X30293207Y-28232547D01*
X30260193Y-28167754D01*
X30196357Y-28042468D01*
X30070965Y-27869881D01*
X29920119Y-27719035D01*
X29747532Y-27593643D01*
X29580412Y-27508491D01*
X29557452Y-27496792D01*
X29354568Y-27430872D01*
X29143869Y-27397500D01*
X29143864Y-27397500D01*
X28930536Y-27397500D01*
X28930531Y-27397500D01*
X28719831Y-27430872D01*
X28516947Y-27496792D01*
X28326867Y-27593643D01*
X28228400Y-27665183D01*
X28154281Y-27719035D01*
X28154279Y-27719037D01*
X28154278Y-27719037D01*
X28003437Y-27869878D01*
X28003437Y-27869879D01*
X28003435Y-27869881D01*
X27992614Y-27884775D01*
X27878043Y-28042467D01*
X27809702Y-28176595D01*
X27761727Y-28227391D01*
X27699217Y-28244300D01*
X23629990Y-28244300D01*
X23562951Y-28224615D01*
X23542309Y-28207981D01*
X13517914Y-18183586D01*
X13484429Y-18122263D01*
X13483978Y-18071717D01*
X13502100Y-17980613D01*
X13502100Y-17833382D01*
X20051300Y-17833382D01*
X20051300Y-18031417D01*
X20089931Y-18225627D01*
X20089933Y-18225635D01*
X20165713Y-18408585D01*
X20165718Y-18408594D01*
X20275732Y-18573240D01*
X20275735Y-18573244D01*
X20415755Y-18713264D01*
X20415759Y-18713267D01*
X20580405Y-18823281D01*
X20580414Y-18823286D01*
X20611350Y-18836100D01*
X20763365Y-18899067D01*
X20957582Y-18937699D01*
X20957586Y-18937700D01*
X20957587Y-18937700D01*
X21155614Y-18937700D01*
X21155615Y-18937699D01*
X21349835Y-18899067D01*
X21532788Y-18823285D01*
X21697441Y-18713267D01*
X21837467Y-18573241D01*
X21889072Y-18496008D01*
X21942684Y-18451204D01*
X21992174Y-18440900D01*
X23436210Y-18440900D01*
X23503249Y-18460585D01*
X23523891Y-18477219D01*
X31535381Y-26488709D01*
X31568866Y-26550032D01*
X31571700Y-26576390D01*
X31571700Y-31742009D01*
X31552015Y-31809048D01*
X31535381Y-31829690D01*
X29581616Y-33783454D01*
X29520293Y-33816939D01*
X29455618Y-33813704D01*
X29354569Y-33780872D01*
X29354570Y-33780872D01*
X29143869Y-33747500D01*
X29143864Y-33747500D01*
X28930536Y-33747500D01*
X28930531Y-33747500D01*
X28719831Y-33780872D01*
X28516947Y-33846792D01*
X28326867Y-33943643D01*
X28268976Y-33985704D01*
X28154281Y-34069035D01*
X28154279Y-34069037D01*
X28154278Y-34069037D01*
X28003437Y-34219878D01*
X28003437Y-34219879D01*
X28003435Y-34219881D01*
X27975240Y-34258688D01*
X27878043Y-34392467D01*
X27781192Y-34582547D01*
X27715272Y-34785431D01*
X27681900Y-34996130D01*
X27681900Y-35209469D01*
X27715272Y-35420168D01*
X27781192Y-35623052D01*
X27829412Y-35717688D01*
X27878043Y-35813132D01*
X28003435Y-35985719D01*
X28154281Y-36136565D01*
X28326868Y-36261957D01*
X28516945Y-36358806D01*
X28516947Y-36358807D01*
X28618389Y-36391767D01*
X28719833Y-36424728D01*
X28817418Y-36440184D01*
X28930531Y-36458100D01*
X28930536Y-36458100D01*
X29143869Y-36458100D01*
X29246013Y-36441921D01*
X29354567Y-36424728D01*
X29557455Y-36358806D01*
X29747532Y-36261957D01*
X29920119Y-36136565D01*
X30070965Y-35985719D01*
X30196357Y-35813132D01*
X30293206Y-35623055D01*
X30359128Y-35420167D01*
X30379307Y-35292762D01*
X30392500Y-35209469D01*
X30392500Y-34996130D01*
X33451900Y-34996130D01*
X33451900Y-35209469D01*
X33485272Y-35420168D01*
X33551192Y-35623052D01*
X33599412Y-35717688D01*
X33648043Y-35813132D01*
X33773435Y-35985719D01*
X33924281Y-36136565D01*
X34096868Y-36261957D01*
X34286945Y-36358806D01*
X34286947Y-36358807D01*
X34388389Y-36391767D01*
X34489833Y-36424728D01*
X34587418Y-36440184D01*
X34700531Y-36458100D01*
X34700536Y-36458100D01*
X34913869Y-36458100D01*
X35016013Y-36441921D01*
X35124567Y-36424728D01*
X35327455Y-36358806D01*
X35517532Y-36261957D01*
X35690119Y-36136565D01*
X35840965Y-35985719D01*
X35966357Y-35813132D01*
X36021756Y-35704404D01*
X36069731Y-35653609D01*
X36132241Y-35636700D01*
X37470265Y-35636700D01*
X37537304Y-35656385D01*
X37577652Y-35698700D01*
X37578947Y-35700943D01*
X37644773Y-35814957D01*
X37694086Y-35879222D01*
X37787178Y-35972314D01*
X37851443Y-36021627D01*
X37965457Y-36087453D01*
X37965462Y-36087455D01*
X37965468Y-36087458D01*
X38040286Y-36118448D01*
X38040288Y-36118448D01*
X38040294Y-36118451D01*
X38167461Y-36152526D01*
X38247774Y-36163100D01*
X38813594Y-36163100D01*
X38813600Y-36163100D01*
X38842231Y-36161776D01*
X38951913Y-36130569D01*
X39042914Y-36061848D01*
X39102946Y-35964893D01*
X39123900Y-35852800D01*
X39123900Y-34352800D01*
X39122576Y-34324169D01*
X39091369Y-34214487D01*
X39091368Y-34214486D01*
X39091368Y-34214485D01*
X39022648Y-34123486D01*
X38925693Y-34063454D01*
X38813600Y-34042500D01*
X38247774Y-34042500D01*
X38167468Y-34053073D01*
X38167461Y-34053074D01*
X38040286Y-34087151D01*
X37965468Y-34118141D01*
X37965454Y-34118148D01*
X37851449Y-34183969D01*
X37851440Y-34183975D01*
X37787175Y-34233288D01*
X37694088Y-34326375D01*
X37644775Y-34390640D01*
X37644769Y-34390649D01*
X37578948Y-34504654D01*
X37578943Y-34504663D01*
X37563001Y-34543153D01*
X37519160Y-34597556D01*
X37452866Y-34619621D01*
X37448440Y-34619700D01*
X36158125Y-34619700D01*
X36091086Y-34600015D01*
X36047640Y-34551995D01*
X36036590Y-34530308D01*
X35966357Y-34392468D01*
X35840965Y-34219881D01*
X35690119Y-34069035D01*
X35517532Y-33943643D01*
X35517530Y-33943642D01*
X35327452Y-33846792D01*
X35124568Y-33780872D01*
X34913869Y-33747500D01*
X34913864Y-33747500D01*
X34700536Y-33747500D01*
X34700531Y-33747500D01*
X34489831Y-33780872D01*
X34286947Y-33846792D01*
X34096867Y-33943643D01*
X34038976Y-33985704D01*
X33924281Y-34069035D01*
X33924279Y-34069037D01*
X33924278Y-34069037D01*
X33773437Y-34219878D01*
X33773437Y-34219879D01*
X33773435Y-34219881D01*
X33745240Y-34258688D01*
X33648043Y-34392467D01*
X33551192Y-34582547D01*
X33485272Y-34785431D01*
X33451900Y-34996130D01*
X30392500Y-34996130D01*
X30359128Y-34785432D01*
X30298926Y-34600149D01*
X30296931Y-34530308D01*
X30329174Y-34474152D01*
X32487101Y-32316226D01*
X32554047Y-32200274D01*
X32588700Y-32070945D01*
X32588700Y-31937055D01*
X32588700Y-28646130D01*
X33451900Y-28646130D01*
X33451900Y-28859469D01*
X33485272Y-29070168D01*
X33551192Y-29273052D01*
X33615324Y-29398917D01*
X33648043Y-29463132D01*
X33773435Y-29635719D01*
X33924281Y-29786565D01*
X34096868Y-29911957D01*
X34286945Y-30008806D01*
X34286947Y-30008807D01*
X34365414Y-30034302D01*
X34489833Y-30074728D01*
X34587418Y-30090184D01*
X34700531Y-30108100D01*
X34700536Y-30108100D01*
X34913869Y-30108100D01*
X35016013Y-30091921D01*
X35124567Y-30074728D01*
X35327455Y-30008806D01*
X35517532Y-29911957D01*
X35690119Y-29786565D01*
X35840965Y-29635719D01*
X35966357Y-29463132D01*
X36008814Y-29379804D01*
X36056788Y-29329009D01*
X36119299Y-29312100D01*
X37458961Y-29312100D01*
X37526000Y-29331785D01*
X37571755Y-29384589D01*
X37573522Y-29388646D01*
X37578947Y-29401743D01*
X37644773Y-29515757D01*
X37694086Y-29580022D01*
X37787178Y-29673114D01*
X37851443Y-29722427D01*
X37965457Y-29788253D01*
X37965462Y-29788255D01*
X37965468Y-29788258D01*
X38040286Y-29819248D01*
X38040288Y-29819248D01*
X38040294Y-29819251D01*
X38167461Y-29853326D01*
X38247774Y-29863900D01*
X38813594Y-29863900D01*
X38813600Y-29863900D01*
X38842231Y-29862576D01*
X38951913Y-29831369D01*
X39042914Y-29762648D01*
X39102946Y-29665693D01*
X39123900Y-29553600D01*
X39123900Y-28053600D01*
X39122576Y-28024969D01*
X39091369Y-27915287D01*
X39091368Y-27915286D01*
X39091368Y-27915285D01*
X39022648Y-27824286D01*
X38925693Y-27764254D01*
X38813600Y-27743300D01*
X38247774Y-27743300D01*
X38167468Y-27753873D01*
X38167461Y-27753874D01*
X38040286Y-27787951D01*
X37965468Y-27818941D01*
X37965454Y-27818948D01*
X37851449Y-27884769D01*
X37851440Y-27884775D01*
X37787175Y-27934088D01*
X37694088Y-28027175D01*
X37644775Y-28091440D01*
X37644769Y-28091449D01*
X37578948Y-28205454D01*
X37578946Y-28205458D01*
X37573522Y-28218554D01*
X37529680Y-28272957D01*
X37463386Y-28295021D01*
X37458961Y-28295100D01*
X36171067Y-28295100D01*
X36104028Y-28275415D01*
X36060582Y-28227395D01*
X36030193Y-28167754D01*
X35966357Y-28042468D01*
X35840965Y-27869881D01*
X35690119Y-27719035D01*
X35517532Y-27593643D01*
X35350412Y-27508491D01*
X35327452Y-27496792D01*
X35124568Y-27430872D01*
X34913869Y-27397500D01*
X34913864Y-27397500D01*
X34700536Y-27397500D01*
X34700531Y-27397500D01*
X34489831Y-27430872D01*
X34286947Y-27496792D01*
X34096867Y-27593643D01*
X33998400Y-27665183D01*
X33924281Y-27719035D01*
X33924279Y-27719037D01*
X33924278Y-27719037D01*
X33773437Y-27869878D01*
X33773437Y-27869879D01*
X33773435Y-27869881D01*
X33762614Y-27884775D01*
X33648043Y-28042467D01*
X33551192Y-28232547D01*
X33485272Y-28435431D01*
X33451900Y-28646130D01*
X32588700Y-28646130D01*
X32588700Y-26247455D01*
X32554047Y-26118126D01*
X32530040Y-26076545D01*
X32487101Y-26002173D01*
X24216710Y-17731782D01*
X28687300Y-17731782D01*
X28687300Y-17929817D01*
X28725931Y-18124027D01*
X28725933Y-18124035D01*
X28801713Y-18306985D01*
X28801718Y-18306994D01*
X28911732Y-18471640D01*
X28911735Y-18471644D01*
X29051755Y-18611664D01*
X29051759Y-18611667D01*
X29216405Y-18721681D01*
X29216414Y-18721686D01*
X29247350Y-18734500D01*
X29399365Y-18797467D01*
X29593582Y-18836099D01*
X29593586Y-18836100D01*
X29593587Y-18836100D01*
X29791614Y-18836100D01*
X29791615Y-18836099D01*
X29985835Y-18797467D01*
X30168788Y-18721685D01*
X30333441Y-18611667D01*
X30473467Y-18471641D01*
X30583485Y-18306988D01*
X30659267Y-18124035D01*
X30697900Y-17929813D01*
X30697900Y-17731787D01*
X30697841Y-17731491D01*
X30691396Y-17699086D01*
X30687795Y-17680982D01*
X37323300Y-17680982D01*
X37323300Y-17879017D01*
X37361931Y-18073227D01*
X37361933Y-18073235D01*
X37437713Y-18256185D01*
X37437718Y-18256194D01*
X37547732Y-18420840D01*
X37547735Y-18420844D01*
X37687756Y-18560865D01*
X37687759Y-18560867D01*
X37764991Y-18612471D01*
X37809795Y-18666082D01*
X37820100Y-18715573D01*
X37820100Y-22961144D01*
X37854753Y-23090475D01*
X37888226Y-23148450D01*
X37921699Y-23206427D01*
X43785440Y-29070168D01*
X49645581Y-34930308D01*
X49679066Y-34991631D01*
X49681900Y-35017989D01*
X49681900Y-35209469D01*
X49715272Y-35420168D01*
X49781192Y-35623052D01*
X49829412Y-35717688D01*
X49878043Y-35813132D01*
X50003435Y-35985719D01*
X50154281Y-36136565D01*
X50326868Y-36261957D01*
X50516945Y-36358806D01*
X50516947Y-36358807D01*
X50618389Y-36391767D01*
X50719833Y-36424728D01*
X50817418Y-36440184D01*
X50930531Y-36458100D01*
X50930536Y-36458100D01*
X51143869Y-36458100D01*
X51246013Y-36441921D01*
X51354567Y-36424728D01*
X51557455Y-36358806D01*
X51747532Y-36261957D01*
X51920119Y-36136565D01*
X52070965Y-35985719D01*
X52196357Y-35813132D01*
X52293206Y-35623055D01*
X52359128Y-35420167D01*
X52379307Y-35292762D01*
X52392500Y-35209469D01*
X52392500Y-34996130D01*
X55451900Y-34996130D01*
X55451900Y-35209469D01*
X55485272Y-35420168D01*
X55551192Y-35623052D01*
X55599412Y-35717688D01*
X55648043Y-35813132D01*
X55773435Y-35985719D01*
X55924281Y-36136565D01*
X56096868Y-36261957D01*
X56286945Y-36358806D01*
X56286947Y-36358807D01*
X56388389Y-36391767D01*
X56489833Y-36424728D01*
X56587418Y-36440184D01*
X56700531Y-36458100D01*
X56700536Y-36458100D01*
X56913869Y-36458100D01*
X57016013Y-36441921D01*
X57124567Y-36424728D01*
X57327455Y-36358806D01*
X57517532Y-36261957D01*
X57690119Y-36136565D01*
X57840965Y-35985719D01*
X57966357Y-35813132D01*
X58047640Y-35653604D01*
X58095615Y-35602809D01*
X58158125Y-35585900D01*
X59394040Y-35585900D01*
X59461079Y-35605585D01*
X59506834Y-35658389D01*
X59508601Y-35662447D01*
X59524543Y-35700936D01*
X59524548Y-35700945D01*
X59539212Y-35726343D01*
X59590373Y-35814957D01*
X59639686Y-35879222D01*
X59732778Y-35972314D01*
X59797043Y-36021627D01*
X59911057Y-36087453D01*
X59911062Y-36087455D01*
X59911068Y-36087458D01*
X59985886Y-36118448D01*
X59985888Y-36118448D01*
X59985894Y-36118451D01*
X60113061Y-36152526D01*
X60193374Y-36163100D01*
X60759194Y-36163100D01*
X60759200Y-36163100D01*
X60787831Y-36161776D01*
X60897513Y-36130569D01*
X60988514Y-36061848D01*
X61048546Y-35964893D01*
X61069500Y-35852800D01*
X61069500Y-34996130D01*
X71681900Y-34996130D01*
X71681900Y-35209469D01*
X71715272Y-35420168D01*
X71781192Y-35623052D01*
X71829412Y-35717688D01*
X71878043Y-35813132D01*
X72003435Y-35985719D01*
X72154281Y-36136565D01*
X72326868Y-36261957D01*
X72516945Y-36358806D01*
X72516947Y-36358807D01*
X72618389Y-36391767D01*
X72719833Y-36424728D01*
X72817418Y-36440184D01*
X72930531Y-36458100D01*
X72930536Y-36458100D01*
X73143869Y-36458100D01*
X73246013Y-36441921D01*
X73354567Y-36424728D01*
X73557455Y-36358806D01*
X73747532Y-36261957D01*
X73920119Y-36136565D01*
X74070965Y-35985719D01*
X74196357Y-35813132D01*
X74293206Y-35623055D01*
X74359128Y-35420167D01*
X74379307Y-35292762D01*
X74392500Y-35209469D01*
X74392500Y-34996130D01*
X77451900Y-34996130D01*
X77451900Y-35209469D01*
X77485272Y-35420168D01*
X77551192Y-35623052D01*
X77599412Y-35717688D01*
X77648043Y-35813132D01*
X77773435Y-35985719D01*
X77924281Y-36136565D01*
X78096868Y-36261957D01*
X78286945Y-36358806D01*
X78286947Y-36358807D01*
X78388389Y-36391767D01*
X78489833Y-36424728D01*
X78587418Y-36440184D01*
X78700531Y-36458100D01*
X78700536Y-36458100D01*
X78913869Y-36458100D01*
X79016013Y-36441921D01*
X79124567Y-36424728D01*
X79327455Y-36358806D01*
X79517532Y-36261957D01*
X79690119Y-36136565D01*
X79840965Y-35985719D01*
X79966357Y-35813132D01*
X80034698Y-35679004D01*
X80082673Y-35628209D01*
X80145183Y-35611300D01*
X81796840Y-35611300D01*
X81863879Y-35630985D01*
X81909634Y-35683789D01*
X81911401Y-35687847D01*
X81927343Y-35726336D01*
X81927346Y-35726341D01*
X81927347Y-35726343D01*
X81993173Y-35840357D01*
X82042486Y-35904622D01*
X82135578Y-35997714D01*
X82199843Y-36047027D01*
X82313857Y-36112853D01*
X82313862Y-36112855D01*
X82313868Y-36112858D01*
X82388686Y-36143848D01*
X82388688Y-36143848D01*
X82388694Y-36143851D01*
X82515861Y-36177926D01*
X82596174Y-36188500D01*
X83161994Y-36188500D01*
X83162000Y-36188500D01*
X83190631Y-36187176D01*
X83300313Y-36155969D01*
X83391314Y-36087248D01*
X83451346Y-35990293D01*
X83472300Y-35878200D01*
X83472300Y-34996130D01*
X93681900Y-34996130D01*
X93681900Y-35209469D01*
X93715272Y-35420168D01*
X93781192Y-35623052D01*
X93829412Y-35717688D01*
X93878043Y-35813132D01*
X94003435Y-35985719D01*
X94154281Y-36136565D01*
X94326868Y-36261957D01*
X94516945Y-36358806D01*
X94516947Y-36358807D01*
X94618389Y-36391767D01*
X94719833Y-36424728D01*
X94817418Y-36440184D01*
X94930531Y-36458100D01*
X94930536Y-36458100D01*
X95143869Y-36458100D01*
X95246013Y-36441921D01*
X95354567Y-36424728D01*
X95557455Y-36358806D01*
X95747532Y-36261957D01*
X95920119Y-36136565D01*
X96070965Y-35985719D01*
X96196357Y-35813132D01*
X96293206Y-35623055D01*
X96359128Y-35420167D01*
X96379307Y-35292762D01*
X96392500Y-35209469D01*
X96392500Y-34996130D01*
X96359128Y-34785434D01*
X96359128Y-34785433D01*
X96314963Y-34649509D01*
X96312969Y-34579670D01*
X96345212Y-34523514D01*
X96675064Y-34193662D01*
X100182368Y-34193662D01*
X100182368Y-34430601D01*
X100219434Y-34664627D01*
X100292648Y-34889961D01*
X100292650Y-34889967D01*
X100400222Y-35101084D01*
X100539483Y-35292762D01*
X100539487Y-35292767D01*
X100707032Y-35460312D01*
X100707037Y-35460316D01*
X100857177Y-35569398D01*
X100898719Y-35599580D01*
X101000629Y-35651506D01*
X101109832Y-35707149D01*
X101109838Y-35707151D01*
X101335173Y-35780365D01*
X101335176Y-35780366D01*
X101569198Y-35817432D01*
X101569199Y-35817432D01*
X101806137Y-35817432D01*
X101806138Y-35817432D01*
X102040160Y-35780366D01*
X102040173Y-35780361D01*
X102042648Y-35779768D01*
X102043627Y-35779816D01*
X102044972Y-35779604D01*
X102045016Y-35779886D01*
X102112430Y-35783254D01*
X102169251Y-35823914D01*
X102195068Y-35888839D01*
X102194076Y-35919737D01*
X102182368Y-35993661D01*
X102182368Y-36230601D01*
X102219434Y-36464627D01*
X102292648Y-36689961D01*
X102292650Y-36689967D01*
X102400222Y-36901084D01*
X102539483Y-37092762D01*
X102539487Y-37092767D01*
X102707032Y-37260312D01*
X102707037Y-37260316D01*
X102874229Y-37381787D01*
X102898719Y-37399580D01*
X103036724Y-37469898D01*
X103109832Y-37507149D01*
X103109838Y-37507151D01*
X103335173Y-37580365D01*
X103335176Y-37580366D01*
X103569198Y-37617432D01*
X103569199Y-37617432D01*
X103806137Y-37617432D01*
X103806138Y-37617432D01*
X104040160Y-37580366D01*
X104265503Y-37507149D01*
X104476617Y-37399580D01*
X104668305Y-37260311D01*
X105260111Y-36668505D01*
X105399380Y-36476817D01*
X105506949Y-36265703D01*
X105508167Y-36261956D01*
X105580165Y-36040363D01*
X105580164Y-36040363D01*
X105580166Y-36040360D01*
X105617232Y-35806338D01*
X105617232Y-35569398D01*
X105580166Y-35335376D01*
X105580165Y-35335372D01*
X105506951Y-35110038D01*
X105506949Y-35110032D01*
X105399379Y-34898917D01*
X105260111Y-34707231D01*
X105092569Y-34539689D01*
X104900882Y-34400420D01*
X104689767Y-34292850D01*
X104689761Y-34292848D01*
X104464426Y-34219634D01*
X104464427Y-34219634D01*
X104288907Y-34191834D01*
X104230402Y-34182568D01*
X103993462Y-34182568D01*
X103939212Y-34191160D01*
X103759443Y-34219633D01*
X103756932Y-34220236D01*
X103755949Y-34220186D01*
X103754628Y-34220396D01*
X103754584Y-34220118D01*
X103687150Y-34216738D01*
X103630336Y-34176069D01*
X103604529Y-34111140D01*
X103605522Y-34080265D01*
X103617232Y-34006338D01*
X103617232Y-33769398D01*
X103580166Y-33535376D01*
X103580165Y-33535372D01*
X103506951Y-33310038D01*
X103506949Y-33310032D01*
X103399379Y-33098917D01*
X103260111Y-32907231D01*
X103092569Y-32739689D01*
X102900882Y-32600420D01*
X102689767Y-32492850D01*
X102689761Y-32492848D01*
X102464426Y-32419634D01*
X102464427Y-32419634D01*
X102288907Y-32391834D01*
X102230402Y-32382568D01*
X101993462Y-32382568D01*
X101946657Y-32389981D01*
X101759436Y-32419634D01*
X101534102Y-32492848D01*
X101534096Y-32492850D01*
X101322979Y-32600422D01*
X101131301Y-32739683D01*
X101131296Y-32739687D01*
X100539487Y-33331496D01*
X100539483Y-33331501D01*
X100400222Y-33523179D01*
X100292650Y-33734296D01*
X100292648Y-33734302D01*
X100219434Y-33959636D01*
X100182368Y-34193662D01*
X96675064Y-34193662D01*
X98857301Y-32011427D01*
X98924247Y-31895474D01*
X98958900Y-31766145D01*
X98958900Y-30493662D01*
X102182368Y-30493662D01*
X102182368Y-30730601D01*
X102219434Y-30964627D01*
X102292648Y-31189961D01*
X102292650Y-31189967D01*
X102400222Y-31401084D01*
X102539483Y-31592762D01*
X102539487Y-31592767D01*
X102707032Y-31760312D01*
X102707037Y-31760316D01*
X102802523Y-31829690D01*
X102898719Y-31899580D01*
X103012214Y-31957409D01*
X103109832Y-32007149D01*
X103109838Y-32007151D01*
X103335173Y-32080365D01*
X103335176Y-32080366D01*
X103569198Y-32117432D01*
X103569199Y-32117432D01*
X103806137Y-32117432D01*
X103806138Y-32117432D01*
X104040160Y-32080366D01*
X104252330Y-32011429D01*
X104265497Y-32007151D01*
X104265503Y-32007149D01*
X104476617Y-31899580D01*
X104668305Y-31760311D01*
X105260111Y-31168505D01*
X105399380Y-30976817D01*
X105506949Y-30765703D01*
X105580166Y-30540360D01*
X105617232Y-30306338D01*
X105617232Y-30069398D01*
X105580166Y-29835376D01*
X105578864Y-29831368D01*
X105506951Y-29610038D01*
X105506949Y-29610032D01*
X105399379Y-29398917D01*
X105388969Y-29384589D01*
X105260111Y-29207231D01*
X105092569Y-29039689D01*
X104900882Y-28900420D01*
X104820502Y-28859464D01*
X104689767Y-28792850D01*
X104689761Y-28792848D01*
X104464426Y-28719634D01*
X104464427Y-28719634D01*
X104288907Y-28691834D01*
X104230402Y-28682568D01*
X103993462Y-28682568D01*
X103946657Y-28689981D01*
X103759436Y-28719634D01*
X103534102Y-28792848D01*
X103534096Y-28792850D01*
X103322979Y-28900422D01*
X103131301Y-29039683D01*
X103131296Y-29039687D01*
X102539487Y-29631496D01*
X102539483Y-29631501D01*
X102400222Y-29823179D01*
X102292650Y-30034296D01*
X102292648Y-30034302D01*
X102219434Y-30259636D01*
X102182368Y-30493662D01*
X98958900Y-30493662D01*
X98958900Y-19694255D01*
X98924247Y-19564926D01*
X98857301Y-19448974D01*
X98762626Y-19354299D01*
X98121591Y-18713264D01*
X97464914Y-18056586D01*
X97431429Y-17995263D01*
X97430978Y-17944717D01*
X97449100Y-17853613D01*
X97449100Y-17655587D01*
X97410467Y-17461365D01*
X97334685Y-17278412D01*
X97334684Y-17278411D01*
X97334681Y-17278405D01*
X97224667Y-17113759D01*
X97224664Y-17113755D01*
X97084644Y-16973735D01*
X97084640Y-16973732D01*
X96919994Y-16863718D01*
X96919985Y-16863713D01*
X96737035Y-16787933D01*
X96737027Y-16787931D01*
X96542817Y-16749300D01*
X96542813Y-16749300D01*
X96344787Y-16749300D01*
X96344782Y-16749300D01*
X96150572Y-16787931D01*
X96150564Y-16787933D01*
X95967614Y-16863713D01*
X95967605Y-16863718D01*
X95802959Y-16973732D01*
X95802955Y-16973735D01*
X95662935Y-17113755D01*
X95662932Y-17113759D01*
X95552918Y-17278405D01*
X95552913Y-17278414D01*
X95477133Y-17461364D01*
X95477131Y-17461372D01*
X95438500Y-17655582D01*
X95438500Y-17853617D01*
X95477131Y-18047827D01*
X95477133Y-18047835D01*
X95552913Y-18230785D01*
X95552918Y-18230794D01*
X95662932Y-18395440D01*
X95662935Y-18395444D01*
X95802955Y-18535464D01*
X95802959Y-18535467D01*
X95967605Y-18645481D01*
X95967614Y-18645486D01*
X96008603Y-18662464D01*
X96150565Y-18721267D01*
X96284982Y-18748004D01*
X96344782Y-18759899D01*
X96344786Y-18759900D01*
X96344787Y-18759900D01*
X96542814Y-18759900D01*
X96557249Y-18757028D01*
X96633915Y-18741778D01*
X96703504Y-18748004D01*
X96745786Y-18775714D01*
X97905581Y-19935508D01*
X97939066Y-19996831D01*
X97941900Y-20023189D01*
X97941900Y-31437209D01*
X97922215Y-31504248D01*
X97905581Y-31524890D01*
X95630978Y-33799493D01*
X95569655Y-33832978D01*
X95504979Y-33829743D01*
X95354568Y-33780872D01*
X95143869Y-33747500D01*
X95143864Y-33747500D01*
X94930536Y-33747500D01*
X94930531Y-33747500D01*
X94719831Y-33780872D01*
X94516947Y-33846792D01*
X94326867Y-33943643D01*
X94268976Y-33985704D01*
X94154281Y-34069035D01*
X94154279Y-34069037D01*
X94154278Y-34069037D01*
X94003437Y-34219878D01*
X94003437Y-34219879D01*
X94003435Y-34219881D01*
X93975240Y-34258688D01*
X93878043Y-34392467D01*
X93781192Y-34582547D01*
X93715272Y-34785431D01*
X93681900Y-34996130D01*
X83472300Y-34996130D01*
X83472300Y-34378200D01*
X83470976Y-34349569D01*
X83439769Y-34239887D01*
X83439768Y-34239886D01*
X83439768Y-34239885D01*
X83371048Y-34148886D01*
X83274093Y-34088854D01*
X83264972Y-34087149D01*
X83162000Y-34067900D01*
X82596174Y-34067900D01*
X82515868Y-34078473D01*
X82515861Y-34078474D01*
X82388686Y-34112551D01*
X82313868Y-34143541D01*
X82313854Y-34143548D01*
X82199849Y-34209369D01*
X82199840Y-34209375D01*
X82135575Y-34258688D01*
X82042488Y-34351775D01*
X81993175Y-34416040D01*
X81993169Y-34416049D01*
X81926052Y-34532300D01*
X81875485Y-34580516D01*
X81818665Y-34594300D01*
X80145183Y-34594300D01*
X80078144Y-34574615D01*
X80034698Y-34526595D01*
X80023520Y-34504657D01*
X79966357Y-34392468D01*
X79840965Y-34219881D01*
X79690119Y-34069035D01*
X79517532Y-33943643D01*
X79517530Y-33943642D01*
X79327452Y-33846792D01*
X79124568Y-33780872D01*
X78913869Y-33747500D01*
X78913864Y-33747500D01*
X78700536Y-33747500D01*
X78700531Y-33747500D01*
X78489831Y-33780872D01*
X78286947Y-33846792D01*
X78096867Y-33943643D01*
X78038976Y-33985704D01*
X77924281Y-34069035D01*
X77924279Y-34069037D01*
X77924278Y-34069037D01*
X77773437Y-34219878D01*
X77773437Y-34219879D01*
X77773435Y-34219881D01*
X77745240Y-34258688D01*
X77648043Y-34392467D01*
X77551192Y-34582547D01*
X77485272Y-34785431D01*
X77451900Y-34996130D01*
X74392500Y-34996130D01*
X74359128Y-34785432D01*
X74312610Y-34642265D01*
X74310615Y-34572424D01*
X74342858Y-34516268D01*
X76327501Y-32531627D01*
X76394447Y-32415674D01*
X76395726Y-32410901D01*
X76429100Y-32286345D01*
X76429100Y-28646130D01*
X77451900Y-28646130D01*
X77451900Y-28859469D01*
X77485272Y-29070168D01*
X77551192Y-29273052D01*
X77615324Y-29398917D01*
X77648043Y-29463132D01*
X77773435Y-29635719D01*
X77924281Y-29786565D01*
X78096868Y-29911957D01*
X78286945Y-30008806D01*
X78286947Y-30008807D01*
X78365414Y-30034302D01*
X78489833Y-30074728D01*
X78587418Y-30090184D01*
X78700531Y-30108100D01*
X78700536Y-30108100D01*
X78913869Y-30108100D01*
X79016013Y-30091921D01*
X79124567Y-30074728D01*
X79327455Y-30008806D01*
X79517532Y-29911957D01*
X79690119Y-29786565D01*
X79840965Y-29635719D01*
X79966357Y-29463132D01*
X80034698Y-29329004D01*
X80082673Y-29278209D01*
X80145183Y-29261300D01*
X81807361Y-29261300D01*
X81874400Y-29280985D01*
X81920155Y-29333789D01*
X81921922Y-29337846D01*
X81927346Y-29350941D01*
X81927348Y-29350945D01*
X81979259Y-29440858D01*
X81993173Y-29464957D01*
X82042486Y-29529222D01*
X82135578Y-29622314D01*
X82199843Y-29671627D01*
X82313857Y-29737453D01*
X82313862Y-29737455D01*
X82313868Y-29737458D01*
X82388686Y-29768448D01*
X82388688Y-29768448D01*
X82388694Y-29768451D01*
X82515861Y-29802526D01*
X82596174Y-29813100D01*
X83161994Y-29813100D01*
X83162000Y-29813100D01*
X83190631Y-29811776D01*
X83300313Y-29780569D01*
X83391314Y-29711848D01*
X83451346Y-29614893D01*
X83472300Y-29502800D01*
X83472300Y-28646130D01*
X93681900Y-28646130D01*
X93681900Y-28859469D01*
X93715272Y-29070168D01*
X93781192Y-29273052D01*
X93845324Y-29398917D01*
X93878043Y-29463132D01*
X94003435Y-29635719D01*
X94154281Y-29786565D01*
X94326868Y-29911957D01*
X94516945Y-30008806D01*
X94516947Y-30008807D01*
X94595414Y-30034302D01*
X94719833Y-30074728D01*
X94817418Y-30090184D01*
X94930531Y-30108100D01*
X94930536Y-30108100D01*
X95143869Y-30108100D01*
X95246013Y-30091921D01*
X95354567Y-30074728D01*
X95557455Y-30008806D01*
X95747532Y-29911957D01*
X95920119Y-29786565D01*
X96070965Y-29635719D01*
X96196357Y-29463132D01*
X96293206Y-29273055D01*
X96359128Y-29070167D01*
X96386013Y-28900422D01*
X96392500Y-28859469D01*
X96392500Y-28646130D01*
X96373085Y-28523556D01*
X96359128Y-28435433D01*
X96305808Y-28271330D01*
X96293207Y-28232547D01*
X96260193Y-28167754D01*
X96196357Y-28042468D01*
X96070965Y-27869881D01*
X95920119Y-27719035D01*
X95747532Y-27593643D01*
X95580412Y-27508491D01*
X95557452Y-27496792D01*
X95354568Y-27430872D01*
X95143869Y-27397500D01*
X95143864Y-27397500D01*
X94930536Y-27397500D01*
X94930531Y-27397500D01*
X94719831Y-27430872D01*
X94516947Y-27496792D01*
X94326867Y-27593643D01*
X94228400Y-27665183D01*
X94154281Y-27719035D01*
X94154279Y-27719037D01*
X94154278Y-27719037D01*
X94003437Y-27869878D01*
X94003437Y-27869879D01*
X94003435Y-27869881D01*
X93992614Y-27884775D01*
X93878043Y-28042467D01*
X93781192Y-28232547D01*
X93715272Y-28435431D01*
X93681900Y-28646130D01*
X83472300Y-28646130D01*
X83472300Y-28002800D01*
X83470976Y-27974169D01*
X83439769Y-27864487D01*
X83439768Y-27864486D01*
X83439768Y-27864485D01*
X83371048Y-27773486D01*
X83274093Y-27713454D01*
X83162000Y-27692500D01*
X82596174Y-27692500D01*
X82515868Y-27703073D01*
X82515861Y-27703074D01*
X82388686Y-27737151D01*
X82313868Y-27768141D01*
X82313854Y-27768148D01*
X82199849Y-27833969D01*
X82199840Y-27833975D01*
X82135575Y-27883288D01*
X82042488Y-27976375D01*
X81993175Y-28040640D01*
X81993169Y-28040649D01*
X81927348Y-28154654D01*
X81927346Y-28154658D01*
X81921922Y-28167754D01*
X81878080Y-28222157D01*
X81811786Y-28244221D01*
X81807361Y-28244300D01*
X80145183Y-28244300D01*
X80078144Y-28224615D01*
X80034698Y-28176595D01*
X80030193Y-28167754D01*
X79966357Y-28042468D01*
X79840965Y-27869881D01*
X79690119Y-27719035D01*
X79517532Y-27593643D01*
X79350412Y-27508491D01*
X79327452Y-27496792D01*
X79124568Y-27430872D01*
X78913869Y-27397500D01*
X78913864Y-27397500D01*
X78700536Y-27397500D01*
X78700531Y-27397500D01*
X78489831Y-27430872D01*
X78286947Y-27496792D01*
X78096867Y-27593643D01*
X77998400Y-27665183D01*
X77924281Y-27719035D01*
X77924279Y-27719037D01*
X77924278Y-27719037D01*
X77773437Y-27869878D01*
X77773437Y-27869879D01*
X77773435Y-27869881D01*
X77762614Y-27884775D01*
X77648043Y-28042467D01*
X77551192Y-28232547D01*
X77485272Y-28435431D01*
X77451900Y-28646130D01*
X76429100Y-28646130D01*
X76429100Y-20886788D01*
X76448785Y-20819749D01*
X76465414Y-20799112D01*
X78484599Y-18779926D01*
X78545920Y-18746443D01*
X78596467Y-18745992D01*
X78651987Y-18757035D01*
X78666386Y-18759900D01*
X78666387Y-18759900D01*
X78864414Y-18759900D01*
X78864415Y-18759899D01*
X79058635Y-18721267D01*
X79241588Y-18645485D01*
X79406241Y-18535467D01*
X79546267Y-18395441D01*
X79656285Y-18230788D01*
X79732067Y-18047835D01*
X79770700Y-17853613D01*
X79770700Y-17655587D01*
X79767433Y-17639165D01*
X79765646Y-17630182D01*
X86624700Y-17630182D01*
X86624700Y-17828217D01*
X86663331Y-18022427D01*
X86663333Y-18022435D01*
X86739113Y-18205385D01*
X86739118Y-18205394D01*
X86849132Y-18370040D01*
X86849135Y-18370044D01*
X86989155Y-18510064D01*
X86989159Y-18510067D01*
X87153805Y-18620081D01*
X87153811Y-18620084D01*
X87153812Y-18620085D01*
X87336765Y-18695867D01*
X87523758Y-18733062D01*
X87530982Y-18734499D01*
X87530986Y-18734500D01*
X87530987Y-18734500D01*
X87729014Y-18734500D01*
X87729015Y-18734499D01*
X87923235Y-18695867D01*
X88106188Y-18620085D01*
X88270841Y-18510067D01*
X88410867Y-18370041D01*
X88520885Y-18205388D01*
X88596667Y-18022435D01*
X88635300Y-17828213D01*
X88635300Y-17630187D01*
X88596667Y-17435965D01*
X88520885Y-17253012D01*
X88520884Y-17253011D01*
X88520881Y-17253005D01*
X88410867Y-17088359D01*
X88410864Y-17088355D01*
X88270844Y-16948335D01*
X88270840Y-16948332D01*
X88106194Y-16838318D01*
X88106185Y-16838313D01*
X87923235Y-16762533D01*
X87923227Y-16762531D01*
X87729017Y-16723900D01*
X87729013Y-16723900D01*
X87530987Y-16723900D01*
X87530982Y-16723900D01*
X87336772Y-16762531D01*
X87336764Y-16762533D01*
X87153814Y-16838313D01*
X87153805Y-16838318D01*
X86989159Y-16948332D01*
X86989155Y-16948335D01*
X86849135Y-17088355D01*
X86849132Y-17088359D01*
X86739118Y-17253005D01*
X86739113Y-17253014D01*
X86663333Y-17435964D01*
X86663331Y-17435972D01*
X86624700Y-17630182D01*
X79765646Y-17630182D01*
X79744824Y-17525499D01*
X79732067Y-17461365D01*
X79656285Y-17278412D01*
X79656284Y-17278411D01*
X79656281Y-17278405D01*
X79546267Y-17113759D01*
X79546264Y-17113755D01*
X79406244Y-16973735D01*
X79406240Y-16973732D01*
X79241594Y-16863718D01*
X79241585Y-16863713D01*
X79058635Y-16787933D01*
X79058627Y-16787931D01*
X78864417Y-16749300D01*
X78864413Y-16749300D01*
X78666387Y-16749300D01*
X78666382Y-16749300D01*
X78472172Y-16787931D01*
X78472164Y-16787933D01*
X78289214Y-16863713D01*
X78289205Y-16863718D01*
X78124559Y-16973732D01*
X78124555Y-16973735D01*
X77984535Y-17113755D01*
X77984532Y-17113759D01*
X77874518Y-17278405D01*
X77874513Y-17278414D01*
X77798733Y-17461364D01*
X77798731Y-17461372D01*
X77760100Y-17655582D01*
X77760100Y-17655586D01*
X77760100Y-17655587D01*
X77760100Y-17853613D01*
X77765153Y-17879017D01*
X77782435Y-17965901D01*
X77776207Y-18035492D01*
X77748498Y-18077772D01*
X75513701Y-20312570D01*
X75513699Y-20312573D01*
X75446753Y-20428524D01*
X75412100Y-20557855D01*
X75412100Y-31957409D01*
X75392415Y-32024448D01*
X75375781Y-32045090D01*
X73623731Y-33797139D01*
X73562408Y-33830624D01*
X73497732Y-33827389D01*
X73354567Y-33780871D01*
X73143869Y-33747500D01*
X73143864Y-33747500D01*
X72930536Y-33747500D01*
X72930531Y-33747500D01*
X72719831Y-33780872D01*
X72516947Y-33846792D01*
X72326867Y-33943643D01*
X72268976Y-33985704D01*
X72154281Y-34069035D01*
X72154279Y-34069037D01*
X72154278Y-34069037D01*
X72003437Y-34219878D01*
X72003437Y-34219879D01*
X72003435Y-34219881D01*
X71975240Y-34258688D01*
X71878043Y-34392467D01*
X71781192Y-34582547D01*
X71715272Y-34785431D01*
X71681900Y-34996130D01*
X61069500Y-34996130D01*
X61069500Y-34352800D01*
X61068176Y-34324169D01*
X61036969Y-34214487D01*
X61036968Y-34214486D01*
X61036968Y-34214485D01*
X60968248Y-34123486D01*
X60871293Y-34063454D01*
X60759200Y-34042500D01*
X60193374Y-34042500D01*
X60113068Y-34053073D01*
X60113061Y-34053074D01*
X59985886Y-34087151D01*
X59911068Y-34118141D01*
X59911054Y-34118148D01*
X59797049Y-34183969D01*
X59797040Y-34183975D01*
X59732775Y-34233288D01*
X59639688Y-34326375D01*
X59590375Y-34390640D01*
X59590369Y-34390649D01*
X59523252Y-34506900D01*
X59472685Y-34555116D01*
X59415865Y-34568900D01*
X58132241Y-34568900D01*
X58065202Y-34549215D01*
X58021756Y-34501195D01*
X57985787Y-34430602D01*
X57966357Y-34392468D01*
X57840965Y-34219881D01*
X57690119Y-34069035D01*
X57517532Y-33943643D01*
X57517530Y-33943642D01*
X57327452Y-33846792D01*
X57124568Y-33780872D01*
X56913869Y-33747500D01*
X56913864Y-33747500D01*
X56700536Y-33747500D01*
X56700531Y-33747500D01*
X56489831Y-33780872D01*
X56286947Y-33846792D01*
X56096867Y-33943643D01*
X56038976Y-33985704D01*
X55924281Y-34069035D01*
X55924279Y-34069037D01*
X55924278Y-34069037D01*
X55773437Y-34219878D01*
X55773437Y-34219879D01*
X55773435Y-34219881D01*
X55745240Y-34258688D01*
X55648043Y-34392467D01*
X55551192Y-34582547D01*
X55485272Y-34785431D01*
X55451900Y-34996130D01*
X52392500Y-34996130D01*
X52373085Y-34873556D01*
X52359128Y-34785433D01*
X52312610Y-34642265D01*
X52293207Y-34582547D01*
X52287595Y-34571532D01*
X52196357Y-34392468D01*
X52070965Y-34219881D01*
X51920119Y-34069035D01*
X51747532Y-33943643D01*
X51747530Y-33943642D01*
X51557452Y-33846792D01*
X51354568Y-33780872D01*
X51143869Y-33747500D01*
X51143864Y-33747500D01*
X50930536Y-33747500D01*
X50930531Y-33747500D01*
X50719831Y-33780872D01*
X50516947Y-33846792D01*
X50326869Y-33943642D01*
X50279505Y-33978053D01*
X50213698Y-34001531D01*
X50145645Y-33985704D01*
X50118941Y-33965414D01*
X44882472Y-28728945D01*
X44799657Y-28646130D01*
X49681900Y-28646130D01*
X49681900Y-28859469D01*
X49715272Y-29070168D01*
X49781192Y-29273052D01*
X49845324Y-29398917D01*
X49878043Y-29463132D01*
X50003435Y-29635719D01*
X50154281Y-29786565D01*
X50326868Y-29911957D01*
X50516945Y-30008806D01*
X50516947Y-30008807D01*
X50595414Y-30034302D01*
X50719833Y-30074728D01*
X50817418Y-30090184D01*
X50930531Y-30108100D01*
X50930536Y-30108100D01*
X51143869Y-30108100D01*
X51246013Y-30091921D01*
X51354567Y-30074728D01*
X51557455Y-30008806D01*
X51747532Y-29911957D01*
X51920119Y-29786565D01*
X52070965Y-29635719D01*
X52196357Y-29463132D01*
X52293206Y-29273055D01*
X52359128Y-29070167D01*
X52386013Y-28900422D01*
X52392500Y-28859469D01*
X52392500Y-28646130D01*
X55451900Y-28646130D01*
X55451900Y-28859469D01*
X55485272Y-29070168D01*
X55551192Y-29273052D01*
X55615324Y-29398917D01*
X55648043Y-29463132D01*
X55773435Y-29635719D01*
X55924281Y-29786565D01*
X56096868Y-29911957D01*
X56286945Y-30008806D01*
X56286947Y-30008807D01*
X56365414Y-30034302D01*
X56489833Y-30074728D01*
X56587418Y-30090184D01*
X56700531Y-30108100D01*
X56700536Y-30108100D01*
X56913869Y-30108100D01*
X57016013Y-30091921D01*
X57124567Y-30074728D01*
X57327455Y-30008806D01*
X57517532Y-29911957D01*
X57690119Y-29786565D01*
X57840965Y-29635719D01*
X57966357Y-29463132D01*
X58034698Y-29329004D01*
X58082673Y-29278209D01*
X58145183Y-29261300D01*
X59408920Y-29261300D01*
X59475959Y-29280985D01*
X59521714Y-29333789D01*
X59523475Y-29337833D01*
X59549947Y-29401743D01*
X59615773Y-29515757D01*
X59665086Y-29580022D01*
X59758178Y-29673114D01*
X59822443Y-29722427D01*
X59936457Y-29788253D01*
X59936462Y-29788255D01*
X59936468Y-29788258D01*
X60011286Y-29819248D01*
X60011288Y-29819248D01*
X60011294Y-29819251D01*
X60138461Y-29853326D01*
X60218774Y-29863900D01*
X60784594Y-29863900D01*
X60784600Y-29863900D01*
X60813231Y-29862576D01*
X60922913Y-29831369D01*
X61013914Y-29762648D01*
X61073946Y-29665693D01*
X61094900Y-29553600D01*
X61094900Y-28053600D01*
X61093576Y-28024969D01*
X61062369Y-27915287D01*
X61062368Y-27915286D01*
X61062368Y-27915285D01*
X60993648Y-27824286D01*
X60896693Y-27764254D01*
X60784600Y-27743300D01*
X60218774Y-27743300D01*
X60138468Y-27753873D01*
X60138461Y-27753874D01*
X60011286Y-27787951D01*
X59936468Y-27818941D01*
X59936454Y-27818948D01*
X59822449Y-27884769D01*
X59822440Y-27884775D01*
X59758175Y-27934088D01*
X59665088Y-28027175D01*
X59615775Y-28091440D01*
X59615769Y-28091449D01*
X59582245Y-28149515D01*
X59566611Y-28176595D01*
X59563317Y-28182300D01*
X59512750Y-28230515D01*
X59455930Y-28244300D01*
X58145183Y-28244300D01*
X58078144Y-28224615D01*
X58034698Y-28176595D01*
X58030193Y-28167754D01*
X57966357Y-28042468D01*
X57840965Y-27869881D01*
X57690119Y-27719035D01*
X57517532Y-27593643D01*
X57350412Y-27508491D01*
X57327452Y-27496792D01*
X57124568Y-27430872D01*
X56913869Y-27397500D01*
X56913864Y-27397500D01*
X56700536Y-27397500D01*
X56700531Y-27397500D01*
X56489831Y-27430872D01*
X56286947Y-27496792D01*
X56096867Y-27593643D01*
X55998400Y-27665183D01*
X55924281Y-27719035D01*
X55924279Y-27719037D01*
X55924278Y-27719037D01*
X55773437Y-27869878D01*
X55773437Y-27869879D01*
X55773435Y-27869881D01*
X55762614Y-27884775D01*
X55648043Y-28042467D01*
X55551192Y-28232547D01*
X55485272Y-28435431D01*
X55451900Y-28646130D01*
X52392500Y-28646130D01*
X52373085Y-28523556D01*
X52359128Y-28435433D01*
X52305808Y-28271330D01*
X52293207Y-28232547D01*
X52260193Y-28167754D01*
X52196357Y-28042468D01*
X52070965Y-27869881D01*
X51920119Y-27719035D01*
X51747532Y-27593643D01*
X51580412Y-27508491D01*
X51557452Y-27496792D01*
X51354568Y-27430872D01*
X51143869Y-27397500D01*
X51143864Y-27397500D01*
X50930536Y-27397500D01*
X50930531Y-27397500D01*
X50719831Y-27430872D01*
X50516947Y-27496792D01*
X50326867Y-27593643D01*
X50228400Y-27665183D01*
X50154281Y-27719035D01*
X50154279Y-27719037D01*
X50154278Y-27719037D01*
X50003437Y-27869878D01*
X50003437Y-27869879D01*
X50003435Y-27869881D01*
X49992614Y-27884775D01*
X49878043Y-28042467D01*
X49781192Y-28232547D01*
X49715272Y-28435431D01*
X49681900Y-28646130D01*
X44799657Y-28646130D01*
X44486180Y-28332653D01*
X38873419Y-22719891D01*
X38839934Y-22658568D01*
X38837100Y-22632210D01*
X38837100Y-18715573D01*
X38856785Y-18648534D01*
X38892207Y-18612472D01*
X38969441Y-18560867D01*
X39109467Y-18420841D01*
X39219485Y-18256188D01*
X39295267Y-18073235D01*
X39333900Y-17879013D01*
X39333900Y-17680987D01*
X39322343Y-17622885D01*
X39322343Y-17622882D01*
X39318743Y-17604782D01*
X69149500Y-17604782D01*
X69149500Y-17802817D01*
X69188131Y-17997027D01*
X69188133Y-17997035D01*
X69263913Y-18179985D01*
X69263918Y-18179994D01*
X69373932Y-18344640D01*
X69373935Y-18344644D01*
X69513956Y-18484665D01*
X69513959Y-18484667D01*
X69591191Y-18536271D01*
X69635995Y-18589882D01*
X69646300Y-18639373D01*
X69646300Y-25942655D01*
X69646300Y-26076545D01*
X69657440Y-26118120D01*
X69680953Y-26205875D01*
X69704960Y-26247455D01*
X69747899Y-26321827D01*
X69747901Y-26321829D01*
X71697402Y-28271330D01*
X71730887Y-28332653D01*
X71727652Y-28397328D01*
X71715272Y-28435429D01*
X71681900Y-28646130D01*
X71681900Y-28859469D01*
X71715272Y-29070168D01*
X71781192Y-29273052D01*
X71845324Y-29398917D01*
X71878043Y-29463132D01*
X72003435Y-29635719D01*
X72154281Y-29786565D01*
X72326868Y-29911957D01*
X72516945Y-30008806D01*
X72516947Y-30008807D01*
X72595414Y-30034302D01*
X72719833Y-30074728D01*
X72817418Y-30090184D01*
X72930531Y-30108100D01*
X72930536Y-30108100D01*
X73143869Y-30108100D01*
X73246013Y-30091921D01*
X73354567Y-30074728D01*
X73557455Y-30008806D01*
X73747532Y-29911957D01*
X73920119Y-29786565D01*
X74070965Y-29635719D01*
X74196357Y-29463132D01*
X74293206Y-29273055D01*
X74359128Y-29070167D01*
X74386013Y-28900422D01*
X74392500Y-28859469D01*
X74392500Y-28646130D01*
X74373085Y-28523556D01*
X74359128Y-28435433D01*
X74305808Y-28271330D01*
X74293207Y-28232547D01*
X74260193Y-28167754D01*
X74196357Y-28042468D01*
X74070965Y-27869881D01*
X73920119Y-27719035D01*
X73747532Y-27593643D01*
X73580412Y-27508491D01*
X73557452Y-27496792D01*
X73354568Y-27430872D01*
X73143869Y-27397500D01*
X73143864Y-27397500D01*
X72930536Y-27397500D01*
X72930531Y-27397500D01*
X72719831Y-27430872D01*
X72516948Y-27496792D01*
X72493988Y-27508491D01*
X72425319Y-27521386D01*
X72360579Y-27495108D01*
X72350014Y-27485686D01*
X70699619Y-25835291D01*
X70666134Y-25773968D01*
X70663300Y-25747610D01*
X70663300Y-18639373D01*
X70682985Y-18572334D01*
X70718407Y-18536272D01*
X70795641Y-18484667D01*
X70935667Y-18344641D01*
X71045685Y-18179988D01*
X71121467Y-17997035D01*
X71160100Y-17802813D01*
X71160100Y-17604787D01*
X71121467Y-17410565D01*
X71045685Y-17227612D01*
X71045684Y-17227611D01*
X71045681Y-17227605D01*
X70935667Y-17062959D01*
X70935664Y-17062955D01*
X70795644Y-16922935D01*
X70795640Y-16922932D01*
X70630994Y-16812918D01*
X70630985Y-16812913D01*
X70448035Y-16737133D01*
X70448027Y-16737131D01*
X70253817Y-16698500D01*
X70253813Y-16698500D01*
X70055787Y-16698500D01*
X70055782Y-16698500D01*
X69861572Y-16737131D01*
X69861564Y-16737133D01*
X69678614Y-16812913D01*
X69678605Y-16812918D01*
X69513959Y-16922932D01*
X69513955Y-16922935D01*
X69373935Y-17062955D01*
X69373932Y-17062959D01*
X69263918Y-17227605D01*
X69263913Y-17227614D01*
X69188133Y-17410564D01*
X69188131Y-17410572D01*
X69149500Y-17604782D01*
X39318743Y-17604782D01*
X39295268Y-17486772D01*
X39295267Y-17486765D01*
X39219485Y-17303812D01*
X39219484Y-17303811D01*
X39219481Y-17303805D01*
X39109467Y-17139159D01*
X39109464Y-17139155D01*
X38969444Y-16999135D01*
X38969440Y-16999132D01*
X38804794Y-16889118D01*
X38804785Y-16889113D01*
X38621835Y-16813333D01*
X38621827Y-16813331D01*
X38427617Y-16774700D01*
X38427613Y-16774700D01*
X38229587Y-16774700D01*
X38229582Y-16774700D01*
X38035372Y-16813331D01*
X38035364Y-16813333D01*
X37852414Y-16889113D01*
X37852405Y-16889118D01*
X37687759Y-16999132D01*
X37687755Y-16999135D01*
X37547735Y-17139155D01*
X37547732Y-17139159D01*
X37437718Y-17303805D01*
X37437713Y-17303814D01*
X37361933Y-17486764D01*
X37361931Y-17486772D01*
X37323300Y-17680982D01*
X30687795Y-17680982D01*
X30669372Y-17588365D01*
X30659267Y-17537565D01*
X30583485Y-17354612D01*
X30583484Y-17354611D01*
X30583481Y-17354605D01*
X30473467Y-17189959D01*
X30473464Y-17189955D01*
X30333444Y-17049935D01*
X30333440Y-17049932D01*
X30168794Y-16939918D01*
X30168785Y-16939913D01*
X29985835Y-16864133D01*
X29985827Y-16864131D01*
X29791617Y-16825500D01*
X29791613Y-16825500D01*
X29593587Y-16825500D01*
X29593582Y-16825500D01*
X29399372Y-16864131D01*
X29399364Y-16864133D01*
X29216414Y-16939913D01*
X29216405Y-16939918D01*
X29051759Y-17049932D01*
X29051755Y-17049935D01*
X28911735Y-17189955D01*
X28911732Y-17189959D01*
X28801718Y-17354605D01*
X28801713Y-17354614D01*
X28725933Y-17537564D01*
X28725931Y-17537572D01*
X28687300Y-17731782D01*
X24216710Y-17731782D01*
X24010427Y-17525499D01*
X23952450Y-17492026D01*
X23894475Y-17458553D01*
X23810169Y-17435964D01*
X23765145Y-17423900D01*
X23765144Y-17423900D01*
X21992174Y-17423900D01*
X21925135Y-17404215D01*
X21889072Y-17368791D01*
X21837467Y-17291558D01*
X21697444Y-17151535D01*
X21697440Y-17151532D01*
X21532794Y-17041518D01*
X21532785Y-17041513D01*
X21349835Y-16965733D01*
X21349827Y-16965731D01*
X21155617Y-16927100D01*
X21155613Y-16927100D01*
X20957587Y-16927100D01*
X20957582Y-16927100D01*
X20763372Y-16965731D01*
X20763364Y-16965733D01*
X20580414Y-17041513D01*
X20580405Y-17041518D01*
X20415759Y-17151532D01*
X20415755Y-17151535D01*
X20275735Y-17291555D01*
X20275732Y-17291559D01*
X20165718Y-17456205D01*
X20165713Y-17456214D01*
X20089933Y-17639164D01*
X20089931Y-17639172D01*
X20051300Y-17833382D01*
X13502100Y-17833382D01*
X13502100Y-17782587D01*
X13463467Y-17588365D01*
X13395343Y-17423900D01*
X13387686Y-17405414D01*
X13387681Y-17405405D01*
X13277667Y-17240759D01*
X13277664Y-17240755D01*
X13137644Y-17100735D01*
X13137640Y-17100732D01*
X12972994Y-16990718D01*
X12972985Y-16990713D01*
X12790035Y-16914933D01*
X12790027Y-16914931D01*
X12595817Y-16876300D01*
X12595813Y-16876300D01*
X12397787Y-16876300D01*
X12397782Y-16876300D01*
X12203572Y-16914931D01*
X12203564Y-16914933D01*
X12020614Y-16990713D01*
X12020605Y-16990718D01*
X11855959Y-17100732D01*
X11855955Y-17100735D01*
X11715935Y-17240755D01*
X11715932Y-17240759D01*
X11605918Y-17405405D01*
X11605913Y-17405414D01*
X11530133Y-17588364D01*
X11530131Y-17588372D01*
X11491500Y-17782582D01*
X9398500Y-17782582D01*
X9398500Y-17457789D01*
X9418185Y-17390750D01*
X9434819Y-17370108D01*
X10918508Y-15886419D01*
X10979831Y-15852934D01*
X11006189Y-15850100D01*
X11561226Y-15850100D01*
X11628265Y-15869785D01*
X11664328Y-15905209D01*
X11715932Y-15982441D01*
X11855955Y-16122464D01*
X11855959Y-16122467D01*
X12020605Y-16232481D01*
X12020614Y-16232486D01*
X12051550Y-16245300D01*
X12203565Y-16308267D01*
X12397782Y-16346899D01*
X12397786Y-16346900D01*
X12397787Y-16346900D01*
X12595814Y-16346900D01*
X12595815Y-16346899D01*
X12790035Y-16308267D01*
X12972988Y-16232485D01*
X13137641Y-16122467D01*
X13277667Y-15982441D01*
X13387685Y-15817788D01*
X13463467Y-15634835D01*
X13502100Y-15440613D01*
X13502100Y-15242587D01*
X13463467Y-15048365D01*
X13400340Y-14895964D01*
X13387686Y-14865414D01*
X13387681Y-14865405D01*
X13277667Y-14700759D01*
X13277664Y-14700755D01*
X13137644Y-14560735D01*
X13137640Y-14560732D01*
X12984209Y-14458212D01*
X12939404Y-14404600D01*
X12929100Y-14355110D01*
X12929100Y-12036560D01*
X12948785Y-11969521D01*
X13001589Y-11923766D01*
X13005629Y-11922006D01*
X13023788Y-11914485D01*
X13188441Y-11804467D01*
X13328467Y-11664441D01*
X13438485Y-11499788D01*
X13504216Y-11341100D01*
X14186511Y-11341100D01*
X14242174Y-11475486D01*
X14242176Y-11475489D01*
X14346576Y-11631735D01*
X14346582Y-11631743D01*
X14479456Y-11764617D01*
X14479464Y-11764623D01*
X14635710Y-11869023D01*
X14635713Y-11869025D01*
X14770099Y-11924689D01*
X14770100Y-11924689D01*
X15405100Y-11924689D01*
X15539486Y-11869025D01*
X15539489Y-11869023D01*
X15695735Y-11764623D01*
X15695743Y-11764617D01*
X15828617Y-11631743D01*
X15828623Y-11631735D01*
X15933023Y-11475489D01*
X15933025Y-11475486D01*
X15988689Y-11341100D01*
X15405100Y-11341100D01*
X15405100Y-11924689D01*
X14770100Y-11924689D01*
X14770100Y-11341100D01*
X14186511Y-11341100D01*
X13504216Y-11341100D01*
X13514267Y-11316835D01*
X13552900Y-11122613D01*
X13552900Y-10977522D01*
X14737600Y-10977522D01*
X14737600Y-11069678D01*
X14761452Y-11158695D01*
X14807530Y-11238505D01*
X14872695Y-11303670D01*
X14952505Y-11349748D01*
X15041522Y-11373600D01*
X15133678Y-11373600D01*
X15222695Y-11349748D01*
X15302505Y-11303670D01*
X15367670Y-11238505D01*
X15413748Y-11158695D01*
X15437600Y-11069678D01*
X15437600Y-10977522D01*
X15413748Y-10888505D01*
X15367670Y-10808695D01*
X15302505Y-10743530D01*
X15237674Y-10706100D01*
X15405100Y-10706100D01*
X15988689Y-10706100D01*
X15988689Y-10706099D01*
X15933025Y-10571713D01*
X15933023Y-10571710D01*
X15828623Y-10415464D01*
X15828617Y-10415456D01*
X15695743Y-10282582D01*
X15695739Y-10282579D01*
X15539494Y-10178179D01*
X15539484Y-10178174D01*
X15405100Y-10122510D01*
X15405100Y-10706100D01*
X15237674Y-10706100D01*
X15222695Y-10697452D01*
X15133678Y-10673600D01*
X15041522Y-10673600D01*
X14952505Y-10697452D01*
X14872695Y-10743530D01*
X14807530Y-10808695D01*
X14761452Y-10888505D01*
X14737600Y-10977522D01*
X13552900Y-10977522D01*
X13552900Y-10924587D01*
X13529848Y-10808695D01*
X13516995Y-10744078D01*
X13516993Y-10744072D01*
X13514267Y-10730365D01*
X13504216Y-10706099D01*
X14186510Y-10706099D01*
X14186511Y-10706100D01*
X14770100Y-10706100D01*
X14770100Y-10122510D01*
X14770099Y-10122510D01*
X14635715Y-10178174D01*
X14635705Y-10178179D01*
X14479460Y-10282579D01*
X14479456Y-10282582D01*
X14346582Y-10415456D01*
X14346576Y-10415464D01*
X14242176Y-10571710D01*
X14242174Y-10571713D01*
X14186510Y-10706099D01*
X13504216Y-10706099D01*
X13438485Y-10547412D01*
X13438484Y-10547411D01*
X13438481Y-10547405D01*
X13328467Y-10382759D01*
X13328464Y-10382755D01*
X13188444Y-10242735D01*
X13188440Y-10242732D01*
X13060409Y-10157184D01*
X13015604Y-10103572D01*
X13005300Y-10054082D01*
X13005300Y-6732400D01*
X13024985Y-6665361D01*
X13073006Y-6621915D01*
X13076104Y-6620337D01*
X13216855Y-6518076D01*
X13339876Y-6395055D01*
X13442137Y-6254304D01*
X13521122Y-6099288D01*
X13574884Y-5933825D01*
X13586953Y-5857625D01*
X13602100Y-5761994D01*
X13602100Y-5588005D01*
X19976700Y-5588005D01*
X19976700Y-5761994D01*
X20003915Y-5933825D01*
X20032919Y-6023088D01*
X20057678Y-6099288D01*
X20129629Y-6240500D01*
X20136665Y-6254307D01*
X20238918Y-6395048D01*
X20238922Y-6395053D01*
X20361948Y-6518079D01*
X20401337Y-6546696D01*
X20496985Y-6616188D01*
X20539651Y-6671516D01*
X20548100Y-6716505D01*
X20548100Y-9969453D01*
X20528415Y-10036492D01*
X20492991Y-10072555D01*
X20390359Y-10141132D01*
X20390355Y-10141135D01*
X20250335Y-10281155D01*
X20250332Y-10281159D01*
X20140318Y-10445805D01*
X20140313Y-10445814D01*
X20064533Y-10628764D01*
X20064531Y-10628772D01*
X20025900Y-10822982D01*
X20025900Y-11021017D01*
X20064531Y-11215227D01*
X20064533Y-11215235D01*
X20140313Y-11398185D01*
X20140318Y-11398194D01*
X20250332Y-11562840D01*
X20250335Y-11562844D01*
X20390356Y-11702865D01*
X20390359Y-11702867D01*
X20492991Y-11771443D01*
X20537796Y-11825054D01*
X20548100Y-11874545D01*
X20548100Y-14456825D01*
X20528415Y-14523864D01*
X20492991Y-14559927D01*
X20415759Y-14611532D01*
X20415755Y-14611535D01*
X20275735Y-14751555D01*
X20275732Y-14751559D01*
X20165718Y-14916205D01*
X20165713Y-14916214D01*
X20089933Y-15099164D01*
X20089931Y-15099172D01*
X20051300Y-15293382D01*
X20051300Y-15491417D01*
X20089931Y-15685627D01*
X20089933Y-15685635D01*
X20165713Y-15868585D01*
X20165718Y-15868594D01*
X20275732Y-16033240D01*
X20275735Y-16033244D01*
X20415755Y-16173264D01*
X20415759Y-16173267D01*
X20580405Y-16283281D01*
X20580414Y-16283286D01*
X20611350Y-16296100D01*
X20763365Y-16359067D01*
X20957582Y-16397699D01*
X20957586Y-16397700D01*
X20957587Y-16397700D01*
X21155614Y-16397700D01*
X21155615Y-16397699D01*
X21349835Y-16359067D01*
X21532788Y-16283285D01*
X21697441Y-16173267D01*
X21837467Y-16033241D01*
X21947485Y-15868588D01*
X22023267Y-15685635D01*
X22061900Y-15491413D01*
X22061900Y-15293387D01*
X22023267Y-15099165D01*
X21960140Y-14946764D01*
X21947486Y-14916214D01*
X21947481Y-14916205D01*
X21837467Y-14751559D01*
X21837464Y-14751555D01*
X21697444Y-14611535D01*
X21697440Y-14611532D01*
X21620209Y-14559927D01*
X21575404Y-14506314D01*
X21565100Y-14456825D01*
X21565100Y-11840601D01*
X21584785Y-11773562D01*
X21620207Y-11737501D01*
X21672041Y-11702867D01*
X21812067Y-11562841D01*
X21922085Y-11398188D01*
X21987816Y-11239500D01*
X22670111Y-11239500D01*
X22725774Y-11373886D01*
X22725776Y-11373889D01*
X22830176Y-11530135D01*
X22830182Y-11530143D01*
X22963056Y-11663017D01*
X22963064Y-11663023D01*
X23119310Y-11767423D01*
X23119313Y-11767425D01*
X23253699Y-11823089D01*
X23253700Y-11823089D01*
X23888700Y-11823089D01*
X24023086Y-11767425D01*
X24023089Y-11767423D01*
X24179335Y-11663023D01*
X24179343Y-11663017D01*
X24312217Y-11530143D01*
X24312223Y-11530135D01*
X24416623Y-11373889D01*
X24416625Y-11373886D01*
X24472289Y-11239500D01*
X23888700Y-11239500D01*
X23888700Y-11823089D01*
X23253700Y-11823089D01*
X23253700Y-11239500D01*
X22670111Y-11239500D01*
X21987816Y-11239500D01*
X21997867Y-11215235D01*
X22036500Y-11021013D01*
X22036500Y-10875922D01*
X23221200Y-10875922D01*
X23221200Y-10968078D01*
X23245052Y-11057095D01*
X23291130Y-11136905D01*
X23356295Y-11202070D01*
X23436105Y-11248148D01*
X23525122Y-11272000D01*
X23617278Y-11272000D01*
X23706295Y-11248148D01*
X23786105Y-11202070D01*
X23851270Y-11136905D01*
X23897348Y-11057095D01*
X23921200Y-10968078D01*
X23921200Y-10875922D01*
X23897348Y-10786905D01*
X23851270Y-10707095D01*
X23786105Y-10641930D01*
X23721274Y-10604500D01*
X23888700Y-10604500D01*
X24472289Y-10604500D01*
X24472289Y-10604499D01*
X24416625Y-10470113D01*
X24416623Y-10470110D01*
X24312223Y-10313864D01*
X24312217Y-10313856D01*
X24179343Y-10180982D01*
X24179339Y-10180979D01*
X24023094Y-10076579D01*
X24023084Y-10076574D01*
X23888700Y-10020910D01*
X23888700Y-10604500D01*
X23721274Y-10604500D01*
X23706295Y-10595852D01*
X23617278Y-10572000D01*
X23525122Y-10572000D01*
X23436105Y-10595852D01*
X23356295Y-10641930D01*
X23291130Y-10707095D01*
X23245052Y-10786905D01*
X23221200Y-10875922D01*
X22036500Y-10875922D01*
X22036500Y-10822987D01*
X22011530Y-10697452D01*
X22000595Y-10642478D01*
X22000593Y-10642472D01*
X21997867Y-10628765D01*
X21987816Y-10604499D01*
X22670110Y-10604499D01*
X22670111Y-10604500D01*
X23253700Y-10604500D01*
X23253700Y-10020910D01*
X23253699Y-10020910D01*
X23119315Y-10076574D01*
X23119305Y-10076579D01*
X22963060Y-10180979D01*
X22963056Y-10180982D01*
X22830182Y-10313856D01*
X22830176Y-10313864D01*
X22725776Y-10470110D01*
X22725774Y-10470113D01*
X22670110Y-10604499D01*
X21987816Y-10604499D01*
X21922085Y-10445812D01*
X21922084Y-10445811D01*
X21922081Y-10445805D01*
X21812067Y-10281159D01*
X21812064Y-10281155D01*
X21672044Y-10141135D01*
X21620208Y-10106499D01*
X21575404Y-10052886D01*
X21565100Y-10003397D01*
X21565100Y-6745342D01*
X21584785Y-6678303D01*
X21632805Y-6634857D01*
X21661304Y-6620337D01*
X21802055Y-6518076D01*
X21925076Y-6395055D01*
X22027337Y-6254304D01*
X22106322Y-6099288D01*
X22160084Y-5933825D01*
X22172153Y-5857625D01*
X22187300Y-5761994D01*
X22187300Y-5588005D01*
X28561900Y-5588005D01*
X28561900Y-5761994D01*
X28589115Y-5933825D01*
X28618119Y-6023088D01*
X28642878Y-6099288D01*
X28714829Y-6240500D01*
X28721865Y-6254307D01*
X28824118Y-6395048D01*
X28824122Y-6395053D01*
X28947146Y-6518077D01*
X28947151Y-6518081D01*
X29051212Y-6593685D01*
X29087896Y-6620337D01*
X29116394Y-6634857D01*
X29167190Y-6682831D01*
X29184100Y-6745342D01*
X29184100Y-9918769D01*
X29164415Y-9985808D01*
X29128994Y-10021869D01*
X29102557Y-10039534D01*
X29102552Y-10039539D01*
X28962535Y-10179555D01*
X28962532Y-10179559D01*
X28852518Y-10344205D01*
X28852513Y-10344214D01*
X28776733Y-10527164D01*
X28776731Y-10527172D01*
X28738100Y-10721382D01*
X28738100Y-10919417D01*
X28776731Y-11113627D01*
X28776733Y-11113635D01*
X28852513Y-11296585D01*
X28852518Y-11296594D01*
X28962532Y-11461240D01*
X28962535Y-11461244D01*
X29102556Y-11601265D01*
X29102559Y-11601267D01*
X29205191Y-11669843D01*
X29249996Y-11723454D01*
X29260300Y-11772945D01*
X29260300Y-14304310D01*
X29240615Y-14371349D01*
X29205191Y-14407412D01*
X29051759Y-14509932D01*
X29051755Y-14509935D01*
X28911735Y-14649955D01*
X28911732Y-14649959D01*
X28801718Y-14814605D01*
X28801713Y-14814614D01*
X28725933Y-14997564D01*
X28725931Y-14997572D01*
X28687300Y-15191782D01*
X28687300Y-15389817D01*
X28725931Y-15584027D01*
X28725933Y-15584035D01*
X28801713Y-15766985D01*
X28801718Y-15766994D01*
X28911732Y-15931640D01*
X28911735Y-15931644D01*
X29051755Y-16071664D01*
X29051759Y-16071667D01*
X29216405Y-16181681D01*
X29216414Y-16181686D01*
X29247350Y-16194500D01*
X29399365Y-16257467D01*
X29593582Y-16296099D01*
X29593586Y-16296100D01*
X29593587Y-16296100D01*
X29791614Y-16296100D01*
X29791615Y-16296099D01*
X29985835Y-16257467D01*
X30168788Y-16181685D01*
X30333441Y-16071667D01*
X30473467Y-15931641D01*
X30583485Y-15766988D01*
X30659267Y-15584035D01*
X30697900Y-15389813D01*
X30697900Y-15191787D01*
X30659267Y-14997565D01*
X30583485Y-14814612D01*
X30583484Y-14814611D01*
X30583481Y-14814605D01*
X30473467Y-14649959D01*
X30473464Y-14649955D01*
X30333446Y-14509937D01*
X30333441Y-14509933D01*
X30332404Y-14509240D01*
X30331983Y-14508737D01*
X30328735Y-14506071D01*
X30329240Y-14505454D01*
X30287602Y-14455625D01*
X30277300Y-14406141D01*
X30277300Y-11739001D01*
X30296985Y-11671962D01*
X30332407Y-11635901D01*
X30384241Y-11601267D01*
X30524267Y-11461241D01*
X30634285Y-11296588D01*
X30700016Y-11137900D01*
X31382311Y-11137900D01*
X31437974Y-11272286D01*
X31437976Y-11272289D01*
X31542376Y-11428535D01*
X31542382Y-11428543D01*
X31675256Y-11561417D01*
X31675264Y-11561423D01*
X31831510Y-11665823D01*
X31831513Y-11665825D01*
X31965899Y-11721489D01*
X31965900Y-11721489D01*
X32600900Y-11721489D01*
X32735286Y-11665825D01*
X32735289Y-11665823D01*
X32891535Y-11561423D01*
X32891543Y-11561417D01*
X33024417Y-11428543D01*
X33024423Y-11428535D01*
X33128823Y-11272289D01*
X33128825Y-11272286D01*
X33184489Y-11137900D01*
X32600900Y-11137900D01*
X32600900Y-11721489D01*
X31965900Y-11721489D01*
X31965900Y-11137900D01*
X31382311Y-11137900D01*
X30700016Y-11137900D01*
X30710067Y-11113635D01*
X30748700Y-10919413D01*
X30748700Y-10774322D01*
X31933400Y-10774322D01*
X31933400Y-10866478D01*
X31957252Y-10955495D01*
X32003330Y-11035305D01*
X32068495Y-11100470D01*
X32148305Y-11146548D01*
X32237322Y-11170400D01*
X32329478Y-11170400D01*
X32418495Y-11146548D01*
X32498305Y-11100470D01*
X32563470Y-11035305D01*
X32609548Y-10955495D01*
X32633400Y-10866478D01*
X32633400Y-10774322D01*
X32609548Y-10685305D01*
X32563470Y-10605495D01*
X32498305Y-10540330D01*
X32433474Y-10502900D01*
X32600900Y-10502900D01*
X33184489Y-10502900D01*
X33184489Y-10502899D01*
X33128825Y-10368513D01*
X33128823Y-10368510D01*
X33024423Y-10212264D01*
X33024417Y-10212256D01*
X32891543Y-10079382D01*
X32891539Y-10079379D01*
X32735294Y-9974979D01*
X32735284Y-9974974D01*
X32600900Y-9919310D01*
X32600900Y-10502900D01*
X32433474Y-10502900D01*
X32418495Y-10494252D01*
X32329478Y-10470400D01*
X32237322Y-10470400D01*
X32148305Y-10494252D01*
X32068495Y-10540330D01*
X32003330Y-10605495D01*
X31957252Y-10685305D01*
X31933400Y-10774322D01*
X30748700Y-10774322D01*
X30748700Y-10721387D01*
X30729252Y-10623614D01*
X30712795Y-10540878D01*
X30712793Y-10540872D01*
X30710067Y-10527165D01*
X30700016Y-10502899D01*
X31382310Y-10502899D01*
X31382311Y-10502900D01*
X31965900Y-10502900D01*
X31965900Y-9919310D01*
X31965899Y-9919310D01*
X31831515Y-9974974D01*
X31831505Y-9974979D01*
X31675260Y-10079379D01*
X31675256Y-10079382D01*
X31542382Y-10212256D01*
X31542376Y-10212264D01*
X31437976Y-10368510D01*
X31437974Y-10368513D01*
X31382310Y-10502899D01*
X30700016Y-10502899D01*
X30634285Y-10344212D01*
X30634284Y-10344211D01*
X30634281Y-10344205D01*
X30524267Y-10179559D01*
X30524264Y-10179555D01*
X30384244Y-10039535D01*
X30384240Y-10039532D01*
X30256209Y-9953984D01*
X30211404Y-9900372D01*
X30201100Y-9850882D01*
X30201100Y-6716505D01*
X30220785Y-6649466D01*
X30252212Y-6616189D01*
X30387255Y-6518076D01*
X30510276Y-6395055D01*
X30612537Y-6254304D01*
X30691522Y-6099288D01*
X30745284Y-5933825D01*
X30757353Y-5857625D01*
X30772500Y-5761994D01*
X30772500Y-5588005D01*
X37147100Y-5588005D01*
X37147100Y-5761994D01*
X37174315Y-5933825D01*
X37203319Y-6023088D01*
X37228078Y-6099288D01*
X37300029Y-6240500D01*
X37307065Y-6254307D01*
X37409318Y-6395048D01*
X37409322Y-6395053D01*
X37532346Y-6518077D01*
X37532351Y-6518081D01*
X37636412Y-6593685D01*
X37673096Y-6620337D01*
X37676193Y-6621915D01*
X37677155Y-6622823D01*
X37677244Y-6622878D01*
X37677232Y-6622896D01*
X37726988Y-6669885D01*
X37743900Y-6732400D01*
X37743900Y-9918769D01*
X37724215Y-9985808D01*
X37688794Y-10021869D01*
X37662357Y-10039534D01*
X37662352Y-10039539D01*
X37522335Y-10179555D01*
X37522332Y-10179559D01*
X37412318Y-10344205D01*
X37412313Y-10344214D01*
X37336533Y-10527164D01*
X37336531Y-10527172D01*
X37297900Y-10721382D01*
X37297900Y-10919417D01*
X37336531Y-11113627D01*
X37336533Y-11113635D01*
X37412313Y-11296585D01*
X37412318Y-11296594D01*
X37522332Y-11461240D01*
X37522335Y-11461244D01*
X37662356Y-11601265D01*
X37662359Y-11601267D01*
X37739591Y-11652871D01*
X37784395Y-11706482D01*
X37794700Y-11755973D01*
X37794700Y-14321397D01*
X37775015Y-14388436D01*
X37739592Y-14424499D01*
X37687755Y-14459135D01*
X37547735Y-14599155D01*
X37547732Y-14599159D01*
X37437718Y-14763805D01*
X37437713Y-14763814D01*
X37361933Y-14946764D01*
X37361931Y-14946772D01*
X37323300Y-15140982D01*
X37323300Y-15339017D01*
X37361931Y-15533227D01*
X37361933Y-15533235D01*
X37437713Y-15716185D01*
X37437718Y-15716194D01*
X37547732Y-15880840D01*
X37547735Y-15880844D01*
X37687755Y-16020864D01*
X37687759Y-16020867D01*
X37852405Y-16130881D01*
X37852411Y-16130884D01*
X37852412Y-16130885D01*
X38035365Y-16206667D01*
X38229582Y-16245299D01*
X38229586Y-16245300D01*
X38229587Y-16245300D01*
X38427614Y-16245300D01*
X38427615Y-16245299D01*
X38621835Y-16206667D01*
X38804788Y-16130885D01*
X38969441Y-16020867D01*
X39109467Y-15880841D01*
X39219485Y-15716188D01*
X39295267Y-15533235D01*
X39333900Y-15339013D01*
X39333900Y-15140987D01*
X39295267Y-14946765D01*
X39219485Y-14763812D01*
X39219484Y-14763811D01*
X39219481Y-14763805D01*
X39109467Y-14599159D01*
X39109464Y-14599155D01*
X38969444Y-14459135D01*
X38969440Y-14459132D01*
X38866809Y-14390555D01*
X38822004Y-14336942D01*
X38811700Y-14287453D01*
X38811700Y-11755973D01*
X38831385Y-11688934D01*
X38866807Y-11652872D01*
X38944041Y-11601267D01*
X39084067Y-11461241D01*
X39194085Y-11296588D01*
X39259816Y-11137900D01*
X39942111Y-11137900D01*
X39997774Y-11272286D01*
X39997776Y-11272289D01*
X40102176Y-11428535D01*
X40102182Y-11428543D01*
X40235056Y-11561417D01*
X40235064Y-11561423D01*
X40391310Y-11665823D01*
X40391313Y-11665825D01*
X40525699Y-11721489D01*
X40525700Y-11721489D01*
X41160700Y-11721489D01*
X41295086Y-11665825D01*
X41295089Y-11665823D01*
X41451335Y-11561423D01*
X41451343Y-11561417D01*
X41584217Y-11428543D01*
X41584223Y-11428535D01*
X41688623Y-11272289D01*
X41688625Y-11272286D01*
X41744289Y-11137900D01*
X41160700Y-11137900D01*
X41160700Y-11721489D01*
X40525700Y-11721489D01*
X40525700Y-11137900D01*
X39942111Y-11137900D01*
X39259816Y-11137900D01*
X39269867Y-11113635D01*
X39308500Y-10919413D01*
X39308500Y-10774322D01*
X40493200Y-10774322D01*
X40493200Y-10866478D01*
X40517052Y-10955495D01*
X40563130Y-11035305D01*
X40628295Y-11100470D01*
X40708105Y-11146548D01*
X40797122Y-11170400D01*
X40889278Y-11170400D01*
X40978295Y-11146548D01*
X41058105Y-11100470D01*
X41123270Y-11035305D01*
X41169348Y-10955495D01*
X41193200Y-10866478D01*
X41193200Y-10774322D01*
X41169348Y-10685305D01*
X41123270Y-10605495D01*
X41058105Y-10540330D01*
X40993274Y-10502900D01*
X41160700Y-10502900D01*
X41744289Y-10502900D01*
X41744289Y-10502899D01*
X41688625Y-10368513D01*
X41688623Y-10368510D01*
X41584223Y-10212264D01*
X41584217Y-10212256D01*
X41451343Y-10079382D01*
X41451339Y-10079379D01*
X41295094Y-9974979D01*
X41295084Y-9974974D01*
X41160700Y-9919310D01*
X41160700Y-10502900D01*
X40993274Y-10502900D01*
X40978295Y-10494252D01*
X40889278Y-10470400D01*
X40797122Y-10470400D01*
X40708105Y-10494252D01*
X40628295Y-10540330D01*
X40563130Y-10605495D01*
X40517052Y-10685305D01*
X40493200Y-10774322D01*
X39308500Y-10774322D01*
X39308500Y-10721387D01*
X39289052Y-10623614D01*
X39272595Y-10540878D01*
X39272593Y-10540872D01*
X39269867Y-10527165D01*
X39259816Y-10502899D01*
X39942110Y-10502899D01*
X39942111Y-10502900D01*
X40525700Y-10502900D01*
X40525700Y-9919310D01*
X40525699Y-9919310D01*
X40391315Y-9974974D01*
X40391305Y-9974979D01*
X40235060Y-10079379D01*
X40235056Y-10079382D01*
X40102182Y-10212256D01*
X40102176Y-10212264D01*
X39997776Y-10368510D01*
X39997774Y-10368513D01*
X39942110Y-10502899D01*
X39259816Y-10502899D01*
X39194085Y-10344212D01*
X39194084Y-10344211D01*
X39194081Y-10344205D01*
X39084067Y-10179559D01*
X39084064Y-10179555D01*
X38944044Y-10039535D01*
X38944040Y-10039532D01*
X38816009Y-9953984D01*
X38771204Y-9900372D01*
X38760900Y-9850882D01*
X38760900Y-9594219D01*
X47180500Y-9594219D01*
X47180500Y-11335371D01*
X47180502Y-11335394D01*
X47183461Y-11360906D01*
X47183462Y-11360909D01*
X47229565Y-11465324D01*
X47229566Y-11465325D01*
X47310275Y-11546034D01*
X47414691Y-11592138D01*
X47440221Y-11595100D01*
X49181378Y-11595099D01*
X49206909Y-11592138D01*
X49311325Y-11546034D01*
X49392034Y-11465325D01*
X49438138Y-11360909D01*
X49441100Y-11335379D01*
X49441099Y-10375843D01*
X49720500Y-10375843D01*
X49720500Y-10553757D01*
X49727167Y-10595852D01*
X49748332Y-10729480D01*
X49803308Y-10898682D01*
X49855331Y-11000782D01*
X49884081Y-11057206D01*
X49988656Y-11201141D01*
X50114459Y-11326944D01*
X50258394Y-11431519D01*
X50416915Y-11512290D01*
X50416917Y-11512291D01*
X50471861Y-11530143D01*
X50586121Y-11567268D01*
X50761843Y-11595100D01*
X50761844Y-11595100D01*
X50939756Y-11595100D01*
X50939757Y-11595100D01*
X51115479Y-11567268D01*
X51284685Y-11512290D01*
X51443206Y-11431519D01*
X51587141Y-11326944D01*
X51712944Y-11201141D01*
X51817519Y-11057206D01*
X51898290Y-10898685D01*
X51953268Y-10729479D01*
X51981100Y-10553757D01*
X51981100Y-10375843D01*
X52260500Y-10375843D01*
X52260500Y-10553757D01*
X52267167Y-10595852D01*
X52288332Y-10729480D01*
X52343308Y-10898682D01*
X52395331Y-11000782D01*
X52424081Y-11057206D01*
X52528656Y-11201141D01*
X52654459Y-11326944D01*
X52798394Y-11431519D01*
X52956915Y-11512290D01*
X52956917Y-11512291D01*
X53011861Y-11530143D01*
X53126121Y-11567268D01*
X53301843Y-11595100D01*
X53301844Y-11595100D01*
X53479756Y-11595100D01*
X53479757Y-11595100D01*
X53655479Y-11567268D01*
X53824685Y-11512290D01*
X53983206Y-11431519D01*
X54127141Y-11326944D01*
X54252944Y-11201141D01*
X54357519Y-11057206D01*
X54438290Y-10898685D01*
X54493268Y-10729479D01*
X54521100Y-10553757D01*
X54521100Y-10375843D01*
X54800500Y-10375843D01*
X54800500Y-10553757D01*
X54807167Y-10595852D01*
X54828332Y-10729480D01*
X54883308Y-10898682D01*
X54935331Y-11000782D01*
X54964081Y-11057206D01*
X55068656Y-11201141D01*
X55194459Y-11326944D01*
X55338394Y-11431519D01*
X55496915Y-11512290D01*
X55496917Y-11512291D01*
X55551861Y-11530143D01*
X55666121Y-11567268D01*
X55841843Y-11595100D01*
X55841844Y-11595100D01*
X56019756Y-11595100D01*
X56019757Y-11595100D01*
X56195479Y-11567268D01*
X56364685Y-11512290D01*
X56523206Y-11431519D01*
X56667141Y-11326944D01*
X56792944Y-11201141D01*
X56897519Y-11057206D01*
X56978290Y-10898685D01*
X57033268Y-10729479D01*
X57061100Y-10553757D01*
X57061100Y-10375843D01*
X57340500Y-10375843D01*
X57340500Y-10553757D01*
X57347167Y-10595852D01*
X57368332Y-10729480D01*
X57423308Y-10898682D01*
X57475331Y-11000782D01*
X57504081Y-11057206D01*
X57608656Y-11201141D01*
X57734459Y-11326944D01*
X57878394Y-11431519D01*
X58036915Y-11512290D01*
X58036917Y-11512291D01*
X58091861Y-11530143D01*
X58206121Y-11567268D01*
X58381843Y-11595100D01*
X58381844Y-11595100D01*
X58559756Y-11595100D01*
X58559757Y-11595100D01*
X58735479Y-11567268D01*
X58904685Y-11512290D01*
X59063206Y-11431519D01*
X59207141Y-11326944D01*
X59332944Y-11201141D01*
X59437519Y-11057206D01*
X59518290Y-10898685D01*
X59573268Y-10729479D01*
X59601100Y-10553757D01*
X59601100Y-10379881D01*
X59931800Y-10379881D01*
X59931800Y-10549718D01*
X59958368Y-10717466D01*
X60010853Y-10878996D01*
X60057007Y-10969577D01*
X60466839Y-10559747D01*
X60498282Y-10677092D01*
X60570690Y-10802508D01*
X60673092Y-10904910D01*
X60798508Y-10977318D01*
X60915851Y-11008760D01*
X60506020Y-11418590D01*
X60596609Y-11464747D01*
X60758133Y-11517231D01*
X60925882Y-11543800D01*
X61095718Y-11543800D01*
X61263466Y-11517231D01*
X61424993Y-11464746D01*
X61424997Y-11464745D01*
X61515578Y-11418590D01*
X61105749Y-11008760D01*
X61223092Y-10977318D01*
X61348508Y-10904910D01*
X61450910Y-10802508D01*
X61523318Y-10677092D01*
X61554760Y-10559748D01*
X61964590Y-10969578D01*
X62010745Y-10878997D01*
X62010746Y-10878993D01*
X62063231Y-10717466D01*
X62089800Y-10549718D01*
X62089800Y-10379881D01*
X62063231Y-10212133D01*
X62010747Y-10050609D01*
X61964590Y-9960020D01*
X61554760Y-10369850D01*
X61523318Y-10252508D01*
X61450910Y-10127092D01*
X61348508Y-10024690D01*
X61223092Y-9952282D01*
X61105748Y-9920839D01*
X61515578Y-9511008D01*
X61424996Y-9464853D01*
X61263466Y-9412368D01*
X61095718Y-9385800D01*
X60925882Y-9385800D01*
X60758132Y-9412369D01*
X60758129Y-9412369D01*
X60596610Y-9464850D01*
X60506021Y-9511008D01*
X60915852Y-9920839D01*
X60798508Y-9952282D01*
X60673092Y-10024690D01*
X60570690Y-10127092D01*
X60498282Y-10252508D01*
X60466839Y-10369852D01*
X60057008Y-9960021D01*
X60010850Y-10050610D01*
X59958369Y-10212129D01*
X59958369Y-10212132D01*
X59931800Y-10379881D01*
X59601100Y-10379881D01*
X59601100Y-10375843D01*
X59573268Y-10200121D01*
X59533127Y-10076579D01*
X59518291Y-10030917D01*
X59478224Y-9952282D01*
X59437519Y-9872394D01*
X59332944Y-9728459D01*
X59207141Y-9602656D01*
X59063206Y-9498081D01*
X58997987Y-9464850D01*
X58904682Y-9417308D01*
X58735480Y-9362332D01*
X58647618Y-9348416D01*
X58559757Y-9334500D01*
X58381843Y-9334500D01*
X58323269Y-9343777D01*
X58206119Y-9362332D01*
X58036917Y-9417308D01*
X57878393Y-9498081D01*
X57796273Y-9557745D01*
X57734459Y-9602656D01*
X57734457Y-9602658D01*
X57734456Y-9602658D01*
X57608658Y-9728456D01*
X57608658Y-9728457D01*
X57608656Y-9728459D01*
X57563745Y-9790273D01*
X57504081Y-9872393D01*
X57423308Y-10030917D01*
X57368332Y-10200119D01*
X57349514Y-10318930D01*
X57340500Y-10375843D01*
X57061100Y-10375843D01*
X57033268Y-10200121D01*
X56993127Y-10076579D01*
X56978291Y-10030917D01*
X56938224Y-9952282D01*
X56897519Y-9872394D01*
X56792944Y-9728459D01*
X56667141Y-9602656D01*
X56523206Y-9498081D01*
X56457987Y-9464850D01*
X56364682Y-9417308D01*
X56195480Y-9362332D01*
X56107618Y-9348416D01*
X56019757Y-9334500D01*
X55841843Y-9334500D01*
X55783269Y-9343777D01*
X55666119Y-9362332D01*
X55496917Y-9417308D01*
X55338393Y-9498081D01*
X55256273Y-9557745D01*
X55194459Y-9602656D01*
X55194457Y-9602658D01*
X55194456Y-9602658D01*
X55068658Y-9728456D01*
X55068658Y-9728457D01*
X55068656Y-9728459D01*
X55023745Y-9790273D01*
X54964081Y-9872393D01*
X54883308Y-10030917D01*
X54828332Y-10200119D01*
X54809514Y-10318930D01*
X54800500Y-10375843D01*
X54521100Y-10375843D01*
X54493268Y-10200121D01*
X54453127Y-10076579D01*
X54438291Y-10030917D01*
X54398224Y-9952282D01*
X54357519Y-9872394D01*
X54252944Y-9728459D01*
X54127141Y-9602656D01*
X53983206Y-9498081D01*
X53917987Y-9464850D01*
X53824682Y-9417308D01*
X53655480Y-9362332D01*
X53567618Y-9348416D01*
X53479757Y-9334500D01*
X53301843Y-9334500D01*
X53243269Y-9343777D01*
X53126119Y-9362332D01*
X52956917Y-9417308D01*
X52798393Y-9498081D01*
X52716273Y-9557745D01*
X52654459Y-9602656D01*
X52654457Y-9602658D01*
X52654456Y-9602658D01*
X52528658Y-9728456D01*
X52528658Y-9728457D01*
X52528656Y-9728459D01*
X52483745Y-9790273D01*
X52424081Y-9872393D01*
X52343308Y-10030917D01*
X52288332Y-10200119D01*
X52269514Y-10318930D01*
X52260500Y-10375843D01*
X51981100Y-10375843D01*
X51953268Y-10200121D01*
X51913127Y-10076579D01*
X51898291Y-10030917D01*
X51858224Y-9952282D01*
X51817519Y-9872394D01*
X51712944Y-9728459D01*
X51587141Y-9602656D01*
X51443206Y-9498081D01*
X51377987Y-9464850D01*
X51284682Y-9417308D01*
X51115480Y-9362332D01*
X51027618Y-9348416D01*
X50939757Y-9334500D01*
X50761843Y-9334500D01*
X50703269Y-9343777D01*
X50586119Y-9362332D01*
X50416917Y-9417308D01*
X50258393Y-9498081D01*
X50176273Y-9557745D01*
X50114459Y-9602656D01*
X50114457Y-9602658D01*
X50114456Y-9602658D01*
X49988658Y-9728456D01*
X49988658Y-9728457D01*
X49988656Y-9728459D01*
X49943745Y-9790273D01*
X49884081Y-9872393D01*
X49803308Y-10030917D01*
X49748332Y-10200119D01*
X49729514Y-10318930D01*
X49720500Y-10375843D01*
X49441099Y-10375843D01*
X49441099Y-9594222D01*
X49438138Y-9568691D01*
X49392034Y-9464275D01*
X49311325Y-9383566D01*
X49311323Y-9383565D01*
X49206910Y-9337462D01*
X49181379Y-9334500D01*
X47440228Y-9334500D01*
X47440205Y-9334502D01*
X47414693Y-9337461D01*
X47414690Y-9337462D01*
X47310275Y-9383565D01*
X47229566Y-9464274D01*
X47183462Y-9568688D01*
X47183462Y-9568690D01*
X47180500Y-9594219D01*
X38760900Y-9594219D01*
X38760900Y-7835843D01*
X47180500Y-7835843D01*
X47180500Y-8013756D01*
X47208332Y-8189480D01*
X47263308Y-8358682D01*
X47299432Y-8429578D01*
X47344081Y-8517206D01*
X47448656Y-8661141D01*
X47574459Y-8786944D01*
X47718394Y-8891519D01*
X47876915Y-8972290D01*
X47876917Y-8972291D01*
X47961518Y-8999779D01*
X48046121Y-9027268D01*
X48221843Y-9055100D01*
X48221844Y-9055100D01*
X48399756Y-9055100D01*
X48399757Y-9055100D01*
X48575479Y-9027268D01*
X48744685Y-8972290D01*
X48903206Y-8891519D01*
X49047141Y-8786944D01*
X49172944Y-8661141D01*
X49277519Y-8517206D01*
X49358290Y-8358685D01*
X49413268Y-8189479D01*
X49441100Y-8013757D01*
X49441100Y-7835843D01*
X49720500Y-7835843D01*
X49720500Y-8013756D01*
X49748332Y-8189480D01*
X49803308Y-8358682D01*
X49839432Y-8429578D01*
X49884081Y-8517206D01*
X49988656Y-8661141D01*
X50114459Y-8786944D01*
X50258394Y-8891519D01*
X50416915Y-8972290D01*
X50416917Y-8972291D01*
X50501518Y-8999779D01*
X50586121Y-9027268D01*
X50761843Y-9055100D01*
X50761844Y-9055100D01*
X50939756Y-9055100D01*
X50939757Y-9055100D01*
X51115479Y-9027268D01*
X51284685Y-8972290D01*
X51443206Y-8891519D01*
X51587141Y-8786944D01*
X51712944Y-8661141D01*
X51817519Y-8517206D01*
X51898290Y-8358685D01*
X51953268Y-8189479D01*
X51981100Y-8013757D01*
X51981100Y-7835843D01*
X51953268Y-7660121D01*
X51925779Y-7575518D01*
X51898291Y-7490917D01*
X51817518Y-7332393D01*
X51712944Y-7188459D01*
X51587141Y-7062656D01*
X51443206Y-6958081D01*
X51368121Y-6919823D01*
X51284682Y-6877308D01*
X51115480Y-6822332D01*
X51027618Y-6808416D01*
X50939757Y-6794500D01*
X50761843Y-6794500D01*
X50703269Y-6803777D01*
X50586119Y-6822332D01*
X50416917Y-6877308D01*
X50258393Y-6958081D01*
X50176273Y-7017745D01*
X50114459Y-7062656D01*
X50114457Y-7062658D01*
X50114456Y-7062658D01*
X49988658Y-7188456D01*
X49988658Y-7188457D01*
X49988656Y-7188459D01*
X49943745Y-7250273D01*
X49884081Y-7332393D01*
X49803308Y-7490917D01*
X49748332Y-7660119D01*
X49720500Y-7835843D01*
X49441100Y-7835843D01*
X49413268Y-7660121D01*
X49385779Y-7575518D01*
X49358291Y-7490917D01*
X49277518Y-7332393D01*
X49172944Y-7188459D01*
X49047141Y-7062656D01*
X48903206Y-6958081D01*
X48828121Y-6919823D01*
X48744682Y-6877308D01*
X48575480Y-6822332D01*
X48487618Y-6808416D01*
X48399757Y-6794500D01*
X48221843Y-6794500D01*
X48163269Y-6803777D01*
X48046119Y-6822332D01*
X47876917Y-6877308D01*
X47718393Y-6958081D01*
X47636273Y-7017745D01*
X47574459Y-7062656D01*
X47574457Y-7062658D01*
X47574456Y-7062658D01*
X47448658Y-7188456D01*
X47448658Y-7188457D01*
X47448656Y-7188459D01*
X47403745Y-7250273D01*
X47344081Y-7332393D01*
X47263308Y-7490917D01*
X47208332Y-7660119D01*
X47180500Y-7835843D01*
X38760900Y-7835843D01*
X38760900Y-6732400D01*
X38780585Y-6665361D01*
X38828606Y-6621915D01*
X38831704Y-6620337D01*
X38972455Y-6518076D01*
X39095476Y-6395055D01*
X39197737Y-6254304D01*
X39276722Y-6099288D01*
X39330484Y-5933825D01*
X39342553Y-5857625D01*
X39357700Y-5761994D01*
X39357700Y-5588005D01*
X39330484Y-5416174D01*
X39310218Y-5353803D01*
X39276722Y-5250712D01*
X39197737Y-5095696D01*
X39142372Y-5019492D01*
X39095481Y-4954951D01*
X39095477Y-4954946D01*
X38972453Y-4831922D01*
X38972448Y-4831918D01*
X38831707Y-4729665D01*
X38831706Y-4729664D01*
X38831704Y-4729663D01*
X38676688Y-4650678D01*
X38633776Y-4636735D01*
X38511225Y-4596915D01*
X38339394Y-4569700D01*
X38339389Y-4569700D01*
X38165411Y-4569700D01*
X38165406Y-4569700D01*
X37993574Y-4596915D01*
X37828109Y-4650679D01*
X37673092Y-4729665D01*
X37532351Y-4831918D01*
X37532346Y-4831922D01*
X37409322Y-4954946D01*
X37409318Y-4954951D01*
X37307065Y-5095692D01*
X37228079Y-5250709D01*
X37174315Y-5416174D01*
X37147100Y-5588005D01*
X30772500Y-5588005D01*
X30745284Y-5416174D01*
X30725018Y-5353803D01*
X30691522Y-5250712D01*
X30612537Y-5095696D01*
X30557172Y-5019492D01*
X30510281Y-4954951D01*
X30510277Y-4954946D01*
X30387253Y-4831922D01*
X30387248Y-4831918D01*
X30246507Y-4729665D01*
X30246506Y-4729664D01*
X30246504Y-4729663D01*
X30091488Y-4650678D01*
X30048576Y-4636735D01*
X29926025Y-4596915D01*
X29754194Y-4569700D01*
X29754189Y-4569700D01*
X29580211Y-4569700D01*
X29580206Y-4569700D01*
X29408374Y-4596915D01*
X29242909Y-4650679D01*
X29087892Y-4729665D01*
X28947151Y-4831918D01*
X28947146Y-4831922D01*
X28824122Y-4954946D01*
X28824118Y-4954951D01*
X28721865Y-5095692D01*
X28642879Y-5250709D01*
X28589115Y-5416174D01*
X28561900Y-5588005D01*
X22187300Y-5588005D01*
X22160084Y-5416174D01*
X22139818Y-5353803D01*
X22106322Y-5250712D01*
X22027337Y-5095696D01*
X21971972Y-5019492D01*
X21925081Y-4954951D01*
X21925077Y-4954946D01*
X21802053Y-4831922D01*
X21802048Y-4831918D01*
X21661307Y-4729665D01*
X21661306Y-4729664D01*
X21661304Y-4729663D01*
X21506288Y-4650678D01*
X21463376Y-4636735D01*
X21340825Y-4596915D01*
X21168994Y-4569700D01*
X21168989Y-4569700D01*
X20995011Y-4569700D01*
X20995006Y-4569700D01*
X20823174Y-4596915D01*
X20657709Y-4650679D01*
X20502692Y-4729665D01*
X20361951Y-4831918D01*
X20361946Y-4831922D01*
X20238922Y-4954946D01*
X20238918Y-4954951D01*
X20136665Y-5095692D01*
X20057679Y-5250709D01*
X20003915Y-5416174D01*
X19976700Y-5588005D01*
X13602100Y-5588005D01*
X13574884Y-5416174D01*
X13554618Y-5353803D01*
X13521122Y-5250712D01*
X13442137Y-5095696D01*
X13386772Y-5019492D01*
X13339881Y-4954951D01*
X13339877Y-4954946D01*
X13216853Y-4831922D01*
X13216848Y-4831918D01*
X13076107Y-4729665D01*
X13076106Y-4729664D01*
X13076104Y-4729663D01*
X12921088Y-4650678D01*
X12878176Y-4636735D01*
X12755625Y-4596915D01*
X12583794Y-4569700D01*
X12583789Y-4569700D01*
X12409811Y-4569700D01*
X12409806Y-4569700D01*
X12237974Y-4596915D01*
X12072509Y-4650679D01*
X11917492Y-4729665D01*
X11776751Y-4831918D01*
X11776746Y-4831922D01*
X11653722Y-4954946D01*
X11653718Y-4954951D01*
X11551465Y-5095692D01*
X11472479Y-5250709D01*
X11418715Y-5416174D01*
X11391500Y-5588005D01*
X11391500Y-5761994D01*
X11418715Y-5933825D01*
X11447719Y-6023088D01*
X11472478Y-6099288D01*
X11544429Y-6240500D01*
X11551465Y-6254307D01*
X11653718Y-6395048D01*
X11653722Y-6395053D01*
X11776746Y-6518077D01*
X11776751Y-6518081D01*
X11880812Y-6593685D01*
X11917496Y-6620337D01*
X11920593Y-6621915D01*
X11921555Y-6622823D01*
X11921644Y-6622878D01*
X11921632Y-6622896D01*
X11971388Y-6669885D01*
X11988300Y-6732400D01*
X11988300Y-10121969D01*
X11968615Y-10189008D01*
X11933194Y-10225069D01*
X11906757Y-10242734D01*
X11906752Y-10242739D01*
X11766735Y-10382755D01*
X11766732Y-10382759D01*
X11656718Y-10547405D01*
X11656713Y-10547414D01*
X11580933Y-10730364D01*
X11580931Y-10730372D01*
X11542300Y-10924582D01*
X11542300Y-11122617D01*
X11580931Y-11316827D01*
X11580933Y-11316835D01*
X11656713Y-11499785D01*
X11656718Y-11499794D01*
X11766732Y-11664440D01*
X11766735Y-11664444D01*
X11875781Y-11773490D01*
X11909266Y-11834813D01*
X11912100Y-11861171D01*
X11912100Y-14456941D01*
X11892415Y-14523980D01*
X11860411Y-14556562D01*
X11860665Y-14556871D01*
X11857796Y-14559225D01*
X11856996Y-14560040D01*
X11855958Y-14560733D01*
X11855953Y-14560737D01*
X11715932Y-14700758D01*
X11664328Y-14777991D01*
X11610716Y-14822796D01*
X11561226Y-14833100D01*
X10677255Y-14833100D01*
X10547925Y-14867753D01*
X10431974Y-14934699D01*
X10431971Y-14934701D01*
X8483100Y-16883571D01*
X8483096Y-16883576D01*
X8450570Y-16939914D01*
X8450570Y-16939915D01*
X8416153Y-16999524D01*
X8381500Y-17128855D01*
X8381500Y-36618810D01*
X8361815Y-36685849D01*
X8345181Y-36706491D01*
X6480491Y-38571181D01*
X6419168Y-38604666D01*
X6392810Y-38607500D01*
X4468796Y-38607500D01*
X4401757Y-38587815D01*
X4368478Y-38556385D01*
X4260113Y-38407234D01*
X4260108Y-38407228D01*
X4092571Y-38239691D01*
X4092569Y-38239689D01*
X3900882Y-38100420D01*
X3689767Y-37992850D01*
X3689761Y-37992848D01*
X3464426Y-37919634D01*
X3464427Y-37919634D01*
X3288907Y-37891834D01*
X3230402Y-37882568D01*
X2993462Y-37882568D01*
X2946657Y-37889981D01*
X2759436Y-37919634D01*
X2534102Y-37992848D01*
X2534096Y-37992850D01*
X2322979Y-38100422D01*
X2131301Y-38239683D01*
X2131296Y-38239687D01*
X1539487Y-38831496D01*
X1539483Y-38831501D01*
X1400222Y-39023179D01*
X1292650Y-39234296D01*
X1292648Y-39234302D01*
X1219434Y-39459636D01*
X1182368Y-39693662D01*
X500552Y-39693662D01*
X500552Y-34193662D01*
X1182368Y-34193662D01*
X1182368Y-34430601D01*
X1219434Y-34664627D01*
X1292648Y-34889961D01*
X1292650Y-34889967D01*
X1400222Y-35101084D01*
X1539483Y-35292762D01*
X1539487Y-35292767D01*
X1707032Y-35460312D01*
X1707037Y-35460316D01*
X1857177Y-35569398D01*
X1898719Y-35599580D01*
X2000629Y-35651506D01*
X2109832Y-35707149D01*
X2109838Y-35707151D01*
X2335173Y-35780365D01*
X2335176Y-35780366D01*
X2569198Y-35817432D01*
X2569199Y-35817432D01*
X2806137Y-35817432D01*
X2806138Y-35817432D01*
X3040160Y-35780366D01*
X3040173Y-35780361D01*
X3042648Y-35779768D01*
X3043627Y-35779816D01*
X3044972Y-35779604D01*
X3045016Y-35779886D01*
X3112430Y-35783254D01*
X3169251Y-35823914D01*
X3195068Y-35888839D01*
X3194076Y-35919737D01*
X3182368Y-35993661D01*
X3182368Y-36230601D01*
X3219434Y-36464627D01*
X3292648Y-36689961D01*
X3292650Y-36689967D01*
X3400222Y-36901084D01*
X3539483Y-37092762D01*
X3539487Y-37092767D01*
X3707032Y-37260312D01*
X3707037Y-37260316D01*
X3874229Y-37381787D01*
X3898719Y-37399580D01*
X4036724Y-37469898D01*
X4109832Y-37507149D01*
X4109838Y-37507151D01*
X4335173Y-37580365D01*
X4335176Y-37580366D01*
X4569198Y-37617432D01*
X4569199Y-37617432D01*
X4806137Y-37617432D01*
X4806138Y-37617432D01*
X5040160Y-37580366D01*
X5265503Y-37507149D01*
X5476617Y-37399580D01*
X5668305Y-37260311D01*
X6260111Y-36668505D01*
X6399380Y-36476817D01*
X6506949Y-36265703D01*
X6508167Y-36261956D01*
X6580165Y-36040363D01*
X6580164Y-36040363D01*
X6580166Y-36040360D01*
X6617232Y-35806338D01*
X6617232Y-35569398D01*
X6580166Y-35335376D01*
X6580165Y-35335372D01*
X6506951Y-35110038D01*
X6506949Y-35110032D01*
X6399379Y-34898917D01*
X6260111Y-34707231D01*
X6092569Y-34539689D01*
X5900882Y-34400420D01*
X5689767Y-34292850D01*
X5689761Y-34292848D01*
X5464426Y-34219634D01*
X5464427Y-34219634D01*
X5288907Y-34191834D01*
X5230402Y-34182568D01*
X4993462Y-34182568D01*
X4939212Y-34191160D01*
X4759443Y-34219633D01*
X4756932Y-34220236D01*
X4755949Y-34220186D01*
X4754628Y-34220396D01*
X4754584Y-34220118D01*
X4687150Y-34216738D01*
X4630336Y-34176069D01*
X4604529Y-34111140D01*
X4605522Y-34080265D01*
X4617232Y-34006338D01*
X4617232Y-33769398D01*
X4580166Y-33535376D01*
X4580165Y-33535372D01*
X4506951Y-33310038D01*
X4506949Y-33310032D01*
X4399379Y-33098917D01*
X4260111Y-32907231D01*
X4092569Y-32739689D01*
X3900882Y-32600420D01*
X3689767Y-32492850D01*
X3689761Y-32492848D01*
X3464426Y-32419634D01*
X3464427Y-32419634D01*
X3288907Y-32391834D01*
X3230402Y-32382568D01*
X2993462Y-32382568D01*
X2946657Y-32389981D01*
X2759436Y-32419634D01*
X2534102Y-32492848D01*
X2534096Y-32492850D01*
X2322979Y-32600422D01*
X2131301Y-32739683D01*
X2131296Y-32739687D01*
X1539487Y-33331496D01*
X1539483Y-33331501D01*
X1400222Y-33523179D01*
X1292650Y-33734296D01*
X1292648Y-33734302D01*
X1219434Y-33959636D01*
X1182368Y-34193662D01*
X500552Y-34193662D01*
X500552Y-30493662D01*
X3182368Y-30493662D01*
X3182368Y-30730601D01*
X3219434Y-30964627D01*
X3292648Y-31189961D01*
X3292650Y-31189967D01*
X3400222Y-31401084D01*
X3539483Y-31592762D01*
X3539487Y-31592767D01*
X3707032Y-31760312D01*
X3707037Y-31760316D01*
X3802523Y-31829690D01*
X3898719Y-31899580D01*
X4012214Y-31957409D01*
X4109832Y-32007149D01*
X4109838Y-32007151D01*
X4335173Y-32080365D01*
X4335176Y-32080366D01*
X4569198Y-32117432D01*
X4569199Y-32117432D01*
X4806137Y-32117432D01*
X4806138Y-32117432D01*
X5040160Y-32080366D01*
X5252330Y-32011429D01*
X5265497Y-32007151D01*
X5265503Y-32007149D01*
X5476617Y-31899580D01*
X5668305Y-31760311D01*
X6260111Y-31168505D01*
X6399380Y-30976817D01*
X6506949Y-30765703D01*
X6580166Y-30540360D01*
X6617232Y-30306338D01*
X6617232Y-30069398D01*
X6580166Y-29835376D01*
X6578864Y-29831368D01*
X6506951Y-29610038D01*
X6506949Y-29610032D01*
X6399379Y-29398917D01*
X6388969Y-29384589D01*
X6260111Y-29207231D01*
X6092569Y-29039689D01*
X5900882Y-28900420D01*
X5820502Y-28859464D01*
X5689767Y-28792850D01*
X5689761Y-28792848D01*
X5464426Y-28719634D01*
X5464427Y-28719634D01*
X5288907Y-28691834D01*
X5230402Y-28682568D01*
X4993462Y-28682568D01*
X4946657Y-28689981D01*
X4759436Y-28719634D01*
X4534102Y-28792848D01*
X4534096Y-28792850D01*
X4322979Y-28900422D01*
X4131301Y-29039683D01*
X4131296Y-29039687D01*
X3539487Y-29631496D01*
X3539483Y-29631501D01*
X3400222Y-29823179D01*
X3292650Y-30034296D01*
X3292648Y-30034302D01*
X3219434Y-30259636D01*
X3182368Y-30493662D01*
X500552Y-30493662D01*
X500552Y-4108872D01*
X1899299Y-4108872D01*
X1899299Y-4371127D01*
X1915411Y-4493500D01*
X1933529Y-4631116D01*
X2001401Y-4884420D01*
X2001404Y-4884427D01*
X2101754Y-5126693D01*
X2101759Y-5126704D01*
X2232871Y-5353795D01*
X2232882Y-5353811D01*
X2392515Y-5561850D01*
X2392521Y-5561857D01*
X2577942Y-5747278D01*
X2577948Y-5747283D01*
X2785997Y-5906924D01*
X2786004Y-5906928D01*
X3013095Y-6038040D01*
X3013100Y-6038042D01*
X3013103Y-6038044D01*
X3255380Y-6138399D01*
X3508684Y-6206271D01*
X3768680Y-6240501D01*
X3768687Y-6240501D01*
X4030913Y-6240501D01*
X4030920Y-6240501D01*
X4290916Y-6206271D01*
X4544220Y-6138399D01*
X4786497Y-6038044D01*
X5013603Y-5906924D01*
X5221652Y-5747283D01*
X5407083Y-5561852D01*
X5566724Y-5353803D01*
X5697844Y-5126697D01*
X5798199Y-4884420D01*
X5866071Y-4631116D01*
X5900301Y-4371120D01*
X5900301Y-4108880D01*
X5866071Y-3848884D01*
X5798199Y-3595580D01*
X5697844Y-3353303D01*
X5697842Y-3353300D01*
X5697840Y-3353295D01*
X5566728Y-3126204D01*
X5566724Y-3126197D01*
X5407083Y-2918148D01*
X5407078Y-2918142D01*
X5221657Y-2732721D01*
X5221650Y-2732715D01*
X5013611Y-2573082D01*
X5013609Y-2573080D01*
X5013603Y-2573076D01*
X5013598Y-2573073D01*
X5013595Y-2573071D01*
X4786504Y-2441959D01*
X4786501Y-2441958D01*
X4786499Y-2441957D01*
X4786497Y-2441956D01*
X4782741Y-2440400D01*
X4782740Y-2440399D01*
X4571122Y-2352744D01*
X4544220Y-2341601D01*
X4498756Y-2329419D01*
X11391500Y-2329419D01*
X11391500Y-4020571D01*
X11391502Y-4020594D01*
X11394461Y-4046106D01*
X11394462Y-4046109D01*
X11440565Y-4150524D01*
X11440566Y-4150525D01*
X11521275Y-4231234D01*
X11625691Y-4277338D01*
X11651221Y-4280300D01*
X13342378Y-4280299D01*
X13367909Y-4277338D01*
X13472325Y-4231234D01*
X13553034Y-4150525D01*
X13599138Y-4046109D01*
X13602100Y-4020579D01*
X13602099Y-2329422D01*
X13602099Y-2329419D01*
X19976700Y-2329419D01*
X19976700Y-4020571D01*
X19976702Y-4020594D01*
X19979661Y-4046106D01*
X19979662Y-4046109D01*
X20025765Y-4150524D01*
X20025766Y-4150525D01*
X20106475Y-4231234D01*
X20210891Y-4277338D01*
X20236421Y-4280300D01*
X21927578Y-4280299D01*
X21953109Y-4277338D01*
X22057525Y-4231234D01*
X22138234Y-4150525D01*
X22184338Y-4046109D01*
X22187300Y-4020579D01*
X22187299Y-2329422D01*
X22187299Y-2329419D01*
X28561900Y-2329419D01*
X28561900Y-4020571D01*
X28561902Y-4020594D01*
X28564861Y-4046106D01*
X28564862Y-4046109D01*
X28610965Y-4150524D01*
X28610966Y-4150525D01*
X28691675Y-4231234D01*
X28796091Y-4277338D01*
X28821621Y-4280300D01*
X30512778Y-4280299D01*
X30538309Y-4277338D01*
X30642725Y-4231234D01*
X30723434Y-4150525D01*
X30769538Y-4046109D01*
X30772500Y-4020579D01*
X30772499Y-2329422D01*
X30769538Y-2303891D01*
X30723434Y-2199475D01*
X30642725Y-2118766D01*
X30595894Y-2098088D01*
X30538310Y-2072662D01*
X30512779Y-2069700D01*
X28821628Y-2069700D01*
X28821605Y-2069702D01*
X28796093Y-2072661D01*
X28796090Y-2072662D01*
X28691675Y-2118765D01*
X28610966Y-2199474D01*
X28564862Y-2303888D01*
X28564862Y-2303890D01*
X28561900Y-2329419D01*
X22187299Y-2329419D01*
X22187299Y-2329416D01*
X22184338Y-2303893D01*
X22184338Y-2303891D01*
X22138234Y-2199475D01*
X22057525Y-2118766D01*
X22010694Y-2098088D01*
X21953110Y-2072662D01*
X21927579Y-2069700D01*
X20236428Y-2069700D01*
X20236405Y-2069702D01*
X20210893Y-2072661D01*
X20210890Y-2072662D01*
X20106475Y-2118765D01*
X20025766Y-2199474D01*
X19979662Y-2303888D01*
X19979662Y-2303890D01*
X19976700Y-2329419D01*
X13602099Y-2329419D01*
X13602099Y-2329416D01*
X13599138Y-2303893D01*
X13599138Y-2303891D01*
X13553034Y-2199475D01*
X13472325Y-2118766D01*
X13425494Y-2098088D01*
X13367910Y-2072662D01*
X13342379Y-2069700D01*
X11651228Y-2069700D01*
X11651205Y-2069702D01*
X11625693Y-2072661D01*
X11625690Y-2072662D01*
X11521275Y-2118765D01*
X11440566Y-2199474D01*
X11394462Y-2303888D01*
X11394462Y-2303890D01*
X11391500Y-2329419D01*
X4498756Y-2329419D01*
X4290916Y-2273729D01*
X4247462Y-2268008D01*
X4030927Y-2239499D01*
X4030920Y-2239499D01*
X3768680Y-2239499D01*
X3768672Y-2239499D01*
X3521202Y-2272080D01*
X3508684Y-2273729D01*
X3424249Y-2296353D01*
X3255386Y-2341599D01*
X3255372Y-2341604D01*
X3013106Y-2441954D01*
X3013095Y-2441959D01*
X2786004Y-2573071D01*
X2785988Y-2573082D01*
X2577949Y-2732715D01*
X2577942Y-2732721D01*
X2392521Y-2918142D01*
X2392515Y-2918149D01*
X2232882Y-3126188D01*
X2232871Y-3126204D01*
X2101759Y-3353295D01*
X2101754Y-3353306D01*
X2001404Y-3595572D01*
X2001399Y-3595586D01*
X1933530Y-3848881D01*
X1933528Y-3848892D01*
X1899299Y-4108872D01*
X500552Y-4108872D01*
X500552Y-624500D01*
X520237Y-557461D01*
X573041Y-511706D01*
X624552Y-500500D01*
X39963410Y-500500D01*
X40030449Y-520185D01*
G37*
%TD.AperFunction*%
%TD*%
M02*
