%TF.GenerationSoftware,KiCad,Pcbnew,9.0.0*%
%TF.CreationDate,2025-03-26T11:57:41+11:00*%
%TF.ProjectId,Wing Board 4 TRS Mk IV,57696e67-2042-46f6-9172-642034205452,rev?*%
%TF.SameCoordinates,Original*%
%TF.FileFunction,Soldermask,Top*%
%TF.FilePolarity,Negative*%
%FSLAX46Y46*%
G04 Gerber Fmt 4.6, Leading zero omitted, Abs format (unit mm)*
G04 Created by KiCad (PCBNEW 9.0.0) date 2025-03-26 11:57:41*
%MOMM*%
%LPD*%
G01*
G04 APERTURE LIST*
G04 Aperture macros list*
%AMHorizOval*
0 Thick line with rounded ends*
0 $1 width*
0 $2 $3 position (X,Y) of the first rounded end (center of the circle)*
0 $4 $5 position (X,Y) of the second rounded end (center of the circle)*
0 Add line between two ends*
20,1,$1,$2,$3,$4,$5,0*
0 Add two circle primitives to create the rounded ends*
1,1,$1,$2,$3*
1,1,$1,$4,$5*%
G04 Aperture macros list end*
%ADD10R,1.600000X1.600000*%
%ADD11C,1.600000*%
%ADD12C,2.100000*%
%ADD13C,1.400000*%
%ADD14O,1.400000X1.400000*%
%ADD15HorizOval,2.400000X-0.212132X-0.212132X0.212132X0.212132X0*%
%ADD16R,1.650000X1.650000*%
%ADD17C,1.650000*%
G04 APERTURE END LIST*
D10*
%TO.C,C6*%
X78875467Y-3098800D03*
D11*
X78875467Y-5598800D03*
%TD*%
D12*
%TO.C,J5*%
X73037200Y-41452800D03*
X56807200Y-41452800D03*
X73037200Y-35102800D03*
X56807200Y-35102800D03*
X73037200Y-28752800D03*
X56807200Y-28752800D03*
%TD*%
D13*
%TO.C,R6*%
X78765400Y-11099800D03*
D14*
X81305400Y-11099800D03*
%TD*%
D13*
%TO.C,R12*%
X38328600Y-15240000D03*
D14*
X38328600Y-17780000D03*
%TD*%
D13*
%TO.C,R4*%
X38303200Y-10820400D03*
D14*
X40843200Y-10820400D03*
%TD*%
D10*
%TO.C,C5*%
X70205600Y-3098800D03*
D11*
X70205600Y-5598800D03*
%TD*%
D15*
%TO.C,J2*%
X2899800Y-34100000D03*
X4899800Y-35900000D03*
X4899800Y-42000000D03*
X2899800Y-39600000D03*
X4899800Y-30400000D03*
%TD*%
D13*
%TO.C,R7*%
X87579200Y-11099800D03*
D14*
X90119200Y-11099800D03*
%TD*%
D10*
%TO.C,C7*%
X87545333Y-3098800D03*
D11*
X87545333Y-5598800D03*
%TD*%
D12*
%TO.C,J6*%
X95037200Y-41452800D03*
X78807200Y-41452800D03*
X95037200Y-35102800D03*
X78807200Y-35102800D03*
X95037200Y-28752800D03*
X78807200Y-28752800D03*
%TD*%
D13*
%TO.C,R16*%
X96443800Y-15214600D03*
D14*
X96443800Y-17754600D03*
%TD*%
D13*
%TO.C,R11*%
X29692600Y-15290800D03*
D14*
X29692600Y-17830800D03*
%TD*%
D13*
%TO.C,R5*%
X70205600Y-11099800D03*
D14*
X72745600Y-11099800D03*
%TD*%
D10*
%TO.C,C4*%
X38252400Y-3175000D03*
D11*
X38252400Y-5675000D03*
%TD*%
D10*
%TO.C,C3*%
X29667200Y-3175000D03*
D11*
X29667200Y-5675000D03*
%TD*%
D13*
%TO.C,R9*%
X12496800Y-17881600D03*
D14*
X12496800Y-15341600D03*
%TD*%
D13*
%TO.C,R1*%
X12547600Y-11023600D03*
D14*
X15087600Y-11023600D03*
%TD*%
D12*
%TO.C,J4*%
X51037200Y-41452800D03*
X34807200Y-41452800D03*
X51037200Y-35102800D03*
X34807200Y-35102800D03*
X51037200Y-28752800D03*
X34807200Y-28752800D03*
%TD*%
D16*
%TO.C,J1*%
X48310800Y-10464800D03*
D17*
X48310800Y-7924800D03*
X50850800Y-10464800D03*
X50850800Y-7924800D03*
X53390800Y-10464800D03*
X53390800Y-7924800D03*
X55930800Y-10464800D03*
X55930800Y-7924800D03*
X58470800Y-10464800D03*
X58470800Y-7924800D03*
X61010800Y-10464800D03*
X61010800Y-7924800D03*
%TD*%
D13*
%TO.C,R13*%
X70154800Y-15163800D03*
D14*
X70154800Y-17703800D03*
%TD*%
D10*
%TO.C,C8*%
X96215200Y-3098800D03*
D11*
X96215200Y-5598800D03*
%TD*%
D13*
%TO.C,R14*%
X78765400Y-15214600D03*
D14*
X78765400Y-17754600D03*
%TD*%
D15*
%TO.C,J7*%
X101899800Y-34100000D03*
X103899800Y-35900000D03*
X103899800Y-42000000D03*
X101899800Y-39600000D03*
X103899800Y-30400000D03*
%TD*%
D12*
%TO.C,J3*%
X29037200Y-41452800D03*
X12807200Y-41452800D03*
X29037200Y-35102800D03*
X12807200Y-35102800D03*
X29037200Y-28752800D03*
X12807200Y-28752800D03*
%TD*%
D13*
%TO.C,R8*%
X96393000Y-11074400D03*
D14*
X98933000Y-11074400D03*
%TD*%
D13*
%TO.C,R10*%
X21056600Y-15392400D03*
D14*
X21056600Y-17932400D03*
%TD*%
D13*
%TO.C,R3*%
X29743400Y-10820400D03*
D14*
X32283400Y-10820400D03*
%TD*%
D10*
%TO.C,C2*%
X21082000Y-3175000D03*
D11*
X21082000Y-5675000D03*
%TD*%
D10*
%TO.C,C1*%
X12496800Y-3175000D03*
D11*
X12496800Y-5675000D03*
%TD*%
D13*
%TO.C,R15*%
X87630000Y-15189200D03*
D14*
X87630000Y-17729200D03*
%TD*%
D13*
%TO.C,R2*%
X21031200Y-10922000D03*
D14*
X23571200Y-10922000D03*
%TD*%
M02*
