%TF.GenerationSoftware,KiCad,Pcbnew,9.0.0*%
%TF.CreationDate,2025-03-26T11:50:56+11:00*%
%TF.ProjectId,Wing Board 4 XLR MK II,57696e67-2042-46f6-9172-64203420584c,rev?*%
%TF.SameCoordinates,Original*%
%TF.FileFunction,Legend,Top*%
%TF.FilePolarity,Positive*%
%FSLAX46Y46*%
G04 Gerber Fmt 4.6, Leading zero omitted, Abs format (unit mm)*
G04 Created by KiCad (PCBNEW 9.0.0) date 2025-03-26 11:50:56*
%MOMM*%
%LPD*%
G01*
G04 APERTURE LIST*
%ADD10C,0.228600*%
%ADD11C,0.300000*%
%ADD12C,0.203200*%
%ADD13C,0.177800*%
%ADD14C,0.150000*%
%ADD15C,0.120000*%
%ADD16C,0.200000*%
%ADD17C,1.400000*%
%ADD18O,1.400000X1.400000*%
%ADD19C,1.600000*%
%ADD20C,3.400000*%
%ADD21C,2.900000*%
%ADD22R,1.600000X1.600000*%
%ADD23C,3.500001*%
%ADD24R,1.650000X1.650000*%
%ADD25C,1.650000*%
G04 APERTURE END LIST*
D10*
X78687990Y-8275345D02*
X79486276Y-8275345D01*
X79087133Y-9672345D02*
X79087133Y-8275345D01*
X79885419Y-9273202D02*
X80550657Y-9273202D01*
X79752371Y-9672345D02*
X80218038Y-8275345D01*
X80218038Y-8275345D02*
X80683704Y-9672345D01*
X81149372Y-9140155D02*
X82213753Y-9140155D01*
X82745943Y-8275345D02*
X83677276Y-9672345D01*
X83677276Y-8275345D02*
X82745943Y-9672345D01*
X84209467Y-9672345D02*
X84209467Y-8275345D01*
X84874705Y-9140155D02*
X85939086Y-9140155D01*
X86870419Y-8275345D02*
X87003466Y-8275345D01*
X87003466Y-8275345D02*
X87136514Y-8341869D01*
X87136514Y-8341869D02*
X87203038Y-8408393D01*
X87203038Y-8408393D02*
X87269562Y-8541441D01*
X87269562Y-8541441D02*
X87336085Y-8807536D01*
X87336085Y-8807536D02*
X87336085Y-9140155D01*
X87336085Y-9140155D02*
X87269562Y-9406250D01*
X87269562Y-9406250D02*
X87203038Y-9539298D01*
X87203038Y-9539298D02*
X87136514Y-9605822D01*
X87136514Y-9605822D02*
X87003466Y-9672345D01*
X87003466Y-9672345D02*
X86870419Y-9672345D01*
X86870419Y-9672345D02*
X86737371Y-9605822D01*
X86737371Y-9605822D02*
X86670847Y-9539298D01*
X86670847Y-9539298D02*
X86604324Y-9406250D01*
X86604324Y-9406250D02*
X86537800Y-9140155D01*
X86537800Y-9140155D02*
X86537800Y-8807536D01*
X86537800Y-8807536D02*
X86604324Y-8541441D01*
X86604324Y-8541441D02*
X86670847Y-8408393D01*
X86670847Y-8408393D02*
X86737371Y-8341869D01*
X86737371Y-8341869D02*
X86870419Y-8275345D01*
X88666561Y-9672345D02*
X87868276Y-9672345D01*
X88267419Y-9672345D02*
X88267419Y-8275345D01*
X88267419Y-8275345D02*
X88134371Y-8474917D01*
X88134371Y-8474917D02*
X88001323Y-8607964D01*
X88001323Y-8607964D02*
X87868276Y-8674488D01*
D11*
X53248425Y-23954828D02*
X54105568Y-23954828D01*
X53676996Y-25454828D02*
X53676996Y-23954828D01*
X54891282Y-23954828D02*
X55176996Y-23954828D01*
X55176996Y-23954828D02*
X55319853Y-24026257D01*
X55319853Y-24026257D02*
X55462710Y-24169114D01*
X55462710Y-24169114D02*
X55534139Y-24454828D01*
X55534139Y-24454828D02*
X55534139Y-24954828D01*
X55534139Y-24954828D02*
X55462710Y-25240542D01*
X55462710Y-25240542D02*
X55319853Y-25383400D01*
X55319853Y-25383400D02*
X55176996Y-25454828D01*
X55176996Y-25454828D02*
X54891282Y-25454828D01*
X54891282Y-25454828D02*
X54748425Y-25383400D01*
X54748425Y-25383400D02*
X54605567Y-25240542D01*
X54605567Y-25240542D02*
X54534139Y-24954828D01*
X54534139Y-24954828D02*
X54534139Y-24454828D01*
X54534139Y-24454828D02*
X54605567Y-24169114D01*
X54605567Y-24169114D02*
X54748425Y-24026257D01*
X54748425Y-24026257D02*
X54891282Y-23954828D01*
X56176996Y-25454828D02*
X56176996Y-23954828D01*
X56176996Y-23954828D02*
X56748425Y-23954828D01*
X56748425Y-23954828D02*
X56891282Y-24026257D01*
X56891282Y-24026257D02*
X56962711Y-24097685D01*
X56962711Y-24097685D02*
X57034139Y-24240542D01*
X57034139Y-24240542D02*
X57034139Y-24454828D01*
X57034139Y-24454828D02*
X56962711Y-24597685D01*
X56962711Y-24597685D02*
X56891282Y-24669114D01*
X56891282Y-24669114D02*
X56748425Y-24740542D01*
X56748425Y-24740542D02*
X56176996Y-24740542D01*
D12*
X39359114Y-16293209D02*
X39359114Y-15023209D01*
X39963876Y-16293209D02*
X39963876Y-15023209D01*
X39963876Y-15023209D02*
X40689591Y-16293209D01*
X40689591Y-16293209D02*
X40689591Y-15023209D01*
X43169114Y-15144161D02*
X43229590Y-15083685D01*
X43229590Y-15083685D02*
X43350543Y-15023209D01*
X43350543Y-15023209D02*
X43652924Y-15023209D01*
X43652924Y-15023209D02*
X43773876Y-15083685D01*
X43773876Y-15083685D02*
X43834352Y-15144161D01*
X43834352Y-15144161D02*
X43894829Y-15265113D01*
X43894829Y-15265113D02*
X43894829Y-15386066D01*
X43894829Y-15386066D02*
X43834352Y-15567494D01*
X43834352Y-15567494D02*
X43108638Y-16293209D01*
X43108638Y-16293209D02*
X43894829Y-16293209D01*
X94240048Y-16293209D02*
X94240048Y-15023209D01*
X94844810Y-16293209D02*
X94844810Y-15023209D01*
X94844810Y-15023209D02*
X95570525Y-16293209D01*
X95570525Y-16293209D02*
X95570525Y-15023209D01*
X98654810Y-15446542D02*
X98654810Y-16293209D01*
X98352429Y-14962733D02*
X98050048Y-15869875D01*
X98050048Y-15869875D02*
X98836239Y-15869875D01*
D10*
X13659758Y-9001060D02*
X13526710Y-8934536D01*
X13526710Y-8934536D02*
X13460187Y-8868012D01*
X13460187Y-8868012D02*
X13393663Y-8734964D01*
X13393663Y-8734964D02*
X13393663Y-8668441D01*
X13393663Y-8668441D02*
X13460187Y-8535393D01*
X13460187Y-8535393D02*
X13526710Y-8468869D01*
X13526710Y-8468869D02*
X13659758Y-8402345D01*
X13659758Y-8402345D02*
X13925853Y-8402345D01*
X13925853Y-8402345D02*
X14058901Y-8468869D01*
X14058901Y-8468869D02*
X14125425Y-8535393D01*
X14125425Y-8535393D02*
X14191948Y-8668441D01*
X14191948Y-8668441D02*
X14191948Y-8734964D01*
X14191948Y-8734964D02*
X14125425Y-8868012D01*
X14125425Y-8868012D02*
X14058901Y-8934536D01*
X14058901Y-8934536D02*
X13925853Y-9001060D01*
X13925853Y-9001060D02*
X13659758Y-9001060D01*
X13659758Y-9001060D02*
X13526710Y-9067583D01*
X13526710Y-9067583D02*
X13460187Y-9134107D01*
X13460187Y-9134107D02*
X13393663Y-9267155D01*
X13393663Y-9267155D02*
X13393663Y-9533250D01*
X13393663Y-9533250D02*
X13460187Y-9666298D01*
X13460187Y-9666298D02*
X13526710Y-9732822D01*
X13526710Y-9732822D02*
X13659758Y-9799345D01*
X13659758Y-9799345D02*
X13925853Y-9799345D01*
X13925853Y-9799345D02*
X14058901Y-9732822D01*
X14058901Y-9732822D02*
X14125425Y-9666298D01*
X14125425Y-9666298D02*
X14191948Y-9533250D01*
X14191948Y-9533250D02*
X14191948Y-9267155D01*
X14191948Y-9267155D02*
X14125425Y-9134107D01*
X14125425Y-9134107D02*
X14058901Y-9067583D01*
X14058901Y-9067583D02*
X13925853Y-9001060D01*
X14657615Y-9799345D02*
X15389377Y-8868012D01*
X14657615Y-8868012D02*
X15389377Y-9799345D01*
X16121139Y-9001060D02*
X15988091Y-8934536D01*
X15988091Y-8934536D02*
X15921568Y-8868012D01*
X15921568Y-8868012D02*
X15855044Y-8734964D01*
X15855044Y-8734964D02*
X15855044Y-8668441D01*
X15855044Y-8668441D02*
X15921568Y-8535393D01*
X15921568Y-8535393D02*
X15988091Y-8468869D01*
X15988091Y-8468869D02*
X16121139Y-8402345D01*
X16121139Y-8402345D02*
X16387234Y-8402345D01*
X16387234Y-8402345D02*
X16520282Y-8468869D01*
X16520282Y-8468869D02*
X16586806Y-8535393D01*
X16586806Y-8535393D02*
X16653329Y-8668441D01*
X16653329Y-8668441D02*
X16653329Y-8734964D01*
X16653329Y-8734964D02*
X16586806Y-8868012D01*
X16586806Y-8868012D02*
X16520282Y-8934536D01*
X16520282Y-8934536D02*
X16387234Y-9001060D01*
X16387234Y-9001060D02*
X16121139Y-9001060D01*
X16121139Y-9001060D02*
X15988091Y-9067583D01*
X15988091Y-9067583D02*
X15921568Y-9134107D01*
X15921568Y-9134107D02*
X15855044Y-9267155D01*
X15855044Y-9267155D02*
X15855044Y-9533250D01*
X15855044Y-9533250D02*
X15921568Y-9666298D01*
X15921568Y-9666298D02*
X15988091Y-9732822D01*
X15988091Y-9732822D02*
X16121139Y-9799345D01*
X16121139Y-9799345D02*
X16387234Y-9799345D01*
X16387234Y-9799345D02*
X16520282Y-9732822D01*
X16520282Y-9732822D02*
X16586806Y-9666298D01*
X16586806Y-9666298D02*
X16653329Y-9533250D01*
X16653329Y-9533250D02*
X16653329Y-9267155D01*
X16653329Y-9267155D02*
X16586806Y-9134107D01*
X16586806Y-9134107D02*
X16520282Y-9067583D01*
X16520282Y-9067583D02*
X16387234Y-9001060D01*
X18249901Y-9400202D02*
X18915139Y-9400202D01*
X18116853Y-9799345D02*
X18582520Y-8402345D01*
X18582520Y-8402345D02*
X19048186Y-9799345D01*
X20112568Y-8868012D02*
X20112568Y-9799345D01*
X19513854Y-8868012D02*
X19513854Y-9599774D01*
X19513854Y-9599774D02*
X19580377Y-9732822D01*
X19580377Y-9732822D02*
X19713425Y-9799345D01*
X19713425Y-9799345D02*
X19912996Y-9799345D01*
X19912996Y-9799345D02*
X20046044Y-9732822D01*
X20046044Y-9732822D02*
X20112568Y-9666298D01*
X21376520Y-9799345D02*
X21376520Y-8402345D01*
X21376520Y-9732822D02*
X21243472Y-9799345D01*
X21243472Y-9799345D02*
X20977377Y-9799345D01*
X20977377Y-9799345D02*
X20844329Y-9732822D01*
X20844329Y-9732822D02*
X20777806Y-9666298D01*
X20777806Y-9666298D02*
X20711282Y-9533250D01*
X20711282Y-9533250D02*
X20711282Y-9134107D01*
X20711282Y-9134107D02*
X20777806Y-9001060D01*
X20777806Y-9001060D02*
X20844329Y-8934536D01*
X20844329Y-8934536D02*
X20977377Y-8868012D01*
X20977377Y-8868012D02*
X21243472Y-8868012D01*
X21243472Y-8868012D02*
X21376520Y-8934536D01*
X22041758Y-9799345D02*
X22041758Y-8868012D01*
X22041758Y-8402345D02*
X21975234Y-8468869D01*
X21975234Y-8468869D02*
X22041758Y-8535393D01*
X22041758Y-8535393D02*
X22108281Y-8468869D01*
X22108281Y-8468869D02*
X22041758Y-8402345D01*
X22041758Y-8402345D02*
X22041758Y-8535393D01*
X22906567Y-9799345D02*
X22773519Y-9732822D01*
X22773519Y-9732822D02*
X22706996Y-9666298D01*
X22706996Y-9666298D02*
X22640472Y-9533250D01*
X22640472Y-9533250D02*
X22640472Y-9134107D01*
X22640472Y-9134107D02*
X22706996Y-9001060D01*
X22706996Y-9001060D02*
X22773519Y-8934536D01*
X22773519Y-8934536D02*
X22906567Y-8868012D01*
X22906567Y-8868012D02*
X23106138Y-8868012D01*
X23106138Y-8868012D02*
X23239186Y-8934536D01*
X23239186Y-8934536D02*
X23305710Y-9001060D01*
X23305710Y-9001060D02*
X23372234Y-9134107D01*
X23372234Y-9134107D02*
X23372234Y-9533250D01*
X23372234Y-9533250D02*
X23305710Y-9666298D01*
X23305710Y-9666298D02*
X23239186Y-9732822D01*
X23239186Y-9732822D02*
X23106138Y-9799345D01*
X23106138Y-9799345D02*
X22906567Y-9799345D01*
X24902281Y-8402345D02*
X25833614Y-9799345D01*
X25833614Y-8402345D02*
X24902281Y-9799345D01*
X27031043Y-9799345D02*
X26365805Y-9799345D01*
X26365805Y-9799345D02*
X26365805Y-8402345D01*
X28294995Y-9799345D02*
X27829329Y-9134107D01*
X27496710Y-9799345D02*
X27496710Y-8402345D01*
X27496710Y-8402345D02*
X28028900Y-8402345D01*
X28028900Y-8402345D02*
X28161948Y-8468869D01*
X28161948Y-8468869D02*
X28228471Y-8535393D01*
X28228471Y-8535393D02*
X28294995Y-8668441D01*
X28294995Y-8668441D02*
X28294995Y-8868012D01*
X28294995Y-8868012D02*
X28228471Y-9001060D01*
X28228471Y-9001060D02*
X28161948Y-9067583D01*
X28161948Y-9067583D02*
X28028900Y-9134107D01*
X28028900Y-9134107D02*
X27496710Y-9134107D01*
X29825043Y-8402345D02*
X30157662Y-9799345D01*
X30157662Y-9799345D02*
X30423757Y-8801488D01*
X30423757Y-8801488D02*
X30689852Y-9799345D01*
X30689852Y-9799345D02*
X31022472Y-8402345D01*
X31554662Y-9799345D02*
X31554662Y-8868012D01*
X31554662Y-8402345D02*
X31488138Y-8468869D01*
X31488138Y-8468869D02*
X31554662Y-8535393D01*
X31554662Y-8535393D02*
X31621185Y-8468869D01*
X31621185Y-8468869D02*
X31554662Y-8402345D01*
X31554662Y-8402345D02*
X31554662Y-8535393D01*
X32219900Y-8868012D02*
X32219900Y-9799345D01*
X32219900Y-9001060D02*
X32286423Y-8934536D01*
X32286423Y-8934536D02*
X32419471Y-8868012D01*
X32419471Y-8868012D02*
X32619042Y-8868012D01*
X32619042Y-8868012D02*
X32752090Y-8934536D01*
X32752090Y-8934536D02*
X32818614Y-9067583D01*
X32818614Y-9067583D02*
X32818614Y-9799345D01*
X34082566Y-8868012D02*
X34082566Y-9998917D01*
X34082566Y-9998917D02*
X34016042Y-10131964D01*
X34016042Y-10131964D02*
X33949518Y-10198488D01*
X33949518Y-10198488D02*
X33816471Y-10265012D01*
X33816471Y-10265012D02*
X33616899Y-10265012D01*
X33616899Y-10265012D02*
X33483852Y-10198488D01*
X34082566Y-9732822D02*
X33949518Y-9799345D01*
X33949518Y-9799345D02*
X33683423Y-9799345D01*
X33683423Y-9799345D02*
X33550375Y-9732822D01*
X33550375Y-9732822D02*
X33483852Y-9666298D01*
X33483852Y-9666298D02*
X33417328Y-9533250D01*
X33417328Y-9533250D02*
X33417328Y-9134107D01*
X33417328Y-9134107D02*
X33483852Y-9001060D01*
X33483852Y-9001060D02*
X33550375Y-8934536D01*
X33550375Y-8934536D02*
X33683423Y-8868012D01*
X33683423Y-8868012D02*
X33949518Y-8868012D01*
X33949518Y-8868012D02*
X34082566Y-8934536D01*
X36277851Y-9067583D02*
X36477423Y-9134107D01*
X36477423Y-9134107D02*
X36543946Y-9200631D01*
X36543946Y-9200631D02*
X36610470Y-9333679D01*
X36610470Y-9333679D02*
X36610470Y-9533250D01*
X36610470Y-9533250D02*
X36543946Y-9666298D01*
X36543946Y-9666298D02*
X36477423Y-9732822D01*
X36477423Y-9732822D02*
X36344375Y-9799345D01*
X36344375Y-9799345D02*
X35812185Y-9799345D01*
X35812185Y-9799345D02*
X35812185Y-8402345D01*
X35812185Y-8402345D02*
X36277851Y-8402345D01*
X36277851Y-8402345D02*
X36410899Y-8468869D01*
X36410899Y-8468869D02*
X36477423Y-8535393D01*
X36477423Y-8535393D02*
X36543946Y-8668441D01*
X36543946Y-8668441D02*
X36543946Y-8801488D01*
X36543946Y-8801488D02*
X36477423Y-8934536D01*
X36477423Y-8934536D02*
X36410899Y-9001060D01*
X36410899Y-9001060D02*
X36277851Y-9067583D01*
X36277851Y-9067583D02*
X35812185Y-9067583D01*
X37408756Y-9799345D02*
X37275708Y-9732822D01*
X37275708Y-9732822D02*
X37209185Y-9666298D01*
X37209185Y-9666298D02*
X37142661Y-9533250D01*
X37142661Y-9533250D02*
X37142661Y-9134107D01*
X37142661Y-9134107D02*
X37209185Y-9001060D01*
X37209185Y-9001060D02*
X37275708Y-8934536D01*
X37275708Y-8934536D02*
X37408756Y-8868012D01*
X37408756Y-8868012D02*
X37608327Y-8868012D01*
X37608327Y-8868012D02*
X37741375Y-8934536D01*
X37741375Y-8934536D02*
X37807899Y-9001060D01*
X37807899Y-9001060D02*
X37874423Y-9134107D01*
X37874423Y-9134107D02*
X37874423Y-9533250D01*
X37874423Y-9533250D02*
X37807899Y-9666298D01*
X37807899Y-9666298D02*
X37741375Y-9732822D01*
X37741375Y-9732822D02*
X37608327Y-9799345D01*
X37608327Y-9799345D02*
X37408756Y-9799345D01*
X39071851Y-9799345D02*
X39071851Y-9067583D01*
X39071851Y-9067583D02*
X39005327Y-8934536D01*
X39005327Y-8934536D02*
X38872279Y-8868012D01*
X38872279Y-8868012D02*
X38606184Y-8868012D01*
X38606184Y-8868012D02*
X38473137Y-8934536D01*
X39071851Y-9732822D02*
X38938803Y-9799345D01*
X38938803Y-9799345D02*
X38606184Y-9799345D01*
X38606184Y-9799345D02*
X38473137Y-9732822D01*
X38473137Y-9732822D02*
X38406613Y-9599774D01*
X38406613Y-9599774D02*
X38406613Y-9466726D01*
X38406613Y-9466726D02*
X38473137Y-9333679D01*
X38473137Y-9333679D02*
X38606184Y-9267155D01*
X38606184Y-9267155D02*
X38938803Y-9267155D01*
X38938803Y-9267155D02*
X39071851Y-9200631D01*
X39737089Y-9799345D02*
X39737089Y-8868012D01*
X39737089Y-9134107D02*
X39803612Y-9001060D01*
X39803612Y-9001060D02*
X39870136Y-8934536D01*
X39870136Y-8934536D02*
X40003184Y-8868012D01*
X40003184Y-8868012D02*
X40136231Y-8868012D01*
X41200613Y-9799345D02*
X41200613Y-8402345D01*
X41200613Y-9732822D02*
X41067565Y-9799345D01*
X41067565Y-9799345D02*
X40801470Y-9799345D01*
X40801470Y-9799345D02*
X40668422Y-9732822D01*
X40668422Y-9732822D02*
X40601899Y-9666298D01*
X40601899Y-9666298D02*
X40535375Y-9533250D01*
X40535375Y-9533250D02*
X40535375Y-9134107D01*
X40535375Y-9134107D02*
X40601899Y-9001060D01*
X40601899Y-9001060D02*
X40668422Y-8934536D01*
X40668422Y-8934536D02*
X40801470Y-8868012D01*
X40801470Y-8868012D02*
X41067565Y-8868012D01*
X41067565Y-8868012D02*
X41200613Y-8934536D01*
D13*
X50076705Y-15549812D02*
X49738038Y-15549812D01*
X49738038Y-16082002D02*
X49738038Y-15066002D01*
X49738038Y-15066002D02*
X50221848Y-15066002D01*
X50995943Y-16033622D02*
X50899181Y-16082002D01*
X50899181Y-16082002D02*
X50705657Y-16082002D01*
X50705657Y-16082002D02*
X50608895Y-16033622D01*
X50608895Y-16033622D02*
X50560514Y-15936860D01*
X50560514Y-15936860D02*
X50560514Y-15549812D01*
X50560514Y-15549812D02*
X50608895Y-15453050D01*
X50608895Y-15453050D02*
X50705657Y-15404669D01*
X50705657Y-15404669D02*
X50899181Y-15404669D01*
X50899181Y-15404669D02*
X50995943Y-15453050D01*
X50995943Y-15453050D02*
X51044324Y-15549812D01*
X51044324Y-15549812D02*
X51044324Y-15646574D01*
X51044324Y-15646574D02*
X50560514Y-15743336D01*
X51479752Y-16082002D02*
X51479752Y-15404669D01*
X51479752Y-15501431D02*
X51528133Y-15453050D01*
X51528133Y-15453050D02*
X51624895Y-15404669D01*
X51624895Y-15404669D02*
X51770038Y-15404669D01*
X51770038Y-15404669D02*
X51866800Y-15453050D01*
X51866800Y-15453050D02*
X51915181Y-15549812D01*
X51915181Y-15549812D02*
X51915181Y-16082002D01*
X51915181Y-15549812D02*
X51963562Y-15453050D01*
X51963562Y-15453050D02*
X52060324Y-15404669D01*
X52060324Y-15404669D02*
X52205467Y-15404669D01*
X52205467Y-15404669D02*
X52302228Y-15453050D01*
X52302228Y-15453050D02*
X52350609Y-15549812D01*
X52350609Y-15549812D02*
X52350609Y-16082002D01*
X53269848Y-16082002D02*
X53269848Y-15549812D01*
X53269848Y-15549812D02*
X53221467Y-15453050D01*
X53221467Y-15453050D02*
X53124705Y-15404669D01*
X53124705Y-15404669D02*
X52931181Y-15404669D01*
X52931181Y-15404669D02*
X52834419Y-15453050D01*
X53269848Y-16033622D02*
X53173086Y-16082002D01*
X53173086Y-16082002D02*
X52931181Y-16082002D01*
X52931181Y-16082002D02*
X52834419Y-16033622D01*
X52834419Y-16033622D02*
X52786038Y-15936860D01*
X52786038Y-15936860D02*
X52786038Y-15840098D01*
X52786038Y-15840098D02*
X52834419Y-15743336D01*
X52834419Y-15743336D02*
X52931181Y-15694955D01*
X52931181Y-15694955D02*
X53173086Y-15694955D01*
X53173086Y-15694955D02*
X53269848Y-15646574D01*
X53898800Y-16082002D02*
X53802038Y-16033622D01*
X53802038Y-16033622D02*
X53753657Y-15936860D01*
X53753657Y-15936860D02*
X53753657Y-15066002D01*
X54672895Y-16033622D02*
X54576133Y-16082002D01*
X54576133Y-16082002D02*
X54382609Y-16082002D01*
X54382609Y-16082002D02*
X54285847Y-16033622D01*
X54285847Y-16033622D02*
X54237466Y-15936860D01*
X54237466Y-15936860D02*
X54237466Y-15549812D01*
X54237466Y-15549812D02*
X54285847Y-15453050D01*
X54285847Y-15453050D02*
X54382609Y-15404669D01*
X54382609Y-15404669D02*
X54576133Y-15404669D01*
X54576133Y-15404669D02*
X54672895Y-15453050D01*
X54672895Y-15453050D02*
X54721276Y-15549812D01*
X54721276Y-15549812D02*
X54721276Y-15646574D01*
X54721276Y-15646574D02*
X54237466Y-15743336D01*
X55930799Y-16082002D02*
X55930799Y-15404669D01*
X55930799Y-15066002D02*
X55882418Y-15114383D01*
X55882418Y-15114383D02*
X55930799Y-15162764D01*
X55930799Y-15162764D02*
X55979180Y-15114383D01*
X55979180Y-15114383D02*
X55930799Y-15066002D01*
X55930799Y-15066002D02*
X55930799Y-15162764D01*
X56414609Y-15404669D02*
X56414609Y-16082002D01*
X56414609Y-15501431D02*
X56462990Y-15453050D01*
X56462990Y-15453050D02*
X56559752Y-15404669D01*
X56559752Y-15404669D02*
X56704895Y-15404669D01*
X56704895Y-15404669D02*
X56801657Y-15453050D01*
X56801657Y-15453050D02*
X56850038Y-15549812D01*
X56850038Y-15549812D02*
X56850038Y-16082002D01*
X57333847Y-15404669D02*
X57333847Y-16420669D01*
X57333847Y-15453050D02*
X57430609Y-15404669D01*
X57430609Y-15404669D02*
X57624133Y-15404669D01*
X57624133Y-15404669D02*
X57720895Y-15453050D01*
X57720895Y-15453050D02*
X57769276Y-15501431D01*
X57769276Y-15501431D02*
X57817657Y-15598193D01*
X57817657Y-15598193D02*
X57817657Y-15888479D01*
X57817657Y-15888479D02*
X57769276Y-15985241D01*
X57769276Y-15985241D02*
X57720895Y-16033622D01*
X57720895Y-16033622D02*
X57624133Y-16082002D01*
X57624133Y-16082002D02*
X57430609Y-16082002D01*
X57430609Y-16082002D02*
X57333847Y-16033622D01*
X58688514Y-15404669D02*
X58688514Y-16082002D01*
X58253085Y-15404669D02*
X58253085Y-15936860D01*
X58253085Y-15936860D02*
X58301466Y-16033622D01*
X58301466Y-16033622D02*
X58398228Y-16082002D01*
X58398228Y-16082002D02*
X58543371Y-16082002D01*
X58543371Y-16082002D02*
X58640133Y-16033622D01*
X58640133Y-16033622D02*
X58688514Y-15985241D01*
X59027180Y-15404669D02*
X59414228Y-15404669D01*
X59172323Y-15066002D02*
X59172323Y-15936860D01*
X59172323Y-15936860D02*
X59220704Y-16033622D01*
X59220704Y-16033622D02*
X59317466Y-16082002D01*
X59317466Y-16082002D02*
X59414228Y-16082002D01*
X59704513Y-16033622D02*
X59801275Y-16082002D01*
X59801275Y-16082002D02*
X59994799Y-16082002D01*
X59994799Y-16082002D02*
X60091561Y-16033622D01*
X60091561Y-16033622D02*
X60139942Y-15936860D01*
X60139942Y-15936860D02*
X60139942Y-15888479D01*
X60139942Y-15888479D02*
X60091561Y-15791717D01*
X60091561Y-15791717D02*
X59994799Y-15743336D01*
X59994799Y-15743336D02*
X59849656Y-15743336D01*
X59849656Y-15743336D02*
X59752894Y-15694955D01*
X59752894Y-15694955D02*
X59704513Y-15598193D01*
X59704513Y-15598193D02*
X59704513Y-15549812D01*
X59704513Y-15549812D02*
X59752894Y-15453050D01*
X59752894Y-15453050D02*
X59849656Y-15404669D01*
X59849656Y-15404669D02*
X59994799Y-15404669D01*
X59994799Y-15404669D02*
X60091561Y-15453050D01*
X51407181Y-18104753D02*
X51358800Y-18056372D01*
X51358800Y-18056372D02*
X51262038Y-17911229D01*
X51262038Y-17911229D02*
X51213657Y-17814467D01*
X51213657Y-17814467D02*
X51165276Y-17669325D01*
X51165276Y-17669325D02*
X51116895Y-17427420D01*
X51116895Y-17427420D02*
X51116895Y-17233896D01*
X51116895Y-17233896D02*
X51165276Y-16991991D01*
X51165276Y-16991991D02*
X51213657Y-16846848D01*
X51213657Y-16846848D02*
X51262038Y-16750086D01*
X51262038Y-16750086D02*
X51358800Y-16604944D01*
X51358800Y-16604944D02*
X51407181Y-16556563D01*
X51794228Y-17717705D02*
X51794228Y-16701705D01*
X51794228Y-16701705D02*
X52374800Y-17717705D01*
X52374800Y-17717705D02*
X52374800Y-16701705D01*
X53439181Y-17620944D02*
X53390800Y-17669325D01*
X53390800Y-17669325D02*
X53245657Y-17717705D01*
X53245657Y-17717705D02*
X53148895Y-17717705D01*
X53148895Y-17717705D02*
X53003752Y-17669325D01*
X53003752Y-17669325D02*
X52906990Y-17572563D01*
X52906990Y-17572563D02*
X52858609Y-17475801D01*
X52858609Y-17475801D02*
X52810228Y-17282277D01*
X52810228Y-17282277D02*
X52810228Y-17137134D01*
X52810228Y-17137134D02*
X52858609Y-16943610D01*
X52858609Y-16943610D02*
X52906990Y-16846848D01*
X52906990Y-16846848D02*
X53003752Y-16750086D01*
X53003752Y-16750086D02*
X53148895Y-16701705D01*
X53148895Y-16701705D02*
X53245657Y-16701705D01*
X53245657Y-16701705D02*
X53390800Y-16750086D01*
X53390800Y-16750086D02*
X53439181Y-16798467D01*
X53777847Y-16701705D02*
X54406800Y-16701705D01*
X54406800Y-16701705D02*
X54068133Y-17088753D01*
X54068133Y-17088753D02*
X54213276Y-17088753D01*
X54213276Y-17088753D02*
X54310038Y-17137134D01*
X54310038Y-17137134D02*
X54358419Y-17185515D01*
X54358419Y-17185515D02*
X54406800Y-17282277D01*
X54406800Y-17282277D02*
X54406800Y-17524182D01*
X54406800Y-17524182D02*
X54358419Y-17620944D01*
X54358419Y-17620944D02*
X54310038Y-17669325D01*
X54310038Y-17669325D02*
X54213276Y-17717705D01*
X54213276Y-17717705D02*
X53922990Y-17717705D01*
X53922990Y-17717705D02*
X53826228Y-17669325D01*
X53826228Y-17669325D02*
X53777847Y-17620944D01*
X55180895Y-17185515D02*
X54842228Y-17185515D01*
X54842228Y-17717705D02*
X54842228Y-16701705D01*
X54842228Y-16701705D02*
X55326038Y-16701705D01*
X55664704Y-17427420D02*
X56148514Y-17427420D01*
X55567942Y-17717705D02*
X55906609Y-16701705D01*
X55906609Y-16701705D02*
X56245276Y-17717705D01*
X56535561Y-17427420D02*
X57019371Y-17427420D01*
X56438799Y-17717705D02*
X56777466Y-16701705D01*
X56777466Y-16701705D02*
X57116133Y-17717705D01*
X57454799Y-17717705D02*
X57454799Y-16701705D01*
X57454799Y-17185515D02*
X58035371Y-17185515D01*
X58035371Y-17717705D02*
X58035371Y-16701705D01*
X58422418Y-18104753D02*
X58470799Y-18056372D01*
X58470799Y-18056372D02*
X58567561Y-17911229D01*
X58567561Y-17911229D02*
X58615942Y-17814467D01*
X58615942Y-17814467D02*
X58664323Y-17669325D01*
X58664323Y-17669325D02*
X58712704Y-17427420D01*
X58712704Y-17427420D02*
X58712704Y-17233896D01*
X58712704Y-17233896D02*
X58664323Y-16991991D01*
X58664323Y-16991991D02*
X58615942Y-16846848D01*
X58615942Y-16846848D02*
X58567561Y-16750086D01*
X58567561Y-16750086D02*
X58470799Y-16604944D01*
X58470799Y-16604944D02*
X58422418Y-16556563D01*
X52181276Y-19353408D02*
X52181276Y-18821218D01*
X52181276Y-18821218D02*
X52132895Y-18724456D01*
X52132895Y-18724456D02*
X52036133Y-18676075D01*
X52036133Y-18676075D02*
X51842609Y-18676075D01*
X51842609Y-18676075D02*
X51745847Y-18724456D01*
X52181276Y-19305028D02*
X52084514Y-19353408D01*
X52084514Y-19353408D02*
X51842609Y-19353408D01*
X51842609Y-19353408D02*
X51745847Y-19305028D01*
X51745847Y-19305028D02*
X51697466Y-19208266D01*
X51697466Y-19208266D02*
X51697466Y-19111504D01*
X51697466Y-19111504D02*
X51745847Y-19014742D01*
X51745847Y-19014742D02*
X51842609Y-18966361D01*
X51842609Y-18966361D02*
X52084514Y-18966361D01*
X52084514Y-18966361D02*
X52181276Y-18917980D01*
X52665085Y-18676075D02*
X52665085Y-19353408D01*
X52665085Y-18772837D02*
X52713466Y-18724456D01*
X52713466Y-18724456D02*
X52810228Y-18676075D01*
X52810228Y-18676075D02*
X52955371Y-18676075D01*
X52955371Y-18676075D02*
X53052133Y-18724456D01*
X53052133Y-18724456D02*
X53100514Y-18821218D01*
X53100514Y-18821218D02*
X53100514Y-19353408D01*
X54019752Y-19353408D02*
X54019752Y-18337408D01*
X54019752Y-19305028D02*
X53922990Y-19353408D01*
X53922990Y-19353408D02*
X53729466Y-19353408D01*
X53729466Y-19353408D02*
X53632704Y-19305028D01*
X53632704Y-19305028D02*
X53584323Y-19256647D01*
X53584323Y-19256647D02*
X53535942Y-19159885D01*
X53535942Y-19159885D02*
X53535942Y-18869599D01*
X53535942Y-18869599D02*
X53584323Y-18772837D01*
X53584323Y-18772837D02*
X53632704Y-18724456D01*
X53632704Y-18724456D02*
X53729466Y-18676075D01*
X53729466Y-18676075D02*
X53922990Y-18676075D01*
X53922990Y-18676075D02*
X54019752Y-18724456D01*
X55277656Y-19353408D02*
X55277656Y-18337408D01*
X55761466Y-19353408D02*
X55761466Y-18337408D01*
X55761466Y-18337408D02*
X56003371Y-18337408D01*
X56003371Y-18337408D02*
X56148514Y-18385789D01*
X56148514Y-18385789D02*
X56245276Y-18482551D01*
X56245276Y-18482551D02*
X56293657Y-18579313D01*
X56293657Y-18579313D02*
X56342038Y-18772837D01*
X56342038Y-18772837D02*
X56342038Y-18917980D01*
X56342038Y-18917980D02*
X56293657Y-19111504D01*
X56293657Y-19111504D02*
X56245276Y-19208266D01*
X56245276Y-19208266D02*
X56148514Y-19305028D01*
X56148514Y-19305028D02*
X56003371Y-19353408D01*
X56003371Y-19353408D02*
X55761466Y-19353408D01*
X57358038Y-19256647D02*
X57309657Y-19305028D01*
X57309657Y-19305028D02*
X57164514Y-19353408D01*
X57164514Y-19353408D02*
X57067752Y-19353408D01*
X57067752Y-19353408D02*
X56922609Y-19305028D01*
X56922609Y-19305028D02*
X56825847Y-19208266D01*
X56825847Y-19208266D02*
X56777466Y-19111504D01*
X56777466Y-19111504D02*
X56729085Y-18917980D01*
X56729085Y-18917980D02*
X56729085Y-18772837D01*
X56729085Y-18772837D02*
X56777466Y-18579313D01*
X56777466Y-18579313D02*
X56825847Y-18482551D01*
X56825847Y-18482551D02*
X56922609Y-18385789D01*
X56922609Y-18385789D02*
X57067752Y-18337408D01*
X57067752Y-18337408D02*
X57164514Y-18337408D01*
X57164514Y-18337408D02*
X57309657Y-18385789D01*
X57309657Y-18385789D02*
X57358038Y-18434170D01*
X51116895Y-20989111D02*
X51116895Y-20311778D01*
X51116895Y-20408540D02*
X51165276Y-20360159D01*
X51165276Y-20360159D02*
X51262038Y-20311778D01*
X51262038Y-20311778D02*
X51407181Y-20311778D01*
X51407181Y-20311778D02*
X51503943Y-20360159D01*
X51503943Y-20360159D02*
X51552324Y-20456921D01*
X51552324Y-20456921D02*
X51552324Y-20989111D01*
X51552324Y-20456921D02*
X51600705Y-20360159D01*
X51600705Y-20360159D02*
X51697467Y-20311778D01*
X51697467Y-20311778D02*
X51842610Y-20311778D01*
X51842610Y-20311778D02*
X51939371Y-20360159D01*
X51939371Y-20360159D02*
X51987752Y-20456921D01*
X51987752Y-20456921D02*
X51987752Y-20989111D01*
X52616705Y-20989111D02*
X52519943Y-20940731D01*
X52519943Y-20940731D02*
X52471562Y-20892350D01*
X52471562Y-20892350D02*
X52423181Y-20795588D01*
X52423181Y-20795588D02*
X52423181Y-20505302D01*
X52423181Y-20505302D02*
X52471562Y-20408540D01*
X52471562Y-20408540D02*
X52519943Y-20360159D01*
X52519943Y-20360159D02*
X52616705Y-20311778D01*
X52616705Y-20311778D02*
X52761848Y-20311778D01*
X52761848Y-20311778D02*
X52858610Y-20360159D01*
X52858610Y-20360159D02*
X52906991Y-20408540D01*
X52906991Y-20408540D02*
X52955372Y-20505302D01*
X52955372Y-20505302D02*
X52955372Y-20795588D01*
X52955372Y-20795588D02*
X52906991Y-20892350D01*
X52906991Y-20892350D02*
X52858610Y-20940731D01*
X52858610Y-20940731D02*
X52761848Y-20989111D01*
X52761848Y-20989111D02*
X52616705Y-20989111D01*
X53826229Y-20311778D02*
X53826229Y-20989111D01*
X53390800Y-20311778D02*
X53390800Y-20843969D01*
X53390800Y-20843969D02*
X53439181Y-20940731D01*
X53439181Y-20940731D02*
X53535943Y-20989111D01*
X53535943Y-20989111D02*
X53681086Y-20989111D01*
X53681086Y-20989111D02*
X53777848Y-20940731D01*
X53777848Y-20940731D02*
X53826229Y-20892350D01*
X54310038Y-20311778D02*
X54310038Y-20989111D01*
X54310038Y-20408540D02*
X54358419Y-20360159D01*
X54358419Y-20360159D02*
X54455181Y-20311778D01*
X54455181Y-20311778D02*
X54600324Y-20311778D01*
X54600324Y-20311778D02*
X54697086Y-20360159D01*
X54697086Y-20360159D02*
X54745467Y-20456921D01*
X54745467Y-20456921D02*
X54745467Y-20989111D01*
X55084133Y-20311778D02*
X55471181Y-20311778D01*
X55229276Y-19973111D02*
X55229276Y-20843969D01*
X55229276Y-20843969D02*
X55277657Y-20940731D01*
X55277657Y-20940731D02*
X55374419Y-20989111D01*
X55374419Y-20989111D02*
X55471181Y-20989111D01*
X56729085Y-20989111D02*
X56632323Y-20940731D01*
X56632323Y-20940731D02*
X56583942Y-20892350D01*
X56583942Y-20892350D02*
X56535561Y-20795588D01*
X56535561Y-20795588D02*
X56535561Y-20505302D01*
X56535561Y-20505302D02*
X56583942Y-20408540D01*
X56583942Y-20408540D02*
X56632323Y-20360159D01*
X56632323Y-20360159D02*
X56729085Y-20311778D01*
X56729085Y-20311778D02*
X56874228Y-20311778D01*
X56874228Y-20311778D02*
X56970990Y-20360159D01*
X56970990Y-20360159D02*
X57019371Y-20408540D01*
X57019371Y-20408540D02*
X57067752Y-20505302D01*
X57067752Y-20505302D02*
X57067752Y-20795588D01*
X57067752Y-20795588D02*
X57019371Y-20892350D01*
X57019371Y-20892350D02*
X56970990Y-20940731D01*
X56970990Y-20940731D02*
X56874228Y-20989111D01*
X56874228Y-20989111D02*
X56729085Y-20989111D01*
X57503180Y-20311778D02*
X57503180Y-20989111D01*
X57503180Y-20408540D02*
X57551561Y-20360159D01*
X57551561Y-20360159D02*
X57648323Y-20311778D01*
X57648323Y-20311778D02*
X57793466Y-20311778D01*
X57793466Y-20311778D02*
X57890228Y-20360159D01*
X57890228Y-20360159D02*
X57938609Y-20456921D01*
X57938609Y-20456921D02*
X57938609Y-20989111D01*
X53802038Y-21947481D02*
X54189086Y-21947481D01*
X53947181Y-21608814D02*
X53947181Y-22479672D01*
X53947181Y-22479672D02*
X53995562Y-22576434D01*
X53995562Y-22576434D02*
X54092324Y-22624814D01*
X54092324Y-22624814D02*
X54189086Y-22624814D01*
X54672895Y-22624814D02*
X54576133Y-22576434D01*
X54576133Y-22576434D02*
X54527752Y-22528053D01*
X54527752Y-22528053D02*
X54479371Y-22431291D01*
X54479371Y-22431291D02*
X54479371Y-22141005D01*
X54479371Y-22141005D02*
X54527752Y-22044243D01*
X54527752Y-22044243D02*
X54576133Y-21995862D01*
X54576133Y-21995862D02*
X54672895Y-21947481D01*
X54672895Y-21947481D02*
X54818038Y-21947481D01*
X54818038Y-21947481D02*
X54914800Y-21995862D01*
X54914800Y-21995862D02*
X54963181Y-22044243D01*
X54963181Y-22044243D02*
X55011562Y-22141005D01*
X55011562Y-22141005D02*
X55011562Y-22431291D01*
X55011562Y-22431291D02*
X54963181Y-22528053D01*
X54963181Y-22528053D02*
X54914800Y-22576434D01*
X54914800Y-22576434D02*
X54818038Y-22624814D01*
X54818038Y-22624814D02*
X54672895Y-22624814D01*
X55446990Y-21947481D02*
X55446990Y-22963481D01*
X55446990Y-21995862D02*
X55543752Y-21947481D01*
X55543752Y-21947481D02*
X55737276Y-21947481D01*
X55737276Y-21947481D02*
X55834038Y-21995862D01*
X55834038Y-21995862D02*
X55882419Y-22044243D01*
X55882419Y-22044243D02*
X55930800Y-22141005D01*
X55930800Y-22141005D02*
X55930800Y-22431291D01*
X55930800Y-22431291D02*
X55882419Y-22528053D01*
X55882419Y-22528053D02*
X55834038Y-22576434D01*
X55834038Y-22576434D02*
X55737276Y-22624814D01*
X55737276Y-22624814D02*
X55543752Y-22624814D01*
X55543752Y-22624814D02*
X55446990Y-22576434D01*
D12*
X11918648Y-16293209D02*
X11918648Y-15023209D01*
X12523410Y-16293209D02*
X12523410Y-15023209D01*
X12523410Y-15023209D02*
X13249125Y-16293209D01*
X13249125Y-16293209D02*
X13249125Y-15023209D01*
X16454363Y-16293209D02*
X15728648Y-16293209D01*
X16091505Y-16293209D02*
X16091505Y-15023209D01*
X16091505Y-15023209D02*
X15970553Y-15204637D01*
X15970553Y-15204637D02*
X15849601Y-15325590D01*
X15849601Y-15325590D02*
X15728648Y-15386066D01*
X66799580Y-16293209D02*
X66799580Y-15023209D01*
X67404342Y-16293209D02*
X67404342Y-15023209D01*
X67404342Y-15023209D02*
X68130057Y-16293209D01*
X68130057Y-16293209D02*
X68130057Y-15023209D01*
X70549104Y-15023209D02*
X71335295Y-15023209D01*
X71335295Y-15023209D02*
X70911961Y-15507018D01*
X70911961Y-15507018D02*
X71093390Y-15507018D01*
X71093390Y-15507018D02*
X71214342Y-15567494D01*
X71214342Y-15567494D02*
X71274818Y-15627971D01*
X71274818Y-15627971D02*
X71335295Y-15748923D01*
X71335295Y-15748923D02*
X71335295Y-16051304D01*
X71335295Y-16051304D02*
X71274818Y-16172256D01*
X71274818Y-16172256D02*
X71214342Y-16232733D01*
X71214342Y-16232733D02*
X71093390Y-16293209D01*
X71093390Y-16293209D02*
X70730533Y-16293209D01*
X70730533Y-16293209D02*
X70609580Y-16232733D01*
X70609580Y-16232733D02*
X70549104Y-16172256D01*
X49275609Y-3905280D02*
X49275609Y-2635280D01*
X49880371Y-3905280D02*
X49880371Y-2635280D01*
X49880371Y-2635280D02*
X50606086Y-3905280D01*
X50606086Y-3905280D02*
X50606086Y-2635280D01*
X51210847Y-3905280D02*
X51210847Y-2635280D01*
X51210847Y-2635280D02*
X51694657Y-2635280D01*
X51694657Y-2635280D02*
X51815609Y-2695756D01*
X51815609Y-2695756D02*
X51876086Y-2756232D01*
X51876086Y-2756232D02*
X51936562Y-2877184D01*
X51936562Y-2877184D02*
X51936562Y-3058613D01*
X51936562Y-3058613D02*
X51876086Y-3179565D01*
X51876086Y-3179565D02*
X51815609Y-3240042D01*
X51815609Y-3240042D02*
X51694657Y-3300518D01*
X51694657Y-3300518D02*
X51210847Y-3300518D01*
X52480847Y-2635280D02*
X52480847Y-3663375D01*
X52480847Y-3663375D02*
X52541324Y-3784327D01*
X52541324Y-3784327D02*
X52601800Y-3844804D01*
X52601800Y-3844804D02*
X52722752Y-3905280D01*
X52722752Y-3905280D02*
X52964657Y-3905280D01*
X52964657Y-3905280D02*
X53085609Y-3844804D01*
X53085609Y-3844804D02*
X53146086Y-3784327D01*
X53146086Y-3784327D02*
X53206562Y-3663375D01*
X53206562Y-3663375D02*
X53206562Y-2635280D01*
X53629895Y-2635280D02*
X54355609Y-2635280D01*
X53992752Y-3905280D02*
X53992752Y-2635280D01*
X54718466Y-3844804D02*
X54899895Y-3905280D01*
X54899895Y-3905280D02*
X55202276Y-3905280D01*
X55202276Y-3905280D02*
X55323228Y-3844804D01*
X55323228Y-3844804D02*
X55383704Y-3784327D01*
X55383704Y-3784327D02*
X55444181Y-3663375D01*
X55444181Y-3663375D02*
X55444181Y-3542423D01*
X55444181Y-3542423D02*
X55383704Y-3421470D01*
X55383704Y-3421470D02*
X55323228Y-3360994D01*
X55323228Y-3360994D02*
X55202276Y-3300518D01*
X55202276Y-3300518D02*
X54960371Y-3240042D01*
X54960371Y-3240042D02*
X54839419Y-3179565D01*
X54839419Y-3179565D02*
X54778942Y-3119089D01*
X54778942Y-3119089D02*
X54718466Y-2998137D01*
X54718466Y-2998137D02*
X54718466Y-2877184D01*
X54718466Y-2877184D02*
X54778942Y-2756232D01*
X54778942Y-2756232D02*
X54839419Y-2695756D01*
X54839419Y-2695756D02*
X54960371Y-2635280D01*
X54960371Y-2635280D02*
X55262752Y-2635280D01*
X55262752Y-2635280D02*
X55444181Y-2695756D01*
X57621324Y-3905280D02*
X56895609Y-3905280D01*
X57258466Y-3905280D02*
X57258466Y-2635280D01*
X57258466Y-2635280D02*
X57137514Y-2816708D01*
X57137514Y-2816708D02*
X57016562Y-2937661D01*
X57016562Y-2937661D02*
X56895609Y-2998137D01*
X58407514Y-2635280D02*
X58528467Y-2635280D01*
X58528467Y-2635280D02*
X58649419Y-2695756D01*
X58649419Y-2695756D02*
X58709895Y-2756232D01*
X58709895Y-2756232D02*
X58770371Y-2877184D01*
X58770371Y-2877184D02*
X58830848Y-3119089D01*
X58830848Y-3119089D02*
X58830848Y-3421470D01*
X58830848Y-3421470D02*
X58770371Y-3663375D01*
X58770371Y-3663375D02*
X58709895Y-3784327D01*
X58709895Y-3784327D02*
X58649419Y-3844804D01*
X58649419Y-3844804D02*
X58528467Y-3905280D01*
X58528467Y-3905280D02*
X58407514Y-3905280D01*
X58407514Y-3905280D02*
X58286562Y-3844804D01*
X58286562Y-3844804D02*
X58226086Y-3784327D01*
X58226086Y-3784327D02*
X58165609Y-3663375D01*
X58165609Y-3663375D02*
X58105133Y-3421470D01*
X58105133Y-3421470D02*
X58105133Y-3119089D01*
X58105133Y-3119089D02*
X58165609Y-2877184D01*
X58165609Y-2877184D02*
X58226086Y-2756232D01*
X58226086Y-2756232D02*
X58286562Y-2695756D01*
X58286562Y-2695756D02*
X58407514Y-2635280D01*
X59919419Y-3058613D02*
X59919419Y-3905280D01*
X59375133Y-3058613D02*
X59375133Y-3723851D01*
X59375133Y-3723851D02*
X59435610Y-3844804D01*
X59435610Y-3844804D02*
X59556562Y-3905280D01*
X59556562Y-3905280D02*
X59737991Y-3905280D01*
X59737991Y-3905280D02*
X59858943Y-3844804D01*
X59858943Y-3844804D02*
X59919419Y-3784327D01*
X60947515Y-3240042D02*
X60524181Y-3240042D01*
X60524181Y-3905280D02*
X60524181Y-2635280D01*
X60524181Y-2635280D02*
X61128943Y-2635280D01*
X48066085Y-4679909D02*
X48307990Y-4679909D01*
X48307990Y-4679909D02*
X48428942Y-4740385D01*
X48428942Y-4740385D02*
X48549895Y-4861337D01*
X48549895Y-4861337D02*
X48610371Y-5103242D01*
X48610371Y-5103242D02*
X48610371Y-5526575D01*
X48610371Y-5526575D02*
X48549895Y-5768480D01*
X48549895Y-5768480D02*
X48428942Y-5889433D01*
X48428942Y-5889433D02*
X48307990Y-5949909D01*
X48307990Y-5949909D02*
X48066085Y-5949909D01*
X48066085Y-5949909D02*
X47945133Y-5889433D01*
X47945133Y-5889433D02*
X47824180Y-5768480D01*
X47824180Y-5768480D02*
X47763704Y-5526575D01*
X47763704Y-5526575D02*
X47763704Y-5103242D01*
X47763704Y-5103242D02*
X47824180Y-4861337D01*
X47824180Y-4861337D02*
X47945133Y-4740385D01*
X47945133Y-4740385D02*
X48066085Y-4679909D01*
X49154656Y-4679909D02*
X49154656Y-5708004D01*
X49154656Y-5708004D02*
X49215133Y-5828956D01*
X49215133Y-5828956D02*
X49275609Y-5889433D01*
X49275609Y-5889433D02*
X49396561Y-5949909D01*
X49396561Y-5949909D02*
X49638466Y-5949909D01*
X49638466Y-5949909D02*
X49759418Y-5889433D01*
X49759418Y-5889433D02*
X49819895Y-5828956D01*
X49819895Y-5828956D02*
X49880371Y-5708004D01*
X49880371Y-5708004D02*
X49880371Y-4679909D01*
X50303704Y-4679909D02*
X51029418Y-4679909D01*
X50666561Y-5949909D02*
X50666561Y-4679909D01*
X51452751Y-5949909D02*
X51452751Y-4679909D01*
X51452751Y-4679909D02*
X51936561Y-4679909D01*
X51936561Y-4679909D02*
X52057513Y-4740385D01*
X52057513Y-4740385D02*
X52117990Y-4800861D01*
X52117990Y-4800861D02*
X52178466Y-4921813D01*
X52178466Y-4921813D02*
X52178466Y-5103242D01*
X52178466Y-5103242D02*
X52117990Y-5224194D01*
X52117990Y-5224194D02*
X52057513Y-5284671D01*
X52057513Y-5284671D02*
X51936561Y-5345147D01*
X51936561Y-5345147D02*
X51452751Y-5345147D01*
X52722751Y-4679909D02*
X52722751Y-5708004D01*
X52722751Y-5708004D02*
X52783228Y-5828956D01*
X52783228Y-5828956D02*
X52843704Y-5889433D01*
X52843704Y-5889433D02*
X52964656Y-5949909D01*
X52964656Y-5949909D02*
X53206561Y-5949909D01*
X53206561Y-5949909D02*
X53327513Y-5889433D01*
X53327513Y-5889433D02*
X53387990Y-5828956D01*
X53387990Y-5828956D02*
X53448466Y-5708004D01*
X53448466Y-5708004D02*
X53448466Y-4679909D01*
X53871799Y-4679909D02*
X54597513Y-4679909D01*
X54234656Y-5949909D02*
X54234656Y-4679909D01*
X54960370Y-5889433D02*
X55141799Y-5949909D01*
X55141799Y-5949909D02*
X55444180Y-5949909D01*
X55444180Y-5949909D02*
X55565132Y-5889433D01*
X55565132Y-5889433D02*
X55625608Y-5828956D01*
X55625608Y-5828956D02*
X55686085Y-5708004D01*
X55686085Y-5708004D02*
X55686085Y-5587052D01*
X55686085Y-5587052D02*
X55625608Y-5466099D01*
X55625608Y-5466099D02*
X55565132Y-5405623D01*
X55565132Y-5405623D02*
X55444180Y-5345147D01*
X55444180Y-5345147D02*
X55202275Y-5284671D01*
X55202275Y-5284671D02*
X55081323Y-5224194D01*
X55081323Y-5224194D02*
X55020846Y-5163718D01*
X55020846Y-5163718D02*
X54960370Y-5042766D01*
X54960370Y-5042766D02*
X54960370Y-4921813D01*
X54960370Y-4921813D02*
X55020846Y-4800861D01*
X55020846Y-4800861D02*
X55081323Y-4740385D01*
X55081323Y-4740385D02*
X55202275Y-4679909D01*
X55202275Y-4679909D02*
X55504656Y-4679909D01*
X55504656Y-4679909D02*
X55686085Y-4740385D01*
X57137513Y-4800861D02*
X57197989Y-4740385D01*
X57197989Y-4740385D02*
X57318942Y-4679909D01*
X57318942Y-4679909D02*
X57621323Y-4679909D01*
X57621323Y-4679909D02*
X57742275Y-4740385D01*
X57742275Y-4740385D02*
X57802751Y-4800861D01*
X57802751Y-4800861D02*
X57863228Y-4921813D01*
X57863228Y-4921813D02*
X57863228Y-5042766D01*
X57863228Y-5042766D02*
X57802751Y-5224194D01*
X57802751Y-5224194D02*
X57077037Y-5949909D01*
X57077037Y-5949909D02*
X57863228Y-5949909D01*
X58347037Y-4800861D02*
X58407513Y-4740385D01*
X58407513Y-4740385D02*
X58528466Y-4679909D01*
X58528466Y-4679909D02*
X58830847Y-4679909D01*
X58830847Y-4679909D02*
X58951799Y-4740385D01*
X58951799Y-4740385D02*
X59012275Y-4800861D01*
X59012275Y-4800861D02*
X59072752Y-4921813D01*
X59072752Y-4921813D02*
X59072752Y-5042766D01*
X59072752Y-5042766D02*
X59012275Y-5224194D01*
X59012275Y-5224194D02*
X58286561Y-5949909D01*
X58286561Y-5949909D02*
X59072752Y-5949909D01*
X59858942Y-4679909D02*
X59979895Y-4679909D01*
X59979895Y-4679909D02*
X60100847Y-4740385D01*
X60100847Y-4740385D02*
X60161323Y-4800861D01*
X60161323Y-4800861D02*
X60221799Y-4921813D01*
X60221799Y-4921813D02*
X60282276Y-5163718D01*
X60282276Y-5163718D02*
X60282276Y-5466099D01*
X60282276Y-5466099D02*
X60221799Y-5708004D01*
X60221799Y-5708004D02*
X60161323Y-5828956D01*
X60161323Y-5828956D02*
X60100847Y-5889433D01*
X60100847Y-5889433D02*
X59979895Y-5949909D01*
X59979895Y-5949909D02*
X59858942Y-5949909D01*
X59858942Y-5949909D02*
X59737990Y-5889433D01*
X59737990Y-5889433D02*
X59677514Y-5828956D01*
X59677514Y-5828956D02*
X59617037Y-5708004D01*
X59617037Y-5708004D02*
X59556561Y-5466099D01*
X59556561Y-5466099D02*
X59556561Y-5163718D01*
X59556561Y-5163718D02*
X59617037Y-4921813D01*
X59617037Y-4921813D02*
X59677514Y-4800861D01*
X59677514Y-4800861D02*
X59737990Y-4740385D01*
X59737990Y-4740385D02*
X59858942Y-4679909D01*
X61370847Y-5103242D02*
X61370847Y-5949909D01*
X60826561Y-5103242D02*
X60826561Y-5768480D01*
X60826561Y-5768480D02*
X60887038Y-5889433D01*
X60887038Y-5889433D02*
X61007990Y-5949909D01*
X61007990Y-5949909D02*
X61189419Y-5949909D01*
X61189419Y-5949909D02*
X61310371Y-5889433D01*
X61310371Y-5889433D02*
X61370847Y-5828956D01*
X62398943Y-5284671D02*
X61975609Y-5284671D01*
X61975609Y-5949909D02*
X61975609Y-4679909D01*
X61975609Y-4679909D02*
X62580371Y-4679909D01*
D14*
X32536765Y-11539619D02*
X32203432Y-11063428D01*
X31965337Y-11539619D02*
X31965337Y-10539619D01*
X31965337Y-10539619D02*
X32346289Y-10539619D01*
X32346289Y-10539619D02*
X32441527Y-10587238D01*
X32441527Y-10587238D02*
X32489146Y-10634857D01*
X32489146Y-10634857D02*
X32536765Y-10730095D01*
X32536765Y-10730095D02*
X32536765Y-10872952D01*
X32536765Y-10872952D02*
X32489146Y-10968190D01*
X32489146Y-10968190D02*
X32441527Y-11015809D01*
X32441527Y-11015809D02*
X32346289Y-11063428D01*
X32346289Y-11063428D02*
X31965337Y-11063428D01*
X33393908Y-10539619D02*
X33203432Y-10539619D01*
X33203432Y-10539619D02*
X33108194Y-10587238D01*
X33108194Y-10587238D02*
X33060575Y-10634857D01*
X33060575Y-10634857D02*
X32965337Y-10777714D01*
X32965337Y-10777714D02*
X32917718Y-10968190D01*
X32917718Y-10968190D02*
X32917718Y-11349142D01*
X32917718Y-11349142D02*
X32965337Y-11444380D01*
X32965337Y-11444380D02*
X33012956Y-11492000D01*
X33012956Y-11492000D02*
X33108194Y-11539619D01*
X33108194Y-11539619D02*
X33298670Y-11539619D01*
X33298670Y-11539619D02*
X33393908Y-11492000D01*
X33393908Y-11492000D02*
X33441527Y-11444380D01*
X33441527Y-11444380D02*
X33489146Y-11349142D01*
X33489146Y-11349142D02*
X33489146Y-11111047D01*
X33489146Y-11111047D02*
X33441527Y-11015809D01*
X33441527Y-11015809D02*
X33393908Y-10968190D01*
X33393908Y-10968190D02*
X33298670Y-10920571D01*
X33298670Y-10920571D02*
X33108194Y-10920571D01*
X33108194Y-10920571D02*
X33012956Y-10968190D01*
X33012956Y-10968190D02*
X32965337Y-11015809D01*
X32965337Y-11015809D02*
X32917718Y-11111047D01*
X15446033Y-11539619D02*
X15112700Y-11063428D01*
X14874605Y-11539619D02*
X14874605Y-10539619D01*
X14874605Y-10539619D02*
X15255557Y-10539619D01*
X15255557Y-10539619D02*
X15350795Y-10587238D01*
X15350795Y-10587238D02*
X15398414Y-10634857D01*
X15398414Y-10634857D02*
X15446033Y-10730095D01*
X15446033Y-10730095D02*
X15446033Y-10872952D01*
X15446033Y-10872952D02*
X15398414Y-10968190D01*
X15398414Y-10968190D02*
X15350795Y-11015809D01*
X15350795Y-11015809D02*
X15255557Y-11063428D01*
X15255557Y-11063428D02*
X14874605Y-11063428D01*
X16017462Y-10968190D02*
X15922224Y-10920571D01*
X15922224Y-10920571D02*
X15874605Y-10872952D01*
X15874605Y-10872952D02*
X15826986Y-10777714D01*
X15826986Y-10777714D02*
X15826986Y-10730095D01*
X15826986Y-10730095D02*
X15874605Y-10634857D01*
X15874605Y-10634857D02*
X15922224Y-10587238D01*
X15922224Y-10587238D02*
X16017462Y-10539619D01*
X16017462Y-10539619D02*
X16207938Y-10539619D01*
X16207938Y-10539619D02*
X16303176Y-10587238D01*
X16303176Y-10587238D02*
X16350795Y-10634857D01*
X16350795Y-10634857D02*
X16398414Y-10730095D01*
X16398414Y-10730095D02*
X16398414Y-10777714D01*
X16398414Y-10777714D02*
X16350795Y-10872952D01*
X16350795Y-10872952D02*
X16303176Y-10920571D01*
X16303176Y-10920571D02*
X16207938Y-10968190D01*
X16207938Y-10968190D02*
X16017462Y-10968190D01*
X16017462Y-10968190D02*
X15922224Y-11015809D01*
X15922224Y-11015809D02*
X15874605Y-11063428D01*
X15874605Y-11063428D02*
X15826986Y-11158666D01*
X15826986Y-11158666D02*
X15826986Y-11349142D01*
X15826986Y-11349142D02*
X15874605Y-11444380D01*
X15874605Y-11444380D02*
X15922224Y-11492000D01*
X15922224Y-11492000D02*
X16017462Y-11539619D01*
X16017462Y-11539619D02*
X16207938Y-11539619D01*
X16207938Y-11539619D02*
X16303176Y-11492000D01*
X16303176Y-11492000D02*
X16350795Y-11444380D01*
X16350795Y-11444380D02*
X16398414Y-11349142D01*
X16398414Y-11349142D02*
X16398414Y-11158666D01*
X16398414Y-11158666D02*
X16350795Y-11063428D01*
X16350795Y-11063428D02*
X16303176Y-11015809D01*
X16303176Y-11015809D02*
X16207938Y-10968190D01*
X9602933Y-12792952D02*
X9602933Y-13459619D01*
X9364838Y-12412000D02*
X9126743Y-13126285D01*
X9126743Y-13126285D02*
X9745790Y-13126285D01*
X10031505Y-12459619D02*
X10698171Y-12459619D01*
X10698171Y-12459619D02*
X10269600Y-13459619D01*
X11269600Y-12459619D02*
X11364838Y-12459619D01*
X11364838Y-12459619D02*
X11460076Y-12507238D01*
X11460076Y-12507238D02*
X11507695Y-12554857D01*
X11507695Y-12554857D02*
X11555314Y-12650095D01*
X11555314Y-12650095D02*
X11602933Y-12840571D01*
X11602933Y-12840571D02*
X11602933Y-13078666D01*
X11602933Y-13078666D02*
X11555314Y-13269142D01*
X11555314Y-13269142D02*
X11507695Y-13364380D01*
X11507695Y-13364380D02*
X11460076Y-13412000D01*
X11460076Y-13412000D02*
X11364838Y-13459619D01*
X11364838Y-13459619D02*
X11269600Y-13459619D01*
X11269600Y-13459619D02*
X11174362Y-13412000D01*
X11174362Y-13412000D02*
X11126743Y-13364380D01*
X11126743Y-13364380D02*
X11079124Y-13269142D01*
X11079124Y-13269142D02*
X11031505Y-13078666D01*
X11031505Y-13078666D02*
X11031505Y-12840571D01*
X11031505Y-12840571D02*
X11079124Y-12650095D01*
X11079124Y-12650095D02*
X11126743Y-12554857D01*
X11126743Y-12554857D02*
X11174362Y-12507238D01*
X11174362Y-12507238D02*
X11269600Y-12459619D01*
X12031505Y-13459619D02*
X12031505Y-12459619D01*
X12126743Y-13078666D02*
X12412457Y-13459619D01*
X12412457Y-12792952D02*
X12031505Y-13173904D01*
X41082133Y-11539619D02*
X40748800Y-11063428D01*
X40510705Y-11539619D02*
X40510705Y-10539619D01*
X40510705Y-10539619D02*
X40891657Y-10539619D01*
X40891657Y-10539619D02*
X40986895Y-10587238D01*
X40986895Y-10587238D02*
X41034514Y-10634857D01*
X41034514Y-10634857D02*
X41082133Y-10730095D01*
X41082133Y-10730095D02*
X41082133Y-10872952D01*
X41082133Y-10872952D02*
X41034514Y-10968190D01*
X41034514Y-10968190D02*
X40986895Y-11015809D01*
X40986895Y-11015809D02*
X40891657Y-11063428D01*
X40891657Y-11063428D02*
X40510705Y-11063428D01*
X41986895Y-10539619D02*
X41510705Y-10539619D01*
X41510705Y-10539619D02*
X41463086Y-11015809D01*
X41463086Y-11015809D02*
X41510705Y-10968190D01*
X41510705Y-10968190D02*
X41605943Y-10920571D01*
X41605943Y-10920571D02*
X41844038Y-10920571D01*
X41844038Y-10920571D02*
X41939276Y-10968190D01*
X41939276Y-10968190D02*
X41986895Y-11015809D01*
X41986895Y-11015809D02*
X42034514Y-11111047D01*
X42034514Y-11111047D02*
X42034514Y-11349142D01*
X42034514Y-11349142D02*
X41986895Y-11444380D01*
X41986895Y-11444380D02*
X41939276Y-11492000D01*
X41939276Y-11492000D02*
X41844038Y-11539619D01*
X41844038Y-11539619D02*
X41605943Y-11539619D01*
X41605943Y-11539619D02*
X41510705Y-11492000D01*
X41510705Y-11492000D02*
X41463086Y-11444380D01*
X17968933Y-1731180D02*
X17921314Y-1778800D01*
X17921314Y-1778800D02*
X17778457Y-1826419D01*
X17778457Y-1826419D02*
X17683219Y-1826419D01*
X17683219Y-1826419D02*
X17540362Y-1778800D01*
X17540362Y-1778800D02*
X17445124Y-1683561D01*
X17445124Y-1683561D02*
X17397505Y-1588323D01*
X17397505Y-1588323D02*
X17349886Y-1397847D01*
X17349886Y-1397847D02*
X17349886Y-1254990D01*
X17349886Y-1254990D02*
X17397505Y-1064514D01*
X17397505Y-1064514D02*
X17445124Y-969276D01*
X17445124Y-969276D02*
X17540362Y-874038D01*
X17540362Y-874038D02*
X17683219Y-826419D01*
X17683219Y-826419D02*
X17778457Y-826419D01*
X17778457Y-826419D02*
X17921314Y-874038D01*
X17921314Y-874038D02*
X17968933Y-921657D01*
X18540362Y-1254990D02*
X18445124Y-1207371D01*
X18445124Y-1207371D02*
X18397505Y-1159752D01*
X18397505Y-1159752D02*
X18349886Y-1064514D01*
X18349886Y-1064514D02*
X18349886Y-1016895D01*
X18349886Y-1016895D02*
X18397505Y-921657D01*
X18397505Y-921657D02*
X18445124Y-874038D01*
X18445124Y-874038D02*
X18540362Y-826419D01*
X18540362Y-826419D02*
X18730838Y-826419D01*
X18730838Y-826419D02*
X18826076Y-874038D01*
X18826076Y-874038D02*
X18873695Y-921657D01*
X18873695Y-921657D02*
X18921314Y-1016895D01*
X18921314Y-1016895D02*
X18921314Y-1064514D01*
X18921314Y-1064514D02*
X18873695Y-1159752D01*
X18873695Y-1159752D02*
X18826076Y-1207371D01*
X18826076Y-1207371D02*
X18730838Y-1254990D01*
X18730838Y-1254990D02*
X18540362Y-1254990D01*
X18540362Y-1254990D02*
X18445124Y-1302609D01*
X18445124Y-1302609D02*
X18397505Y-1350228D01*
X18397505Y-1350228D02*
X18349886Y-1445466D01*
X18349886Y-1445466D02*
X18349886Y-1635942D01*
X18349886Y-1635942D02*
X18397505Y-1731180D01*
X18397505Y-1731180D02*
X18445124Y-1778800D01*
X18445124Y-1778800D02*
X18540362Y-1826419D01*
X18540362Y-1826419D02*
X18730838Y-1826419D01*
X18730838Y-1826419D02*
X18826076Y-1778800D01*
X18826076Y-1778800D02*
X18873695Y-1731180D01*
X18873695Y-1731180D02*
X18921314Y-1635942D01*
X18921314Y-1635942D02*
X18921314Y-1445466D01*
X18921314Y-1445466D02*
X18873695Y-1350228D01*
X18873695Y-1350228D02*
X18826076Y-1302609D01*
X18826076Y-1302609D02*
X18730838Y-1254990D01*
X43978533Y-1604180D02*
X43930914Y-1651800D01*
X43930914Y-1651800D02*
X43788057Y-1699419D01*
X43788057Y-1699419D02*
X43692819Y-1699419D01*
X43692819Y-1699419D02*
X43549962Y-1651800D01*
X43549962Y-1651800D02*
X43454724Y-1556561D01*
X43454724Y-1556561D02*
X43407105Y-1461323D01*
X43407105Y-1461323D02*
X43359486Y-1270847D01*
X43359486Y-1270847D02*
X43359486Y-1127990D01*
X43359486Y-1127990D02*
X43407105Y-937514D01*
X43407105Y-937514D02*
X43454724Y-842276D01*
X43454724Y-842276D02*
X43549962Y-747038D01*
X43549962Y-747038D02*
X43692819Y-699419D01*
X43692819Y-699419D02*
X43788057Y-699419D01*
X43788057Y-699419D02*
X43930914Y-747038D01*
X43930914Y-747038D02*
X43978533Y-794657D01*
X44883295Y-699419D02*
X44407105Y-699419D01*
X44407105Y-699419D02*
X44359486Y-1175609D01*
X44359486Y-1175609D02*
X44407105Y-1127990D01*
X44407105Y-1127990D02*
X44502343Y-1080371D01*
X44502343Y-1080371D02*
X44740438Y-1080371D01*
X44740438Y-1080371D02*
X44835676Y-1127990D01*
X44835676Y-1127990D02*
X44883295Y-1175609D01*
X44883295Y-1175609D02*
X44930914Y-1270847D01*
X44930914Y-1270847D02*
X44930914Y-1508942D01*
X44930914Y-1508942D02*
X44883295Y-1604180D01*
X44883295Y-1604180D02*
X44835676Y-1651800D01*
X44835676Y-1651800D02*
X44740438Y-1699419D01*
X44740438Y-1699419D02*
X44502343Y-1699419D01*
X44502343Y-1699419D02*
X44407105Y-1651800D01*
X44407105Y-1651800D02*
X44359486Y-1604180D01*
X26706533Y-1756580D02*
X26658914Y-1804200D01*
X26658914Y-1804200D02*
X26516057Y-1851819D01*
X26516057Y-1851819D02*
X26420819Y-1851819D01*
X26420819Y-1851819D02*
X26277962Y-1804200D01*
X26277962Y-1804200D02*
X26182724Y-1708961D01*
X26182724Y-1708961D02*
X26135105Y-1613723D01*
X26135105Y-1613723D02*
X26087486Y-1423247D01*
X26087486Y-1423247D02*
X26087486Y-1280390D01*
X26087486Y-1280390D02*
X26135105Y-1089914D01*
X26135105Y-1089914D02*
X26182724Y-994676D01*
X26182724Y-994676D02*
X26277962Y-899438D01*
X26277962Y-899438D02*
X26420819Y-851819D01*
X26420819Y-851819D02*
X26516057Y-851819D01*
X26516057Y-851819D02*
X26658914Y-899438D01*
X26658914Y-899438D02*
X26706533Y-947057D01*
X27039867Y-851819D02*
X27706533Y-851819D01*
X27706533Y-851819D02*
X27277962Y-1851819D01*
X88512399Y-11514219D02*
X88179066Y-11038028D01*
X87940971Y-11514219D02*
X87940971Y-10514219D01*
X87940971Y-10514219D02*
X88321923Y-10514219D01*
X88321923Y-10514219D02*
X88417161Y-10561838D01*
X88417161Y-10561838D02*
X88464780Y-10609457D01*
X88464780Y-10609457D02*
X88512399Y-10704695D01*
X88512399Y-10704695D02*
X88512399Y-10847552D01*
X88512399Y-10847552D02*
X88464780Y-10942790D01*
X88464780Y-10942790D02*
X88417161Y-10990409D01*
X88417161Y-10990409D02*
X88321923Y-11038028D01*
X88321923Y-11038028D02*
X87940971Y-11038028D01*
X88893352Y-10609457D02*
X88940971Y-10561838D01*
X88940971Y-10561838D02*
X89036209Y-10514219D01*
X89036209Y-10514219D02*
X89274304Y-10514219D01*
X89274304Y-10514219D02*
X89369542Y-10561838D01*
X89369542Y-10561838D02*
X89417161Y-10609457D01*
X89417161Y-10609457D02*
X89464780Y-10704695D01*
X89464780Y-10704695D02*
X89464780Y-10799933D01*
X89464780Y-10799933D02*
X89417161Y-10942790D01*
X89417161Y-10942790D02*
X88845733Y-11514219D01*
X88845733Y-11514219D02*
X89464780Y-11514219D01*
X82688133Y-1527980D02*
X82640514Y-1575600D01*
X82640514Y-1575600D02*
X82497657Y-1623219D01*
X82497657Y-1623219D02*
X82402419Y-1623219D01*
X82402419Y-1623219D02*
X82259562Y-1575600D01*
X82259562Y-1575600D02*
X82164324Y-1480361D01*
X82164324Y-1480361D02*
X82116705Y-1385123D01*
X82116705Y-1385123D02*
X82069086Y-1194647D01*
X82069086Y-1194647D02*
X82069086Y-1051790D01*
X82069086Y-1051790D02*
X82116705Y-861314D01*
X82116705Y-861314D02*
X82164324Y-766076D01*
X82164324Y-766076D02*
X82259562Y-670838D01*
X82259562Y-670838D02*
X82402419Y-623219D01*
X82402419Y-623219D02*
X82497657Y-623219D01*
X82497657Y-623219D02*
X82640514Y-670838D01*
X82640514Y-670838D02*
X82688133Y-718457D01*
X83021467Y-623219D02*
X83640514Y-623219D01*
X83640514Y-623219D02*
X83307181Y-1004171D01*
X83307181Y-1004171D02*
X83450038Y-1004171D01*
X83450038Y-1004171D02*
X83545276Y-1051790D01*
X83545276Y-1051790D02*
X83592895Y-1099409D01*
X83592895Y-1099409D02*
X83640514Y-1194647D01*
X83640514Y-1194647D02*
X83640514Y-1432742D01*
X83640514Y-1432742D02*
X83592895Y-1527980D01*
X83592895Y-1527980D02*
X83545276Y-1575600D01*
X83545276Y-1575600D02*
X83450038Y-1623219D01*
X83450038Y-1623219D02*
X83164324Y-1623219D01*
X83164324Y-1623219D02*
X83069086Y-1575600D01*
X83069086Y-1575600D02*
X83021467Y-1527980D01*
X35215533Y-1604180D02*
X35167914Y-1651800D01*
X35167914Y-1651800D02*
X35025057Y-1699419D01*
X35025057Y-1699419D02*
X34929819Y-1699419D01*
X34929819Y-1699419D02*
X34786962Y-1651800D01*
X34786962Y-1651800D02*
X34691724Y-1556561D01*
X34691724Y-1556561D02*
X34644105Y-1461323D01*
X34644105Y-1461323D02*
X34596486Y-1270847D01*
X34596486Y-1270847D02*
X34596486Y-1127990D01*
X34596486Y-1127990D02*
X34644105Y-937514D01*
X34644105Y-937514D02*
X34691724Y-842276D01*
X34691724Y-842276D02*
X34786962Y-747038D01*
X34786962Y-747038D02*
X34929819Y-699419D01*
X34929819Y-699419D02*
X35025057Y-699419D01*
X35025057Y-699419D02*
X35167914Y-747038D01*
X35167914Y-747038D02*
X35215533Y-794657D01*
X36072676Y-699419D02*
X35882200Y-699419D01*
X35882200Y-699419D02*
X35786962Y-747038D01*
X35786962Y-747038D02*
X35739343Y-794657D01*
X35739343Y-794657D02*
X35644105Y-937514D01*
X35644105Y-937514D02*
X35596486Y-1127990D01*
X35596486Y-1127990D02*
X35596486Y-1508942D01*
X35596486Y-1508942D02*
X35644105Y-1604180D01*
X35644105Y-1604180D02*
X35691724Y-1651800D01*
X35691724Y-1651800D02*
X35786962Y-1699419D01*
X35786962Y-1699419D02*
X35977438Y-1699419D01*
X35977438Y-1699419D02*
X36072676Y-1651800D01*
X36072676Y-1651800D02*
X36120295Y-1604180D01*
X36120295Y-1604180D02*
X36167914Y-1508942D01*
X36167914Y-1508942D02*
X36167914Y-1270847D01*
X36167914Y-1270847D02*
X36120295Y-1175609D01*
X36120295Y-1175609D02*
X36072676Y-1127990D01*
X36072676Y-1127990D02*
X35977438Y-1080371D01*
X35977438Y-1080371D02*
X35786962Y-1080371D01*
X35786962Y-1080371D02*
X35691724Y-1127990D01*
X35691724Y-1127990D02*
X35644105Y-1175609D01*
X35644105Y-1175609D02*
X35596486Y-1270847D01*
X71206533Y-11514219D02*
X70873200Y-11038028D01*
X70635105Y-11514219D02*
X70635105Y-10514219D01*
X70635105Y-10514219D02*
X71016057Y-10514219D01*
X71016057Y-10514219D02*
X71111295Y-10561838D01*
X71111295Y-10561838D02*
X71158914Y-10609457D01*
X71158914Y-10609457D02*
X71206533Y-10704695D01*
X71206533Y-10704695D02*
X71206533Y-10847552D01*
X71206533Y-10847552D02*
X71158914Y-10942790D01*
X71158914Y-10942790D02*
X71111295Y-10990409D01*
X71111295Y-10990409D02*
X71016057Y-11038028D01*
X71016057Y-11038028D02*
X70635105Y-11038028D01*
X72063676Y-10847552D02*
X72063676Y-11514219D01*
X71825581Y-10466600D02*
X71587486Y-11180885D01*
X71587486Y-11180885D02*
X72206533Y-11180885D01*
X97165333Y-11514219D02*
X96832000Y-11038028D01*
X96593905Y-11514219D02*
X96593905Y-10514219D01*
X96593905Y-10514219D02*
X96974857Y-10514219D01*
X96974857Y-10514219D02*
X97070095Y-10561838D01*
X97070095Y-10561838D02*
X97117714Y-10609457D01*
X97117714Y-10609457D02*
X97165333Y-10704695D01*
X97165333Y-10704695D02*
X97165333Y-10847552D01*
X97165333Y-10847552D02*
X97117714Y-10942790D01*
X97117714Y-10942790D02*
X97070095Y-10990409D01*
X97070095Y-10990409D02*
X96974857Y-11038028D01*
X96974857Y-11038028D02*
X96593905Y-11038028D01*
X98117714Y-11514219D02*
X97546286Y-11514219D01*
X97832000Y-11514219D02*
X97832000Y-10514219D01*
X97832000Y-10514219D02*
X97736762Y-10657076D01*
X97736762Y-10657076D02*
X97641524Y-10752314D01*
X97641524Y-10752314D02*
X97546286Y-10799933D01*
X91298733Y-1578780D02*
X91251114Y-1626400D01*
X91251114Y-1626400D02*
X91108257Y-1674019D01*
X91108257Y-1674019D02*
X91013019Y-1674019D01*
X91013019Y-1674019D02*
X90870162Y-1626400D01*
X90870162Y-1626400D02*
X90774924Y-1531161D01*
X90774924Y-1531161D02*
X90727305Y-1435923D01*
X90727305Y-1435923D02*
X90679686Y-1245447D01*
X90679686Y-1245447D02*
X90679686Y-1102590D01*
X90679686Y-1102590D02*
X90727305Y-912114D01*
X90727305Y-912114D02*
X90774924Y-816876D01*
X90774924Y-816876D02*
X90870162Y-721638D01*
X90870162Y-721638D02*
X91013019Y-674019D01*
X91013019Y-674019D02*
X91108257Y-674019D01*
X91108257Y-674019D02*
X91251114Y-721638D01*
X91251114Y-721638D02*
X91298733Y-769257D01*
X91679686Y-769257D02*
X91727305Y-721638D01*
X91727305Y-721638D02*
X91822543Y-674019D01*
X91822543Y-674019D02*
X92060638Y-674019D01*
X92060638Y-674019D02*
X92155876Y-721638D01*
X92155876Y-721638D02*
X92203495Y-769257D01*
X92203495Y-769257D02*
X92251114Y-864495D01*
X92251114Y-864495D02*
X92251114Y-959733D01*
X92251114Y-959733D02*
X92203495Y-1102590D01*
X92203495Y-1102590D02*
X91632067Y-1674019D01*
X91632067Y-1674019D02*
X92251114Y-1674019D01*
X73874333Y-1604180D02*
X73826714Y-1651800D01*
X73826714Y-1651800D02*
X73683857Y-1699419D01*
X73683857Y-1699419D02*
X73588619Y-1699419D01*
X73588619Y-1699419D02*
X73445762Y-1651800D01*
X73445762Y-1651800D02*
X73350524Y-1556561D01*
X73350524Y-1556561D02*
X73302905Y-1461323D01*
X73302905Y-1461323D02*
X73255286Y-1270847D01*
X73255286Y-1270847D02*
X73255286Y-1127990D01*
X73255286Y-1127990D02*
X73302905Y-937514D01*
X73302905Y-937514D02*
X73350524Y-842276D01*
X73350524Y-842276D02*
X73445762Y-747038D01*
X73445762Y-747038D02*
X73588619Y-699419D01*
X73588619Y-699419D02*
X73683857Y-699419D01*
X73683857Y-699419D02*
X73826714Y-747038D01*
X73826714Y-747038D02*
X73874333Y-794657D01*
X74731476Y-1032752D02*
X74731476Y-1699419D01*
X74493381Y-651800D02*
X74255286Y-1366085D01*
X74255286Y-1366085D02*
X74874333Y-1366085D01*
X23991399Y-11539619D02*
X23658066Y-11063428D01*
X23419971Y-11539619D02*
X23419971Y-10539619D01*
X23419971Y-10539619D02*
X23800923Y-10539619D01*
X23800923Y-10539619D02*
X23896161Y-10587238D01*
X23896161Y-10587238D02*
X23943780Y-10634857D01*
X23943780Y-10634857D02*
X23991399Y-10730095D01*
X23991399Y-10730095D02*
X23991399Y-10872952D01*
X23991399Y-10872952D02*
X23943780Y-10968190D01*
X23943780Y-10968190D02*
X23896161Y-11015809D01*
X23896161Y-11015809D02*
X23800923Y-11063428D01*
X23800923Y-11063428D02*
X23419971Y-11063428D01*
X24324733Y-10539619D02*
X24991399Y-10539619D01*
X24991399Y-10539619D02*
X24562828Y-11539619D01*
X79859466Y-11514219D02*
X79526133Y-11038028D01*
X79288038Y-11514219D02*
X79288038Y-10514219D01*
X79288038Y-10514219D02*
X79668990Y-10514219D01*
X79668990Y-10514219D02*
X79764228Y-10561838D01*
X79764228Y-10561838D02*
X79811847Y-10609457D01*
X79811847Y-10609457D02*
X79859466Y-10704695D01*
X79859466Y-10704695D02*
X79859466Y-10847552D01*
X79859466Y-10847552D02*
X79811847Y-10942790D01*
X79811847Y-10942790D02*
X79764228Y-10990409D01*
X79764228Y-10990409D02*
X79668990Y-11038028D01*
X79668990Y-11038028D02*
X79288038Y-11038028D01*
X80192800Y-10514219D02*
X80811847Y-10514219D01*
X80811847Y-10514219D02*
X80478514Y-10895171D01*
X80478514Y-10895171D02*
X80621371Y-10895171D01*
X80621371Y-10895171D02*
X80716609Y-10942790D01*
X80716609Y-10942790D02*
X80764228Y-10990409D01*
X80764228Y-10990409D02*
X80811847Y-11085647D01*
X80811847Y-11085647D02*
X80811847Y-11323742D01*
X80811847Y-11323742D02*
X80764228Y-11418980D01*
X80764228Y-11418980D02*
X80716609Y-11466600D01*
X80716609Y-11466600D02*
X80621371Y-11514219D01*
X80621371Y-11514219D02*
X80335657Y-11514219D01*
X80335657Y-11514219D02*
X80240419Y-11466600D01*
X80240419Y-11466600D02*
X80192800Y-11418980D01*
X99782333Y-1527980D02*
X99734714Y-1575600D01*
X99734714Y-1575600D02*
X99591857Y-1623219D01*
X99591857Y-1623219D02*
X99496619Y-1623219D01*
X99496619Y-1623219D02*
X99353762Y-1575600D01*
X99353762Y-1575600D02*
X99258524Y-1480361D01*
X99258524Y-1480361D02*
X99210905Y-1385123D01*
X99210905Y-1385123D02*
X99163286Y-1194647D01*
X99163286Y-1194647D02*
X99163286Y-1051790D01*
X99163286Y-1051790D02*
X99210905Y-861314D01*
X99210905Y-861314D02*
X99258524Y-766076D01*
X99258524Y-766076D02*
X99353762Y-670838D01*
X99353762Y-670838D02*
X99496619Y-623219D01*
X99496619Y-623219D02*
X99591857Y-623219D01*
X99591857Y-623219D02*
X99734714Y-670838D01*
X99734714Y-670838D02*
X99782333Y-718457D01*
X100734714Y-1623219D02*
X100163286Y-1623219D01*
X100449000Y-1623219D02*
X100449000Y-623219D01*
X100449000Y-623219D02*
X100353762Y-766076D01*
X100353762Y-766076D02*
X100258524Y-861314D01*
X100258524Y-861314D02*
X100163286Y-908933D01*
D15*
%TO.C,R6*%
X32353432Y-13004800D02*
X32973432Y-13004800D01*
X32353432Y-13004800D02*
G75*
G02*
X30513432Y-13004800I-920000J0D01*
G01*
X30513432Y-13004800D02*
G75*
G02*
X32353432Y-13004800I920000J0D01*
G01*
%TO.C,J5*%
X791200Y-29986400D02*
X2541200Y-29986400D01*
X791200Y-36726400D02*
X791200Y-29986400D01*
X2291200Y-36726400D02*
X791200Y-36726400D01*
X2291200Y-36726400D02*
X2291200Y-39426400D01*
X2541200Y-29986400D02*
X2541200Y-24486400D01*
X5291200Y-24486400D02*
X2541200Y-24486400D01*
X5291200Y-24486400D02*
X5291200Y-16986400D01*
X21531200Y-16986400D02*
X5291200Y-16986400D01*
X21531200Y-24486400D02*
X21531200Y-16986400D01*
X24281200Y-24486400D02*
X21531200Y-24486400D01*
X24281200Y-29986400D02*
X24281200Y-24486400D01*
X24281200Y-29986400D02*
X26031200Y-29986400D01*
X24531200Y-36726400D02*
X24531200Y-39426400D01*
X24531200Y-39426400D02*
X2291200Y-39426400D01*
X26031200Y-36726400D02*
X24531200Y-36726400D01*
X26031200Y-36726400D02*
X26031200Y-29986400D01*
%TO.C,R8*%
X15262700Y-13004800D02*
X15882700Y-13004800D01*
X15262700Y-13004800D02*
G75*
G02*
X13422700Y-13004800I-920000J0D01*
G01*
X13422700Y-13004800D02*
G75*
G02*
X15262700Y-13004800I920000J0D01*
G01*
%TO.C,R5*%
X40898800Y-13004800D02*
X41518800Y-13004800D01*
X40898800Y-13004800D02*
G75*
G02*
X39058800Y-13004800I-920000J0D01*
G01*
X39058800Y-13004800D02*
G75*
G02*
X40898800Y-13004800I920000J0D01*
G01*
%TO.C,C8*%
X13326667Y-4400200D02*
X11144667Y-4400200D01*
X13326667Y-4440200D02*
X11148667Y-4440200D01*
X13326667Y-4480200D02*
X11151667Y-4480200D01*
X13326667Y-4520200D02*
X11155667Y-4520200D01*
X13326667Y-4560200D02*
X11160667Y-4560200D01*
X13326667Y-4600200D02*
X11165667Y-4600200D01*
X13326667Y-4640200D02*
X11171667Y-4640200D01*
X13326667Y-4680200D02*
X11177667Y-4680200D01*
X13326667Y-4720200D02*
X11184667Y-4720200D01*
X13326667Y-4760200D02*
X11191667Y-4760200D01*
X13326667Y-4800200D02*
X11199667Y-4800200D01*
X13326667Y-4840200D02*
X11207667Y-4840200D01*
X13326667Y-4881200D02*
X11216667Y-4881200D01*
X13326667Y-4921200D02*
X11225667Y-4921200D01*
X13326667Y-4961200D02*
X11235667Y-4961200D01*
X13326667Y-5001200D02*
X11245667Y-5001200D01*
X13326667Y-5041200D02*
X11256667Y-5041200D01*
X13326667Y-5081200D02*
X11268667Y-5081200D01*
X13326667Y-5121200D02*
X11280667Y-5121200D01*
X13326667Y-5161200D02*
X11292667Y-5161200D01*
X13326667Y-5201200D02*
X11305667Y-5201200D01*
X13326667Y-5241200D02*
X11319667Y-5241200D01*
X13326667Y-5281200D02*
X11333667Y-5281200D01*
X13326667Y-5321200D02*
X11348667Y-5321200D01*
X13326667Y-5361200D02*
X11364667Y-5361200D01*
X13326667Y-5401200D02*
X11380667Y-5401200D01*
X13326667Y-5441200D02*
X11396667Y-5441200D01*
X13326667Y-5481200D02*
X11414667Y-5481200D01*
X13326667Y-5521200D02*
X11432667Y-5521200D01*
X13326667Y-5561200D02*
X11450667Y-5561200D01*
X13326667Y-5601200D02*
X11470667Y-5601200D01*
X13326667Y-5641200D02*
X11490667Y-5641200D01*
X13326667Y-5681200D02*
X11510667Y-5681200D01*
X13326667Y-5721200D02*
X11532667Y-5721200D01*
X13326667Y-5761200D02*
X11554667Y-5761200D01*
X13326667Y-5801200D02*
X11576667Y-5801200D01*
X13326667Y-5841200D02*
X11600667Y-5841200D01*
X13326667Y-5881200D02*
X11624667Y-5881200D01*
X13326667Y-5921200D02*
X11650667Y-5921200D01*
X13326667Y-5961200D02*
X11676667Y-5961200D01*
X13326667Y-6001200D02*
X11702667Y-6001200D01*
X13326667Y-6041200D02*
X11730667Y-6041200D01*
X13326667Y-6081200D02*
X11759667Y-6081200D01*
X13326667Y-6121200D02*
X11788667Y-6121200D01*
X13326667Y-6161200D02*
X11818667Y-6161200D01*
X13326667Y-6201200D02*
X11850667Y-6201200D01*
X13326667Y-6241200D02*
X11882667Y-6241200D01*
X13326667Y-6281200D02*
X11916667Y-6281200D01*
X13326667Y-6321200D02*
X11950667Y-6321200D01*
X13326667Y-6361200D02*
X11986667Y-6361200D01*
X13326667Y-6401200D02*
X12023667Y-6401200D01*
X13326667Y-6441200D02*
X12061667Y-6441200D01*
X14768667Y-7401200D02*
X13964667Y-7401200D01*
X14999667Y-7361200D02*
X13733667Y-7361200D01*
X15168667Y-7321200D02*
X13564667Y-7321200D01*
X15306667Y-7281200D02*
X13426667Y-7281200D01*
X15425667Y-7241200D02*
X13307667Y-7241200D01*
X15531667Y-7201200D02*
X13201667Y-7201200D01*
X15628667Y-7161200D02*
X13104667Y-7161200D01*
X15716667Y-7121200D02*
X13016667Y-7121200D01*
X15798667Y-7081200D02*
X12934667Y-7081200D01*
X15875667Y-7041200D02*
X12857667Y-7041200D01*
X15947667Y-7001200D02*
X12785667Y-7001200D01*
X16016667Y-6961200D02*
X12716667Y-6961200D01*
X16080667Y-6921200D02*
X12652667Y-6921200D01*
X16142667Y-6881200D02*
X12590667Y-6881200D01*
X16200667Y-6841200D02*
X12532667Y-6841200D01*
X16205667Y-659959D02*
X16205667Y-1289959D01*
X16256667Y-6801200D02*
X12476667Y-6801200D01*
X16310667Y-6761200D02*
X12422667Y-6761200D01*
X16361667Y-6721200D02*
X12371667Y-6721200D01*
X16410667Y-6681200D02*
X12322667Y-6681200D01*
X16458667Y-6641200D02*
X12274667Y-6641200D01*
X16503667Y-6601200D02*
X12229667Y-6601200D01*
X16520667Y-974959D02*
X15890667Y-974959D01*
X16548667Y-6561200D02*
X12184667Y-6561200D01*
X16590667Y-6521200D02*
X12142667Y-6521200D01*
X16631667Y-6481200D02*
X12101667Y-6481200D01*
X16671667Y-6441200D02*
X15406667Y-6441200D01*
X16709667Y-6401200D02*
X15406667Y-6401200D01*
X16746667Y-6361200D02*
X15406667Y-6361200D01*
X16782667Y-6321200D02*
X15406667Y-6321200D01*
X16816667Y-6281200D02*
X15406667Y-6281200D01*
X16850667Y-6241200D02*
X15406667Y-6241200D01*
X16882667Y-6201200D02*
X15406667Y-6201200D01*
X16914667Y-6161200D02*
X15406667Y-6161200D01*
X16944667Y-6121200D02*
X15406667Y-6121200D01*
X16973667Y-6081200D02*
X15406667Y-6081200D01*
X17002667Y-6041200D02*
X15406667Y-6041200D01*
X17030667Y-6001200D02*
X15406667Y-6001200D01*
X17056667Y-5961200D02*
X15406667Y-5961200D01*
X17082667Y-5921200D02*
X15406667Y-5921200D01*
X17108667Y-5881200D02*
X15406667Y-5881200D01*
X17132667Y-5841200D02*
X15406667Y-5841200D01*
X17156667Y-5801200D02*
X15406667Y-5801200D01*
X17178667Y-5761200D02*
X15406667Y-5761200D01*
X17200667Y-5721200D02*
X15406667Y-5721200D01*
X17222667Y-5681200D02*
X15406667Y-5681200D01*
X17242667Y-5641200D02*
X15406667Y-5641200D01*
X17262667Y-5601200D02*
X15406667Y-5601200D01*
X17282667Y-5561200D02*
X15406667Y-5561200D01*
X17300667Y-5521200D02*
X15406667Y-5521200D01*
X17318667Y-5481200D02*
X15406667Y-5481200D01*
X17336667Y-5441200D02*
X15406667Y-5441200D01*
X17352667Y-5401200D02*
X15406667Y-5401200D01*
X17368667Y-5361200D02*
X15406667Y-5361200D01*
X17384667Y-5321200D02*
X15406667Y-5321200D01*
X17399667Y-5281200D02*
X15406667Y-5281200D01*
X17413667Y-5241200D02*
X15406667Y-5241200D01*
X17427667Y-5201200D02*
X15406667Y-5201200D01*
X17440667Y-5161200D02*
X15406667Y-5161200D01*
X17452667Y-5121200D02*
X15406667Y-5121200D01*
X17464667Y-5081200D02*
X15406667Y-5081200D01*
X17476667Y-5041200D02*
X15406667Y-5041200D01*
X17487667Y-5001200D02*
X15406667Y-5001200D01*
X17497667Y-4961200D02*
X15406667Y-4961200D01*
X17507667Y-4921200D02*
X15406667Y-4921200D01*
X17516667Y-4881200D02*
X15406667Y-4881200D01*
X17525667Y-4840200D02*
X15406667Y-4840200D01*
X17533667Y-4800200D02*
X15406667Y-4800200D01*
X17541667Y-4760200D02*
X15406667Y-4760200D01*
X17548667Y-4720200D02*
X15406667Y-4720200D01*
X17555667Y-4680200D02*
X15406667Y-4680200D01*
X17561667Y-4640200D02*
X15406667Y-4640200D01*
X17567667Y-4600200D02*
X15406667Y-4600200D01*
X17572667Y-4560200D02*
X15406667Y-4560200D01*
X17577667Y-4520200D02*
X15406667Y-4520200D01*
X17581667Y-4480200D02*
X15406667Y-4480200D01*
X17584667Y-4440200D02*
X15406667Y-4440200D01*
X17588667Y-4400200D02*
X15406667Y-4400200D01*
X17590667Y-4360200D02*
X11142667Y-4360200D01*
X17593667Y-4320200D02*
X11139667Y-4320200D01*
X17594667Y-4280200D02*
X11138667Y-4280200D01*
X17596667Y-4160200D02*
X11136667Y-4160200D01*
X17596667Y-4200200D02*
X11136667Y-4200200D01*
X17596667Y-4240200D02*
X11136667Y-4240200D01*
X17636667Y-4160200D02*
G75*
G02*
X11096667Y-4160200I-3270000J0D01*
G01*
X11096667Y-4160200D02*
G75*
G02*
X17636667Y-4160200I3270000J0D01*
G01*
%TO.C,C5*%
X38944467Y-4400200D02*
X36762467Y-4400200D01*
X38944467Y-4440200D02*
X36766467Y-4440200D01*
X38944467Y-4480200D02*
X36769467Y-4480200D01*
X38944467Y-4520200D02*
X36773467Y-4520200D01*
X38944467Y-4560200D02*
X36778467Y-4560200D01*
X38944467Y-4600200D02*
X36783467Y-4600200D01*
X38944467Y-4640200D02*
X36789467Y-4640200D01*
X38944467Y-4680200D02*
X36795467Y-4680200D01*
X38944467Y-4720200D02*
X36802467Y-4720200D01*
X38944467Y-4760200D02*
X36809467Y-4760200D01*
X38944467Y-4800200D02*
X36817467Y-4800200D01*
X38944467Y-4840200D02*
X36825467Y-4840200D01*
X38944467Y-4881200D02*
X36834467Y-4881200D01*
X38944467Y-4921200D02*
X36843467Y-4921200D01*
X38944467Y-4961200D02*
X36853467Y-4961200D01*
X38944467Y-5001200D02*
X36863467Y-5001200D01*
X38944467Y-5041200D02*
X36874467Y-5041200D01*
X38944467Y-5081200D02*
X36886467Y-5081200D01*
X38944467Y-5121200D02*
X36898467Y-5121200D01*
X38944467Y-5161200D02*
X36910467Y-5161200D01*
X38944467Y-5201200D02*
X36923467Y-5201200D01*
X38944467Y-5241200D02*
X36937467Y-5241200D01*
X38944467Y-5281200D02*
X36951467Y-5281200D01*
X38944467Y-5321200D02*
X36966467Y-5321200D01*
X38944467Y-5361200D02*
X36982467Y-5361200D01*
X38944467Y-5401200D02*
X36998467Y-5401200D01*
X38944467Y-5441200D02*
X37014467Y-5441200D01*
X38944467Y-5481200D02*
X37032467Y-5481200D01*
X38944467Y-5521200D02*
X37050467Y-5521200D01*
X38944467Y-5561200D02*
X37068467Y-5561200D01*
X38944467Y-5601200D02*
X37088467Y-5601200D01*
X38944467Y-5641200D02*
X37108467Y-5641200D01*
X38944467Y-5681200D02*
X37128467Y-5681200D01*
X38944467Y-5721200D02*
X37150467Y-5721200D01*
X38944467Y-5761200D02*
X37172467Y-5761200D01*
X38944467Y-5801200D02*
X37194467Y-5801200D01*
X38944467Y-5841200D02*
X37218467Y-5841200D01*
X38944467Y-5881200D02*
X37242467Y-5881200D01*
X38944467Y-5921200D02*
X37268467Y-5921200D01*
X38944467Y-5961200D02*
X37294467Y-5961200D01*
X38944467Y-6001200D02*
X37320467Y-6001200D01*
X38944467Y-6041200D02*
X37348467Y-6041200D01*
X38944467Y-6081200D02*
X37377467Y-6081200D01*
X38944467Y-6121200D02*
X37406467Y-6121200D01*
X38944467Y-6161200D02*
X37436467Y-6161200D01*
X38944467Y-6201200D02*
X37468467Y-6201200D01*
X38944467Y-6241200D02*
X37500467Y-6241200D01*
X38944467Y-6281200D02*
X37534467Y-6281200D01*
X38944467Y-6321200D02*
X37568467Y-6321200D01*
X38944467Y-6361200D02*
X37604467Y-6361200D01*
X38944467Y-6401200D02*
X37641467Y-6401200D01*
X38944467Y-6441200D02*
X37679467Y-6441200D01*
X40386467Y-7401200D02*
X39582467Y-7401200D01*
X40617467Y-7361200D02*
X39351467Y-7361200D01*
X40786467Y-7321200D02*
X39182467Y-7321200D01*
X40924467Y-7281200D02*
X39044467Y-7281200D01*
X41043467Y-7241200D02*
X38925467Y-7241200D01*
X41149467Y-7201200D02*
X38819467Y-7201200D01*
X41246467Y-7161200D02*
X38722467Y-7161200D01*
X41334467Y-7121200D02*
X38634467Y-7121200D01*
X41416467Y-7081200D02*
X38552467Y-7081200D01*
X41493467Y-7041200D02*
X38475467Y-7041200D01*
X41565467Y-7001200D02*
X38403467Y-7001200D01*
X41634467Y-6961200D02*
X38334467Y-6961200D01*
X41698467Y-6921200D02*
X38270467Y-6921200D01*
X41760467Y-6881200D02*
X38208467Y-6881200D01*
X41818467Y-6841200D02*
X38150467Y-6841200D01*
X41823467Y-659959D02*
X41823467Y-1289959D01*
X41874467Y-6801200D02*
X38094467Y-6801200D01*
X41928467Y-6761200D02*
X38040467Y-6761200D01*
X41979467Y-6721200D02*
X37989467Y-6721200D01*
X42028467Y-6681200D02*
X37940467Y-6681200D01*
X42076467Y-6641200D02*
X37892467Y-6641200D01*
X42121467Y-6601200D02*
X37847467Y-6601200D01*
X42138467Y-974959D02*
X41508467Y-974959D01*
X42166467Y-6561200D02*
X37802467Y-6561200D01*
X42208467Y-6521200D02*
X37760467Y-6521200D01*
X42249467Y-6481200D02*
X37719467Y-6481200D01*
X42289467Y-6441200D02*
X41024467Y-6441200D01*
X42327467Y-6401200D02*
X41024467Y-6401200D01*
X42364467Y-6361200D02*
X41024467Y-6361200D01*
X42400467Y-6321200D02*
X41024467Y-6321200D01*
X42434467Y-6281200D02*
X41024467Y-6281200D01*
X42468467Y-6241200D02*
X41024467Y-6241200D01*
X42500467Y-6201200D02*
X41024467Y-6201200D01*
X42532467Y-6161200D02*
X41024467Y-6161200D01*
X42562467Y-6121200D02*
X41024467Y-6121200D01*
X42591467Y-6081200D02*
X41024467Y-6081200D01*
X42620467Y-6041200D02*
X41024467Y-6041200D01*
X42648467Y-6001200D02*
X41024467Y-6001200D01*
X42674467Y-5961200D02*
X41024467Y-5961200D01*
X42700467Y-5921200D02*
X41024467Y-5921200D01*
X42726467Y-5881200D02*
X41024467Y-5881200D01*
X42750467Y-5841200D02*
X41024467Y-5841200D01*
X42774467Y-5801200D02*
X41024467Y-5801200D01*
X42796467Y-5761200D02*
X41024467Y-5761200D01*
X42818467Y-5721200D02*
X41024467Y-5721200D01*
X42840467Y-5681200D02*
X41024467Y-5681200D01*
X42860467Y-5641200D02*
X41024467Y-5641200D01*
X42880467Y-5601200D02*
X41024467Y-5601200D01*
X42900467Y-5561200D02*
X41024467Y-5561200D01*
X42918467Y-5521200D02*
X41024467Y-5521200D01*
X42936467Y-5481200D02*
X41024467Y-5481200D01*
X42954467Y-5441200D02*
X41024467Y-5441200D01*
X42970467Y-5401200D02*
X41024467Y-5401200D01*
X42986467Y-5361200D02*
X41024467Y-5361200D01*
X43002467Y-5321200D02*
X41024467Y-5321200D01*
X43017467Y-5281200D02*
X41024467Y-5281200D01*
X43031467Y-5241200D02*
X41024467Y-5241200D01*
X43045467Y-5201200D02*
X41024467Y-5201200D01*
X43058467Y-5161200D02*
X41024467Y-5161200D01*
X43070467Y-5121200D02*
X41024467Y-5121200D01*
X43082467Y-5081200D02*
X41024467Y-5081200D01*
X43094467Y-5041200D02*
X41024467Y-5041200D01*
X43105467Y-5001200D02*
X41024467Y-5001200D01*
X43115467Y-4961200D02*
X41024467Y-4961200D01*
X43125467Y-4921200D02*
X41024467Y-4921200D01*
X43134467Y-4881200D02*
X41024467Y-4881200D01*
X43143467Y-4840200D02*
X41024467Y-4840200D01*
X43151467Y-4800200D02*
X41024467Y-4800200D01*
X43159467Y-4760200D02*
X41024467Y-4760200D01*
X43166467Y-4720200D02*
X41024467Y-4720200D01*
X43173467Y-4680200D02*
X41024467Y-4680200D01*
X43179467Y-4640200D02*
X41024467Y-4640200D01*
X43185467Y-4600200D02*
X41024467Y-4600200D01*
X43190467Y-4560200D02*
X41024467Y-4560200D01*
X43195467Y-4520200D02*
X41024467Y-4520200D01*
X43199467Y-4480200D02*
X41024467Y-4480200D01*
X43202467Y-4440200D02*
X41024467Y-4440200D01*
X43206467Y-4400200D02*
X41024467Y-4400200D01*
X43208467Y-4360200D02*
X36760467Y-4360200D01*
X43211467Y-4320200D02*
X36757467Y-4320200D01*
X43212467Y-4280200D02*
X36756467Y-4280200D01*
X43214467Y-4160200D02*
X36754467Y-4160200D01*
X43214467Y-4200200D02*
X36754467Y-4200200D01*
X43214467Y-4240200D02*
X36754467Y-4240200D01*
X43254467Y-4160200D02*
G75*
G02*
X36714467Y-4160200I-3270000J0D01*
G01*
X36714467Y-4160200D02*
G75*
G02*
X43254467Y-4160200I3270000J0D01*
G01*
%TO.C,C7*%
X21865933Y-4400200D02*
X19683933Y-4400200D01*
X21865933Y-4440200D02*
X19687933Y-4440200D01*
X21865933Y-4480200D02*
X19690933Y-4480200D01*
X21865933Y-4520200D02*
X19694933Y-4520200D01*
X21865933Y-4560200D02*
X19699933Y-4560200D01*
X21865933Y-4600200D02*
X19704933Y-4600200D01*
X21865933Y-4640200D02*
X19710933Y-4640200D01*
X21865933Y-4680200D02*
X19716933Y-4680200D01*
X21865933Y-4720200D02*
X19723933Y-4720200D01*
X21865933Y-4760200D02*
X19730933Y-4760200D01*
X21865933Y-4800200D02*
X19738933Y-4800200D01*
X21865933Y-4840200D02*
X19746933Y-4840200D01*
X21865933Y-4881200D02*
X19755933Y-4881200D01*
X21865933Y-4921200D02*
X19764933Y-4921200D01*
X21865933Y-4961200D02*
X19774933Y-4961200D01*
X21865933Y-5001200D02*
X19784933Y-5001200D01*
X21865933Y-5041200D02*
X19795933Y-5041200D01*
X21865933Y-5081200D02*
X19807933Y-5081200D01*
X21865933Y-5121200D02*
X19819933Y-5121200D01*
X21865933Y-5161200D02*
X19831933Y-5161200D01*
X21865933Y-5201200D02*
X19844933Y-5201200D01*
X21865933Y-5241200D02*
X19858933Y-5241200D01*
X21865933Y-5281200D02*
X19872933Y-5281200D01*
X21865933Y-5321200D02*
X19887933Y-5321200D01*
X21865933Y-5361200D02*
X19903933Y-5361200D01*
X21865933Y-5401200D02*
X19919933Y-5401200D01*
X21865933Y-5441200D02*
X19935933Y-5441200D01*
X21865933Y-5481200D02*
X19953933Y-5481200D01*
X21865933Y-5521200D02*
X19971933Y-5521200D01*
X21865933Y-5561200D02*
X19989933Y-5561200D01*
X21865933Y-5601200D02*
X20009933Y-5601200D01*
X21865933Y-5641200D02*
X20029933Y-5641200D01*
X21865933Y-5681200D02*
X20049933Y-5681200D01*
X21865933Y-5721200D02*
X20071933Y-5721200D01*
X21865933Y-5761200D02*
X20093933Y-5761200D01*
X21865933Y-5801200D02*
X20115933Y-5801200D01*
X21865933Y-5841200D02*
X20139933Y-5841200D01*
X21865933Y-5881200D02*
X20163933Y-5881200D01*
X21865933Y-5921200D02*
X20189933Y-5921200D01*
X21865933Y-5961200D02*
X20215933Y-5961200D01*
X21865933Y-6001200D02*
X20241933Y-6001200D01*
X21865933Y-6041200D02*
X20269933Y-6041200D01*
X21865933Y-6081200D02*
X20298933Y-6081200D01*
X21865933Y-6121200D02*
X20327933Y-6121200D01*
X21865933Y-6161200D02*
X20357933Y-6161200D01*
X21865933Y-6201200D02*
X20389933Y-6201200D01*
X21865933Y-6241200D02*
X20421933Y-6241200D01*
X21865933Y-6281200D02*
X20455933Y-6281200D01*
X21865933Y-6321200D02*
X20489933Y-6321200D01*
X21865933Y-6361200D02*
X20525933Y-6361200D01*
X21865933Y-6401200D02*
X20562933Y-6401200D01*
X21865933Y-6441200D02*
X20600933Y-6441200D01*
X23307933Y-7401200D02*
X22503933Y-7401200D01*
X23538933Y-7361200D02*
X22272933Y-7361200D01*
X23707933Y-7321200D02*
X22103933Y-7321200D01*
X23845933Y-7281200D02*
X21965933Y-7281200D01*
X23964933Y-7241200D02*
X21846933Y-7241200D01*
X24070933Y-7201200D02*
X21740933Y-7201200D01*
X24167933Y-7161200D02*
X21643933Y-7161200D01*
X24255933Y-7121200D02*
X21555933Y-7121200D01*
X24337933Y-7081200D02*
X21473933Y-7081200D01*
X24414933Y-7041200D02*
X21396933Y-7041200D01*
X24486933Y-7001200D02*
X21324933Y-7001200D01*
X24555933Y-6961200D02*
X21255933Y-6961200D01*
X24619933Y-6921200D02*
X21191933Y-6921200D01*
X24681933Y-6881200D02*
X21129933Y-6881200D01*
X24739933Y-6841200D02*
X21071933Y-6841200D01*
X24744933Y-659959D02*
X24744933Y-1289959D01*
X24795933Y-6801200D02*
X21015933Y-6801200D01*
X24849933Y-6761200D02*
X20961933Y-6761200D01*
X24900933Y-6721200D02*
X20910933Y-6721200D01*
X24949933Y-6681200D02*
X20861933Y-6681200D01*
X24997933Y-6641200D02*
X20813933Y-6641200D01*
X25042933Y-6601200D02*
X20768933Y-6601200D01*
X25059933Y-974959D02*
X24429933Y-974959D01*
X25087933Y-6561200D02*
X20723933Y-6561200D01*
X25129933Y-6521200D02*
X20681933Y-6521200D01*
X25170933Y-6481200D02*
X20640933Y-6481200D01*
X25210933Y-6441200D02*
X23945933Y-6441200D01*
X25248933Y-6401200D02*
X23945933Y-6401200D01*
X25285933Y-6361200D02*
X23945933Y-6361200D01*
X25321933Y-6321200D02*
X23945933Y-6321200D01*
X25355933Y-6281200D02*
X23945933Y-6281200D01*
X25389933Y-6241200D02*
X23945933Y-6241200D01*
X25421933Y-6201200D02*
X23945933Y-6201200D01*
X25453933Y-6161200D02*
X23945933Y-6161200D01*
X25483933Y-6121200D02*
X23945933Y-6121200D01*
X25512933Y-6081200D02*
X23945933Y-6081200D01*
X25541933Y-6041200D02*
X23945933Y-6041200D01*
X25569933Y-6001200D02*
X23945933Y-6001200D01*
X25595933Y-5961200D02*
X23945933Y-5961200D01*
X25621933Y-5921200D02*
X23945933Y-5921200D01*
X25647933Y-5881200D02*
X23945933Y-5881200D01*
X25671933Y-5841200D02*
X23945933Y-5841200D01*
X25695933Y-5801200D02*
X23945933Y-5801200D01*
X25717933Y-5761200D02*
X23945933Y-5761200D01*
X25739933Y-5721200D02*
X23945933Y-5721200D01*
X25761933Y-5681200D02*
X23945933Y-5681200D01*
X25781933Y-5641200D02*
X23945933Y-5641200D01*
X25801933Y-5601200D02*
X23945933Y-5601200D01*
X25821933Y-5561200D02*
X23945933Y-5561200D01*
X25839933Y-5521200D02*
X23945933Y-5521200D01*
X25857933Y-5481200D02*
X23945933Y-5481200D01*
X25875933Y-5441200D02*
X23945933Y-5441200D01*
X25891933Y-5401200D02*
X23945933Y-5401200D01*
X25907933Y-5361200D02*
X23945933Y-5361200D01*
X25923933Y-5321200D02*
X23945933Y-5321200D01*
X25938933Y-5281200D02*
X23945933Y-5281200D01*
X25952933Y-5241200D02*
X23945933Y-5241200D01*
X25966933Y-5201200D02*
X23945933Y-5201200D01*
X25979933Y-5161200D02*
X23945933Y-5161200D01*
X25991933Y-5121200D02*
X23945933Y-5121200D01*
X26003933Y-5081200D02*
X23945933Y-5081200D01*
X26015933Y-5041200D02*
X23945933Y-5041200D01*
X26026933Y-5001200D02*
X23945933Y-5001200D01*
X26036933Y-4961200D02*
X23945933Y-4961200D01*
X26046933Y-4921200D02*
X23945933Y-4921200D01*
X26055933Y-4881200D02*
X23945933Y-4881200D01*
X26064933Y-4840200D02*
X23945933Y-4840200D01*
X26072933Y-4800200D02*
X23945933Y-4800200D01*
X26080933Y-4760200D02*
X23945933Y-4760200D01*
X26087933Y-4720200D02*
X23945933Y-4720200D01*
X26094933Y-4680200D02*
X23945933Y-4680200D01*
X26100933Y-4640200D02*
X23945933Y-4640200D01*
X26106933Y-4600200D02*
X23945933Y-4600200D01*
X26111933Y-4560200D02*
X23945933Y-4560200D01*
X26116933Y-4520200D02*
X23945933Y-4520200D01*
X26120933Y-4480200D02*
X23945933Y-4480200D01*
X26123933Y-4440200D02*
X23945933Y-4440200D01*
X26127933Y-4400200D02*
X23945933Y-4400200D01*
X26129933Y-4360200D02*
X19681933Y-4360200D01*
X26132933Y-4320200D02*
X19678933Y-4320200D01*
X26133933Y-4280200D02*
X19677933Y-4280200D01*
X26135933Y-4160200D02*
X19675933Y-4160200D01*
X26135933Y-4200200D02*
X19675933Y-4200200D01*
X26135933Y-4240200D02*
X19675933Y-4240200D01*
X26175933Y-4160200D02*
G75*
G02*
X19635933Y-4160200I-3270000J0D01*
G01*
X19635933Y-4160200D02*
G75*
G02*
X26175933Y-4160200I3270000J0D01*
G01*
%TO.C,R2*%
X88329066Y-12979400D02*
X88949066Y-12979400D01*
X88329066Y-12979400D02*
G75*
G02*
X86489066Y-12979400I-920000J0D01*
G01*
X86489066Y-12979400D02*
G75*
G02*
X88329066Y-12979400I920000J0D01*
G01*
%TO.C,C3*%
X77716933Y-4324000D02*
X75534933Y-4324000D01*
X77716933Y-4364000D02*
X75538933Y-4364000D01*
X77716933Y-4404000D02*
X75541933Y-4404000D01*
X77716933Y-4444000D02*
X75545933Y-4444000D01*
X77716933Y-4484000D02*
X75550933Y-4484000D01*
X77716933Y-4524000D02*
X75555933Y-4524000D01*
X77716933Y-4564000D02*
X75561933Y-4564000D01*
X77716933Y-4604000D02*
X75567933Y-4604000D01*
X77716933Y-4644000D02*
X75574933Y-4644000D01*
X77716933Y-4684000D02*
X75581933Y-4684000D01*
X77716933Y-4724000D02*
X75589933Y-4724000D01*
X77716933Y-4764000D02*
X75597933Y-4764000D01*
X77716933Y-4805000D02*
X75606933Y-4805000D01*
X77716933Y-4845000D02*
X75615933Y-4845000D01*
X77716933Y-4885000D02*
X75625933Y-4885000D01*
X77716933Y-4925000D02*
X75635933Y-4925000D01*
X77716933Y-4965000D02*
X75646933Y-4965000D01*
X77716933Y-5005000D02*
X75658933Y-5005000D01*
X77716933Y-5045000D02*
X75670933Y-5045000D01*
X77716933Y-5085000D02*
X75682933Y-5085000D01*
X77716933Y-5125000D02*
X75695933Y-5125000D01*
X77716933Y-5165000D02*
X75709933Y-5165000D01*
X77716933Y-5205000D02*
X75723933Y-5205000D01*
X77716933Y-5245000D02*
X75738933Y-5245000D01*
X77716933Y-5285000D02*
X75754933Y-5285000D01*
X77716933Y-5325000D02*
X75770933Y-5325000D01*
X77716933Y-5365000D02*
X75786933Y-5365000D01*
X77716933Y-5405000D02*
X75804933Y-5405000D01*
X77716933Y-5445000D02*
X75822933Y-5445000D01*
X77716933Y-5485000D02*
X75840933Y-5485000D01*
X77716933Y-5525000D02*
X75860933Y-5525000D01*
X77716933Y-5565000D02*
X75880933Y-5565000D01*
X77716933Y-5605000D02*
X75900933Y-5605000D01*
X77716933Y-5645000D02*
X75922933Y-5645000D01*
X77716933Y-5685000D02*
X75944933Y-5685000D01*
X77716933Y-5725000D02*
X75966933Y-5725000D01*
X77716933Y-5765000D02*
X75990933Y-5765000D01*
X77716933Y-5805000D02*
X76014933Y-5805000D01*
X77716933Y-5845000D02*
X76040933Y-5845000D01*
X77716933Y-5885000D02*
X76066933Y-5885000D01*
X77716933Y-5925000D02*
X76092933Y-5925000D01*
X77716933Y-5965000D02*
X76120933Y-5965000D01*
X77716933Y-6005000D02*
X76149933Y-6005000D01*
X77716933Y-6045000D02*
X76178933Y-6045000D01*
X77716933Y-6085000D02*
X76208933Y-6085000D01*
X77716933Y-6125000D02*
X76240933Y-6125000D01*
X77716933Y-6165000D02*
X76272933Y-6165000D01*
X77716933Y-6205000D02*
X76306933Y-6205000D01*
X77716933Y-6245000D02*
X76340933Y-6245000D01*
X77716933Y-6285000D02*
X76376933Y-6285000D01*
X77716933Y-6325000D02*
X76413933Y-6325000D01*
X77716933Y-6365000D02*
X76451933Y-6365000D01*
X79158933Y-7325000D02*
X78354933Y-7325000D01*
X79389933Y-7285000D02*
X78123933Y-7285000D01*
X79558933Y-7245000D02*
X77954933Y-7245000D01*
X79696933Y-7205000D02*
X77816933Y-7205000D01*
X79815933Y-7165000D02*
X77697933Y-7165000D01*
X79921933Y-7125000D02*
X77591933Y-7125000D01*
X80018933Y-7085000D02*
X77494933Y-7085000D01*
X80106933Y-7045000D02*
X77406933Y-7045000D01*
X80188933Y-7005000D02*
X77324933Y-7005000D01*
X80265933Y-6965000D02*
X77247933Y-6965000D01*
X80337933Y-6925000D02*
X77175933Y-6925000D01*
X80406933Y-6885000D02*
X77106933Y-6885000D01*
X80470933Y-6845000D02*
X77042933Y-6845000D01*
X80532933Y-6805000D02*
X76980933Y-6805000D01*
X80590933Y-6765000D02*
X76922933Y-6765000D01*
X80595933Y-583759D02*
X80595933Y-1213759D01*
X80646933Y-6725000D02*
X76866933Y-6725000D01*
X80700933Y-6685000D02*
X76812933Y-6685000D01*
X80751933Y-6645000D02*
X76761933Y-6645000D01*
X80800933Y-6605000D02*
X76712933Y-6605000D01*
X80848933Y-6565000D02*
X76664933Y-6565000D01*
X80893933Y-6525000D02*
X76619933Y-6525000D01*
X80910933Y-898759D02*
X80280933Y-898759D01*
X80938933Y-6485000D02*
X76574933Y-6485000D01*
X80980933Y-6445000D02*
X76532933Y-6445000D01*
X81021933Y-6405000D02*
X76491933Y-6405000D01*
X81061933Y-6365000D02*
X79796933Y-6365000D01*
X81099933Y-6325000D02*
X79796933Y-6325000D01*
X81136933Y-6285000D02*
X79796933Y-6285000D01*
X81172933Y-6245000D02*
X79796933Y-6245000D01*
X81206933Y-6205000D02*
X79796933Y-6205000D01*
X81240933Y-6165000D02*
X79796933Y-6165000D01*
X81272933Y-6125000D02*
X79796933Y-6125000D01*
X81304933Y-6085000D02*
X79796933Y-6085000D01*
X81334933Y-6045000D02*
X79796933Y-6045000D01*
X81363933Y-6005000D02*
X79796933Y-6005000D01*
X81392933Y-5965000D02*
X79796933Y-5965000D01*
X81420933Y-5925000D02*
X79796933Y-5925000D01*
X81446933Y-5885000D02*
X79796933Y-5885000D01*
X81472933Y-5845000D02*
X79796933Y-5845000D01*
X81498933Y-5805000D02*
X79796933Y-5805000D01*
X81522933Y-5765000D02*
X79796933Y-5765000D01*
X81546933Y-5725000D02*
X79796933Y-5725000D01*
X81568933Y-5685000D02*
X79796933Y-5685000D01*
X81590933Y-5645000D02*
X79796933Y-5645000D01*
X81612933Y-5605000D02*
X79796933Y-5605000D01*
X81632933Y-5565000D02*
X79796933Y-5565000D01*
X81652933Y-5525000D02*
X79796933Y-5525000D01*
X81672933Y-5485000D02*
X79796933Y-5485000D01*
X81690933Y-5445000D02*
X79796933Y-5445000D01*
X81708933Y-5405000D02*
X79796933Y-5405000D01*
X81726933Y-5365000D02*
X79796933Y-5365000D01*
X81742933Y-5325000D02*
X79796933Y-5325000D01*
X81758933Y-5285000D02*
X79796933Y-5285000D01*
X81774933Y-5245000D02*
X79796933Y-5245000D01*
X81789933Y-5205000D02*
X79796933Y-5205000D01*
X81803933Y-5165000D02*
X79796933Y-5165000D01*
X81817933Y-5125000D02*
X79796933Y-5125000D01*
X81830933Y-5085000D02*
X79796933Y-5085000D01*
X81842933Y-5045000D02*
X79796933Y-5045000D01*
X81854933Y-5005000D02*
X79796933Y-5005000D01*
X81866933Y-4965000D02*
X79796933Y-4965000D01*
X81877933Y-4925000D02*
X79796933Y-4925000D01*
X81887933Y-4885000D02*
X79796933Y-4885000D01*
X81897933Y-4845000D02*
X79796933Y-4845000D01*
X81906933Y-4805000D02*
X79796933Y-4805000D01*
X81915933Y-4764000D02*
X79796933Y-4764000D01*
X81923933Y-4724000D02*
X79796933Y-4724000D01*
X81931933Y-4684000D02*
X79796933Y-4684000D01*
X81938933Y-4644000D02*
X79796933Y-4644000D01*
X81945933Y-4604000D02*
X79796933Y-4604000D01*
X81951933Y-4564000D02*
X79796933Y-4564000D01*
X81957933Y-4524000D02*
X79796933Y-4524000D01*
X81962933Y-4484000D02*
X79796933Y-4484000D01*
X81967933Y-4444000D02*
X79796933Y-4444000D01*
X81971933Y-4404000D02*
X79796933Y-4404000D01*
X81974933Y-4364000D02*
X79796933Y-4364000D01*
X81978933Y-4324000D02*
X79796933Y-4324000D01*
X81980933Y-4284000D02*
X75532933Y-4284000D01*
X81983933Y-4244000D02*
X75529933Y-4244000D01*
X81984933Y-4204000D02*
X75528933Y-4204000D01*
X81986933Y-4084000D02*
X75526933Y-4084000D01*
X81986933Y-4124000D02*
X75526933Y-4124000D01*
X81986933Y-4164000D02*
X75526933Y-4164000D01*
X82026933Y-4084000D02*
G75*
G02*
X75486933Y-4084000I-3270000J0D01*
G01*
X75486933Y-4084000D02*
G75*
G02*
X82026933Y-4084000I3270000J0D01*
G01*
%TO.C,C6*%
X30405199Y-4400200D02*
X28223199Y-4400200D01*
X30405199Y-4440200D02*
X28227199Y-4440200D01*
X30405199Y-4480200D02*
X28230199Y-4480200D01*
X30405199Y-4520200D02*
X28234199Y-4520200D01*
X30405199Y-4560200D02*
X28239199Y-4560200D01*
X30405199Y-4600200D02*
X28244199Y-4600200D01*
X30405199Y-4640200D02*
X28250199Y-4640200D01*
X30405199Y-4680200D02*
X28256199Y-4680200D01*
X30405199Y-4720200D02*
X28263199Y-4720200D01*
X30405199Y-4760200D02*
X28270199Y-4760200D01*
X30405199Y-4800200D02*
X28278199Y-4800200D01*
X30405199Y-4840200D02*
X28286199Y-4840200D01*
X30405199Y-4881200D02*
X28295199Y-4881200D01*
X30405199Y-4921200D02*
X28304199Y-4921200D01*
X30405199Y-4961200D02*
X28314199Y-4961200D01*
X30405199Y-5001200D02*
X28324199Y-5001200D01*
X30405199Y-5041200D02*
X28335199Y-5041200D01*
X30405199Y-5081200D02*
X28347199Y-5081200D01*
X30405199Y-5121200D02*
X28359199Y-5121200D01*
X30405199Y-5161200D02*
X28371199Y-5161200D01*
X30405199Y-5201200D02*
X28384199Y-5201200D01*
X30405199Y-5241200D02*
X28398199Y-5241200D01*
X30405199Y-5281200D02*
X28412199Y-5281200D01*
X30405199Y-5321200D02*
X28427199Y-5321200D01*
X30405199Y-5361200D02*
X28443199Y-5361200D01*
X30405199Y-5401200D02*
X28459199Y-5401200D01*
X30405199Y-5441200D02*
X28475199Y-5441200D01*
X30405199Y-5481200D02*
X28493199Y-5481200D01*
X30405199Y-5521200D02*
X28511199Y-5521200D01*
X30405199Y-5561200D02*
X28529199Y-5561200D01*
X30405199Y-5601200D02*
X28549199Y-5601200D01*
X30405199Y-5641200D02*
X28569199Y-5641200D01*
X30405199Y-5681200D02*
X28589199Y-5681200D01*
X30405199Y-5721200D02*
X28611199Y-5721200D01*
X30405199Y-5761200D02*
X28633199Y-5761200D01*
X30405199Y-5801200D02*
X28655199Y-5801200D01*
X30405199Y-5841200D02*
X28679199Y-5841200D01*
X30405199Y-5881200D02*
X28703199Y-5881200D01*
X30405199Y-5921200D02*
X28729199Y-5921200D01*
X30405199Y-5961200D02*
X28755199Y-5961200D01*
X30405199Y-6001200D02*
X28781199Y-6001200D01*
X30405199Y-6041200D02*
X28809199Y-6041200D01*
X30405199Y-6081200D02*
X28838199Y-6081200D01*
X30405199Y-6121200D02*
X28867199Y-6121200D01*
X30405199Y-6161200D02*
X28897199Y-6161200D01*
X30405199Y-6201200D02*
X28929199Y-6201200D01*
X30405199Y-6241200D02*
X28961199Y-6241200D01*
X30405199Y-6281200D02*
X28995199Y-6281200D01*
X30405199Y-6321200D02*
X29029199Y-6321200D01*
X30405199Y-6361200D02*
X29065199Y-6361200D01*
X30405199Y-6401200D02*
X29102199Y-6401200D01*
X30405199Y-6441200D02*
X29140199Y-6441200D01*
X31847199Y-7401200D02*
X31043199Y-7401200D01*
X32078199Y-7361200D02*
X30812199Y-7361200D01*
X32247199Y-7321200D02*
X30643199Y-7321200D01*
X32385199Y-7281200D02*
X30505199Y-7281200D01*
X32504199Y-7241200D02*
X30386199Y-7241200D01*
X32610199Y-7201200D02*
X30280199Y-7201200D01*
X32707199Y-7161200D02*
X30183199Y-7161200D01*
X32795199Y-7121200D02*
X30095199Y-7121200D01*
X32877199Y-7081200D02*
X30013199Y-7081200D01*
X32954199Y-7041200D02*
X29936199Y-7041200D01*
X33026199Y-7001200D02*
X29864199Y-7001200D01*
X33095199Y-6961200D02*
X29795199Y-6961200D01*
X33159199Y-6921200D02*
X29731199Y-6921200D01*
X33221199Y-6881200D02*
X29669199Y-6881200D01*
X33279199Y-6841200D02*
X29611199Y-6841200D01*
X33284199Y-659959D02*
X33284199Y-1289959D01*
X33335199Y-6801200D02*
X29555199Y-6801200D01*
X33389199Y-6761200D02*
X29501199Y-6761200D01*
X33440199Y-6721200D02*
X29450199Y-6721200D01*
X33489199Y-6681200D02*
X29401199Y-6681200D01*
X33537199Y-6641200D02*
X29353199Y-6641200D01*
X33582199Y-6601200D02*
X29308199Y-6601200D01*
X33599199Y-974959D02*
X32969199Y-974959D01*
X33627199Y-6561200D02*
X29263199Y-6561200D01*
X33669199Y-6521200D02*
X29221199Y-6521200D01*
X33710199Y-6481200D02*
X29180199Y-6481200D01*
X33750199Y-6441200D02*
X32485199Y-6441200D01*
X33788199Y-6401200D02*
X32485199Y-6401200D01*
X33825199Y-6361200D02*
X32485199Y-6361200D01*
X33861199Y-6321200D02*
X32485199Y-6321200D01*
X33895199Y-6281200D02*
X32485199Y-6281200D01*
X33929199Y-6241200D02*
X32485199Y-6241200D01*
X33961199Y-6201200D02*
X32485199Y-6201200D01*
X33993199Y-6161200D02*
X32485199Y-6161200D01*
X34023199Y-6121200D02*
X32485199Y-6121200D01*
X34052199Y-6081200D02*
X32485199Y-6081200D01*
X34081199Y-6041200D02*
X32485199Y-6041200D01*
X34109199Y-6001200D02*
X32485199Y-6001200D01*
X34135199Y-5961200D02*
X32485199Y-5961200D01*
X34161199Y-5921200D02*
X32485199Y-5921200D01*
X34187199Y-5881200D02*
X32485199Y-5881200D01*
X34211199Y-5841200D02*
X32485199Y-5841200D01*
X34235199Y-5801200D02*
X32485199Y-5801200D01*
X34257199Y-5761200D02*
X32485199Y-5761200D01*
X34279199Y-5721200D02*
X32485199Y-5721200D01*
X34301199Y-5681200D02*
X32485199Y-5681200D01*
X34321199Y-5641200D02*
X32485199Y-5641200D01*
X34341199Y-5601200D02*
X32485199Y-5601200D01*
X34361199Y-5561200D02*
X32485199Y-5561200D01*
X34379199Y-5521200D02*
X32485199Y-5521200D01*
X34397199Y-5481200D02*
X32485199Y-5481200D01*
X34415199Y-5441200D02*
X32485199Y-5441200D01*
X34431199Y-5401200D02*
X32485199Y-5401200D01*
X34447199Y-5361200D02*
X32485199Y-5361200D01*
X34463199Y-5321200D02*
X32485199Y-5321200D01*
X34478199Y-5281200D02*
X32485199Y-5281200D01*
X34492199Y-5241200D02*
X32485199Y-5241200D01*
X34506199Y-5201200D02*
X32485199Y-5201200D01*
X34519199Y-5161200D02*
X32485199Y-5161200D01*
X34531199Y-5121200D02*
X32485199Y-5121200D01*
X34543199Y-5081200D02*
X32485199Y-5081200D01*
X34555199Y-5041200D02*
X32485199Y-5041200D01*
X34566199Y-5001200D02*
X32485199Y-5001200D01*
X34576199Y-4961200D02*
X32485199Y-4961200D01*
X34586199Y-4921200D02*
X32485199Y-4921200D01*
X34595199Y-4881200D02*
X32485199Y-4881200D01*
X34604199Y-4840200D02*
X32485199Y-4840200D01*
X34612199Y-4800200D02*
X32485199Y-4800200D01*
X34620199Y-4760200D02*
X32485199Y-4760200D01*
X34627199Y-4720200D02*
X32485199Y-4720200D01*
X34634199Y-4680200D02*
X32485199Y-4680200D01*
X34640199Y-4640200D02*
X32485199Y-4640200D01*
X34646199Y-4600200D02*
X32485199Y-4600200D01*
X34651199Y-4560200D02*
X32485199Y-4560200D01*
X34656199Y-4520200D02*
X32485199Y-4520200D01*
X34660199Y-4480200D02*
X32485199Y-4480200D01*
X34663199Y-4440200D02*
X32485199Y-4440200D01*
X34667199Y-4400200D02*
X32485199Y-4400200D01*
X34669199Y-4360200D02*
X28221199Y-4360200D01*
X34672199Y-4320200D02*
X28218199Y-4320200D01*
X34673199Y-4280200D02*
X28217199Y-4280200D01*
X34675199Y-4160200D02*
X28215199Y-4160200D01*
X34675199Y-4200200D02*
X28215199Y-4200200D01*
X34675199Y-4240200D02*
X28215199Y-4240200D01*
X34715199Y-4160200D02*
G75*
G02*
X28175199Y-4160200I-3270000J0D01*
G01*
X28175199Y-4160200D02*
G75*
G02*
X34715199Y-4160200I3270000J0D01*
G01*
%TO.C,J2*%
X83569800Y-30006800D02*
X85319800Y-30006800D01*
X83569800Y-36746800D02*
X83569800Y-30006800D01*
X85069800Y-36746800D02*
X83569800Y-36746800D01*
X85069800Y-36746800D02*
X85069800Y-39446800D01*
X85319800Y-30006800D02*
X85319800Y-24506800D01*
X88069800Y-24506800D02*
X85319800Y-24506800D01*
X88069800Y-24506800D02*
X88069800Y-17006800D01*
X104309800Y-17006800D02*
X88069800Y-17006800D01*
X104309800Y-24506800D02*
X104309800Y-17006800D01*
X107059800Y-24506800D02*
X104309800Y-24506800D01*
X107059800Y-30006800D02*
X107059800Y-24506800D01*
X107059800Y-30006800D02*
X108809800Y-30006800D01*
X107309800Y-36746800D02*
X107309800Y-39446800D01*
X107309800Y-39446800D02*
X85069800Y-39446800D01*
X108809800Y-36746800D02*
X107309800Y-36746800D01*
X108809800Y-36746800D02*
X108809800Y-30006800D01*
%TO.C,J4*%
X28401000Y-30006800D02*
X30151000Y-30006800D01*
X28401000Y-36746800D02*
X28401000Y-30006800D01*
X29901000Y-36746800D02*
X28401000Y-36746800D01*
X29901000Y-36746800D02*
X29901000Y-39446800D01*
X30151000Y-30006800D02*
X30151000Y-24506800D01*
X32901000Y-24506800D02*
X30151000Y-24506800D01*
X32901000Y-24506800D02*
X32901000Y-17006800D01*
X49141000Y-17006800D02*
X32901000Y-17006800D01*
X49141000Y-24506800D02*
X49141000Y-17006800D01*
X51891000Y-24506800D02*
X49141000Y-24506800D01*
X51891000Y-30006800D02*
X51891000Y-24506800D01*
X51891000Y-30006800D02*
X53641000Y-30006800D01*
X52141000Y-36746800D02*
X52141000Y-39446800D01*
X52141000Y-39446800D02*
X29901000Y-39446800D01*
X53641000Y-36746800D02*
X52141000Y-36746800D01*
X53641000Y-36746800D02*
X53641000Y-30006800D01*
D16*
%TO.C,J1*%
X46251800Y1060600D02*
X64031800Y1060600D01*
X46251800Y-12217400D02*
X46251800Y1060600D01*
X64031800Y1060600D02*
X64031800Y-10039400D01*
D15*
%TO.C,R4*%
X71023200Y-12979400D02*
X71643200Y-12979400D01*
X71023200Y-12979400D02*
G75*
G02*
X69183200Y-12979400I-920000J0D01*
G01*
X69183200Y-12979400D02*
G75*
G02*
X71023200Y-12979400I920000J0D01*
G01*
%TO.C,R1*%
X96982000Y-12979400D02*
X97602000Y-12979400D01*
X96982000Y-12979400D02*
G75*
G02*
X95142000Y-12979400I-920000J0D01*
G01*
X95142000Y-12979400D02*
G75*
G02*
X96982000Y-12979400I920000J0D01*
G01*
%TO.C,C2*%
X86369866Y-4324000D02*
X84187866Y-4324000D01*
X86369866Y-4364000D02*
X84191866Y-4364000D01*
X86369866Y-4404000D02*
X84194866Y-4404000D01*
X86369866Y-4444000D02*
X84198866Y-4444000D01*
X86369866Y-4484000D02*
X84203866Y-4484000D01*
X86369866Y-4524000D02*
X84208866Y-4524000D01*
X86369866Y-4564000D02*
X84214866Y-4564000D01*
X86369866Y-4604000D02*
X84220866Y-4604000D01*
X86369866Y-4644000D02*
X84227866Y-4644000D01*
X86369866Y-4684000D02*
X84234866Y-4684000D01*
X86369866Y-4724000D02*
X84242866Y-4724000D01*
X86369866Y-4764000D02*
X84250866Y-4764000D01*
X86369866Y-4805000D02*
X84259866Y-4805000D01*
X86369866Y-4845000D02*
X84268866Y-4845000D01*
X86369866Y-4885000D02*
X84278866Y-4885000D01*
X86369866Y-4925000D02*
X84288866Y-4925000D01*
X86369866Y-4965000D02*
X84299866Y-4965000D01*
X86369866Y-5005000D02*
X84311866Y-5005000D01*
X86369866Y-5045000D02*
X84323866Y-5045000D01*
X86369866Y-5085000D02*
X84335866Y-5085000D01*
X86369866Y-5125000D02*
X84348866Y-5125000D01*
X86369866Y-5165000D02*
X84362866Y-5165000D01*
X86369866Y-5205000D02*
X84376866Y-5205000D01*
X86369866Y-5245000D02*
X84391866Y-5245000D01*
X86369866Y-5285000D02*
X84407866Y-5285000D01*
X86369866Y-5325000D02*
X84423866Y-5325000D01*
X86369866Y-5365000D02*
X84439866Y-5365000D01*
X86369866Y-5405000D02*
X84457866Y-5405000D01*
X86369866Y-5445000D02*
X84475866Y-5445000D01*
X86369866Y-5485000D02*
X84493866Y-5485000D01*
X86369866Y-5525000D02*
X84513866Y-5525000D01*
X86369866Y-5565000D02*
X84533866Y-5565000D01*
X86369866Y-5605000D02*
X84553866Y-5605000D01*
X86369866Y-5645000D02*
X84575866Y-5645000D01*
X86369866Y-5685000D02*
X84597866Y-5685000D01*
X86369866Y-5725000D02*
X84619866Y-5725000D01*
X86369866Y-5765000D02*
X84643866Y-5765000D01*
X86369866Y-5805000D02*
X84667866Y-5805000D01*
X86369866Y-5845000D02*
X84693866Y-5845000D01*
X86369866Y-5885000D02*
X84719866Y-5885000D01*
X86369866Y-5925000D02*
X84745866Y-5925000D01*
X86369866Y-5965000D02*
X84773866Y-5965000D01*
X86369866Y-6005000D02*
X84802866Y-6005000D01*
X86369866Y-6045000D02*
X84831866Y-6045000D01*
X86369866Y-6085000D02*
X84861866Y-6085000D01*
X86369866Y-6125000D02*
X84893866Y-6125000D01*
X86369866Y-6165000D02*
X84925866Y-6165000D01*
X86369866Y-6205000D02*
X84959866Y-6205000D01*
X86369866Y-6245000D02*
X84993866Y-6245000D01*
X86369866Y-6285000D02*
X85029866Y-6285000D01*
X86369866Y-6325000D02*
X85066866Y-6325000D01*
X86369866Y-6365000D02*
X85104866Y-6365000D01*
X87811866Y-7325000D02*
X87007866Y-7325000D01*
X88042866Y-7285000D02*
X86776866Y-7285000D01*
X88211866Y-7245000D02*
X86607866Y-7245000D01*
X88349866Y-7205000D02*
X86469866Y-7205000D01*
X88468866Y-7165000D02*
X86350866Y-7165000D01*
X88574866Y-7125000D02*
X86244866Y-7125000D01*
X88671866Y-7085000D02*
X86147866Y-7085000D01*
X88759866Y-7045000D02*
X86059866Y-7045000D01*
X88841866Y-7005000D02*
X85977866Y-7005000D01*
X88918866Y-6965000D02*
X85900866Y-6965000D01*
X88990866Y-6925000D02*
X85828866Y-6925000D01*
X89059866Y-6885000D02*
X85759866Y-6885000D01*
X89123866Y-6845000D02*
X85695866Y-6845000D01*
X89185866Y-6805000D02*
X85633866Y-6805000D01*
X89243866Y-6765000D02*
X85575866Y-6765000D01*
X89248866Y-583759D02*
X89248866Y-1213759D01*
X89299866Y-6725000D02*
X85519866Y-6725000D01*
X89353866Y-6685000D02*
X85465866Y-6685000D01*
X89404866Y-6645000D02*
X85414866Y-6645000D01*
X89453866Y-6605000D02*
X85365866Y-6605000D01*
X89501866Y-6565000D02*
X85317866Y-6565000D01*
X89546866Y-6525000D02*
X85272866Y-6525000D01*
X89563866Y-898759D02*
X88933866Y-898759D01*
X89591866Y-6485000D02*
X85227866Y-6485000D01*
X89633866Y-6445000D02*
X85185866Y-6445000D01*
X89674866Y-6405000D02*
X85144866Y-6405000D01*
X89714866Y-6365000D02*
X88449866Y-6365000D01*
X89752866Y-6325000D02*
X88449866Y-6325000D01*
X89789866Y-6285000D02*
X88449866Y-6285000D01*
X89825866Y-6245000D02*
X88449866Y-6245000D01*
X89859866Y-6205000D02*
X88449866Y-6205000D01*
X89893866Y-6165000D02*
X88449866Y-6165000D01*
X89925866Y-6125000D02*
X88449866Y-6125000D01*
X89957866Y-6085000D02*
X88449866Y-6085000D01*
X89987866Y-6045000D02*
X88449866Y-6045000D01*
X90016866Y-6005000D02*
X88449866Y-6005000D01*
X90045866Y-5965000D02*
X88449866Y-5965000D01*
X90073866Y-5925000D02*
X88449866Y-5925000D01*
X90099866Y-5885000D02*
X88449866Y-5885000D01*
X90125866Y-5845000D02*
X88449866Y-5845000D01*
X90151866Y-5805000D02*
X88449866Y-5805000D01*
X90175866Y-5765000D02*
X88449866Y-5765000D01*
X90199866Y-5725000D02*
X88449866Y-5725000D01*
X90221866Y-5685000D02*
X88449866Y-5685000D01*
X90243866Y-5645000D02*
X88449866Y-5645000D01*
X90265866Y-5605000D02*
X88449866Y-5605000D01*
X90285866Y-5565000D02*
X88449866Y-5565000D01*
X90305866Y-5525000D02*
X88449866Y-5525000D01*
X90325866Y-5485000D02*
X88449866Y-5485000D01*
X90343866Y-5445000D02*
X88449866Y-5445000D01*
X90361866Y-5405000D02*
X88449866Y-5405000D01*
X90379866Y-5365000D02*
X88449866Y-5365000D01*
X90395866Y-5325000D02*
X88449866Y-5325000D01*
X90411866Y-5285000D02*
X88449866Y-5285000D01*
X90427866Y-5245000D02*
X88449866Y-5245000D01*
X90442866Y-5205000D02*
X88449866Y-5205000D01*
X90456866Y-5165000D02*
X88449866Y-5165000D01*
X90470866Y-5125000D02*
X88449866Y-5125000D01*
X90483866Y-5085000D02*
X88449866Y-5085000D01*
X90495866Y-5045000D02*
X88449866Y-5045000D01*
X90507866Y-5005000D02*
X88449866Y-5005000D01*
X90519866Y-4965000D02*
X88449866Y-4965000D01*
X90530866Y-4925000D02*
X88449866Y-4925000D01*
X90540866Y-4885000D02*
X88449866Y-4885000D01*
X90550866Y-4845000D02*
X88449866Y-4845000D01*
X90559866Y-4805000D02*
X88449866Y-4805000D01*
X90568866Y-4764000D02*
X88449866Y-4764000D01*
X90576866Y-4724000D02*
X88449866Y-4724000D01*
X90584866Y-4684000D02*
X88449866Y-4684000D01*
X90591866Y-4644000D02*
X88449866Y-4644000D01*
X90598866Y-4604000D02*
X88449866Y-4604000D01*
X90604866Y-4564000D02*
X88449866Y-4564000D01*
X90610866Y-4524000D02*
X88449866Y-4524000D01*
X90615866Y-4484000D02*
X88449866Y-4484000D01*
X90620866Y-4444000D02*
X88449866Y-4444000D01*
X90624866Y-4404000D02*
X88449866Y-4404000D01*
X90627866Y-4364000D02*
X88449866Y-4364000D01*
X90631866Y-4324000D02*
X88449866Y-4324000D01*
X90633866Y-4284000D02*
X84185866Y-4284000D01*
X90636866Y-4244000D02*
X84182866Y-4244000D01*
X90637866Y-4204000D02*
X84181866Y-4204000D01*
X90639866Y-4084000D02*
X84179866Y-4084000D01*
X90639866Y-4124000D02*
X84179866Y-4124000D01*
X90639866Y-4164000D02*
X84179866Y-4164000D01*
X90679866Y-4084000D02*
G75*
G02*
X84139866Y-4084000I-3270000J0D01*
G01*
X84139866Y-4084000D02*
G75*
G02*
X90679866Y-4084000I3270000J0D01*
G01*
%TO.C,C4*%
X69064000Y-4324000D02*
X66882000Y-4324000D01*
X69064000Y-4364000D02*
X66886000Y-4364000D01*
X69064000Y-4404000D02*
X66889000Y-4404000D01*
X69064000Y-4444000D02*
X66893000Y-4444000D01*
X69064000Y-4484000D02*
X66898000Y-4484000D01*
X69064000Y-4524000D02*
X66903000Y-4524000D01*
X69064000Y-4564000D02*
X66909000Y-4564000D01*
X69064000Y-4604000D02*
X66915000Y-4604000D01*
X69064000Y-4644000D02*
X66922000Y-4644000D01*
X69064000Y-4684000D02*
X66929000Y-4684000D01*
X69064000Y-4724000D02*
X66937000Y-4724000D01*
X69064000Y-4764000D02*
X66945000Y-4764000D01*
X69064000Y-4805000D02*
X66954000Y-4805000D01*
X69064000Y-4845000D02*
X66963000Y-4845000D01*
X69064000Y-4885000D02*
X66973000Y-4885000D01*
X69064000Y-4925000D02*
X66983000Y-4925000D01*
X69064000Y-4965000D02*
X66994000Y-4965000D01*
X69064000Y-5005000D02*
X67006000Y-5005000D01*
X69064000Y-5045000D02*
X67018000Y-5045000D01*
X69064000Y-5085000D02*
X67030000Y-5085000D01*
X69064000Y-5125000D02*
X67043000Y-5125000D01*
X69064000Y-5165000D02*
X67057000Y-5165000D01*
X69064000Y-5205000D02*
X67071000Y-5205000D01*
X69064000Y-5245000D02*
X67086000Y-5245000D01*
X69064000Y-5285000D02*
X67102000Y-5285000D01*
X69064000Y-5325000D02*
X67118000Y-5325000D01*
X69064000Y-5365000D02*
X67134000Y-5365000D01*
X69064000Y-5405000D02*
X67152000Y-5405000D01*
X69064000Y-5445000D02*
X67170000Y-5445000D01*
X69064000Y-5485000D02*
X67188000Y-5485000D01*
X69064000Y-5525000D02*
X67208000Y-5525000D01*
X69064000Y-5565000D02*
X67228000Y-5565000D01*
X69064000Y-5605000D02*
X67248000Y-5605000D01*
X69064000Y-5645000D02*
X67270000Y-5645000D01*
X69064000Y-5685000D02*
X67292000Y-5685000D01*
X69064000Y-5725000D02*
X67314000Y-5725000D01*
X69064000Y-5765000D02*
X67338000Y-5765000D01*
X69064000Y-5805000D02*
X67362000Y-5805000D01*
X69064000Y-5845000D02*
X67388000Y-5845000D01*
X69064000Y-5885000D02*
X67414000Y-5885000D01*
X69064000Y-5925000D02*
X67440000Y-5925000D01*
X69064000Y-5965000D02*
X67468000Y-5965000D01*
X69064000Y-6005000D02*
X67497000Y-6005000D01*
X69064000Y-6045000D02*
X67526000Y-6045000D01*
X69064000Y-6085000D02*
X67556000Y-6085000D01*
X69064000Y-6125000D02*
X67588000Y-6125000D01*
X69064000Y-6165000D02*
X67620000Y-6165000D01*
X69064000Y-6205000D02*
X67654000Y-6205000D01*
X69064000Y-6245000D02*
X67688000Y-6245000D01*
X69064000Y-6285000D02*
X67724000Y-6285000D01*
X69064000Y-6325000D02*
X67761000Y-6325000D01*
X69064000Y-6365000D02*
X67799000Y-6365000D01*
X70506000Y-7325000D02*
X69702000Y-7325000D01*
X70737000Y-7285000D02*
X69471000Y-7285000D01*
X70906000Y-7245000D02*
X69302000Y-7245000D01*
X71044000Y-7205000D02*
X69164000Y-7205000D01*
X71163000Y-7165000D02*
X69045000Y-7165000D01*
X71269000Y-7125000D02*
X68939000Y-7125000D01*
X71366000Y-7085000D02*
X68842000Y-7085000D01*
X71454000Y-7045000D02*
X68754000Y-7045000D01*
X71536000Y-7005000D02*
X68672000Y-7005000D01*
X71613000Y-6965000D02*
X68595000Y-6965000D01*
X71685000Y-6925000D02*
X68523000Y-6925000D01*
X71754000Y-6885000D02*
X68454000Y-6885000D01*
X71818000Y-6845000D02*
X68390000Y-6845000D01*
X71880000Y-6805000D02*
X68328000Y-6805000D01*
X71938000Y-6765000D02*
X68270000Y-6765000D01*
X71943000Y-583759D02*
X71943000Y-1213759D01*
X71994000Y-6725000D02*
X68214000Y-6725000D01*
X72048000Y-6685000D02*
X68160000Y-6685000D01*
X72099000Y-6645000D02*
X68109000Y-6645000D01*
X72148000Y-6605000D02*
X68060000Y-6605000D01*
X72196000Y-6565000D02*
X68012000Y-6565000D01*
X72241000Y-6525000D02*
X67967000Y-6525000D01*
X72258000Y-898759D02*
X71628000Y-898759D01*
X72286000Y-6485000D02*
X67922000Y-6485000D01*
X72328000Y-6445000D02*
X67880000Y-6445000D01*
X72369000Y-6405000D02*
X67839000Y-6405000D01*
X72409000Y-6365000D02*
X71144000Y-6365000D01*
X72447000Y-6325000D02*
X71144000Y-6325000D01*
X72484000Y-6285000D02*
X71144000Y-6285000D01*
X72520000Y-6245000D02*
X71144000Y-6245000D01*
X72554000Y-6205000D02*
X71144000Y-6205000D01*
X72588000Y-6165000D02*
X71144000Y-6165000D01*
X72620000Y-6125000D02*
X71144000Y-6125000D01*
X72652000Y-6085000D02*
X71144000Y-6085000D01*
X72682000Y-6045000D02*
X71144000Y-6045000D01*
X72711000Y-6005000D02*
X71144000Y-6005000D01*
X72740000Y-5965000D02*
X71144000Y-5965000D01*
X72768000Y-5925000D02*
X71144000Y-5925000D01*
X72794000Y-5885000D02*
X71144000Y-5885000D01*
X72820000Y-5845000D02*
X71144000Y-5845000D01*
X72846000Y-5805000D02*
X71144000Y-5805000D01*
X72870000Y-5765000D02*
X71144000Y-5765000D01*
X72894000Y-5725000D02*
X71144000Y-5725000D01*
X72916000Y-5685000D02*
X71144000Y-5685000D01*
X72938000Y-5645000D02*
X71144000Y-5645000D01*
X72960000Y-5605000D02*
X71144000Y-5605000D01*
X72980000Y-5565000D02*
X71144000Y-5565000D01*
X73000000Y-5525000D02*
X71144000Y-5525000D01*
X73020000Y-5485000D02*
X71144000Y-5485000D01*
X73038000Y-5445000D02*
X71144000Y-5445000D01*
X73056000Y-5405000D02*
X71144000Y-5405000D01*
X73074000Y-5365000D02*
X71144000Y-5365000D01*
X73090000Y-5325000D02*
X71144000Y-5325000D01*
X73106000Y-5285000D02*
X71144000Y-5285000D01*
X73122000Y-5245000D02*
X71144000Y-5245000D01*
X73137000Y-5205000D02*
X71144000Y-5205000D01*
X73151000Y-5165000D02*
X71144000Y-5165000D01*
X73165000Y-5125000D02*
X71144000Y-5125000D01*
X73178000Y-5085000D02*
X71144000Y-5085000D01*
X73190000Y-5045000D02*
X71144000Y-5045000D01*
X73202000Y-5005000D02*
X71144000Y-5005000D01*
X73214000Y-4965000D02*
X71144000Y-4965000D01*
X73225000Y-4925000D02*
X71144000Y-4925000D01*
X73235000Y-4885000D02*
X71144000Y-4885000D01*
X73245000Y-4845000D02*
X71144000Y-4845000D01*
X73254000Y-4805000D02*
X71144000Y-4805000D01*
X73263000Y-4764000D02*
X71144000Y-4764000D01*
X73271000Y-4724000D02*
X71144000Y-4724000D01*
X73279000Y-4684000D02*
X71144000Y-4684000D01*
X73286000Y-4644000D02*
X71144000Y-4644000D01*
X73293000Y-4604000D02*
X71144000Y-4604000D01*
X73299000Y-4564000D02*
X71144000Y-4564000D01*
X73305000Y-4524000D02*
X71144000Y-4524000D01*
X73310000Y-4484000D02*
X71144000Y-4484000D01*
X73315000Y-4444000D02*
X71144000Y-4444000D01*
X73319000Y-4404000D02*
X71144000Y-4404000D01*
X73322000Y-4364000D02*
X71144000Y-4364000D01*
X73326000Y-4324000D02*
X71144000Y-4324000D01*
X73328000Y-4284000D02*
X66880000Y-4284000D01*
X73331000Y-4244000D02*
X66877000Y-4244000D01*
X73332000Y-4204000D02*
X66876000Y-4204000D01*
X73334000Y-4084000D02*
X66874000Y-4084000D01*
X73334000Y-4124000D02*
X66874000Y-4124000D01*
X73334000Y-4164000D02*
X66874000Y-4164000D01*
X73374000Y-4084000D02*
G75*
G02*
X66834000Y-4084000I-3270000J0D01*
G01*
X66834000Y-4084000D02*
G75*
G02*
X73374000Y-4084000I3270000J0D01*
G01*
%TO.C,R7*%
X23808066Y-13004800D02*
X24428066Y-13004800D01*
X23808066Y-13004800D02*
G75*
G02*
X21968066Y-13004800I-920000J0D01*
G01*
X21968066Y-13004800D02*
G75*
G02*
X23808066Y-13004800I920000J0D01*
G01*
%TO.C,R3*%
X79676133Y-12979400D02*
X80296133Y-12979400D01*
X79676133Y-12979400D02*
G75*
G02*
X77836133Y-12979400I-920000J0D01*
G01*
X77836133Y-12979400D02*
G75*
G02*
X79676133Y-12979400I920000J0D01*
G01*
%TO.C,C1*%
X95022800Y-4324000D02*
X92840800Y-4324000D01*
X95022800Y-4364000D02*
X92844800Y-4364000D01*
X95022800Y-4404000D02*
X92847800Y-4404000D01*
X95022800Y-4444000D02*
X92851800Y-4444000D01*
X95022800Y-4484000D02*
X92856800Y-4484000D01*
X95022800Y-4524000D02*
X92861800Y-4524000D01*
X95022800Y-4564000D02*
X92867800Y-4564000D01*
X95022800Y-4604000D02*
X92873800Y-4604000D01*
X95022800Y-4644000D02*
X92880800Y-4644000D01*
X95022800Y-4684000D02*
X92887800Y-4684000D01*
X95022800Y-4724000D02*
X92895800Y-4724000D01*
X95022800Y-4764000D02*
X92903800Y-4764000D01*
X95022800Y-4805000D02*
X92912800Y-4805000D01*
X95022800Y-4845000D02*
X92921800Y-4845000D01*
X95022800Y-4885000D02*
X92931800Y-4885000D01*
X95022800Y-4925000D02*
X92941800Y-4925000D01*
X95022800Y-4965000D02*
X92952800Y-4965000D01*
X95022800Y-5005000D02*
X92964800Y-5005000D01*
X95022800Y-5045000D02*
X92976800Y-5045000D01*
X95022800Y-5085000D02*
X92988800Y-5085000D01*
X95022800Y-5125000D02*
X93001800Y-5125000D01*
X95022800Y-5165000D02*
X93015800Y-5165000D01*
X95022800Y-5205000D02*
X93029800Y-5205000D01*
X95022800Y-5245000D02*
X93044800Y-5245000D01*
X95022800Y-5285000D02*
X93060800Y-5285000D01*
X95022800Y-5325000D02*
X93076800Y-5325000D01*
X95022800Y-5365000D02*
X93092800Y-5365000D01*
X95022800Y-5405000D02*
X93110800Y-5405000D01*
X95022800Y-5445000D02*
X93128800Y-5445000D01*
X95022800Y-5485000D02*
X93146800Y-5485000D01*
X95022800Y-5525000D02*
X93166800Y-5525000D01*
X95022800Y-5565000D02*
X93186800Y-5565000D01*
X95022800Y-5605000D02*
X93206800Y-5605000D01*
X95022800Y-5645000D02*
X93228800Y-5645000D01*
X95022800Y-5685000D02*
X93250800Y-5685000D01*
X95022800Y-5725000D02*
X93272800Y-5725000D01*
X95022800Y-5765000D02*
X93296800Y-5765000D01*
X95022800Y-5805000D02*
X93320800Y-5805000D01*
X95022800Y-5845000D02*
X93346800Y-5845000D01*
X95022800Y-5885000D02*
X93372800Y-5885000D01*
X95022800Y-5925000D02*
X93398800Y-5925000D01*
X95022800Y-5965000D02*
X93426800Y-5965000D01*
X95022800Y-6005000D02*
X93455800Y-6005000D01*
X95022800Y-6045000D02*
X93484800Y-6045000D01*
X95022800Y-6085000D02*
X93514800Y-6085000D01*
X95022800Y-6125000D02*
X93546800Y-6125000D01*
X95022800Y-6165000D02*
X93578800Y-6165000D01*
X95022800Y-6205000D02*
X93612800Y-6205000D01*
X95022800Y-6245000D02*
X93646800Y-6245000D01*
X95022800Y-6285000D02*
X93682800Y-6285000D01*
X95022800Y-6325000D02*
X93719800Y-6325000D01*
X95022800Y-6365000D02*
X93757800Y-6365000D01*
X96464800Y-7325000D02*
X95660800Y-7325000D01*
X96695800Y-7285000D02*
X95429800Y-7285000D01*
X96864800Y-7245000D02*
X95260800Y-7245000D01*
X97002800Y-7205000D02*
X95122800Y-7205000D01*
X97121800Y-7165000D02*
X95003800Y-7165000D01*
X97227800Y-7125000D02*
X94897800Y-7125000D01*
X97324800Y-7085000D02*
X94800800Y-7085000D01*
X97412800Y-7045000D02*
X94712800Y-7045000D01*
X97494800Y-7005000D02*
X94630800Y-7005000D01*
X97571800Y-6965000D02*
X94553800Y-6965000D01*
X97643800Y-6925000D02*
X94481800Y-6925000D01*
X97712800Y-6885000D02*
X94412800Y-6885000D01*
X97776800Y-6845000D02*
X94348800Y-6845000D01*
X97838800Y-6805000D02*
X94286800Y-6805000D01*
X97896800Y-6765000D02*
X94228800Y-6765000D01*
X97901800Y-583759D02*
X97901800Y-1213759D01*
X97952800Y-6725000D02*
X94172800Y-6725000D01*
X98006800Y-6685000D02*
X94118800Y-6685000D01*
X98057800Y-6645000D02*
X94067800Y-6645000D01*
X98106800Y-6605000D02*
X94018800Y-6605000D01*
X98154800Y-6565000D02*
X93970800Y-6565000D01*
X98199800Y-6525000D02*
X93925800Y-6525000D01*
X98216800Y-898759D02*
X97586800Y-898759D01*
X98244800Y-6485000D02*
X93880800Y-6485000D01*
X98286800Y-6445000D02*
X93838800Y-6445000D01*
X98327800Y-6405000D02*
X93797800Y-6405000D01*
X98367800Y-6365000D02*
X97102800Y-6365000D01*
X98405800Y-6325000D02*
X97102800Y-6325000D01*
X98442800Y-6285000D02*
X97102800Y-6285000D01*
X98478800Y-6245000D02*
X97102800Y-6245000D01*
X98512800Y-6205000D02*
X97102800Y-6205000D01*
X98546800Y-6165000D02*
X97102800Y-6165000D01*
X98578800Y-6125000D02*
X97102800Y-6125000D01*
X98610800Y-6085000D02*
X97102800Y-6085000D01*
X98640800Y-6045000D02*
X97102800Y-6045000D01*
X98669800Y-6005000D02*
X97102800Y-6005000D01*
X98698800Y-5965000D02*
X97102800Y-5965000D01*
X98726800Y-5925000D02*
X97102800Y-5925000D01*
X98752800Y-5885000D02*
X97102800Y-5885000D01*
X98778800Y-5845000D02*
X97102800Y-5845000D01*
X98804800Y-5805000D02*
X97102800Y-5805000D01*
X98828800Y-5765000D02*
X97102800Y-5765000D01*
X98852800Y-5725000D02*
X97102800Y-5725000D01*
X98874800Y-5685000D02*
X97102800Y-5685000D01*
X98896800Y-5645000D02*
X97102800Y-5645000D01*
X98918800Y-5605000D02*
X97102800Y-5605000D01*
X98938800Y-5565000D02*
X97102800Y-5565000D01*
X98958800Y-5525000D02*
X97102800Y-5525000D01*
X98978800Y-5485000D02*
X97102800Y-5485000D01*
X98996800Y-5445000D02*
X97102800Y-5445000D01*
X99014800Y-5405000D02*
X97102800Y-5405000D01*
X99032800Y-5365000D02*
X97102800Y-5365000D01*
X99048800Y-5325000D02*
X97102800Y-5325000D01*
X99064800Y-5285000D02*
X97102800Y-5285000D01*
X99080800Y-5245000D02*
X97102800Y-5245000D01*
X99095800Y-5205000D02*
X97102800Y-5205000D01*
X99109800Y-5165000D02*
X97102800Y-5165000D01*
X99123800Y-5125000D02*
X97102800Y-5125000D01*
X99136800Y-5085000D02*
X97102800Y-5085000D01*
X99148800Y-5045000D02*
X97102800Y-5045000D01*
X99160800Y-5005000D02*
X97102800Y-5005000D01*
X99172800Y-4965000D02*
X97102800Y-4965000D01*
X99183800Y-4925000D02*
X97102800Y-4925000D01*
X99193800Y-4885000D02*
X97102800Y-4885000D01*
X99203800Y-4845000D02*
X97102800Y-4845000D01*
X99212800Y-4805000D02*
X97102800Y-4805000D01*
X99221800Y-4764000D02*
X97102800Y-4764000D01*
X99229800Y-4724000D02*
X97102800Y-4724000D01*
X99237800Y-4684000D02*
X97102800Y-4684000D01*
X99244800Y-4644000D02*
X97102800Y-4644000D01*
X99251800Y-4604000D02*
X97102800Y-4604000D01*
X99257800Y-4564000D02*
X97102800Y-4564000D01*
X99263800Y-4524000D02*
X97102800Y-4524000D01*
X99268800Y-4484000D02*
X97102800Y-4484000D01*
X99273800Y-4444000D02*
X97102800Y-4444000D01*
X99277800Y-4404000D02*
X97102800Y-4404000D01*
X99280800Y-4364000D02*
X97102800Y-4364000D01*
X99284800Y-4324000D02*
X97102800Y-4324000D01*
X99286800Y-4284000D02*
X92838800Y-4284000D01*
X99289800Y-4244000D02*
X92835800Y-4244000D01*
X99290800Y-4204000D02*
X92834800Y-4204000D01*
X99292800Y-4084000D02*
X92832800Y-4084000D01*
X99292800Y-4124000D02*
X92832800Y-4124000D01*
X99292800Y-4164000D02*
X92832800Y-4164000D01*
X99332800Y-4084000D02*
G75*
G02*
X92792800Y-4084000I-3270000J0D01*
G01*
X92792800Y-4084000D02*
G75*
G02*
X99332800Y-4084000I3270000J0D01*
G01*
%TO.C,J3*%
X55985400Y-30006800D02*
X57735400Y-30006800D01*
X55985400Y-36746800D02*
X55985400Y-30006800D01*
X57485400Y-36746800D02*
X55985400Y-36746800D01*
X57485400Y-36746800D02*
X57485400Y-39446800D01*
X57735400Y-30006800D02*
X57735400Y-24506800D01*
X60485400Y-24506800D02*
X57735400Y-24506800D01*
X60485400Y-24506800D02*
X60485400Y-17006800D01*
X76725400Y-17006800D02*
X60485400Y-17006800D01*
X76725400Y-24506800D02*
X76725400Y-17006800D01*
X79475400Y-24506800D02*
X76725400Y-24506800D01*
X79475400Y-30006800D02*
X79475400Y-24506800D01*
X79475400Y-30006800D02*
X81225400Y-30006800D01*
X79725400Y-36746800D02*
X79725400Y-39446800D01*
X79725400Y-39446800D02*
X57485400Y-39446800D01*
X81225400Y-36746800D02*
X79725400Y-36746800D01*
X81225400Y-36746800D02*
X81225400Y-30006800D01*
%TD*%
%LPC*%
D17*
%TO.C,R6*%
X31433432Y-13004800D03*
D18*
X33973432Y-13004800D03*
%TD*%
D19*
%TO.C,J5*%
X9601200Y-27716400D03*
X17221200Y-33431400D03*
D20*
X17221200Y-23906400D03*
X9601200Y-23271400D03*
D21*
X13411200Y-19456400D03*
%TD*%
D17*
%TO.C,R8*%
X14342700Y-13004800D03*
D18*
X16882700Y-13004800D03*
%TD*%
D17*
%TO.C,R5*%
X39978800Y-13004800D03*
D18*
X42518800Y-13004800D03*
%TD*%
D22*
%TO.C,C8*%
X14366667Y-2910200D03*
D19*
X14366667Y-5410200D03*
%TD*%
D22*
%TO.C,C5*%
X39984467Y-2910200D03*
D19*
X39984467Y-5410200D03*
%TD*%
D22*
%TO.C,C7*%
X22905933Y-2910200D03*
D19*
X22905933Y-5410200D03*
%TD*%
D17*
%TO.C,R2*%
X87409066Y-12979400D03*
D18*
X89949066Y-12979400D03*
%TD*%
D23*
%TO.C,H1*%
X105410000Y-4318000D03*
%TD*%
D22*
%TO.C,C3*%
X78756933Y-2834000D03*
D19*
X78756933Y-5334000D03*
%TD*%
D22*
%TO.C,C6*%
X31445199Y-2910200D03*
D19*
X31445199Y-5410200D03*
%TD*%
%TO.C,J2*%
X92379800Y-27736800D03*
X99999800Y-33451800D03*
D20*
X99999800Y-23926800D03*
X92379800Y-23291800D03*
D21*
X96189800Y-19476800D03*
%TD*%
D19*
%TO.C,J4*%
X37211000Y-27736800D03*
X44831000Y-33451800D03*
D20*
X44831000Y-23926800D03*
X37211000Y-23291800D03*
D21*
X41021000Y-19476800D03*
%TD*%
D24*
%TO.C,J1*%
X48691800Y-12217400D03*
D25*
X48691800Y-9677400D03*
X51231800Y-12217400D03*
X51231800Y-9677400D03*
X53771800Y-12217400D03*
X53771800Y-9677400D03*
X56311800Y-12217400D03*
X56311800Y-9677400D03*
X58851800Y-12217400D03*
X58851800Y-9677400D03*
X61391800Y-12217400D03*
X61391800Y-9677400D03*
%TD*%
D17*
%TO.C,R4*%
X70103200Y-12979400D03*
D18*
X72643200Y-12979400D03*
%TD*%
D17*
%TO.C,R1*%
X96062000Y-12979400D03*
D18*
X98602000Y-12979400D03*
%TD*%
D22*
%TO.C,C2*%
X87409866Y-2834000D03*
D19*
X87409866Y-5334000D03*
%TD*%
D22*
%TO.C,C4*%
X70104000Y-2834000D03*
D19*
X70104000Y-5334000D03*
%TD*%
D17*
%TO.C,R7*%
X22888066Y-13004800D03*
D18*
X25428066Y-13004800D03*
%TD*%
D17*
%TO.C,R3*%
X78756133Y-12979400D03*
D18*
X81296133Y-12979400D03*
%TD*%
D23*
%TO.C,H2*%
X4445000Y-4318000D03*
%TD*%
D22*
%TO.C,C1*%
X96062800Y-2834000D03*
D19*
X96062800Y-5334000D03*
%TD*%
%TO.C,J3*%
X64795400Y-27736800D03*
X72415400Y-33451800D03*
D20*
X72415400Y-23926800D03*
X64795400Y-23291800D03*
D21*
X68605400Y-19476800D03*
%TD*%
D19*
%TO.C,J9*%
X99999800Y-28371800D03*
X92379800Y-33451800D03*
D20*
X99999800Y-19481800D03*
X92379800Y-19481800D03*
D21*
X96189800Y-19481800D03*
%TD*%
D19*
%TO.C,J6*%
X17221200Y-28346400D03*
X9601200Y-33426400D03*
D20*
X17221200Y-19456400D03*
X9601200Y-19456400D03*
D21*
X13411200Y-19456400D03*
%TD*%
D19*
%TO.C,J8*%
X72415400Y-28371800D03*
X64795400Y-33451800D03*
D20*
X72415400Y-19481800D03*
X64795400Y-19481800D03*
D21*
X68605400Y-19481800D03*
%TD*%
D19*
%TO.C,J7*%
X44831000Y-28371800D03*
X37211000Y-33451800D03*
D20*
X44831000Y-19481800D03*
X37211000Y-19481800D03*
D21*
X41021000Y-19481800D03*
%TD*%
%LPD*%
M02*
