%TF.GenerationSoftware,KiCad,Pcbnew,9.0.0*%
%TF.CreationDate,2025-03-26T11:50:56+11:00*%
%TF.ProjectId,Wing Board 4 XLR MK II,57696e67-2042-46f6-9172-64203420584c,rev?*%
%TF.SameCoordinates,Original*%
%TF.FileFunction,Legend,Bot*%
%TF.FilePolarity,Positive*%
%FSLAX46Y46*%
G04 Gerber Fmt 4.6, Leading zero omitted, Abs format (unit mm)*
G04 Created by KiCad (PCBNEW 9.0.0) date 2025-03-26 11:50:56*
%MOMM*%
%LPD*%
G01*
G04 APERTURE LIST*
%ADD10C,0.300000*%
%ADD11C,0.057755*%
%ADD12C,0.071437*%
%ADD13C,0.203200*%
%ADD14C,0.228600*%
%ADD15C,0.120000*%
%ADD16C,1.400000*%
%ADD17O,1.400000X1.400000*%
%ADD18C,1.600000*%
%ADD19C,3.400000*%
%ADD20C,2.900000*%
%ADD21R,1.600000X1.600000*%
%ADD22C,3.500001*%
%ADD23R,1.650000X1.650000*%
%ADD24C,1.650000*%
G04 APERTURE END LIST*
D10*
X56906746Y-21568628D02*
X57406746Y-20854342D01*
X57763889Y-21568628D02*
X57763889Y-20068628D01*
X57763889Y-20068628D02*
X57192460Y-20068628D01*
X57192460Y-20068628D02*
X57049603Y-20140057D01*
X57049603Y-20140057D02*
X56978174Y-20211485D01*
X56978174Y-20211485D02*
X56906746Y-20354342D01*
X56906746Y-20354342D02*
X56906746Y-20568628D01*
X56906746Y-20568628D02*
X56978174Y-20711485D01*
X56978174Y-20711485D02*
X57049603Y-20782914D01*
X57049603Y-20782914D02*
X57192460Y-20854342D01*
X57192460Y-20854342D02*
X57763889Y-20854342D01*
X55692460Y-21497200D02*
X55835317Y-21568628D01*
X55835317Y-21568628D02*
X56121032Y-21568628D01*
X56121032Y-21568628D02*
X56263889Y-21497200D01*
X56263889Y-21497200D02*
X56335317Y-21354342D01*
X56335317Y-21354342D02*
X56335317Y-20782914D01*
X56335317Y-20782914D02*
X56263889Y-20640057D01*
X56263889Y-20640057D02*
X56121032Y-20568628D01*
X56121032Y-20568628D02*
X55835317Y-20568628D01*
X55835317Y-20568628D02*
X55692460Y-20640057D01*
X55692460Y-20640057D02*
X55621032Y-20782914D01*
X55621032Y-20782914D02*
X55621032Y-20925771D01*
X55621032Y-20925771D02*
X56335317Y-21068628D01*
X55121032Y-20568628D02*
X54763889Y-21568628D01*
X54763889Y-21568628D02*
X54406746Y-20568628D01*
X52192461Y-20782914D02*
X51978175Y-20854342D01*
X51978175Y-20854342D02*
X51906746Y-20925771D01*
X51906746Y-20925771D02*
X51835318Y-21068628D01*
X51835318Y-21068628D02*
X51835318Y-21282914D01*
X51835318Y-21282914D02*
X51906746Y-21425771D01*
X51906746Y-21425771D02*
X51978175Y-21497200D01*
X51978175Y-21497200D02*
X52121032Y-21568628D01*
X52121032Y-21568628D02*
X52692461Y-21568628D01*
X52692461Y-21568628D02*
X52692461Y-20068628D01*
X52692461Y-20068628D02*
X52192461Y-20068628D01*
X52192461Y-20068628D02*
X52049604Y-20140057D01*
X52049604Y-20140057D02*
X51978175Y-20211485D01*
X51978175Y-20211485D02*
X51906746Y-20354342D01*
X51906746Y-20354342D02*
X51906746Y-20497200D01*
X51906746Y-20497200D02*
X51978175Y-20640057D01*
X51978175Y-20640057D02*
X52049604Y-20711485D01*
X52049604Y-20711485D02*
X52192461Y-20782914D01*
X52192461Y-20782914D02*
X52692461Y-20782914D01*
D11*
X27423412Y-22632786D02*
X27526884Y-22640080D01*
X27629656Y-22650983D01*
X27730306Y-22664955D01*
X27827413Y-22681452D01*
X27919559Y-22699935D01*
X28005321Y-22719860D01*
X28083278Y-22740686D01*
X28152012Y-22761871D01*
X28210100Y-22782875D01*
X28256122Y-22803154D01*
X28258081Y-22837022D01*
X28261379Y-22869842D01*
X28265943Y-22901675D01*
X28271703Y-22932582D01*
X28278588Y-22962622D01*
X28286526Y-22991856D01*
X28295446Y-23020344D01*
X28305276Y-23048147D01*
X28327383Y-23101939D01*
X28352278Y-23153712D01*
X28379389Y-23203952D01*
X28408147Y-23253139D01*
X28468323Y-23350288D01*
X28498600Y-23399215D01*
X28528243Y-23449021D01*
X28556682Y-23500189D01*
X28583346Y-23553200D01*
X28607666Y-23608539D01*
X28618768Y-23637232D01*
X28629070Y-23666687D01*
X28629941Y-23666865D01*
X28630741Y-23667006D01*
X28631495Y-23667121D01*
X28632224Y-23667224D01*
X28632951Y-23667327D01*
X28633700Y-23667444D01*
X28634493Y-23667586D01*
X28635353Y-23667767D01*
X28643203Y-23715862D01*
X28648555Y-23765191D01*
X28651676Y-23815472D01*
X28652831Y-23866424D01*
X28652286Y-23917766D01*
X28650307Y-23969218D01*
X28643109Y-24071324D01*
X28623196Y-24264480D01*
X28614733Y-24351034D01*
X28611805Y-24390822D01*
X28610100Y-24427908D01*
X28610151Y-24464740D01*
X28611265Y-24503954D01*
X28613361Y-24544892D01*
X28616362Y-24586899D01*
X28620187Y-24629317D01*
X28624757Y-24671491D01*
X28629993Y-24712764D01*
X28635815Y-24752480D01*
X28642143Y-24789982D01*
X28648898Y-24824613D01*
X28656001Y-24855717D01*
X28663372Y-24882639D01*
X28670932Y-24904720D01*
X28678602Y-24921305D01*
X28682452Y-24927332D01*
X28686301Y-24931738D01*
X28690136Y-24934442D01*
X28693950Y-24935361D01*
X28698703Y-24936232D01*
X28703347Y-24936348D01*
X28707900Y-24935762D01*
X28712381Y-24934525D01*
X28716809Y-24932689D01*
X28721201Y-24930307D01*
X28725576Y-24927429D01*
X28729952Y-24924108D01*
X28738781Y-24916345D01*
X28747835Y-24907431D01*
X28767204Y-24887813D01*
X28777813Y-24877938D01*
X28783412Y-24873167D01*
X28789233Y-24868574D01*
X28795293Y-24864213D01*
X28801611Y-24860135D01*
X28808206Y-24856392D01*
X28815095Y-24853036D01*
X28822296Y-24850118D01*
X28829829Y-24847691D01*
X28837712Y-24845807D01*
X28845962Y-24844517D01*
X28854599Y-24843873D01*
X28863640Y-24843928D01*
X28873105Y-24844732D01*
X28883010Y-24846339D01*
X28893263Y-24848650D01*
X28903259Y-24851512D01*
X28913008Y-24854888D01*
X28922523Y-24858744D01*
X28931814Y-24863045D01*
X28940894Y-24867756D01*
X28949772Y-24872841D01*
X28958462Y-24878265D01*
X28966973Y-24883994D01*
X28975317Y-24889993D01*
X28991552Y-24902657D01*
X29007257Y-24915978D01*
X29022522Y-24929674D01*
X29052099Y-24957069D01*
X29066592Y-24970208D01*
X29081009Y-24982599D01*
X29095442Y-24993962D01*
X29102692Y-24999171D01*
X29109980Y-25004017D01*
X29117317Y-25008465D01*
X29124715Y-25012482D01*
X29132185Y-25016031D01*
X29139739Y-25019077D01*
X29146501Y-25017813D01*
X29152636Y-25015582D01*
X29158201Y-25012442D01*
X29163250Y-25008455D01*
X29167837Y-25003680D01*
X29172018Y-24998179D01*
X29175848Y-24992011D01*
X29179382Y-24985237D01*
X29185779Y-24970111D01*
X29191649Y-24953285D01*
X29203568Y-24916459D01*
X29210496Y-24897426D01*
X29218654Y-24878622D01*
X29223332Y-24869457D01*
X29228482Y-24860530D01*
X29234160Y-24851902D01*
X29240420Y-24843634D01*
X29247317Y-24835784D01*
X29254907Y-24828415D01*
X29263244Y-24821585D01*
X29272383Y-24815356D01*
X29282379Y-24809788D01*
X29293286Y-24804940D01*
X29305161Y-24800874D01*
X29318057Y-24797650D01*
X29325246Y-24796787D01*
X29333102Y-24796693D01*
X29341581Y-24797313D01*
X29350640Y-24798593D01*
X29370315Y-24802922D01*
X29391771Y-24809247D01*
X29414652Y-24817138D01*
X29438601Y-24826164D01*
X29488281Y-24845895D01*
X29537960Y-24864993D01*
X29561908Y-24873227D01*
X29584789Y-24880010D01*
X29606244Y-24884911D01*
X29616326Y-24886521D01*
X29625918Y-24887499D01*
X29634976Y-24887791D01*
X29643455Y-24887343D01*
X29651310Y-24886101D01*
X29658498Y-24884011D01*
X29662119Y-24882125D01*
X29664921Y-24879520D01*
X29666973Y-24876218D01*
X29668343Y-24872243D01*
X29669099Y-24867618D01*
X29669309Y-24862366D01*
X29668367Y-24850074D01*
X29656434Y-24780471D01*
X29654143Y-24758890D01*
X29653222Y-24736008D01*
X29654216Y-24712011D01*
X29655603Y-24699652D01*
X29657674Y-24687084D01*
X29660497Y-24674330D01*
X29664140Y-24661413D01*
X29668672Y-24648357D01*
X29674162Y-24635184D01*
X29680677Y-24621918D01*
X29688286Y-24608582D01*
X29697056Y-24595200D01*
X29707058Y-24581794D01*
X29710717Y-24577520D01*
X29714446Y-24573479D01*
X29718242Y-24569667D01*
X29722102Y-24566075D01*
X29726022Y-24562699D01*
X29729998Y-24559531D01*
X29738109Y-24553795D01*
X29746408Y-24548817D01*
X29754868Y-24544547D01*
X29763463Y-24540933D01*
X29772167Y-24537926D01*
X29780953Y-24535474D01*
X29789795Y-24533528D01*
X29798667Y-24532035D01*
X29807541Y-24530946D01*
X29816392Y-24530209D01*
X29825193Y-24529775D01*
X29833918Y-24529593D01*
X29842540Y-24529611D01*
X29738310Y-24745872D01*
X29424235Y-25390764D01*
X25610895Y-25391991D01*
X25499459Y-25180604D01*
X25443437Y-25065385D01*
X25416030Y-25003705D01*
X25389285Y-24938666D01*
X25363396Y-24869787D01*
X25338558Y-24796585D01*
X25314965Y-24718576D01*
X25292812Y-24635278D01*
X25272293Y-24546208D01*
X25253602Y-24450884D01*
X25236933Y-24348822D01*
X25222482Y-24239539D01*
X25216874Y-24183025D01*
X25213250Y-24126610D01*
X25211492Y-24070405D01*
X25211482Y-24014522D01*
X25213100Y-23959072D01*
X25216228Y-23904165D01*
X25220748Y-23849913D01*
X25226541Y-23796427D01*
X25241475Y-23692199D01*
X25260081Y-23592368D01*
X25281412Y-23497825D01*
X25304520Y-23409459D01*
X25328458Y-23328158D01*
X25352279Y-23254813D01*
X25375034Y-23190312D01*
X25395777Y-23135544D01*
X25427435Y-23058766D01*
X25439672Y-23031592D01*
X25471575Y-23035394D01*
X25502591Y-23037680D01*
X25533354Y-23038537D01*
X25564498Y-23038052D01*
X25596659Y-23036313D01*
X25630470Y-23033407D01*
X25666566Y-23029420D01*
X25705582Y-23024440D01*
X25704999Y-23045436D01*
X25705670Y-23066469D01*
X25707517Y-23087518D01*
X25710463Y-23108565D01*
X25714429Y-23129590D01*
X25719340Y-23150573D01*
X25725117Y-23171496D01*
X25731684Y-23192339D01*
X25746873Y-23233706D01*
X25764290Y-23274519D01*
X25783313Y-23314623D01*
X25803325Y-23353862D01*
X25880858Y-23499060D01*
X25896516Y-23531643D01*
X25909445Y-23562428D01*
X25919025Y-23591259D01*
X25922366Y-23604894D01*
X25924638Y-23617982D01*
X25934740Y-23748636D01*
X25943611Y-23920106D01*
X25954907Y-24115975D01*
X25972281Y-24319825D01*
X25984389Y-24419613D01*
X25999387Y-24515240D01*
X26017732Y-24604653D01*
X26039880Y-24685800D01*
X26052523Y-24722633D01*
X26066289Y-24756630D01*
X26081233Y-24787534D01*
X26097414Y-24815089D01*
X26114888Y-24839039D01*
X26133713Y-24859126D01*
X26153945Y-24875095D01*
X26175643Y-24886689D01*
X26179636Y-24887594D01*
X26183527Y-24887316D01*
X26187340Y-24885922D01*
X26191098Y-24883479D01*
X26194824Y-24880053D01*
X26198543Y-24875712D01*
X26206054Y-24864548D01*
X26213819Y-24850521D01*
X26222028Y-24834165D01*
X26240538Y-24796602D01*
X26251218Y-24776462D01*
X26263101Y-24756129D01*
X26276376Y-24736135D01*
X26283596Y-24726433D01*
X26291234Y-24717016D01*
X26299316Y-24707951D01*
X26307864Y-24699305D01*
X26316902Y-24691144D01*
X26326455Y-24683535D01*
X26336545Y-24676545D01*
X26347197Y-24670241D01*
X26358434Y-24664689D01*
X26370280Y-24659956D01*
X26382526Y-24656522D01*
X26394444Y-24654752D01*
X26406036Y-24654538D01*
X26417307Y-24655771D01*
X26428262Y-24658345D01*
X26438903Y-24662151D01*
X26449235Y-24667082D01*
X26459262Y-24673030D01*
X26468989Y-24679887D01*
X26478418Y-24687546D01*
X26487554Y-24695899D01*
X26496401Y-24704838D01*
X26513244Y-24724042D01*
X26528979Y-24744299D01*
X26581471Y-24818603D01*
X26592142Y-24831190D01*
X26597131Y-24835992D01*
X26601895Y-24839657D01*
X26606438Y-24842077D01*
X26610764Y-24843143D01*
X26614876Y-24842748D01*
X26618779Y-24840785D01*
X26621498Y-24838565D01*
X26624096Y-24835487D01*
X26626594Y-24831609D01*
X26629015Y-24826991D01*
X26633713Y-24815768D01*
X26638362Y-24802287D01*
X26648214Y-24770437D01*
X26653765Y-24753008D01*
X26659966Y-24735203D01*
X26666989Y-24717493D01*
X26675010Y-24700349D01*
X26679449Y-24692135D01*
X26684202Y-24684239D01*
X26689292Y-24676720D01*
X26694741Y-24669636D01*
X26700569Y-24663046D01*
X26706799Y-24657009D01*
X26713453Y-24651584D01*
X26720553Y-24646829D01*
X26728119Y-24642803D01*
X26736174Y-24639566D01*
X26744741Y-24637175D01*
X26753839Y-24635690D01*
X26762894Y-24635379D01*
X26771817Y-24635926D01*
X26780603Y-24637269D01*
X26789248Y-24639349D01*
X26797747Y-24642105D01*
X26806094Y-24645477D01*
X26814285Y-24649405D01*
X26822314Y-24653827D01*
X26830178Y-24658685D01*
X26837870Y-24663918D01*
X26845386Y-24669465D01*
X26852722Y-24675266D01*
X26866829Y-24687389D01*
X26880153Y-24699805D01*
X26904291Y-24723585D01*
X26915026Y-24733984D01*
X26924819Y-24742746D01*
X26929350Y-24746362D01*
X26933630Y-24749388D01*
X26937656Y-24751763D01*
X26941421Y-24753428D01*
X26944920Y-24754321D01*
X26948150Y-24754383D01*
X26951104Y-24753553D01*
X26953779Y-24751771D01*
X26954647Y-24748302D01*
X26955249Y-24744004D01*
X26955786Y-24733157D01*
X26955141Y-24704073D01*
X26953994Y-24668221D01*
X26953904Y-24648913D01*
X26954495Y-24629301D01*
X26956036Y-24609847D01*
X26958796Y-24591013D01*
X26960717Y-24581973D01*
X26963044Y-24573262D01*
X26965810Y-24564938D01*
X26969048Y-24557057D01*
X26972793Y-24549679D01*
X26977078Y-24542861D01*
X26981936Y-24536660D01*
X26987402Y-24531135D01*
X26993508Y-24526344D01*
X27000288Y-24522343D01*
X27007777Y-24519192D01*
X27016007Y-24516947D01*
X27024734Y-24515768D01*
X27033670Y-24515235D01*
X27042787Y-24515297D01*
X27052060Y-24515903D01*
X27061458Y-24517004D01*
X27070956Y-24518548D01*
X27080525Y-24520485D01*
X27090137Y-24522765D01*
X27109381Y-24528153D01*
X27128466Y-24534308D01*
X27165275Y-24547304D01*
X27182556Y-24553340D01*
X27198791Y-24558529D01*
X27213760Y-24562470D01*
X27220701Y-24563845D01*
X27227242Y-24564758D01*
X27233355Y-24565156D01*
X27239013Y-24564990D01*
X27244189Y-24564209D01*
X27248854Y-24562763D01*
X27252981Y-24560602D01*
X27256542Y-24557675D01*
X27259509Y-24553931D01*
X27261856Y-24549321D01*
X27262913Y-24535721D01*
X27261082Y-24515673D01*
X27256449Y-24489938D01*
X27249101Y-24459282D01*
X27239125Y-24424466D01*
X27226608Y-24386253D01*
X27211637Y-24345408D01*
X27194300Y-24302692D01*
X27174683Y-24258869D01*
X27152874Y-24214702D01*
X27128959Y-24170954D01*
X27103025Y-24128389D01*
X27075160Y-24087769D01*
X27045451Y-24049857D01*
X27013984Y-24015417D01*
X26997619Y-23999737D01*
X26980847Y-23985211D01*
X26945905Y-23957416D01*
X26910157Y-23930601D01*
X26873870Y-23904608D01*
X26837315Y-23879278D01*
X26693788Y-23781436D01*
X26659924Y-23757054D01*
X26627407Y-23732388D01*
X26596503Y-23707280D01*
X26567483Y-23681570D01*
X26540616Y-23655102D01*
X26516171Y-23627717D01*
X26504940Y-23613632D01*
X26494416Y-23599258D01*
X26484631Y-23584576D01*
X26475620Y-23569565D01*
X26471898Y-23570629D01*
X26468020Y-23571610D01*
X26464031Y-23572533D01*
X26459973Y-23573421D01*
X26451833Y-23575186D01*
X26447839Y-23576112D01*
X26443954Y-23577097D01*
X26462497Y-23571941D01*
X26471807Y-23569382D01*
X26481068Y-23566921D01*
X26478273Y-23548296D01*
X26477421Y-23529349D01*
X26478415Y-23510054D01*
X26481155Y-23490388D01*
X26485544Y-23470330D01*
X26491483Y-23449855D01*
X26507617Y-23407561D01*
X26528769Y-23363322D01*
X26554152Y-23316952D01*
X26614460Y-23217074D01*
X26682241Y-23106443D01*
X26716964Y-23046630D01*
X26751194Y-22983572D01*
X26784141Y-22917082D01*
X26815019Y-22846974D01*
X26843040Y-22773063D01*
X26867416Y-22695164D01*
X26905271Y-22681402D01*
X26945260Y-22669423D01*
X27030927Y-22650543D01*
X27122996Y-22637981D01*
X27220047Y-22631195D01*
X27320659Y-22629644D01*
X27423412Y-22632786D01*
G36*
X27423412Y-22632786D02*
G01*
X27526884Y-22640080D01*
X27629656Y-22650983D01*
X27730306Y-22664955D01*
X27827413Y-22681452D01*
X27919559Y-22699935D01*
X28005321Y-22719860D01*
X28083278Y-22740686D01*
X28152012Y-22761871D01*
X28210100Y-22782875D01*
X28256122Y-22803154D01*
X28258081Y-22837022D01*
X28261379Y-22869842D01*
X28265943Y-22901675D01*
X28271703Y-22932582D01*
X28278588Y-22962622D01*
X28286526Y-22991856D01*
X28295446Y-23020344D01*
X28305276Y-23048147D01*
X28327383Y-23101939D01*
X28352278Y-23153712D01*
X28379389Y-23203952D01*
X28408147Y-23253139D01*
X28468323Y-23350288D01*
X28498600Y-23399215D01*
X28528243Y-23449021D01*
X28556682Y-23500189D01*
X28583346Y-23553200D01*
X28607666Y-23608539D01*
X28618768Y-23637232D01*
X28629070Y-23666687D01*
X28629941Y-23666865D01*
X28630741Y-23667006D01*
X28631495Y-23667121D01*
X28632224Y-23667224D01*
X28632951Y-23667327D01*
X28633700Y-23667444D01*
X28634493Y-23667586D01*
X28635353Y-23667767D01*
X28643203Y-23715862D01*
X28648555Y-23765191D01*
X28651676Y-23815472D01*
X28652831Y-23866424D01*
X28652286Y-23917766D01*
X28650307Y-23969218D01*
X28643109Y-24071324D01*
X28623196Y-24264480D01*
X28614733Y-24351034D01*
X28611805Y-24390822D01*
X28610100Y-24427908D01*
X28610151Y-24464740D01*
X28611265Y-24503954D01*
X28613361Y-24544892D01*
X28616362Y-24586899D01*
X28620187Y-24629317D01*
X28624757Y-24671491D01*
X28629993Y-24712764D01*
X28635815Y-24752480D01*
X28642143Y-24789982D01*
X28648898Y-24824613D01*
X28656001Y-24855717D01*
X28663372Y-24882639D01*
X28670932Y-24904720D01*
X28678602Y-24921305D01*
X28682452Y-24927332D01*
X28686301Y-24931738D01*
X28690136Y-24934442D01*
X28693950Y-24935361D01*
X28698703Y-24936232D01*
X28703347Y-24936348D01*
X28707900Y-24935762D01*
X28712381Y-24934525D01*
X28716809Y-24932689D01*
X28721201Y-24930307D01*
X28725576Y-24927429D01*
X28729952Y-24924108D01*
X28738781Y-24916345D01*
X28747835Y-24907431D01*
X28767204Y-24887813D01*
X28777813Y-24877938D01*
X28783412Y-24873167D01*
X28789233Y-24868574D01*
X28795293Y-24864213D01*
X28801611Y-24860135D01*
X28808206Y-24856392D01*
X28815095Y-24853036D01*
X28822296Y-24850118D01*
X28829829Y-24847691D01*
X28837712Y-24845807D01*
X28845962Y-24844517D01*
X28854599Y-24843873D01*
X28863640Y-24843928D01*
X28873105Y-24844732D01*
X28883010Y-24846339D01*
X28893263Y-24848650D01*
X28903259Y-24851512D01*
X28913008Y-24854888D01*
X28922523Y-24858744D01*
X28931814Y-24863045D01*
X28940894Y-24867756D01*
X28949772Y-24872841D01*
X28958462Y-24878265D01*
X28966973Y-24883994D01*
X28975317Y-24889993D01*
X28991552Y-24902657D01*
X29007257Y-24915978D01*
X29022522Y-24929674D01*
X29052099Y-24957069D01*
X29066592Y-24970208D01*
X29081009Y-24982599D01*
X29095442Y-24993962D01*
X29102692Y-24999171D01*
X29109980Y-25004017D01*
X29117317Y-25008465D01*
X29124715Y-25012482D01*
X29132185Y-25016031D01*
X29139739Y-25019077D01*
X29146501Y-25017813D01*
X29152636Y-25015582D01*
X29158201Y-25012442D01*
X29163250Y-25008455D01*
X29167837Y-25003680D01*
X29172018Y-24998179D01*
X29175848Y-24992011D01*
X29179382Y-24985237D01*
X29185779Y-24970111D01*
X29191649Y-24953285D01*
X29203568Y-24916459D01*
X29210496Y-24897426D01*
X29218654Y-24878622D01*
X29223332Y-24869457D01*
X29228482Y-24860530D01*
X29234160Y-24851902D01*
X29240420Y-24843634D01*
X29247317Y-24835784D01*
X29254907Y-24828415D01*
X29263244Y-24821585D01*
X29272383Y-24815356D01*
X29282379Y-24809788D01*
X29293286Y-24804940D01*
X29305161Y-24800874D01*
X29318057Y-24797650D01*
X29325246Y-24796787D01*
X29333102Y-24796693D01*
X29341581Y-24797313D01*
X29350640Y-24798593D01*
X29370315Y-24802922D01*
X29391771Y-24809247D01*
X29414652Y-24817138D01*
X29438601Y-24826164D01*
X29488281Y-24845895D01*
X29537960Y-24864993D01*
X29561908Y-24873227D01*
X29584789Y-24880010D01*
X29606244Y-24884911D01*
X29616326Y-24886521D01*
X29625918Y-24887499D01*
X29634976Y-24887791D01*
X29643455Y-24887343D01*
X29651310Y-24886101D01*
X29658498Y-24884011D01*
X29662119Y-24882125D01*
X29664921Y-24879520D01*
X29666973Y-24876218D01*
X29668343Y-24872243D01*
X29669099Y-24867618D01*
X29669309Y-24862366D01*
X29668367Y-24850074D01*
X29656434Y-24780471D01*
X29654143Y-24758890D01*
X29653222Y-24736008D01*
X29654216Y-24712011D01*
X29655603Y-24699652D01*
X29657674Y-24687084D01*
X29660497Y-24674330D01*
X29664140Y-24661413D01*
X29668672Y-24648357D01*
X29674162Y-24635184D01*
X29680677Y-24621918D01*
X29688286Y-24608582D01*
X29697056Y-24595200D01*
X29707058Y-24581794D01*
X29710717Y-24577520D01*
X29714446Y-24573479D01*
X29718242Y-24569667D01*
X29722102Y-24566075D01*
X29726022Y-24562699D01*
X29729998Y-24559531D01*
X29738109Y-24553795D01*
X29746408Y-24548817D01*
X29754868Y-24544547D01*
X29763463Y-24540933D01*
X29772167Y-24537926D01*
X29780953Y-24535474D01*
X29789795Y-24533528D01*
X29798667Y-24532035D01*
X29807541Y-24530946D01*
X29816392Y-24530209D01*
X29825193Y-24529775D01*
X29833918Y-24529593D01*
X29842540Y-24529611D01*
X29738310Y-24745872D01*
X29424235Y-25390764D01*
X25610895Y-25391991D01*
X25499459Y-25180604D01*
X25443437Y-25065385D01*
X25416030Y-25003705D01*
X25389285Y-24938666D01*
X25363396Y-24869787D01*
X25338558Y-24796585D01*
X25314965Y-24718576D01*
X25292812Y-24635278D01*
X25272293Y-24546208D01*
X25253602Y-24450884D01*
X25236933Y-24348822D01*
X25222482Y-24239539D01*
X25216874Y-24183025D01*
X25213250Y-24126610D01*
X25211492Y-24070405D01*
X25211482Y-24014522D01*
X25213100Y-23959072D01*
X25216228Y-23904165D01*
X25220748Y-23849913D01*
X25226541Y-23796427D01*
X25241475Y-23692199D01*
X25260081Y-23592368D01*
X25281412Y-23497825D01*
X25304520Y-23409459D01*
X25328458Y-23328158D01*
X25352279Y-23254813D01*
X25375034Y-23190312D01*
X25395777Y-23135544D01*
X25427435Y-23058766D01*
X25439672Y-23031592D01*
X25471575Y-23035394D01*
X25502591Y-23037680D01*
X25533354Y-23038537D01*
X25564498Y-23038052D01*
X25596659Y-23036313D01*
X25630470Y-23033407D01*
X25666566Y-23029420D01*
X25705582Y-23024440D01*
X25704999Y-23045436D01*
X25705670Y-23066469D01*
X25707517Y-23087518D01*
X25710463Y-23108565D01*
X25714429Y-23129590D01*
X25719340Y-23150573D01*
X25725117Y-23171496D01*
X25731684Y-23192339D01*
X25746873Y-23233706D01*
X25764290Y-23274519D01*
X25783313Y-23314623D01*
X25803325Y-23353862D01*
X25880858Y-23499060D01*
X25896516Y-23531643D01*
X25909445Y-23562428D01*
X25919025Y-23591259D01*
X25922366Y-23604894D01*
X25924638Y-23617982D01*
X25934740Y-23748636D01*
X25943611Y-23920106D01*
X25954907Y-24115975D01*
X25972281Y-24319825D01*
X25984389Y-24419613D01*
X25999387Y-24515240D01*
X26017732Y-24604653D01*
X26039880Y-24685800D01*
X26052523Y-24722633D01*
X26066289Y-24756630D01*
X26081233Y-24787534D01*
X26097414Y-24815089D01*
X26114888Y-24839039D01*
X26133713Y-24859126D01*
X26153945Y-24875095D01*
X26175643Y-24886689D01*
X26179636Y-24887594D01*
X26183527Y-24887316D01*
X26187340Y-24885922D01*
X26191098Y-24883479D01*
X26194824Y-24880053D01*
X26198543Y-24875712D01*
X26206054Y-24864548D01*
X26213819Y-24850521D01*
X26222028Y-24834165D01*
X26240538Y-24796602D01*
X26251218Y-24776462D01*
X26263101Y-24756129D01*
X26276376Y-24736135D01*
X26283596Y-24726433D01*
X26291234Y-24717016D01*
X26299316Y-24707951D01*
X26307864Y-24699305D01*
X26316902Y-24691144D01*
X26326455Y-24683535D01*
X26336545Y-24676545D01*
X26347197Y-24670241D01*
X26358434Y-24664689D01*
X26370280Y-24659956D01*
X26382526Y-24656522D01*
X26394444Y-24654752D01*
X26406036Y-24654538D01*
X26417307Y-24655771D01*
X26428262Y-24658345D01*
X26438903Y-24662151D01*
X26449235Y-24667082D01*
X26459262Y-24673030D01*
X26468989Y-24679887D01*
X26478418Y-24687546D01*
X26487554Y-24695899D01*
X26496401Y-24704838D01*
X26513244Y-24724042D01*
X26528979Y-24744299D01*
X26581471Y-24818603D01*
X26592142Y-24831190D01*
X26597131Y-24835992D01*
X26601895Y-24839657D01*
X26606438Y-24842077D01*
X26610764Y-24843143D01*
X26614876Y-24842748D01*
X26618779Y-24840785D01*
X26621498Y-24838565D01*
X26624096Y-24835487D01*
X26626594Y-24831609D01*
X26629015Y-24826991D01*
X26633713Y-24815768D01*
X26638362Y-24802287D01*
X26648214Y-24770437D01*
X26653765Y-24753008D01*
X26659966Y-24735203D01*
X26666989Y-24717493D01*
X26675010Y-24700349D01*
X26679449Y-24692135D01*
X26684202Y-24684239D01*
X26689292Y-24676720D01*
X26694741Y-24669636D01*
X26700569Y-24663046D01*
X26706799Y-24657009D01*
X26713453Y-24651584D01*
X26720553Y-24646829D01*
X26728119Y-24642803D01*
X26736174Y-24639566D01*
X26744741Y-24637175D01*
X26753839Y-24635690D01*
X26762894Y-24635379D01*
X26771817Y-24635926D01*
X26780603Y-24637269D01*
X26789248Y-24639349D01*
X26797747Y-24642105D01*
X26806094Y-24645477D01*
X26814285Y-24649405D01*
X26822314Y-24653827D01*
X26830178Y-24658685D01*
X26837870Y-24663918D01*
X26845386Y-24669465D01*
X26852722Y-24675266D01*
X26866829Y-24687389D01*
X26880153Y-24699805D01*
X26904291Y-24723585D01*
X26915026Y-24733984D01*
X26924819Y-24742746D01*
X26929350Y-24746362D01*
X26933630Y-24749388D01*
X26937656Y-24751763D01*
X26941421Y-24753428D01*
X26944920Y-24754321D01*
X26948150Y-24754383D01*
X26951104Y-24753553D01*
X26953779Y-24751771D01*
X26954647Y-24748302D01*
X26955249Y-24744004D01*
X26955786Y-24733157D01*
X26955141Y-24704073D01*
X26953994Y-24668221D01*
X26953904Y-24648913D01*
X26954495Y-24629301D01*
X26956036Y-24609847D01*
X26958796Y-24591013D01*
X26960717Y-24581973D01*
X26963044Y-24573262D01*
X26965810Y-24564938D01*
X26969048Y-24557057D01*
X26972793Y-24549679D01*
X26977078Y-24542861D01*
X26981936Y-24536660D01*
X26987402Y-24531135D01*
X26993508Y-24526344D01*
X27000288Y-24522343D01*
X27007777Y-24519192D01*
X27016007Y-24516947D01*
X27024734Y-24515768D01*
X27033670Y-24515235D01*
X27042787Y-24515297D01*
X27052060Y-24515903D01*
X27061458Y-24517004D01*
X27070956Y-24518548D01*
X27080525Y-24520485D01*
X27090137Y-24522765D01*
X27109381Y-24528153D01*
X27128466Y-24534308D01*
X27165275Y-24547304D01*
X27182556Y-24553340D01*
X27198791Y-24558529D01*
X27213760Y-24562470D01*
X27220701Y-24563845D01*
X27227242Y-24564758D01*
X27233355Y-24565156D01*
X27239013Y-24564990D01*
X27244189Y-24564209D01*
X27248854Y-24562763D01*
X27252981Y-24560602D01*
X27256542Y-24557675D01*
X27259509Y-24553931D01*
X27261856Y-24549321D01*
X27262913Y-24535721D01*
X27261082Y-24515673D01*
X27256449Y-24489938D01*
X27249101Y-24459282D01*
X27239125Y-24424466D01*
X27226608Y-24386253D01*
X27211637Y-24345408D01*
X27194300Y-24302692D01*
X27174683Y-24258869D01*
X27152874Y-24214702D01*
X27128959Y-24170954D01*
X27103025Y-24128389D01*
X27075160Y-24087769D01*
X27045451Y-24049857D01*
X27013984Y-24015417D01*
X26997619Y-23999737D01*
X26980847Y-23985211D01*
X26945905Y-23957416D01*
X26910157Y-23930601D01*
X26873870Y-23904608D01*
X26837315Y-23879278D01*
X26693788Y-23781436D01*
X26659924Y-23757054D01*
X26627407Y-23732388D01*
X26596503Y-23707280D01*
X26567483Y-23681570D01*
X26540616Y-23655102D01*
X26516171Y-23627717D01*
X26504940Y-23613632D01*
X26494416Y-23599258D01*
X26484631Y-23584576D01*
X26475620Y-23569565D01*
X26471898Y-23570629D01*
X26468020Y-23571610D01*
X26464031Y-23572533D01*
X26459973Y-23573421D01*
X26451833Y-23575186D01*
X26447839Y-23576112D01*
X26443954Y-23577097D01*
X26462497Y-23571941D01*
X26471807Y-23569382D01*
X26481068Y-23566921D01*
X26478273Y-23548296D01*
X26477421Y-23529349D01*
X26478415Y-23510054D01*
X26481155Y-23490388D01*
X26485544Y-23470330D01*
X26491483Y-23449855D01*
X26507617Y-23407561D01*
X26528769Y-23363322D01*
X26554152Y-23316952D01*
X26614460Y-23217074D01*
X26682241Y-23106443D01*
X26716964Y-23046630D01*
X26751194Y-22983572D01*
X26784141Y-22917082D01*
X26815019Y-22846974D01*
X26843040Y-22773063D01*
X26867416Y-22695164D01*
X26905271Y-22681402D01*
X26945260Y-22669423D01*
X27030927Y-22650543D01*
X27122996Y-22637981D01*
X27220047Y-22631195D01*
X27320659Y-22629644D01*
X27423412Y-22632786D01*
G37*
X29397966Y-23092605D02*
X29435704Y-23132805D01*
X29475973Y-23172087D01*
X29518824Y-23210395D01*
X29564311Y-23247676D01*
X29612485Y-23283876D01*
X29663398Y-23318941D01*
X29717102Y-23352817D01*
X29773650Y-23385449D01*
X29833093Y-23416783D01*
X29895483Y-23446766D01*
X29960873Y-23475343D01*
X30029315Y-23502460D01*
X30100860Y-23528063D01*
X30175561Y-23552097D01*
X30253471Y-23574509D01*
X30252985Y-23580297D01*
X30252898Y-23581023D01*
X30252793Y-23581752D01*
X30252663Y-23582485D01*
X30252507Y-23583222D01*
X30252319Y-23583964D01*
X30252096Y-23584711D01*
X30251833Y-23585465D01*
X30251527Y-23586226D01*
X30195528Y-23707949D01*
X30170613Y-23763270D01*
X30148479Y-23815446D01*
X30138624Y-23840482D01*
X30129668Y-23864886D01*
X30121679Y-23888708D01*
X30114724Y-23912001D01*
X30108872Y-23934815D01*
X30104189Y-23957202D01*
X30100745Y-23979213D01*
X30098607Y-24000900D01*
X29925736Y-24356972D01*
X29897824Y-24415013D01*
X29866747Y-24378239D01*
X29829453Y-24338200D01*
X29786781Y-24295356D01*
X29739572Y-24250165D01*
X29634904Y-24154581D01*
X29522169Y-24055120D01*
X29299385Y-23859265D01*
X29202777Y-23770216D01*
X29161111Y-23729518D01*
X29125112Y-23692111D01*
X29125671Y-23692024D01*
X29126320Y-23691939D01*
X29126941Y-23691871D01*
X29127550Y-23691813D01*
X29128787Y-23691711D01*
X29129444Y-23691655D01*
X29130146Y-23691588D01*
X29129341Y-23662407D01*
X29129435Y-23634532D01*
X29130390Y-23607891D01*
X29132167Y-23582414D01*
X29134730Y-23558027D01*
X29138040Y-23534662D01*
X29142060Y-23512246D01*
X29146753Y-23490708D01*
X29152079Y-23469977D01*
X29158002Y-23449982D01*
X29164484Y-23430651D01*
X29171487Y-23411913D01*
X29186906Y-23375933D01*
X29203956Y-23341472D01*
X29222336Y-23307959D01*
X29241744Y-23274826D01*
X29282437Y-23207418D01*
X29303118Y-23172004D01*
X29323619Y-23134690D01*
X29343639Y-23094907D01*
X29362875Y-23052085D01*
X29362706Y-23051541D01*
X29397966Y-23092605D01*
G36*
X29397966Y-23092605D02*
G01*
X29435704Y-23132805D01*
X29475973Y-23172087D01*
X29518824Y-23210395D01*
X29564311Y-23247676D01*
X29612485Y-23283876D01*
X29663398Y-23318941D01*
X29717102Y-23352817D01*
X29773650Y-23385449D01*
X29833093Y-23416783D01*
X29895483Y-23446766D01*
X29960873Y-23475343D01*
X30029315Y-23502460D01*
X30100860Y-23528063D01*
X30175561Y-23552097D01*
X30253471Y-23574509D01*
X30252985Y-23580297D01*
X30252898Y-23581023D01*
X30252793Y-23581752D01*
X30252663Y-23582485D01*
X30252507Y-23583222D01*
X30252319Y-23583964D01*
X30252096Y-23584711D01*
X30251833Y-23585465D01*
X30251527Y-23586226D01*
X30195528Y-23707949D01*
X30170613Y-23763270D01*
X30148479Y-23815446D01*
X30138624Y-23840482D01*
X30129668Y-23864886D01*
X30121679Y-23888708D01*
X30114724Y-23912001D01*
X30108872Y-23934815D01*
X30104189Y-23957202D01*
X30100745Y-23979213D01*
X30098607Y-24000900D01*
X29925736Y-24356972D01*
X29897824Y-24415013D01*
X29866747Y-24378239D01*
X29829453Y-24338200D01*
X29786781Y-24295356D01*
X29739572Y-24250165D01*
X29634904Y-24154581D01*
X29522169Y-24055120D01*
X29299385Y-23859265D01*
X29202777Y-23770216D01*
X29161111Y-23729518D01*
X29125112Y-23692111D01*
X29125671Y-23692024D01*
X29126320Y-23691939D01*
X29126941Y-23691871D01*
X29127550Y-23691813D01*
X29128787Y-23691711D01*
X29129444Y-23691655D01*
X29130146Y-23691588D01*
X29129341Y-23662407D01*
X29129435Y-23634532D01*
X29130390Y-23607891D01*
X29132167Y-23582414D01*
X29134730Y-23558027D01*
X29138040Y-23534662D01*
X29142060Y-23512246D01*
X29146753Y-23490708D01*
X29152079Y-23469977D01*
X29158002Y-23449982D01*
X29164484Y-23430651D01*
X29171487Y-23411913D01*
X29186906Y-23375933D01*
X29203956Y-23341472D01*
X29222336Y-23307959D01*
X29241744Y-23274826D01*
X29282437Y-23207418D01*
X29303118Y-23172004D01*
X29323619Y-23134690D01*
X29343639Y-23094907D01*
X29362875Y-23052085D01*
X29362706Y-23051541D01*
X29397966Y-23092605D01*
G37*
D12*
X30240781Y-22434512D02*
X30246173Y-22435067D01*
X30251728Y-22435908D01*
X30257437Y-22437037D01*
X30263290Y-22438454D01*
X30269279Y-22440161D01*
X30275393Y-22442159D01*
X30281623Y-22444448D01*
X30287960Y-22447029D01*
X30294395Y-22449904D01*
X30300917Y-22453074D01*
X30307519Y-22456539D01*
X30314189Y-22460301D01*
X30320920Y-22464360D01*
X30327700Y-22468718D01*
X30334522Y-22473375D01*
X30334522Y-22473383D01*
X30347907Y-22482825D01*
X30360670Y-22492871D01*
X30372761Y-22503432D01*
X30384128Y-22514416D01*
X30394718Y-22525731D01*
X30404482Y-22537288D01*
X30413366Y-22548995D01*
X30421321Y-22560761D01*
X30428294Y-22572496D01*
X30434234Y-22584108D01*
X30439090Y-22595506D01*
X30442810Y-22606600D01*
X30444228Y-22612005D01*
X30445342Y-22617299D01*
X30446147Y-22622471D01*
X30446636Y-22627511D01*
X30446802Y-22632406D01*
X30446639Y-22637146D01*
X30446140Y-22641719D01*
X30445300Y-22646113D01*
X30444123Y-22650525D01*
X30442623Y-22654652D01*
X30440809Y-22658493D01*
X30438690Y-22662048D01*
X30436277Y-22665317D01*
X30433578Y-22668298D01*
X30430603Y-22670992D01*
X30427361Y-22673398D01*
X30423862Y-22675515D01*
X30420115Y-22677343D01*
X30416130Y-22678881D01*
X30411915Y-22680129D01*
X30407481Y-22681087D01*
X30402836Y-22681753D01*
X30397991Y-22682128D01*
X30392954Y-22682211D01*
X30387735Y-22682001D01*
X30382343Y-22681499D01*
X30376788Y-22680702D01*
X30371079Y-22679612D01*
X30365226Y-22678227D01*
X30359238Y-22676547D01*
X30353123Y-22674571D01*
X30346893Y-22672300D01*
X30340556Y-22669731D01*
X30334121Y-22666866D01*
X30327598Y-22663704D01*
X30320997Y-22660243D01*
X30314326Y-22656484D01*
X30307596Y-22652426D01*
X30300815Y-22648068D01*
X30293993Y-22643410D01*
X30280608Y-22633968D01*
X30267844Y-22623916D01*
X30255754Y-22613343D01*
X30244387Y-22602335D01*
X30233797Y-22590979D01*
X30224033Y-22579362D01*
X30215148Y-22567572D01*
X30207194Y-22555694D01*
X30200220Y-22543816D01*
X30194280Y-22532025D01*
X30189425Y-22520408D01*
X30185705Y-22509052D01*
X30184287Y-22503500D01*
X30183173Y-22498044D01*
X30182368Y-22492698D01*
X30181879Y-22487471D01*
X30181713Y-22482375D01*
X30181876Y-22477420D01*
X30182374Y-22472617D01*
X30183215Y-22467978D01*
X30184392Y-22463811D01*
X30185892Y-22459914D01*
X30187706Y-22456288D01*
X30189825Y-22452934D01*
X30192238Y-22449853D01*
X30194937Y-22447045D01*
X30197912Y-22444512D01*
X30201154Y-22442255D01*
X30204653Y-22440275D01*
X30208400Y-22438572D01*
X30212386Y-22437148D01*
X30216600Y-22436004D01*
X30221035Y-22435140D01*
X30225679Y-22434558D01*
X30230525Y-22434259D01*
X30235562Y-22434243D01*
X30240781Y-22434512D01*
X31848623Y-22538500D02*
X31903752Y-22559060D01*
X31963338Y-22578712D01*
X32026379Y-22597916D01*
X32158821Y-22636835D01*
X32226219Y-22657475D01*
X32293067Y-22679518D01*
X32358364Y-22703427D01*
X32421108Y-22729664D01*
X32480298Y-22758693D01*
X32508247Y-22774398D01*
X32534932Y-22790975D01*
X32560228Y-22808481D01*
X32584009Y-22826974D01*
X32606151Y-22846511D01*
X32626528Y-22867151D01*
X32645016Y-22888952D01*
X32661488Y-22911970D01*
X32675820Y-22936264D01*
X32687886Y-22961893D01*
X32689277Y-22965492D01*
X32689926Y-22968235D01*
X32689868Y-22970182D01*
X32689137Y-22971395D01*
X32687766Y-22971933D01*
X32685790Y-22971858D01*
X32680160Y-22970112D01*
X32640264Y-22950755D01*
X32627312Y-22945253D01*
X32613714Y-22940460D01*
X32606759Y-22938480D01*
X32599745Y-22936860D01*
X32592706Y-22935660D01*
X32585677Y-22934941D01*
X32578691Y-22934763D01*
X32571782Y-22935188D01*
X32564986Y-22936277D01*
X32558335Y-22938089D01*
X32551865Y-22940686D01*
X32545608Y-22944128D01*
X32539600Y-22948477D01*
X32533875Y-22953793D01*
X32528615Y-22959787D01*
X32523959Y-22965627D01*
X32519879Y-22971316D01*
X32516347Y-22976860D01*
X32513332Y-22982260D01*
X32510808Y-22987523D01*
X32508744Y-22992651D01*
X32507113Y-22997649D01*
X32505886Y-23002520D01*
X32505033Y-23007268D01*
X32504527Y-23011898D01*
X32504339Y-23016414D01*
X32504439Y-23020818D01*
X32504800Y-23025116D01*
X32505392Y-23029311D01*
X32506187Y-23033407D01*
X32507156Y-23037409D01*
X32508270Y-23041319D01*
X32510821Y-23048883D01*
X32516404Y-23063094D01*
X32518978Y-23069805D01*
X32521101Y-23076294D01*
X32521922Y-23079465D01*
X32522543Y-23082593D01*
X32522937Y-23085682D01*
X32523075Y-23088735D01*
X32523047Y-23091401D01*
X32522472Y-23093360D01*
X32521372Y-23094665D01*
X32519771Y-23095367D01*
X32517691Y-23095521D01*
X32515154Y-23095177D01*
X32508804Y-23093207D01*
X32469711Y-23075917D01*
X32457424Y-23071338D01*
X32444496Y-23067493D01*
X32437849Y-23065978D01*
X32431109Y-23064804D01*
X32424300Y-23064022D01*
X32417445Y-23063687D01*
X32410566Y-23063850D01*
X32403686Y-23064563D01*
X32396828Y-23065880D01*
X32390015Y-23067851D01*
X32383268Y-23070530D01*
X32376612Y-23073970D01*
X32370068Y-23078221D01*
X32363660Y-23083338D01*
X32357473Y-23089157D01*
X32352052Y-23094970D01*
X32347360Y-23100773D01*
X32343357Y-23106559D01*
X32340002Y-23112323D01*
X32337258Y-23118061D01*
X32335082Y-23123765D01*
X32333438Y-23129432D01*
X32332284Y-23135055D01*
X32331581Y-23140629D01*
X32331289Y-23146148D01*
X32331370Y-23151608D01*
X32331783Y-23157002D01*
X32332489Y-23162326D01*
X32333448Y-23167574D01*
X32334621Y-23172740D01*
X32337450Y-23182806D01*
X32340659Y-23192481D01*
X32346950Y-23210483D01*
X32349399Y-23218722D01*
X32350311Y-23222633D01*
X32350962Y-23226397D01*
X32351312Y-23230009D01*
X32351321Y-23233463D01*
X32350951Y-23236754D01*
X32350162Y-23239877D01*
X32348561Y-23243238D01*
X32346318Y-23245769D01*
X32343472Y-23247522D01*
X32340061Y-23248553D01*
X32336123Y-23248916D01*
X32331697Y-23248665D01*
X32326823Y-23247855D01*
X32321537Y-23246539D01*
X32309889Y-23242611D01*
X32297062Y-23237315D01*
X32269103Y-23224358D01*
X32240132Y-23211149D01*
X32226038Y-23205536D01*
X32212616Y-23201165D01*
X32206255Y-23199581D01*
X32200177Y-23198470D01*
X32194422Y-23197887D01*
X32189028Y-23197887D01*
X32184033Y-23198522D01*
X32179478Y-23199849D01*
X32175399Y-23201921D01*
X32171835Y-23204792D01*
X32168466Y-23208158D01*
X32165437Y-23211670D01*
X32162727Y-23215315D01*
X32160311Y-23219082D01*
X32158166Y-23222957D01*
X32156269Y-23226929D01*
X32154597Y-23230984D01*
X32153126Y-23235111D01*
X32150697Y-23243531D01*
X32148793Y-23252089D01*
X32145823Y-23269226D01*
X32144383Y-23277606D01*
X32142726Y-23285730D01*
X32140666Y-23293498D01*
X32139426Y-23297217D01*
X32138015Y-23300811D01*
X32136411Y-23304266D01*
X32134589Y-23307571D01*
X32132527Y-23310713D01*
X32130201Y-23313679D01*
X32127588Y-23316458D01*
X32124665Y-23319036D01*
X32121408Y-23321402D01*
X32117795Y-23323543D01*
X32112085Y-23325164D01*
X32105139Y-23325028D01*
X32097035Y-23323229D01*
X32087852Y-23319863D01*
X32077667Y-23315021D01*
X32066560Y-23308799D01*
X32041888Y-23292588D01*
X32014461Y-23271982D01*
X31984905Y-23247730D01*
X31953845Y-23220584D01*
X31921906Y-23191295D01*
X31857894Y-23129294D01*
X31797871Y-23067736D01*
X31746841Y-23012630D01*
X31709806Y-22969984D01*
X31709789Y-22969984D01*
X31718241Y-22947399D01*
X31726365Y-22923271D01*
X31734148Y-22897768D01*
X31741580Y-22871054D01*
X31755338Y-22814662D01*
X31767545Y-22755422D01*
X31778105Y-22694665D01*
X31786923Y-22633717D01*
X31793903Y-22573909D01*
X31798951Y-22516567D01*
X31848623Y-22538500D01*
X27100989Y-19465992D02*
X27236967Y-19472795D01*
X27379245Y-19485153D01*
X27526780Y-19503228D01*
X27678526Y-19527181D01*
X27833438Y-19557175D01*
X27990472Y-19593372D01*
X28148583Y-19635934D01*
X28306725Y-19685024D01*
X28463853Y-19740802D01*
X28618924Y-19803432D01*
X28770892Y-19873076D01*
X28918712Y-19949895D01*
X28979364Y-19984749D01*
X29036828Y-20019954D01*
X29091302Y-20055464D01*
X29142987Y-20091235D01*
X29238785Y-20163377D01*
X29325816Y-20236022D01*
X29405675Y-20308809D01*
X29479958Y-20381379D01*
X29618173Y-20524427D01*
X29685296Y-20594186D01*
X29753222Y-20662288D01*
X29823547Y-20728374D01*
X29897865Y-20792084D01*
X29977772Y-20853059D01*
X30020319Y-20882408D01*
X30064862Y-20910938D01*
X30111599Y-20938604D01*
X30160730Y-20965361D01*
X30212455Y-20991165D01*
X30266973Y-21015970D01*
X30207010Y-21008258D01*
X30148705Y-21004251D01*
X30092055Y-21003792D01*
X30037056Y-21006729D01*
X29983703Y-21012905D01*
X29931992Y-21022166D01*
X29881920Y-21034358D01*
X29833483Y-21049326D01*
X29786676Y-21066915D01*
X29741496Y-21086970D01*
X29697939Y-21109338D01*
X29656000Y-21133862D01*
X29615677Y-21160389D01*
X29576964Y-21188763D01*
X29539858Y-21218831D01*
X29504355Y-21250437D01*
X29438142Y-21317645D01*
X29378293Y-21389151D01*
X29324777Y-21463717D01*
X29277562Y-21540106D01*
X29236616Y-21617080D01*
X29201907Y-21693401D01*
X29173405Y-21767832D01*
X29151077Y-21839137D01*
X29131265Y-21914273D01*
X29114553Y-21989849D01*
X29101189Y-22065796D01*
X29091423Y-22142047D01*
X29085504Y-22218536D01*
X29083681Y-22295195D01*
X29086205Y-22371957D01*
X29093323Y-22448754D01*
X29105286Y-22525520D01*
X29122342Y-22602187D01*
X29144742Y-22678687D01*
X29172735Y-22754954D01*
X29206569Y-22830921D01*
X29246495Y-22906520D01*
X29292761Y-22981683D01*
X29345617Y-23056345D01*
X29326536Y-23099047D01*
X29306956Y-23138492D01*
X29287138Y-23175281D01*
X29267345Y-23210013D01*
X29228874Y-23275715D01*
X29210719Y-23307886D01*
X29193632Y-23340405D01*
X29177876Y-23373873D01*
X29163711Y-23408890D01*
X29157306Y-23427168D01*
X29151398Y-23446059D01*
X29146017Y-23465637D01*
X29141198Y-23485979D01*
X29136973Y-23507158D01*
X29133374Y-23529251D01*
X29130433Y-23552332D01*
X29128185Y-23576477D01*
X29126661Y-23601761D01*
X29125893Y-23628258D01*
X29125916Y-23656044D01*
X29126760Y-23685194D01*
X29061164Y-23691586D01*
X29002217Y-23696332D01*
X28946943Y-23699053D01*
X28919754Y-23699536D01*
X28892366Y-23699369D01*
X28864409Y-23698507D01*
X28835510Y-23696901D01*
X28805296Y-23694504D01*
X28773397Y-23691269D01*
X28739439Y-23687148D01*
X28703052Y-23682093D01*
X28621498Y-23668995D01*
X28611195Y-23639539D01*
X28600093Y-23610845D01*
X28575776Y-23555502D01*
X28549115Y-23502484D01*
X28520682Y-23451309D01*
X28491045Y-23401494D01*
X28460775Y-23352556D01*
X28400615Y-23255385D01*
X28371865Y-23206187D01*
X28344761Y-23155937D01*
X28319874Y-23104153D01*
X28297773Y-23050354D01*
X28287946Y-23022547D01*
X28279029Y-22994055D01*
X28271093Y-22964818D01*
X28264211Y-22934776D01*
X28258452Y-22903868D01*
X28253889Y-22872034D01*
X28250592Y-22839213D01*
X28248633Y-22805346D01*
X28202610Y-22785067D01*
X28144519Y-22764065D01*
X28075781Y-22742881D01*
X27997818Y-22722056D01*
X27912049Y-22702134D01*
X27819896Y-22683655D01*
X27722781Y-22667160D01*
X27622122Y-22653192D01*
X27519343Y-22642291D01*
X27415863Y-22635001D01*
X27313103Y-22631861D01*
X27212484Y-22633415D01*
X27115428Y-22640202D01*
X27023354Y-22652766D01*
X26937684Y-22671648D01*
X26897695Y-22683627D01*
X26859839Y-22697389D01*
X26859841Y-22697397D01*
X26835466Y-22775296D01*
X26807444Y-22849206D01*
X26776566Y-22919313D01*
X26743617Y-22985802D01*
X26709386Y-23048860D01*
X26674660Y-23108671D01*
X26606875Y-23219300D01*
X26546562Y-23319175D01*
X26521177Y-23365545D01*
X26500022Y-23409783D01*
X26483886Y-23452077D01*
X26477947Y-23472552D01*
X26473557Y-23492611D01*
X26470815Y-23512277D01*
X26469821Y-23531572D01*
X26470672Y-23550520D01*
X26473467Y-23569145D01*
X26363364Y-23599340D01*
X26305336Y-23613931D01*
X26274857Y-23620546D01*
X26243128Y-23626497D01*
X26209942Y-23631626D01*
X26175094Y-23635774D01*
X26138378Y-23638783D01*
X26099588Y-23640495D01*
X26058518Y-23640753D01*
X26014963Y-23639398D01*
X25968716Y-23636271D01*
X25919572Y-23631215D01*
X25918186Y-23618260D01*
X25915601Y-23604708D01*
X25911902Y-23590583D01*
X25907173Y-23575904D01*
X25894960Y-23544973D01*
X25879637Y-23512085D01*
X25861875Y-23477410D01*
X25842348Y-23441118D01*
X25800689Y-23364362D01*
X25779904Y-23324238D01*
X25760044Y-23283178D01*
X25741783Y-23241350D01*
X25725794Y-23198926D01*
X25718861Y-23177543D01*
X25712749Y-23156074D01*
X25707542Y-23134541D01*
X25703322Y-23112965D01*
X25700176Y-23091368D01*
X25698186Y-23069770D01*
X25697437Y-23048192D01*
X25698013Y-23026657D01*
X25657646Y-23031647D01*
X25619388Y-23035455D01*
X25582880Y-23038037D01*
X25547761Y-23039351D01*
X25513671Y-23039352D01*
X25480250Y-23037997D01*
X25447137Y-23035243D01*
X25413973Y-23031046D01*
X25380398Y-23025362D01*
X25346050Y-23018148D01*
X25310571Y-23009360D01*
X25273600Y-22998956D01*
X25234776Y-22986890D01*
X25193739Y-22973121D01*
X25150131Y-22957604D01*
X25103589Y-22940296D01*
X25070840Y-22926189D01*
X25037532Y-22909227D01*
X25003802Y-22889496D01*
X24969786Y-22867084D01*
X24935621Y-22842076D01*
X24901445Y-22814559D01*
X24867395Y-22784619D01*
X24833608Y-22752343D01*
X24800220Y-22717818D01*
X24767369Y-22681130D01*
X24735192Y-22642365D01*
X24703826Y-22601610D01*
X24673407Y-22558951D01*
X24644074Y-22514476D01*
X24615963Y-22468269D01*
X24589210Y-22420419D01*
X24563954Y-22371011D01*
X24540331Y-22320131D01*
X24518478Y-22267867D01*
X24498532Y-22214305D01*
X24480631Y-22159531D01*
X24464911Y-22103631D01*
X24451509Y-22046693D01*
X24440562Y-21988803D01*
X24432208Y-21930047D01*
X24426584Y-21870512D01*
X24423826Y-21810283D01*
X24424071Y-21749449D01*
X24427457Y-21688094D01*
X24434121Y-21626307D01*
X24444200Y-21564172D01*
X24457830Y-21501777D01*
X24497012Y-21356617D01*
X24544323Y-21207489D01*
X24600801Y-21055798D01*
X24667483Y-20902954D01*
X24745404Y-20750362D01*
X24835604Y-20599431D01*
X24939117Y-20451568D01*
X24996191Y-20379226D01*
X25056982Y-20308180D01*
X25121620Y-20238604D01*
X25190235Y-20170675D01*
X25262957Y-20104568D01*
X25339914Y-20040460D01*
X25421237Y-19978526D01*
X25507055Y-19918943D01*
X25597498Y-19861886D01*
X25692695Y-19807531D01*
X25792776Y-19756054D01*
X25897871Y-19707631D01*
X26008109Y-19662438D01*
X26123620Y-19620651D01*
X26244534Y-19582446D01*
X26370980Y-19547999D01*
X26503088Y-19517485D01*
X26640987Y-19491081D01*
X26741311Y-19477288D01*
X26852116Y-19468400D01*
X26972357Y-19464581D01*
X27100989Y-19465992D01*
D11*
X29125112Y-23692111D02*
X29124980Y-23692132D01*
X29124989Y-23691983D01*
X29125112Y-23692111D01*
G36*
X29125112Y-23692111D02*
G01*
X29124980Y-23692132D01*
X29124989Y-23691983D01*
X29125112Y-23692111D01*
G37*
X25234787Y-20115201D02*
X25234779Y-20115201D01*
X25234788Y-20115193D01*
X25234787Y-20115201D01*
G36*
X25234787Y-20115201D02*
G01*
X25234779Y-20115201D01*
X25234788Y-20115193D01*
X25234787Y-20115201D01*
G37*
X31319530Y-21475574D02*
X31262946Y-21420238D01*
X31204021Y-21368316D01*
X31142946Y-21319814D01*
X31079913Y-21274738D01*
X31015113Y-21233092D01*
X30948739Y-21194881D01*
X30880983Y-21160111D01*
X30812035Y-21128787D01*
X30742087Y-21100914D01*
X30671332Y-21076497D01*
X30599961Y-21055542D01*
X30528165Y-21038052D01*
X30456136Y-21024034D01*
X30384067Y-21013493D01*
X30312148Y-21006433D01*
X30240571Y-21002860D01*
X30240571Y-21002869D01*
X30196436Y-20981961D01*
X30154156Y-20960380D01*
X30113619Y-20938153D01*
X30074714Y-20915304D01*
X30001345Y-20867843D01*
X29933151Y-20818200D01*
X29869230Y-20766580D01*
X29808685Y-20713185D01*
X29750614Y-20658219D01*
X29694119Y-20601885D01*
X29465898Y-20366935D01*
X29403785Y-20306811D01*
X29337849Y-20246540D01*
X29267191Y-20186323D01*
X29190912Y-20126366D01*
X31976973Y-20121752D01*
X31319530Y-21475574D01*
G36*
X31319530Y-21475574D02*
G01*
X31262946Y-21420238D01*
X31204021Y-21368316D01*
X31142946Y-21319814D01*
X31079913Y-21274738D01*
X31015113Y-21233092D01*
X30948739Y-21194881D01*
X30880983Y-21160111D01*
X30812035Y-21128787D01*
X30742087Y-21100914D01*
X30671332Y-21076497D01*
X30599961Y-21055542D01*
X30528165Y-21038052D01*
X30456136Y-21024034D01*
X30384067Y-21013493D01*
X30312148Y-21006433D01*
X30240571Y-21002860D01*
X30240571Y-21002869D01*
X30196436Y-20981961D01*
X30154156Y-20960380D01*
X30113619Y-20938153D01*
X30074714Y-20915304D01*
X30001345Y-20867843D01*
X29933151Y-20818200D01*
X29869230Y-20766580D01*
X29808685Y-20713185D01*
X29750614Y-20658219D01*
X29694119Y-20601885D01*
X29465898Y-20366935D01*
X29403785Y-20306811D01*
X29337849Y-20246540D01*
X29267191Y-20186323D01*
X29190912Y-20126366D01*
X31976973Y-20121752D01*
X31319530Y-21475574D01*
G37*
D12*
X28692894Y-23673133D02*
X28754030Y-23682628D01*
X28811810Y-23690793D01*
X28839906Y-23693971D01*
X28867722Y-23696332D01*
X28895442Y-23697712D01*
X28923254Y-23697949D01*
X28951342Y-23696882D01*
X28979894Y-23694349D01*
X29009094Y-23690187D01*
X29039130Y-23684234D01*
X29070187Y-23676328D01*
X29102451Y-23666308D01*
X29147121Y-23714048D01*
X29201821Y-23767496D01*
X29333550Y-23887281D01*
X29632029Y-24148738D01*
X29767748Y-24273458D01*
X29825439Y-24330607D01*
X29873767Y-24382870D01*
X29910790Y-24429187D01*
X29924457Y-24449784D01*
X29934571Y-24468498D01*
X29940889Y-24485196D01*
X29943169Y-24499744D01*
X29941168Y-24512012D01*
X29934645Y-24521866D01*
X29931095Y-24524870D01*
X29927048Y-24527337D01*
X29922528Y-24529312D01*
X29917563Y-24530843D01*
X29912175Y-24531976D01*
X29906392Y-24532759D01*
X29893736Y-24533462D01*
X29832310Y-24531650D01*
X29815261Y-24531918D01*
X29797939Y-24533226D01*
X29789239Y-24534388D01*
X29780546Y-24535950D01*
X29771886Y-24537960D01*
X29763284Y-24540464D01*
X29754764Y-24543511D01*
X29746354Y-24547146D01*
X29738076Y-24551416D01*
X29729958Y-24556369D01*
X29722024Y-24562051D01*
X29714298Y-24568510D01*
X29706808Y-24575792D01*
X29699577Y-24583944D01*
X29689576Y-24597350D01*
X29680805Y-24610734D01*
X29673195Y-24624070D01*
X29666679Y-24637337D01*
X29661188Y-24650511D01*
X29656654Y-24663569D01*
X29653008Y-24676488D01*
X29650183Y-24689244D01*
X29648110Y-24701814D01*
X29646720Y-24714175D01*
X29645719Y-24738177D01*
X29646633Y-24761064D01*
X29648917Y-24782651D01*
X29660823Y-24852273D01*
X29661760Y-24864569D01*
X29661548Y-24869823D01*
X29660790Y-24874449D01*
X29659419Y-24878425D01*
X29657366Y-24881728D01*
X29654563Y-24884334D01*
X29650942Y-24886219D01*
X29643754Y-24888309D01*
X29635898Y-24889551D01*
X29627419Y-24889999D01*
X29618361Y-24889707D01*
X29608768Y-24888730D01*
X29598686Y-24887120D01*
X29577230Y-24882219D01*
X29554350Y-24875436D01*
X29530401Y-24867201D01*
X29480721Y-24848103D01*
X29431042Y-24828372D01*
X29407093Y-24819346D01*
X29384212Y-24811456D01*
X29362756Y-24805130D01*
X29343081Y-24800802D01*
X29334023Y-24799521D01*
X29325543Y-24798901D01*
X29317687Y-24798995D01*
X29310499Y-24799858D01*
X29297603Y-24803082D01*
X29285729Y-24807147D01*
X29274821Y-24811993D01*
X29264825Y-24817559D01*
X29255686Y-24823786D01*
X29247349Y-24830612D01*
X29239759Y-24837978D01*
X29232861Y-24845824D01*
X29226600Y-24854088D01*
X29220922Y-24862712D01*
X29215771Y-24871633D01*
X29211092Y-24880793D01*
X29202933Y-24899587D01*
X29196005Y-24918610D01*
X29184084Y-24955414D01*
X29178212Y-24972231D01*
X29171814Y-24987348D01*
X29168281Y-24994118D01*
X29164451Y-25000282D01*
X29160270Y-25005781D01*
X29155682Y-25010552D01*
X29150634Y-25014538D01*
X29145069Y-25017676D01*
X29138934Y-25019907D01*
X29132173Y-25021170D01*
X29124619Y-25018124D01*
X29117149Y-25014575D01*
X29109752Y-25010558D01*
X29102415Y-25006110D01*
X29095128Y-25001264D01*
X29087878Y-24996055D01*
X29073449Y-24984692D01*
X29059035Y-24972301D01*
X29044546Y-24959163D01*
X29014978Y-24931768D01*
X28999717Y-24918072D01*
X28984016Y-24904752D01*
X28967785Y-24892088D01*
X28959443Y-24886090D01*
X28950933Y-24880362D01*
X28942246Y-24874937D01*
X28933368Y-24869853D01*
X28924290Y-24865143D01*
X28915000Y-24860842D01*
X28905486Y-24856987D01*
X28895737Y-24853611D01*
X28885742Y-24850751D01*
X28875489Y-24848440D01*
X28865583Y-24846834D01*
X28856119Y-24846030D01*
X28847076Y-24845976D01*
X28838438Y-24846620D01*
X28830186Y-24847911D01*
X28822301Y-24849796D01*
X28814766Y-24852224D01*
X28807562Y-24855143D01*
X28800670Y-24858501D01*
X28794073Y-24862246D01*
X28787751Y-24866325D01*
X28781688Y-24870688D01*
X28775864Y-24875283D01*
X28770261Y-24880056D01*
X28759645Y-24889934D01*
X28740261Y-24909560D01*
X28731201Y-24918477D01*
X28722366Y-24926244D01*
X28717988Y-24929566D01*
X28713611Y-24932445D01*
X28709217Y-24934829D01*
X28704788Y-24936666D01*
X28700305Y-24937903D01*
X28695751Y-24938490D01*
X28691107Y-24938374D01*
X28686354Y-24937503D01*
X28686346Y-24937495D01*
X28682532Y-24936576D01*
X28678697Y-24933872D01*
X28674849Y-24929467D01*
X28671000Y-24923442D01*
X28663335Y-24906859D01*
X28655781Y-24884782D01*
X28648417Y-24857865D01*
X28641322Y-24826765D01*
X28634575Y-24792139D01*
X28628256Y-24754643D01*
X28622443Y-24714933D01*
X28617216Y-24673665D01*
X28612654Y-24631496D01*
X28608836Y-24589081D01*
X28605841Y-24547078D01*
X28603748Y-24506143D01*
X28602637Y-24466931D01*
X28602587Y-24430100D01*
X28604314Y-24392700D01*
X28607288Y-24352553D01*
X28615884Y-24265171D01*
X28636023Y-24070132D01*
X28643196Y-23967094D01*
X28645103Y-23915205D01*
X28645526Y-23863454D01*
X28644191Y-23812130D01*
X28640826Y-23761522D01*
X28635158Y-23711917D01*
X28626913Y-23663606D01*
X28692894Y-23673133D01*
D11*
X25152739Y-20193029D02*
X25076087Y-20273168D01*
X25004635Y-20355336D01*
X24938185Y-20439260D01*
X24876539Y-20524667D01*
X24819500Y-20611285D01*
X24766871Y-20698840D01*
X24718453Y-20787058D01*
X24674050Y-20875668D01*
X24633462Y-20964396D01*
X24596494Y-21052968D01*
X24562947Y-21141112D01*
X24532623Y-21228555D01*
X24505325Y-21315024D01*
X24480856Y-21400245D01*
X24459018Y-21483946D01*
X24450942Y-21519134D01*
X24444099Y-21554234D01*
X24438435Y-21589237D01*
X24433896Y-21624133D01*
X24430432Y-21658911D01*
X24427987Y-21693562D01*
X24426511Y-21728075D01*
X24425950Y-21762441D01*
X24412481Y-21800508D01*
X24397945Y-21838320D01*
X24382389Y-21875929D01*
X24365860Y-21913390D01*
X24348406Y-21950753D01*
X24330072Y-21988072D01*
X24290959Y-22062785D01*
X24248899Y-22137950D01*
X24204268Y-22213986D01*
X24108809Y-22370353D01*
X23028035Y-20118818D01*
X25234779Y-20115201D01*
X25152739Y-20193029D01*
G36*
X25152739Y-20193029D02*
G01*
X25076087Y-20273168D01*
X25004635Y-20355336D01*
X24938185Y-20439260D01*
X24876539Y-20524667D01*
X24819500Y-20611285D01*
X24766871Y-20698840D01*
X24718453Y-20787058D01*
X24674050Y-20875668D01*
X24633462Y-20964396D01*
X24596494Y-21052968D01*
X24562947Y-21141112D01*
X24532623Y-21228555D01*
X24505325Y-21315024D01*
X24480856Y-21400245D01*
X24459018Y-21483946D01*
X24450942Y-21519134D01*
X24444099Y-21554234D01*
X24438435Y-21589237D01*
X24433896Y-21624133D01*
X24430432Y-21658911D01*
X24427987Y-21693562D01*
X24426511Y-21728075D01*
X24425950Y-21762441D01*
X24412481Y-21800508D01*
X24397945Y-21838320D01*
X24382389Y-21875929D01*
X24365860Y-21913390D01*
X24348406Y-21950753D01*
X24330072Y-21988072D01*
X24290959Y-22062785D01*
X24248899Y-22137950D01*
X24204268Y-22213986D01*
X24108809Y-22370353D01*
X23028035Y-20118818D01*
X25234779Y-20115201D01*
X25152739Y-20193029D01*
G37*
D12*
X30248735Y-21002689D02*
X30312561Y-21006115D01*
X30376662Y-21012308D01*
X30440902Y-21021266D01*
X30505144Y-21032985D01*
X30569251Y-21047461D01*
X30633087Y-21064691D01*
X30696516Y-21084672D01*
X30759400Y-21107400D01*
X30821603Y-21132872D01*
X30882989Y-21161084D01*
X30943421Y-21192033D01*
X31002763Y-21225715D01*
X31060878Y-21262127D01*
X31117630Y-21301265D01*
X31172881Y-21343126D01*
X31226496Y-21387707D01*
X31278337Y-21435004D01*
X31328269Y-21485013D01*
X31376155Y-21537731D01*
X31421858Y-21593156D01*
X31465241Y-21651282D01*
X31506169Y-21712107D01*
X31544504Y-21775627D01*
X31580110Y-21841839D01*
X31617197Y-21916222D01*
X31651237Y-21988920D01*
X31681904Y-22060464D01*
X31708875Y-22131383D01*
X31731824Y-22202207D01*
X31750428Y-22273466D01*
X31764361Y-22345689D01*
X31773299Y-22419407D01*
X31776918Y-22495149D01*
X31774893Y-22573445D01*
X31766899Y-22654825D01*
X31752613Y-22739818D01*
X31731708Y-22828955D01*
X31703862Y-22922765D01*
X31668749Y-23021777D01*
X31626045Y-23126523D01*
X31619850Y-23111290D01*
X31612933Y-23096949D01*
X31605316Y-23083476D01*
X31597020Y-23070847D01*
X31588066Y-23059035D01*
X31578478Y-23048018D01*
X31568276Y-23037769D01*
X31557483Y-23028264D01*
X31546119Y-23019479D01*
X31534207Y-23011389D01*
X31521769Y-23003969D01*
X31508827Y-22997194D01*
X31481514Y-22985483D01*
X31452445Y-22976056D01*
X31421792Y-22968717D01*
X31389731Y-22963267D01*
X31356434Y-22959510D01*
X31322077Y-22957247D01*
X31286833Y-22956282D01*
X31250877Y-22956415D01*
X31177524Y-22959190D01*
X31073800Y-22966993D01*
X30976309Y-22976323D01*
X30884890Y-22987313D01*
X30799380Y-23000097D01*
X30719618Y-23014811D01*
X30645439Y-23031589D01*
X30610394Y-23040793D01*
X30576683Y-23050564D01*
X30544288Y-23060918D01*
X30513187Y-23071872D01*
X30483361Y-23083443D01*
X30454789Y-23095648D01*
X30427451Y-23108502D01*
X30401326Y-23122024D01*
X30376395Y-23136230D01*
X30352637Y-23151136D01*
X30330032Y-23166760D01*
X30308559Y-23183118D01*
X30288198Y-23200228D01*
X30268929Y-23218105D01*
X30250731Y-23236767D01*
X30233585Y-23256231D01*
X30217470Y-23276513D01*
X30202366Y-23297630D01*
X30188252Y-23319599D01*
X30175109Y-23342437D01*
X30169720Y-23349238D01*
X30165184Y-23355984D01*
X30161465Y-23362681D01*
X30158528Y-23369337D01*
X30156340Y-23375959D01*
X30154865Y-23382555D01*
X30154068Y-23389133D01*
X30153916Y-23395698D01*
X30154373Y-23402260D01*
X30155406Y-23408826D01*
X30156978Y-23415402D01*
X30159056Y-23421997D01*
X30161605Y-23428617D01*
X30164591Y-23435270D01*
X30171732Y-23448706D01*
X30180203Y-23462363D01*
X30189727Y-23476301D01*
X30210825Y-23505256D01*
X30221846Y-23520392D01*
X30232810Y-23536046D01*
X30243443Y-23552277D01*
X30253466Y-23569145D01*
X30170933Y-23545442D01*
X30091996Y-23519922D01*
X30016592Y-23492648D01*
X29944660Y-23463686D01*
X29876137Y-23433098D01*
X29810963Y-23400950D01*
X29749075Y-23367305D01*
X29690410Y-23332229D01*
X29634908Y-23295784D01*
X29582507Y-23258036D01*
X29533144Y-23219049D01*
X29486759Y-23178886D01*
X29443288Y-23137612D01*
X29402670Y-23095292D01*
X29364844Y-23051989D01*
X29329747Y-23007768D01*
X29297317Y-22962694D01*
X29267494Y-22916829D01*
X29240214Y-22870239D01*
X29215417Y-22822988D01*
X29193039Y-22775140D01*
X29173020Y-22726759D01*
X29155298Y-22677909D01*
X29139810Y-22628655D01*
X29115291Y-22529192D01*
X29098969Y-22428883D01*
X29090348Y-22328241D01*
X29088935Y-22227781D01*
X29088933Y-22227781D01*
X29091116Y-22178278D01*
X29095094Y-22128999D01*
X29100810Y-22080007D01*
X29108205Y-22031367D01*
X29117224Y-21983145D01*
X29127808Y-21935404D01*
X29139899Y-21888210D01*
X29153442Y-21841627D01*
X29168377Y-21795720D01*
X29184648Y-21750554D01*
X29202198Y-21706194D01*
X29220969Y-21662704D01*
X29240903Y-21620148D01*
X29261944Y-21578593D01*
X29284033Y-21538101D01*
X29307114Y-21498739D01*
X29331129Y-21460571D01*
X29356021Y-21423662D01*
X29381731Y-21388076D01*
X29408204Y-21353878D01*
X29435382Y-21321133D01*
X29463206Y-21289906D01*
X29491620Y-21260261D01*
X29520566Y-21232263D01*
X29549988Y-21205977D01*
X29579827Y-21181468D01*
X29610026Y-21158800D01*
X29640528Y-21138038D01*
X29671275Y-21119247D01*
X29702210Y-21102491D01*
X29733276Y-21087836D01*
X29764414Y-21075345D01*
X29821124Y-21056503D01*
X29879202Y-21040456D01*
X29938510Y-21027202D01*
X29998912Y-21016736D01*
X30060273Y-21009055D01*
X30122454Y-21004156D01*
X30185321Y-21002035D01*
X30248735Y-21002689D01*
X31233246Y-22959935D02*
X31325163Y-22966454D01*
X31409889Y-22978084D01*
X31429305Y-22981753D01*
X31447553Y-22985678D01*
X31464670Y-22989864D01*
X31480689Y-22994312D01*
X31495648Y-22999028D01*
X31509582Y-23004014D01*
X31522527Y-23009274D01*
X31534517Y-23014812D01*
X31545590Y-23020630D01*
X31555779Y-23026732D01*
X31565122Y-23033122D01*
X31573653Y-23039803D01*
X31581408Y-23046778D01*
X31588424Y-23054052D01*
X31594734Y-23061627D01*
X31600376Y-23069507D01*
X31605385Y-23077695D01*
X31609796Y-23086195D01*
X31613645Y-23095011D01*
X31616967Y-23104145D01*
X31619799Y-23113601D01*
X31622175Y-23123383D01*
X31625706Y-23143938D01*
X31627843Y-23165838D01*
X31628872Y-23189109D01*
X31629077Y-23213779D01*
X31628745Y-23239877D01*
X31629219Y-23277068D01*
X31633674Y-23318415D01*
X31642103Y-23363327D01*
X31654498Y-23411216D01*
X31670851Y-23461494D01*
X31691154Y-23513570D01*
X31715399Y-23566856D01*
X31743578Y-23620762D01*
X31775683Y-23674700D01*
X31811706Y-23728081D01*
X31851640Y-23780315D01*
X31895477Y-23830813D01*
X31943208Y-23878987D01*
X31968531Y-23902017D01*
X31994825Y-23924246D01*
X32022089Y-23945599D01*
X32050322Y-23966003D01*
X32079522Y-23985384D01*
X32109689Y-24003668D01*
X32109690Y-24003669D01*
X32109690Y-24003670D01*
X32109691Y-24003670D01*
X32109691Y-24003671D01*
X32109692Y-24003672D01*
X32109693Y-24003673D01*
X32109693Y-24003674D01*
X32109694Y-24003675D01*
X32109695Y-24003676D01*
X32109696Y-24003676D01*
X32109697Y-24003676D01*
X32109697Y-24003677D01*
X32147836Y-24027332D01*
X32180789Y-24050693D01*
X32208705Y-24073703D01*
X32231732Y-24096303D01*
X32250020Y-24118437D01*
X32263716Y-24140047D01*
X32272972Y-24161075D01*
X32277934Y-24181466D01*
X32278752Y-24201160D01*
X32275576Y-24220102D01*
X32268553Y-24238233D01*
X32257833Y-24255496D01*
X32243565Y-24271834D01*
X32225898Y-24287190D01*
X32204980Y-24301506D01*
X32180961Y-24314725D01*
X32153989Y-24326789D01*
X32124213Y-24337642D01*
X32056846Y-24355483D01*
X31980052Y-24367789D01*
X31895021Y-24374101D01*
X31802945Y-24373961D01*
X31705015Y-24366911D01*
X31602423Y-24352491D01*
X31496359Y-24330242D01*
X31462436Y-24322470D01*
X31429549Y-24315816D01*
X31397672Y-24310230D01*
X31366783Y-24305660D01*
X31336855Y-24302054D01*
X31307864Y-24299362D01*
X31279786Y-24297531D01*
X31252595Y-24296511D01*
X31226267Y-24296249D01*
X31200777Y-24296696D01*
X31152212Y-24299506D01*
X31106703Y-24304529D01*
X31064051Y-24311356D01*
X31024059Y-24319574D01*
X30986529Y-24328772D01*
X30951263Y-24338540D01*
X30918063Y-24348465D01*
X30857069Y-24367147D01*
X30828880Y-24375080D01*
X30801965Y-24381527D01*
X30765760Y-24388262D01*
X30729160Y-24394176D01*
X30692275Y-24399078D01*
X30655216Y-24402778D01*
X30618094Y-24405087D01*
X30581019Y-24405815D01*
X30544102Y-24404771D01*
X30507454Y-24401766D01*
X30471187Y-24396611D01*
X30435410Y-24389116D01*
X30400235Y-24379090D01*
X30365772Y-24366344D01*
X30348842Y-24358892D01*
X30332132Y-24350688D01*
X30315656Y-24341710D01*
X30299426Y-24331933D01*
X30283458Y-24321333D01*
X30267765Y-24309888D01*
X30252361Y-24297572D01*
X30237260Y-24284363D01*
X30215244Y-24263783D01*
X30195258Y-24243510D01*
X30177245Y-24223505D01*
X30161145Y-24203728D01*
X30146899Y-24184139D01*
X30134448Y-24164697D01*
X30123735Y-24145363D01*
X30114698Y-24126097D01*
X30107281Y-24106859D01*
X30101424Y-24087608D01*
X30097067Y-24068305D01*
X30094153Y-24048909D01*
X30092622Y-24029381D01*
X30092416Y-24009681D01*
X30093475Y-23989768D01*
X30095741Y-23969602D01*
X30099155Y-23949144D01*
X30103657Y-23928353D01*
X30115694Y-23885614D01*
X30131379Y-23841064D01*
X30150243Y-23794384D01*
X30195621Y-23693349D01*
X30248060Y-23579948D01*
X30249960Y-23574688D01*
X30251127Y-23569533D01*
X30251607Y-23564477D01*
X30251444Y-23559515D01*
X30250680Y-23554639D01*
X30249361Y-23549844D01*
X30247531Y-23545124D01*
X30245233Y-23540473D01*
X30242511Y-23535886D01*
X30239410Y-23531356D01*
X30235974Y-23526877D01*
X30232246Y-23522444D01*
X30224092Y-23513691D01*
X30215301Y-23505048D01*
X30197216Y-23487906D01*
X30188626Y-23479311D01*
X30180809Y-23470637D01*
X30177299Y-23466255D01*
X30174115Y-23461837D01*
X30171300Y-23457374D01*
X30168898Y-23452862D01*
X30166953Y-23448295D01*
X30165509Y-23443667D01*
X30164611Y-23438972D01*
X30164301Y-23434203D01*
X30167131Y-23398248D01*
X30174461Y-23363758D01*
X30186074Y-23330726D01*
X30201754Y-23299145D01*
X30221283Y-23269010D01*
X30244443Y-23240312D01*
X30271019Y-23213048D01*
X30300791Y-23187208D01*
X30333545Y-23162788D01*
X30369061Y-23139782D01*
X30447514Y-23097981D01*
X30534413Y-23061754D01*
X30628020Y-23031051D01*
X30726599Y-23005819D01*
X30828411Y-22986008D01*
X30931720Y-22971565D01*
X31034787Y-22962440D01*
X31135875Y-22958580D01*
X31233246Y-22959935D01*
X26477073Y-23586850D02*
X26486857Y-23601533D01*
X26508612Y-23629993D01*
X26533059Y-23657377D01*
X26559928Y-23683844D01*
X26588950Y-23709552D01*
X26619856Y-23734659D01*
X26652377Y-23759323D01*
X26686243Y-23783702D01*
X26829784Y-23881536D01*
X26902631Y-23932858D01*
X26938381Y-23959673D01*
X26973324Y-23987469D01*
X26990096Y-24001994D01*
X27006461Y-24017673D01*
X27022408Y-24034410D01*
X27037927Y-24052111D01*
X27067636Y-24090020D01*
X27095500Y-24130638D01*
X27121433Y-24173201D01*
X27145347Y-24216946D01*
X27167156Y-24261110D01*
X27186772Y-24304930D01*
X27204109Y-24347643D01*
X27219079Y-24388486D01*
X27231595Y-24426696D01*
X27241570Y-24461511D01*
X27248918Y-24492166D01*
X27253551Y-24517898D01*
X27255382Y-24537946D01*
X27255220Y-24545599D01*
X27254324Y-24551545D01*
X27251978Y-24556156D01*
X27249010Y-24559899D01*
X27245449Y-24562826D01*
X27241321Y-24564987D01*
X27236655Y-24566432D01*
X27231479Y-24567212D01*
X27225820Y-24567378D01*
X27219706Y-24566979D01*
X27206222Y-24564689D01*
X27191251Y-24560747D01*
X27175013Y-24555555D01*
X27157730Y-24549517D01*
X27120917Y-24536517D01*
X27101829Y-24530361D01*
X27082583Y-24524973D01*
X27063401Y-24520754D01*
X27044503Y-24518110D01*
X27035230Y-24517504D01*
X27026112Y-24517442D01*
X27017176Y-24517976D01*
X27008449Y-24519155D01*
X27000219Y-24521399D01*
X26992731Y-24524550D01*
X26985952Y-24528550D01*
X26979847Y-24533340D01*
X26974383Y-24538865D01*
X26969527Y-24545065D01*
X26965244Y-24551882D01*
X26961502Y-24559260D01*
X26958267Y-24567139D01*
X26955504Y-24575463D01*
X26953181Y-24584173D01*
X26951263Y-24593212D01*
X26948511Y-24612045D01*
X26946977Y-24631498D01*
X26946393Y-24651109D01*
X26946491Y-24670416D01*
X26947651Y-24706267D01*
X26948306Y-24735349D01*
X26947772Y-24746196D01*
X26946303Y-24753963D01*
X26943628Y-24755744D01*
X26940674Y-24756574D01*
X26937444Y-24756512D01*
X26933944Y-24755619D01*
X26930179Y-24753954D01*
X26926154Y-24751580D01*
X26917342Y-24744939D01*
X26907549Y-24736180D01*
X26896814Y-24725784D01*
X26872676Y-24702010D01*
X26859352Y-24689598D01*
X26845245Y-24677478D01*
X26830394Y-24666134D01*
X26822702Y-24660902D01*
X26814838Y-24656046D01*
X26806809Y-24651624D01*
X26798618Y-24647698D01*
X26790271Y-24644327D01*
X26781772Y-24641572D01*
X26773127Y-24639493D01*
X26764340Y-24638150D01*
X26755417Y-24637604D01*
X26746363Y-24637914D01*
X26737264Y-24639400D01*
X26728697Y-24641791D01*
X26720641Y-24645028D01*
X26713074Y-24649054D01*
X26705973Y-24653810D01*
X26699318Y-24659236D01*
X26693087Y-24665273D01*
X26687257Y-24671864D01*
X26681808Y-24678948D01*
X26676716Y-24686468D01*
X26671961Y-24694365D01*
X26667521Y-24702579D01*
X26659497Y-24719725D01*
X26652470Y-24737437D01*
X26646267Y-24755244D01*
X26640713Y-24772675D01*
X26630855Y-24804529D01*
X26626203Y-24818012D01*
X26621504Y-24829237D01*
X26619082Y-24833856D01*
X26616583Y-24837735D01*
X26613985Y-24840814D01*
X26611266Y-24843035D01*
X26607363Y-24844998D01*
X26603250Y-24845392D01*
X26598923Y-24844326D01*
X26594379Y-24841907D01*
X26589613Y-24838242D01*
X26584621Y-24833440D01*
X26573945Y-24820853D01*
X26521426Y-24746548D01*
X26505685Y-24726292D01*
X26488834Y-24707087D01*
X26479984Y-24698148D01*
X26470844Y-24689796D01*
X26461412Y-24682137D01*
X26451683Y-24675280D01*
X26441653Y-24669332D01*
X26431318Y-24664401D01*
X26420675Y-24660594D01*
X26409719Y-24658021D01*
X26398446Y-24656787D01*
X26386853Y-24657002D01*
X26374935Y-24658772D01*
X26362688Y-24662205D01*
X26350842Y-24666938D01*
X26339606Y-24672490D01*
X26328955Y-24678794D01*
X26318867Y-24685783D01*
X26309316Y-24693392D01*
X26300280Y-24701552D01*
X26291735Y-24710197D01*
X26283657Y-24719262D01*
X26276023Y-24728678D01*
X26268807Y-24738379D01*
X26255540Y-24758370D01*
X26243667Y-24778701D01*
X26232996Y-24798839D01*
X26214505Y-24836398D01*
X26206304Y-24852751D01*
X26198547Y-24866776D01*
X26194775Y-24872749D01*
X26191042Y-24877939D01*
X26187326Y-24882280D01*
X26183602Y-24885705D01*
X26179846Y-24888148D01*
X26176034Y-24889541D01*
X26172144Y-24889819D01*
X26168151Y-24888914D01*
X26146364Y-24877254D01*
X26126055Y-24861174D01*
X26107166Y-24840934D01*
X26089639Y-24816795D01*
X26073416Y-24789016D01*
X26058440Y-24757859D01*
X26031995Y-24686450D01*
X26009840Y-24604652D01*
X25991513Y-24514547D01*
X25976550Y-24418220D01*
X25964489Y-24317753D01*
X25947218Y-24112736D01*
X25935994Y-23916164D01*
X25927113Y-23744704D01*
X25916870Y-23615024D01*
X25957136Y-23617682D01*
X25996849Y-23619588D01*
X26035961Y-23620752D01*
X26074424Y-23621180D01*
X26112191Y-23620881D01*
X26149213Y-23619862D01*
X26185444Y-23618132D01*
X26220835Y-23615698D01*
X26255341Y-23612568D01*
X26288912Y-23608750D01*
X26321501Y-23604252D01*
X26353061Y-23599083D01*
X26383545Y-23593248D01*
X26412905Y-23586758D01*
X26441093Y-23579619D01*
X26468062Y-23571840D01*
X26477073Y-23586850D01*
X24436462Y-21901964D02*
X24455585Y-22019588D01*
X24482006Y-22132653D01*
X24515600Y-22240839D01*
X24556242Y-22343826D01*
X24603807Y-22441297D01*
X24658171Y-22532931D01*
X24719208Y-22618410D01*
X24752190Y-22658741D01*
X24786793Y-22697414D01*
X24823003Y-22734388D01*
X24860802Y-22769624D01*
X24900177Y-22803082D01*
X24941110Y-22834721D01*
X24983587Y-22864503D01*
X25027592Y-22892387D01*
X25073109Y-22918333D01*
X25120123Y-22942301D01*
X25168618Y-22964252D01*
X25218578Y-22984145D01*
X25269988Y-23001941D01*
X25322833Y-23017599D01*
X25377096Y-23031081D01*
X25432762Y-23042345D01*
X25432761Y-23042354D01*
X25392877Y-23134342D01*
X25357442Y-23225374D01*
X25299285Y-23404422D01*
X25257031Y-23579204D01*
X25229418Y-23749428D01*
X25215186Y-23914801D01*
X25213074Y-24075031D01*
X25221820Y-24229825D01*
X25240165Y-24378890D01*
X25266847Y-24521933D01*
X25300605Y-24658663D01*
X25340178Y-24788785D01*
X25384307Y-24912009D01*
X25431728Y-25028040D01*
X25481183Y-25136586D01*
X25581147Y-25330053D01*
X25615455Y-25395528D01*
X25650587Y-25469238D01*
X25684966Y-25550143D01*
X25717009Y-25637206D01*
X25745138Y-25729388D01*
X25767774Y-25825650D01*
X25783335Y-25924954D01*
X25787970Y-25975422D01*
X25790243Y-26026261D01*
X25789959Y-26077341D01*
X25786918Y-26128533D01*
X25780924Y-26179706D01*
X25771780Y-26230731D01*
X25759287Y-26281478D01*
X25743249Y-26331817D01*
X25723467Y-26381618D01*
X25699745Y-26430752D01*
X25671885Y-26479088D01*
X25639689Y-26526497D01*
X25602960Y-26572849D01*
X25561501Y-26618014D01*
X25515114Y-26661863D01*
X25463601Y-26704265D01*
X25406766Y-26745091D01*
X25344410Y-26784211D01*
X25306759Y-26804661D01*
X25267736Y-26822621D01*
X25227438Y-26838140D01*
X25185961Y-26851265D01*
X25143402Y-26862044D01*
X25099857Y-26870522D01*
X25055424Y-26876749D01*
X25010199Y-26880770D01*
X24964278Y-26882634D01*
X24917759Y-26882389D01*
X24823311Y-26875756D01*
X24727628Y-26861250D01*
X24631483Y-26839251D01*
X24535650Y-26810136D01*
X24440902Y-26774286D01*
X24348012Y-26732077D01*
X24257754Y-26683890D01*
X24170901Y-26630102D01*
X24088226Y-26571093D01*
X24010503Y-26507241D01*
X23938505Y-26438925D01*
X23884969Y-26381428D01*
X23834230Y-26321733D01*
X23786237Y-26259987D01*
X23740939Y-26196334D01*
X23658225Y-26063892D01*
X23585679Y-25925573D01*
X23522893Y-25782544D01*
X23469459Y-25635969D01*
X23424969Y-25487015D01*
X23389015Y-25336846D01*
X23361190Y-25186628D01*
X23341084Y-25037527D01*
X23328289Y-24890709D01*
X23322399Y-24747338D01*
X23323004Y-24608581D01*
X23329697Y-24475603D01*
X23342069Y-24349569D01*
X23359712Y-24231646D01*
X23410766Y-23984238D01*
X23469114Y-23756457D01*
X23533638Y-23546788D01*
X23603218Y-23353716D01*
X23676732Y-23175727D01*
X23753061Y-23011306D01*
X23831086Y-22858938D01*
X23909685Y-22717108D01*
X24207428Y-22224882D01*
X24272100Y-22113026D01*
X24330626Y-22002619D01*
X24381887Y-21892148D01*
X24424761Y-21780099D01*
X24436462Y-21901964D01*
D13*
X37595629Y-8863780D02*
X37595629Y-7593780D01*
X37595629Y-7593780D02*
X37172295Y-8500923D01*
X37172295Y-8500923D02*
X36748962Y-7593780D01*
X36748962Y-7593780D02*
X36748962Y-8863780D01*
X35599914Y-8863780D02*
X35599914Y-8198542D01*
X35599914Y-8198542D02*
X35660390Y-8077589D01*
X35660390Y-8077589D02*
X35781342Y-8017113D01*
X35781342Y-8017113D02*
X36023247Y-8017113D01*
X36023247Y-8017113D02*
X36144200Y-8077589D01*
X35599914Y-8803304D02*
X35720866Y-8863780D01*
X35720866Y-8863780D02*
X36023247Y-8863780D01*
X36023247Y-8863780D02*
X36144200Y-8803304D01*
X36144200Y-8803304D02*
X36204676Y-8682351D01*
X36204676Y-8682351D02*
X36204676Y-8561399D01*
X36204676Y-8561399D02*
X36144200Y-8440446D01*
X36144200Y-8440446D02*
X36023247Y-8379970D01*
X36023247Y-8379970D02*
X35720866Y-8379970D01*
X35720866Y-8379970D02*
X35599914Y-8319494D01*
X34813723Y-8863780D02*
X34934675Y-8803304D01*
X34934675Y-8803304D02*
X34995152Y-8682351D01*
X34995152Y-8682351D02*
X34995152Y-7593780D01*
X33846104Y-8803304D02*
X33967056Y-8863780D01*
X33967056Y-8863780D02*
X34208961Y-8863780D01*
X34208961Y-8863780D02*
X34329914Y-8803304D01*
X34329914Y-8803304D02*
X34390390Y-8682351D01*
X34390390Y-8682351D02*
X34390390Y-8198542D01*
X34390390Y-8198542D02*
X34329914Y-8077589D01*
X34329914Y-8077589D02*
X34208961Y-8017113D01*
X34208961Y-8017113D02*
X33967056Y-8017113D01*
X33967056Y-8017113D02*
X33846104Y-8077589D01*
X33846104Y-8077589D02*
X33785628Y-8198542D01*
X33785628Y-8198542D02*
X33785628Y-8319494D01*
X33785628Y-8319494D02*
X34390390Y-8440446D01*
X32092295Y-8863780D02*
X32213247Y-8803304D01*
X32213247Y-8803304D02*
X32273724Y-8742827D01*
X32273724Y-8742827D02*
X32334200Y-8621875D01*
X32334200Y-8621875D02*
X32334200Y-8259018D01*
X32334200Y-8259018D02*
X32273724Y-8138065D01*
X32273724Y-8138065D02*
X32213247Y-8077589D01*
X32213247Y-8077589D02*
X32092295Y-8017113D01*
X32092295Y-8017113D02*
X31910866Y-8017113D01*
X31910866Y-8017113D02*
X31789914Y-8077589D01*
X31789914Y-8077589D02*
X31729438Y-8138065D01*
X31729438Y-8138065D02*
X31668962Y-8259018D01*
X31668962Y-8259018D02*
X31668962Y-8621875D01*
X31668962Y-8621875D02*
X31729438Y-8742827D01*
X31729438Y-8742827D02*
X31789914Y-8803304D01*
X31789914Y-8803304D02*
X31910866Y-8863780D01*
X31910866Y-8863780D02*
X32092295Y-8863780D01*
X30580390Y-8017113D02*
X30580390Y-8863780D01*
X31124676Y-8017113D02*
X31124676Y-8682351D01*
X31124676Y-8682351D02*
X31064199Y-8803304D01*
X31064199Y-8803304D02*
X30943247Y-8863780D01*
X30943247Y-8863780D02*
X30761818Y-8863780D01*
X30761818Y-8863780D02*
X30640866Y-8803304D01*
X30640866Y-8803304D02*
X30580390Y-8742827D01*
X30157056Y-8017113D02*
X29673247Y-8017113D01*
X29975628Y-7593780D02*
X29975628Y-8682351D01*
X29975628Y-8682351D02*
X29915151Y-8803304D01*
X29915151Y-8803304D02*
X29794199Y-8863780D01*
X29794199Y-8863780D02*
X29673247Y-8863780D01*
X29249914Y-8017113D02*
X29249914Y-9287113D01*
X29249914Y-8077589D02*
X29128961Y-8017113D01*
X29128961Y-8017113D02*
X28887056Y-8017113D01*
X28887056Y-8017113D02*
X28766104Y-8077589D01*
X28766104Y-8077589D02*
X28705628Y-8138065D01*
X28705628Y-8138065D02*
X28645152Y-8259018D01*
X28645152Y-8259018D02*
X28645152Y-8621875D01*
X28645152Y-8621875D02*
X28705628Y-8742827D01*
X28705628Y-8742827D02*
X28766104Y-8803304D01*
X28766104Y-8803304D02*
X28887056Y-8863780D01*
X28887056Y-8863780D02*
X29128961Y-8863780D01*
X29128961Y-8863780D02*
X29249914Y-8803304D01*
X27556580Y-8017113D02*
X27556580Y-8863780D01*
X28100866Y-8017113D02*
X28100866Y-8682351D01*
X28100866Y-8682351D02*
X28040389Y-8803304D01*
X28040389Y-8803304D02*
X27919437Y-8863780D01*
X27919437Y-8863780D02*
X27738008Y-8863780D01*
X27738008Y-8863780D02*
X27617056Y-8803304D01*
X27617056Y-8803304D02*
X27556580Y-8742827D01*
X27133246Y-8017113D02*
X26649437Y-8017113D01*
X26951818Y-7593780D02*
X26951818Y-8682351D01*
X26951818Y-8682351D02*
X26891341Y-8803304D01*
X26891341Y-8803304D02*
X26770389Y-8863780D01*
X26770389Y-8863780D02*
X26649437Y-8863780D01*
X26286580Y-8803304D02*
X26165627Y-8863780D01*
X26165627Y-8863780D02*
X25923723Y-8863780D01*
X25923723Y-8863780D02*
X25802770Y-8803304D01*
X25802770Y-8803304D02*
X25742294Y-8682351D01*
X25742294Y-8682351D02*
X25742294Y-8621875D01*
X25742294Y-8621875D02*
X25802770Y-8500923D01*
X25802770Y-8500923D02*
X25923723Y-8440446D01*
X25923723Y-8440446D02*
X26105151Y-8440446D01*
X26105151Y-8440446D02*
X26226104Y-8379970D01*
X26226104Y-8379970D02*
X26286580Y-8259018D01*
X26286580Y-8259018D02*
X26286580Y-8198542D01*
X26286580Y-8198542D02*
X26226104Y-8077589D01*
X26226104Y-8077589D02*
X26105151Y-8017113D01*
X26105151Y-8017113D02*
X25923723Y-8017113D01*
X25923723Y-8017113D02*
X25802770Y-8077589D01*
X23867532Y-9347589D02*
X23928009Y-9287113D01*
X23928009Y-9287113D02*
X24048961Y-9105684D01*
X24048961Y-9105684D02*
X24109437Y-8984732D01*
X24109437Y-8984732D02*
X24169913Y-8803304D01*
X24169913Y-8803304D02*
X24230390Y-8500923D01*
X24230390Y-8500923D02*
X24230390Y-8259018D01*
X24230390Y-8259018D02*
X24169913Y-7956637D01*
X24169913Y-7956637D02*
X24109437Y-7775208D01*
X24109437Y-7775208D02*
X24048961Y-7654256D01*
X24048961Y-7654256D02*
X23928009Y-7472827D01*
X23928009Y-7472827D02*
X23867532Y-7412351D01*
X23383723Y-8863780D02*
X23383723Y-7593780D01*
X23383723Y-7593780D02*
X22658008Y-8863780D01*
X22658008Y-8863780D02*
X22658008Y-7593780D01*
X21327532Y-8742827D02*
X21388008Y-8803304D01*
X21388008Y-8803304D02*
X21569437Y-8863780D01*
X21569437Y-8863780D02*
X21690389Y-8863780D01*
X21690389Y-8863780D02*
X21871818Y-8803304D01*
X21871818Y-8803304D02*
X21992770Y-8682351D01*
X21992770Y-8682351D02*
X22053247Y-8561399D01*
X22053247Y-8561399D02*
X22113723Y-8319494D01*
X22113723Y-8319494D02*
X22113723Y-8138065D01*
X22113723Y-8138065D02*
X22053247Y-7896161D01*
X22053247Y-7896161D02*
X21992770Y-7775208D01*
X21992770Y-7775208D02*
X21871818Y-7654256D01*
X21871818Y-7654256D02*
X21690389Y-7593780D01*
X21690389Y-7593780D02*
X21569437Y-7593780D01*
X21569437Y-7593780D02*
X21388008Y-7654256D01*
X21388008Y-7654256D02*
X21327532Y-7714732D01*
X20904199Y-7593780D02*
X20118008Y-7593780D01*
X20118008Y-7593780D02*
X20541342Y-8077589D01*
X20541342Y-8077589D02*
X20359913Y-8077589D01*
X20359913Y-8077589D02*
X20238961Y-8138065D01*
X20238961Y-8138065D02*
X20178485Y-8198542D01*
X20178485Y-8198542D02*
X20118008Y-8319494D01*
X20118008Y-8319494D02*
X20118008Y-8621875D01*
X20118008Y-8621875D02*
X20178485Y-8742827D01*
X20178485Y-8742827D02*
X20238961Y-8803304D01*
X20238961Y-8803304D02*
X20359913Y-8863780D01*
X20359913Y-8863780D02*
X20722770Y-8863780D01*
X20722770Y-8863780D02*
X20843723Y-8803304D01*
X20843723Y-8803304D02*
X20904199Y-8742827D01*
X19573723Y-8863780D02*
X19573723Y-7593780D01*
X19573723Y-7593780D02*
X19150389Y-8500923D01*
X19150389Y-8500923D02*
X18727056Y-7593780D01*
X18727056Y-7593780D02*
X18727056Y-8863780D01*
X18182770Y-8500923D02*
X17578008Y-8500923D01*
X18303722Y-8863780D02*
X17880389Y-7593780D01*
X17880389Y-7593780D02*
X17457055Y-8863780D01*
X17094199Y-8500923D02*
X16489437Y-8500923D01*
X17215151Y-8863780D02*
X16791818Y-7593780D01*
X16791818Y-7593780D02*
X16368484Y-8863780D01*
X15945152Y-8863780D02*
X15945152Y-7593780D01*
X15945152Y-8198542D02*
X15219437Y-8198542D01*
X15219437Y-8863780D02*
X15219437Y-7593780D01*
X14735628Y-9347589D02*
X14675152Y-9287113D01*
X14675152Y-9287113D02*
X14554199Y-9105684D01*
X14554199Y-9105684D02*
X14493723Y-8984732D01*
X14493723Y-8984732D02*
X14433247Y-8803304D01*
X14433247Y-8803304D02*
X14372771Y-8500923D01*
X14372771Y-8500923D02*
X14372771Y-8259018D01*
X14372771Y-8259018D02*
X14433247Y-7956637D01*
X14433247Y-7956637D02*
X14493723Y-7775208D01*
X14493723Y-7775208D02*
X14554199Y-7654256D01*
X14554199Y-7654256D02*
X14675152Y-7472827D01*
X14675152Y-7472827D02*
X14735628Y-7412351D01*
X34027534Y-10908409D02*
X34027534Y-10061742D01*
X34027534Y-10182694D02*
X33967057Y-10122218D01*
X33967057Y-10122218D02*
X33846105Y-10061742D01*
X33846105Y-10061742D02*
X33664676Y-10061742D01*
X33664676Y-10061742D02*
X33543724Y-10122218D01*
X33543724Y-10122218D02*
X33483248Y-10243171D01*
X33483248Y-10243171D02*
X33483248Y-10908409D01*
X33483248Y-10243171D02*
X33422772Y-10122218D01*
X33422772Y-10122218D02*
X33301819Y-10061742D01*
X33301819Y-10061742D02*
X33120391Y-10061742D01*
X33120391Y-10061742D02*
X32999438Y-10122218D01*
X32999438Y-10122218D02*
X32938962Y-10243171D01*
X32938962Y-10243171D02*
X32938962Y-10908409D01*
X32152772Y-10908409D02*
X32273724Y-10847933D01*
X32273724Y-10847933D02*
X32334201Y-10787456D01*
X32334201Y-10787456D02*
X32394677Y-10666504D01*
X32394677Y-10666504D02*
X32394677Y-10303647D01*
X32394677Y-10303647D02*
X32334201Y-10182694D01*
X32334201Y-10182694D02*
X32273724Y-10122218D01*
X32273724Y-10122218D02*
X32152772Y-10061742D01*
X32152772Y-10061742D02*
X31971343Y-10061742D01*
X31971343Y-10061742D02*
X31850391Y-10122218D01*
X31850391Y-10122218D02*
X31789915Y-10182694D01*
X31789915Y-10182694D02*
X31729439Y-10303647D01*
X31729439Y-10303647D02*
X31729439Y-10666504D01*
X31729439Y-10666504D02*
X31789915Y-10787456D01*
X31789915Y-10787456D02*
X31850391Y-10847933D01*
X31850391Y-10847933D02*
X31971343Y-10908409D01*
X31971343Y-10908409D02*
X32152772Y-10908409D01*
X30640867Y-10061742D02*
X30640867Y-10908409D01*
X31185153Y-10061742D02*
X31185153Y-10726980D01*
X31185153Y-10726980D02*
X31124676Y-10847933D01*
X31124676Y-10847933D02*
X31003724Y-10908409D01*
X31003724Y-10908409D02*
X30822295Y-10908409D01*
X30822295Y-10908409D02*
X30701343Y-10847933D01*
X30701343Y-10847933D02*
X30640867Y-10787456D01*
X30036105Y-10061742D02*
X30036105Y-10908409D01*
X30036105Y-10182694D02*
X29975628Y-10122218D01*
X29975628Y-10122218D02*
X29854676Y-10061742D01*
X29854676Y-10061742D02*
X29673247Y-10061742D01*
X29673247Y-10061742D02*
X29552295Y-10122218D01*
X29552295Y-10122218D02*
X29491819Y-10243171D01*
X29491819Y-10243171D02*
X29491819Y-10908409D01*
X29068485Y-10061742D02*
X28584676Y-10061742D01*
X28887057Y-9638409D02*
X28887057Y-10726980D01*
X28887057Y-10726980D02*
X28826580Y-10847933D01*
X28826580Y-10847933D02*
X28705628Y-10908409D01*
X28705628Y-10908409D02*
X28584676Y-10908409D01*
X27012295Y-10908409D02*
X27133247Y-10847933D01*
X27133247Y-10847933D02*
X27193724Y-10787456D01*
X27193724Y-10787456D02*
X27254200Y-10666504D01*
X27254200Y-10666504D02*
X27254200Y-10303647D01*
X27254200Y-10303647D02*
X27193724Y-10182694D01*
X27193724Y-10182694D02*
X27133247Y-10122218D01*
X27133247Y-10122218D02*
X27012295Y-10061742D01*
X27012295Y-10061742D02*
X26830866Y-10061742D01*
X26830866Y-10061742D02*
X26709914Y-10122218D01*
X26709914Y-10122218D02*
X26649438Y-10182694D01*
X26649438Y-10182694D02*
X26588962Y-10303647D01*
X26588962Y-10303647D02*
X26588962Y-10666504D01*
X26588962Y-10666504D02*
X26649438Y-10787456D01*
X26649438Y-10787456D02*
X26709914Y-10847933D01*
X26709914Y-10847933D02*
X26830866Y-10908409D01*
X26830866Y-10908409D02*
X27012295Y-10908409D01*
X26044676Y-10061742D02*
X26044676Y-10908409D01*
X26044676Y-10182694D02*
X25984199Y-10122218D01*
X25984199Y-10122218D02*
X25863247Y-10061742D01*
X25863247Y-10061742D02*
X25681818Y-10061742D01*
X25681818Y-10061742D02*
X25560866Y-10122218D01*
X25560866Y-10122218D02*
X25500390Y-10243171D01*
X25500390Y-10243171D02*
X25500390Y-10908409D01*
X23928009Y-10908409D02*
X23928009Y-9638409D01*
X23928009Y-10122218D02*
X23807056Y-10061742D01*
X23807056Y-10061742D02*
X23565151Y-10061742D01*
X23565151Y-10061742D02*
X23444199Y-10122218D01*
X23444199Y-10122218D02*
X23383723Y-10182694D01*
X23383723Y-10182694D02*
X23323247Y-10303647D01*
X23323247Y-10303647D02*
X23323247Y-10666504D01*
X23323247Y-10666504D02*
X23383723Y-10787456D01*
X23383723Y-10787456D02*
X23444199Y-10847933D01*
X23444199Y-10847933D02*
X23565151Y-10908409D01*
X23565151Y-10908409D02*
X23807056Y-10908409D01*
X23807056Y-10908409D02*
X23928009Y-10847933D01*
X22597532Y-10908409D02*
X22718484Y-10847933D01*
X22718484Y-10847933D02*
X22778961Y-10787456D01*
X22778961Y-10787456D02*
X22839437Y-10666504D01*
X22839437Y-10666504D02*
X22839437Y-10303647D01*
X22839437Y-10303647D02*
X22778961Y-10182694D01*
X22778961Y-10182694D02*
X22718484Y-10122218D01*
X22718484Y-10122218D02*
X22597532Y-10061742D01*
X22597532Y-10061742D02*
X22416103Y-10061742D01*
X22416103Y-10061742D02*
X22295151Y-10122218D01*
X22295151Y-10122218D02*
X22234675Y-10182694D01*
X22234675Y-10182694D02*
X22174199Y-10303647D01*
X22174199Y-10303647D02*
X22174199Y-10666504D01*
X22174199Y-10666504D02*
X22234675Y-10787456D01*
X22234675Y-10787456D02*
X22295151Y-10847933D01*
X22295151Y-10847933D02*
X22416103Y-10908409D01*
X22416103Y-10908409D02*
X22597532Y-10908409D01*
X21811341Y-10061742D02*
X21327532Y-10061742D01*
X21629913Y-9638409D02*
X21629913Y-10726980D01*
X21629913Y-10726980D02*
X21569436Y-10847933D01*
X21569436Y-10847933D02*
X21448484Y-10908409D01*
X21448484Y-10908409D02*
X21327532Y-10908409D01*
X21085627Y-10061742D02*
X20601818Y-10061742D01*
X20904199Y-9638409D02*
X20904199Y-10726980D01*
X20904199Y-10726980D02*
X20843722Y-10847933D01*
X20843722Y-10847933D02*
X20722770Y-10908409D01*
X20722770Y-10908409D02*
X20601818Y-10908409D01*
X19997056Y-10908409D02*
X20118008Y-10847933D01*
X20118008Y-10847933D02*
X20178485Y-10787456D01*
X20178485Y-10787456D02*
X20238961Y-10666504D01*
X20238961Y-10666504D02*
X20238961Y-10303647D01*
X20238961Y-10303647D02*
X20178485Y-10182694D01*
X20178485Y-10182694D02*
X20118008Y-10122218D01*
X20118008Y-10122218D02*
X19997056Y-10061742D01*
X19997056Y-10061742D02*
X19815627Y-10061742D01*
X19815627Y-10061742D02*
X19694675Y-10122218D01*
X19694675Y-10122218D02*
X19634199Y-10182694D01*
X19634199Y-10182694D02*
X19573723Y-10303647D01*
X19573723Y-10303647D02*
X19573723Y-10666504D01*
X19573723Y-10666504D02*
X19634199Y-10787456D01*
X19634199Y-10787456D02*
X19694675Y-10847933D01*
X19694675Y-10847933D02*
X19815627Y-10908409D01*
X19815627Y-10908409D02*
X19997056Y-10908409D01*
X19029437Y-10908409D02*
X19029437Y-10061742D01*
X19029437Y-10182694D02*
X18968960Y-10122218D01*
X18968960Y-10122218D02*
X18848008Y-10061742D01*
X18848008Y-10061742D02*
X18666579Y-10061742D01*
X18666579Y-10061742D02*
X18545627Y-10122218D01*
X18545627Y-10122218D02*
X18485151Y-10243171D01*
X18485151Y-10243171D02*
X18485151Y-10908409D01*
X18485151Y-10243171D02*
X18424675Y-10122218D01*
X18424675Y-10122218D02*
X18303722Y-10061742D01*
X18303722Y-10061742D02*
X18122294Y-10061742D01*
X18122294Y-10061742D02*
X18001341Y-10122218D01*
X18001341Y-10122218D02*
X17940865Y-10243171D01*
X17940865Y-10243171D02*
X17940865Y-10908409D01*
X44227448Y-15175609D02*
X43985543Y-15175609D01*
X43985543Y-15175609D02*
X43864591Y-15236085D01*
X43864591Y-15236085D02*
X43743638Y-15357037D01*
X43743638Y-15357037D02*
X43683162Y-15598942D01*
X43683162Y-15598942D02*
X43683162Y-16022275D01*
X43683162Y-16022275D02*
X43743638Y-16264180D01*
X43743638Y-16264180D02*
X43864591Y-16385133D01*
X43864591Y-16385133D02*
X43985543Y-16445609D01*
X43985543Y-16445609D02*
X44227448Y-16445609D01*
X44227448Y-16445609D02*
X44348400Y-16385133D01*
X44348400Y-16385133D02*
X44469353Y-16264180D01*
X44469353Y-16264180D02*
X44529829Y-16022275D01*
X44529829Y-16022275D02*
X44529829Y-15598942D01*
X44529829Y-15598942D02*
X44469353Y-15357037D01*
X44469353Y-15357037D02*
X44348400Y-15236085D01*
X44348400Y-15236085D02*
X44227448Y-15175609D01*
X43138877Y-15175609D02*
X43138877Y-16203704D01*
X43138877Y-16203704D02*
X43078400Y-16324656D01*
X43078400Y-16324656D02*
X43017924Y-16385133D01*
X43017924Y-16385133D02*
X42896972Y-16445609D01*
X42896972Y-16445609D02*
X42655067Y-16445609D01*
X42655067Y-16445609D02*
X42534115Y-16385133D01*
X42534115Y-16385133D02*
X42473638Y-16324656D01*
X42473638Y-16324656D02*
X42413162Y-16203704D01*
X42413162Y-16203704D02*
X42413162Y-15175609D01*
X41989829Y-15175609D02*
X41264115Y-15175609D01*
X41626972Y-16445609D02*
X41626972Y-15175609D01*
X39026496Y-15175609D02*
X38240305Y-15175609D01*
X38240305Y-15175609D02*
X38663639Y-15659418D01*
X38663639Y-15659418D02*
X38482210Y-15659418D01*
X38482210Y-15659418D02*
X38361258Y-15719894D01*
X38361258Y-15719894D02*
X38300782Y-15780371D01*
X38300782Y-15780371D02*
X38240305Y-15901323D01*
X38240305Y-15901323D02*
X38240305Y-16203704D01*
X38240305Y-16203704D02*
X38300782Y-16324656D01*
X38300782Y-16324656D02*
X38361258Y-16385133D01*
X38361258Y-16385133D02*
X38482210Y-16445609D01*
X38482210Y-16445609D02*
X38845067Y-16445609D01*
X38845067Y-16445609D02*
X38966020Y-16385133D01*
X38966020Y-16385133D02*
X39026496Y-16324656D01*
X99108380Y-15175609D02*
X98866475Y-15175609D01*
X98866475Y-15175609D02*
X98745523Y-15236085D01*
X98745523Y-15236085D02*
X98624570Y-15357037D01*
X98624570Y-15357037D02*
X98564094Y-15598942D01*
X98564094Y-15598942D02*
X98564094Y-16022275D01*
X98564094Y-16022275D02*
X98624570Y-16264180D01*
X98624570Y-16264180D02*
X98745523Y-16385133D01*
X98745523Y-16385133D02*
X98866475Y-16445609D01*
X98866475Y-16445609D02*
X99108380Y-16445609D01*
X99108380Y-16445609D02*
X99229332Y-16385133D01*
X99229332Y-16385133D02*
X99350285Y-16264180D01*
X99350285Y-16264180D02*
X99410761Y-16022275D01*
X99410761Y-16022275D02*
X99410761Y-15598942D01*
X99410761Y-15598942D02*
X99350285Y-15357037D01*
X99350285Y-15357037D02*
X99229332Y-15236085D01*
X99229332Y-15236085D02*
X99108380Y-15175609D01*
X98019809Y-15175609D02*
X98019809Y-16203704D01*
X98019809Y-16203704D02*
X97959332Y-16324656D01*
X97959332Y-16324656D02*
X97898856Y-16385133D01*
X97898856Y-16385133D02*
X97777904Y-16445609D01*
X97777904Y-16445609D02*
X97535999Y-16445609D01*
X97535999Y-16445609D02*
X97415047Y-16385133D01*
X97415047Y-16385133D02*
X97354570Y-16324656D01*
X97354570Y-16324656D02*
X97294094Y-16203704D01*
X97294094Y-16203704D02*
X97294094Y-15175609D01*
X96870761Y-15175609D02*
X96145047Y-15175609D01*
X96507904Y-16445609D02*
X96507904Y-15175609D01*
X93121237Y-16445609D02*
X93846952Y-16445609D01*
X93484095Y-16445609D02*
X93484095Y-15175609D01*
X93484095Y-15175609D02*
X93605047Y-15357037D01*
X93605047Y-15357037D02*
X93725999Y-15477990D01*
X93725999Y-15477990D02*
X93846952Y-15538466D01*
X71667914Y-15175609D02*
X71426009Y-15175609D01*
X71426009Y-15175609D02*
X71305057Y-15236085D01*
X71305057Y-15236085D02*
X71184104Y-15357037D01*
X71184104Y-15357037D02*
X71123628Y-15598942D01*
X71123628Y-15598942D02*
X71123628Y-16022275D01*
X71123628Y-16022275D02*
X71184104Y-16264180D01*
X71184104Y-16264180D02*
X71305057Y-16385133D01*
X71305057Y-16385133D02*
X71426009Y-16445609D01*
X71426009Y-16445609D02*
X71667914Y-16445609D01*
X71667914Y-16445609D02*
X71788866Y-16385133D01*
X71788866Y-16385133D02*
X71909819Y-16264180D01*
X71909819Y-16264180D02*
X71970295Y-16022275D01*
X71970295Y-16022275D02*
X71970295Y-15598942D01*
X71970295Y-15598942D02*
X71909819Y-15357037D01*
X71909819Y-15357037D02*
X71788866Y-15236085D01*
X71788866Y-15236085D02*
X71667914Y-15175609D01*
X70579343Y-15175609D02*
X70579343Y-16203704D01*
X70579343Y-16203704D02*
X70518866Y-16324656D01*
X70518866Y-16324656D02*
X70458390Y-16385133D01*
X70458390Y-16385133D02*
X70337438Y-16445609D01*
X70337438Y-16445609D02*
X70095533Y-16445609D01*
X70095533Y-16445609D02*
X69974581Y-16385133D01*
X69974581Y-16385133D02*
X69914104Y-16324656D01*
X69914104Y-16324656D02*
X69853628Y-16203704D01*
X69853628Y-16203704D02*
X69853628Y-15175609D01*
X69430295Y-15175609D02*
X68704581Y-15175609D01*
X69067438Y-16445609D02*
X69067438Y-15175609D01*
X66406486Y-15296561D02*
X66346010Y-15236085D01*
X66346010Y-15236085D02*
X66225057Y-15175609D01*
X66225057Y-15175609D02*
X65922676Y-15175609D01*
X65922676Y-15175609D02*
X65801724Y-15236085D01*
X65801724Y-15236085D02*
X65741248Y-15296561D01*
X65741248Y-15296561D02*
X65680771Y-15417513D01*
X65680771Y-15417513D02*
X65680771Y-15538466D01*
X65680771Y-15538466D02*
X65741248Y-15719894D01*
X65741248Y-15719894D02*
X66466962Y-16445609D01*
X66466962Y-16445609D02*
X65680771Y-16445609D01*
D14*
X96449241Y-8594660D02*
X96582289Y-8528136D01*
X96582289Y-8528136D02*
X96648812Y-8461612D01*
X96648812Y-8461612D02*
X96715336Y-8328564D01*
X96715336Y-8328564D02*
X96715336Y-8262041D01*
X96715336Y-8262041D02*
X96648812Y-8128993D01*
X96648812Y-8128993D02*
X96582289Y-8062469D01*
X96582289Y-8062469D02*
X96449241Y-7995945D01*
X96449241Y-7995945D02*
X96183146Y-7995945D01*
X96183146Y-7995945D02*
X96050098Y-8062469D01*
X96050098Y-8062469D02*
X95983574Y-8128993D01*
X95983574Y-8128993D02*
X95917051Y-8262041D01*
X95917051Y-8262041D02*
X95917051Y-8328564D01*
X95917051Y-8328564D02*
X95983574Y-8461612D01*
X95983574Y-8461612D02*
X96050098Y-8528136D01*
X96050098Y-8528136D02*
X96183146Y-8594660D01*
X96183146Y-8594660D02*
X96449241Y-8594660D01*
X96449241Y-8594660D02*
X96582289Y-8661183D01*
X96582289Y-8661183D02*
X96648812Y-8727707D01*
X96648812Y-8727707D02*
X96715336Y-8860755D01*
X96715336Y-8860755D02*
X96715336Y-9126850D01*
X96715336Y-9126850D02*
X96648812Y-9259898D01*
X96648812Y-9259898D02*
X96582289Y-9326422D01*
X96582289Y-9326422D02*
X96449241Y-9392945D01*
X96449241Y-9392945D02*
X96183146Y-9392945D01*
X96183146Y-9392945D02*
X96050098Y-9326422D01*
X96050098Y-9326422D02*
X95983574Y-9259898D01*
X95983574Y-9259898D02*
X95917051Y-9126850D01*
X95917051Y-9126850D02*
X95917051Y-8860755D01*
X95917051Y-8860755D02*
X95983574Y-8727707D01*
X95983574Y-8727707D02*
X96050098Y-8661183D01*
X96050098Y-8661183D02*
X96183146Y-8594660D01*
X95451384Y-9392945D02*
X94719622Y-8461612D01*
X95451384Y-8461612D02*
X94719622Y-9392945D01*
X93987860Y-8594660D02*
X94120908Y-8528136D01*
X94120908Y-8528136D02*
X94187431Y-8461612D01*
X94187431Y-8461612D02*
X94253955Y-8328564D01*
X94253955Y-8328564D02*
X94253955Y-8262041D01*
X94253955Y-8262041D02*
X94187431Y-8128993D01*
X94187431Y-8128993D02*
X94120908Y-8062469D01*
X94120908Y-8062469D02*
X93987860Y-7995945D01*
X93987860Y-7995945D02*
X93721765Y-7995945D01*
X93721765Y-7995945D02*
X93588717Y-8062469D01*
X93588717Y-8062469D02*
X93522193Y-8128993D01*
X93522193Y-8128993D02*
X93455670Y-8262041D01*
X93455670Y-8262041D02*
X93455670Y-8328564D01*
X93455670Y-8328564D02*
X93522193Y-8461612D01*
X93522193Y-8461612D02*
X93588717Y-8528136D01*
X93588717Y-8528136D02*
X93721765Y-8594660D01*
X93721765Y-8594660D02*
X93987860Y-8594660D01*
X93987860Y-8594660D02*
X94120908Y-8661183D01*
X94120908Y-8661183D02*
X94187431Y-8727707D01*
X94187431Y-8727707D02*
X94253955Y-8860755D01*
X94253955Y-8860755D02*
X94253955Y-9126850D01*
X94253955Y-9126850D02*
X94187431Y-9259898D01*
X94187431Y-9259898D02*
X94120908Y-9326422D01*
X94120908Y-9326422D02*
X93987860Y-9392945D01*
X93987860Y-9392945D02*
X93721765Y-9392945D01*
X93721765Y-9392945D02*
X93588717Y-9326422D01*
X93588717Y-9326422D02*
X93522193Y-9259898D01*
X93522193Y-9259898D02*
X93455670Y-9126850D01*
X93455670Y-9126850D02*
X93455670Y-8860755D01*
X93455670Y-8860755D02*
X93522193Y-8727707D01*
X93522193Y-8727707D02*
X93588717Y-8661183D01*
X93588717Y-8661183D02*
X93721765Y-8594660D01*
X91859098Y-8993802D02*
X91193860Y-8993802D01*
X91992146Y-9392945D02*
X91526479Y-7995945D01*
X91526479Y-7995945D02*
X91060813Y-9392945D01*
X89996431Y-8461612D02*
X89996431Y-9392945D01*
X90595145Y-8461612D02*
X90595145Y-9193374D01*
X90595145Y-9193374D02*
X90528622Y-9326422D01*
X90528622Y-9326422D02*
X90395574Y-9392945D01*
X90395574Y-9392945D02*
X90196003Y-9392945D01*
X90196003Y-9392945D02*
X90062955Y-9326422D01*
X90062955Y-9326422D02*
X89996431Y-9259898D01*
X88732479Y-9392945D02*
X88732479Y-7995945D01*
X88732479Y-9326422D02*
X88865527Y-9392945D01*
X88865527Y-9392945D02*
X89131622Y-9392945D01*
X89131622Y-9392945D02*
X89264670Y-9326422D01*
X89264670Y-9326422D02*
X89331193Y-9259898D01*
X89331193Y-9259898D02*
X89397717Y-9126850D01*
X89397717Y-9126850D02*
X89397717Y-8727707D01*
X89397717Y-8727707D02*
X89331193Y-8594660D01*
X89331193Y-8594660D02*
X89264670Y-8528136D01*
X89264670Y-8528136D02*
X89131622Y-8461612D01*
X89131622Y-8461612D02*
X88865527Y-8461612D01*
X88865527Y-8461612D02*
X88732479Y-8528136D01*
X88067241Y-9392945D02*
X88067241Y-8461612D01*
X88067241Y-7995945D02*
X88133765Y-8062469D01*
X88133765Y-8062469D02*
X88067241Y-8128993D01*
X88067241Y-8128993D02*
X88000718Y-8062469D01*
X88000718Y-8062469D02*
X88067241Y-7995945D01*
X88067241Y-7995945D02*
X88067241Y-8128993D01*
X87202432Y-9392945D02*
X87335480Y-9326422D01*
X87335480Y-9326422D02*
X87402003Y-9259898D01*
X87402003Y-9259898D02*
X87468527Y-9126850D01*
X87468527Y-9126850D02*
X87468527Y-8727707D01*
X87468527Y-8727707D02*
X87402003Y-8594660D01*
X87402003Y-8594660D02*
X87335480Y-8528136D01*
X87335480Y-8528136D02*
X87202432Y-8461612D01*
X87202432Y-8461612D02*
X87002861Y-8461612D01*
X87002861Y-8461612D02*
X86869813Y-8528136D01*
X86869813Y-8528136D02*
X86803289Y-8594660D01*
X86803289Y-8594660D02*
X86736765Y-8727707D01*
X86736765Y-8727707D02*
X86736765Y-9126850D01*
X86736765Y-9126850D02*
X86803289Y-9259898D01*
X86803289Y-9259898D02*
X86869813Y-9326422D01*
X86869813Y-9326422D02*
X87002861Y-9392945D01*
X87002861Y-9392945D02*
X87202432Y-9392945D01*
X85206718Y-7995945D02*
X84275385Y-9392945D01*
X84275385Y-7995945D02*
X85206718Y-9392945D01*
X83077956Y-9392945D02*
X83743194Y-9392945D01*
X83743194Y-9392945D02*
X83743194Y-7995945D01*
X81814004Y-9392945D02*
X82279670Y-8727707D01*
X82612289Y-9392945D02*
X82612289Y-7995945D01*
X82612289Y-7995945D02*
X82080099Y-7995945D01*
X82080099Y-7995945D02*
X81947051Y-8062469D01*
X81947051Y-8062469D02*
X81880528Y-8128993D01*
X81880528Y-8128993D02*
X81814004Y-8262041D01*
X81814004Y-8262041D02*
X81814004Y-8461612D01*
X81814004Y-8461612D02*
X81880528Y-8594660D01*
X81880528Y-8594660D02*
X81947051Y-8661183D01*
X81947051Y-8661183D02*
X82080099Y-8727707D01*
X82080099Y-8727707D02*
X82612289Y-8727707D01*
X80283956Y-7995945D02*
X79951337Y-9392945D01*
X79951337Y-9392945D02*
X79685242Y-8395088D01*
X79685242Y-8395088D02*
X79419147Y-9392945D01*
X79419147Y-9392945D02*
X79086528Y-7995945D01*
X78554337Y-9392945D02*
X78554337Y-8461612D01*
X78554337Y-7995945D02*
X78620861Y-8062469D01*
X78620861Y-8062469D02*
X78554337Y-8128993D01*
X78554337Y-8128993D02*
X78487814Y-8062469D01*
X78487814Y-8062469D02*
X78554337Y-7995945D01*
X78554337Y-7995945D02*
X78554337Y-8128993D01*
X77889099Y-8461612D02*
X77889099Y-9392945D01*
X77889099Y-8594660D02*
X77822576Y-8528136D01*
X77822576Y-8528136D02*
X77689528Y-8461612D01*
X77689528Y-8461612D02*
X77489957Y-8461612D01*
X77489957Y-8461612D02*
X77356909Y-8528136D01*
X77356909Y-8528136D02*
X77290385Y-8661183D01*
X77290385Y-8661183D02*
X77290385Y-9392945D01*
X76026433Y-8461612D02*
X76026433Y-9592517D01*
X76026433Y-9592517D02*
X76092957Y-9725564D01*
X76092957Y-9725564D02*
X76159481Y-9792088D01*
X76159481Y-9792088D02*
X76292528Y-9858612D01*
X76292528Y-9858612D02*
X76492100Y-9858612D01*
X76492100Y-9858612D02*
X76625147Y-9792088D01*
X76026433Y-9326422D02*
X76159481Y-9392945D01*
X76159481Y-9392945D02*
X76425576Y-9392945D01*
X76425576Y-9392945D02*
X76558624Y-9326422D01*
X76558624Y-9326422D02*
X76625147Y-9259898D01*
X76625147Y-9259898D02*
X76691671Y-9126850D01*
X76691671Y-9126850D02*
X76691671Y-8727707D01*
X76691671Y-8727707D02*
X76625147Y-8594660D01*
X76625147Y-8594660D02*
X76558624Y-8528136D01*
X76558624Y-8528136D02*
X76425576Y-8461612D01*
X76425576Y-8461612D02*
X76159481Y-8461612D01*
X76159481Y-8461612D02*
X76026433Y-8528136D01*
X73831148Y-8661183D02*
X73631576Y-8727707D01*
X73631576Y-8727707D02*
X73565053Y-8794231D01*
X73565053Y-8794231D02*
X73498529Y-8927279D01*
X73498529Y-8927279D02*
X73498529Y-9126850D01*
X73498529Y-9126850D02*
X73565053Y-9259898D01*
X73565053Y-9259898D02*
X73631576Y-9326422D01*
X73631576Y-9326422D02*
X73764624Y-9392945D01*
X73764624Y-9392945D02*
X74296814Y-9392945D01*
X74296814Y-9392945D02*
X74296814Y-7995945D01*
X74296814Y-7995945D02*
X73831148Y-7995945D01*
X73831148Y-7995945D02*
X73698100Y-8062469D01*
X73698100Y-8062469D02*
X73631576Y-8128993D01*
X73631576Y-8128993D02*
X73565053Y-8262041D01*
X73565053Y-8262041D02*
X73565053Y-8395088D01*
X73565053Y-8395088D02*
X73631576Y-8528136D01*
X73631576Y-8528136D02*
X73698100Y-8594660D01*
X73698100Y-8594660D02*
X73831148Y-8661183D01*
X73831148Y-8661183D02*
X74296814Y-8661183D01*
X72700243Y-9392945D02*
X72833291Y-9326422D01*
X72833291Y-9326422D02*
X72899814Y-9259898D01*
X72899814Y-9259898D02*
X72966338Y-9126850D01*
X72966338Y-9126850D02*
X72966338Y-8727707D01*
X72966338Y-8727707D02*
X72899814Y-8594660D01*
X72899814Y-8594660D02*
X72833291Y-8528136D01*
X72833291Y-8528136D02*
X72700243Y-8461612D01*
X72700243Y-8461612D02*
X72500672Y-8461612D01*
X72500672Y-8461612D02*
X72367624Y-8528136D01*
X72367624Y-8528136D02*
X72301100Y-8594660D01*
X72301100Y-8594660D02*
X72234576Y-8727707D01*
X72234576Y-8727707D02*
X72234576Y-9126850D01*
X72234576Y-9126850D02*
X72301100Y-9259898D01*
X72301100Y-9259898D02*
X72367624Y-9326422D01*
X72367624Y-9326422D02*
X72500672Y-9392945D01*
X72500672Y-9392945D02*
X72700243Y-9392945D01*
X71037148Y-9392945D02*
X71037148Y-8661183D01*
X71037148Y-8661183D02*
X71103672Y-8528136D01*
X71103672Y-8528136D02*
X71236720Y-8461612D01*
X71236720Y-8461612D02*
X71502815Y-8461612D01*
X71502815Y-8461612D02*
X71635862Y-8528136D01*
X71037148Y-9326422D02*
X71170196Y-9392945D01*
X71170196Y-9392945D02*
X71502815Y-9392945D01*
X71502815Y-9392945D02*
X71635862Y-9326422D01*
X71635862Y-9326422D02*
X71702386Y-9193374D01*
X71702386Y-9193374D02*
X71702386Y-9060326D01*
X71702386Y-9060326D02*
X71635862Y-8927279D01*
X71635862Y-8927279D02*
X71502815Y-8860755D01*
X71502815Y-8860755D02*
X71170196Y-8860755D01*
X71170196Y-8860755D02*
X71037148Y-8794231D01*
X70371910Y-9392945D02*
X70371910Y-8461612D01*
X70371910Y-8727707D02*
X70305387Y-8594660D01*
X70305387Y-8594660D02*
X70238863Y-8528136D01*
X70238863Y-8528136D02*
X70105815Y-8461612D01*
X70105815Y-8461612D02*
X69972768Y-8461612D01*
X68908386Y-9392945D02*
X68908386Y-7995945D01*
X68908386Y-9326422D02*
X69041434Y-9392945D01*
X69041434Y-9392945D02*
X69307529Y-9392945D01*
X69307529Y-9392945D02*
X69440577Y-9326422D01*
X69440577Y-9326422D02*
X69507100Y-9259898D01*
X69507100Y-9259898D02*
X69573624Y-9126850D01*
X69573624Y-9126850D02*
X69573624Y-8727707D01*
X69573624Y-8727707D02*
X69507100Y-8594660D01*
X69507100Y-8594660D02*
X69440577Y-8528136D01*
X69440577Y-8528136D02*
X69307529Y-8461612D01*
X69307529Y-8461612D02*
X69041434Y-8461612D01*
X69041434Y-8461612D02*
X68908386Y-8528136D01*
D10*
G36*
X33494727Y-17786937D02*
G01*
X33398382Y-17792910D01*
X33351575Y-17806091D01*
X33318318Y-17829015D01*
X33297944Y-17857203D01*
X33287813Y-17900446D01*
X33282721Y-18012754D01*
X33282721Y-19012802D01*
X33287827Y-19125054D01*
X33297944Y-19167849D01*
X33318145Y-19195706D01*
X33350971Y-19218961D01*
X33397424Y-19232461D01*
X33494727Y-19238619D01*
X33494727Y-19277331D01*
X32717674Y-19277331D01*
X32717674Y-19238619D01*
X32813126Y-19232707D01*
X32860322Y-19219566D01*
X32894013Y-19196544D01*
X32914458Y-19168454D01*
X32924592Y-19125122D01*
X32929680Y-19012802D01*
X32929680Y-18580523D01*
X32688030Y-18572313D01*
X32559804Y-18553607D01*
X32456266Y-18519384D01*
X32372379Y-18471442D01*
X32304953Y-18410051D01*
X32253719Y-18335362D01*
X32222980Y-18251745D01*
X32213035Y-18162157D01*
X32586821Y-18162157D01*
X32596533Y-18274830D01*
X32622376Y-18357234D01*
X32661321Y-18416705D01*
X32715972Y-18461261D01*
X32785176Y-18488997D01*
X32873327Y-18498967D01*
X32929680Y-18496648D01*
X32929680Y-17832101D01*
X32883408Y-17832101D01*
X32788176Y-17842022D01*
X32715967Y-17869096D01*
X32661321Y-17911540D01*
X32622458Y-17969215D01*
X32596586Y-18050191D01*
X32586821Y-18162157D01*
X32213035Y-18162157D01*
X32212408Y-18156511D01*
X32221396Y-18072500D01*
X32247712Y-17997137D01*
X32291748Y-17928354D01*
X32355661Y-17864864D01*
X32428821Y-17818634D01*
X32527365Y-17782085D01*
X32657877Y-17757428D01*
X32828163Y-17748226D01*
X33494727Y-17748226D01*
X33494727Y-17786937D01*
G37*
G36*
X30683808Y-18741821D02*
G01*
X30741270Y-19277331D01*
X32099197Y-19277331D01*
X32099197Y-19238619D01*
X32048489Y-19238619D01*
X31985997Y-19231990D01*
X31941327Y-19214323D01*
X31916060Y-19193139D01*
X31896164Y-19158676D01*
X31887990Y-19119937D01*
X31883764Y-19012802D01*
X31883764Y-18012754D01*
X31887946Y-17903326D01*
X31896164Y-17862243D01*
X31913945Y-17835022D01*
X31946368Y-17809519D01*
X31988284Y-17793156D01*
X32048489Y-17786937D01*
X32099197Y-17786937D01*
X32099197Y-17748226D01*
X31283735Y-17748226D01*
X31283735Y-17786937D01*
X31350271Y-17786937D01*
X31412688Y-17793561D01*
X31457433Y-17811233D01*
X31482932Y-17832383D01*
X31503705Y-17866881D01*
X31511879Y-17905619D01*
X31516105Y-18012754D01*
X31516105Y-18986188D01*
X31511631Y-19092873D01*
X31502597Y-19135489D01*
X31483277Y-19162835D01*
X31449570Y-19183274D01*
X31411566Y-19190047D01*
X31313071Y-19193456D01*
X31185646Y-19193456D01*
X31105322Y-19188199D01*
X31038426Y-19173525D01*
X30982713Y-19150611D01*
X30932346Y-19117549D01*
X30885623Y-19072938D01*
X30842283Y-19015120D01*
X30788536Y-18910000D01*
X30729979Y-18741821D01*
X30683808Y-18741821D01*
G37*
G36*
X30317460Y-18934068D02*
G01*
X30396606Y-19095160D01*
X30448313Y-19169160D01*
X30486547Y-19201932D01*
X30531195Y-19225009D01*
X30583601Y-19238619D01*
X30583601Y-19277331D01*
X30074908Y-19277331D01*
X30074908Y-19238619D01*
X30183200Y-19225104D01*
X30225016Y-19211299D01*
X30253734Y-19187155D01*
X30270797Y-19156098D01*
X30276833Y-19115831D01*
X30269978Y-19064560D01*
X30245279Y-18991833D01*
X30180961Y-18838600D01*
X29640714Y-18838600D01*
X29559561Y-19029738D01*
X29525688Y-19116738D01*
X29518934Y-19159684D01*
X29525332Y-19190905D01*
X29543733Y-19213114D01*
X29587307Y-19230986D01*
X29668941Y-19238619D01*
X29699386Y-19238619D01*
X29699386Y-19277331D01*
X28959532Y-19277331D01*
X28959532Y-19238619D01*
X29023630Y-19224588D01*
X29067804Y-19197186D01*
X29117103Y-19131034D01*
X29197548Y-18968142D01*
X29291533Y-18754725D01*
X29679123Y-18754725D01*
X30141443Y-18754725D01*
X29906856Y-18237563D01*
X29679123Y-18754725D01*
X29291533Y-18754725D01*
X29748985Y-17715966D01*
X29770458Y-17715966D01*
X30317460Y-18934068D01*
G37*
G36*
X27647676Y-17748226D02*
G01*
X27647676Y-18167600D01*
X27688202Y-18167600D01*
X27729771Y-18034525D01*
X27768347Y-17959828D01*
X27819715Y-17903672D01*
X27889018Y-17859017D01*
X27940118Y-17844819D01*
X28039025Y-17838553D01*
X28152942Y-17838553D01*
X28152942Y-19012802D01*
X28148593Y-19122227D01*
X28140038Y-19163414D01*
X28121799Y-19190579D01*
X28089229Y-19216037D01*
X28047183Y-19232372D01*
X27985998Y-19238619D01*
X27935290Y-19238619D01*
X27935290Y-19277331D01*
X28736034Y-19277331D01*
X28736034Y-19238619D01*
X28685326Y-19238619D01*
X28622834Y-19231990D01*
X28578163Y-19214323D01*
X28552665Y-19193173D01*
X28531891Y-19158676D01*
X28523718Y-19119937D01*
X28519491Y-19012802D01*
X28519491Y-17838553D01*
X28629980Y-17838553D01*
X28731114Y-17847272D01*
X28803497Y-17870258D01*
X28854386Y-17904584D01*
X28909908Y-17971788D01*
X28951603Y-18057982D01*
X28978485Y-18167600D01*
X29021330Y-18167600D01*
X29021330Y-17748226D01*
X27647676Y-17748226D01*
G37*
G36*
X25922291Y-17748226D02*
G01*
X25922291Y-17786937D01*
X25991889Y-17804138D01*
X26038426Y-17831093D01*
X26098388Y-17901342D01*
X26216660Y-18090177D01*
X26548228Y-18645748D01*
X26548228Y-19012802D01*
X26544026Y-19123160D01*
X26535829Y-19163918D01*
X26518304Y-19190722D01*
X26486834Y-19216037D01*
X26446263Y-19232451D01*
X26389148Y-19238619D01*
X26303459Y-19238619D01*
X26303459Y-19277331D01*
X27161766Y-19277331D01*
X27161766Y-19238619D01*
X27081721Y-19238619D01*
X27018406Y-19231925D01*
X26974559Y-19214323D01*
X26949060Y-19193173D01*
X26928287Y-19158676D01*
X26920113Y-19119937D01*
X26915887Y-19012802D01*
X26915887Y-18708856D01*
X27275682Y-18051668D01*
X27379414Y-17878885D01*
X27426899Y-17822624D01*
X27476149Y-17797047D01*
X27544143Y-17786937D01*
X27544143Y-17748226D01*
X26811043Y-17748226D01*
X26811043Y-17786937D01*
X26843706Y-17786937D01*
X26904550Y-17792766D01*
X26936755Y-17806394D01*
X26957371Y-17827495D01*
X26963268Y-17847424D01*
X26948383Y-17901263D01*
X26873042Y-18053785D01*
X26596719Y-18557437D01*
X26321504Y-18099150D01*
X26255102Y-17979387D01*
X26225934Y-17909624D01*
X26218878Y-17872425D01*
X26225913Y-17844753D01*
X26248214Y-17821112D01*
X26295628Y-17800162D01*
X26389249Y-17786937D01*
X26389249Y-17748226D01*
X25922291Y-17748226D01*
G37*
G36*
X25837912Y-17786937D02*
G01*
X25741567Y-17792910D01*
X25694760Y-17806091D01*
X25661504Y-17829015D01*
X25641129Y-17857203D01*
X25630998Y-17900446D01*
X25625906Y-18012754D01*
X25625906Y-19012802D01*
X25631012Y-19125054D01*
X25641129Y-19167849D01*
X25661330Y-19195706D01*
X25694156Y-19218961D01*
X25740609Y-19232461D01*
X25837912Y-19238619D01*
X25837912Y-19277331D01*
X25060859Y-19277331D01*
X25060859Y-19238619D01*
X25156311Y-19232707D01*
X25203507Y-19219566D01*
X25237198Y-19196544D01*
X25257643Y-19168454D01*
X25267777Y-19125122D01*
X25272865Y-19012802D01*
X25272865Y-18580523D01*
X25031215Y-18572313D01*
X24902989Y-18553607D01*
X24799451Y-18519384D01*
X24715564Y-18471442D01*
X24648138Y-18410051D01*
X24596904Y-18335362D01*
X24566165Y-18251745D01*
X24556221Y-18162157D01*
X24930006Y-18162157D01*
X24939718Y-18274830D01*
X24965561Y-18357234D01*
X25004506Y-18416705D01*
X25059157Y-18461261D01*
X25128361Y-18488997D01*
X25216512Y-18498967D01*
X25272865Y-18496648D01*
X25272865Y-17832101D01*
X25226593Y-17832101D01*
X25131361Y-17842022D01*
X25059152Y-17869096D01*
X25004506Y-17911540D01*
X24965643Y-17969215D01*
X24939771Y-18050191D01*
X24930006Y-18162157D01*
X24556221Y-18162157D01*
X24555594Y-18156511D01*
X24564581Y-18072500D01*
X24590897Y-17997137D01*
X24634934Y-17928354D01*
X24698846Y-17864864D01*
X24772006Y-17818634D01*
X24870550Y-17782085D01*
X25001062Y-17757428D01*
X25171349Y-17748226D01*
X25837912Y-17748226D01*
X25837912Y-17786937D01*
G37*
G36*
X24431092Y-17748226D02*
G01*
X23641639Y-17748226D01*
X23641639Y-17786937D01*
X23681157Y-17786937D01*
X23762871Y-17792820D01*
X23803441Y-17805991D01*
X23832081Y-17828826D01*
X23850822Y-17858513D01*
X23860177Y-17904150D01*
X23864936Y-18025658D01*
X23864936Y-18769847D01*
X23860173Y-18908642D01*
X23848687Y-18993039D01*
X23833987Y-19039920D01*
X23793781Y-19099539D01*
X23731865Y-19149804D01*
X23682655Y-19173241D01*
X23623589Y-19188135D01*
X23552522Y-19193456D01*
X23471375Y-19186876D01*
X23401543Y-19168131D01*
X23341020Y-19138009D01*
X23287733Y-19096402D01*
X23244373Y-19045755D01*
X23210268Y-18984978D01*
X23188944Y-18917282D01*
X23173135Y-18809018D01*
X23166818Y-18645446D01*
X23166818Y-18025658D01*
X23173293Y-17928487D01*
X23188291Y-17875752D01*
X23213530Y-17836506D01*
X23242326Y-17813451D01*
X23299041Y-17794433D01*
X23385578Y-17786937D01*
X23385578Y-17748226D01*
X22856622Y-17748226D01*
X22856622Y-17786937D01*
X22888176Y-17786937D01*
X22948789Y-17793985D01*
X22995338Y-17813451D01*
X23031839Y-17846024D01*
X23057438Y-17892991D01*
X23067529Y-17937356D01*
X23072055Y-18025658D01*
X23072055Y-18603609D01*
X23077119Y-18784754D01*
X23090000Y-18909308D01*
X23107642Y-18990825D01*
X23140343Y-19064231D01*
X23196339Y-19136811D01*
X23280735Y-19209686D01*
X23351046Y-19251170D01*
X23435255Y-19282382D01*
X23535962Y-19302417D01*
X23656256Y-19309590D01*
X23788646Y-19302623D01*
X23888709Y-19284090D01*
X23963025Y-19256866D01*
X24055584Y-19201793D01*
X24123804Y-19140501D01*
X24171704Y-19072785D01*
X24203694Y-18995478D01*
X24224822Y-18896525D01*
X24232594Y-18770855D01*
X24232594Y-18025658D01*
X24237576Y-17903240D01*
X24247313Y-17857908D01*
X24266872Y-17828790D01*
X24298021Y-17805386D01*
X24341996Y-17792056D01*
X24431092Y-17786937D01*
X24431092Y-17748226D01*
G37*
G36*
X21732476Y-17715966D02*
G01*
X21720076Y-18225668D01*
X21766247Y-18225668D01*
X21789361Y-18131844D01*
X21823946Y-18050144D01*
X21869681Y-17978870D01*
X21926941Y-17916782D01*
X22017423Y-17850206D01*
X22108905Y-17812296D01*
X22203869Y-17799841D01*
X22278271Y-17807258D01*
X22337933Y-17827928D01*
X22386035Y-17860832D01*
X22424150Y-17904863D01*
X22445867Y-17951153D01*
X22453074Y-18001262D01*
X22447008Y-18049386D01*
X22429384Y-18090782D01*
X22389291Y-18140673D01*
X22324540Y-18194920D01*
X22253588Y-18237057D01*
X22079770Y-18325874D01*
X21903293Y-18422008D01*
X21787774Y-18504025D01*
X21717757Y-18573971D01*
X21666314Y-18656008D01*
X21635710Y-18744648D01*
X21625313Y-18842128D01*
X21634638Y-18934416D01*
X21662098Y-19018904D01*
X21708148Y-19097525D01*
X21774816Y-19171580D01*
X21853299Y-19231188D01*
X21941382Y-19273986D01*
X22040896Y-19300397D01*
X22154270Y-19309590D01*
X22225251Y-19305930D01*
X22290768Y-19295275D01*
X22358411Y-19276215D01*
X22451965Y-19241341D01*
X22504330Y-19224055D01*
X22541083Y-19219263D01*
X22570071Y-19224409D01*
X22603182Y-19241543D01*
X22631947Y-19268677D01*
X22656108Y-19309590D01*
X22697844Y-19309590D01*
X22697844Y-18741821D01*
X22656108Y-18741821D01*
X22623579Y-18858389D01*
X22580458Y-18955445D01*
X22527562Y-19035818D01*
X22464970Y-19101717D01*
X22390255Y-19157583D01*
X22315191Y-19195821D01*
X22238822Y-19218252D01*
X22159915Y-19225715D01*
X22078285Y-19217466D01*
X22012298Y-19194383D01*
X21958595Y-19157466D01*
X21916070Y-19108162D01*
X21891714Y-19055765D01*
X21883592Y-18998487D01*
X21890665Y-18946100D01*
X21912424Y-18894449D01*
X21947279Y-18846828D01*
X21999827Y-18798780D01*
X22070861Y-18752381D01*
X22207297Y-18680629D01*
X22399422Y-18578882D01*
X22507311Y-18507233D01*
X22589284Y-18430002D01*
X22647741Y-18347145D01*
X22674829Y-18286590D01*
X22691175Y-18222001D01*
X22696735Y-18152378D01*
X22688243Y-18064580D01*
X22663373Y-17984974D01*
X22621982Y-17911731D01*
X22562555Y-17843593D01*
X22491773Y-17788214D01*
X22412920Y-17748675D01*
X22324417Y-17724391D01*
X22224132Y-17715966D01*
X22150580Y-17720434D01*
X22079770Y-17733709D01*
X22024586Y-17751341D01*
X21950631Y-17783106D01*
X21879170Y-17812378D01*
X21844074Y-17819197D01*
X21817298Y-17814551D01*
X21797801Y-17801454D01*
X21783593Y-17776773D01*
X21766247Y-17715966D01*
X21732476Y-17715966D01*
G37*
X57822689Y-15499714D02*
X57608403Y-15571142D01*
X57608403Y-15571142D02*
X57536974Y-15642571D01*
X57536974Y-15642571D02*
X57465546Y-15785428D01*
X57465546Y-15785428D02*
X57465546Y-15999714D01*
X57465546Y-15999714D02*
X57536974Y-16142571D01*
X57536974Y-16142571D02*
X57608403Y-16214000D01*
X57608403Y-16214000D02*
X57751260Y-16285428D01*
X57751260Y-16285428D02*
X58322689Y-16285428D01*
X58322689Y-16285428D02*
X58322689Y-14785428D01*
X58322689Y-14785428D02*
X57822689Y-14785428D01*
X57822689Y-14785428D02*
X57679832Y-14856857D01*
X57679832Y-14856857D02*
X57608403Y-14928285D01*
X57608403Y-14928285D02*
X57536974Y-15071142D01*
X57536974Y-15071142D02*
X57536974Y-15214000D01*
X57536974Y-15214000D02*
X57608403Y-15356857D01*
X57608403Y-15356857D02*
X57679832Y-15428285D01*
X57679832Y-15428285D02*
X57822689Y-15499714D01*
X57822689Y-15499714D02*
X58322689Y-15499714D01*
X56536974Y-14785428D02*
X56251260Y-14785428D01*
X56251260Y-14785428D02*
X56108403Y-14856857D01*
X56108403Y-14856857D02*
X55965546Y-14999714D01*
X55965546Y-14999714D02*
X55894117Y-15285428D01*
X55894117Y-15285428D02*
X55894117Y-15785428D01*
X55894117Y-15785428D02*
X55965546Y-16071142D01*
X55965546Y-16071142D02*
X56108403Y-16214000D01*
X56108403Y-16214000D02*
X56251260Y-16285428D01*
X56251260Y-16285428D02*
X56536974Y-16285428D01*
X56536974Y-16285428D02*
X56679832Y-16214000D01*
X56679832Y-16214000D02*
X56822689Y-16071142D01*
X56822689Y-16071142D02*
X56894117Y-15785428D01*
X56894117Y-15785428D02*
X56894117Y-15285428D01*
X56894117Y-15285428D02*
X56822689Y-14999714D01*
X56822689Y-14999714D02*
X56679832Y-14856857D01*
X56679832Y-14856857D02*
X56536974Y-14785428D01*
X55465545Y-14785428D02*
X54608403Y-14785428D01*
X55036974Y-16285428D02*
X55036974Y-14785428D01*
X54322688Y-14785428D02*
X53465546Y-14785428D01*
X53894117Y-16285428D02*
X53894117Y-14785428D01*
X52679831Y-14785428D02*
X52394117Y-14785428D01*
X52394117Y-14785428D02*
X52251260Y-14856857D01*
X52251260Y-14856857D02*
X52108403Y-14999714D01*
X52108403Y-14999714D02*
X52036974Y-15285428D01*
X52036974Y-15285428D02*
X52036974Y-15785428D01*
X52036974Y-15785428D02*
X52108403Y-16071142D01*
X52108403Y-16071142D02*
X52251260Y-16214000D01*
X52251260Y-16214000D02*
X52394117Y-16285428D01*
X52394117Y-16285428D02*
X52679831Y-16285428D01*
X52679831Y-16285428D02*
X52822689Y-16214000D01*
X52822689Y-16214000D02*
X52965546Y-16071142D01*
X52965546Y-16071142D02*
X53036974Y-15785428D01*
X53036974Y-15785428D02*
X53036974Y-15285428D01*
X53036974Y-15285428D02*
X52965546Y-14999714D01*
X52965546Y-14999714D02*
X52822689Y-14856857D01*
X52822689Y-14856857D02*
X52679831Y-14785428D01*
X51394117Y-16285428D02*
X51394117Y-14785428D01*
X51394117Y-14785428D02*
X50894117Y-15856857D01*
X50894117Y-15856857D02*
X50394117Y-14785428D01*
X50394117Y-14785428D02*
X50394117Y-16285428D01*
D13*
X60342752Y-3905280D02*
X60342752Y-2635280D01*
X59737990Y-3905280D02*
X59737990Y-2635280D01*
X59737990Y-2635280D02*
X59435609Y-2635280D01*
X59435609Y-2635280D02*
X59254180Y-2695756D01*
X59254180Y-2695756D02*
X59133228Y-2816708D01*
X59133228Y-2816708D02*
X59072751Y-2937661D01*
X59072751Y-2937661D02*
X59012275Y-3179565D01*
X59012275Y-3179565D02*
X59012275Y-3360994D01*
X59012275Y-3360994D02*
X59072751Y-3602899D01*
X59072751Y-3602899D02*
X59133228Y-3723851D01*
X59133228Y-3723851D02*
X59254180Y-3844804D01*
X59254180Y-3844804D02*
X59435609Y-3905280D01*
X59435609Y-3905280D02*
X59737990Y-3905280D01*
X57742275Y-3784327D02*
X57802751Y-3844804D01*
X57802751Y-3844804D02*
X57984180Y-3905280D01*
X57984180Y-3905280D02*
X58105132Y-3905280D01*
X58105132Y-3905280D02*
X58286561Y-3844804D01*
X58286561Y-3844804D02*
X58407513Y-3723851D01*
X58407513Y-3723851D02*
X58467990Y-3602899D01*
X58467990Y-3602899D02*
X58528466Y-3360994D01*
X58528466Y-3360994D02*
X58528466Y-3179565D01*
X58528466Y-3179565D02*
X58467990Y-2937661D01*
X58467990Y-2937661D02*
X58407513Y-2816708D01*
X58407513Y-2816708D02*
X58286561Y-2695756D01*
X58286561Y-2695756D02*
X58105132Y-2635280D01*
X58105132Y-2635280D02*
X57984180Y-2635280D01*
X57984180Y-2635280D02*
X57802751Y-2695756D01*
X57802751Y-2695756D02*
X57742275Y-2756232D01*
X56230371Y-3905280D02*
X56230371Y-3058613D01*
X56230371Y-3179565D02*
X56169894Y-3119089D01*
X56169894Y-3119089D02*
X56048942Y-3058613D01*
X56048942Y-3058613D02*
X55867513Y-3058613D01*
X55867513Y-3058613D02*
X55746561Y-3119089D01*
X55746561Y-3119089D02*
X55686085Y-3240042D01*
X55686085Y-3240042D02*
X55686085Y-3905280D01*
X55686085Y-3240042D02*
X55625609Y-3119089D01*
X55625609Y-3119089D02*
X55504656Y-3058613D01*
X55504656Y-3058613D02*
X55323228Y-3058613D01*
X55323228Y-3058613D02*
X55202275Y-3119089D01*
X55202275Y-3119089D02*
X55141799Y-3240042D01*
X55141799Y-3240042D02*
X55141799Y-3905280D01*
X54355609Y-3905280D02*
X54476561Y-3844804D01*
X54476561Y-3844804D02*
X54537038Y-3784327D01*
X54537038Y-3784327D02*
X54597514Y-3663375D01*
X54597514Y-3663375D02*
X54597514Y-3300518D01*
X54597514Y-3300518D02*
X54537038Y-3179565D01*
X54537038Y-3179565D02*
X54476561Y-3119089D01*
X54476561Y-3119089D02*
X54355609Y-3058613D01*
X54355609Y-3058613D02*
X54174180Y-3058613D01*
X54174180Y-3058613D02*
X54053228Y-3119089D01*
X54053228Y-3119089D02*
X53992752Y-3179565D01*
X53992752Y-3179565D02*
X53932276Y-3300518D01*
X53932276Y-3300518D02*
X53932276Y-3663375D01*
X53932276Y-3663375D02*
X53992752Y-3784327D01*
X53992752Y-3784327D02*
X54053228Y-3844804D01*
X54053228Y-3844804D02*
X54174180Y-3905280D01*
X54174180Y-3905280D02*
X54355609Y-3905280D01*
X52843704Y-3058613D02*
X52843704Y-3905280D01*
X53387990Y-3058613D02*
X53387990Y-3723851D01*
X53387990Y-3723851D02*
X53327513Y-3844804D01*
X53327513Y-3844804D02*
X53206561Y-3905280D01*
X53206561Y-3905280D02*
X53025132Y-3905280D01*
X53025132Y-3905280D02*
X52904180Y-3844804D01*
X52904180Y-3844804D02*
X52843704Y-3784327D01*
X52238942Y-3058613D02*
X52238942Y-3905280D01*
X52238942Y-3179565D02*
X52178465Y-3119089D01*
X52178465Y-3119089D02*
X52057513Y-3058613D01*
X52057513Y-3058613D02*
X51876084Y-3058613D01*
X51876084Y-3058613D02*
X51755132Y-3119089D01*
X51755132Y-3119089D02*
X51694656Y-3240042D01*
X51694656Y-3240042D02*
X51694656Y-3905280D01*
X51271322Y-3058613D02*
X50787513Y-3058613D01*
X51089894Y-2635280D02*
X51089894Y-3723851D01*
X51089894Y-3723851D02*
X51029417Y-3844804D01*
X51029417Y-3844804D02*
X50908465Y-3905280D01*
X50908465Y-3905280D02*
X50787513Y-3905280D01*
X50424656Y-3844804D02*
X50303703Y-3905280D01*
X50303703Y-3905280D02*
X50061799Y-3905280D01*
X50061799Y-3905280D02*
X49940846Y-3844804D01*
X49940846Y-3844804D02*
X49880370Y-3723851D01*
X49880370Y-3723851D02*
X49880370Y-3663375D01*
X49880370Y-3663375D02*
X49940846Y-3542423D01*
X49940846Y-3542423D02*
X50061799Y-3481946D01*
X50061799Y-3481946D02*
X50243227Y-3481946D01*
X50243227Y-3481946D02*
X50364180Y-3421470D01*
X50364180Y-3421470D02*
X50424656Y-3300518D01*
X50424656Y-3300518D02*
X50424656Y-3240042D01*
X50424656Y-3240042D02*
X50364180Y-3119089D01*
X50364180Y-3119089D02*
X50243227Y-3058613D01*
X50243227Y-3058613D02*
X50061799Y-3058613D01*
X50061799Y-3058613D02*
X49940846Y-3119089D01*
X57802752Y-5949909D02*
X57923704Y-5889433D01*
X57923704Y-5889433D02*
X57984181Y-5828956D01*
X57984181Y-5828956D02*
X58044657Y-5708004D01*
X58044657Y-5708004D02*
X58044657Y-5345147D01*
X58044657Y-5345147D02*
X57984181Y-5224194D01*
X57984181Y-5224194D02*
X57923704Y-5163718D01*
X57923704Y-5163718D02*
X57802752Y-5103242D01*
X57802752Y-5103242D02*
X57621323Y-5103242D01*
X57621323Y-5103242D02*
X57500371Y-5163718D01*
X57500371Y-5163718D02*
X57439895Y-5224194D01*
X57439895Y-5224194D02*
X57379419Y-5345147D01*
X57379419Y-5345147D02*
X57379419Y-5708004D01*
X57379419Y-5708004D02*
X57439895Y-5828956D01*
X57439895Y-5828956D02*
X57500371Y-5889433D01*
X57500371Y-5889433D02*
X57621323Y-5949909D01*
X57621323Y-5949909D02*
X57802752Y-5949909D01*
X56835133Y-5103242D02*
X56835133Y-5949909D01*
X56835133Y-5224194D02*
X56774656Y-5163718D01*
X56774656Y-5163718D02*
X56653704Y-5103242D01*
X56653704Y-5103242D02*
X56472275Y-5103242D01*
X56472275Y-5103242D02*
X56351323Y-5163718D01*
X56351323Y-5163718D02*
X56290847Y-5284671D01*
X56290847Y-5284671D02*
X56290847Y-5949909D01*
X54899894Y-5103242D02*
X54416085Y-5103242D01*
X54718466Y-4679909D02*
X54718466Y-5768480D01*
X54718466Y-5768480D02*
X54657989Y-5889433D01*
X54657989Y-5889433D02*
X54537037Y-5949909D01*
X54537037Y-5949909D02*
X54416085Y-5949909D01*
X53811323Y-5949909D02*
X53932275Y-5889433D01*
X53932275Y-5889433D02*
X53992752Y-5828956D01*
X53992752Y-5828956D02*
X54053228Y-5708004D01*
X54053228Y-5708004D02*
X54053228Y-5345147D01*
X54053228Y-5345147D02*
X53992752Y-5224194D01*
X53992752Y-5224194D02*
X53932275Y-5163718D01*
X53932275Y-5163718D02*
X53811323Y-5103242D01*
X53811323Y-5103242D02*
X53629894Y-5103242D01*
X53629894Y-5103242D02*
X53508942Y-5163718D01*
X53508942Y-5163718D02*
X53448466Y-5224194D01*
X53448466Y-5224194D02*
X53387990Y-5345147D01*
X53387990Y-5345147D02*
X53387990Y-5708004D01*
X53387990Y-5708004D02*
X53448466Y-5828956D01*
X53448466Y-5828956D02*
X53508942Y-5889433D01*
X53508942Y-5889433D02*
X53629894Y-5949909D01*
X53629894Y-5949909D02*
X53811323Y-5949909D01*
X52843704Y-5103242D02*
X52843704Y-6373242D01*
X52843704Y-5163718D02*
X52722751Y-5103242D01*
X52722751Y-5103242D02*
X52480846Y-5103242D01*
X52480846Y-5103242D02*
X52359894Y-5163718D01*
X52359894Y-5163718D02*
X52299418Y-5224194D01*
X52299418Y-5224194D02*
X52238942Y-5345147D01*
X52238942Y-5345147D02*
X52238942Y-5708004D01*
X52238942Y-5708004D02*
X52299418Y-5828956D01*
X52299418Y-5828956D02*
X52359894Y-5889433D01*
X52359894Y-5889433D02*
X52480846Y-5949909D01*
X52480846Y-5949909D02*
X52722751Y-5949909D01*
X52722751Y-5949909D02*
X52843704Y-5889433D01*
X16786980Y-15175609D02*
X16545075Y-15175609D01*
X16545075Y-15175609D02*
X16424123Y-15236085D01*
X16424123Y-15236085D02*
X16303170Y-15357037D01*
X16303170Y-15357037D02*
X16242694Y-15598942D01*
X16242694Y-15598942D02*
X16242694Y-16022275D01*
X16242694Y-16022275D02*
X16303170Y-16264180D01*
X16303170Y-16264180D02*
X16424123Y-16385133D01*
X16424123Y-16385133D02*
X16545075Y-16445609D01*
X16545075Y-16445609D02*
X16786980Y-16445609D01*
X16786980Y-16445609D02*
X16907932Y-16385133D01*
X16907932Y-16385133D02*
X17028885Y-16264180D01*
X17028885Y-16264180D02*
X17089361Y-16022275D01*
X17089361Y-16022275D02*
X17089361Y-15598942D01*
X17089361Y-15598942D02*
X17028885Y-15357037D01*
X17028885Y-15357037D02*
X16907932Y-15236085D01*
X16907932Y-15236085D02*
X16786980Y-15175609D01*
X15698409Y-15175609D02*
X15698409Y-16203704D01*
X15698409Y-16203704D02*
X15637932Y-16324656D01*
X15637932Y-16324656D02*
X15577456Y-16385133D01*
X15577456Y-16385133D02*
X15456504Y-16445609D01*
X15456504Y-16445609D02*
X15214599Y-16445609D01*
X15214599Y-16445609D02*
X15093647Y-16385133D01*
X15093647Y-16385133D02*
X15033170Y-16324656D01*
X15033170Y-16324656D02*
X14972694Y-16203704D01*
X14972694Y-16203704D02*
X14972694Y-15175609D01*
X14549361Y-15175609D02*
X13823647Y-15175609D01*
X14186504Y-16445609D02*
X14186504Y-15175609D01*
X10920790Y-15598942D02*
X10920790Y-16445609D01*
X11223171Y-15115133D02*
X11525552Y-16022275D01*
X11525552Y-16022275D02*
X10739361Y-16022275D01*
X46290895Y-31234759D02*
X46290895Y-29964759D01*
X46290895Y-29964759D02*
X45565180Y-31234759D01*
X45565180Y-31234759D02*
X45565180Y-29964759D01*
X44234704Y-31113806D02*
X44295180Y-31174283D01*
X44295180Y-31174283D02*
X44476609Y-31234759D01*
X44476609Y-31234759D02*
X44597561Y-31234759D01*
X44597561Y-31234759D02*
X44778990Y-31174283D01*
X44778990Y-31174283D02*
X44899942Y-31053330D01*
X44899942Y-31053330D02*
X44960419Y-30932378D01*
X44960419Y-30932378D02*
X45020895Y-30690473D01*
X45020895Y-30690473D02*
X45020895Y-30509044D01*
X45020895Y-30509044D02*
X44960419Y-30267140D01*
X44960419Y-30267140D02*
X44899942Y-30146187D01*
X44899942Y-30146187D02*
X44778990Y-30025235D01*
X44778990Y-30025235D02*
X44597561Y-29964759D01*
X44597561Y-29964759D02*
X44476609Y-29964759D01*
X44476609Y-29964759D02*
X44295180Y-30025235D01*
X44295180Y-30025235D02*
X44234704Y-30085711D01*
X43811371Y-29964759D02*
X43025180Y-29964759D01*
X43025180Y-29964759D02*
X43448514Y-30448568D01*
X43448514Y-30448568D02*
X43267085Y-30448568D01*
X43267085Y-30448568D02*
X43146133Y-30509044D01*
X43146133Y-30509044D02*
X43085657Y-30569521D01*
X43085657Y-30569521D02*
X43025180Y-30690473D01*
X43025180Y-30690473D02*
X43025180Y-30992854D01*
X43025180Y-30992854D02*
X43085657Y-31113806D01*
X43085657Y-31113806D02*
X43146133Y-31174283D01*
X43146133Y-31174283D02*
X43267085Y-31234759D01*
X43267085Y-31234759D02*
X43629942Y-31234759D01*
X43629942Y-31234759D02*
X43750895Y-31174283D01*
X43750895Y-31174283D02*
X43811371Y-31113806D01*
X42480895Y-31234759D02*
X42480895Y-29964759D01*
X42480895Y-29964759D02*
X42057561Y-30871902D01*
X42057561Y-30871902D02*
X41634228Y-29964759D01*
X41634228Y-29964759D02*
X41634228Y-31234759D01*
X41089942Y-30871902D02*
X40485180Y-30871902D01*
X41210894Y-31234759D02*
X40787561Y-29964759D01*
X40787561Y-29964759D02*
X40364227Y-31234759D01*
X40001371Y-30871902D02*
X39396609Y-30871902D01*
X40122323Y-31234759D02*
X39698990Y-29964759D01*
X39698990Y-29964759D02*
X39275656Y-31234759D01*
X38852324Y-31234759D02*
X38852324Y-29964759D01*
X38852324Y-30569521D02*
X38126609Y-30569521D01*
X38126609Y-31234759D02*
X38126609Y-29964759D01*
X37521848Y-30750949D02*
X36554229Y-30750949D01*
X35284228Y-31234759D02*
X36009943Y-31234759D01*
X35647086Y-31234759D02*
X35647086Y-29964759D01*
X35647086Y-29964759D02*
X35768038Y-30146187D01*
X35768038Y-30146187D02*
X35888990Y-30267140D01*
X35888990Y-30267140D02*
X36009943Y-30327616D01*
D15*
%TO.C,J9*%
X83569800Y-30791800D02*
X83569800Y-37381800D01*
X83569800Y-30791800D02*
X86969800Y-30791800D01*
X85069800Y-37381800D02*
X83569800Y-37381800D01*
X85069800Y-40081800D02*
X85069800Y-37381800D01*
X86969800Y-25141800D02*
X86969800Y-30791800D01*
X86969800Y-25141800D02*
X89769800Y-25141800D01*
X89769800Y-17941800D02*
X89769800Y-25141800D01*
X91189800Y-17941800D02*
X89769800Y-17941800D01*
X93589800Y-17941800D02*
X95489800Y-17941800D01*
X98789800Y-17941800D02*
X96889800Y-17941800D01*
X102609800Y-17941800D02*
X101189800Y-17941800D01*
X102609800Y-17941800D02*
X102609800Y-25141800D01*
X105409800Y-25141800D02*
X102609800Y-25141800D01*
X105409800Y-25141800D02*
X105409800Y-30791800D01*
X105409800Y-30791800D02*
X109109800Y-30791800D01*
X107309800Y-40081800D02*
X85069800Y-40081800D01*
X107309800Y-40081800D02*
X107309800Y-37381800D01*
X109109800Y-30791800D02*
X109109800Y-37381800D01*
X109109800Y-37381800D02*
X107309800Y-37381800D01*
%TO.C,J6*%
X791200Y-30766400D02*
X791200Y-37356400D01*
X791200Y-30766400D02*
X4191200Y-30766400D01*
X2291200Y-37356400D02*
X791200Y-37356400D01*
X2291200Y-40056400D02*
X2291200Y-37356400D01*
X4191200Y-25116400D02*
X4191200Y-30766400D01*
X4191200Y-25116400D02*
X6991200Y-25116400D01*
X6991200Y-17916400D02*
X6991200Y-25116400D01*
X8411200Y-17916400D02*
X6991200Y-17916400D01*
X10811200Y-17916400D02*
X12711200Y-17916400D01*
X16011200Y-17916400D02*
X14111200Y-17916400D01*
X19831200Y-17916400D02*
X18411200Y-17916400D01*
X19831200Y-17916400D02*
X19831200Y-25116400D01*
X22631200Y-25116400D02*
X19831200Y-25116400D01*
X22631200Y-25116400D02*
X22631200Y-30766400D01*
X22631200Y-30766400D02*
X26331200Y-30766400D01*
X24531200Y-40056400D02*
X2291200Y-40056400D01*
X24531200Y-40056400D02*
X24531200Y-37356400D01*
X26331200Y-30766400D02*
X26331200Y-37356400D01*
X26331200Y-37356400D02*
X24531200Y-37356400D01*
%TO.C,J8*%
X55985400Y-30791800D02*
X55985400Y-37381800D01*
X55985400Y-30791800D02*
X59385400Y-30791800D01*
X57485400Y-37381800D02*
X55985400Y-37381800D01*
X57485400Y-40081800D02*
X57485400Y-37381800D01*
X59385400Y-25141800D02*
X59385400Y-30791800D01*
X59385400Y-25141800D02*
X62185400Y-25141800D01*
X62185400Y-17941800D02*
X62185400Y-25141800D01*
X63605400Y-17941800D02*
X62185400Y-17941800D01*
X66005400Y-17941800D02*
X67905400Y-17941800D01*
X71205400Y-17941800D02*
X69305400Y-17941800D01*
X75025400Y-17941800D02*
X73605400Y-17941800D01*
X75025400Y-17941800D02*
X75025400Y-25141800D01*
X77825400Y-25141800D02*
X75025400Y-25141800D01*
X77825400Y-25141800D02*
X77825400Y-30791800D01*
X77825400Y-30791800D02*
X81525400Y-30791800D01*
X79725400Y-40081800D02*
X57485400Y-40081800D01*
X79725400Y-40081800D02*
X79725400Y-37381800D01*
X81525400Y-30791800D02*
X81525400Y-37381800D01*
X81525400Y-37381800D02*
X79725400Y-37381800D01*
%TO.C,J7*%
X28401000Y-30791800D02*
X28401000Y-37381800D01*
X28401000Y-30791800D02*
X31801000Y-30791800D01*
X29901000Y-37381800D02*
X28401000Y-37381800D01*
X29901000Y-40081800D02*
X29901000Y-37381800D01*
X31801000Y-25141800D02*
X31801000Y-30791800D01*
X31801000Y-25141800D02*
X34601000Y-25141800D01*
X34601000Y-17941800D02*
X34601000Y-25141800D01*
X36021000Y-17941800D02*
X34601000Y-17941800D01*
X38421000Y-17941800D02*
X40321000Y-17941800D01*
X43621000Y-17941800D02*
X41721000Y-17941800D01*
X47441000Y-17941800D02*
X46021000Y-17941800D01*
X47441000Y-17941800D02*
X47441000Y-25141800D01*
X50241000Y-25141800D02*
X47441000Y-25141800D01*
X50241000Y-25141800D02*
X50241000Y-30791800D01*
X50241000Y-30791800D02*
X53941000Y-30791800D01*
X52141000Y-40081800D02*
X29901000Y-40081800D01*
X52141000Y-40081800D02*
X52141000Y-37381800D01*
X53941000Y-30791800D02*
X53941000Y-37381800D01*
X53941000Y-37381800D02*
X52141000Y-37381800D01*
%TD*%
%LPC*%
D16*
%TO.C,R6*%
X31433432Y-13004800D03*
D17*
X33973432Y-13004800D03*
%TD*%
D18*
%TO.C,J5*%
X9601200Y-27716400D03*
X17221200Y-33431400D03*
D19*
X17221200Y-23906400D03*
X9601200Y-23271400D03*
D20*
X13411200Y-19456400D03*
%TD*%
D16*
%TO.C,R8*%
X14342700Y-13004800D03*
D17*
X16882700Y-13004800D03*
%TD*%
D16*
%TO.C,R5*%
X39978800Y-13004800D03*
D17*
X42518800Y-13004800D03*
%TD*%
D21*
%TO.C,C8*%
X14366667Y-2910200D03*
D18*
X14366667Y-5410200D03*
%TD*%
D21*
%TO.C,C5*%
X39984467Y-2910200D03*
D18*
X39984467Y-5410200D03*
%TD*%
D21*
%TO.C,C7*%
X22905933Y-2910200D03*
D18*
X22905933Y-5410200D03*
%TD*%
D16*
%TO.C,R2*%
X87409066Y-12979400D03*
D17*
X89949066Y-12979400D03*
%TD*%
D22*
%TO.C,H1*%
X105410000Y-4318000D03*
%TD*%
D21*
%TO.C,C3*%
X78756933Y-2834000D03*
D18*
X78756933Y-5334000D03*
%TD*%
D21*
%TO.C,C6*%
X31445199Y-2910200D03*
D18*
X31445199Y-5410200D03*
%TD*%
%TO.C,J2*%
X92379800Y-27736800D03*
X99999800Y-33451800D03*
D19*
X99999800Y-23926800D03*
X92379800Y-23291800D03*
D20*
X96189800Y-19476800D03*
%TD*%
D18*
%TO.C,J4*%
X37211000Y-27736800D03*
X44831000Y-33451800D03*
D19*
X44831000Y-23926800D03*
X37211000Y-23291800D03*
D20*
X41021000Y-19476800D03*
%TD*%
D23*
%TO.C,J1*%
X48691800Y-12217400D03*
D24*
X48691800Y-9677400D03*
X51231800Y-12217400D03*
X51231800Y-9677400D03*
X53771800Y-12217400D03*
X53771800Y-9677400D03*
X56311800Y-12217400D03*
X56311800Y-9677400D03*
X58851800Y-12217400D03*
X58851800Y-9677400D03*
X61391800Y-12217400D03*
X61391800Y-9677400D03*
%TD*%
D16*
%TO.C,R4*%
X70103200Y-12979400D03*
D17*
X72643200Y-12979400D03*
%TD*%
D16*
%TO.C,R1*%
X96062000Y-12979400D03*
D17*
X98602000Y-12979400D03*
%TD*%
D21*
%TO.C,C2*%
X87409866Y-2834000D03*
D18*
X87409866Y-5334000D03*
%TD*%
D21*
%TO.C,C4*%
X70104000Y-2834000D03*
D18*
X70104000Y-5334000D03*
%TD*%
D16*
%TO.C,R7*%
X22888066Y-13004800D03*
D17*
X25428066Y-13004800D03*
%TD*%
D16*
%TO.C,R3*%
X78756133Y-12979400D03*
D17*
X81296133Y-12979400D03*
%TD*%
D22*
%TO.C,H2*%
X4445000Y-4318000D03*
%TD*%
D21*
%TO.C,C1*%
X96062800Y-2834000D03*
D18*
X96062800Y-5334000D03*
%TD*%
%TO.C,J3*%
X64795400Y-27736800D03*
X72415400Y-33451800D03*
D19*
X72415400Y-23926800D03*
X64795400Y-23291800D03*
D20*
X68605400Y-19476800D03*
%TD*%
D18*
%TO.C,J9*%
X99999800Y-28371800D03*
X92379800Y-33451800D03*
D19*
X99999800Y-19481800D03*
X92379800Y-19481800D03*
D20*
X96189800Y-19481800D03*
%TD*%
D18*
%TO.C,J6*%
X17221200Y-28346400D03*
X9601200Y-33426400D03*
D19*
X17221200Y-19456400D03*
X9601200Y-19456400D03*
D20*
X13411200Y-19456400D03*
%TD*%
D18*
%TO.C,J8*%
X72415400Y-28371800D03*
X64795400Y-33451800D03*
D19*
X72415400Y-19481800D03*
X64795400Y-19481800D03*
D20*
X68605400Y-19481800D03*
%TD*%
D18*
%TO.C,J7*%
X44831000Y-28371800D03*
X37211000Y-33451800D03*
D19*
X44831000Y-19481800D03*
X37211000Y-19481800D03*
D20*
X41021000Y-19481800D03*
%TD*%
%LPD*%
M02*
