%TF.GenerationSoftware,KiCad,Pcbnew,9.0.0*%
%TF.CreationDate,2025-03-26T11:50:56+11:00*%
%TF.ProjectId,Wing Board 4 XLR MK II,57696e67-2042-46f6-9172-64203420584c,rev?*%
%TF.SameCoordinates,Original*%
%TF.FileFunction,Soldermask,Top*%
%TF.FilePolarity,Negative*%
%FSLAX46Y46*%
G04 Gerber Fmt 4.6, Leading zero omitted, Abs format (unit mm)*
G04 Created by KiCad (PCBNEW 9.0.0) date 2025-03-26 11:50:56*
%MOMM*%
%LPD*%
G01*
G04 APERTURE LIST*
%ADD10C,1.400000*%
%ADD11O,1.400000X1.400000*%
%ADD12C,3.400000*%
%ADD13C,2.900000*%
%ADD14R,1.600000X1.600000*%
%ADD15C,1.600000*%
%ADD16R,1.650000X1.650000*%
%ADD17C,1.650000*%
G04 APERTURE END LIST*
D10*
%TO.C,R6*%
X31433432Y-13004800D03*
D11*
X33973432Y-13004800D03*
%TD*%
D12*
%TO.C,J5*%
X17221200Y-23906400D03*
X9601200Y-23271400D03*
D13*
X13411200Y-19456400D03*
%TD*%
D10*
%TO.C,R8*%
X14342700Y-13004800D03*
D11*
X16882700Y-13004800D03*
%TD*%
D10*
%TO.C,R5*%
X39978800Y-13004800D03*
D11*
X42518800Y-13004800D03*
%TD*%
D14*
%TO.C,C8*%
X14366667Y-2910200D03*
D15*
X14366667Y-5410200D03*
%TD*%
D14*
%TO.C,C5*%
X39984467Y-2910200D03*
D15*
X39984467Y-5410200D03*
%TD*%
D14*
%TO.C,C7*%
X22905933Y-2910200D03*
D15*
X22905933Y-5410200D03*
%TD*%
D10*
%TO.C,R2*%
X87409066Y-12979400D03*
D11*
X89949066Y-12979400D03*
%TD*%
D14*
%TO.C,C3*%
X78756933Y-2834000D03*
D15*
X78756933Y-5334000D03*
%TD*%
D14*
%TO.C,C6*%
X31445199Y-2910200D03*
D15*
X31445199Y-5410200D03*
%TD*%
D12*
%TO.C,J2*%
X99999800Y-23926800D03*
X92379800Y-23291800D03*
D13*
X96189800Y-19476800D03*
%TD*%
D12*
%TO.C,J4*%
X44831000Y-23926800D03*
X37211000Y-23291800D03*
D13*
X41021000Y-19476800D03*
%TD*%
D16*
%TO.C,J1*%
X48691800Y-12217400D03*
D17*
X48691800Y-9677400D03*
X51231800Y-12217400D03*
X51231800Y-9677400D03*
X53771800Y-12217400D03*
X53771800Y-9677400D03*
X56311800Y-12217400D03*
X56311800Y-9677400D03*
X58851800Y-12217400D03*
X58851800Y-9677400D03*
X61391800Y-12217400D03*
X61391800Y-9677400D03*
%TD*%
D10*
%TO.C,R4*%
X70103200Y-12979400D03*
D11*
X72643200Y-12979400D03*
%TD*%
D10*
%TO.C,R1*%
X96062000Y-12979400D03*
D11*
X98602000Y-12979400D03*
%TD*%
D14*
%TO.C,C2*%
X87409866Y-2834000D03*
D15*
X87409866Y-5334000D03*
%TD*%
D14*
%TO.C,C4*%
X70104000Y-2834000D03*
D15*
X70104000Y-5334000D03*
%TD*%
D10*
%TO.C,R7*%
X22888066Y-13004800D03*
D11*
X25428066Y-13004800D03*
%TD*%
D10*
%TO.C,R3*%
X78756133Y-12979400D03*
D11*
X81296133Y-12979400D03*
%TD*%
D14*
%TO.C,C1*%
X96062800Y-2834000D03*
D15*
X96062800Y-5334000D03*
%TD*%
D12*
%TO.C,J3*%
X72415400Y-23926800D03*
X64795400Y-23291800D03*
D13*
X68605400Y-19476800D03*
%TD*%
D12*
%TO.C,J9*%
X99999800Y-19481800D03*
X92379800Y-19481800D03*
D13*
X96189800Y-19481800D03*
%TD*%
D12*
%TO.C,J6*%
X17221200Y-19456400D03*
X9601200Y-19456400D03*
D13*
X13411200Y-19456400D03*
%TD*%
D12*
%TO.C,J8*%
X72415400Y-19481800D03*
X64795400Y-19481800D03*
D13*
X68605400Y-19481800D03*
%TD*%
D12*
%TO.C,J7*%
X44831000Y-19481800D03*
X37211000Y-19481800D03*
D13*
X41021000Y-19481800D03*
%TD*%
M02*
