M48
; DRILL file {KiCad 9.0.0} date 2025-03-26T11:50:56+1100
; FORMAT={-:-/ absolute / inch / decimal}
; #@! TF.CreationDate,2025-03-26T11:50:56+11:00
; #@! TF.GenerationSoftware,Kicad,Pcbnew,9.0.0
; #@! TF.FileFunction,Plated,1,2,PTH
FMAT,2
INCH
; #@! TA.AperFunction,Plated,PTH,ComponentDrill
T1C0.0276
; #@! TA.AperFunction,Plated,PTH,ComponentDrill
T2C0.0315
; #@! TA.AperFunction,Plated,PTH,ComponentDrill
T3C0.0433
; #@! TA.AperFunction,Plated,PTH,ComponentDrill
T4C0.0472
; #@! TA.AperFunction,Plated,PTH,ComponentDrill
T5C0.0630
%
G90
G05
T1
X0.5647Y-0.512
X0.6647Y-0.512
X0.9011Y-0.512
X1.0011Y-0.512
X1.2375Y-0.512
X1.3375Y-0.512
X1.574Y-0.512
X1.674Y-0.512
X2.76Y-0.511
X2.86Y-0.511
X3.1006Y-0.511
X3.2006Y-0.511
X3.4413Y-0.511
X3.5413Y-0.511
X3.782Y-0.511
X3.882Y-0.511
T2
X0.5656Y-0.1146
X0.5656Y-0.213
X0.9018Y-0.1146
X0.9018Y-0.213
X1.238Y-0.1146
X1.238Y-0.213
X1.5742Y-0.1146
X1.5742Y-0.213
X2.76Y-0.1116
X2.76Y-0.21
X3.1007Y-0.1116
X3.1007Y-0.21
X3.4413Y-0.1116
X3.4413Y-0.21
X3.782Y-0.1116
X3.782Y-0.21
T3
X1.917Y-0.381
X1.917Y-0.481
X2.017Y-0.381
X2.017Y-0.481
X2.117Y-0.381
X2.117Y-0.481
X2.217Y-0.381
X2.217Y-0.481
X2.317Y-0.381
X2.317Y-0.481
X2.417Y-0.381
X2.417Y-0.481
T4
X0.528Y-0.766
X0.528Y-0.766
X1.615Y-0.7668
X1.615Y-0.767
X2.701Y-0.7668
X2.701Y-0.767
X3.787Y-0.7668
X3.787Y-0.767
T5
X0.378Y-0.766
X0.378Y-0.9162
X0.678Y-0.766
X0.678Y-0.9412
X1.465Y-0.767
X1.465Y-0.917
X1.765Y-0.767
X1.765Y-0.942
X2.551Y-0.767
X2.551Y-0.917
X2.851Y-0.767
X2.851Y-0.942
X3.637Y-0.767
X3.637Y-0.917
X3.937Y-0.767
X3.937Y-0.942
M30
