%TF.GenerationSoftware,KiCad,Pcbnew,9.0.0*%
%TF.CreationDate,2025-03-26T11:50:56+11:00*%
%TF.ProjectId,Wing Board 4 XLR MK II,57696e67-2042-46f6-9172-64203420584c,rev?*%
%TF.SameCoordinates,Original*%
%TF.FileFunction,Copper,L2,Bot*%
%TF.FilePolarity,Positive*%
%FSLAX46Y46*%
G04 Gerber Fmt 4.6, Leading zero omitted, Abs format (unit mm)*
G04 Created by KiCad (PCBNEW 9.0.0) date 2025-03-26 11:50:56*
%MOMM*%
%LPD*%
G01*
G04 APERTURE LIST*
%TA.AperFunction,ComponentPad*%
%ADD10C,1.400000*%
%TD*%
%TA.AperFunction,ComponentPad*%
%ADD11O,1.400000X1.400000*%
%TD*%
%TA.AperFunction,ComponentPad*%
%ADD12C,3.400000*%
%TD*%
%TA.AperFunction,ComponentPad*%
%ADD13C,2.900000*%
%TD*%
%TA.AperFunction,ComponentPad*%
%ADD14R,1.600000X1.600000*%
%TD*%
%TA.AperFunction,ComponentPad*%
%ADD15C,1.600000*%
%TD*%
%TA.AperFunction,ComponentPad*%
%ADD16R,1.650000X1.650000*%
%TD*%
%TA.AperFunction,ComponentPad*%
%ADD17C,1.650000*%
%TD*%
%TA.AperFunction,Conductor*%
%ADD18C,0.406400*%
%TD*%
G04 APERTURE END LIST*
D10*
%TO.P,R6,1*%
%TO.N,/XC+*%
X31433432Y-13004800D03*
D11*
%TO.P,R6,2*%
%TO.N,AGND*%
X33973432Y-13004800D03*
%TD*%
D12*
%TO.P,J5,1*%
%TO.N,AGND*%
X17221200Y-23906400D03*
%TO.P,J5,2*%
%TO.N,/XD+*%
X9601200Y-23271400D03*
D13*
%TO.P,J5,3*%
%TO.N,/XD-*%
X13411200Y-19456400D03*
%TD*%
D10*
%TO.P,R8,1*%
%TO.N,/XD+*%
X14342700Y-13004800D03*
D11*
%TO.P,R8,2*%
%TO.N,AGND*%
X16882700Y-13004800D03*
%TD*%
D10*
%TO.P,R5,1*%
%TO.N,/XC-*%
X39978800Y-13004800D03*
D11*
%TO.P,R5,2*%
%TO.N,AGND*%
X42518800Y-13004800D03*
%TD*%
D14*
%TO.P,C8,1*%
%TO.N,/D+*%
X14366667Y-2910200D03*
D15*
%TO.P,C8,2*%
%TO.N,/XD+*%
X14366667Y-5410200D03*
%TD*%
D14*
%TO.P,C5,1*%
%TO.N,/C-*%
X39984467Y-2910200D03*
D15*
%TO.P,C5,2*%
%TO.N,/XC-*%
X39984467Y-5410200D03*
%TD*%
D14*
%TO.P,C7,1*%
%TO.N,/D-*%
X22905933Y-2910200D03*
D15*
%TO.P,C7,2*%
%TO.N,/XD-*%
X22905933Y-5410200D03*
%TD*%
D10*
%TO.P,R2,1*%
%TO.N,/XA+*%
X87409066Y-12979400D03*
D11*
%TO.P,R2,2*%
%TO.N,AGND*%
X89949066Y-12979400D03*
%TD*%
D14*
%TO.P,C3,1*%
%TO.N,/B-*%
X78756933Y-2834000D03*
D15*
%TO.P,C3,2*%
%TO.N,/XB-*%
X78756933Y-5334000D03*
%TD*%
D14*
%TO.P,C6,1*%
%TO.N,/C+*%
X31445199Y-2910200D03*
D15*
%TO.P,C6,2*%
%TO.N,/XC+*%
X31445199Y-5410200D03*
%TD*%
D12*
%TO.P,J2,1*%
%TO.N,AGND*%
X99999800Y-23926800D03*
%TO.P,J2,2*%
%TO.N,/XA+*%
X92379800Y-23291800D03*
D13*
%TO.P,J2,3*%
%TO.N,/XA-*%
X96189800Y-19476800D03*
%TD*%
D12*
%TO.P,J4,1*%
%TO.N,AGND*%
X44831000Y-23926800D03*
%TO.P,J4,2*%
%TO.N,/XC+*%
X37211000Y-23291800D03*
D13*
%TO.P,J4,3*%
%TO.N,/XC-*%
X41021000Y-19476800D03*
%TD*%
D16*
%TO.P,J1,1,Pin_1*%
%TO.N,V+*%
X48691800Y-12217400D03*
D17*
%TO.P,J1,2,Pin_2*%
%TO.N,V-*%
X48691800Y-9677400D03*
%TO.P,J1,3,Pin_3*%
%TO.N,/D+*%
X51231800Y-12217400D03*
%TO.P,J1,4,Pin_4*%
%TO.N,/D-*%
X51231800Y-9677400D03*
%TO.P,J1,5,Pin_5*%
%TO.N,/C+*%
X53771800Y-12217400D03*
%TO.P,J1,6,Pin_6*%
%TO.N,/C-*%
X53771800Y-9677400D03*
%TO.P,J1,7,Pin_7*%
%TO.N,/B+*%
X56311800Y-12217400D03*
%TO.P,J1,8,Pin_8*%
%TO.N,/B-*%
X56311800Y-9677400D03*
%TO.P,J1,9,Pin_9*%
%TO.N,/A+*%
X58851800Y-12217400D03*
%TO.P,J1,10,Pin_10*%
%TO.N,/A-*%
X58851800Y-9677400D03*
%TO.P,J1,11,Pin_11*%
%TO.N,AGND*%
X61391800Y-12217400D03*
%TO.P,J1,12,Pin_12*%
X61391800Y-9677400D03*
%TD*%
D10*
%TO.P,R4,1*%
%TO.N,/XB+*%
X70103200Y-12979400D03*
D11*
%TO.P,R4,2*%
%TO.N,AGND*%
X72643200Y-12979400D03*
%TD*%
D10*
%TO.P,R1,1*%
%TO.N,/XA-*%
X96062000Y-12979400D03*
D11*
%TO.P,R1,2*%
%TO.N,AGND*%
X98602000Y-12979400D03*
%TD*%
D14*
%TO.P,C2,1*%
%TO.N,/A+*%
X87409866Y-2834000D03*
D15*
%TO.P,C2,2*%
%TO.N,/XA+*%
X87409866Y-5334000D03*
%TD*%
D14*
%TO.P,C4,1*%
%TO.N,/B+*%
X70104000Y-2834000D03*
D15*
%TO.P,C4,2*%
%TO.N,/XB+*%
X70104000Y-5334000D03*
%TD*%
D10*
%TO.P,R7,1*%
%TO.N,/XD-*%
X22888066Y-13004800D03*
D11*
%TO.P,R7,2*%
%TO.N,AGND*%
X25428066Y-13004800D03*
%TD*%
D10*
%TO.P,R3,1*%
%TO.N,/XB-*%
X78756133Y-12979400D03*
D11*
%TO.P,R3,2*%
%TO.N,AGND*%
X81296133Y-12979400D03*
%TD*%
D14*
%TO.P,C1,1*%
%TO.N,/A-*%
X96062800Y-2834000D03*
D15*
%TO.P,C1,2*%
%TO.N,/XA-*%
X96062800Y-5334000D03*
%TD*%
D12*
%TO.P,J3,1*%
%TO.N,AGND*%
X72415400Y-23926800D03*
%TO.P,J3,2*%
%TO.N,/XB+*%
X64795400Y-23291800D03*
D13*
%TO.P,J3,3*%
%TO.N,/XB-*%
X68605400Y-19476800D03*
%TD*%
D12*
%TO.P,J9,1*%
%TO.N,AGND*%
X99999800Y-19481800D03*
%TO.P,J9,2*%
%TO.N,/XA+*%
X92379800Y-19481800D03*
D13*
%TO.P,J9,3*%
%TO.N,/XA-*%
X96189800Y-19481800D03*
%TD*%
D12*
%TO.P,J6,1*%
%TO.N,AGND*%
X17221200Y-19456400D03*
%TO.P,J6,2*%
%TO.N,/XD+*%
X9601200Y-19456400D03*
D13*
%TO.P,J6,3*%
%TO.N,/XD-*%
X13411200Y-19456400D03*
%TD*%
D12*
%TO.P,J8,1*%
%TO.N,AGND*%
X72415400Y-19481800D03*
%TO.P,J8,2*%
%TO.N,/XB+*%
X64795400Y-19481800D03*
D13*
%TO.P,J8,3*%
%TO.N,/XB-*%
X68605400Y-19481800D03*
%TD*%
D12*
%TO.P,J7,1*%
%TO.N,AGND*%
X44831000Y-19481800D03*
%TO.P,J7,2*%
%TO.N,/XC+*%
X37211000Y-19481800D03*
D13*
%TO.P,J7,3*%
%TO.N,/XC-*%
X41021000Y-19481800D03*
%TD*%
D18*
%TO.N,/XD+*%
X9601200Y-19456400D02*
X9601200Y-23271400D01*
X12192000Y-13004800D02*
X9601200Y-15595600D01*
X9601200Y-15595600D02*
X9601200Y-19456400D01*
X14342700Y-13004800D02*
X12192000Y-13004800D01*
X14366667Y-5410200D02*
X14366667Y-12980833D01*
%TO.N,/XD-*%
X22905933Y-5410200D02*
X22905933Y-12986933D01*
X21488400Y-15849600D02*
X14528800Y-15849600D01*
X22888066Y-14449934D02*
X21488400Y-15849600D01*
X13411200Y-16967200D02*
X13411200Y-19456400D01*
X22888066Y-13004800D02*
X22888066Y-14449934D01*
X14528800Y-15849600D02*
X13411200Y-16967200D01*
%TO.N,/XC+*%
X34010600Y-19481800D02*
X37211000Y-19481800D01*
X31433432Y-16904632D02*
X34010600Y-19481800D01*
X31445199Y-5410200D02*
X31445199Y-12993033D01*
X37211000Y-19481800D02*
X37211000Y-23291734D01*
X31433432Y-13004800D02*
X31433432Y-16904632D01*
%TO.N,/XB+*%
X67437000Y-12979400D02*
X64820800Y-15595600D01*
X70104000Y-5334000D02*
X70104000Y-12978600D01*
X64820800Y-15595600D02*
X64820800Y-19481800D01*
X70103200Y-12979400D02*
X67437000Y-12979400D01*
X64820800Y-19481800D02*
X64820800Y-23266532D01*
%TO.N,/XC-*%
X41021000Y-16814800D02*
X40005000Y-15798800D01*
X39984467Y-5410200D02*
X39984467Y-12999133D01*
X41021000Y-19481800D02*
X41021000Y-16814800D01*
X40005000Y-15798800D02*
X40005000Y-13031000D01*
%TO.N,/XA-*%
X96062000Y-12979400D02*
X96062000Y-19348800D01*
X96062800Y-5334000D02*
X96062800Y-12978600D01*
%TO.N,/XB-*%
X78756133Y-12979400D02*
X78756133Y-14665067D01*
X77546200Y-15875000D02*
X69875400Y-15875000D01*
X68605532Y-17144868D02*
X68605532Y-19476800D01*
X78756933Y-5334000D02*
X78756933Y-12978600D01*
X69875400Y-15875000D02*
X68605532Y-17144868D01*
X78756133Y-14665067D02*
X77546200Y-15875000D01*
%TO.N,/XA+*%
X92380000Y-19482000D02*
X92380000Y-23291800D01*
X87409066Y-12979400D02*
X87409066Y-17152666D01*
X87409866Y-5334000D02*
X87409866Y-12978600D01*
X87409066Y-17152666D02*
X89738200Y-19481800D01*
X89738200Y-19481800D02*
X92379800Y-19481800D01*
%TO.N,/C-*%
X53771800Y-5537200D02*
X51155600Y-2921000D01*
X53771800Y-9677400D02*
X53771800Y-5537200D01*
X51155600Y-2921000D02*
X39995267Y-2921000D01*
%TO.N,/A-*%
X96062800Y-2540000D02*
X94284800Y-762000D01*
X94284800Y-762000D02*
X61493400Y-762000D01*
X61493400Y-762000D02*
X58851800Y-3403600D01*
X58851800Y-3403600D02*
X58851800Y-9677400D01*
%TD*%
%TA.AperFunction,Conductor*%
%TO.N,AGND*%
G36*
X60803450Y-520185D02*
G01*
X60849205Y-572989D01*
X60859149Y-642147D01*
X60830124Y-705703D01*
X60824092Y-712181D01*
X58444901Y-3091370D01*
X58444899Y-3091373D01*
X58429945Y-3117274D01*
X58412614Y-3147291D01*
X58377953Y-3207324D01*
X58343300Y-3336655D01*
X58343300Y-8591941D01*
X58323615Y-8658980D01*
X58275596Y-8702425D01*
X58259396Y-8710679D01*
X58187426Y-8762968D01*
X58115459Y-8815256D01*
X58115457Y-8815258D01*
X58115456Y-8815258D01*
X57989658Y-8941056D01*
X57989658Y-8941057D01*
X57989656Y-8941059D01*
X57944745Y-9002873D01*
X57885081Y-9084993D01*
X57804308Y-9243517D01*
X57749332Y-9412719D01*
X57721500Y-9588443D01*
X57721500Y-9766356D01*
X57749332Y-9942080D01*
X57804308Y-10111282D01*
X57840432Y-10182178D01*
X57885081Y-10269806D01*
X57989656Y-10413741D01*
X58115459Y-10539544D01*
X58259394Y-10644119D01*
X58417915Y-10724890D01*
X58417917Y-10724891D01*
X58502518Y-10752379D01*
X58587121Y-10779868D01*
X58762843Y-10807700D01*
X58762844Y-10807700D01*
X58940756Y-10807700D01*
X58940757Y-10807700D01*
X59116479Y-10779868D01*
X59285685Y-10724890D01*
X59444206Y-10644119D01*
X59588141Y-10539544D01*
X59713944Y-10413741D01*
X59818519Y-10269806D01*
X59899290Y-10111285D01*
X59954268Y-9942079D01*
X59982100Y-9766357D01*
X59982100Y-9592481D01*
X60312800Y-9592481D01*
X60312800Y-9762318D01*
X60339368Y-9930066D01*
X60391853Y-10091596D01*
X60438007Y-10182177D01*
X60847839Y-9772347D01*
X60879282Y-9889692D01*
X60951690Y-10015108D01*
X61054092Y-10117510D01*
X61179508Y-10189918D01*
X61296851Y-10221360D01*
X60887020Y-10631190D01*
X60977609Y-10677347D01*
X61139133Y-10729831D01*
X61306882Y-10756400D01*
X61476718Y-10756400D01*
X61644466Y-10729831D01*
X61805993Y-10677346D01*
X61805997Y-10677345D01*
X61896578Y-10631190D01*
X61486749Y-10221360D01*
X61604092Y-10189918D01*
X61729508Y-10117510D01*
X61831910Y-10015108D01*
X61904318Y-9889692D01*
X61935760Y-9772348D01*
X62345590Y-10182178D01*
X62391745Y-10091597D01*
X62391746Y-10091593D01*
X62444231Y-9930066D01*
X62470800Y-9762318D01*
X62470800Y-9592481D01*
X62444231Y-9424733D01*
X62391747Y-9263209D01*
X62345590Y-9172620D01*
X61935760Y-9582450D01*
X61904318Y-9465108D01*
X61831910Y-9339692D01*
X61729508Y-9237290D01*
X61604092Y-9164882D01*
X61486748Y-9133439D01*
X61896578Y-8723608D01*
X61805996Y-8677453D01*
X61644466Y-8624968D01*
X61476718Y-8598400D01*
X61306882Y-8598400D01*
X61139132Y-8624969D01*
X61139129Y-8624969D01*
X60977610Y-8677450D01*
X60887021Y-8723608D01*
X61296852Y-9133439D01*
X61179508Y-9164882D01*
X61054092Y-9237290D01*
X60951690Y-9339692D01*
X60879282Y-9465108D01*
X60847839Y-9582452D01*
X60438008Y-9172621D01*
X60391850Y-9263210D01*
X60339369Y-9424729D01*
X60339369Y-9424732D01*
X60312800Y-9592481D01*
X59982100Y-9592481D01*
X59982100Y-9588443D01*
X59954268Y-9412721D01*
X59926779Y-9328118D01*
X59899291Y-9243517D01*
X59818518Y-9084993D01*
X59713944Y-8941059D01*
X59588141Y-8815256D01*
X59444206Y-8710681D01*
X59444205Y-8710680D01*
X59444203Y-8710679D01*
X59428004Y-8702425D01*
X59377208Y-8654450D01*
X59360300Y-8591941D01*
X59360300Y-4186872D01*
X103409499Y-4186872D01*
X103409499Y-4449127D01*
X103425035Y-4567124D01*
X103443729Y-4709116D01*
X103511601Y-4962420D01*
X103511604Y-4962427D01*
X103611954Y-5204693D01*
X103611959Y-5204704D01*
X103743071Y-5431795D01*
X103743082Y-5431811D01*
X103902715Y-5639850D01*
X103902721Y-5639857D01*
X104088142Y-5825278D01*
X104088149Y-5825284D01*
X104236287Y-5938954D01*
X104296197Y-5984924D01*
X104296204Y-5984928D01*
X104523295Y-6116040D01*
X104523300Y-6116042D01*
X104523303Y-6116044D01*
X104765580Y-6216399D01*
X105018884Y-6284271D01*
X105278880Y-6318501D01*
X105278887Y-6318501D01*
X105541113Y-6318501D01*
X105541120Y-6318501D01*
X105801116Y-6284271D01*
X106054420Y-6216399D01*
X106296697Y-6116044D01*
X106523803Y-5984924D01*
X106731852Y-5825283D01*
X106917283Y-5639852D01*
X107076924Y-5431803D01*
X107208044Y-5204697D01*
X107308399Y-4962420D01*
X107376271Y-4709116D01*
X107410501Y-4449120D01*
X107410501Y-4186880D01*
X107376271Y-3926884D01*
X107308399Y-3673580D01*
X107208044Y-3431303D01*
X107208042Y-3431300D01*
X107208040Y-3431295D01*
X107076928Y-3204204D01*
X107076924Y-3204197D01*
X106990354Y-3091376D01*
X106917284Y-2996149D01*
X106917278Y-2996142D01*
X106731857Y-2810721D01*
X106731850Y-2810715D01*
X106523811Y-2651082D01*
X106523809Y-2651080D01*
X106523803Y-2651076D01*
X106523798Y-2651073D01*
X106523795Y-2651071D01*
X106296704Y-2519959D01*
X106296693Y-2519954D01*
X106054427Y-2419604D01*
X106054428Y-2419604D01*
X106054420Y-2419601D01*
X106027918Y-2412500D01*
X105954452Y-2392815D01*
X105801116Y-2351729D01*
X105757662Y-2346008D01*
X105541127Y-2317499D01*
X105541120Y-2317499D01*
X105278880Y-2317499D01*
X105278872Y-2317499D01*
X105031402Y-2350080D01*
X105018884Y-2351729D01*
X104934449Y-2374353D01*
X104765586Y-2419599D01*
X104765572Y-2419604D01*
X104523306Y-2519954D01*
X104523295Y-2519959D01*
X104296204Y-2651071D01*
X104296188Y-2651082D01*
X104088149Y-2810715D01*
X104088142Y-2810721D01*
X103902721Y-2996142D01*
X103902715Y-2996149D01*
X103743082Y-3204188D01*
X103743071Y-3204204D01*
X103611959Y-3431295D01*
X103611954Y-3431306D01*
X103511604Y-3673572D01*
X103511599Y-3673586D01*
X103489576Y-3755778D01*
X103454758Y-3885725D01*
X103443730Y-3926881D01*
X103443728Y-3926892D01*
X103409499Y-4186872D01*
X59360300Y-4186872D01*
X59360300Y-3665589D01*
X59379985Y-3598550D01*
X59396619Y-3577908D01*
X60986108Y-1988419D01*
X68998700Y-1988419D01*
X68998700Y-3679571D01*
X68998702Y-3679594D01*
X69001661Y-3705106D01*
X69001662Y-3705109D01*
X69047765Y-3809524D01*
X69047766Y-3809525D01*
X69128475Y-3890234D01*
X69232891Y-3936338D01*
X69258421Y-3939300D01*
X70949578Y-3939299D01*
X70975109Y-3936338D01*
X71079525Y-3890234D01*
X71160234Y-3809525D01*
X71206338Y-3705109D01*
X71209300Y-3679579D01*
X71209299Y-1988422D01*
X71209299Y-1988419D01*
X77651633Y-1988419D01*
X77651633Y-3679571D01*
X77651635Y-3679594D01*
X77654594Y-3705106D01*
X77654595Y-3705109D01*
X77700698Y-3809524D01*
X77700699Y-3809525D01*
X77781408Y-3890234D01*
X77885824Y-3936338D01*
X77911354Y-3939300D01*
X79602511Y-3939299D01*
X79628042Y-3936338D01*
X79732458Y-3890234D01*
X79813167Y-3809525D01*
X79859271Y-3705109D01*
X79862233Y-3679579D01*
X79862232Y-1988422D01*
X79862232Y-1988419D01*
X86304566Y-1988419D01*
X86304566Y-3679571D01*
X86304568Y-3679594D01*
X86307527Y-3705106D01*
X86307528Y-3705109D01*
X86353631Y-3809524D01*
X86353632Y-3809525D01*
X86434341Y-3890234D01*
X86538757Y-3936338D01*
X86564287Y-3939300D01*
X88255444Y-3939299D01*
X88280975Y-3936338D01*
X88385391Y-3890234D01*
X88466100Y-3809525D01*
X88512204Y-3705109D01*
X88515166Y-3679579D01*
X88515165Y-1988422D01*
X88512204Y-1962891D01*
X88466100Y-1858475D01*
X88385391Y-1777766D01*
X88385389Y-1777765D01*
X88280976Y-1731662D01*
X88255445Y-1728700D01*
X86564294Y-1728700D01*
X86564271Y-1728702D01*
X86538759Y-1731661D01*
X86538756Y-1731662D01*
X86434341Y-1777765D01*
X86353632Y-1858474D01*
X86307528Y-1962888D01*
X86307528Y-1962890D01*
X86304566Y-1988419D01*
X79862232Y-1988419D01*
X79862232Y-1988416D01*
X79859271Y-1962893D01*
X79859271Y-1962891D01*
X79813167Y-1858475D01*
X79732458Y-1777766D01*
X79732456Y-1777765D01*
X79628043Y-1731662D01*
X79602512Y-1728700D01*
X77911361Y-1728700D01*
X77911338Y-1728702D01*
X77885826Y-1731661D01*
X77885823Y-1731662D01*
X77781408Y-1777765D01*
X77700699Y-1858474D01*
X77654595Y-1962888D01*
X77654595Y-1962890D01*
X77651633Y-1988419D01*
X71209299Y-1988419D01*
X71209299Y-1988416D01*
X71206338Y-1962893D01*
X71206338Y-1962891D01*
X71160234Y-1858475D01*
X71079525Y-1777766D01*
X71079523Y-1777765D01*
X70975110Y-1731662D01*
X70949579Y-1728700D01*
X69258428Y-1728700D01*
X69258405Y-1728702D01*
X69232893Y-1731661D01*
X69232890Y-1731662D01*
X69128475Y-1777765D01*
X69047766Y-1858474D01*
X69001662Y-1962888D01*
X69001662Y-1962890D01*
X68998700Y-1988419D01*
X60986108Y-1988419D01*
X61667708Y-1306819D01*
X61729031Y-1273334D01*
X61755389Y-1270500D01*
X94022810Y-1270500D01*
X94089849Y-1290185D01*
X94110491Y-1306819D01*
X94921181Y-2117508D01*
X94954666Y-2178831D01*
X94957500Y-2205189D01*
X94957500Y-3679571D01*
X94957502Y-3679594D01*
X94960461Y-3705106D01*
X94960462Y-3705109D01*
X95006565Y-3809524D01*
X95006566Y-3809525D01*
X95087275Y-3890234D01*
X95191691Y-3936338D01*
X95217221Y-3939300D01*
X96908378Y-3939299D01*
X96933909Y-3936338D01*
X97038325Y-3890234D01*
X97119034Y-3809525D01*
X97165138Y-3705109D01*
X97168100Y-3679579D01*
X97168099Y-1988422D01*
X97165138Y-1962891D01*
X97119034Y-1858475D01*
X97038325Y-1777766D01*
X97038323Y-1777765D01*
X96933910Y-1731662D01*
X96908380Y-1728700D01*
X96908379Y-1728700D01*
X96021989Y-1728700D01*
X95954950Y-1709015D01*
X95934308Y-1692381D01*
X94954109Y-712181D01*
X94920624Y-650858D01*
X94925608Y-581166D01*
X94967480Y-525233D01*
X95032944Y-500816D01*
X95041790Y-500500D01*
X109375447Y-500500D01*
X109442486Y-520185D01*
X109488241Y-572989D01*
X109499447Y-624500D01*
X109499447Y-35370700D01*
X109479762Y-35437739D01*
X109426958Y-35483494D01*
X109375447Y-35494700D01*
X624500Y-35494700D01*
X557461Y-35475015D01*
X511706Y-35422211D01*
X500500Y-35370700D01*
X500500Y-33322930D01*
X8550700Y-33322930D01*
X8550700Y-33529869D01*
X8591068Y-33732812D01*
X8591070Y-33732820D01*
X8670259Y-33923998D01*
X8687231Y-33949398D01*
X8785224Y-34096057D01*
X8931542Y-34242375D01*
X8931545Y-34242377D01*
X9103602Y-34357341D01*
X9294780Y-34436530D01*
X9497730Y-34476899D01*
X9497734Y-34476900D01*
X9497735Y-34476900D01*
X9704666Y-34476900D01*
X9704667Y-34476899D01*
X9907620Y-34436530D01*
X10098798Y-34357341D01*
X10270855Y-34242377D01*
X10417177Y-34096055D01*
X10532141Y-33923998D01*
X10611330Y-33732820D01*
X10651700Y-33529865D01*
X10651700Y-33327930D01*
X16170700Y-33327930D01*
X16170700Y-33534869D01*
X16210075Y-33732820D01*
X16211070Y-33737820D01*
X16290259Y-33928998D01*
X16303890Y-33949398D01*
X16405224Y-34101057D01*
X16551542Y-34247375D01*
X16551545Y-34247377D01*
X16723602Y-34362341D01*
X16914780Y-34441530D01*
X17092593Y-34476899D01*
X17117730Y-34481899D01*
X17117734Y-34481900D01*
X17117735Y-34481900D01*
X17324666Y-34481900D01*
X17324667Y-34481899D01*
X17527620Y-34441530D01*
X17718798Y-34362341D01*
X17890855Y-34247377D01*
X18037177Y-34101055D01*
X18152141Y-33928998D01*
X18231330Y-33737820D01*
X18271700Y-33534865D01*
X18271700Y-33348330D01*
X36160500Y-33348330D01*
X36160500Y-33555269D01*
X36200868Y-33758212D01*
X36200870Y-33758220D01*
X36280058Y-33949396D01*
X36395024Y-34121457D01*
X36541342Y-34267775D01*
X36541345Y-34267777D01*
X36713402Y-34382741D01*
X36904580Y-34461930D01*
X37107530Y-34502299D01*
X37107534Y-34502300D01*
X37107535Y-34502300D01*
X37314466Y-34502300D01*
X37314467Y-34502299D01*
X37517420Y-34461930D01*
X37708598Y-34382741D01*
X37880655Y-34267777D01*
X38026977Y-34121455D01*
X38141941Y-33949398D01*
X38221130Y-33758220D01*
X38261500Y-33555265D01*
X38261500Y-33348335D01*
X38261499Y-33348330D01*
X43780500Y-33348330D01*
X43780500Y-33555269D01*
X43820868Y-33758212D01*
X43820870Y-33758220D01*
X43900058Y-33949396D01*
X44015024Y-34121457D01*
X44161342Y-34267775D01*
X44161345Y-34267777D01*
X44333402Y-34382741D01*
X44524580Y-34461930D01*
X44727530Y-34502299D01*
X44727534Y-34502300D01*
X44727535Y-34502300D01*
X44934466Y-34502300D01*
X44934467Y-34502299D01*
X45137420Y-34461930D01*
X45328598Y-34382741D01*
X45500655Y-34267777D01*
X45646977Y-34121455D01*
X45761941Y-33949398D01*
X45841130Y-33758220D01*
X45881500Y-33555265D01*
X45881500Y-33348335D01*
X45881499Y-33348330D01*
X63744900Y-33348330D01*
X63744900Y-33555269D01*
X63785268Y-33758212D01*
X63785270Y-33758220D01*
X63864458Y-33949396D01*
X63979424Y-34121457D01*
X64125742Y-34267775D01*
X64125745Y-34267777D01*
X64297802Y-34382741D01*
X64488980Y-34461930D01*
X64691930Y-34502299D01*
X64691934Y-34502300D01*
X64691935Y-34502300D01*
X64898866Y-34502300D01*
X64898867Y-34502299D01*
X65101820Y-34461930D01*
X65292998Y-34382741D01*
X65465055Y-34267777D01*
X65611377Y-34121455D01*
X65726341Y-33949398D01*
X65805530Y-33758220D01*
X65845900Y-33555265D01*
X65845900Y-33348335D01*
X65845899Y-33348330D01*
X71364900Y-33348330D01*
X71364900Y-33555269D01*
X71405268Y-33758212D01*
X71405270Y-33758220D01*
X71484458Y-33949396D01*
X71599424Y-34121457D01*
X71745742Y-34267775D01*
X71745745Y-34267777D01*
X71917802Y-34382741D01*
X72108980Y-34461930D01*
X72311930Y-34502299D01*
X72311934Y-34502300D01*
X72311935Y-34502300D01*
X72518866Y-34502300D01*
X72518867Y-34502299D01*
X72721820Y-34461930D01*
X72912998Y-34382741D01*
X73085055Y-34267777D01*
X73231377Y-34121455D01*
X73346341Y-33949398D01*
X73425530Y-33758220D01*
X73465900Y-33555265D01*
X73465900Y-33348335D01*
X73465899Y-33348330D01*
X91329300Y-33348330D01*
X91329300Y-33555269D01*
X91369668Y-33758212D01*
X91369670Y-33758220D01*
X91448858Y-33949396D01*
X91563824Y-34121457D01*
X91710142Y-34267775D01*
X91710145Y-34267777D01*
X91882202Y-34382741D01*
X92073380Y-34461930D01*
X92276330Y-34502299D01*
X92276334Y-34502300D01*
X92276335Y-34502300D01*
X92483266Y-34502300D01*
X92483267Y-34502299D01*
X92686220Y-34461930D01*
X92877398Y-34382741D01*
X93049455Y-34267777D01*
X93195777Y-34121455D01*
X93310741Y-33949398D01*
X93389930Y-33758220D01*
X93430300Y-33555265D01*
X93430300Y-33348335D01*
X93430299Y-33348330D01*
X98949300Y-33348330D01*
X98949300Y-33555269D01*
X98989668Y-33758212D01*
X98989670Y-33758220D01*
X99068858Y-33949396D01*
X99183824Y-34121457D01*
X99330142Y-34267775D01*
X99330145Y-34267777D01*
X99502202Y-34382741D01*
X99693380Y-34461930D01*
X99896330Y-34502299D01*
X99896334Y-34502300D01*
X99896335Y-34502300D01*
X100103266Y-34502300D01*
X100103267Y-34502299D01*
X100306220Y-34461930D01*
X100497398Y-34382741D01*
X100669455Y-34267777D01*
X100815777Y-34121455D01*
X100930741Y-33949398D01*
X101009930Y-33758220D01*
X101050300Y-33555265D01*
X101050300Y-33348335D01*
X101009930Y-33145380D01*
X100930741Y-32954202D01*
X100815777Y-32782145D01*
X100815775Y-32782142D01*
X100669457Y-32635824D01*
X100583426Y-32578341D01*
X100497398Y-32520859D01*
X100448148Y-32500459D01*
X100306220Y-32441670D01*
X100306212Y-32441668D01*
X100103269Y-32401300D01*
X100103265Y-32401300D01*
X99896335Y-32401300D01*
X99896330Y-32401300D01*
X99693387Y-32441668D01*
X99693379Y-32441670D01*
X99502203Y-32520858D01*
X99330142Y-32635824D01*
X99183824Y-32782142D01*
X99068858Y-32954203D01*
X98989670Y-33145379D01*
X98989668Y-33145387D01*
X98949300Y-33348330D01*
X93430299Y-33348330D01*
X93389930Y-33145380D01*
X93310741Y-32954202D01*
X93195777Y-32782145D01*
X93195775Y-32782142D01*
X93049457Y-32635824D01*
X92963426Y-32578341D01*
X92877398Y-32520859D01*
X92828148Y-32500459D01*
X92686220Y-32441670D01*
X92686212Y-32441668D01*
X92483269Y-32401300D01*
X92483265Y-32401300D01*
X92276335Y-32401300D01*
X92276330Y-32401300D01*
X92073387Y-32441668D01*
X92073379Y-32441670D01*
X91882203Y-32520858D01*
X91710142Y-32635824D01*
X91563824Y-32782142D01*
X91448858Y-32954203D01*
X91369670Y-33145379D01*
X91369668Y-33145387D01*
X91329300Y-33348330D01*
X73465899Y-33348330D01*
X73425530Y-33145380D01*
X73346341Y-32954202D01*
X73231377Y-32782145D01*
X73231375Y-32782142D01*
X73085057Y-32635824D01*
X72999026Y-32578341D01*
X72912998Y-32520859D01*
X72863748Y-32500459D01*
X72721820Y-32441670D01*
X72721812Y-32441668D01*
X72518869Y-32401300D01*
X72518865Y-32401300D01*
X72311935Y-32401300D01*
X72311930Y-32401300D01*
X72108987Y-32441668D01*
X72108979Y-32441670D01*
X71917803Y-32520858D01*
X71745742Y-32635824D01*
X71599424Y-32782142D01*
X71484458Y-32954203D01*
X71405270Y-33145379D01*
X71405268Y-33145387D01*
X71364900Y-33348330D01*
X65845899Y-33348330D01*
X65805530Y-33145380D01*
X65726341Y-32954202D01*
X65611377Y-32782145D01*
X65611375Y-32782142D01*
X65465057Y-32635824D01*
X65379026Y-32578341D01*
X65292998Y-32520859D01*
X65243748Y-32500459D01*
X65101820Y-32441670D01*
X65101812Y-32441668D01*
X64898869Y-32401300D01*
X64898865Y-32401300D01*
X64691935Y-32401300D01*
X64691930Y-32401300D01*
X64488987Y-32441668D01*
X64488979Y-32441670D01*
X64297803Y-32520858D01*
X64125742Y-32635824D01*
X63979424Y-32782142D01*
X63864458Y-32954203D01*
X63785270Y-33145379D01*
X63785268Y-33145387D01*
X63744900Y-33348330D01*
X45881499Y-33348330D01*
X45841130Y-33145380D01*
X45761941Y-32954202D01*
X45646977Y-32782145D01*
X45646975Y-32782142D01*
X45500657Y-32635824D01*
X45414626Y-32578341D01*
X45328598Y-32520859D01*
X45279348Y-32500459D01*
X45137420Y-32441670D01*
X45137412Y-32441668D01*
X44934469Y-32401300D01*
X44934465Y-32401300D01*
X44727535Y-32401300D01*
X44727530Y-32401300D01*
X44524587Y-32441668D01*
X44524579Y-32441670D01*
X44333403Y-32520858D01*
X44161342Y-32635824D01*
X44015024Y-32782142D01*
X43900058Y-32954203D01*
X43820870Y-33145379D01*
X43820868Y-33145387D01*
X43780500Y-33348330D01*
X38261499Y-33348330D01*
X38221130Y-33145380D01*
X38141941Y-32954202D01*
X38026977Y-32782145D01*
X38026975Y-32782142D01*
X37880657Y-32635824D01*
X37794626Y-32578341D01*
X37708598Y-32520859D01*
X37659348Y-32500459D01*
X37517420Y-32441670D01*
X37517412Y-32441668D01*
X37314469Y-32401300D01*
X37314465Y-32401300D01*
X37107535Y-32401300D01*
X37107530Y-32401300D01*
X36904587Y-32441668D01*
X36904579Y-32441670D01*
X36713403Y-32520858D01*
X36541342Y-32635824D01*
X36395024Y-32782142D01*
X36280058Y-32954203D01*
X36200870Y-33145379D01*
X36200868Y-33145387D01*
X36160500Y-33348330D01*
X18271700Y-33348330D01*
X18271700Y-33327935D01*
X18231330Y-33124980D01*
X18152141Y-32933802D01*
X18037177Y-32761745D01*
X18037175Y-32761742D01*
X17890857Y-32615424D01*
X17749327Y-32520858D01*
X17718798Y-32500459D01*
X17527620Y-32421270D01*
X17527612Y-32421268D01*
X17324669Y-32380900D01*
X17324665Y-32380900D01*
X17117735Y-32380900D01*
X17117730Y-32380900D01*
X16914787Y-32421268D01*
X16914779Y-32421270D01*
X16723603Y-32500458D01*
X16551542Y-32615424D01*
X16405224Y-32761742D01*
X16290258Y-32933803D01*
X16211070Y-33124979D01*
X16211068Y-33124987D01*
X16170700Y-33327930D01*
X10651700Y-33327930D01*
X10651700Y-33322935D01*
X10611330Y-33119980D01*
X10532141Y-32928802D01*
X10417177Y-32756745D01*
X10417175Y-32756742D01*
X10270857Y-32610424D01*
X10136812Y-32520859D01*
X10098798Y-32495459D01*
X9907620Y-32416270D01*
X9907612Y-32416268D01*
X9704669Y-32375900D01*
X9704665Y-32375900D01*
X9497735Y-32375900D01*
X9497730Y-32375900D01*
X9294787Y-32416268D01*
X9294779Y-32416270D01*
X9103603Y-32495458D01*
X8931542Y-32610424D01*
X8785224Y-32756742D01*
X8670258Y-32928803D01*
X8591070Y-33119979D01*
X8591068Y-33119987D01*
X8550700Y-33322930D01*
X500500Y-33322930D01*
X500500Y-27612930D01*
X8550700Y-27612930D01*
X8550700Y-27819869D01*
X8561508Y-27874202D01*
X8591070Y-28022820D01*
X8670259Y-28213998D01*
X8689594Y-28242935D01*
X8785224Y-28386057D01*
X8931542Y-28532375D01*
X8931545Y-28532377D01*
X9103602Y-28647341D01*
X9294780Y-28726530D01*
X9497730Y-28766899D01*
X9497734Y-28766900D01*
X9497735Y-28766900D01*
X9704666Y-28766900D01*
X9704667Y-28766899D01*
X9907620Y-28726530D01*
X10098798Y-28647341D01*
X10270855Y-28532377D01*
X10417177Y-28386055D01*
X10512809Y-28242930D01*
X16170700Y-28242930D01*
X16170700Y-28449869D01*
X16191170Y-28552777D01*
X16211070Y-28652820D01*
X16290259Y-28843998D01*
X16307231Y-28869398D01*
X16405224Y-29016057D01*
X16551542Y-29162375D01*
X16551545Y-29162377D01*
X16723602Y-29277341D01*
X16914780Y-29356530D01*
X17117730Y-29396899D01*
X17117734Y-29396900D01*
X17117735Y-29396900D01*
X17324666Y-29396900D01*
X17324667Y-29396899D01*
X17527620Y-29356530D01*
X17718798Y-29277341D01*
X17890855Y-29162377D01*
X18037177Y-29016055D01*
X18152141Y-28843998D01*
X18231330Y-28652820D01*
X18271700Y-28449865D01*
X18271700Y-28242935D01*
X18231330Y-28039980D01*
X18152141Y-27848802D01*
X18152140Y-27848800D01*
X18050132Y-27696133D01*
X18050131Y-27696132D01*
X18037178Y-27676746D01*
X18037174Y-27676741D01*
X17993763Y-27633330D01*
X36160500Y-27633330D01*
X36160500Y-27840269D01*
X36200227Y-28039987D01*
X36200870Y-28043220D01*
X36280059Y-28234398D01*
X36302734Y-28268334D01*
X36395024Y-28406457D01*
X36541342Y-28552775D01*
X36541345Y-28552777D01*
X36713402Y-28667741D01*
X36904580Y-28746930D01*
X37107530Y-28787299D01*
X37107534Y-28787300D01*
X37107535Y-28787300D01*
X37314466Y-28787300D01*
X37314467Y-28787299D01*
X37517420Y-28746930D01*
X37708598Y-28667741D01*
X37880655Y-28552777D01*
X38026977Y-28406455D01*
X38119269Y-28268330D01*
X43780500Y-28268330D01*
X43780500Y-28475269D01*
X43820868Y-28678212D01*
X43820870Y-28678220D01*
X43900058Y-28869396D01*
X44015024Y-29041457D01*
X44161342Y-29187775D01*
X44161345Y-29187777D01*
X44333402Y-29302741D01*
X44524580Y-29381930D01*
X44727530Y-29422299D01*
X44727534Y-29422300D01*
X44727535Y-29422300D01*
X44934466Y-29422300D01*
X44934467Y-29422299D01*
X45137420Y-29381930D01*
X45328598Y-29302741D01*
X45500655Y-29187777D01*
X45646977Y-29041455D01*
X45761941Y-28869398D01*
X45841130Y-28678220D01*
X45881500Y-28475265D01*
X45881500Y-28268335D01*
X45841130Y-28065380D01*
X45761941Y-27874202D01*
X45646977Y-27702145D01*
X45646976Y-27702144D01*
X45646974Y-27702141D01*
X45578163Y-27633330D01*
X63744900Y-27633330D01*
X63744900Y-27840269D01*
X63784627Y-28039987D01*
X63785270Y-28043220D01*
X63864459Y-28234398D01*
X63887134Y-28268334D01*
X63979424Y-28406457D01*
X64125742Y-28552775D01*
X64125745Y-28552777D01*
X64297802Y-28667741D01*
X64488980Y-28746930D01*
X64691930Y-28787299D01*
X64691934Y-28787300D01*
X64691935Y-28787300D01*
X64898866Y-28787300D01*
X64898867Y-28787299D01*
X65101820Y-28746930D01*
X65292998Y-28667741D01*
X65465055Y-28552777D01*
X65611377Y-28406455D01*
X65703669Y-28268330D01*
X71364900Y-28268330D01*
X71364900Y-28475269D01*
X71405268Y-28678212D01*
X71405270Y-28678220D01*
X71484458Y-28869396D01*
X71599424Y-29041457D01*
X71745742Y-29187775D01*
X71745745Y-29187777D01*
X71917802Y-29302741D01*
X72108980Y-29381930D01*
X72311930Y-29422299D01*
X72311934Y-29422300D01*
X72311935Y-29422300D01*
X72518866Y-29422300D01*
X72518867Y-29422299D01*
X72721820Y-29381930D01*
X72912998Y-29302741D01*
X73085055Y-29187777D01*
X73231377Y-29041455D01*
X73346341Y-28869398D01*
X73425530Y-28678220D01*
X73465900Y-28475265D01*
X73465900Y-28268335D01*
X73425530Y-28065380D01*
X73346341Y-27874202D01*
X73231377Y-27702145D01*
X73231376Y-27702144D01*
X73231374Y-27702141D01*
X73162563Y-27633330D01*
X91329300Y-27633330D01*
X91329300Y-27840269D01*
X91369027Y-28039987D01*
X91369670Y-28043220D01*
X91448859Y-28234398D01*
X91471534Y-28268334D01*
X91563824Y-28406457D01*
X91710142Y-28552775D01*
X91710145Y-28552777D01*
X91882202Y-28667741D01*
X92073380Y-28746930D01*
X92276330Y-28787299D01*
X92276334Y-28787300D01*
X92276335Y-28787300D01*
X92483266Y-28787300D01*
X92483267Y-28787299D01*
X92686220Y-28746930D01*
X92877398Y-28667741D01*
X93049455Y-28552777D01*
X93195777Y-28406455D01*
X93288069Y-28268330D01*
X98949300Y-28268330D01*
X98949300Y-28475269D01*
X98989668Y-28678212D01*
X98989670Y-28678220D01*
X99068858Y-28869396D01*
X99183824Y-29041457D01*
X99330142Y-29187775D01*
X99330145Y-29187777D01*
X99502202Y-29302741D01*
X99693380Y-29381930D01*
X99896330Y-29422299D01*
X99896334Y-29422300D01*
X99896335Y-29422300D01*
X100103266Y-29422300D01*
X100103267Y-29422299D01*
X100306220Y-29381930D01*
X100497398Y-29302741D01*
X100669455Y-29187777D01*
X100815777Y-29041455D01*
X100930741Y-28869398D01*
X101009930Y-28678220D01*
X101050300Y-28475265D01*
X101050300Y-28268335D01*
X101009930Y-28065380D01*
X100930741Y-27874202D01*
X100815777Y-27702145D01*
X100815775Y-27702142D01*
X100669457Y-27555824D01*
X100583426Y-27498341D01*
X100497398Y-27440859D01*
X100472097Y-27430379D01*
X100306220Y-27361670D01*
X100306212Y-27361668D01*
X100103269Y-27321300D01*
X100103265Y-27321300D01*
X99896335Y-27321300D01*
X99896330Y-27321300D01*
X99693387Y-27361668D01*
X99693379Y-27361670D01*
X99502203Y-27440858D01*
X99330142Y-27555824D01*
X99183824Y-27702142D01*
X99068858Y-27874203D01*
X98989670Y-28065379D01*
X98989668Y-28065387D01*
X98949300Y-28268330D01*
X93288069Y-28268330D01*
X93310741Y-28234398D01*
X93389930Y-28043220D01*
X93430300Y-27840265D01*
X93430300Y-27633335D01*
X93389930Y-27430380D01*
X93310741Y-27239202D01*
X93195777Y-27067145D01*
X93195775Y-27067142D01*
X93049457Y-26920824D01*
X92963426Y-26863341D01*
X92877398Y-26805859D01*
X92828148Y-26785459D01*
X92686220Y-26726670D01*
X92686212Y-26726668D01*
X92483269Y-26686300D01*
X92483265Y-26686300D01*
X92276335Y-26686300D01*
X92276330Y-26686300D01*
X92073387Y-26726668D01*
X92073379Y-26726670D01*
X91882203Y-26805858D01*
X91710142Y-26920824D01*
X91563824Y-27067142D01*
X91448858Y-27239203D01*
X91369670Y-27430379D01*
X91369668Y-27430387D01*
X91329300Y-27633330D01*
X73162563Y-27633330D01*
X73085057Y-27555824D01*
X72999026Y-27498341D01*
X72912998Y-27440859D01*
X72887697Y-27430379D01*
X72721820Y-27361670D01*
X72721812Y-27361668D01*
X72518869Y-27321300D01*
X72518865Y-27321300D01*
X72311935Y-27321300D01*
X72311930Y-27321300D01*
X72108987Y-27361668D01*
X72108979Y-27361670D01*
X71917803Y-27440858D01*
X71745742Y-27555824D01*
X71599424Y-27702142D01*
X71484458Y-27874203D01*
X71405270Y-28065379D01*
X71405268Y-28065387D01*
X71364900Y-28268330D01*
X65703669Y-28268330D01*
X65726341Y-28234398D01*
X65805530Y-28043220D01*
X65845900Y-27840265D01*
X65845900Y-27633335D01*
X65805530Y-27430380D01*
X65726341Y-27239202D01*
X65611377Y-27067145D01*
X65611375Y-27067142D01*
X65465057Y-26920824D01*
X65379026Y-26863341D01*
X65292998Y-26805859D01*
X65243748Y-26785459D01*
X65101820Y-26726670D01*
X65101812Y-26726668D01*
X64898869Y-26686300D01*
X64898865Y-26686300D01*
X64691935Y-26686300D01*
X64691930Y-26686300D01*
X64488987Y-26726668D01*
X64488979Y-26726670D01*
X64297803Y-26805858D01*
X64125742Y-26920824D01*
X63979424Y-27067142D01*
X63864458Y-27239203D01*
X63785270Y-27430379D01*
X63785268Y-27430387D01*
X63744900Y-27633330D01*
X45578163Y-27633330D01*
X45500657Y-27555824D01*
X45414626Y-27498341D01*
X45328598Y-27440859D01*
X45303297Y-27430379D01*
X45137420Y-27361670D01*
X45137412Y-27361668D01*
X44934469Y-27321300D01*
X44934465Y-27321300D01*
X44727535Y-27321300D01*
X44727530Y-27321300D01*
X44524587Y-27361668D01*
X44524579Y-27361670D01*
X44333403Y-27440858D01*
X44161342Y-27555824D01*
X44015024Y-27702142D01*
X43900058Y-27874203D01*
X43820870Y-28065379D01*
X43820868Y-28065387D01*
X43780500Y-28268330D01*
X38119269Y-28268330D01*
X38141941Y-28234398D01*
X38221130Y-28043220D01*
X38261500Y-27840265D01*
X38261500Y-27633335D01*
X38221130Y-27430380D01*
X38141941Y-27239202D01*
X38026977Y-27067145D01*
X38026975Y-27067142D01*
X37880657Y-26920824D01*
X37794626Y-26863341D01*
X37708598Y-26805859D01*
X37659348Y-26785459D01*
X37517420Y-26726670D01*
X37517412Y-26726668D01*
X37314469Y-26686300D01*
X37314465Y-26686300D01*
X37107535Y-26686300D01*
X37107530Y-26686300D01*
X36904587Y-26726668D01*
X36904579Y-26726670D01*
X36713403Y-26805858D01*
X36541342Y-26920824D01*
X36395024Y-27067142D01*
X36280058Y-27239203D01*
X36200870Y-27430379D01*
X36200868Y-27430387D01*
X36160500Y-27633330D01*
X17993763Y-27633330D01*
X17890857Y-27530424D01*
X17756812Y-27440859D01*
X17718798Y-27415459D01*
X17705568Y-27409979D01*
X17527620Y-27336270D01*
X17527612Y-27336268D01*
X17324669Y-27295900D01*
X17324665Y-27295900D01*
X17117735Y-27295900D01*
X17117730Y-27295900D01*
X16914787Y-27336268D01*
X16914779Y-27336270D01*
X16723603Y-27415458D01*
X16551542Y-27530424D01*
X16405224Y-27676742D01*
X16290258Y-27848803D01*
X16211070Y-28039979D01*
X16211068Y-28039987D01*
X16170700Y-28242930D01*
X10512809Y-28242930D01*
X10532141Y-28213998D01*
X10611330Y-28022820D01*
X10651700Y-27819865D01*
X10651700Y-27612935D01*
X10611330Y-27409980D01*
X10532141Y-27218802D01*
X10417177Y-27046745D01*
X10417175Y-27046742D01*
X10270857Y-26900424D01*
X10129327Y-26805858D01*
X10098798Y-26785459D01*
X9907620Y-26706270D01*
X9907612Y-26706268D01*
X9704669Y-26665900D01*
X9704665Y-26665900D01*
X9497735Y-26665900D01*
X9497730Y-26665900D01*
X9294787Y-26706268D01*
X9294779Y-26706270D01*
X9103603Y-26785458D01*
X8931542Y-26900424D01*
X8785224Y-27046742D01*
X8670258Y-27218803D01*
X8591070Y-27409979D01*
X8591068Y-27409987D01*
X8550700Y-27612930D01*
X500500Y-27612930D01*
X500500Y-19324972D01*
X7595900Y-19324972D01*
X7595900Y-19587827D01*
X7595901Y-19587844D01*
X7630209Y-19848443D01*
X7630210Y-19848448D01*
X7630211Y-19848454D01*
X7668218Y-19990299D01*
X7698242Y-20102353D01*
X7698246Y-20102366D01*
X7708767Y-20127766D01*
X7798839Y-20345218D01*
X7798843Y-20345228D01*
X7930275Y-20572875D01*
X8090298Y-20781421D01*
X8090304Y-20781428D01*
X8276171Y-20967295D01*
X8276178Y-20967301D01*
X8484724Y-21127324D01*
X8708486Y-21256513D01*
X8756702Y-21307080D01*
X8769925Y-21375687D01*
X8743957Y-21440552D01*
X8708486Y-21471287D01*
X8484724Y-21600475D01*
X8276178Y-21760498D01*
X8276171Y-21760504D01*
X8090304Y-21946371D01*
X8090298Y-21946378D01*
X7930275Y-22154924D01*
X7798843Y-22382571D01*
X7798839Y-22382581D01*
X7698249Y-22625426D01*
X7698244Y-22625440D01*
X7630212Y-22879343D01*
X7630209Y-22879356D01*
X7595901Y-23139955D01*
X7595900Y-23139972D01*
X7595900Y-23402827D01*
X7595901Y-23402844D01*
X7630209Y-23663443D01*
X7630210Y-23663448D01*
X7630211Y-23663454D01*
X7698246Y-23917366D01*
X7698249Y-23917373D01*
X7798839Y-24160218D01*
X7798843Y-24160228D01*
X7930275Y-24387875D01*
X8090298Y-24596421D01*
X8090304Y-24596428D01*
X8276171Y-24782295D01*
X8276178Y-24782301D01*
X8484724Y-24942324D01*
X8712371Y-25073756D01*
X8712372Y-25073756D01*
X8712375Y-25073758D01*
X8955234Y-25174354D01*
X9209146Y-25242389D01*
X9469766Y-25276700D01*
X9469773Y-25276700D01*
X9732627Y-25276700D01*
X9732634Y-25276700D01*
X9993254Y-25242389D01*
X10247166Y-25174354D01*
X10490025Y-25073758D01*
X10717676Y-24942324D01*
X10926223Y-24782300D01*
X11112100Y-24596423D01*
X11272124Y-24387876D01*
X11403558Y-24160225D01*
X11504154Y-23917366D01*
X11541409Y-23778327D01*
X15267200Y-23778327D01*
X15267200Y-24034472D01*
X15300632Y-24288423D01*
X15366927Y-24535839D01*
X15464945Y-24772478D01*
X15464953Y-24772494D01*
X15593015Y-24994304D01*
X15593021Y-24994311D01*
X15632640Y-25045945D01*
X16477393Y-24201193D01*
X16512249Y-24285342D01*
X16599799Y-24416370D01*
X16711230Y-24527801D01*
X16842258Y-24615351D01*
X16926405Y-24650206D01*
X16081653Y-25494958D01*
X16081653Y-25494959D01*
X16133286Y-25534578D01*
X16355105Y-25662646D01*
X16355121Y-25662654D01*
X16591760Y-25760672D01*
X16839176Y-25826967D01*
X17093127Y-25860400D01*
X17349273Y-25860400D01*
X17603223Y-25826967D01*
X17850639Y-25760672D01*
X18087278Y-25662654D01*
X18087294Y-25662646D01*
X18309106Y-25534582D01*
X18309124Y-25534570D01*
X18360745Y-25494959D01*
X18360745Y-25494958D01*
X17515994Y-24650206D01*
X17600142Y-24615351D01*
X17731170Y-24527801D01*
X17842601Y-24416370D01*
X17930151Y-24285342D01*
X17965006Y-24201194D01*
X18809758Y-25045945D01*
X18809759Y-25045945D01*
X18849370Y-24994324D01*
X18849382Y-24994306D01*
X18977446Y-24772494D01*
X18977454Y-24772478D01*
X19075472Y-24535839D01*
X19141767Y-24288423D01*
X19175200Y-24034472D01*
X19175200Y-23778327D01*
X19141767Y-23524376D01*
X19075472Y-23276960D01*
X18977454Y-23040321D01*
X18977446Y-23040305D01*
X18849378Y-22818486D01*
X18809759Y-22766853D01*
X18809758Y-22766853D01*
X17965006Y-23611605D01*
X17930151Y-23527458D01*
X17842601Y-23396430D01*
X17731170Y-23284999D01*
X17600142Y-23197449D01*
X17515993Y-23162593D01*
X18360745Y-22317840D01*
X18360745Y-22317839D01*
X18309111Y-22278221D01*
X18309104Y-22278215D01*
X18087294Y-22150153D01*
X18087278Y-22150145D01*
X17850639Y-22052127D01*
X17603223Y-21985832D01*
X17349273Y-21952400D01*
X17093127Y-21952400D01*
X16839176Y-21985832D01*
X16591760Y-22052127D01*
X16355121Y-22150145D01*
X16355105Y-22150153D01*
X16133293Y-22278217D01*
X16133279Y-22278226D01*
X16081652Y-22317840D01*
X16926406Y-23162593D01*
X16842258Y-23197449D01*
X16711230Y-23284999D01*
X16599799Y-23396430D01*
X16512249Y-23527458D01*
X16477393Y-23611605D01*
X15632640Y-22766852D01*
X15593026Y-22818479D01*
X15593017Y-22818493D01*
X15464953Y-23040305D01*
X15464945Y-23040321D01*
X15366927Y-23276960D01*
X15300632Y-23524376D01*
X15267200Y-23778327D01*
X11541409Y-23778327D01*
X11572189Y-23663454D01*
X11606500Y-23402834D01*
X11606500Y-23139966D01*
X11572189Y-22879346D01*
X11504154Y-22625434D01*
X11456951Y-22511477D01*
X11416263Y-22413246D01*
X11403558Y-22382576D01*
X11403556Y-22382571D01*
X11272124Y-22154924D01*
X11112101Y-21946378D01*
X11112095Y-21946371D01*
X10926228Y-21760504D01*
X10926221Y-21760498D01*
X10717675Y-21600475D01*
X10580822Y-21521463D01*
X10493912Y-21471286D01*
X10445698Y-21420720D01*
X10432474Y-21352113D01*
X10458442Y-21287249D01*
X10493913Y-21256513D01*
X10525899Y-21238046D01*
X10717676Y-21127324D01*
X10926223Y-20967300D01*
X11112100Y-20781423D01*
X11272124Y-20572876D01*
X11403558Y-20345225D01*
X11504154Y-20102366D01*
X11517506Y-20052533D01*
X11553868Y-19992875D01*
X11616715Y-19962344D01*
X11686091Y-19970638D01*
X11739969Y-20015122D01*
X11751841Y-20037174D01*
X11833538Y-20234408D01*
X11833543Y-20234418D01*
X11948589Y-20433684D01*
X12088662Y-20616231D01*
X12088668Y-20616238D01*
X12251361Y-20778931D01*
X12251368Y-20778937D01*
X12433915Y-20919010D01*
X12633181Y-21034056D01*
X12633182Y-21034056D01*
X12633185Y-21034058D01*
X12845767Y-21122113D01*
X13068023Y-21181666D01*
X13296152Y-21211700D01*
X13296159Y-21211700D01*
X13526241Y-21211700D01*
X13526248Y-21211700D01*
X13754377Y-21181666D01*
X13976633Y-21122113D01*
X14189215Y-21034058D01*
X14388485Y-20919010D01*
X14571033Y-20778936D01*
X14733736Y-20616233D01*
X14873810Y-20433685D01*
X14988858Y-20234415D01*
X15076913Y-20021833D01*
X15093570Y-19959666D01*
X15129933Y-19900007D01*
X15192779Y-19869477D01*
X15262155Y-19877771D01*
X15316033Y-19922255D01*
X15333119Y-19959666D01*
X15366928Y-20085841D01*
X15464945Y-20322478D01*
X15464953Y-20322494D01*
X15593015Y-20544304D01*
X15593021Y-20544311D01*
X15632640Y-20595945D01*
X16477393Y-19751193D01*
X16512249Y-19835342D01*
X16599799Y-19966370D01*
X16711230Y-20077801D01*
X16842258Y-20165351D01*
X16926405Y-20200206D01*
X16081653Y-21044958D01*
X16081653Y-21044959D01*
X16133286Y-21084578D01*
X16355105Y-21212646D01*
X16355121Y-21212654D01*
X16591760Y-21310672D01*
X16839176Y-21376967D01*
X17093127Y-21410400D01*
X17349273Y-21410400D01*
X17603223Y-21376967D01*
X17850639Y-21310672D01*
X18087278Y-21212654D01*
X18087294Y-21212646D01*
X18309106Y-21084582D01*
X18309124Y-21084570D01*
X18360745Y-21044959D01*
X18360745Y-21044958D01*
X17515994Y-20200206D01*
X17600142Y-20165351D01*
X17731170Y-20077801D01*
X17842601Y-19966370D01*
X17930151Y-19835342D01*
X17965006Y-19751194D01*
X18809758Y-20595945D01*
X18809759Y-20595945D01*
X18849370Y-20544324D01*
X18849382Y-20544306D01*
X18977446Y-20322494D01*
X18977454Y-20322478D01*
X19075472Y-20085839D01*
X19141767Y-19838423D01*
X19175200Y-19584472D01*
X19175200Y-19328327D01*
X19141767Y-19074376D01*
X19075472Y-18826960D01*
X18977454Y-18590321D01*
X18977446Y-18590305D01*
X18849378Y-18368486D01*
X18809759Y-18316853D01*
X18809758Y-18316853D01*
X17965006Y-19161605D01*
X17930151Y-19077458D01*
X17842601Y-18946430D01*
X17731170Y-18834999D01*
X17600142Y-18747449D01*
X17515993Y-18712593D01*
X18360745Y-17867840D01*
X18360745Y-17867839D01*
X18309111Y-17828221D01*
X18309104Y-17828215D01*
X18087294Y-17700153D01*
X18087278Y-17700145D01*
X17850639Y-17602127D01*
X17603223Y-17535832D01*
X17349273Y-17502400D01*
X17093127Y-17502400D01*
X16839176Y-17535832D01*
X16591760Y-17602127D01*
X16355121Y-17700145D01*
X16355105Y-17700153D01*
X16133293Y-17828217D01*
X16133279Y-17828226D01*
X16081652Y-17867840D01*
X16926406Y-18712593D01*
X16842258Y-18747449D01*
X16711230Y-18834999D01*
X16599799Y-18946430D01*
X16512249Y-19077458D01*
X16477393Y-19161605D01*
X15632640Y-18316852D01*
X15593026Y-18368479D01*
X15593017Y-18368493D01*
X15464953Y-18590305D01*
X15464945Y-18590321D01*
X15366929Y-18826956D01*
X15333119Y-18953134D01*
X15296753Y-19012794D01*
X15233906Y-19043322D01*
X15164530Y-19035027D01*
X15110653Y-18990541D01*
X15093570Y-18953134D01*
X15076913Y-18890967D01*
X14988858Y-18678385D01*
X14939544Y-18592971D01*
X14873810Y-18479115D01*
X14733737Y-18296568D01*
X14733731Y-18296561D01*
X14571038Y-18133868D01*
X14571031Y-18133862D01*
X14415044Y-18014169D01*
X14388484Y-17993789D01*
X14189218Y-17878743D01*
X14189208Y-17878738D01*
X13996247Y-17798811D01*
X13941844Y-17754970D01*
X13919779Y-17688675D01*
X13919700Y-17684250D01*
X13919700Y-17229190D01*
X13939385Y-17162151D01*
X13956019Y-17141509D01*
X14703109Y-16394419D01*
X14764432Y-16360934D01*
X14790790Y-16358100D01*
X21555343Y-16358100D01*
X21555345Y-16358100D01*
X21684674Y-16323447D01*
X21800627Y-16256501D01*
X23294967Y-14762160D01*
X23312373Y-14732012D01*
X23361913Y-14646208D01*
X23396566Y-14516879D01*
X23396566Y-13940373D01*
X23416251Y-13873334D01*
X23451673Y-13837272D01*
X23528907Y-13785667D01*
X23668933Y-13645641D01*
X23778951Y-13480988D01*
X23844682Y-13322300D01*
X24526977Y-13322300D01*
X24582640Y-13456686D01*
X24582642Y-13456689D01*
X24687042Y-13612935D01*
X24687048Y-13612943D01*
X24819922Y-13745817D01*
X24819930Y-13745823D01*
X24976176Y-13850223D01*
X24976179Y-13850225D01*
X25110565Y-13905889D01*
X25110566Y-13905889D01*
X25745566Y-13905889D01*
X25879952Y-13850225D01*
X25879955Y-13850223D01*
X26036201Y-13745823D01*
X26036209Y-13745817D01*
X26169083Y-13612943D01*
X26169089Y-13612935D01*
X26273489Y-13456689D01*
X26273491Y-13456686D01*
X26329155Y-13322300D01*
X25745566Y-13322300D01*
X25745566Y-13905889D01*
X25110566Y-13905889D01*
X25110566Y-13322300D01*
X24526977Y-13322300D01*
X23844682Y-13322300D01*
X23854733Y-13298035D01*
X23893366Y-13103813D01*
X23893366Y-12958722D01*
X25078066Y-12958722D01*
X25078066Y-13050878D01*
X25101918Y-13139895D01*
X25147996Y-13219705D01*
X25213161Y-13284870D01*
X25292971Y-13330948D01*
X25381988Y-13354800D01*
X25474144Y-13354800D01*
X25563161Y-13330948D01*
X25642971Y-13284870D01*
X25708136Y-13219705D01*
X25754214Y-13139895D01*
X25778066Y-13050878D01*
X25778066Y-12958722D01*
X25754214Y-12869705D01*
X25708136Y-12789895D01*
X25642971Y-12724730D01*
X25578140Y-12687300D01*
X25745566Y-12687300D01*
X26329155Y-12687300D01*
X26329155Y-12687299D01*
X26273491Y-12552913D01*
X26273489Y-12552910D01*
X26169089Y-12396664D01*
X26169083Y-12396656D01*
X26036209Y-12263782D01*
X26036205Y-12263779D01*
X25879960Y-12159379D01*
X25879950Y-12159374D01*
X25745566Y-12103710D01*
X25745566Y-12687300D01*
X25578140Y-12687300D01*
X25563161Y-12678652D01*
X25474144Y-12654800D01*
X25381988Y-12654800D01*
X25292971Y-12678652D01*
X25213161Y-12724730D01*
X25147996Y-12789895D01*
X25101918Y-12869705D01*
X25078066Y-12958722D01*
X23893366Y-12958722D01*
X23893366Y-12905787D01*
X23865839Y-12767400D01*
X23857461Y-12725278D01*
X23857459Y-12725272D01*
X23854733Y-12711565D01*
X23844682Y-12687299D01*
X24526976Y-12687299D01*
X24526977Y-12687300D01*
X25110566Y-12687300D01*
X25110566Y-12103710D01*
X25110565Y-12103710D01*
X24976181Y-12159374D01*
X24976171Y-12159379D01*
X24819926Y-12263779D01*
X24819922Y-12263782D01*
X24687048Y-12396656D01*
X24687042Y-12396664D01*
X24582642Y-12552910D01*
X24582640Y-12552913D01*
X24526976Y-12687299D01*
X23844682Y-12687299D01*
X23778951Y-12528612D01*
X23778950Y-12528611D01*
X23778947Y-12528605D01*
X23668933Y-12363959D01*
X23668930Y-12363955D01*
X23528910Y-12223935D01*
X23528904Y-12223930D01*
X23469541Y-12184264D01*
X23424737Y-12130651D01*
X23414433Y-12081163D01*
X23414433Y-6467600D01*
X23434118Y-6400561D01*
X23482139Y-6357115D01*
X23485237Y-6355537D01*
X23625988Y-6253276D01*
X23749009Y-6130255D01*
X23851270Y-5989504D01*
X23930255Y-5834488D01*
X23984017Y-5669025D01*
X23996086Y-5592825D01*
X24011233Y-5497194D01*
X24011233Y-5323205D01*
X30339899Y-5323205D01*
X30339899Y-5497194D01*
X30367114Y-5669025D01*
X30392719Y-5747827D01*
X30420877Y-5834488D01*
X30497530Y-5984928D01*
X30499864Y-5989507D01*
X30602117Y-6130248D01*
X30602121Y-6130253D01*
X30725145Y-6253277D01*
X30725150Y-6253281D01*
X30829211Y-6328885D01*
X30865895Y-6355537D01*
X30868992Y-6357115D01*
X30869954Y-6358023D01*
X30870043Y-6358078D01*
X30870031Y-6358096D01*
X30919787Y-6405085D01*
X30936699Y-6467600D01*
X30936699Y-12061362D01*
X30917014Y-12128401D01*
X30881591Y-12164464D01*
X30792587Y-12223935D01*
X30652567Y-12363955D01*
X30652564Y-12363959D01*
X30542550Y-12528605D01*
X30542545Y-12528614D01*
X30466765Y-12711564D01*
X30466763Y-12711572D01*
X30428132Y-12905782D01*
X30428132Y-13103817D01*
X30466763Y-13298027D01*
X30466765Y-13298035D01*
X30542545Y-13480985D01*
X30542550Y-13480994D01*
X30652564Y-13645640D01*
X30652567Y-13645644D01*
X30792588Y-13785665D01*
X30792591Y-13785667D01*
X30869823Y-13837271D01*
X30914627Y-13890882D01*
X30924932Y-13940373D01*
X30924932Y-16971576D01*
X30959585Y-17100907D01*
X30983027Y-17141509D01*
X31026531Y-17216859D01*
X33698374Y-19888701D01*
X33814326Y-19955647D01*
X33943655Y-19990300D01*
X34077545Y-19990300D01*
X35176063Y-19990300D01*
X35243102Y-20009985D01*
X35288857Y-20062789D01*
X35295837Y-20082205D01*
X35308043Y-20127760D01*
X35308044Y-20127762D01*
X35408639Y-20370618D01*
X35408643Y-20370628D01*
X35540075Y-20598275D01*
X35700098Y-20806821D01*
X35700104Y-20806828D01*
X35885971Y-20992695D01*
X35885978Y-20992701D01*
X36094524Y-21152724D01*
X36313956Y-21279413D01*
X36362171Y-21329980D01*
X36375395Y-21398587D01*
X36349427Y-21463452D01*
X36313956Y-21494187D01*
X36094524Y-21620875D01*
X35885978Y-21780898D01*
X35885971Y-21780904D01*
X35700104Y-21966771D01*
X35700098Y-21966778D01*
X35540075Y-22175324D01*
X35408643Y-22402971D01*
X35408639Y-22402981D01*
X35308049Y-22645826D01*
X35308044Y-22645840D01*
X35275619Y-22766853D01*
X35245475Y-22879356D01*
X35240012Y-22899743D01*
X35240009Y-22899756D01*
X35205701Y-23160355D01*
X35205700Y-23160372D01*
X35205700Y-23423227D01*
X35205701Y-23423244D01*
X35240009Y-23683843D01*
X35240010Y-23683848D01*
X35240011Y-23683854D01*
X35308046Y-23937766D01*
X35308049Y-23937773D01*
X35408639Y-24180618D01*
X35408643Y-24180628D01*
X35540075Y-24408275D01*
X35700098Y-24616821D01*
X35700104Y-24616828D01*
X35885971Y-24802695D01*
X35885978Y-24802701D01*
X36094524Y-24962724D01*
X36322171Y-25094156D01*
X36322172Y-25094156D01*
X36322175Y-25094158D01*
X36565034Y-25194754D01*
X36818946Y-25262789D01*
X37079566Y-25297100D01*
X37079573Y-25297100D01*
X37342427Y-25297100D01*
X37342434Y-25297100D01*
X37603054Y-25262789D01*
X37856966Y-25194754D01*
X38099825Y-25094158D01*
X38327476Y-24962724D01*
X38536023Y-24802700D01*
X38721900Y-24616823D01*
X38881924Y-24408276D01*
X39013358Y-24180625D01*
X39113954Y-23937766D01*
X39151209Y-23798727D01*
X42877000Y-23798727D01*
X42877000Y-24054872D01*
X42910432Y-24308823D01*
X42976727Y-24556239D01*
X43074745Y-24792878D01*
X43074753Y-24792894D01*
X43202815Y-25014704D01*
X43202821Y-25014711D01*
X43242440Y-25066345D01*
X44087193Y-24221593D01*
X44122049Y-24305742D01*
X44209599Y-24436770D01*
X44321030Y-24548201D01*
X44452058Y-24635751D01*
X44536205Y-24670606D01*
X43691453Y-25515358D01*
X43691453Y-25515359D01*
X43743086Y-25554978D01*
X43964905Y-25683046D01*
X43964921Y-25683054D01*
X44201560Y-25781072D01*
X44448976Y-25847367D01*
X44702927Y-25880800D01*
X44959073Y-25880800D01*
X45213023Y-25847367D01*
X45460439Y-25781072D01*
X45697078Y-25683054D01*
X45697094Y-25683046D01*
X45918906Y-25554982D01*
X45918924Y-25554970D01*
X45970545Y-25515359D01*
X45970545Y-25515358D01*
X45125794Y-24670606D01*
X45209942Y-24635751D01*
X45340970Y-24548201D01*
X45452401Y-24436770D01*
X45539951Y-24305742D01*
X45574806Y-24221594D01*
X46419558Y-25066345D01*
X46419559Y-25066345D01*
X46459170Y-25014724D01*
X46459182Y-25014706D01*
X46587246Y-24792894D01*
X46587254Y-24792878D01*
X46685272Y-24556239D01*
X46751567Y-24308823D01*
X46785000Y-24054872D01*
X46785000Y-23798727D01*
X46751567Y-23544776D01*
X46685272Y-23297360D01*
X46587254Y-23060721D01*
X46587246Y-23060705D01*
X46459178Y-22838886D01*
X46419559Y-22787253D01*
X46419558Y-22787253D01*
X45574806Y-23632005D01*
X45539951Y-23547858D01*
X45452401Y-23416830D01*
X45340970Y-23305399D01*
X45209942Y-23217849D01*
X45125793Y-23182993D01*
X45970545Y-22338240D01*
X45970545Y-22338239D01*
X45918911Y-22298621D01*
X45918904Y-22298615D01*
X45697094Y-22170553D01*
X45697078Y-22170545D01*
X45460439Y-22072527D01*
X45213023Y-22006232D01*
X44959073Y-21972800D01*
X44702927Y-21972800D01*
X44448976Y-22006232D01*
X44201560Y-22072527D01*
X43964921Y-22170545D01*
X43964905Y-22170553D01*
X43743093Y-22298617D01*
X43743079Y-22298626D01*
X43691452Y-22338240D01*
X44536206Y-23182993D01*
X44452058Y-23217849D01*
X44321030Y-23305399D01*
X44209599Y-23416830D01*
X44122049Y-23547858D01*
X44087193Y-23632005D01*
X43242440Y-22787252D01*
X43202826Y-22838879D01*
X43202817Y-22838893D01*
X43074753Y-23060705D01*
X43074745Y-23060721D01*
X42976727Y-23297360D01*
X42910432Y-23544776D01*
X42877000Y-23798727D01*
X39151209Y-23798727D01*
X39181989Y-23683854D01*
X39216300Y-23423234D01*
X39216300Y-23160366D01*
X39181989Y-22899746D01*
X39113954Y-22645834D01*
X39066751Y-22531877D01*
X39026063Y-22433646D01*
X39013358Y-22402976D01*
X39013356Y-22402971D01*
X38881924Y-22175324D01*
X38721901Y-21966778D01*
X38721895Y-21966771D01*
X38536028Y-21780904D01*
X38536021Y-21780898D01*
X38327475Y-21620875D01*
X38207241Y-21551458D01*
X38108042Y-21494186D01*
X38059828Y-21443620D01*
X38046604Y-21375014D01*
X38072572Y-21310149D01*
X38108041Y-21279414D01*
X38327476Y-21152724D01*
X38536023Y-20992700D01*
X38721900Y-20806823D01*
X38881924Y-20598276D01*
X39013358Y-20370625D01*
X39113954Y-20127766D01*
X39127306Y-20077933D01*
X39163668Y-20018275D01*
X39226515Y-19987744D01*
X39295891Y-19996038D01*
X39349769Y-20040522D01*
X39361641Y-20062574D01*
X39443338Y-20259808D01*
X39443343Y-20259818D01*
X39558389Y-20459084D01*
X39698462Y-20641631D01*
X39698468Y-20641638D01*
X39861161Y-20804331D01*
X39861168Y-20804337D01*
X40043715Y-20944410D01*
X40242981Y-21059456D01*
X40242982Y-21059456D01*
X40242985Y-21059458D01*
X40455567Y-21147513D01*
X40677823Y-21207066D01*
X40905952Y-21237100D01*
X40905959Y-21237100D01*
X41136041Y-21237100D01*
X41136048Y-21237100D01*
X41364177Y-21207066D01*
X41586433Y-21147513D01*
X41799015Y-21059458D01*
X41998285Y-20944410D01*
X42180833Y-20804336D01*
X42343536Y-20641633D01*
X42483610Y-20459085D01*
X42598658Y-20259815D01*
X42686713Y-20047233D01*
X42703370Y-19985066D01*
X42739733Y-19925407D01*
X42802579Y-19894877D01*
X42871955Y-19903171D01*
X42925833Y-19947655D01*
X42942919Y-19985066D01*
X42976728Y-20111241D01*
X43074745Y-20347878D01*
X43074753Y-20347894D01*
X43202815Y-20569704D01*
X43202821Y-20569711D01*
X43242440Y-20621345D01*
X44087193Y-19776593D01*
X44122049Y-19860742D01*
X44209599Y-19991770D01*
X44321030Y-20103201D01*
X44452058Y-20190751D01*
X44536205Y-20225606D01*
X43691453Y-21070358D01*
X43691453Y-21070359D01*
X43743086Y-21109978D01*
X43964905Y-21238046D01*
X43964921Y-21238054D01*
X44201560Y-21336072D01*
X44448976Y-21402367D01*
X44702927Y-21435800D01*
X44959073Y-21435800D01*
X45213023Y-21402367D01*
X45460439Y-21336072D01*
X45697078Y-21238054D01*
X45697094Y-21238046D01*
X45918906Y-21109982D01*
X45918924Y-21109970D01*
X45970545Y-21070359D01*
X45970545Y-21070358D01*
X45125794Y-20225606D01*
X45209942Y-20190751D01*
X45340970Y-20103201D01*
X45452401Y-19991770D01*
X45539951Y-19860742D01*
X45574806Y-19776594D01*
X46419558Y-20621345D01*
X46419559Y-20621345D01*
X46459170Y-20569724D01*
X46459182Y-20569706D01*
X46587246Y-20347894D01*
X46587254Y-20347878D01*
X46685272Y-20111239D01*
X46751567Y-19863823D01*
X46785000Y-19609872D01*
X46785000Y-19353727D01*
X46784558Y-19350372D01*
X62790100Y-19350372D01*
X62790100Y-19613227D01*
X62790101Y-19613244D01*
X62824409Y-19873843D01*
X62824410Y-19873848D01*
X62824411Y-19873854D01*
X62864062Y-20021833D01*
X62892442Y-20127753D01*
X62892446Y-20127766D01*
X62892449Y-20127773D01*
X62993039Y-20370618D01*
X62993043Y-20370628D01*
X63124475Y-20598275D01*
X63284498Y-20806821D01*
X63284504Y-20806828D01*
X63470371Y-20992695D01*
X63470378Y-20992701D01*
X63678924Y-21152724D01*
X63898356Y-21279413D01*
X63946571Y-21329980D01*
X63959795Y-21398587D01*
X63933827Y-21463452D01*
X63898356Y-21494187D01*
X63678924Y-21620875D01*
X63470378Y-21780898D01*
X63470371Y-21780904D01*
X63284504Y-21966771D01*
X63284498Y-21966778D01*
X63124475Y-22175324D01*
X62993043Y-22402971D01*
X62993039Y-22402981D01*
X62892449Y-22645826D01*
X62892444Y-22645840D01*
X62860019Y-22766853D01*
X62829875Y-22879356D01*
X62824412Y-22899743D01*
X62824409Y-22899756D01*
X62790101Y-23160355D01*
X62790100Y-23160372D01*
X62790100Y-23423227D01*
X62790101Y-23423244D01*
X62824409Y-23683843D01*
X62824410Y-23683848D01*
X62824411Y-23683854D01*
X62892446Y-23937766D01*
X62892449Y-23937773D01*
X62993039Y-24180618D01*
X62993043Y-24180628D01*
X63124475Y-24408275D01*
X63284498Y-24616821D01*
X63284504Y-24616828D01*
X63470371Y-24802695D01*
X63470378Y-24802701D01*
X63678924Y-24962724D01*
X63906571Y-25094156D01*
X63906572Y-25094156D01*
X63906575Y-25094158D01*
X64149434Y-25194754D01*
X64403346Y-25262789D01*
X64663966Y-25297100D01*
X64663973Y-25297100D01*
X64926827Y-25297100D01*
X64926834Y-25297100D01*
X65187454Y-25262789D01*
X65441366Y-25194754D01*
X65684225Y-25094158D01*
X65911876Y-24962724D01*
X66120423Y-24802700D01*
X66306300Y-24616823D01*
X66466324Y-24408276D01*
X66597758Y-24180625D01*
X66698354Y-23937766D01*
X66735609Y-23798727D01*
X70461400Y-23798727D01*
X70461400Y-24054872D01*
X70494832Y-24308823D01*
X70561127Y-24556239D01*
X70659145Y-24792878D01*
X70659153Y-24792894D01*
X70787215Y-25014704D01*
X70787221Y-25014711D01*
X70826840Y-25066345D01*
X71671593Y-24221593D01*
X71706449Y-24305742D01*
X71793999Y-24436770D01*
X71905430Y-24548201D01*
X72036458Y-24635751D01*
X72120605Y-24670606D01*
X71275853Y-25515358D01*
X71275853Y-25515359D01*
X71327486Y-25554978D01*
X71549305Y-25683046D01*
X71549321Y-25683054D01*
X71785960Y-25781072D01*
X72033376Y-25847367D01*
X72287327Y-25880800D01*
X72543473Y-25880800D01*
X72797423Y-25847367D01*
X73044839Y-25781072D01*
X73281478Y-25683054D01*
X73281494Y-25683046D01*
X73503306Y-25554982D01*
X73503324Y-25554970D01*
X73554945Y-25515359D01*
X73554945Y-25515358D01*
X72710194Y-24670606D01*
X72794342Y-24635751D01*
X72925370Y-24548201D01*
X73036801Y-24436770D01*
X73124351Y-24305742D01*
X73159206Y-24221594D01*
X74003958Y-25066345D01*
X74003959Y-25066345D01*
X74043570Y-25014724D01*
X74043582Y-25014706D01*
X74171646Y-24792894D01*
X74171654Y-24792878D01*
X74269672Y-24556239D01*
X74335967Y-24308823D01*
X74369400Y-24054872D01*
X74369400Y-23798727D01*
X74335967Y-23544776D01*
X74269672Y-23297360D01*
X74171654Y-23060721D01*
X74171646Y-23060705D01*
X74043578Y-22838886D01*
X74003959Y-22787253D01*
X74003958Y-22787253D01*
X73159206Y-23632005D01*
X73124351Y-23547858D01*
X73036801Y-23416830D01*
X72925370Y-23305399D01*
X72794342Y-23217849D01*
X72710193Y-23182993D01*
X73554945Y-22338240D01*
X73554945Y-22338239D01*
X73503311Y-22298621D01*
X73503304Y-22298615D01*
X73281494Y-22170553D01*
X73281478Y-22170545D01*
X73044839Y-22072527D01*
X72797423Y-22006232D01*
X72543473Y-21972800D01*
X72287327Y-21972800D01*
X72033376Y-22006232D01*
X71785960Y-22072527D01*
X71549321Y-22170545D01*
X71549305Y-22170553D01*
X71327493Y-22298617D01*
X71327479Y-22298626D01*
X71275852Y-22338240D01*
X72120606Y-23182993D01*
X72036458Y-23217849D01*
X71905430Y-23305399D01*
X71793999Y-23416830D01*
X71706449Y-23547858D01*
X71671593Y-23632005D01*
X70826840Y-22787252D01*
X70787226Y-22838879D01*
X70787217Y-22838893D01*
X70659153Y-23060705D01*
X70659145Y-23060721D01*
X70561127Y-23297360D01*
X70494832Y-23544776D01*
X70461400Y-23798727D01*
X66735609Y-23798727D01*
X66766389Y-23683854D01*
X66800700Y-23423234D01*
X66800700Y-23160366D01*
X66766389Y-22899746D01*
X66698354Y-22645834D01*
X66651151Y-22531877D01*
X66610463Y-22433646D01*
X66597758Y-22402976D01*
X66597756Y-22402971D01*
X66466324Y-22175324D01*
X66306301Y-21966778D01*
X66306295Y-21966771D01*
X66120428Y-21780904D01*
X66120421Y-21780898D01*
X65911875Y-21620875D01*
X65791641Y-21551458D01*
X65692442Y-21494186D01*
X65644228Y-21443620D01*
X65631004Y-21375014D01*
X65656972Y-21310149D01*
X65692441Y-21279414D01*
X65911876Y-21152724D01*
X66120423Y-20992700D01*
X66306300Y-20806823D01*
X66466324Y-20598276D01*
X66597758Y-20370625D01*
X66698354Y-20127766D01*
X66711706Y-20077933D01*
X66748068Y-20018275D01*
X66810915Y-19987744D01*
X66880291Y-19996038D01*
X66934169Y-20040522D01*
X66946041Y-20062574D01*
X67027738Y-20259808D01*
X67027743Y-20259818D01*
X67142789Y-20459084D01*
X67282862Y-20641631D01*
X67282868Y-20641638D01*
X67445561Y-20804331D01*
X67445568Y-20804337D01*
X67628115Y-20944410D01*
X67827381Y-21059456D01*
X67827382Y-21059456D01*
X67827385Y-21059458D01*
X68039967Y-21147513D01*
X68262223Y-21207066D01*
X68490352Y-21237100D01*
X68490359Y-21237100D01*
X68720441Y-21237100D01*
X68720448Y-21237100D01*
X68948577Y-21207066D01*
X69170833Y-21147513D01*
X69383415Y-21059458D01*
X69582685Y-20944410D01*
X69765233Y-20804336D01*
X69927936Y-20641633D01*
X70068010Y-20459085D01*
X70183058Y-20259815D01*
X70271113Y-20047233D01*
X70287770Y-19985066D01*
X70324133Y-19925407D01*
X70386979Y-19894877D01*
X70456355Y-19903171D01*
X70510233Y-19947655D01*
X70527319Y-19985066D01*
X70561128Y-20111241D01*
X70659145Y-20347878D01*
X70659153Y-20347894D01*
X70787215Y-20569704D01*
X70787221Y-20569711D01*
X70826840Y-20621345D01*
X71671593Y-19776593D01*
X71706449Y-19860742D01*
X71793999Y-19991770D01*
X71905430Y-20103201D01*
X72036458Y-20190751D01*
X72120605Y-20225606D01*
X71275853Y-21070358D01*
X71275853Y-21070359D01*
X71327486Y-21109978D01*
X71549305Y-21238046D01*
X71549321Y-21238054D01*
X71785960Y-21336072D01*
X72033376Y-21402367D01*
X72287327Y-21435800D01*
X72543473Y-21435800D01*
X72797423Y-21402367D01*
X73044839Y-21336072D01*
X73281478Y-21238054D01*
X73281494Y-21238046D01*
X73503306Y-21109982D01*
X73503324Y-21109970D01*
X73554945Y-21070359D01*
X73554945Y-21070358D01*
X72710194Y-20225606D01*
X72794342Y-20190751D01*
X72925370Y-20103201D01*
X73036801Y-19991770D01*
X73124351Y-19860742D01*
X73159206Y-19776594D01*
X74003958Y-20621345D01*
X74003959Y-20621345D01*
X74043570Y-20569724D01*
X74043582Y-20569706D01*
X74171646Y-20347894D01*
X74171654Y-20347878D01*
X74269672Y-20111239D01*
X74335967Y-19863823D01*
X74369400Y-19609872D01*
X74369400Y-19353727D01*
X74335967Y-19099776D01*
X74269672Y-18852360D01*
X74171654Y-18615721D01*
X74171646Y-18615705D01*
X74043578Y-18393886D01*
X74003959Y-18342253D01*
X74003958Y-18342253D01*
X73159206Y-19187005D01*
X73124351Y-19102858D01*
X73036801Y-18971830D01*
X72925370Y-18860399D01*
X72794342Y-18772849D01*
X72710193Y-18737993D01*
X73554945Y-17893240D01*
X73554945Y-17893239D01*
X73503311Y-17853621D01*
X73503304Y-17853615D01*
X73281494Y-17725553D01*
X73281478Y-17725545D01*
X73044839Y-17627527D01*
X72797423Y-17561232D01*
X72543473Y-17527800D01*
X72287327Y-17527800D01*
X72033376Y-17561232D01*
X71785960Y-17627527D01*
X71549321Y-17725545D01*
X71549305Y-17725553D01*
X71327493Y-17853617D01*
X71327479Y-17853626D01*
X71275852Y-17893240D01*
X72120606Y-18737993D01*
X72036458Y-18772849D01*
X71905430Y-18860399D01*
X71793999Y-18971830D01*
X71706449Y-19102858D01*
X71671593Y-19187005D01*
X70826840Y-18342252D01*
X70787226Y-18393879D01*
X70787217Y-18393893D01*
X70659153Y-18615705D01*
X70659145Y-18615721D01*
X70561128Y-18852358D01*
X70527989Y-18976033D01*
X70491623Y-19035694D01*
X70428776Y-19066222D01*
X70359401Y-19057927D01*
X70305523Y-19013441D01*
X70288440Y-18976033D01*
X70271113Y-18911367D01*
X70183058Y-18698785D01*
X70120427Y-18590305D01*
X70068010Y-18499515D01*
X69927937Y-18316968D01*
X69927931Y-18316961D01*
X69765238Y-18154268D01*
X69765231Y-18154262D01*
X69615760Y-18039569D01*
X69582684Y-18014189D01*
X69383418Y-17899143D01*
X69383408Y-17899138D01*
X69190579Y-17819266D01*
X69136176Y-17775425D01*
X69114111Y-17709131D01*
X69114032Y-17704705D01*
X69114032Y-17406857D01*
X69133717Y-17339818D01*
X69150351Y-17319176D01*
X70049708Y-16419819D01*
X70111031Y-16386334D01*
X70137389Y-16383500D01*
X77613143Y-16383500D01*
X77613145Y-16383500D01*
X77742474Y-16348847D01*
X77858427Y-16281901D01*
X79163034Y-14977293D01*
X79229980Y-14861341D01*
X79264633Y-14732012D01*
X79264633Y-14598121D01*
X79264633Y-13914973D01*
X79284318Y-13847934D01*
X79319740Y-13811872D01*
X79396974Y-13760267D01*
X79537000Y-13620241D01*
X79647018Y-13455588D01*
X79712749Y-13296900D01*
X80395044Y-13296900D01*
X80450707Y-13431286D01*
X80450709Y-13431289D01*
X80555109Y-13587535D01*
X80555115Y-13587543D01*
X80687989Y-13720417D01*
X80687997Y-13720423D01*
X80844243Y-13824823D01*
X80844246Y-13824825D01*
X80978632Y-13880489D01*
X80978633Y-13880489D01*
X81613633Y-13880489D01*
X81748019Y-13824825D01*
X81748022Y-13824823D01*
X81904268Y-13720423D01*
X81904276Y-13720417D01*
X82037150Y-13587543D01*
X82037156Y-13587535D01*
X82141556Y-13431289D01*
X82141558Y-13431286D01*
X82197222Y-13296900D01*
X81613633Y-13296900D01*
X81613633Y-13880489D01*
X80978633Y-13880489D01*
X80978633Y-13296900D01*
X80395044Y-13296900D01*
X79712749Y-13296900D01*
X79722800Y-13272635D01*
X79761433Y-13078413D01*
X79761433Y-12933322D01*
X80946133Y-12933322D01*
X80946133Y-13025478D01*
X80969985Y-13114495D01*
X81016063Y-13194305D01*
X81081228Y-13259470D01*
X81161038Y-13305548D01*
X81250055Y-13329400D01*
X81342211Y-13329400D01*
X81431228Y-13305548D01*
X81511038Y-13259470D01*
X81576203Y-13194305D01*
X81622281Y-13114495D01*
X81646133Y-13025478D01*
X81646133Y-12933322D01*
X81622281Y-12844305D01*
X81576203Y-12764495D01*
X81511038Y-12699330D01*
X81446207Y-12661900D01*
X81613633Y-12661900D01*
X82197222Y-12661900D01*
X82197222Y-12661899D01*
X82141558Y-12527513D01*
X82141556Y-12527510D01*
X82037156Y-12371264D01*
X82037150Y-12371256D01*
X81904276Y-12238382D01*
X81904272Y-12238379D01*
X81748027Y-12133979D01*
X81748017Y-12133974D01*
X81613633Y-12078310D01*
X81613633Y-12661900D01*
X81446207Y-12661900D01*
X81431228Y-12653252D01*
X81342211Y-12629400D01*
X81250055Y-12629400D01*
X81161038Y-12653252D01*
X81081228Y-12699330D01*
X81016063Y-12764495D01*
X80969985Y-12844305D01*
X80946133Y-12933322D01*
X79761433Y-12933322D01*
X79761433Y-12880387D01*
X79730471Y-12724730D01*
X79725528Y-12699878D01*
X79725526Y-12699872D01*
X79722800Y-12686165D01*
X79712749Y-12661899D01*
X80395043Y-12661899D01*
X80395044Y-12661900D01*
X80978633Y-12661900D01*
X80978633Y-12078310D01*
X80978632Y-12078310D01*
X80844248Y-12133974D01*
X80844238Y-12133979D01*
X80687993Y-12238379D01*
X80687989Y-12238382D01*
X80555115Y-12371256D01*
X80555109Y-12371264D01*
X80450709Y-12527510D01*
X80450707Y-12527513D01*
X80395043Y-12661899D01*
X79712749Y-12661899D01*
X79647018Y-12503212D01*
X79647017Y-12503211D01*
X79647014Y-12503205D01*
X79537000Y-12338559D01*
X79536997Y-12338555D01*
X79396977Y-12198535D01*
X79396971Y-12198530D01*
X79320541Y-12147460D01*
X79275737Y-12093848D01*
X79265433Y-12044359D01*
X79265433Y-6391400D01*
X79285118Y-6324361D01*
X79333139Y-6280915D01*
X79336237Y-6279337D01*
X79476988Y-6177076D01*
X79600009Y-6054055D01*
X79702270Y-5913304D01*
X79781255Y-5758288D01*
X79835017Y-5592825D01*
X79862233Y-5420994D01*
X79862233Y-5247005D01*
X86304566Y-5247005D01*
X86304566Y-5420994D01*
X86331781Y-5592825D01*
X86370344Y-5711508D01*
X86385544Y-5758288D01*
X86419680Y-5825284D01*
X86464531Y-5913307D01*
X86566784Y-6054048D01*
X86566788Y-6054053D01*
X86689812Y-6177077D01*
X86689817Y-6177081D01*
X86743936Y-6216400D01*
X86830562Y-6279337D01*
X86833659Y-6280915D01*
X86834621Y-6281823D01*
X86834710Y-6281878D01*
X86834698Y-6281896D01*
X86884454Y-6328885D01*
X86901366Y-6391400D01*
X86901366Y-12043290D01*
X86881681Y-12110329D01*
X86846258Y-12146391D01*
X86768227Y-12198530D01*
X86768221Y-12198535D01*
X86628201Y-12338555D01*
X86628198Y-12338559D01*
X86518184Y-12503205D01*
X86518179Y-12503214D01*
X86442399Y-12686164D01*
X86442397Y-12686172D01*
X86403766Y-12880382D01*
X86403766Y-13078417D01*
X86442397Y-13272627D01*
X86442399Y-13272635D01*
X86518179Y-13455585D01*
X86518184Y-13455594D01*
X86628198Y-13620240D01*
X86628201Y-13620244D01*
X86768222Y-13760265D01*
X86768225Y-13760267D01*
X86845457Y-13811871D01*
X86890261Y-13865482D01*
X86900566Y-13914973D01*
X86900566Y-17219610D01*
X86935219Y-17348941D01*
X86968658Y-17406857D01*
X87002165Y-17464893D01*
X89331299Y-19794026D01*
X89425974Y-19888701D01*
X89541926Y-19955647D01*
X89671255Y-19990300D01*
X90344863Y-19990300D01*
X90411902Y-20009985D01*
X90457657Y-20062789D01*
X90464637Y-20082205D01*
X90476843Y-20127760D01*
X90476844Y-20127762D01*
X90577439Y-20370618D01*
X90577443Y-20370628D01*
X90708875Y-20598275D01*
X90868898Y-20806821D01*
X90868904Y-20806828D01*
X91054771Y-20992695D01*
X91054778Y-20992701D01*
X91263324Y-21152724D01*
X91482756Y-21279413D01*
X91530971Y-21329980D01*
X91544195Y-21398587D01*
X91518227Y-21463452D01*
X91482756Y-21494187D01*
X91263324Y-21620875D01*
X91054778Y-21780898D01*
X91054771Y-21780904D01*
X90868904Y-21966771D01*
X90868898Y-21966778D01*
X90708875Y-22175324D01*
X90577443Y-22402971D01*
X90577439Y-22402981D01*
X90476849Y-22645826D01*
X90476844Y-22645840D01*
X90444419Y-22766853D01*
X90414275Y-22879356D01*
X90408812Y-22899743D01*
X90408809Y-22899756D01*
X90374501Y-23160355D01*
X90374500Y-23160372D01*
X90374500Y-23423227D01*
X90374501Y-23423244D01*
X90408809Y-23683843D01*
X90408810Y-23683848D01*
X90408811Y-23683854D01*
X90476846Y-23937766D01*
X90476849Y-23937773D01*
X90577439Y-24180618D01*
X90577443Y-24180628D01*
X90708875Y-24408275D01*
X90868898Y-24616821D01*
X90868904Y-24616828D01*
X91054771Y-24802695D01*
X91054778Y-24802701D01*
X91263324Y-24962724D01*
X91490971Y-25094156D01*
X91490972Y-25094156D01*
X91490975Y-25094158D01*
X91733834Y-25194754D01*
X91987746Y-25262789D01*
X92248366Y-25297100D01*
X92248373Y-25297100D01*
X92511227Y-25297100D01*
X92511234Y-25297100D01*
X92771854Y-25262789D01*
X93025766Y-25194754D01*
X93268625Y-25094158D01*
X93496276Y-24962724D01*
X93704823Y-24802700D01*
X93890700Y-24616823D01*
X94050724Y-24408276D01*
X94182158Y-24180625D01*
X94282754Y-23937766D01*
X94320009Y-23798727D01*
X98045800Y-23798727D01*
X98045800Y-24054872D01*
X98079232Y-24308823D01*
X98145527Y-24556239D01*
X98243545Y-24792878D01*
X98243553Y-24792894D01*
X98371615Y-25014704D01*
X98371621Y-25014711D01*
X98411240Y-25066345D01*
X99255993Y-24221593D01*
X99290849Y-24305742D01*
X99378399Y-24436770D01*
X99489830Y-24548201D01*
X99620858Y-24635751D01*
X99705005Y-24670606D01*
X98860253Y-25515358D01*
X98860253Y-25515359D01*
X98911886Y-25554978D01*
X99133705Y-25683046D01*
X99133721Y-25683054D01*
X99370360Y-25781072D01*
X99617776Y-25847367D01*
X99871727Y-25880800D01*
X100127873Y-25880800D01*
X100381823Y-25847367D01*
X100629239Y-25781072D01*
X100865878Y-25683054D01*
X100865894Y-25683046D01*
X101087706Y-25554982D01*
X101087724Y-25554970D01*
X101139345Y-25515359D01*
X101139345Y-25515358D01*
X100294594Y-24670606D01*
X100378742Y-24635751D01*
X100509770Y-24548201D01*
X100621201Y-24436770D01*
X100708751Y-24305742D01*
X100743606Y-24221594D01*
X101588358Y-25066345D01*
X101588359Y-25066345D01*
X101627970Y-25014724D01*
X101627982Y-25014706D01*
X101756046Y-24792894D01*
X101756054Y-24792878D01*
X101854072Y-24556239D01*
X101920367Y-24308823D01*
X101953800Y-24054872D01*
X101953800Y-23798727D01*
X101920367Y-23544776D01*
X101854072Y-23297360D01*
X101756054Y-23060721D01*
X101756046Y-23060705D01*
X101627978Y-22838886D01*
X101588359Y-22787253D01*
X101588358Y-22787253D01*
X100743606Y-23632005D01*
X100708751Y-23547858D01*
X100621201Y-23416830D01*
X100509770Y-23305399D01*
X100378742Y-23217849D01*
X100294593Y-23182993D01*
X101139345Y-22338240D01*
X101139345Y-22338239D01*
X101087711Y-22298621D01*
X101087704Y-22298615D01*
X100865894Y-22170553D01*
X100865878Y-22170545D01*
X100629239Y-22072527D01*
X100381823Y-22006232D01*
X100127873Y-21972800D01*
X99871727Y-21972800D01*
X99617776Y-22006232D01*
X99370360Y-22072527D01*
X99133721Y-22170545D01*
X99133705Y-22170553D01*
X98911893Y-22298617D01*
X98911879Y-22298626D01*
X98860252Y-22338240D01*
X99705006Y-23182993D01*
X99620858Y-23217849D01*
X99489830Y-23305399D01*
X99378399Y-23416830D01*
X99290849Y-23547858D01*
X99255993Y-23632005D01*
X98411240Y-22787252D01*
X98371626Y-22838879D01*
X98371617Y-22838893D01*
X98243553Y-23060705D01*
X98243545Y-23060721D01*
X98145527Y-23297360D01*
X98079232Y-23544776D01*
X98045800Y-23798727D01*
X94320009Y-23798727D01*
X94350789Y-23683854D01*
X94385100Y-23423234D01*
X94385100Y-23160366D01*
X94350789Y-22899746D01*
X94282754Y-22645834D01*
X94235551Y-22531877D01*
X94194863Y-22433646D01*
X94182158Y-22402976D01*
X94182156Y-22402971D01*
X94050724Y-22175324D01*
X93890701Y-21966778D01*
X93890695Y-21966771D01*
X93704828Y-21780904D01*
X93704821Y-21780898D01*
X93496275Y-21620875D01*
X93376041Y-21551458D01*
X93276842Y-21494186D01*
X93228628Y-21443620D01*
X93215404Y-21375014D01*
X93241372Y-21310149D01*
X93276841Y-21279414D01*
X93496276Y-21152724D01*
X93704823Y-20992700D01*
X93890700Y-20806823D01*
X94050724Y-20598276D01*
X94182158Y-20370625D01*
X94282754Y-20127766D01*
X94296106Y-20077933D01*
X94332468Y-20018275D01*
X94395315Y-19987744D01*
X94464691Y-19996038D01*
X94518569Y-20040522D01*
X94530441Y-20062574D01*
X94612138Y-20259808D01*
X94612143Y-20259818D01*
X94727189Y-20459084D01*
X94867262Y-20641631D01*
X94867268Y-20641638D01*
X95029961Y-20804331D01*
X95029968Y-20804337D01*
X95212515Y-20944410D01*
X95411781Y-21059456D01*
X95411782Y-21059456D01*
X95411785Y-21059458D01*
X95624367Y-21147513D01*
X95846623Y-21207066D01*
X96074752Y-21237100D01*
X96074759Y-21237100D01*
X96304841Y-21237100D01*
X96304848Y-21237100D01*
X96532977Y-21207066D01*
X96755233Y-21147513D01*
X96967815Y-21059458D01*
X97167085Y-20944410D01*
X97349633Y-20804336D01*
X97512336Y-20641633D01*
X97652410Y-20459085D01*
X97767458Y-20259815D01*
X97855513Y-20047233D01*
X97872170Y-19985066D01*
X97908533Y-19925407D01*
X97971379Y-19894877D01*
X98040755Y-19903171D01*
X98094633Y-19947655D01*
X98111719Y-19985066D01*
X98145528Y-20111241D01*
X98243545Y-20347878D01*
X98243553Y-20347894D01*
X98371615Y-20569704D01*
X98371621Y-20569711D01*
X98411240Y-20621345D01*
X99255993Y-19776593D01*
X99290849Y-19860742D01*
X99378399Y-19991770D01*
X99489830Y-20103201D01*
X99620858Y-20190751D01*
X99705005Y-20225606D01*
X98860253Y-21070358D01*
X98860253Y-21070359D01*
X98911886Y-21109978D01*
X99133705Y-21238046D01*
X99133721Y-21238054D01*
X99370360Y-21336072D01*
X99617776Y-21402367D01*
X99871727Y-21435800D01*
X100127873Y-21435800D01*
X100381823Y-21402367D01*
X100629239Y-21336072D01*
X100865878Y-21238054D01*
X100865894Y-21238046D01*
X101087706Y-21109982D01*
X101087724Y-21109970D01*
X101139345Y-21070359D01*
X101139345Y-21070358D01*
X100294594Y-20225606D01*
X100378742Y-20190751D01*
X100509770Y-20103201D01*
X100621201Y-19991770D01*
X100708751Y-19860742D01*
X100743606Y-19776594D01*
X101588358Y-20621345D01*
X101588359Y-20621345D01*
X101627970Y-20569724D01*
X101627982Y-20569706D01*
X101756046Y-20347894D01*
X101756054Y-20347878D01*
X101854072Y-20111239D01*
X101920367Y-19863823D01*
X101953800Y-19609872D01*
X101953800Y-19353727D01*
X101920367Y-19099776D01*
X101854072Y-18852360D01*
X101756054Y-18615721D01*
X101756046Y-18615705D01*
X101627978Y-18393886D01*
X101588359Y-18342253D01*
X101588358Y-18342253D01*
X100743606Y-19187005D01*
X100708751Y-19102858D01*
X100621201Y-18971830D01*
X100509770Y-18860399D01*
X100378742Y-18772849D01*
X100294593Y-18737993D01*
X101139345Y-17893240D01*
X101139345Y-17893239D01*
X101087711Y-17853621D01*
X101087704Y-17853615D01*
X100865894Y-17725553D01*
X100865878Y-17725545D01*
X100629239Y-17627527D01*
X100381823Y-17561232D01*
X100127873Y-17527800D01*
X99871727Y-17527800D01*
X99617776Y-17561232D01*
X99370360Y-17627527D01*
X99133721Y-17725545D01*
X99133705Y-17725553D01*
X98911893Y-17853617D01*
X98911879Y-17853626D01*
X98860252Y-17893240D01*
X99705006Y-18737993D01*
X99620858Y-18772849D01*
X99489830Y-18860399D01*
X99378399Y-18971830D01*
X99290849Y-19102858D01*
X99255993Y-19187005D01*
X98411240Y-18342252D01*
X98371626Y-18393879D01*
X98371617Y-18393893D01*
X98243553Y-18615705D01*
X98243545Y-18615721D01*
X98145528Y-18852358D01*
X98112389Y-18976033D01*
X98076023Y-19035694D01*
X98013176Y-19066222D01*
X97943801Y-19057927D01*
X97889923Y-19013441D01*
X97872840Y-18976033D01*
X97855513Y-18911367D01*
X97767458Y-18698785D01*
X97704827Y-18590305D01*
X97652410Y-18499515D01*
X97512337Y-18316968D01*
X97512331Y-18316961D01*
X97349638Y-18154268D01*
X97349631Y-18154262D01*
X97200160Y-18039569D01*
X97167084Y-18014189D01*
X96967818Y-17899143D01*
X96967808Y-17899139D01*
X96755233Y-17811087D01*
X96662406Y-17786214D01*
X96602746Y-17749848D01*
X96572217Y-17687001D01*
X96570500Y-17666439D01*
X96570500Y-13914973D01*
X96590185Y-13847934D01*
X96625607Y-13811872D01*
X96702841Y-13760267D01*
X96842867Y-13620241D01*
X96952885Y-13455588D01*
X97018616Y-13296900D01*
X97700911Y-13296900D01*
X97756574Y-13431286D01*
X97756576Y-13431289D01*
X97860976Y-13587535D01*
X97860982Y-13587543D01*
X97993856Y-13720417D01*
X97993864Y-13720423D01*
X98150110Y-13824823D01*
X98150113Y-13824825D01*
X98284499Y-13880489D01*
X98284500Y-13880489D01*
X98919500Y-13880489D01*
X99053886Y-13824825D01*
X99053889Y-13824823D01*
X99210135Y-13720423D01*
X99210143Y-13720417D01*
X99343017Y-13587543D01*
X99343023Y-13587535D01*
X99447423Y-13431289D01*
X99447425Y-13431286D01*
X99503089Y-13296900D01*
X98919500Y-13296900D01*
X98919500Y-13880489D01*
X98284500Y-13880489D01*
X98284500Y-13296900D01*
X97700911Y-13296900D01*
X97018616Y-13296900D01*
X97028667Y-13272635D01*
X97067300Y-13078413D01*
X97067300Y-12933322D01*
X98252000Y-12933322D01*
X98252000Y-13025478D01*
X98275852Y-13114495D01*
X98321930Y-13194305D01*
X98387095Y-13259470D01*
X98466905Y-13305548D01*
X98555922Y-13329400D01*
X98648078Y-13329400D01*
X98737095Y-13305548D01*
X98816905Y-13259470D01*
X98882070Y-13194305D01*
X98928148Y-13114495D01*
X98952000Y-13025478D01*
X98952000Y-12933322D01*
X98928148Y-12844305D01*
X98882070Y-12764495D01*
X98816905Y-12699330D01*
X98752074Y-12661900D01*
X98919500Y-12661900D01*
X99503089Y-12661900D01*
X99503089Y-12661899D01*
X99447425Y-12527513D01*
X99447423Y-12527510D01*
X99343023Y-12371264D01*
X99343017Y-12371256D01*
X99210143Y-12238382D01*
X99210139Y-12238379D01*
X99053894Y-12133979D01*
X99053884Y-12133974D01*
X98919500Y-12078310D01*
X98919500Y-12661900D01*
X98752074Y-12661900D01*
X98737095Y-12653252D01*
X98648078Y-12629400D01*
X98555922Y-12629400D01*
X98466905Y-12653252D01*
X98387095Y-12699330D01*
X98321930Y-12764495D01*
X98275852Y-12844305D01*
X98252000Y-12933322D01*
X97067300Y-12933322D01*
X97067300Y-12880387D01*
X97036338Y-12724730D01*
X97031395Y-12699878D01*
X97031393Y-12699872D01*
X97028667Y-12686165D01*
X97018616Y-12661899D01*
X97700910Y-12661899D01*
X97700911Y-12661900D01*
X98284500Y-12661900D01*
X98284500Y-12078310D01*
X98284499Y-12078310D01*
X98150115Y-12133974D01*
X98150105Y-12133979D01*
X97993860Y-12238379D01*
X97993856Y-12238382D01*
X97860982Y-12371256D01*
X97860976Y-12371264D01*
X97756576Y-12527510D01*
X97756574Y-12527513D01*
X97700910Y-12661899D01*
X97018616Y-12661899D01*
X96952885Y-12503212D01*
X96952884Y-12503211D01*
X96952881Y-12503205D01*
X96842867Y-12338559D01*
X96842864Y-12338555D01*
X96702844Y-12198535D01*
X96702838Y-12198530D01*
X96626408Y-12147460D01*
X96581604Y-12093848D01*
X96571300Y-12044359D01*
X96571300Y-6391400D01*
X96590985Y-6324361D01*
X96639006Y-6280915D01*
X96642104Y-6279337D01*
X96782855Y-6177076D01*
X96905876Y-6054055D01*
X97008137Y-5913304D01*
X97087122Y-5758288D01*
X97140884Y-5592825D01*
X97168100Y-5420994D01*
X97168100Y-5247005D01*
X97140884Y-5075174D01*
X97127945Y-5035354D01*
X97087122Y-4909712D01*
X97008137Y-4754696D01*
X96975023Y-4709118D01*
X96905881Y-4613951D01*
X96905877Y-4613946D01*
X96782853Y-4490922D01*
X96782848Y-4490918D01*
X96642107Y-4388665D01*
X96642106Y-4388664D01*
X96642104Y-4388663D01*
X96593696Y-4363998D01*
X96487092Y-4309679D01*
X96476633Y-4306281D01*
X96459614Y-4300751D01*
X96321625Y-4255915D01*
X96149794Y-4228700D01*
X96149789Y-4228700D01*
X95975811Y-4228700D01*
X95975806Y-4228700D01*
X95803974Y-4255915D01*
X95638509Y-4309679D01*
X95483492Y-4388665D01*
X95342751Y-4490918D01*
X95342746Y-4490922D01*
X95219722Y-4613946D01*
X95219718Y-4613951D01*
X95117465Y-4754692D01*
X95038479Y-4909709D01*
X94984715Y-5075174D01*
X94957500Y-5247005D01*
X94957500Y-5420994D01*
X94984715Y-5592825D01*
X95023278Y-5711508D01*
X95038478Y-5758288D01*
X95072614Y-5825284D01*
X95117465Y-5913307D01*
X95219718Y-6054048D01*
X95219722Y-6054053D01*
X95342746Y-6177077D01*
X95342751Y-6177081D01*
X95396870Y-6216400D01*
X95483496Y-6279337D01*
X95486593Y-6280915D01*
X95487555Y-6281823D01*
X95487644Y-6281878D01*
X95487632Y-6281896D01*
X95537388Y-6328885D01*
X95554300Y-6391400D01*
X95554300Y-12043290D01*
X95534615Y-12110329D01*
X95499192Y-12146391D01*
X95421161Y-12198530D01*
X95421155Y-12198535D01*
X95281135Y-12338555D01*
X95281132Y-12338559D01*
X95171118Y-12503205D01*
X95171113Y-12503214D01*
X95095333Y-12686164D01*
X95095331Y-12686172D01*
X95056700Y-12880382D01*
X95056700Y-13078417D01*
X95095331Y-13272627D01*
X95095333Y-13272635D01*
X95171113Y-13455585D01*
X95171118Y-13455594D01*
X95281132Y-13620240D01*
X95281135Y-13620244D01*
X95421156Y-13760265D01*
X95421159Y-13760267D01*
X95498391Y-13811871D01*
X95543195Y-13865482D01*
X95553500Y-13914973D01*
X95553500Y-17757587D01*
X95533815Y-17824626D01*
X95481011Y-17870381D01*
X95476954Y-17872147D01*
X95411794Y-17899138D01*
X95411774Y-17899147D01*
X95212515Y-18014189D01*
X95029968Y-18154262D01*
X95029961Y-18154268D01*
X94867268Y-18316961D01*
X94867262Y-18316968D01*
X94727189Y-18499515D01*
X94612143Y-18698781D01*
X94612138Y-18698791D01*
X94529628Y-18897989D01*
X94485787Y-18952392D01*
X94419492Y-18974457D01*
X94351793Y-18957178D01*
X94304183Y-18906040D01*
X94295293Y-18882634D01*
X94282754Y-18835834D01*
X94182158Y-18592975D01*
X94180616Y-18590305D01*
X94050724Y-18365324D01*
X93890701Y-18156778D01*
X93890695Y-18156771D01*
X93704828Y-17970904D01*
X93704821Y-17970898D01*
X93496275Y-17810875D01*
X93268628Y-17679443D01*
X93268618Y-17679439D01*
X93025773Y-17578849D01*
X93025774Y-17578849D01*
X93025766Y-17578846D01*
X92771854Y-17510811D01*
X92771848Y-17510810D01*
X92771843Y-17510809D01*
X92511244Y-17476501D01*
X92511239Y-17476500D01*
X92511234Y-17476500D01*
X92248366Y-17476500D01*
X92248360Y-17476500D01*
X92248355Y-17476501D01*
X91987756Y-17510809D01*
X91987749Y-17510810D01*
X91987746Y-17510811D01*
X91924342Y-17527800D01*
X91733840Y-17578844D01*
X91733826Y-17578849D01*
X91490981Y-17679439D01*
X91490971Y-17679443D01*
X91263324Y-17810875D01*
X91054778Y-17970898D01*
X91054771Y-17970904D01*
X90868904Y-18156771D01*
X90868898Y-18156778D01*
X90708875Y-18365324D01*
X90577443Y-18592971D01*
X90577439Y-18592981D01*
X90476844Y-18835837D01*
X90476843Y-18835839D01*
X90464637Y-18881395D01*
X90428272Y-18941055D01*
X90365425Y-18971583D01*
X90344863Y-18973300D01*
X90000189Y-18973300D01*
X89933150Y-18953615D01*
X89912508Y-18936981D01*
X87953885Y-16978357D01*
X87920400Y-16917034D01*
X87917566Y-16890676D01*
X87917566Y-13914973D01*
X87937251Y-13847934D01*
X87972673Y-13811872D01*
X88049907Y-13760267D01*
X88189933Y-13620241D01*
X88299951Y-13455588D01*
X88365682Y-13296900D01*
X89047977Y-13296900D01*
X89103640Y-13431286D01*
X89103642Y-13431289D01*
X89208042Y-13587535D01*
X89208048Y-13587543D01*
X89340922Y-13720417D01*
X89340930Y-13720423D01*
X89497176Y-13824823D01*
X89497179Y-13824825D01*
X89631565Y-13880489D01*
X89631566Y-13880489D01*
X90266566Y-13880489D01*
X90400952Y-13824825D01*
X90400955Y-13824823D01*
X90557201Y-13720423D01*
X90557209Y-13720417D01*
X90690083Y-13587543D01*
X90690089Y-13587535D01*
X90794489Y-13431289D01*
X90794491Y-13431286D01*
X90850155Y-13296900D01*
X90266566Y-13296900D01*
X90266566Y-13880489D01*
X89631566Y-13880489D01*
X89631566Y-13296900D01*
X89047977Y-13296900D01*
X88365682Y-13296900D01*
X88375733Y-13272635D01*
X88414366Y-13078413D01*
X88414366Y-12933322D01*
X89599066Y-12933322D01*
X89599066Y-13025478D01*
X89622918Y-13114495D01*
X89668996Y-13194305D01*
X89734161Y-13259470D01*
X89813971Y-13305548D01*
X89902988Y-13329400D01*
X89995144Y-13329400D01*
X90084161Y-13305548D01*
X90163971Y-13259470D01*
X90229136Y-13194305D01*
X90275214Y-13114495D01*
X90299066Y-13025478D01*
X90299066Y-12933322D01*
X90275214Y-12844305D01*
X90229136Y-12764495D01*
X90163971Y-12699330D01*
X90099140Y-12661900D01*
X90266566Y-12661900D01*
X90850155Y-12661900D01*
X90850155Y-12661899D01*
X90794491Y-12527513D01*
X90794489Y-12527510D01*
X90690089Y-12371264D01*
X90690083Y-12371256D01*
X90557209Y-12238382D01*
X90557205Y-12238379D01*
X90400960Y-12133979D01*
X90400950Y-12133974D01*
X90266566Y-12078310D01*
X90266566Y-12661900D01*
X90099140Y-12661900D01*
X90084161Y-12653252D01*
X89995144Y-12629400D01*
X89902988Y-12629400D01*
X89813971Y-12653252D01*
X89734161Y-12699330D01*
X89668996Y-12764495D01*
X89622918Y-12844305D01*
X89599066Y-12933322D01*
X88414366Y-12933322D01*
X88414366Y-12880387D01*
X88383404Y-12724730D01*
X88378461Y-12699878D01*
X88378459Y-12699872D01*
X88375733Y-12686165D01*
X88365682Y-12661899D01*
X89047976Y-12661899D01*
X89047977Y-12661900D01*
X89631566Y-12661900D01*
X89631566Y-12078310D01*
X89631565Y-12078310D01*
X89497181Y-12133974D01*
X89497171Y-12133979D01*
X89340926Y-12238379D01*
X89340922Y-12238382D01*
X89208048Y-12371256D01*
X89208042Y-12371264D01*
X89103642Y-12527510D01*
X89103640Y-12527513D01*
X89047976Y-12661899D01*
X88365682Y-12661899D01*
X88299951Y-12503212D01*
X88299950Y-12503211D01*
X88299947Y-12503205D01*
X88189933Y-12338559D01*
X88189930Y-12338555D01*
X88049910Y-12198535D01*
X88049904Y-12198530D01*
X87973474Y-12147460D01*
X87928670Y-12093848D01*
X87918366Y-12044359D01*
X87918366Y-6391400D01*
X87938051Y-6324361D01*
X87986072Y-6280915D01*
X87989170Y-6279337D01*
X88129921Y-6177076D01*
X88252942Y-6054055D01*
X88355203Y-5913304D01*
X88434188Y-5758288D01*
X88487950Y-5592825D01*
X88515166Y-5420994D01*
X88515166Y-5247005D01*
X88487950Y-5075174D01*
X88475011Y-5035354D01*
X88434188Y-4909712D01*
X88355203Y-4754696D01*
X88322089Y-4709118D01*
X88252947Y-4613951D01*
X88252943Y-4613946D01*
X88129919Y-4490922D01*
X88129914Y-4490918D01*
X87989173Y-4388665D01*
X87989172Y-4388664D01*
X87989170Y-4388663D01*
X87834154Y-4309678D01*
X87791242Y-4295735D01*
X87668691Y-4255915D01*
X87496860Y-4228700D01*
X87496855Y-4228700D01*
X87322877Y-4228700D01*
X87322872Y-4228700D01*
X87151040Y-4255915D01*
X86985575Y-4309679D01*
X86830558Y-4388665D01*
X86689817Y-4490918D01*
X86689812Y-4490922D01*
X86566788Y-4613946D01*
X86566784Y-4613951D01*
X86464531Y-4754692D01*
X86385545Y-4909709D01*
X86331781Y-5075174D01*
X86304566Y-5247005D01*
X79862233Y-5247005D01*
X79835017Y-5075174D01*
X79822078Y-5035354D01*
X79781255Y-4909712D01*
X79702270Y-4754696D01*
X79669156Y-4709118D01*
X79600014Y-4613951D01*
X79600010Y-4613946D01*
X79476986Y-4490922D01*
X79476981Y-4490918D01*
X79336240Y-4388665D01*
X79336239Y-4388664D01*
X79336237Y-4388663D01*
X79181221Y-4309678D01*
X79138309Y-4295735D01*
X79015758Y-4255915D01*
X78843927Y-4228700D01*
X78843922Y-4228700D01*
X78669944Y-4228700D01*
X78669939Y-4228700D01*
X78498107Y-4255915D01*
X78332642Y-4309679D01*
X78177625Y-4388665D01*
X78036884Y-4490918D01*
X78036879Y-4490922D01*
X77913855Y-4613946D01*
X77913851Y-4613951D01*
X77811598Y-4754692D01*
X77732612Y-4909709D01*
X77678848Y-5075174D01*
X77651633Y-5247005D01*
X77651633Y-5420994D01*
X77678848Y-5592825D01*
X77717411Y-5711508D01*
X77732611Y-5758288D01*
X77766747Y-5825284D01*
X77811598Y-5913307D01*
X77913851Y-6054048D01*
X77913855Y-6054053D01*
X78036879Y-6177077D01*
X78036884Y-6177081D01*
X78091003Y-6216400D01*
X78177629Y-6279337D01*
X78180726Y-6280915D01*
X78181688Y-6281823D01*
X78181777Y-6281878D01*
X78181765Y-6281896D01*
X78231521Y-6328885D01*
X78248433Y-6391400D01*
X78248433Y-12043290D01*
X78228748Y-12110329D01*
X78193325Y-12146391D01*
X78115294Y-12198530D01*
X78115288Y-12198535D01*
X77975268Y-12338555D01*
X77975265Y-12338559D01*
X77865251Y-12503205D01*
X77865246Y-12503214D01*
X77789466Y-12686164D01*
X77789464Y-12686172D01*
X77750833Y-12880382D01*
X77750833Y-13078417D01*
X77789464Y-13272627D01*
X77789466Y-13272635D01*
X77865246Y-13455585D01*
X77865251Y-13455594D01*
X77975265Y-13620240D01*
X77975268Y-13620244D01*
X78115289Y-13760265D01*
X78115292Y-13760267D01*
X78192524Y-13811871D01*
X78237328Y-13865482D01*
X78247633Y-13914973D01*
X78247633Y-14403077D01*
X78227948Y-14470116D01*
X78211314Y-14490758D01*
X77371891Y-15330181D01*
X77310568Y-15363666D01*
X77284210Y-15366500D01*
X69808455Y-15366500D01*
X69679125Y-15401153D01*
X69563174Y-15468099D01*
X69563171Y-15468101D01*
X68198631Y-16832640D01*
X68198630Y-16832642D01*
X68195720Y-16837683D01*
X68195718Y-16837687D01*
X68131685Y-16948592D01*
X68097032Y-17077923D01*
X68097032Y-17704596D01*
X68077347Y-17771635D01*
X68024543Y-17817390D01*
X68020495Y-17819152D01*
X68007281Y-17824626D01*
X67827391Y-17899138D01*
X67827381Y-17899143D01*
X67628115Y-18014189D01*
X67445568Y-18154262D01*
X67445561Y-18154268D01*
X67282868Y-18316961D01*
X67282862Y-18316968D01*
X67142789Y-18499515D01*
X67027743Y-18698781D01*
X67027738Y-18698791D01*
X66945228Y-18897989D01*
X66901387Y-18952392D01*
X66835092Y-18974457D01*
X66767393Y-18957178D01*
X66719783Y-18906040D01*
X66710893Y-18882634D01*
X66698354Y-18835834D01*
X66597758Y-18592975D01*
X66596216Y-18590305D01*
X66466324Y-18365324D01*
X66306301Y-18156778D01*
X66306295Y-18156771D01*
X66120428Y-17970904D01*
X66120421Y-17970898D01*
X65911875Y-17810875D01*
X65684228Y-17679443D01*
X65684218Y-17679439D01*
X65441362Y-17578844D01*
X65421204Y-17573443D01*
X65361544Y-17537077D01*
X65331016Y-17474229D01*
X65329300Y-17453669D01*
X65329300Y-15857589D01*
X65348985Y-15790550D01*
X65365619Y-15769908D01*
X67611308Y-13524219D01*
X67672631Y-13490734D01*
X67698989Y-13487900D01*
X69167626Y-13487900D01*
X69234665Y-13507585D01*
X69270728Y-13543009D01*
X69322332Y-13620241D01*
X69462355Y-13760264D01*
X69462359Y-13760267D01*
X69627005Y-13870281D01*
X69627014Y-13870286D01*
X69668458Y-13887452D01*
X69809965Y-13946067D01*
X70004182Y-13984699D01*
X70004186Y-13984700D01*
X70004187Y-13984700D01*
X70202214Y-13984700D01*
X70202215Y-13984699D01*
X70396435Y-13946067D01*
X70579388Y-13870285D01*
X70744041Y-13760267D01*
X70884067Y-13620241D01*
X70994085Y-13455588D01*
X71059816Y-13296900D01*
X71742111Y-13296900D01*
X71797774Y-13431286D01*
X71797776Y-13431289D01*
X71902176Y-13587535D01*
X71902182Y-13587543D01*
X72035056Y-13720417D01*
X72035064Y-13720423D01*
X72191310Y-13824823D01*
X72191313Y-13824825D01*
X72325699Y-13880489D01*
X72325700Y-13880489D01*
X72960700Y-13880489D01*
X73095086Y-13824825D01*
X73095089Y-13824823D01*
X73251335Y-13720423D01*
X73251343Y-13720417D01*
X73384217Y-13587543D01*
X73384223Y-13587535D01*
X73488623Y-13431289D01*
X73488625Y-13431286D01*
X73544289Y-13296900D01*
X72960700Y-13296900D01*
X72960700Y-13880489D01*
X72325700Y-13880489D01*
X72325700Y-13296900D01*
X71742111Y-13296900D01*
X71059816Y-13296900D01*
X71069867Y-13272635D01*
X71108500Y-13078413D01*
X71108500Y-12933322D01*
X72293200Y-12933322D01*
X72293200Y-13025478D01*
X72317052Y-13114495D01*
X72363130Y-13194305D01*
X72428295Y-13259470D01*
X72508105Y-13305548D01*
X72597122Y-13329400D01*
X72689278Y-13329400D01*
X72778295Y-13305548D01*
X72858105Y-13259470D01*
X72923270Y-13194305D01*
X72969348Y-13114495D01*
X72993200Y-13025478D01*
X72993200Y-12933322D01*
X72969348Y-12844305D01*
X72923270Y-12764495D01*
X72858105Y-12699330D01*
X72793274Y-12661900D01*
X72960700Y-12661900D01*
X73544289Y-12661900D01*
X73544289Y-12661899D01*
X73488625Y-12527513D01*
X73488623Y-12527510D01*
X73384223Y-12371264D01*
X73384217Y-12371256D01*
X73251343Y-12238382D01*
X73251339Y-12238379D01*
X73095094Y-12133979D01*
X73095084Y-12133974D01*
X72960700Y-12078310D01*
X72960700Y-12661900D01*
X72793274Y-12661900D01*
X72778295Y-12653252D01*
X72689278Y-12629400D01*
X72597122Y-12629400D01*
X72508105Y-12653252D01*
X72428295Y-12699330D01*
X72363130Y-12764495D01*
X72317052Y-12844305D01*
X72293200Y-12933322D01*
X71108500Y-12933322D01*
X71108500Y-12880387D01*
X71077538Y-12724730D01*
X71072595Y-12699878D01*
X71072593Y-12699872D01*
X71069867Y-12686165D01*
X71059816Y-12661899D01*
X71742110Y-12661899D01*
X71742111Y-12661900D01*
X72325700Y-12661900D01*
X72325700Y-12078310D01*
X72325699Y-12078310D01*
X72191315Y-12133974D01*
X72191305Y-12133979D01*
X72035060Y-12238379D01*
X72035056Y-12238382D01*
X71902182Y-12371256D01*
X71902176Y-12371264D01*
X71797776Y-12527510D01*
X71797774Y-12527513D01*
X71742110Y-12661899D01*
X71059816Y-12661899D01*
X70994085Y-12503212D01*
X70994084Y-12503211D01*
X70994081Y-12503205D01*
X70884067Y-12338559D01*
X70884064Y-12338555D01*
X70744044Y-12198535D01*
X70744038Y-12198530D01*
X70667608Y-12147460D01*
X70622804Y-12093848D01*
X70612500Y-12044359D01*
X70612500Y-6391400D01*
X70632185Y-6324361D01*
X70680206Y-6280915D01*
X70683304Y-6279337D01*
X70824055Y-6177076D01*
X70947076Y-6054055D01*
X71049337Y-5913304D01*
X71128322Y-5758288D01*
X71182084Y-5592825D01*
X71209300Y-5420994D01*
X71209300Y-5247005D01*
X71182084Y-5075174D01*
X71169145Y-5035354D01*
X71128322Y-4909712D01*
X71049337Y-4754696D01*
X71016223Y-4709118D01*
X70947081Y-4613951D01*
X70947077Y-4613946D01*
X70824053Y-4490922D01*
X70824048Y-4490918D01*
X70683307Y-4388665D01*
X70683306Y-4388664D01*
X70683304Y-4388663D01*
X70528288Y-4309678D01*
X70485376Y-4295735D01*
X70362825Y-4255915D01*
X70190994Y-4228700D01*
X70190989Y-4228700D01*
X70017011Y-4228700D01*
X70017006Y-4228700D01*
X69845174Y-4255915D01*
X69679709Y-4309679D01*
X69524692Y-4388665D01*
X69383951Y-4490918D01*
X69383946Y-4490922D01*
X69260922Y-4613946D01*
X69260918Y-4613951D01*
X69158665Y-4754692D01*
X69079679Y-4909709D01*
X69025915Y-5075174D01*
X68998700Y-5247005D01*
X68998700Y-5420994D01*
X69025915Y-5592825D01*
X69064478Y-5711508D01*
X69079678Y-5758288D01*
X69113814Y-5825284D01*
X69158665Y-5913307D01*
X69260918Y-6054048D01*
X69260922Y-6054053D01*
X69383946Y-6177077D01*
X69383951Y-6177081D01*
X69438070Y-6216400D01*
X69524696Y-6279337D01*
X69527793Y-6280915D01*
X69528755Y-6281823D01*
X69528844Y-6281878D01*
X69528832Y-6281896D01*
X69578588Y-6328885D01*
X69595500Y-6391400D01*
X69595500Y-12043290D01*
X69575815Y-12110329D01*
X69540392Y-12146391D01*
X69462361Y-12198530D01*
X69462355Y-12198535D01*
X69322332Y-12338558D01*
X69270728Y-12415791D01*
X69217116Y-12460596D01*
X69167626Y-12470900D01*
X67370055Y-12470900D01*
X67240725Y-12505553D01*
X67240722Y-12505554D01*
X67196732Y-12530952D01*
X67196733Y-12530953D01*
X67124774Y-12572499D01*
X67124771Y-12572501D01*
X64413900Y-15283370D01*
X64413898Y-15283372D01*
X64409900Y-15290299D01*
X64409900Y-15290300D01*
X64346953Y-15399324D01*
X64312300Y-15528655D01*
X64312300Y-17440057D01*
X64292615Y-17507096D01*
X64239811Y-17552851D01*
X64220395Y-17559831D01*
X64149434Y-17578846D01*
X64149432Y-17578846D01*
X64149431Y-17578847D01*
X63906581Y-17679439D01*
X63906571Y-17679443D01*
X63678924Y-17810875D01*
X63470378Y-17970898D01*
X63470371Y-17970904D01*
X63284504Y-18156771D01*
X63284498Y-18156778D01*
X63124475Y-18365324D01*
X62993043Y-18592971D01*
X62993039Y-18592981D01*
X62892449Y-18835826D01*
X62892444Y-18835840D01*
X62861016Y-18953134D01*
X62828530Y-19074376D01*
X62824412Y-19089743D01*
X62824409Y-19089756D01*
X62790101Y-19350355D01*
X62790100Y-19350372D01*
X46784558Y-19350372D01*
X46751567Y-19099776D01*
X46685272Y-18852360D01*
X46587254Y-18615721D01*
X46587246Y-18615705D01*
X46459178Y-18393886D01*
X46419559Y-18342253D01*
X46419558Y-18342253D01*
X45574806Y-19187005D01*
X45539951Y-19102858D01*
X45452401Y-18971830D01*
X45340970Y-18860399D01*
X45209942Y-18772849D01*
X45125793Y-18737993D01*
X45970545Y-17893240D01*
X45970545Y-17893239D01*
X45918911Y-17853621D01*
X45918904Y-17853615D01*
X45697094Y-17725553D01*
X45697078Y-17725545D01*
X45460439Y-17627527D01*
X45213023Y-17561232D01*
X44959073Y-17527800D01*
X44702927Y-17527800D01*
X44448976Y-17561232D01*
X44201560Y-17627527D01*
X43964921Y-17725545D01*
X43964905Y-17725553D01*
X43743093Y-17853617D01*
X43743079Y-17853626D01*
X43691452Y-17893240D01*
X44536206Y-18737993D01*
X44452058Y-18772849D01*
X44321030Y-18860399D01*
X44209599Y-18971830D01*
X44122049Y-19102858D01*
X44087193Y-19187005D01*
X43242440Y-18342252D01*
X43202826Y-18393879D01*
X43202817Y-18393893D01*
X43074753Y-18615705D01*
X43074745Y-18615721D01*
X42976728Y-18852358D01*
X42943589Y-18976033D01*
X42907223Y-19035694D01*
X42844376Y-19066222D01*
X42775001Y-19057927D01*
X42721123Y-19013441D01*
X42704040Y-18976033D01*
X42686713Y-18911367D01*
X42598658Y-18698785D01*
X42536027Y-18590305D01*
X42483610Y-18499515D01*
X42343537Y-18316968D01*
X42343531Y-18316961D01*
X42180838Y-18154268D01*
X42180831Y-18154262D01*
X42031360Y-18039569D01*
X41998284Y-18014189D01*
X41799018Y-17899143D01*
X41799008Y-17899138D01*
X41606047Y-17819211D01*
X41551644Y-17775370D01*
X41529579Y-17709075D01*
X41529500Y-17704650D01*
X41529500Y-16747857D01*
X41529500Y-16747855D01*
X41494847Y-16618526D01*
X41461229Y-16560299D01*
X41427901Y-16502573D01*
X40549819Y-15624491D01*
X40516334Y-15563168D01*
X40513500Y-15536810D01*
X40513500Y-13922867D01*
X40533185Y-13855828D01*
X40568607Y-13819766D01*
X40619641Y-13785667D01*
X40759667Y-13645641D01*
X40869685Y-13480988D01*
X40935416Y-13322300D01*
X41617711Y-13322300D01*
X41673374Y-13456686D01*
X41673376Y-13456689D01*
X41777776Y-13612935D01*
X41777782Y-13612943D01*
X41910656Y-13745817D01*
X41910664Y-13745823D01*
X42066910Y-13850223D01*
X42066913Y-13850225D01*
X42201299Y-13905889D01*
X42201300Y-13905889D01*
X42836300Y-13905889D01*
X42970686Y-13850225D01*
X42970689Y-13850223D01*
X43126935Y-13745823D01*
X43126943Y-13745817D01*
X43259817Y-13612943D01*
X43259823Y-13612935D01*
X43364223Y-13456689D01*
X43364225Y-13456686D01*
X43419889Y-13322300D01*
X42836300Y-13322300D01*
X42836300Y-13905889D01*
X42201300Y-13905889D01*
X42201300Y-13322300D01*
X41617711Y-13322300D01*
X40935416Y-13322300D01*
X40945467Y-13298035D01*
X40984100Y-13103813D01*
X40984100Y-12958722D01*
X42168800Y-12958722D01*
X42168800Y-13050878D01*
X42192652Y-13139895D01*
X42238730Y-13219705D01*
X42303895Y-13284870D01*
X42383705Y-13330948D01*
X42472722Y-13354800D01*
X42564878Y-13354800D01*
X42653895Y-13330948D01*
X42733705Y-13284870D01*
X42798870Y-13219705D01*
X42844948Y-13139895D01*
X42868800Y-13050878D01*
X42868800Y-12958722D01*
X42844948Y-12869705D01*
X42798870Y-12789895D01*
X42733705Y-12724730D01*
X42668874Y-12687300D01*
X42836300Y-12687300D01*
X43419889Y-12687300D01*
X43419889Y-12687299D01*
X43364225Y-12552913D01*
X43364223Y-12552910D01*
X43259823Y-12396664D01*
X43259817Y-12396656D01*
X43126943Y-12263782D01*
X43126939Y-12263779D01*
X42970694Y-12159379D01*
X42970684Y-12159374D01*
X42836300Y-12103710D01*
X42836300Y-12687300D01*
X42668874Y-12687300D01*
X42653895Y-12678652D01*
X42564878Y-12654800D01*
X42472722Y-12654800D01*
X42383705Y-12678652D01*
X42303895Y-12724730D01*
X42238730Y-12789895D01*
X42192652Y-12869705D01*
X42168800Y-12958722D01*
X40984100Y-12958722D01*
X40984100Y-12905787D01*
X40956573Y-12767400D01*
X40948195Y-12725278D01*
X40948193Y-12725272D01*
X40945467Y-12711565D01*
X40935416Y-12687299D01*
X41617710Y-12687299D01*
X41617711Y-12687300D01*
X42201300Y-12687300D01*
X42201300Y-12103710D01*
X42201299Y-12103710D01*
X42066915Y-12159374D01*
X42066905Y-12159379D01*
X41910660Y-12263779D01*
X41910656Y-12263782D01*
X41777782Y-12396656D01*
X41777776Y-12396664D01*
X41673376Y-12552910D01*
X41673374Y-12552913D01*
X41617710Y-12687299D01*
X40935416Y-12687299D01*
X40869685Y-12528612D01*
X40869684Y-12528611D01*
X40869681Y-12528605D01*
X40759667Y-12363959D01*
X40759664Y-12363955D01*
X40619648Y-12223939D01*
X40619643Y-12223935D01*
X40619641Y-12223933D01*
X40554173Y-12180188D01*
X40548075Y-12176113D01*
X40503271Y-12122500D01*
X40492967Y-12073012D01*
X40492967Y-11346819D01*
X47561500Y-11346819D01*
X47561500Y-13087971D01*
X47561502Y-13087994D01*
X47564461Y-13113506D01*
X47564462Y-13113509D01*
X47610565Y-13217924D01*
X47610566Y-13217925D01*
X47691275Y-13298634D01*
X47795691Y-13344738D01*
X47821221Y-13347700D01*
X49562378Y-13347699D01*
X49587909Y-13344738D01*
X49692325Y-13298634D01*
X49773034Y-13217925D01*
X49819138Y-13113509D01*
X49822100Y-13087979D01*
X49822099Y-12128443D01*
X50101500Y-12128443D01*
X50101500Y-12306356D01*
X50129332Y-12482080D01*
X50184308Y-12651282D01*
X50224376Y-12729918D01*
X50265081Y-12809806D01*
X50369656Y-12953741D01*
X50495459Y-13079544D01*
X50639394Y-13184119D01*
X50786208Y-13258925D01*
X50797917Y-13264891D01*
X50882518Y-13292379D01*
X50967121Y-13319868D01*
X51142843Y-13347700D01*
X51142844Y-13347700D01*
X51320756Y-13347700D01*
X51320757Y-13347700D01*
X51496479Y-13319868D01*
X51665685Y-13264890D01*
X51824206Y-13184119D01*
X51968141Y-13079544D01*
X52093944Y-12953741D01*
X52198519Y-12809806D01*
X52279290Y-12651285D01*
X52334268Y-12482079D01*
X52362100Y-12306357D01*
X52362100Y-12128443D01*
X52641500Y-12128443D01*
X52641500Y-12306356D01*
X52669332Y-12482080D01*
X52724308Y-12651282D01*
X52764376Y-12729918D01*
X52805081Y-12809806D01*
X52909656Y-12953741D01*
X53035459Y-13079544D01*
X53179394Y-13184119D01*
X53326208Y-13258925D01*
X53337917Y-13264891D01*
X53422518Y-13292379D01*
X53507121Y-13319868D01*
X53682843Y-13347700D01*
X53682844Y-13347700D01*
X53860756Y-13347700D01*
X53860757Y-13347700D01*
X54036479Y-13319868D01*
X54205685Y-13264890D01*
X54364206Y-13184119D01*
X54508141Y-13079544D01*
X54633944Y-12953741D01*
X54738519Y-12809806D01*
X54819290Y-12651285D01*
X54874268Y-12482079D01*
X54902100Y-12306357D01*
X54902100Y-12128443D01*
X55181500Y-12128443D01*
X55181500Y-12306356D01*
X55209332Y-12482080D01*
X55264308Y-12651282D01*
X55304376Y-12729918D01*
X55345081Y-12809806D01*
X55449656Y-12953741D01*
X55575459Y-13079544D01*
X55719394Y-13184119D01*
X55866208Y-13258925D01*
X55877917Y-13264891D01*
X55962518Y-13292379D01*
X56047121Y-13319868D01*
X56222843Y-13347700D01*
X56222844Y-13347700D01*
X56400756Y-13347700D01*
X56400757Y-13347700D01*
X56576479Y-13319868D01*
X56745685Y-13264890D01*
X56904206Y-13184119D01*
X57048141Y-13079544D01*
X57173944Y-12953741D01*
X57278519Y-12809806D01*
X57359290Y-12651285D01*
X57414268Y-12482079D01*
X57442100Y-12306357D01*
X57442100Y-12128443D01*
X57721500Y-12128443D01*
X57721500Y-12306356D01*
X57749332Y-12482080D01*
X57804308Y-12651282D01*
X57844376Y-12729918D01*
X57885081Y-12809806D01*
X57989656Y-12953741D01*
X58115459Y-13079544D01*
X58259394Y-13184119D01*
X58406208Y-13258925D01*
X58417917Y-13264891D01*
X58502518Y-13292379D01*
X58587121Y-13319868D01*
X58762843Y-13347700D01*
X58762844Y-13347700D01*
X58940756Y-13347700D01*
X58940757Y-13347700D01*
X59116479Y-13319868D01*
X59285685Y-13264890D01*
X59444206Y-13184119D01*
X59588141Y-13079544D01*
X59713944Y-12953741D01*
X59818519Y-12809806D01*
X59899290Y-12651285D01*
X59954268Y-12482079D01*
X59982100Y-12306357D01*
X59982100Y-12132481D01*
X60312800Y-12132481D01*
X60312800Y-12302318D01*
X60339368Y-12470066D01*
X60391853Y-12631596D01*
X60438007Y-12722177D01*
X60847839Y-12312347D01*
X60879282Y-12429692D01*
X60951690Y-12555108D01*
X61054092Y-12657510D01*
X61179508Y-12729918D01*
X61296851Y-12761360D01*
X60887020Y-13171190D01*
X60977609Y-13217347D01*
X61139133Y-13269831D01*
X61306882Y-13296400D01*
X61476718Y-13296400D01*
X61644466Y-13269831D01*
X61805993Y-13217346D01*
X61805997Y-13217345D01*
X61896578Y-13171190D01*
X61486749Y-12761360D01*
X61604092Y-12729918D01*
X61729508Y-12657510D01*
X61831910Y-12555108D01*
X61904318Y-12429692D01*
X61935760Y-12312348D01*
X62345590Y-12722178D01*
X62391745Y-12631597D01*
X62391746Y-12631593D01*
X62444231Y-12470066D01*
X62470800Y-12302318D01*
X62470800Y-12132481D01*
X62444231Y-11964733D01*
X62391747Y-11803209D01*
X62345590Y-11712620D01*
X61935760Y-12122450D01*
X61904318Y-12005108D01*
X61831910Y-11879692D01*
X61729508Y-11777290D01*
X61604092Y-11704882D01*
X61486748Y-11673439D01*
X61896578Y-11263608D01*
X61805996Y-11217453D01*
X61644466Y-11164968D01*
X61476718Y-11138400D01*
X61306882Y-11138400D01*
X61139132Y-11164969D01*
X61139129Y-11164969D01*
X60977610Y-11217450D01*
X60887021Y-11263608D01*
X61296852Y-11673439D01*
X61179508Y-11704882D01*
X61054092Y-11777290D01*
X60951690Y-11879692D01*
X60879282Y-12005108D01*
X60847839Y-12122452D01*
X60438008Y-11712621D01*
X60391850Y-11803210D01*
X60339369Y-11964729D01*
X60339369Y-11964732D01*
X60312800Y-12132481D01*
X59982100Y-12132481D01*
X59982100Y-12128443D01*
X59954268Y-11952721D01*
X59926779Y-11868118D01*
X59899291Y-11783517D01*
X59818518Y-11624993D01*
X59713944Y-11481059D01*
X59588141Y-11355256D01*
X59444206Y-11250681D01*
X59378987Y-11217450D01*
X59285682Y-11169908D01*
X59116480Y-11114932D01*
X59028618Y-11101016D01*
X58940757Y-11087100D01*
X58762843Y-11087100D01*
X58704269Y-11096377D01*
X58587119Y-11114932D01*
X58417917Y-11169908D01*
X58259393Y-11250681D01*
X58177273Y-11310345D01*
X58115459Y-11355256D01*
X58115457Y-11355258D01*
X58115456Y-11355258D01*
X57989658Y-11481056D01*
X57989658Y-11481057D01*
X57989656Y-11481059D01*
X57944745Y-11542873D01*
X57885081Y-11624993D01*
X57804308Y-11783517D01*
X57749332Y-11952719D01*
X57721500Y-12128443D01*
X57442100Y-12128443D01*
X57414268Y-11952721D01*
X57386779Y-11868118D01*
X57359291Y-11783517D01*
X57278518Y-11624993D01*
X57173944Y-11481059D01*
X57048141Y-11355256D01*
X56904206Y-11250681D01*
X56838987Y-11217450D01*
X56745682Y-11169908D01*
X56576480Y-11114932D01*
X56488618Y-11101016D01*
X56400757Y-11087100D01*
X56222843Y-11087100D01*
X56164269Y-11096377D01*
X56047119Y-11114932D01*
X55877917Y-11169908D01*
X55719393Y-11250681D01*
X55637273Y-11310345D01*
X55575459Y-11355256D01*
X55575457Y-11355258D01*
X55575456Y-11355258D01*
X55449658Y-11481056D01*
X55449658Y-11481057D01*
X55449656Y-11481059D01*
X55404745Y-11542873D01*
X55345081Y-11624993D01*
X55264308Y-11783517D01*
X55209332Y-11952719D01*
X55181500Y-12128443D01*
X54902100Y-12128443D01*
X54874268Y-11952721D01*
X54846779Y-11868118D01*
X54819291Y-11783517D01*
X54738518Y-11624993D01*
X54633944Y-11481059D01*
X54508141Y-11355256D01*
X54364206Y-11250681D01*
X54298987Y-11217450D01*
X54205682Y-11169908D01*
X54036480Y-11114932D01*
X53948618Y-11101016D01*
X53860757Y-11087100D01*
X53682843Y-11087100D01*
X53624269Y-11096377D01*
X53507119Y-11114932D01*
X53337917Y-11169908D01*
X53179393Y-11250681D01*
X53097273Y-11310345D01*
X53035459Y-11355256D01*
X53035457Y-11355258D01*
X53035456Y-11355258D01*
X52909658Y-11481056D01*
X52909658Y-11481057D01*
X52909656Y-11481059D01*
X52864745Y-11542873D01*
X52805081Y-11624993D01*
X52724308Y-11783517D01*
X52669332Y-11952719D01*
X52641500Y-12128443D01*
X52362100Y-12128443D01*
X52334268Y-11952721D01*
X52306779Y-11868118D01*
X52279291Y-11783517D01*
X52198518Y-11624993D01*
X52093944Y-11481059D01*
X51968141Y-11355256D01*
X51824206Y-11250681D01*
X51758987Y-11217450D01*
X51665682Y-11169908D01*
X51496480Y-11114932D01*
X51408618Y-11101016D01*
X51320757Y-11087100D01*
X51142843Y-11087100D01*
X51084269Y-11096377D01*
X50967119Y-11114932D01*
X50797917Y-11169908D01*
X50639393Y-11250681D01*
X50557273Y-11310345D01*
X50495459Y-11355256D01*
X50495457Y-11355258D01*
X50495456Y-11355258D01*
X50369658Y-11481056D01*
X50369658Y-11481057D01*
X50369656Y-11481059D01*
X50324745Y-11542873D01*
X50265081Y-11624993D01*
X50184308Y-11783517D01*
X50129332Y-11952719D01*
X50101500Y-12128443D01*
X49822099Y-12128443D01*
X49822099Y-11346822D01*
X49819138Y-11321291D01*
X49773034Y-11216875D01*
X49692325Y-11136166D01*
X49692323Y-11136165D01*
X49587910Y-11090062D01*
X49562379Y-11087100D01*
X47821228Y-11087100D01*
X47821205Y-11087102D01*
X47795693Y-11090061D01*
X47795690Y-11090062D01*
X47691275Y-11136165D01*
X47610566Y-11216874D01*
X47564462Y-11321288D01*
X47564462Y-11321290D01*
X47561500Y-11346819D01*
X40492967Y-11346819D01*
X40492967Y-9588443D01*
X47561500Y-9588443D01*
X47561500Y-9766356D01*
X47589332Y-9942080D01*
X47644308Y-10111282D01*
X47680432Y-10182178D01*
X47725081Y-10269806D01*
X47829656Y-10413741D01*
X47955459Y-10539544D01*
X48099394Y-10644119D01*
X48257915Y-10724890D01*
X48257917Y-10724891D01*
X48342518Y-10752379D01*
X48427121Y-10779868D01*
X48602843Y-10807700D01*
X48602844Y-10807700D01*
X48780756Y-10807700D01*
X48780757Y-10807700D01*
X48956479Y-10779868D01*
X49125685Y-10724890D01*
X49284206Y-10644119D01*
X49428141Y-10539544D01*
X49553944Y-10413741D01*
X49658519Y-10269806D01*
X49739290Y-10111285D01*
X49794268Y-9942079D01*
X49822100Y-9766357D01*
X49822100Y-9588443D01*
X50101500Y-9588443D01*
X50101500Y-9766356D01*
X50129332Y-9942080D01*
X50184308Y-10111282D01*
X50220432Y-10182178D01*
X50265081Y-10269806D01*
X50369656Y-10413741D01*
X50495459Y-10539544D01*
X50639394Y-10644119D01*
X50797915Y-10724890D01*
X50797917Y-10724891D01*
X50882518Y-10752379D01*
X50967121Y-10779868D01*
X51142843Y-10807700D01*
X51142844Y-10807700D01*
X51320756Y-10807700D01*
X51320757Y-10807700D01*
X51496479Y-10779868D01*
X51665685Y-10724890D01*
X51824206Y-10644119D01*
X51968141Y-10539544D01*
X52093944Y-10413741D01*
X52198519Y-10269806D01*
X52279290Y-10111285D01*
X52334268Y-9942079D01*
X52362100Y-9766357D01*
X52362100Y-9588443D01*
X52334268Y-9412721D01*
X52306779Y-9328118D01*
X52279291Y-9243517D01*
X52198518Y-9084993D01*
X52093944Y-8941059D01*
X51968141Y-8815256D01*
X51824206Y-8710681D01*
X51758987Y-8677450D01*
X51665682Y-8629908D01*
X51496480Y-8574932D01*
X51408618Y-8561016D01*
X51320757Y-8547100D01*
X51142843Y-8547100D01*
X51084269Y-8556377D01*
X50967119Y-8574932D01*
X50797917Y-8629908D01*
X50639393Y-8710681D01*
X50557273Y-8770345D01*
X50495459Y-8815256D01*
X50495457Y-8815258D01*
X50495456Y-8815258D01*
X50369658Y-8941056D01*
X50369658Y-8941057D01*
X50369656Y-8941059D01*
X50324745Y-9002873D01*
X50265081Y-9084993D01*
X50184308Y-9243517D01*
X50129332Y-9412719D01*
X50101500Y-9588443D01*
X49822100Y-9588443D01*
X49794268Y-9412721D01*
X49766779Y-9328118D01*
X49739291Y-9243517D01*
X49658518Y-9084993D01*
X49553944Y-8941059D01*
X49428141Y-8815256D01*
X49284206Y-8710681D01*
X49218987Y-8677450D01*
X49125682Y-8629908D01*
X48956480Y-8574932D01*
X48868618Y-8561016D01*
X48780757Y-8547100D01*
X48602843Y-8547100D01*
X48544269Y-8556377D01*
X48427119Y-8574932D01*
X48257917Y-8629908D01*
X48099393Y-8710681D01*
X48017273Y-8770345D01*
X47955459Y-8815256D01*
X47955457Y-8815258D01*
X47955456Y-8815258D01*
X47829658Y-8941056D01*
X47829658Y-8941057D01*
X47829656Y-8941059D01*
X47784745Y-9002873D01*
X47725081Y-9084993D01*
X47644308Y-9243517D01*
X47589332Y-9412719D01*
X47561500Y-9588443D01*
X40492967Y-9588443D01*
X40492967Y-6467600D01*
X40512652Y-6400561D01*
X40560673Y-6357115D01*
X40563771Y-6355537D01*
X40704522Y-6253276D01*
X40827543Y-6130255D01*
X40929804Y-5989504D01*
X41008789Y-5834488D01*
X41062551Y-5669025D01*
X41074620Y-5592825D01*
X41089767Y-5497194D01*
X41089767Y-5323205D01*
X41062551Y-5151374D01*
X41037792Y-5075174D01*
X41008789Y-4985912D01*
X40929804Y-4830896D01*
X40841328Y-4709118D01*
X40827548Y-4690151D01*
X40827544Y-4690146D01*
X40704520Y-4567122D01*
X40704515Y-4567118D01*
X40563774Y-4464865D01*
X40563773Y-4464864D01*
X40563771Y-4464863D01*
X40408755Y-4385878D01*
X40365843Y-4371935D01*
X40243292Y-4332115D01*
X40071461Y-4304900D01*
X40071456Y-4304900D01*
X39897478Y-4304900D01*
X39897473Y-4304900D01*
X39725641Y-4332115D01*
X39560176Y-4385879D01*
X39405159Y-4464865D01*
X39264418Y-4567118D01*
X39264413Y-4567122D01*
X39141389Y-4690146D01*
X39141385Y-4690151D01*
X39039132Y-4830892D01*
X38960146Y-4985909D01*
X38906382Y-5151374D01*
X38879167Y-5323205D01*
X38879167Y-5497194D01*
X38906382Y-5669025D01*
X38931987Y-5747827D01*
X38960145Y-5834488D01*
X39036798Y-5984928D01*
X39039132Y-5989507D01*
X39141385Y-6130248D01*
X39141389Y-6130253D01*
X39264413Y-6253277D01*
X39264418Y-6253281D01*
X39368479Y-6328885D01*
X39405163Y-6355537D01*
X39408260Y-6357115D01*
X39409222Y-6358023D01*
X39409311Y-6358078D01*
X39409299Y-6358096D01*
X39459055Y-6405085D01*
X39475967Y-6467600D01*
X39475967Y-12065438D01*
X39456282Y-12132477D01*
X39420859Y-12168540D01*
X39337955Y-12223935D01*
X39197935Y-12363955D01*
X39197932Y-12363959D01*
X39087918Y-12528605D01*
X39087913Y-12528614D01*
X39012133Y-12711564D01*
X39012131Y-12711572D01*
X38973500Y-12905782D01*
X38973500Y-13103817D01*
X39012131Y-13298027D01*
X39012133Y-13298035D01*
X39087913Y-13480985D01*
X39087918Y-13480994D01*
X39197932Y-13645640D01*
X39197935Y-13645644D01*
X39337955Y-13785664D01*
X39337963Y-13785670D01*
X39441390Y-13854778D01*
X39486196Y-13908390D01*
X39496500Y-13957880D01*
X39496500Y-15865744D01*
X39531153Y-15995075D01*
X39564626Y-16053050D01*
X39598099Y-16111027D01*
X39598101Y-16111029D01*
X40476181Y-16989109D01*
X40509666Y-17050432D01*
X40512500Y-17076790D01*
X40512500Y-17704650D01*
X40492815Y-17771689D01*
X40440011Y-17817444D01*
X40435953Y-17819211D01*
X40242991Y-17899138D01*
X40242981Y-17899143D01*
X40043715Y-18014189D01*
X39861168Y-18154262D01*
X39861161Y-18154268D01*
X39698468Y-18316961D01*
X39698462Y-18316968D01*
X39558389Y-18499515D01*
X39443343Y-18698781D01*
X39443338Y-18698791D01*
X39360828Y-18897989D01*
X39316987Y-18952392D01*
X39250692Y-18974457D01*
X39182993Y-18957178D01*
X39135383Y-18906040D01*
X39126493Y-18882634D01*
X39113954Y-18835834D01*
X39013358Y-18592975D01*
X39011816Y-18590305D01*
X38881924Y-18365324D01*
X38721901Y-18156778D01*
X38721895Y-18156771D01*
X38536028Y-17970904D01*
X38536021Y-17970898D01*
X38327475Y-17810875D01*
X38099828Y-17679443D01*
X38099818Y-17679439D01*
X37856973Y-17578849D01*
X37856974Y-17578849D01*
X37856966Y-17578846D01*
X37603054Y-17510811D01*
X37603048Y-17510810D01*
X37603043Y-17510809D01*
X37342444Y-17476501D01*
X37342439Y-17476500D01*
X37342434Y-17476500D01*
X37079566Y-17476500D01*
X37079560Y-17476500D01*
X37079555Y-17476501D01*
X36818956Y-17510809D01*
X36818949Y-17510810D01*
X36818946Y-17510811D01*
X36755542Y-17527800D01*
X36565040Y-17578844D01*
X36565026Y-17578849D01*
X36322181Y-17679439D01*
X36322171Y-17679443D01*
X36094524Y-17810875D01*
X35885978Y-17970898D01*
X35885971Y-17970904D01*
X35700104Y-18156771D01*
X35700098Y-18156778D01*
X35540075Y-18365324D01*
X35408643Y-18592971D01*
X35408639Y-18592981D01*
X35308044Y-18835837D01*
X35308043Y-18835839D01*
X35295837Y-18881395D01*
X35259472Y-18941055D01*
X35196625Y-18971583D01*
X35176063Y-18973300D01*
X34272589Y-18973300D01*
X34205550Y-18953615D01*
X34184908Y-18936981D01*
X31978251Y-16730323D01*
X31944766Y-16669000D01*
X31941932Y-16642642D01*
X31941932Y-13940373D01*
X31961617Y-13873334D01*
X31997039Y-13837272D01*
X32074273Y-13785667D01*
X32214299Y-13645641D01*
X32324317Y-13480988D01*
X32390048Y-13322300D01*
X33072343Y-13322300D01*
X33128006Y-13456686D01*
X33128008Y-13456689D01*
X33232408Y-13612935D01*
X33232414Y-13612943D01*
X33365288Y-13745817D01*
X33365296Y-13745823D01*
X33521542Y-13850223D01*
X33521545Y-13850225D01*
X33655931Y-13905889D01*
X33655932Y-13905889D01*
X34290932Y-13905889D01*
X34425318Y-13850225D01*
X34425321Y-13850223D01*
X34581567Y-13745823D01*
X34581575Y-13745817D01*
X34714449Y-13612943D01*
X34714455Y-13612935D01*
X34818855Y-13456689D01*
X34818857Y-13456686D01*
X34874521Y-13322300D01*
X34290932Y-13322300D01*
X34290932Y-13905889D01*
X33655932Y-13905889D01*
X33655932Y-13322300D01*
X33072343Y-13322300D01*
X32390048Y-13322300D01*
X32400099Y-13298035D01*
X32438732Y-13103813D01*
X32438732Y-12958722D01*
X33623432Y-12958722D01*
X33623432Y-13050878D01*
X33647284Y-13139895D01*
X33693362Y-13219705D01*
X33758527Y-13284870D01*
X33838337Y-13330948D01*
X33927354Y-13354800D01*
X34019510Y-13354800D01*
X34108527Y-13330948D01*
X34188337Y-13284870D01*
X34253502Y-13219705D01*
X34299580Y-13139895D01*
X34323432Y-13050878D01*
X34323432Y-12958722D01*
X34299580Y-12869705D01*
X34253502Y-12789895D01*
X34188337Y-12724730D01*
X34123506Y-12687300D01*
X34290932Y-12687300D01*
X34874521Y-12687300D01*
X34874521Y-12687299D01*
X34818857Y-12552913D01*
X34818855Y-12552910D01*
X34714455Y-12396664D01*
X34714449Y-12396656D01*
X34581575Y-12263782D01*
X34581571Y-12263779D01*
X34425326Y-12159379D01*
X34425316Y-12159374D01*
X34290932Y-12103710D01*
X34290932Y-12687300D01*
X34123506Y-12687300D01*
X34108527Y-12678652D01*
X34019510Y-12654800D01*
X33927354Y-12654800D01*
X33838337Y-12678652D01*
X33758527Y-12724730D01*
X33693362Y-12789895D01*
X33647284Y-12869705D01*
X33623432Y-12958722D01*
X32438732Y-12958722D01*
X32438732Y-12905787D01*
X32411205Y-12767400D01*
X32402827Y-12725278D01*
X32402825Y-12725272D01*
X32400099Y-12711565D01*
X32390048Y-12687299D01*
X33072342Y-12687299D01*
X33072343Y-12687300D01*
X33655932Y-12687300D01*
X33655932Y-12103710D01*
X33655931Y-12103710D01*
X33521547Y-12159374D01*
X33521537Y-12159379D01*
X33365292Y-12263779D01*
X33365288Y-12263782D01*
X33232414Y-12396656D01*
X33232408Y-12396664D01*
X33128008Y-12552910D01*
X33128006Y-12552913D01*
X33072342Y-12687299D01*
X32390048Y-12687299D01*
X32324317Y-12528612D01*
X32324316Y-12528611D01*
X32324313Y-12528605D01*
X32214299Y-12363959D01*
X32214296Y-12363955D01*
X32074276Y-12223935D01*
X32074270Y-12223930D01*
X32008807Y-12180188D01*
X31964003Y-12126575D01*
X31953699Y-12077087D01*
X31953699Y-6467600D01*
X31973384Y-6400561D01*
X32021405Y-6357115D01*
X32024503Y-6355537D01*
X32165254Y-6253276D01*
X32288275Y-6130255D01*
X32390536Y-5989504D01*
X32469521Y-5834488D01*
X32523283Y-5669025D01*
X32535352Y-5592825D01*
X32550499Y-5497194D01*
X32550499Y-5323205D01*
X32523283Y-5151374D01*
X32498524Y-5075174D01*
X32469521Y-4985912D01*
X32390536Y-4830896D01*
X32302060Y-4709118D01*
X32288280Y-4690151D01*
X32288276Y-4690146D01*
X32165252Y-4567122D01*
X32165247Y-4567118D01*
X32024506Y-4464865D01*
X32024505Y-4464864D01*
X32024503Y-4464863D01*
X31869487Y-4385878D01*
X31826575Y-4371935D01*
X31704024Y-4332115D01*
X31532193Y-4304900D01*
X31532188Y-4304900D01*
X31358210Y-4304900D01*
X31358205Y-4304900D01*
X31186373Y-4332115D01*
X31020908Y-4385879D01*
X30865891Y-4464865D01*
X30725150Y-4567118D01*
X30725145Y-4567122D01*
X30602121Y-4690146D01*
X30602117Y-4690151D01*
X30499864Y-4830892D01*
X30420878Y-4985909D01*
X30367114Y-5151374D01*
X30339899Y-5323205D01*
X24011233Y-5323205D01*
X23984017Y-5151374D01*
X23959258Y-5075174D01*
X23930255Y-4985912D01*
X23851270Y-4830896D01*
X23762794Y-4709118D01*
X23749014Y-4690151D01*
X23749010Y-4690146D01*
X23625986Y-4567122D01*
X23625981Y-4567118D01*
X23485240Y-4464865D01*
X23485239Y-4464864D01*
X23485237Y-4464863D01*
X23330221Y-4385878D01*
X23287309Y-4371935D01*
X23164758Y-4332115D01*
X22992927Y-4304900D01*
X22992922Y-4304900D01*
X22818944Y-4304900D01*
X22818939Y-4304900D01*
X22647107Y-4332115D01*
X22481642Y-4385879D01*
X22326625Y-4464865D01*
X22185884Y-4567118D01*
X22185879Y-4567122D01*
X22062855Y-4690146D01*
X22062851Y-4690151D01*
X21960598Y-4830892D01*
X21881612Y-4985909D01*
X21827848Y-5151374D01*
X21800633Y-5323205D01*
X21800633Y-5497194D01*
X21827848Y-5669025D01*
X21853453Y-5747827D01*
X21881611Y-5834488D01*
X21958264Y-5984928D01*
X21960598Y-5989507D01*
X22062851Y-6130248D01*
X22062855Y-6130253D01*
X22185879Y-6253277D01*
X22185884Y-6253281D01*
X22289945Y-6328885D01*
X22326629Y-6355537D01*
X22329726Y-6357115D01*
X22330688Y-6358023D01*
X22330777Y-6358078D01*
X22330765Y-6358096D01*
X22380521Y-6405085D01*
X22397433Y-6467600D01*
X22397433Y-12057286D01*
X22377748Y-12124325D01*
X22342325Y-12160387D01*
X22247227Y-12223930D01*
X22247221Y-12223935D01*
X22107201Y-12363955D01*
X22107198Y-12363959D01*
X21997184Y-12528605D01*
X21997179Y-12528614D01*
X21921399Y-12711564D01*
X21921397Y-12711572D01*
X21882766Y-12905782D01*
X21882766Y-13103817D01*
X21921397Y-13298027D01*
X21921399Y-13298035D01*
X21997179Y-13480985D01*
X21997184Y-13480994D01*
X22107198Y-13645640D01*
X22107201Y-13645644D01*
X22247222Y-13785665D01*
X22247225Y-13785667D01*
X22324457Y-13837271D01*
X22329547Y-13843361D01*
X22336769Y-13846660D01*
X22351632Y-13869788D01*
X22369261Y-13890882D01*
X22371212Y-13900256D01*
X22374543Y-13905438D01*
X22379566Y-13940373D01*
X22379566Y-14187944D01*
X22359881Y-14254983D01*
X22343247Y-14275625D01*
X21314091Y-15304781D01*
X21252768Y-15338266D01*
X21226410Y-15341100D01*
X14461855Y-15341100D01*
X14332524Y-15375753D01*
X14216573Y-15442699D01*
X14216570Y-15442701D01*
X13004301Y-16654970D01*
X13004299Y-16654973D01*
X12973477Y-16708358D01*
X12955415Y-16739642D01*
X12937353Y-16770925D01*
X12902700Y-16900255D01*
X12902700Y-17684250D01*
X12883015Y-17751289D01*
X12830211Y-17797044D01*
X12826153Y-17798811D01*
X12633191Y-17878738D01*
X12633181Y-17878743D01*
X12433915Y-17993789D01*
X12251368Y-18133862D01*
X12251361Y-18133868D01*
X12088668Y-18296561D01*
X12088662Y-18296568D01*
X11948589Y-18479115D01*
X11833543Y-18678381D01*
X11833538Y-18678391D01*
X11751841Y-18875625D01*
X11707999Y-18930029D01*
X11641705Y-18952093D01*
X11574006Y-18934813D01*
X11526396Y-18883676D01*
X11517507Y-18860271D01*
X11504154Y-18810434D01*
X11403558Y-18567575D01*
X11272124Y-18339924D01*
X11129662Y-18154264D01*
X11112101Y-18131378D01*
X11112095Y-18131371D01*
X10926228Y-17945504D01*
X10926221Y-17945498D01*
X10717675Y-17785475D01*
X10490028Y-17654043D01*
X10490018Y-17654039D01*
X10247162Y-17553444D01*
X10247160Y-17553443D01*
X10201605Y-17541237D01*
X10141945Y-17504872D01*
X10111417Y-17442025D01*
X10109700Y-17421463D01*
X10109700Y-15857590D01*
X10129385Y-15790551D01*
X10146019Y-15769909D01*
X12366309Y-13549619D01*
X12427632Y-13516134D01*
X12453990Y-13513300D01*
X13407126Y-13513300D01*
X13474165Y-13532985D01*
X13510228Y-13568409D01*
X13561832Y-13645641D01*
X13701855Y-13785664D01*
X13701859Y-13785667D01*
X13866505Y-13895681D01*
X13866514Y-13895686D01*
X13897184Y-13908390D01*
X14049465Y-13971467D01*
X14243682Y-14010099D01*
X14243686Y-14010100D01*
X14243687Y-14010100D01*
X14441714Y-14010100D01*
X14441715Y-14010099D01*
X14635935Y-13971467D01*
X14818888Y-13895685D01*
X14983541Y-13785667D01*
X15123567Y-13645641D01*
X15233585Y-13480988D01*
X15299316Y-13322300D01*
X15981611Y-13322300D01*
X16037274Y-13456686D01*
X16037276Y-13456689D01*
X16141676Y-13612935D01*
X16141682Y-13612943D01*
X16274556Y-13745817D01*
X16274564Y-13745823D01*
X16430810Y-13850223D01*
X16430813Y-13850225D01*
X16565199Y-13905889D01*
X16565200Y-13905889D01*
X17200200Y-13905889D01*
X17334586Y-13850225D01*
X17334589Y-13850223D01*
X17490835Y-13745823D01*
X17490843Y-13745817D01*
X17623717Y-13612943D01*
X17623723Y-13612935D01*
X17728123Y-13456689D01*
X17728125Y-13456686D01*
X17783789Y-13322300D01*
X17200200Y-13322300D01*
X17200200Y-13905889D01*
X16565200Y-13905889D01*
X16565200Y-13322300D01*
X15981611Y-13322300D01*
X15299316Y-13322300D01*
X15309367Y-13298035D01*
X15348000Y-13103813D01*
X15348000Y-12958722D01*
X16532700Y-12958722D01*
X16532700Y-13050878D01*
X16556552Y-13139895D01*
X16602630Y-13219705D01*
X16667795Y-13284870D01*
X16747605Y-13330948D01*
X16836622Y-13354800D01*
X16928778Y-13354800D01*
X17017795Y-13330948D01*
X17097605Y-13284870D01*
X17162770Y-13219705D01*
X17208848Y-13139895D01*
X17232700Y-13050878D01*
X17232700Y-12958722D01*
X17208848Y-12869705D01*
X17162770Y-12789895D01*
X17097605Y-12724730D01*
X17032774Y-12687300D01*
X17200200Y-12687300D01*
X17783789Y-12687300D01*
X17783789Y-12687299D01*
X17728125Y-12552913D01*
X17728123Y-12552910D01*
X17623723Y-12396664D01*
X17623717Y-12396656D01*
X17490843Y-12263782D01*
X17490839Y-12263779D01*
X17334594Y-12159379D01*
X17334584Y-12159374D01*
X17200200Y-12103710D01*
X17200200Y-12687300D01*
X17032774Y-12687300D01*
X17017795Y-12678652D01*
X16928778Y-12654800D01*
X16836622Y-12654800D01*
X16747605Y-12678652D01*
X16667795Y-12724730D01*
X16602630Y-12789895D01*
X16556552Y-12869705D01*
X16532700Y-12958722D01*
X15348000Y-12958722D01*
X15348000Y-12905787D01*
X15320473Y-12767400D01*
X15312095Y-12725278D01*
X15312093Y-12725272D01*
X15309367Y-12711565D01*
X15299316Y-12687299D01*
X15981610Y-12687299D01*
X15981611Y-12687300D01*
X16565200Y-12687300D01*
X16565200Y-12103710D01*
X16565199Y-12103710D01*
X16430815Y-12159374D01*
X16430805Y-12159379D01*
X16274560Y-12263779D01*
X16274556Y-12263782D01*
X16141682Y-12396656D01*
X16141676Y-12396664D01*
X16037276Y-12552910D01*
X16037274Y-12552913D01*
X15981610Y-12687299D01*
X15299316Y-12687299D01*
X15233585Y-12528612D01*
X15233584Y-12528611D01*
X15233581Y-12528605D01*
X15123567Y-12363959D01*
X15123564Y-12363955D01*
X14983544Y-12223935D01*
X14983538Y-12223930D01*
X14930275Y-12188340D01*
X14885471Y-12134727D01*
X14875167Y-12085239D01*
X14875167Y-6467600D01*
X14894852Y-6400561D01*
X14942873Y-6357115D01*
X14945971Y-6355537D01*
X15086722Y-6253276D01*
X15209743Y-6130255D01*
X15312004Y-5989504D01*
X15390989Y-5834488D01*
X15444751Y-5669025D01*
X15456820Y-5592825D01*
X15471967Y-5497194D01*
X15471967Y-5323205D01*
X15444751Y-5151374D01*
X15419992Y-5075174D01*
X15390989Y-4985912D01*
X15312004Y-4830896D01*
X15223528Y-4709118D01*
X15209748Y-4690151D01*
X15209744Y-4690146D01*
X15086720Y-4567122D01*
X15086715Y-4567118D01*
X14945974Y-4464865D01*
X14945973Y-4464864D01*
X14945971Y-4464863D01*
X14790955Y-4385878D01*
X14748043Y-4371935D01*
X14625492Y-4332115D01*
X14453661Y-4304900D01*
X14453656Y-4304900D01*
X14279678Y-4304900D01*
X14279673Y-4304900D01*
X14107841Y-4332115D01*
X13942376Y-4385879D01*
X13787359Y-4464865D01*
X13646618Y-4567118D01*
X13646613Y-4567122D01*
X13523589Y-4690146D01*
X13523585Y-4690151D01*
X13421332Y-4830892D01*
X13342346Y-4985909D01*
X13288582Y-5151374D01*
X13261367Y-5323205D01*
X13261367Y-5497194D01*
X13288582Y-5669025D01*
X13314187Y-5747827D01*
X13342345Y-5834488D01*
X13418998Y-5984928D01*
X13421332Y-5989507D01*
X13523585Y-6130248D01*
X13523589Y-6130253D01*
X13646613Y-6253277D01*
X13646618Y-6253281D01*
X13750679Y-6328885D01*
X13787363Y-6355537D01*
X13790460Y-6357115D01*
X13791422Y-6358023D01*
X13791511Y-6358078D01*
X13791499Y-6358096D01*
X13841255Y-6405085D01*
X13858167Y-6467600D01*
X13858167Y-12053211D01*
X13838482Y-12120250D01*
X13803058Y-12156313D01*
X13701859Y-12223932D01*
X13701855Y-12223935D01*
X13561832Y-12363958D01*
X13510228Y-12441191D01*
X13456616Y-12485996D01*
X13407126Y-12496300D01*
X12125055Y-12496300D01*
X12027275Y-12522499D01*
X12027274Y-12522500D01*
X12008565Y-12527513D01*
X11995722Y-12530954D01*
X11879773Y-12597899D01*
X11879770Y-12597901D01*
X9194300Y-15283370D01*
X9194298Y-15283372D01*
X9190300Y-15290299D01*
X9190300Y-15290300D01*
X9127353Y-15399324D01*
X9092700Y-15528655D01*
X9092700Y-17421463D01*
X9073015Y-17488502D01*
X9020211Y-17534257D01*
X9000795Y-17541237D01*
X8955239Y-17553443D01*
X8955237Y-17553444D01*
X8712381Y-17654039D01*
X8712371Y-17654043D01*
X8484724Y-17785475D01*
X8276178Y-17945498D01*
X8276171Y-17945504D01*
X8090304Y-18131371D01*
X8090298Y-18131378D01*
X7930275Y-18339924D01*
X7798843Y-18567571D01*
X7798839Y-18567581D01*
X7698249Y-18810426D01*
X7698244Y-18810440D01*
X7630212Y-19064343D01*
X7630209Y-19064356D01*
X7595901Y-19324955D01*
X7595900Y-19324972D01*
X500500Y-19324972D01*
X500500Y-4186872D01*
X2444499Y-4186872D01*
X2444499Y-4449127D01*
X2460035Y-4567124D01*
X2478729Y-4709116D01*
X2546601Y-4962420D01*
X2546604Y-4962427D01*
X2646954Y-5204693D01*
X2646959Y-5204704D01*
X2778071Y-5431795D01*
X2778082Y-5431811D01*
X2937715Y-5639850D01*
X2937721Y-5639857D01*
X3123142Y-5825278D01*
X3123149Y-5825284D01*
X3271287Y-5938954D01*
X3331197Y-5984924D01*
X3331204Y-5984928D01*
X3558295Y-6116040D01*
X3558300Y-6116042D01*
X3558303Y-6116044D01*
X3800580Y-6216399D01*
X4053884Y-6284271D01*
X4313880Y-6318501D01*
X4313887Y-6318501D01*
X4576113Y-6318501D01*
X4576120Y-6318501D01*
X4836116Y-6284271D01*
X5089420Y-6216399D01*
X5331697Y-6116044D01*
X5558803Y-5984924D01*
X5766852Y-5825283D01*
X5952283Y-5639852D01*
X6111924Y-5431803D01*
X6243044Y-5204697D01*
X6343399Y-4962420D01*
X6411271Y-4709116D01*
X6445501Y-4449120D01*
X6445501Y-4186880D01*
X6411271Y-3926884D01*
X6343399Y-3673580D01*
X6243044Y-3431303D01*
X6243042Y-3431300D01*
X6243040Y-3431295D01*
X6111928Y-3204204D01*
X6111924Y-3204197D01*
X6025354Y-3091376D01*
X5952284Y-2996149D01*
X5952278Y-2996142D01*
X5766857Y-2810721D01*
X5766850Y-2810715D01*
X5558811Y-2651082D01*
X5558809Y-2651080D01*
X5558803Y-2651076D01*
X5558798Y-2651073D01*
X5558795Y-2651071D01*
X5331704Y-2519959D01*
X5331693Y-2519954D01*
X5089427Y-2419604D01*
X5089428Y-2419604D01*
X5089420Y-2419601D01*
X5062918Y-2412500D01*
X4989452Y-2392815D01*
X4836116Y-2351729D01*
X4792662Y-2346008D01*
X4576127Y-2317499D01*
X4576120Y-2317499D01*
X4313880Y-2317499D01*
X4313872Y-2317499D01*
X4066402Y-2350080D01*
X4053884Y-2351729D01*
X3969449Y-2374353D01*
X3800586Y-2419599D01*
X3800572Y-2419604D01*
X3558306Y-2519954D01*
X3558295Y-2519959D01*
X3331204Y-2651071D01*
X3331188Y-2651082D01*
X3123149Y-2810715D01*
X3123142Y-2810721D01*
X2937721Y-2996142D01*
X2937715Y-2996149D01*
X2778082Y-3204188D01*
X2778071Y-3204204D01*
X2646959Y-3431295D01*
X2646954Y-3431306D01*
X2546604Y-3673572D01*
X2546599Y-3673586D01*
X2524576Y-3755778D01*
X2489758Y-3885725D01*
X2478730Y-3926881D01*
X2478728Y-3926892D01*
X2444499Y-4186872D01*
X500500Y-4186872D01*
X500500Y-2064619D01*
X13261367Y-2064619D01*
X13261367Y-3755771D01*
X13261369Y-3755794D01*
X13264328Y-3781306D01*
X13264329Y-3781309D01*
X13310432Y-3885724D01*
X13310433Y-3885725D01*
X13391142Y-3966434D01*
X13495558Y-4012538D01*
X13521088Y-4015500D01*
X15212245Y-4015499D01*
X15237776Y-4012538D01*
X15342192Y-3966434D01*
X15422901Y-3885725D01*
X15469005Y-3781309D01*
X15471967Y-3755779D01*
X15471966Y-2064622D01*
X15471966Y-2064619D01*
X21800633Y-2064619D01*
X21800633Y-3755771D01*
X21800635Y-3755794D01*
X21803594Y-3781306D01*
X21803595Y-3781309D01*
X21849698Y-3885724D01*
X21849699Y-3885725D01*
X21930408Y-3966434D01*
X22034824Y-4012538D01*
X22060354Y-4015500D01*
X23751511Y-4015499D01*
X23777042Y-4012538D01*
X23881458Y-3966434D01*
X23962167Y-3885725D01*
X24008271Y-3781309D01*
X24011233Y-3755779D01*
X24011232Y-2064622D01*
X24011232Y-2064619D01*
X30339899Y-2064619D01*
X30339899Y-3755771D01*
X30339901Y-3755794D01*
X30342860Y-3781306D01*
X30342861Y-3781309D01*
X30388964Y-3885724D01*
X30388965Y-3885725D01*
X30469674Y-3966434D01*
X30574090Y-4012538D01*
X30599620Y-4015500D01*
X32290777Y-4015499D01*
X32316308Y-4012538D01*
X32420724Y-3966434D01*
X32501433Y-3885725D01*
X32547537Y-3781309D01*
X32550499Y-3755779D01*
X32550498Y-2064622D01*
X32550498Y-2064619D01*
X38879167Y-2064619D01*
X38879167Y-3755771D01*
X38879169Y-3755794D01*
X38882128Y-3781306D01*
X38882129Y-3781309D01*
X38928232Y-3885724D01*
X38928233Y-3885725D01*
X39008942Y-3966434D01*
X39113358Y-4012538D01*
X39138888Y-4015500D01*
X40830045Y-4015499D01*
X40855576Y-4012538D01*
X40959992Y-3966434D01*
X41040701Y-3885725D01*
X41086805Y-3781309D01*
X41089767Y-3755779D01*
X41089767Y-3553500D01*
X41109452Y-3486461D01*
X41162256Y-3440706D01*
X41213767Y-3429500D01*
X50893610Y-3429500D01*
X50960649Y-3449185D01*
X50981291Y-3465819D01*
X53226981Y-5711508D01*
X53260466Y-5772831D01*
X53263300Y-5799189D01*
X53263300Y-8591941D01*
X53243615Y-8658980D01*
X53195596Y-8702425D01*
X53179396Y-8710679D01*
X53107426Y-8762968D01*
X53035459Y-8815256D01*
X53035457Y-8815258D01*
X53035456Y-8815258D01*
X52909658Y-8941056D01*
X52909658Y-8941057D01*
X52909656Y-8941059D01*
X52864745Y-9002873D01*
X52805081Y-9084993D01*
X52724308Y-9243517D01*
X52669332Y-9412719D01*
X52641500Y-9588443D01*
X52641500Y-9766356D01*
X52669332Y-9942080D01*
X52724308Y-10111282D01*
X52760432Y-10182178D01*
X52805081Y-10269806D01*
X52909656Y-10413741D01*
X53035459Y-10539544D01*
X53179394Y-10644119D01*
X53337915Y-10724890D01*
X53337917Y-10724891D01*
X53422518Y-10752379D01*
X53507121Y-10779868D01*
X53682843Y-10807700D01*
X53682844Y-10807700D01*
X53860756Y-10807700D01*
X53860757Y-10807700D01*
X54036479Y-10779868D01*
X54205685Y-10724890D01*
X54364206Y-10644119D01*
X54508141Y-10539544D01*
X54633944Y-10413741D01*
X54738519Y-10269806D01*
X54819290Y-10111285D01*
X54874268Y-9942079D01*
X54902100Y-9766357D01*
X54902100Y-9588443D01*
X55181500Y-9588443D01*
X55181500Y-9766356D01*
X55209332Y-9942080D01*
X55264308Y-10111282D01*
X55300432Y-10182178D01*
X55345081Y-10269806D01*
X55449656Y-10413741D01*
X55575459Y-10539544D01*
X55719394Y-10644119D01*
X55877915Y-10724890D01*
X55877917Y-10724891D01*
X55962518Y-10752379D01*
X56047121Y-10779868D01*
X56222843Y-10807700D01*
X56222844Y-10807700D01*
X56400756Y-10807700D01*
X56400757Y-10807700D01*
X56576479Y-10779868D01*
X56745685Y-10724890D01*
X56904206Y-10644119D01*
X57048141Y-10539544D01*
X57173944Y-10413741D01*
X57278519Y-10269806D01*
X57359290Y-10111285D01*
X57414268Y-9942079D01*
X57442100Y-9766357D01*
X57442100Y-9588443D01*
X57414268Y-9412721D01*
X57386779Y-9328118D01*
X57359291Y-9243517D01*
X57278518Y-9084993D01*
X57173944Y-8941059D01*
X57048141Y-8815256D01*
X56904206Y-8710681D01*
X56838987Y-8677450D01*
X56745682Y-8629908D01*
X56576480Y-8574932D01*
X56488618Y-8561016D01*
X56400757Y-8547100D01*
X56222843Y-8547100D01*
X56164269Y-8556377D01*
X56047119Y-8574932D01*
X55877917Y-8629908D01*
X55719393Y-8710681D01*
X55637273Y-8770345D01*
X55575459Y-8815256D01*
X55575457Y-8815258D01*
X55575456Y-8815258D01*
X55449658Y-8941056D01*
X55449658Y-8941057D01*
X55449656Y-8941059D01*
X55404745Y-9002873D01*
X55345081Y-9084993D01*
X55264308Y-9243517D01*
X55209332Y-9412719D01*
X55181500Y-9588443D01*
X54902100Y-9588443D01*
X54874268Y-9412721D01*
X54846779Y-9328118D01*
X54819291Y-9243517D01*
X54738518Y-9084993D01*
X54633944Y-8941059D01*
X54508141Y-8815256D01*
X54364206Y-8710681D01*
X54364205Y-8710680D01*
X54364203Y-8710679D01*
X54348004Y-8702425D01*
X54297208Y-8654450D01*
X54280300Y-8591941D01*
X54280300Y-5470257D01*
X54280300Y-5470255D01*
X54245647Y-5340926D01*
X54178701Y-5224974D01*
X54084026Y-5130299D01*
X51467827Y-2514099D01*
X51409850Y-2480626D01*
X51351875Y-2447153D01*
X51287209Y-2429826D01*
X51222545Y-2412500D01*
X51222544Y-2412500D01*
X41213766Y-2412500D01*
X41146727Y-2392815D01*
X41100972Y-2340011D01*
X41089766Y-2288500D01*
X41089766Y-2064628D01*
X41089766Y-2064622D01*
X41086805Y-2039091D01*
X41040701Y-1934675D01*
X40959992Y-1853966D01*
X40959990Y-1853965D01*
X40855577Y-1807862D01*
X40830046Y-1804900D01*
X39138895Y-1804900D01*
X39138872Y-1804902D01*
X39113360Y-1807861D01*
X39113357Y-1807862D01*
X39008942Y-1853965D01*
X38928233Y-1934674D01*
X38882129Y-2039088D01*
X38882129Y-2039090D01*
X38879167Y-2064619D01*
X32550498Y-2064619D01*
X32550498Y-2064616D01*
X32547537Y-2039093D01*
X32547537Y-2039091D01*
X32501433Y-1934675D01*
X32420724Y-1853966D01*
X32420722Y-1853965D01*
X32316309Y-1807862D01*
X32290778Y-1804900D01*
X30599627Y-1804900D01*
X30599604Y-1804902D01*
X30574092Y-1807861D01*
X30574089Y-1807862D01*
X30469674Y-1853965D01*
X30388965Y-1934674D01*
X30342861Y-2039088D01*
X30342861Y-2039090D01*
X30339899Y-2064619D01*
X24011232Y-2064619D01*
X24011232Y-2064616D01*
X24008271Y-2039093D01*
X24008271Y-2039091D01*
X23962167Y-1934675D01*
X23881458Y-1853966D01*
X23881456Y-1853965D01*
X23777043Y-1807862D01*
X23751512Y-1804900D01*
X22060361Y-1804900D01*
X22060338Y-1804902D01*
X22034826Y-1807861D01*
X22034823Y-1807862D01*
X21930408Y-1853965D01*
X21849699Y-1934674D01*
X21803595Y-2039088D01*
X21803595Y-2039090D01*
X21800633Y-2064619D01*
X15471966Y-2064619D01*
X15471966Y-2064616D01*
X15469005Y-2039093D01*
X15469005Y-2039091D01*
X15422901Y-1934675D01*
X15342192Y-1853966D01*
X15342190Y-1853965D01*
X15237777Y-1807862D01*
X15212246Y-1804900D01*
X13521095Y-1804900D01*
X13521072Y-1804902D01*
X13495560Y-1807861D01*
X13495557Y-1807862D01*
X13391142Y-1853965D01*
X13310433Y-1934674D01*
X13264329Y-2039088D01*
X13264329Y-2039090D01*
X13261367Y-2064619D01*
X500500Y-2064619D01*
X500500Y-624500D01*
X520185Y-557461D01*
X572989Y-511706D01*
X624500Y-500500D01*
X60736411Y-500500D01*
X60803450Y-520185D01*
G37*
%TD.AperFunction*%
%TD*%
M02*
