%TF.GenerationSoftware,KiCad,Pcbnew,9.0.0*%
%TF.CreationDate,2025-03-26T12:01:05+11:00*%
%TF.ProjectId,Wing Board XLR Phantom,57696e67-2042-46f6-9172-6420584c5220,rev?*%
%TF.SameCoordinates,Original*%
%TF.FileFunction,Copper,L1,Top*%
%TF.FilePolarity,Positive*%
%FSLAX46Y46*%
G04 Gerber Fmt 4.6, Leading zero omitted, Abs format (unit mm)*
G04 Created by KiCad (PCBNEW 9.0.0) date 2025-03-26 12:01:05*
%MOMM*%
%LPD*%
G01*
G04 APERTURE LIST*
%TA.AperFunction,EtchedComponent*%
%ADD10C,0.120000*%
%TD*%
%TA.AperFunction,ComponentPad*%
%ADD11C,1.400000*%
%TD*%
%TA.AperFunction,ComponentPad*%
%ADD12O,1.400000X1.400000*%
%TD*%
%TA.AperFunction,ComponentPad*%
%ADD13C,3.400000*%
%TD*%
%TA.AperFunction,ComponentPad*%
%ADD14C,2.900000*%
%TD*%
%TA.AperFunction,ComponentPad*%
%ADD15R,1.600000X1.600000*%
%TD*%
%TA.AperFunction,ComponentPad*%
%ADD16C,1.600000*%
%TD*%
%TA.AperFunction,ComponentPad*%
%ADD17R,1.700000X1.700000*%
%TD*%
%TA.AperFunction,ComponentPad*%
%ADD18O,1.700000X1.700000*%
%TD*%
%TA.AperFunction,ComponentPad*%
%ADD19R,1.650000X1.650000*%
%TD*%
%TA.AperFunction,ComponentPad*%
%ADD20C,1.650000*%
%TD*%
%TA.AperFunction,Conductor*%
%ADD21C,0.406400*%
%TD*%
G04 APERTURE END LIST*
D10*
%TO.C,H1*%
X108827222Y-4318000D02*
G75*
G02*
X101992778Y-4318000I-3417222J0D01*
G01*
X101992778Y-4318000D02*
G75*
G02*
X108827222Y-4318000I3417222J0D01*
G01*
%TO.C,H2*%
X7862222Y-4318000D02*
G75*
G02*
X1027778Y-4318000I-3417222J0D01*
G01*
X1027778Y-4318000D02*
G75*
G02*
X7862222Y-4318000I3417222J0D01*
G01*
%TD*%
D11*
%TO.P,R2,1*%
%TO.N,/XC+*%
X31433432Y-13004800D03*
D12*
%TO.P,R2,2*%
%TO.N,Net-(J5-Pin_2)*%
X33973432Y-13004800D03*
%TD*%
D13*
%TO.P,J6,1*%
%TO.N,AGND*%
X17221200Y-23906400D03*
%TO.P,J6,2*%
%TO.N,/XD+*%
X9601200Y-23271400D03*
D14*
%TO.P,J6,3*%
%TO.N,/XD-*%
X13411200Y-19456400D03*
%TD*%
D11*
%TO.P,R1,1*%
%TO.N,/XD+*%
X14342700Y-13004800D03*
D12*
%TO.P,R1,2*%
%TO.N,Net-(J5-Pin_2)*%
X16882700Y-13004800D03*
%TD*%
D11*
%TO.P,R7,1*%
%TO.N,/XC-*%
X39978800Y-13004800D03*
D12*
%TO.P,R7,2*%
%TO.N,Net-(J5-Pin_2)*%
X42518800Y-13004800D03*
%TD*%
D15*
%TO.P,C1,1*%
%TO.N,/XD+*%
X14366667Y-4910200D03*
D16*
%TO.P,C1,2*%
%TO.N,/D+*%
X14366667Y-2910200D03*
%TD*%
D15*
%TO.P,C4,1*%
%TO.N,/XC-*%
X39984467Y-4910200D03*
D16*
%TO.P,C4,2*%
%TO.N,/C-*%
X39984467Y-2910200D03*
%TD*%
D15*
%TO.P,C2,1*%
%TO.N,/XD-*%
X22905933Y-4910200D03*
D16*
%TO.P,C2,2*%
%TO.N,/D-*%
X22905933Y-2910200D03*
%TD*%
D11*
%TO.P,R4,1*%
%TO.N,/XA+*%
X87409066Y-12979400D03*
D12*
%TO.P,R4,2*%
%TO.N,Net-(J5-Pin_2)*%
X89949066Y-12979400D03*
%TD*%
D15*
%TO.P,C10,1*%
%TO.N,Net-(J5-Pin_2)*%
X105206800Y-12852400D03*
D16*
%TO.P,C10,2*%
%TO.N,AGND*%
X105206800Y-10852400D03*
%TD*%
D15*
%TO.P,C6,1*%
%TO.N,/XB-*%
X78756933Y-4834000D03*
D16*
%TO.P,C6,2*%
%TO.N,/B-*%
X78756933Y-2834000D03*
%TD*%
D15*
%TO.P,C3,1*%
%TO.N,/XC+*%
X31445199Y-4910200D03*
D16*
%TO.P,C3,2*%
%TO.N,/C+*%
X31445199Y-2910200D03*
%TD*%
D13*
%TO.P,J1,1*%
%TO.N,AGND*%
X99999800Y-23926800D03*
%TO.P,J1,2*%
%TO.N,/XA+*%
X92379800Y-23291800D03*
D14*
%TO.P,J1,3*%
%TO.N,/XA-*%
X96189800Y-19476800D03*
%TD*%
D13*
%TO.P,J4,1*%
%TO.N,AGND*%
X44831000Y-23926800D03*
%TO.P,J4,2*%
%TO.N,/XC+*%
X37211000Y-23291800D03*
D14*
%TO.P,J4,3*%
%TO.N,/XC-*%
X41021000Y-19476800D03*
%TD*%
D17*
%TO.P,J5,1,Pin_1*%
%TO.N,AGND*%
X2184400Y-10337800D03*
D18*
%TO.P,J5,2,Pin_2*%
%TO.N,Net-(J5-Pin_2)*%
X2184400Y-12877800D03*
%TD*%
D19*
%TO.P,J3,1,Pin_1*%
%TO.N,V+*%
X48691800Y-10464800D03*
D20*
%TO.P,J3,2,Pin_2*%
%TO.N,V-*%
X48691800Y-7924800D03*
%TO.P,J3,3,Pin_3*%
%TO.N,/D+*%
X51231800Y-10464800D03*
%TO.P,J3,4,Pin_4*%
%TO.N,/D-*%
X51231800Y-7924800D03*
%TO.P,J3,5,Pin_5*%
%TO.N,/C+*%
X53771800Y-10464800D03*
%TO.P,J3,6,Pin_6*%
%TO.N,/C-*%
X53771800Y-7924800D03*
%TO.P,J3,7,Pin_7*%
%TO.N,/B+*%
X56311800Y-10464800D03*
%TO.P,J3,8,Pin_8*%
%TO.N,/B-*%
X56311800Y-7924800D03*
%TO.P,J3,9,Pin_9*%
%TO.N,/A+*%
X58851800Y-10464800D03*
%TO.P,J3,10,Pin_10*%
%TO.N,/A-*%
X58851800Y-7924800D03*
%TO.P,J3,11,Pin_11*%
%TO.N,AGND*%
X61391800Y-10464800D03*
%TO.P,J3,12,Pin_12*%
X61391800Y-7924800D03*
%TD*%
D11*
%TO.P,R3,1*%
%TO.N,/XB+*%
X70103200Y-12979400D03*
D12*
%TO.P,R3,2*%
%TO.N,Net-(J5-Pin_2)*%
X72643200Y-12979400D03*
%TD*%
D11*
%TO.P,R5,1*%
%TO.N,/XA-*%
X96062000Y-12979400D03*
D12*
%TO.P,R5,2*%
%TO.N,Net-(J5-Pin_2)*%
X98602000Y-12979400D03*
%TD*%
D15*
%TO.P,C7,1*%
%TO.N,/XA+*%
X87409866Y-4834000D03*
D16*
%TO.P,C7,2*%
%TO.N,/A+*%
X87409866Y-2834000D03*
%TD*%
D15*
%TO.P,C5,1*%
%TO.N,/XB+*%
X70104000Y-4834000D03*
D16*
%TO.P,C5,2*%
%TO.N,/B+*%
X70104000Y-2834000D03*
%TD*%
D11*
%TO.P,R8,1*%
%TO.N,/XD-*%
X22888066Y-13004800D03*
D12*
%TO.P,R8,2*%
%TO.N,Net-(J5-Pin_2)*%
X25428066Y-13004800D03*
%TD*%
D11*
%TO.P,R6,1*%
%TO.N,/XB-*%
X78756133Y-12979400D03*
D12*
%TO.P,R6,2*%
%TO.N,Net-(J5-Pin_2)*%
X81296133Y-12979400D03*
%TD*%
D15*
%TO.P,C8,1*%
%TO.N,/XA-*%
X96062800Y-4834000D03*
D16*
%TO.P,C8,2*%
%TO.N,/A-*%
X96062800Y-2834000D03*
%TD*%
D15*
%TO.P,C9,1*%
%TO.N,Net-(J5-Pin_2)*%
X9626600Y-12852400D03*
D16*
%TO.P,C9,2*%
%TO.N,AGND*%
X9626600Y-10852400D03*
%TD*%
D13*
%TO.P,J2,1*%
%TO.N,AGND*%
X72415400Y-23926800D03*
%TO.P,J2,2*%
%TO.N,/XB+*%
X64795400Y-23291800D03*
D14*
%TO.P,J2,3*%
%TO.N,/XB-*%
X68605400Y-19476800D03*
%TD*%
D21*
%TO.N,/XD+*%
X14375000Y-12972500D02*
X14366667Y-12980833D01*
X14375000Y-5401867D02*
X14375000Y-4918533D01*
X14366667Y-5410200D02*
X14375000Y-5401867D01*
X14366667Y-7350333D02*
X14375000Y-7342000D01*
X14366667Y-4910200D02*
X14366667Y-7350333D01*
X14375000Y-7342000D02*
X14375000Y-12972500D01*
X14375000Y-4918533D02*
X14366667Y-4910200D01*
%TO.N,/XD-*%
X22905933Y-4910200D02*
X22905933Y-12986933D01*
%TO.N,/XC+*%
X31445199Y-4910200D02*
X31445199Y-12993033D01*
%TO.N,/XB+*%
X70104000Y-4834000D02*
X70104000Y-12978600D01*
%TO.N,/XC-*%
X39984467Y-4910200D02*
X39984467Y-12999133D01*
%TO.N,/XA-*%
X96062800Y-4834000D02*
X96062800Y-12978600D01*
%TO.N,/XB-*%
X78756933Y-4834000D02*
X78756933Y-12978600D01*
%TO.N,/XA+*%
X87409866Y-4834000D02*
X87409866Y-12978600D01*
%TO.N,/D-*%
X51231800Y-5181600D02*
X46812200Y-762000D01*
X51231800Y-7924800D02*
X51231800Y-5181600D01*
X23850600Y-762000D02*
X22905933Y-1706667D01*
X46812200Y-762000D02*
X23850600Y-762000D01*
X22905933Y-1706667D02*
X22905933Y-2910200D01*
%TO.N,/D+*%
X19278600Y-13487400D02*
X21539200Y-15748000D01*
X14366667Y-2910200D02*
X16753200Y-2910200D01*
X21539200Y-15748000D02*
X48082200Y-15748000D01*
X16753200Y-2910200D02*
X19278600Y-5435600D01*
X48082200Y-15748000D02*
X51231800Y-12598400D01*
X19278600Y-5435600D02*
X19278600Y-13487400D01*
X51231800Y-12598400D02*
X51231800Y-10464800D01*
%TO.N,/B-*%
X56311800Y-7924800D02*
X56311800Y-3784600D01*
X56311800Y-3784600D02*
X59309000Y-787400D01*
X59309000Y-787400D02*
X76710333Y-787400D01*
X76710333Y-787400D02*
X78756933Y-2834000D01*
%TO.N,/B+*%
X57581800Y-9194800D02*
X57581800Y-5384800D01*
X60096400Y-2870200D02*
X70067800Y-2870200D01*
X56311800Y-10464800D02*
X57581800Y-9194800D01*
X57581800Y-5384800D02*
X60096400Y-2870200D01*
%TD*%
%TA.AperFunction,Conductor*%
%TO.N,AGND*%
G36*
X23160650Y-520185D02*
G01*
X23206405Y-572989D01*
X23216349Y-642147D01*
X23187324Y-705703D01*
X23181292Y-712181D01*
X22499034Y-1394437D01*
X22499032Y-1394440D01*
X22439015Y-1498392D01*
X22437271Y-1501413D01*
X22432086Y-1510393D01*
X22397433Y-1639722D01*
X22397433Y-1852799D01*
X22377748Y-1919838D01*
X22329729Y-1963283D01*
X22326627Y-1964863D01*
X22185884Y-2067118D01*
X22185879Y-2067122D01*
X22062855Y-2190146D01*
X22062851Y-2190151D01*
X21960598Y-2330892D01*
X21881612Y-2485909D01*
X21827848Y-2651374D01*
X21800633Y-2823205D01*
X21800633Y-2997194D01*
X21827848Y-3169025D01*
X21881612Y-3334490D01*
X21960595Y-3489503D01*
X22063456Y-3631080D01*
X22086935Y-3696887D01*
X22071109Y-3764941D01*
X22021003Y-3813635D01*
X22013224Y-3817399D01*
X21930407Y-3853966D01*
X21849699Y-3934674D01*
X21803595Y-4039088D01*
X21803595Y-4039090D01*
X21800633Y-4064619D01*
X21800633Y-5755771D01*
X21800635Y-5755794D01*
X21803594Y-5781306D01*
X21803595Y-5781309D01*
X21849698Y-5885724D01*
X21849699Y-5885725D01*
X21930408Y-5966434D01*
X22034824Y-6012538D01*
X22060354Y-6015500D01*
X22273433Y-6015499D01*
X22340472Y-6035183D01*
X22386227Y-6087987D01*
X22397433Y-6139499D01*
X22397433Y-12057286D01*
X22377748Y-12124325D01*
X22342325Y-12160387D01*
X22247227Y-12223930D01*
X22247221Y-12223935D01*
X22107201Y-12363955D01*
X22107198Y-12363959D01*
X21997184Y-12528605D01*
X21997179Y-12528614D01*
X21921399Y-12711564D01*
X21921397Y-12711572D01*
X21882766Y-12905782D01*
X21882766Y-13103817D01*
X21921397Y-13298027D01*
X21921399Y-13298035D01*
X21997179Y-13480985D01*
X21997184Y-13480994D01*
X22107198Y-13645640D01*
X22107201Y-13645644D01*
X22247221Y-13785664D01*
X22247225Y-13785667D01*
X22411871Y-13895681D01*
X22411877Y-13895684D01*
X22411878Y-13895685D01*
X22594831Y-13971467D01*
X22761659Y-14004651D01*
X22789048Y-14010099D01*
X22789052Y-14010100D01*
X22789053Y-14010100D01*
X22987080Y-14010100D01*
X22987081Y-14010099D01*
X23181301Y-13971467D01*
X23364254Y-13895685D01*
X23528907Y-13785667D01*
X23668933Y-13645641D01*
X23778951Y-13480988D01*
X23854733Y-13298035D01*
X23893366Y-13103813D01*
X23893366Y-12905787D01*
X23893365Y-12905782D01*
X24422766Y-12905782D01*
X24422766Y-13103817D01*
X24461397Y-13298027D01*
X24461399Y-13298035D01*
X24537179Y-13480985D01*
X24537184Y-13480994D01*
X24647198Y-13645640D01*
X24647201Y-13645644D01*
X24787221Y-13785664D01*
X24787225Y-13785667D01*
X24951871Y-13895681D01*
X24951877Y-13895684D01*
X24951878Y-13895685D01*
X25134831Y-13971467D01*
X25301659Y-14004651D01*
X25329048Y-14010099D01*
X25329052Y-14010100D01*
X25329053Y-14010100D01*
X25527080Y-14010100D01*
X25527081Y-14010099D01*
X25721301Y-13971467D01*
X25904254Y-13895685D01*
X26068907Y-13785667D01*
X26208933Y-13645641D01*
X26318951Y-13480988D01*
X26394733Y-13298035D01*
X26433366Y-13103813D01*
X26433366Y-12905787D01*
X26394733Y-12711565D01*
X26318951Y-12528612D01*
X26318950Y-12528611D01*
X26318947Y-12528605D01*
X26208933Y-12363959D01*
X26208930Y-12363955D01*
X26068910Y-12223935D01*
X26068906Y-12223932D01*
X25904260Y-12113918D01*
X25904251Y-12113913D01*
X25721301Y-12038133D01*
X25721293Y-12038131D01*
X25527083Y-11999500D01*
X25527079Y-11999500D01*
X25329053Y-11999500D01*
X25329048Y-11999500D01*
X25134838Y-12038131D01*
X25134830Y-12038133D01*
X24951880Y-12113913D01*
X24951871Y-12113918D01*
X24787225Y-12223932D01*
X24787221Y-12223935D01*
X24647201Y-12363955D01*
X24647198Y-12363959D01*
X24537184Y-12528605D01*
X24537179Y-12528614D01*
X24461399Y-12711564D01*
X24461397Y-12711572D01*
X24422766Y-12905782D01*
X23893365Y-12905782D01*
X23854733Y-12711565D01*
X23778951Y-12528612D01*
X23778950Y-12528611D01*
X23778947Y-12528605D01*
X23668933Y-12363959D01*
X23668930Y-12363955D01*
X23528910Y-12223935D01*
X23528904Y-12223930D01*
X23469541Y-12184264D01*
X23424737Y-12130651D01*
X23414433Y-12081163D01*
X23414433Y-6139499D01*
X23434118Y-6072460D01*
X23486922Y-6026705D01*
X23538433Y-6015499D01*
X23751505Y-6015499D01*
X23751511Y-6015499D01*
X23777042Y-6012538D01*
X23881458Y-5966434D01*
X23962167Y-5885725D01*
X24008271Y-5781309D01*
X24011233Y-5755779D01*
X24011232Y-4064622D01*
X24008271Y-4039091D01*
X23962167Y-3934675D01*
X23881458Y-3853966D01*
X23798641Y-3817398D01*
X23745265Y-3772311D01*
X23724738Y-3705525D01*
X23743577Y-3638243D01*
X23748410Y-3631078D01*
X23749005Y-3630258D01*
X23749009Y-3630255D01*
X23851270Y-3489504D01*
X23930255Y-3334488D01*
X23984017Y-3169025D01*
X24004109Y-3042170D01*
X24011233Y-2997194D01*
X24011233Y-2823205D01*
X30339899Y-2823205D01*
X30339899Y-2997194D01*
X30367114Y-3169025D01*
X30420878Y-3334490D01*
X30499861Y-3489503D01*
X30602722Y-3631080D01*
X30626201Y-3696887D01*
X30610375Y-3764941D01*
X30560269Y-3813635D01*
X30552490Y-3817399D01*
X30469673Y-3853966D01*
X30388965Y-3934674D01*
X30342861Y-4039088D01*
X30342861Y-4039090D01*
X30339899Y-4064619D01*
X30339899Y-5755771D01*
X30339901Y-5755794D01*
X30342860Y-5781306D01*
X30342861Y-5781309D01*
X30388964Y-5885724D01*
X30388965Y-5885725D01*
X30469674Y-5966434D01*
X30574090Y-6012538D01*
X30599620Y-6015500D01*
X30812699Y-6015499D01*
X30879738Y-6035183D01*
X30925493Y-6087987D01*
X30936699Y-6139499D01*
X30936699Y-12061362D01*
X30917014Y-12128401D01*
X30881591Y-12164464D01*
X30792587Y-12223935D01*
X30652567Y-12363955D01*
X30652564Y-12363959D01*
X30542550Y-12528605D01*
X30542545Y-12528614D01*
X30466765Y-12711564D01*
X30466763Y-12711572D01*
X30428132Y-12905782D01*
X30428132Y-13103817D01*
X30466763Y-13298027D01*
X30466765Y-13298035D01*
X30542545Y-13480985D01*
X30542550Y-13480994D01*
X30652564Y-13645640D01*
X30652567Y-13645644D01*
X30792587Y-13785664D01*
X30792591Y-13785667D01*
X30957237Y-13895681D01*
X30957243Y-13895684D01*
X30957244Y-13895685D01*
X31140197Y-13971467D01*
X31307025Y-14004651D01*
X31334414Y-14010099D01*
X31334418Y-14010100D01*
X31334419Y-14010100D01*
X31532446Y-14010100D01*
X31532447Y-14010099D01*
X31726667Y-13971467D01*
X31909620Y-13895685D01*
X32074273Y-13785667D01*
X32214299Y-13645641D01*
X32324317Y-13480988D01*
X32400099Y-13298035D01*
X32438732Y-13103813D01*
X32438732Y-12905787D01*
X32438731Y-12905782D01*
X32968132Y-12905782D01*
X32968132Y-13103817D01*
X33006763Y-13298027D01*
X33006765Y-13298035D01*
X33082545Y-13480985D01*
X33082550Y-13480994D01*
X33192564Y-13645640D01*
X33192567Y-13645644D01*
X33332587Y-13785664D01*
X33332591Y-13785667D01*
X33497237Y-13895681D01*
X33497243Y-13895684D01*
X33497244Y-13895685D01*
X33680197Y-13971467D01*
X33847025Y-14004651D01*
X33874414Y-14010099D01*
X33874418Y-14010100D01*
X33874419Y-14010100D01*
X34072446Y-14010100D01*
X34072447Y-14010099D01*
X34266667Y-13971467D01*
X34449620Y-13895685D01*
X34614273Y-13785667D01*
X34754299Y-13645641D01*
X34864317Y-13480988D01*
X34940099Y-13298035D01*
X34978732Y-13103813D01*
X34978732Y-12905787D01*
X34940099Y-12711565D01*
X34864317Y-12528612D01*
X34864316Y-12528611D01*
X34864313Y-12528605D01*
X34754299Y-12363959D01*
X34754296Y-12363955D01*
X34614276Y-12223935D01*
X34614272Y-12223932D01*
X34449626Y-12113918D01*
X34449617Y-12113913D01*
X34266667Y-12038133D01*
X34266659Y-12038131D01*
X34072449Y-11999500D01*
X34072445Y-11999500D01*
X33874419Y-11999500D01*
X33874414Y-11999500D01*
X33680204Y-12038131D01*
X33680196Y-12038133D01*
X33497246Y-12113913D01*
X33497237Y-12113918D01*
X33332591Y-12223932D01*
X33332587Y-12223935D01*
X33192567Y-12363955D01*
X33192564Y-12363959D01*
X33082550Y-12528605D01*
X33082545Y-12528614D01*
X33006765Y-12711564D01*
X33006763Y-12711572D01*
X32968132Y-12905782D01*
X32438731Y-12905782D01*
X32400099Y-12711565D01*
X32324317Y-12528612D01*
X32324316Y-12528611D01*
X32324313Y-12528605D01*
X32214299Y-12363959D01*
X32214296Y-12363955D01*
X32074276Y-12223935D01*
X32074270Y-12223930D01*
X32008807Y-12180188D01*
X31964003Y-12126575D01*
X31953699Y-12077087D01*
X31953699Y-6139499D01*
X31973384Y-6072460D01*
X32026188Y-6026705D01*
X32077699Y-6015499D01*
X32290771Y-6015499D01*
X32290777Y-6015499D01*
X32316308Y-6012538D01*
X32420724Y-5966434D01*
X32501433Y-5885725D01*
X32547537Y-5781309D01*
X32550499Y-5755779D01*
X32550498Y-4064622D01*
X32547537Y-4039091D01*
X32501433Y-3934675D01*
X32420724Y-3853966D01*
X32337907Y-3817398D01*
X32284531Y-3772311D01*
X32264004Y-3705525D01*
X32282843Y-3638243D01*
X32287676Y-3631078D01*
X32288271Y-3630258D01*
X32288275Y-3630255D01*
X32390536Y-3489504D01*
X32469521Y-3334488D01*
X32523283Y-3169025D01*
X32543375Y-3042170D01*
X32550499Y-2997194D01*
X32550499Y-2823205D01*
X38879167Y-2823205D01*
X38879167Y-2997194D01*
X38906382Y-3169025D01*
X38960146Y-3334490D01*
X39039129Y-3489503D01*
X39141990Y-3631080D01*
X39165469Y-3696887D01*
X39149643Y-3764941D01*
X39099537Y-3813635D01*
X39091758Y-3817399D01*
X39008941Y-3853966D01*
X38928233Y-3934674D01*
X38882129Y-4039088D01*
X38882129Y-4039090D01*
X38879167Y-4064619D01*
X38879167Y-5755771D01*
X38879169Y-5755794D01*
X38882128Y-5781306D01*
X38882129Y-5781309D01*
X38928232Y-5885724D01*
X38928233Y-5885725D01*
X39008942Y-5966434D01*
X39113358Y-6012538D01*
X39138888Y-6015500D01*
X39351967Y-6015499D01*
X39419006Y-6035183D01*
X39464761Y-6087987D01*
X39475967Y-6139499D01*
X39475967Y-12065438D01*
X39456282Y-12132477D01*
X39420859Y-12168540D01*
X39337955Y-12223935D01*
X39197935Y-12363955D01*
X39197932Y-12363959D01*
X39087918Y-12528605D01*
X39087913Y-12528614D01*
X39012133Y-12711564D01*
X39012131Y-12711572D01*
X38973500Y-12905782D01*
X38973500Y-13103817D01*
X39012131Y-13298027D01*
X39012133Y-13298035D01*
X39087913Y-13480985D01*
X39087918Y-13480994D01*
X39197932Y-13645640D01*
X39197935Y-13645644D01*
X39337955Y-13785664D01*
X39337959Y-13785667D01*
X39502605Y-13895681D01*
X39502611Y-13895684D01*
X39502612Y-13895685D01*
X39685565Y-13971467D01*
X39852393Y-14004651D01*
X39879782Y-14010099D01*
X39879786Y-14010100D01*
X39879787Y-14010100D01*
X40077814Y-14010100D01*
X40077815Y-14010099D01*
X40272035Y-13971467D01*
X40454988Y-13895685D01*
X40619641Y-13785667D01*
X40759667Y-13645641D01*
X40869685Y-13480988D01*
X40945467Y-13298035D01*
X40984100Y-13103813D01*
X40984100Y-12905787D01*
X40984099Y-12905782D01*
X41513500Y-12905782D01*
X41513500Y-13103817D01*
X41552131Y-13298027D01*
X41552133Y-13298035D01*
X41627913Y-13480985D01*
X41627918Y-13480994D01*
X41737932Y-13645640D01*
X41737935Y-13645644D01*
X41877955Y-13785664D01*
X41877959Y-13785667D01*
X42042605Y-13895681D01*
X42042611Y-13895684D01*
X42042612Y-13895685D01*
X42225565Y-13971467D01*
X42392393Y-14004651D01*
X42419782Y-14010099D01*
X42419786Y-14010100D01*
X42419787Y-14010100D01*
X42617814Y-14010100D01*
X42617815Y-14010099D01*
X42812035Y-13971467D01*
X42994988Y-13895685D01*
X43159641Y-13785667D01*
X43299667Y-13645641D01*
X43409685Y-13480988D01*
X43485467Y-13298035D01*
X43524100Y-13103813D01*
X43524100Y-12905787D01*
X43485467Y-12711565D01*
X43409685Y-12528612D01*
X43409684Y-12528611D01*
X43409681Y-12528605D01*
X43299667Y-12363959D01*
X43299664Y-12363955D01*
X43159644Y-12223935D01*
X43159640Y-12223932D01*
X42994994Y-12113918D01*
X42994985Y-12113913D01*
X42812035Y-12038133D01*
X42812027Y-12038131D01*
X42617817Y-11999500D01*
X42617813Y-11999500D01*
X42419787Y-11999500D01*
X42419782Y-11999500D01*
X42225572Y-12038131D01*
X42225564Y-12038133D01*
X42042614Y-12113913D01*
X42042605Y-12113918D01*
X41877959Y-12223932D01*
X41877955Y-12223935D01*
X41737935Y-12363955D01*
X41737932Y-12363959D01*
X41627918Y-12528605D01*
X41627913Y-12528614D01*
X41552133Y-12711564D01*
X41552131Y-12711572D01*
X41513500Y-12905782D01*
X40984099Y-12905782D01*
X40945467Y-12711565D01*
X40869685Y-12528612D01*
X40869684Y-12528611D01*
X40869681Y-12528605D01*
X40759667Y-12363959D01*
X40759664Y-12363955D01*
X40619648Y-12223939D01*
X40619643Y-12223935D01*
X40619641Y-12223933D01*
X40554173Y-12180188D01*
X40548075Y-12176113D01*
X40503271Y-12122500D01*
X40492967Y-12073012D01*
X40492967Y-9594219D01*
X47561500Y-9594219D01*
X47561500Y-11335371D01*
X47561502Y-11335394D01*
X47564461Y-11360906D01*
X47564462Y-11360909D01*
X47610565Y-11465324D01*
X47610566Y-11465325D01*
X47691275Y-11546034D01*
X47795691Y-11592138D01*
X47821221Y-11595100D01*
X49562378Y-11595099D01*
X49587909Y-11592138D01*
X49692325Y-11546034D01*
X49773034Y-11465325D01*
X49819138Y-11360909D01*
X49822100Y-11335379D01*
X49822099Y-9594222D01*
X49819138Y-9568691D01*
X49773034Y-9464275D01*
X49692325Y-9383566D01*
X49656958Y-9367950D01*
X49587910Y-9337462D01*
X49562379Y-9334500D01*
X47821228Y-9334500D01*
X47821205Y-9334502D01*
X47795693Y-9337461D01*
X47795690Y-9337462D01*
X47691275Y-9383565D01*
X47610566Y-9464274D01*
X47564462Y-9568688D01*
X47564462Y-9568690D01*
X47561500Y-9594219D01*
X40492967Y-9594219D01*
X40492967Y-7835843D01*
X47561500Y-7835843D01*
X47561500Y-8013756D01*
X47589332Y-8189480D01*
X47644308Y-8358682D01*
X47680432Y-8429578D01*
X47725081Y-8517206D01*
X47829656Y-8661141D01*
X47955459Y-8786944D01*
X48099394Y-8891519D01*
X48242010Y-8964186D01*
X48257917Y-8972291D01*
X48293105Y-8983724D01*
X48427121Y-9027268D01*
X48602843Y-9055100D01*
X48602844Y-9055100D01*
X48780756Y-9055100D01*
X48780757Y-9055100D01*
X48956479Y-9027268D01*
X49125685Y-8972290D01*
X49284206Y-8891519D01*
X49428141Y-8786944D01*
X49553944Y-8661141D01*
X49658519Y-8517206D01*
X49739290Y-8358685D01*
X49794268Y-8189479D01*
X49822100Y-8013757D01*
X49822100Y-7835843D01*
X49794268Y-7660121D01*
X49763779Y-7566285D01*
X49739291Y-7490917D01*
X49674797Y-7364341D01*
X49658519Y-7332394D01*
X49553944Y-7188459D01*
X49428141Y-7062656D01*
X49284206Y-6958081D01*
X49273013Y-6952378D01*
X49125682Y-6877308D01*
X48956480Y-6822332D01*
X48832434Y-6802685D01*
X48780757Y-6794500D01*
X48602843Y-6794500D01*
X48551166Y-6802685D01*
X48427119Y-6822332D01*
X48257917Y-6877308D01*
X48099393Y-6958081D01*
X48052520Y-6992137D01*
X47955459Y-7062656D01*
X47955457Y-7062658D01*
X47955456Y-7062658D01*
X47829658Y-7188456D01*
X47829658Y-7188457D01*
X47829656Y-7188459D01*
X47786147Y-7248344D01*
X47725081Y-7332393D01*
X47644308Y-7490917D01*
X47589332Y-7660119D01*
X47561500Y-7835843D01*
X40492967Y-7835843D01*
X40492967Y-6139499D01*
X40512652Y-6072460D01*
X40565456Y-6026705D01*
X40616967Y-6015499D01*
X40830039Y-6015499D01*
X40830045Y-6015499D01*
X40855576Y-6012538D01*
X40959992Y-5966434D01*
X41040701Y-5885725D01*
X41086805Y-5781309D01*
X41089767Y-5755779D01*
X41089766Y-4064622D01*
X41086805Y-4039091D01*
X41040701Y-3934675D01*
X40959992Y-3853966D01*
X40877175Y-3817398D01*
X40823799Y-3772311D01*
X40803272Y-3705525D01*
X40822111Y-3638243D01*
X40826944Y-3631078D01*
X40827539Y-3630258D01*
X40827543Y-3630255D01*
X40929804Y-3489504D01*
X41008789Y-3334488D01*
X41062551Y-3169025D01*
X41082643Y-3042170D01*
X41089767Y-2997194D01*
X41089767Y-2823205D01*
X41062551Y-2651374D01*
X41037792Y-2575174D01*
X41008789Y-2485912D01*
X40929804Y-2330896D01*
X40874439Y-2254692D01*
X40827548Y-2190151D01*
X40827544Y-2190146D01*
X40704520Y-2067122D01*
X40704515Y-2067118D01*
X40563774Y-1964865D01*
X40563773Y-1964864D01*
X40563771Y-1964863D01*
X40408755Y-1885878D01*
X40365843Y-1871935D01*
X40243292Y-1832115D01*
X40071461Y-1804900D01*
X40071456Y-1804900D01*
X39897478Y-1804900D01*
X39897473Y-1804900D01*
X39725641Y-1832115D01*
X39560176Y-1885879D01*
X39405159Y-1964865D01*
X39264418Y-2067118D01*
X39264413Y-2067122D01*
X39141389Y-2190146D01*
X39141385Y-2190151D01*
X39039132Y-2330892D01*
X38960146Y-2485909D01*
X38906382Y-2651374D01*
X38879167Y-2823205D01*
X32550499Y-2823205D01*
X32523283Y-2651374D01*
X32498524Y-2575174D01*
X32469521Y-2485912D01*
X32390536Y-2330896D01*
X32335171Y-2254692D01*
X32288280Y-2190151D01*
X32288276Y-2190146D01*
X32165252Y-2067122D01*
X32165247Y-2067118D01*
X32024506Y-1964865D01*
X32024505Y-1964864D01*
X32024503Y-1964863D01*
X31869487Y-1885878D01*
X31826575Y-1871935D01*
X31704024Y-1832115D01*
X31532193Y-1804900D01*
X31532188Y-1804900D01*
X31358210Y-1804900D01*
X31358205Y-1804900D01*
X31186373Y-1832115D01*
X31020908Y-1885879D01*
X30865891Y-1964865D01*
X30725150Y-2067118D01*
X30725145Y-2067122D01*
X30602121Y-2190146D01*
X30602117Y-2190151D01*
X30499864Y-2330892D01*
X30420878Y-2485909D01*
X30367114Y-2651374D01*
X30339899Y-2823205D01*
X24011233Y-2823205D01*
X23984017Y-2651374D01*
X23959258Y-2575174D01*
X23930255Y-2485912D01*
X23851270Y-2330896D01*
X23795905Y-2254692D01*
X23749014Y-2190151D01*
X23749010Y-2190146D01*
X23625986Y-2067122D01*
X23625981Y-2067118D01*
X23534134Y-2000387D01*
X23491468Y-1945057D01*
X23485489Y-1875444D01*
X23518095Y-1813649D01*
X23519268Y-1812458D01*
X24024908Y-1306819D01*
X24086231Y-1273334D01*
X24112589Y-1270500D01*
X46550210Y-1270500D01*
X46617249Y-1290185D01*
X46637891Y-1306819D01*
X50686981Y-5355909D01*
X50720466Y-5417232D01*
X50723300Y-5443590D01*
X50723300Y-6839341D01*
X50703615Y-6906380D01*
X50655596Y-6949825D01*
X50639396Y-6958079D01*
X50592520Y-6992137D01*
X50495459Y-7062656D01*
X50495457Y-7062658D01*
X50495456Y-7062658D01*
X50369658Y-7188456D01*
X50369658Y-7188457D01*
X50369656Y-7188459D01*
X50326147Y-7248344D01*
X50265081Y-7332393D01*
X50184308Y-7490917D01*
X50129332Y-7660119D01*
X50101500Y-7835843D01*
X50101500Y-8013756D01*
X50129332Y-8189480D01*
X50184308Y-8358682D01*
X50220432Y-8429578D01*
X50265081Y-8517206D01*
X50369656Y-8661141D01*
X50495459Y-8786944D01*
X50639394Y-8891519D01*
X50782010Y-8964186D01*
X50797917Y-8972291D01*
X50833105Y-8983724D01*
X50967121Y-9027268D01*
X51142843Y-9055100D01*
X51142844Y-9055100D01*
X51320756Y-9055100D01*
X51320757Y-9055100D01*
X51496479Y-9027268D01*
X51665685Y-8972290D01*
X51824206Y-8891519D01*
X51968141Y-8786944D01*
X52093944Y-8661141D01*
X52198519Y-8517206D01*
X52279290Y-8358685D01*
X52334268Y-8189479D01*
X52362100Y-8013757D01*
X52362100Y-7835843D01*
X52641500Y-7835843D01*
X52641500Y-8013756D01*
X52669332Y-8189480D01*
X52724308Y-8358682D01*
X52760432Y-8429578D01*
X52805081Y-8517206D01*
X52909656Y-8661141D01*
X53035459Y-8786944D01*
X53179394Y-8891519D01*
X53322010Y-8964186D01*
X53337917Y-8972291D01*
X53373105Y-8983724D01*
X53507121Y-9027268D01*
X53682843Y-9055100D01*
X53682844Y-9055100D01*
X53860756Y-9055100D01*
X53860757Y-9055100D01*
X54036479Y-9027268D01*
X54205685Y-8972290D01*
X54364206Y-8891519D01*
X54508141Y-8786944D01*
X54633944Y-8661141D01*
X54738519Y-8517206D01*
X54819290Y-8358685D01*
X54874268Y-8189479D01*
X54902100Y-8013757D01*
X54902100Y-7835843D01*
X54874268Y-7660121D01*
X54843779Y-7566285D01*
X54819291Y-7490917D01*
X54754797Y-7364341D01*
X54738519Y-7332394D01*
X54633944Y-7188459D01*
X54508141Y-7062656D01*
X54364206Y-6958081D01*
X54353013Y-6952378D01*
X54205682Y-6877308D01*
X54036480Y-6822332D01*
X53912434Y-6802685D01*
X53860757Y-6794500D01*
X53682843Y-6794500D01*
X53631166Y-6802685D01*
X53507119Y-6822332D01*
X53337917Y-6877308D01*
X53179393Y-6958081D01*
X53132520Y-6992137D01*
X53035459Y-7062656D01*
X53035457Y-7062658D01*
X53035456Y-7062658D01*
X52909658Y-7188456D01*
X52909658Y-7188457D01*
X52909656Y-7188459D01*
X52866147Y-7248344D01*
X52805081Y-7332393D01*
X52724308Y-7490917D01*
X52669332Y-7660119D01*
X52641500Y-7835843D01*
X52362100Y-7835843D01*
X52334268Y-7660121D01*
X52303779Y-7566285D01*
X52279291Y-7490917D01*
X52214797Y-7364341D01*
X52198519Y-7332394D01*
X52093944Y-7188459D01*
X51968141Y-7062656D01*
X51824206Y-6958081D01*
X51824205Y-6958080D01*
X51824203Y-6958079D01*
X51808004Y-6949825D01*
X51757208Y-6901850D01*
X51740300Y-6839341D01*
X51740300Y-5114657D01*
X51740300Y-5114655D01*
X51705647Y-4985326D01*
X51662707Y-4910953D01*
X51662707Y-4910952D01*
X51662705Y-4910950D01*
X51638703Y-4869376D01*
X51638699Y-4869371D01*
X47481509Y-712181D01*
X47448024Y-650858D01*
X47453008Y-581166D01*
X47494880Y-525233D01*
X47560344Y-500816D01*
X47569190Y-500500D01*
X58577411Y-500500D01*
X58644450Y-520185D01*
X58690205Y-572989D01*
X58700149Y-642147D01*
X58671124Y-705703D01*
X58665092Y-712181D01*
X55904900Y-3472371D01*
X55904898Y-3472374D01*
X55895009Y-3489503D01*
X55857740Y-3554055D01*
X55857265Y-3554878D01*
X55837953Y-3588325D01*
X55803300Y-3717655D01*
X55803300Y-6839341D01*
X55783615Y-6906380D01*
X55735596Y-6949825D01*
X55719396Y-6958079D01*
X55672520Y-6992137D01*
X55575459Y-7062656D01*
X55575457Y-7062658D01*
X55575456Y-7062658D01*
X55449658Y-7188456D01*
X55449658Y-7188457D01*
X55449656Y-7188459D01*
X55406147Y-7248344D01*
X55345081Y-7332393D01*
X55264308Y-7490917D01*
X55209332Y-7660119D01*
X55181500Y-7835843D01*
X55181500Y-8013756D01*
X55209332Y-8189480D01*
X55264308Y-8358682D01*
X55300432Y-8429578D01*
X55345081Y-8517206D01*
X55449656Y-8661141D01*
X55575459Y-8786944D01*
X55719394Y-8891519D01*
X55862010Y-8964186D01*
X55877917Y-8972291D01*
X55913105Y-8983724D01*
X56047121Y-9027268D01*
X56222843Y-9055100D01*
X56222844Y-9055100D01*
X56400756Y-9055100D01*
X56400757Y-9055100D01*
X56576479Y-9027268D01*
X56745685Y-8972290D01*
X56745687Y-8972288D01*
X56749297Y-8970794D01*
X56760505Y-8969588D01*
X56770399Y-8964186D01*
X56794621Y-8965918D01*
X56818766Y-8963321D01*
X56828845Y-8968365D01*
X56840091Y-8969170D01*
X56859532Y-8983724D01*
X56881247Y-8994592D01*
X56886999Y-9004286D01*
X56896024Y-9011042D01*
X56904510Y-9033795D01*
X56916903Y-9054679D01*
X56916501Y-9065943D01*
X56920441Y-9076506D01*
X56915279Y-9100234D01*
X56914414Y-9124504D01*
X56907599Y-9135536D01*
X56905589Y-9144779D01*
X56884439Y-9173032D01*
X56795728Y-9261743D01*
X56719770Y-9337701D01*
X56658447Y-9371185D01*
X56593772Y-9367950D01*
X56576481Y-9362332D01*
X56576482Y-9362332D01*
X56419458Y-9337462D01*
X56400757Y-9334500D01*
X56222843Y-9334500D01*
X56164269Y-9343777D01*
X56047119Y-9362332D01*
X55877917Y-9417308D01*
X55719393Y-9498081D01*
X55637273Y-9557745D01*
X55575459Y-9602656D01*
X55575457Y-9602658D01*
X55575456Y-9602658D01*
X55449658Y-9728456D01*
X55449658Y-9728457D01*
X55449656Y-9728459D01*
X55404745Y-9790273D01*
X55345081Y-9872393D01*
X55264308Y-10030917D01*
X55209332Y-10200119D01*
X55181500Y-10375843D01*
X55181500Y-10553756D01*
X55209332Y-10729480D01*
X55264308Y-10898682D01*
X55323474Y-11014800D01*
X55345081Y-11057206D01*
X55449656Y-11201141D01*
X55575459Y-11326944D01*
X55719394Y-11431519D01*
X55829743Y-11487745D01*
X55877917Y-11512291D01*
X55962518Y-11539779D01*
X56047121Y-11567268D01*
X56222843Y-11595100D01*
X56222844Y-11595100D01*
X56400756Y-11595100D01*
X56400757Y-11595100D01*
X56576479Y-11567268D01*
X56745685Y-11512290D01*
X56904206Y-11431519D01*
X57048141Y-11326944D01*
X57173944Y-11201141D01*
X57278519Y-11057206D01*
X57359290Y-10898685D01*
X57414268Y-10729479D01*
X57442100Y-10553757D01*
X57442100Y-10375843D01*
X57414268Y-10200121D01*
X57414267Y-10200117D01*
X57408649Y-10182825D01*
X57408214Y-10167613D01*
X57402896Y-10153354D01*
X57407237Y-10133398D01*
X57406654Y-10112984D01*
X57414742Y-10098897D01*
X57417748Y-10085081D01*
X57438895Y-10056831D01*
X57603570Y-9892157D01*
X57664890Y-9858674D01*
X57734582Y-9863658D01*
X57790515Y-9905530D01*
X57814932Y-9970994D01*
X57805812Y-10027285D01*
X57804311Y-10030907D01*
X57749332Y-10200119D01*
X57721500Y-10375843D01*
X57721500Y-10553756D01*
X57749332Y-10729480D01*
X57804308Y-10898682D01*
X57863474Y-11014800D01*
X57885081Y-11057206D01*
X57989656Y-11201141D01*
X58115459Y-11326944D01*
X58259394Y-11431519D01*
X58369743Y-11487745D01*
X58417917Y-11512291D01*
X58502518Y-11539779D01*
X58587121Y-11567268D01*
X58762843Y-11595100D01*
X58762844Y-11595100D01*
X58940756Y-11595100D01*
X58940757Y-11595100D01*
X59116479Y-11567268D01*
X59285685Y-11512290D01*
X59444206Y-11431519D01*
X59588141Y-11326944D01*
X59713944Y-11201141D01*
X59818519Y-11057206D01*
X59899290Y-10898685D01*
X59954268Y-10729479D01*
X59982100Y-10553757D01*
X59982100Y-10379881D01*
X60312800Y-10379881D01*
X60312800Y-10549718D01*
X60339368Y-10717466D01*
X60391853Y-10878996D01*
X60438007Y-10969577D01*
X60847839Y-10559747D01*
X60879282Y-10677092D01*
X60951690Y-10802508D01*
X61054092Y-10904910D01*
X61179508Y-10977318D01*
X61296851Y-11008760D01*
X60887020Y-11418590D01*
X60977609Y-11464747D01*
X61139133Y-11517231D01*
X61306882Y-11543800D01*
X61476718Y-11543800D01*
X61644466Y-11517231D01*
X61805993Y-11464746D01*
X61805997Y-11464745D01*
X61896578Y-11418590D01*
X61486749Y-11008760D01*
X61604092Y-10977318D01*
X61729508Y-10904910D01*
X61831910Y-10802508D01*
X61904318Y-10677092D01*
X61935760Y-10559748D01*
X62345590Y-10969578D01*
X62391745Y-10878997D01*
X62391746Y-10878993D01*
X62444231Y-10717466D01*
X62470800Y-10549718D01*
X62470800Y-10379881D01*
X62444231Y-10212133D01*
X62391747Y-10050609D01*
X62345590Y-9960020D01*
X61935760Y-10369850D01*
X61904318Y-10252508D01*
X61831910Y-10127092D01*
X61729508Y-10024690D01*
X61604092Y-9952282D01*
X61486748Y-9920839D01*
X61896578Y-9511008D01*
X61805996Y-9464853D01*
X61644466Y-9412368D01*
X61476718Y-9385800D01*
X61306882Y-9385800D01*
X61139132Y-9412369D01*
X61139129Y-9412369D01*
X60977610Y-9464850D01*
X60887021Y-9511008D01*
X61296852Y-9920839D01*
X61179508Y-9952282D01*
X61054092Y-10024690D01*
X60951690Y-10127092D01*
X60879282Y-10252508D01*
X60847839Y-10369852D01*
X60438008Y-9960021D01*
X60391850Y-10050610D01*
X60339369Y-10212129D01*
X60339369Y-10212132D01*
X60312800Y-10379881D01*
X59982100Y-10379881D01*
X59982100Y-10375843D01*
X59954268Y-10200121D01*
X59921379Y-10098897D01*
X59899291Y-10030917D01*
X59891582Y-10015787D01*
X59818519Y-9872394D01*
X59713944Y-9728459D01*
X59588141Y-9602656D01*
X59444206Y-9498081D01*
X59285682Y-9417308D01*
X59116480Y-9362332D01*
X59028618Y-9348416D01*
X58940757Y-9334500D01*
X58762843Y-9334500D01*
X58704269Y-9343777D01*
X58587119Y-9362332D01*
X58417917Y-9417308D01*
X58259391Y-9498082D01*
X58254073Y-9501946D01*
X58227315Y-9511490D01*
X58201760Y-9523906D01*
X58194833Y-9523077D01*
X58188265Y-9525421D01*
X58160597Y-9518985D01*
X58132384Y-9515613D01*
X58127005Y-9511172D01*
X58120212Y-9509592D01*
X58100415Y-9489218D01*
X58078505Y-9471129D01*
X58076380Y-9464484D01*
X58071521Y-9459483D01*
X58065881Y-9431643D01*
X58057229Y-9404577D01*
X58058405Y-9394734D01*
X58057650Y-9391004D01*
X58061416Y-9369539D01*
X58070805Y-9334501D01*
X58090300Y-9261745D01*
X58090300Y-9007711D01*
X58109985Y-8940672D01*
X58162789Y-8894917D01*
X58231947Y-8884973D01*
X58270593Y-8897225D01*
X58402010Y-8964186D01*
X58417917Y-8972291D01*
X58453105Y-8983724D01*
X58587121Y-9027268D01*
X58762843Y-9055100D01*
X58762844Y-9055100D01*
X58940756Y-9055100D01*
X58940757Y-9055100D01*
X59116479Y-9027268D01*
X59285685Y-8972290D01*
X59444206Y-8891519D01*
X59588141Y-8786944D01*
X59713944Y-8661141D01*
X59818519Y-8517206D01*
X59899290Y-8358685D01*
X59954268Y-8189479D01*
X59982100Y-8013757D01*
X59982100Y-7839881D01*
X60312800Y-7839881D01*
X60312800Y-8009718D01*
X60339368Y-8177466D01*
X60391853Y-8338996D01*
X60438007Y-8429577D01*
X60847839Y-8019747D01*
X60879282Y-8137092D01*
X60951690Y-8262508D01*
X61054092Y-8364910D01*
X61179508Y-8437318D01*
X61296851Y-8468760D01*
X60887020Y-8878590D01*
X60977609Y-8924747D01*
X61139133Y-8977231D01*
X61306882Y-9003800D01*
X61476718Y-9003800D01*
X61644466Y-8977231D01*
X61805993Y-8924746D01*
X61805997Y-8924745D01*
X61896578Y-8878590D01*
X61486749Y-8468760D01*
X61604092Y-8437318D01*
X61729508Y-8364910D01*
X61831910Y-8262508D01*
X61904318Y-8137092D01*
X61935760Y-8019748D01*
X62345590Y-8429578D01*
X62391745Y-8338997D01*
X62391746Y-8338993D01*
X62444231Y-8177466D01*
X62470800Y-8009718D01*
X62470800Y-7839881D01*
X62444231Y-7672133D01*
X62391747Y-7510609D01*
X62345590Y-7420020D01*
X61935760Y-7829850D01*
X61904318Y-7712508D01*
X61831910Y-7587092D01*
X61729508Y-7484690D01*
X61604092Y-7412282D01*
X61486748Y-7380839D01*
X61896578Y-6971008D01*
X61805996Y-6924853D01*
X61644466Y-6872368D01*
X61476718Y-6845800D01*
X61306882Y-6845800D01*
X61139132Y-6872369D01*
X61139129Y-6872369D01*
X60977610Y-6924850D01*
X60887021Y-6971008D01*
X61296852Y-7380839D01*
X61179508Y-7412282D01*
X61054092Y-7484690D01*
X60951690Y-7587092D01*
X60879282Y-7712508D01*
X60847839Y-7829852D01*
X60438008Y-7420021D01*
X60391850Y-7510610D01*
X60339369Y-7672129D01*
X60339369Y-7672132D01*
X60312800Y-7839881D01*
X59982100Y-7839881D01*
X59982100Y-7835843D01*
X59954268Y-7660121D01*
X59923779Y-7566285D01*
X59899291Y-7490917D01*
X59834797Y-7364341D01*
X59818519Y-7332394D01*
X59713944Y-7188459D01*
X59588141Y-7062656D01*
X59444206Y-6958081D01*
X59433013Y-6952378D01*
X59285682Y-6877308D01*
X59116480Y-6822332D01*
X58992434Y-6802685D01*
X58940757Y-6794500D01*
X58762843Y-6794500D01*
X58711166Y-6802685D01*
X58587119Y-6822332D01*
X58417917Y-6877308D01*
X58270595Y-6952373D01*
X58201926Y-6965269D01*
X58137185Y-6938993D01*
X58096928Y-6881886D01*
X58090300Y-6841888D01*
X58090300Y-5646790D01*
X58109985Y-5579751D01*
X58126619Y-5559109D01*
X60270709Y-3415019D01*
X60332032Y-3381534D01*
X60358390Y-3378700D01*
X69070340Y-3378700D01*
X69075589Y-3380241D01*
X69080952Y-3379155D01*
X69108754Y-3389979D01*
X69137379Y-3398385D01*
X69142314Y-3403046D01*
X69146061Y-3404505D01*
X69170659Y-3429815D01*
X69261523Y-3554880D01*
X69285002Y-3620687D01*
X69269176Y-3688740D01*
X69219070Y-3737435D01*
X69211291Y-3741199D01*
X69128474Y-3777766D01*
X69047766Y-3858474D01*
X69001662Y-3962888D01*
X69001662Y-3962890D01*
X68998700Y-3988419D01*
X68998700Y-5679571D01*
X68998702Y-5679594D01*
X69001661Y-5705106D01*
X69001662Y-5705109D01*
X69047765Y-5809524D01*
X69047766Y-5809525D01*
X69128475Y-5890234D01*
X69232891Y-5936338D01*
X69258421Y-5939300D01*
X69471500Y-5939299D01*
X69538539Y-5958983D01*
X69584294Y-6011787D01*
X69595500Y-6063299D01*
X69595500Y-12043290D01*
X69575815Y-12110329D01*
X69540392Y-12146391D01*
X69462361Y-12198530D01*
X69462355Y-12198535D01*
X69322335Y-12338555D01*
X69322332Y-12338559D01*
X69212318Y-12503205D01*
X69212313Y-12503214D01*
X69136533Y-12686164D01*
X69136531Y-12686172D01*
X69097900Y-12880382D01*
X69097900Y-13078417D01*
X69136531Y-13272627D01*
X69136533Y-13272635D01*
X69212313Y-13455585D01*
X69212318Y-13455594D01*
X69322332Y-13620240D01*
X69322335Y-13620244D01*
X69462355Y-13760264D01*
X69462359Y-13760267D01*
X69627005Y-13870281D01*
X69627011Y-13870284D01*
X69627012Y-13870285D01*
X69809965Y-13946067D01*
X70004182Y-13984699D01*
X70004186Y-13984700D01*
X70004187Y-13984700D01*
X70202214Y-13984700D01*
X70202215Y-13984699D01*
X70396435Y-13946067D01*
X70579388Y-13870285D01*
X70744041Y-13760267D01*
X70884067Y-13620241D01*
X70994085Y-13455588D01*
X71069867Y-13272635D01*
X71108500Y-13078413D01*
X71108500Y-12880387D01*
X71108499Y-12880382D01*
X71637900Y-12880382D01*
X71637900Y-13078417D01*
X71676531Y-13272627D01*
X71676533Y-13272635D01*
X71752313Y-13455585D01*
X71752318Y-13455594D01*
X71862332Y-13620240D01*
X71862335Y-13620244D01*
X72002355Y-13760264D01*
X72002359Y-13760267D01*
X72167005Y-13870281D01*
X72167011Y-13870284D01*
X72167012Y-13870285D01*
X72349965Y-13946067D01*
X72544182Y-13984699D01*
X72544186Y-13984700D01*
X72544187Y-13984700D01*
X72742214Y-13984700D01*
X72742215Y-13984699D01*
X72936435Y-13946067D01*
X73119388Y-13870285D01*
X73284041Y-13760267D01*
X73424067Y-13620241D01*
X73534085Y-13455588D01*
X73609867Y-13272635D01*
X73648500Y-13078413D01*
X73648500Y-12880387D01*
X73609867Y-12686165D01*
X73534085Y-12503212D01*
X73534084Y-12503211D01*
X73534081Y-12503205D01*
X73424067Y-12338559D01*
X73424064Y-12338555D01*
X73284044Y-12198535D01*
X73284040Y-12198532D01*
X73119394Y-12088518D01*
X73119385Y-12088513D01*
X72936435Y-12012733D01*
X72936427Y-12012731D01*
X72742217Y-11974100D01*
X72742213Y-11974100D01*
X72544187Y-11974100D01*
X72544182Y-11974100D01*
X72349972Y-12012731D01*
X72349964Y-12012733D01*
X72167014Y-12088513D01*
X72167005Y-12088518D01*
X72002359Y-12198532D01*
X72002355Y-12198535D01*
X71862335Y-12338555D01*
X71862332Y-12338559D01*
X71752318Y-12503205D01*
X71752313Y-12503214D01*
X71676533Y-12686164D01*
X71676531Y-12686172D01*
X71637900Y-12880382D01*
X71108499Y-12880382D01*
X71069867Y-12686165D01*
X70994085Y-12503212D01*
X70994084Y-12503211D01*
X70994081Y-12503205D01*
X70884067Y-12338559D01*
X70884064Y-12338555D01*
X70744044Y-12198535D01*
X70744038Y-12198530D01*
X70667608Y-12147460D01*
X70622804Y-12093848D01*
X70612500Y-12044359D01*
X70612500Y-6063299D01*
X70632185Y-5996260D01*
X70684989Y-5950505D01*
X70736500Y-5939299D01*
X70949572Y-5939299D01*
X70949578Y-5939299D01*
X70975109Y-5936338D01*
X71079525Y-5890234D01*
X71160234Y-5809525D01*
X71206338Y-5705109D01*
X71209300Y-5679579D01*
X71209299Y-3988422D01*
X71206338Y-3962891D01*
X71160234Y-3858475D01*
X71079525Y-3777766D01*
X71067171Y-3772311D01*
X70996708Y-3741198D01*
X70943332Y-3696111D01*
X70922805Y-3629325D01*
X70941644Y-3562043D01*
X70946477Y-3554878D01*
X70947072Y-3554058D01*
X70947076Y-3554055D01*
X71049337Y-3413304D01*
X71128322Y-3258288D01*
X71182084Y-3092825D01*
X71190107Y-3042168D01*
X71209300Y-2920994D01*
X71209300Y-2747005D01*
X71182084Y-2575174D01*
X71157528Y-2499599D01*
X71128322Y-2409712D01*
X71049337Y-2254696D01*
X71002438Y-2190145D01*
X70947081Y-2113951D01*
X70947077Y-2113946D01*
X70824053Y-1990922D01*
X70824048Y-1990918D01*
X70683307Y-1888665D01*
X70683306Y-1888664D01*
X70683304Y-1888663D01*
X70528288Y-1809678D01*
X70485376Y-1795735D01*
X70362825Y-1755915D01*
X70190994Y-1728700D01*
X70190989Y-1728700D01*
X70017011Y-1728700D01*
X70017006Y-1728700D01*
X69845174Y-1755915D01*
X69679709Y-1809679D01*
X69524692Y-1888665D01*
X69383951Y-1990918D01*
X69383946Y-1990922D01*
X69260922Y-2113946D01*
X69260918Y-2113951D01*
X69158662Y-2254696D01*
X69158661Y-2254697D01*
X69138638Y-2293995D01*
X69090664Y-2344791D01*
X69028154Y-2361700D01*
X60029455Y-2361700D01*
X59900124Y-2396353D01*
X59784173Y-2463299D01*
X59784170Y-2463301D01*
X57174901Y-5072570D01*
X57174899Y-5072573D01*
X57145569Y-5123374D01*
X57107953Y-5188524D01*
X57073300Y-5317855D01*
X57073300Y-6841888D01*
X57072526Y-6844521D01*
X57073187Y-6847186D01*
X57062738Y-6877857D01*
X57053615Y-6908927D01*
X57051541Y-6910723D01*
X57050656Y-6913323D01*
X57025283Y-6933476D01*
X57000811Y-6954682D01*
X56998094Y-6955072D01*
X56995945Y-6956780D01*
X56963713Y-6960016D01*
X56931653Y-6964626D01*
X56928320Y-6963569D01*
X56926425Y-6963760D01*
X56893016Y-6952378D01*
X56888016Y-6949831D01*
X56837215Y-6901862D01*
X56820300Y-6839341D01*
X56820300Y-4046589D01*
X56839985Y-3979550D01*
X56856619Y-3958908D01*
X59483308Y-1332219D01*
X59544631Y-1298734D01*
X59570989Y-1295900D01*
X76448343Y-1295900D01*
X76515382Y-1315585D01*
X76536024Y-1332219D01*
X77649673Y-2445868D01*
X77683158Y-2507191D01*
X77679927Y-2571856D01*
X77678849Y-2575174D01*
X77651633Y-2747005D01*
X77651633Y-2920994D01*
X77678848Y-3092825D01*
X77732612Y-3258290D01*
X77811595Y-3413303D01*
X77914456Y-3554880D01*
X77937935Y-3620687D01*
X77922109Y-3688741D01*
X77872003Y-3737435D01*
X77864224Y-3741199D01*
X77781407Y-3777766D01*
X77700699Y-3858474D01*
X77654595Y-3962888D01*
X77654595Y-3962890D01*
X77651633Y-3988419D01*
X77651633Y-5679571D01*
X77651635Y-5679594D01*
X77654594Y-5705106D01*
X77654595Y-5705109D01*
X77700698Y-5809524D01*
X77700699Y-5809525D01*
X77781408Y-5890234D01*
X77885824Y-5936338D01*
X77911354Y-5939300D01*
X78124433Y-5939299D01*
X78191472Y-5958983D01*
X78237227Y-6011787D01*
X78248433Y-6063299D01*
X78248433Y-12043290D01*
X78228748Y-12110329D01*
X78193325Y-12146391D01*
X78115294Y-12198530D01*
X78115288Y-12198535D01*
X77975268Y-12338555D01*
X77975265Y-12338559D01*
X77865251Y-12503205D01*
X77865246Y-12503214D01*
X77789466Y-12686164D01*
X77789464Y-12686172D01*
X77750833Y-12880382D01*
X77750833Y-13078417D01*
X77789464Y-13272627D01*
X77789466Y-13272635D01*
X77865246Y-13455585D01*
X77865251Y-13455594D01*
X77975265Y-13620240D01*
X77975268Y-13620244D01*
X78115288Y-13760264D01*
X78115292Y-13760267D01*
X78279938Y-13870281D01*
X78279944Y-13870284D01*
X78279945Y-13870285D01*
X78462898Y-13946067D01*
X78657115Y-13984699D01*
X78657119Y-13984700D01*
X78657120Y-13984700D01*
X78855147Y-13984700D01*
X78855148Y-13984699D01*
X79049368Y-13946067D01*
X79232321Y-13870285D01*
X79396974Y-13760267D01*
X79537000Y-13620241D01*
X79647018Y-13455588D01*
X79722800Y-13272635D01*
X79761433Y-13078413D01*
X79761433Y-12880387D01*
X79761432Y-12880382D01*
X80290833Y-12880382D01*
X80290833Y-13078417D01*
X80329464Y-13272627D01*
X80329466Y-13272635D01*
X80405246Y-13455585D01*
X80405251Y-13455594D01*
X80515265Y-13620240D01*
X80515268Y-13620244D01*
X80655288Y-13760264D01*
X80655292Y-13760267D01*
X80819938Y-13870281D01*
X80819944Y-13870284D01*
X80819945Y-13870285D01*
X81002898Y-13946067D01*
X81197115Y-13984699D01*
X81197119Y-13984700D01*
X81197120Y-13984700D01*
X81395147Y-13984700D01*
X81395148Y-13984699D01*
X81589368Y-13946067D01*
X81772321Y-13870285D01*
X81936974Y-13760267D01*
X82077000Y-13620241D01*
X82187018Y-13455588D01*
X82262800Y-13272635D01*
X82301433Y-13078413D01*
X82301433Y-12880387D01*
X82262800Y-12686165D01*
X82187018Y-12503212D01*
X82187017Y-12503211D01*
X82187014Y-12503205D01*
X82077000Y-12338559D01*
X82076997Y-12338555D01*
X81936977Y-12198535D01*
X81936973Y-12198532D01*
X81772327Y-12088518D01*
X81772318Y-12088513D01*
X81589368Y-12012733D01*
X81589360Y-12012731D01*
X81395150Y-11974100D01*
X81395146Y-11974100D01*
X81197120Y-11974100D01*
X81197115Y-11974100D01*
X81002905Y-12012731D01*
X81002897Y-12012733D01*
X80819947Y-12088513D01*
X80819938Y-12088518D01*
X80655292Y-12198532D01*
X80655288Y-12198535D01*
X80515268Y-12338555D01*
X80515265Y-12338559D01*
X80405251Y-12503205D01*
X80405246Y-12503214D01*
X80329466Y-12686164D01*
X80329464Y-12686172D01*
X80290833Y-12880382D01*
X79761432Y-12880382D01*
X79722800Y-12686165D01*
X79647018Y-12503212D01*
X79647017Y-12503211D01*
X79647014Y-12503205D01*
X79537000Y-12338559D01*
X79536997Y-12338555D01*
X79396977Y-12198535D01*
X79396971Y-12198530D01*
X79320541Y-12147460D01*
X79275737Y-12093848D01*
X79265433Y-12044359D01*
X79265433Y-6063299D01*
X79285118Y-5996260D01*
X79337922Y-5950505D01*
X79389433Y-5939299D01*
X79602505Y-5939299D01*
X79602511Y-5939299D01*
X79628042Y-5936338D01*
X79732458Y-5890234D01*
X79813167Y-5809525D01*
X79859271Y-5705109D01*
X79862233Y-5679579D01*
X79862232Y-3988422D01*
X79859271Y-3962891D01*
X79813167Y-3858475D01*
X79732458Y-3777766D01*
X79720104Y-3772311D01*
X79649641Y-3741198D01*
X79596265Y-3696111D01*
X79575738Y-3629325D01*
X79594577Y-3562043D01*
X79599410Y-3554878D01*
X79600005Y-3554058D01*
X79600009Y-3554055D01*
X79702270Y-3413304D01*
X79781255Y-3258288D01*
X79835017Y-3092825D01*
X79843040Y-3042168D01*
X79862233Y-2920994D01*
X79862233Y-2747005D01*
X86304566Y-2747005D01*
X86304566Y-2920994D01*
X86331781Y-3092825D01*
X86385545Y-3258290D01*
X86464528Y-3413303D01*
X86567389Y-3554880D01*
X86590868Y-3620687D01*
X86575042Y-3688741D01*
X86524936Y-3737435D01*
X86517157Y-3741199D01*
X86434340Y-3777766D01*
X86353632Y-3858474D01*
X86307528Y-3962888D01*
X86307528Y-3962890D01*
X86304566Y-3988419D01*
X86304566Y-5679571D01*
X86304568Y-5679594D01*
X86307527Y-5705106D01*
X86307528Y-5705109D01*
X86353631Y-5809524D01*
X86353632Y-5809525D01*
X86434341Y-5890234D01*
X86538757Y-5936338D01*
X86564287Y-5939300D01*
X86777366Y-5939299D01*
X86844405Y-5958983D01*
X86890160Y-6011787D01*
X86901366Y-6063299D01*
X86901366Y-12043290D01*
X86881681Y-12110329D01*
X86846258Y-12146391D01*
X86768227Y-12198530D01*
X86768221Y-12198535D01*
X86628201Y-12338555D01*
X86628198Y-12338559D01*
X86518184Y-12503205D01*
X86518179Y-12503214D01*
X86442399Y-12686164D01*
X86442397Y-12686172D01*
X86403766Y-12880382D01*
X86403766Y-13078417D01*
X86442397Y-13272627D01*
X86442399Y-13272635D01*
X86518179Y-13455585D01*
X86518184Y-13455594D01*
X86628198Y-13620240D01*
X86628201Y-13620244D01*
X86768221Y-13760264D01*
X86768225Y-13760267D01*
X86932871Y-13870281D01*
X86932877Y-13870284D01*
X86932878Y-13870285D01*
X87115831Y-13946067D01*
X87310048Y-13984699D01*
X87310052Y-13984700D01*
X87310053Y-13984700D01*
X87508080Y-13984700D01*
X87508081Y-13984699D01*
X87702301Y-13946067D01*
X87885254Y-13870285D01*
X88049907Y-13760267D01*
X88189933Y-13620241D01*
X88299951Y-13455588D01*
X88375733Y-13272635D01*
X88414366Y-13078413D01*
X88414366Y-12880387D01*
X88414365Y-12880382D01*
X88943766Y-12880382D01*
X88943766Y-13078417D01*
X88982397Y-13272627D01*
X88982399Y-13272635D01*
X89058179Y-13455585D01*
X89058184Y-13455594D01*
X89168198Y-13620240D01*
X89168201Y-13620244D01*
X89308221Y-13760264D01*
X89308225Y-13760267D01*
X89472871Y-13870281D01*
X89472877Y-13870284D01*
X89472878Y-13870285D01*
X89655831Y-13946067D01*
X89850048Y-13984699D01*
X89850052Y-13984700D01*
X89850053Y-13984700D01*
X90048080Y-13984700D01*
X90048081Y-13984699D01*
X90242301Y-13946067D01*
X90425254Y-13870285D01*
X90589907Y-13760267D01*
X90729933Y-13620241D01*
X90839951Y-13455588D01*
X90915733Y-13272635D01*
X90954366Y-13078413D01*
X90954366Y-12880387D01*
X90915733Y-12686165D01*
X90839951Y-12503212D01*
X90839950Y-12503211D01*
X90839947Y-12503205D01*
X90729933Y-12338559D01*
X90729930Y-12338555D01*
X90589910Y-12198535D01*
X90589906Y-12198532D01*
X90425260Y-12088518D01*
X90425251Y-12088513D01*
X90242301Y-12012733D01*
X90242293Y-12012731D01*
X90048083Y-11974100D01*
X90048079Y-11974100D01*
X89850053Y-11974100D01*
X89850048Y-11974100D01*
X89655838Y-12012731D01*
X89655830Y-12012733D01*
X89472880Y-12088513D01*
X89472871Y-12088518D01*
X89308225Y-12198532D01*
X89308221Y-12198535D01*
X89168201Y-12338555D01*
X89168198Y-12338559D01*
X89058184Y-12503205D01*
X89058179Y-12503214D01*
X88982399Y-12686164D01*
X88982397Y-12686172D01*
X88943766Y-12880382D01*
X88414365Y-12880382D01*
X88375733Y-12686165D01*
X88299951Y-12503212D01*
X88299950Y-12503211D01*
X88299947Y-12503205D01*
X88189933Y-12338559D01*
X88189930Y-12338555D01*
X88049910Y-12198535D01*
X88049904Y-12198530D01*
X87973474Y-12147460D01*
X87928670Y-12093848D01*
X87918366Y-12044359D01*
X87918366Y-6063299D01*
X87938051Y-5996260D01*
X87990855Y-5950505D01*
X88042366Y-5939299D01*
X88255438Y-5939299D01*
X88255444Y-5939299D01*
X88280975Y-5936338D01*
X88385391Y-5890234D01*
X88466100Y-5809525D01*
X88512204Y-5705109D01*
X88515166Y-5679579D01*
X88515165Y-3988422D01*
X88512204Y-3962891D01*
X88466100Y-3858475D01*
X88385391Y-3777766D01*
X88373037Y-3772311D01*
X88302574Y-3741198D01*
X88249198Y-3696111D01*
X88228671Y-3629325D01*
X88247510Y-3562043D01*
X88252343Y-3554878D01*
X88252938Y-3554058D01*
X88252942Y-3554055D01*
X88355203Y-3413304D01*
X88434188Y-3258288D01*
X88487950Y-3092825D01*
X88495973Y-3042168D01*
X88515166Y-2920994D01*
X88515166Y-2747005D01*
X94957500Y-2747005D01*
X94957500Y-2920994D01*
X94984715Y-3092825D01*
X95038479Y-3258290D01*
X95117462Y-3413303D01*
X95220323Y-3554880D01*
X95243802Y-3620687D01*
X95227976Y-3688741D01*
X95177870Y-3737435D01*
X95170091Y-3741199D01*
X95087274Y-3777766D01*
X95006566Y-3858474D01*
X94960462Y-3962888D01*
X94960462Y-3962890D01*
X94957500Y-3988419D01*
X94957500Y-5679571D01*
X94957502Y-5679594D01*
X94960461Y-5705106D01*
X94960462Y-5705109D01*
X95006565Y-5809524D01*
X95006566Y-5809525D01*
X95087275Y-5890234D01*
X95191691Y-5936338D01*
X95217221Y-5939300D01*
X95430300Y-5939299D01*
X95497339Y-5958983D01*
X95543094Y-6011787D01*
X95554300Y-6063299D01*
X95554300Y-12043290D01*
X95534615Y-12110329D01*
X95499192Y-12146391D01*
X95421161Y-12198530D01*
X95421155Y-12198535D01*
X95281135Y-12338555D01*
X95281132Y-12338559D01*
X95171118Y-12503205D01*
X95171113Y-12503214D01*
X95095333Y-12686164D01*
X95095331Y-12686172D01*
X95056700Y-12880382D01*
X95056700Y-13078417D01*
X95095331Y-13272627D01*
X95095333Y-13272635D01*
X95171113Y-13455585D01*
X95171118Y-13455594D01*
X95281132Y-13620240D01*
X95281135Y-13620244D01*
X95421155Y-13760264D01*
X95421159Y-13760267D01*
X95585805Y-13870281D01*
X95585811Y-13870284D01*
X95585812Y-13870285D01*
X95768765Y-13946067D01*
X95962982Y-13984699D01*
X95962986Y-13984700D01*
X95962987Y-13984700D01*
X96161014Y-13984700D01*
X96161015Y-13984699D01*
X96355235Y-13946067D01*
X96538188Y-13870285D01*
X96702841Y-13760267D01*
X96842867Y-13620241D01*
X96952885Y-13455588D01*
X97028667Y-13272635D01*
X97067300Y-13078413D01*
X97067300Y-12880387D01*
X97067299Y-12880382D01*
X97596700Y-12880382D01*
X97596700Y-13078417D01*
X97635331Y-13272627D01*
X97635333Y-13272635D01*
X97711113Y-13455585D01*
X97711118Y-13455594D01*
X97821132Y-13620240D01*
X97821135Y-13620244D01*
X97961155Y-13760264D01*
X97961159Y-13760267D01*
X98125805Y-13870281D01*
X98125811Y-13870284D01*
X98125812Y-13870285D01*
X98308765Y-13946067D01*
X98502982Y-13984699D01*
X98502986Y-13984700D01*
X98502987Y-13984700D01*
X98701014Y-13984700D01*
X98701015Y-13984699D01*
X98895235Y-13946067D01*
X99078188Y-13870285D01*
X99242841Y-13760267D01*
X99382867Y-13620241D01*
X99492885Y-13455588D01*
X99568667Y-13272635D01*
X99607300Y-13078413D01*
X99607300Y-12880387D01*
X99568667Y-12686165D01*
X99492885Y-12503212D01*
X99492884Y-12503211D01*
X99492881Y-12503205D01*
X99382867Y-12338559D01*
X99382864Y-12338555D01*
X99242844Y-12198535D01*
X99242840Y-12198532D01*
X99104867Y-12106341D01*
X99078193Y-12088518D01*
X99078185Y-12088513D01*
X98895235Y-12012733D01*
X98895227Y-12012731D01*
X98865506Y-12006819D01*
X104101500Y-12006819D01*
X104101500Y-13697971D01*
X104101502Y-13697994D01*
X104104461Y-13723506D01*
X104104462Y-13723509D01*
X104150565Y-13827924D01*
X104150566Y-13827925D01*
X104231275Y-13908634D01*
X104335691Y-13954738D01*
X104361221Y-13957700D01*
X106052378Y-13957699D01*
X106077909Y-13954738D01*
X106182325Y-13908634D01*
X106263034Y-13827925D01*
X106309138Y-13723509D01*
X106312100Y-13697979D01*
X106312099Y-12006822D01*
X106309138Y-11981291D01*
X106263034Y-11876875D01*
X106182325Y-11796166D01*
X106182323Y-11796165D01*
X106077910Y-11750062D01*
X106052380Y-11747100D01*
X105703849Y-11747100D01*
X105636810Y-11727415D01*
X105616168Y-11710781D01*
X105206801Y-11301412D01*
X105206800Y-11301412D01*
X104797430Y-11710781D01*
X104736107Y-11744266D01*
X104709749Y-11747100D01*
X104361228Y-11747100D01*
X104361205Y-11747102D01*
X104335693Y-11750061D01*
X104335690Y-11750062D01*
X104231275Y-11796165D01*
X104150566Y-11876874D01*
X104104462Y-11981288D01*
X104104462Y-11981290D01*
X104101500Y-12006819D01*
X98865506Y-12006819D01*
X98701017Y-11974100D01*
X98701013Y-11974100D01*
X98502987Y-11974100D01*
X98502982Y-11974100D01*
X98308772Y-12012731D01*
X98308764Y-12012733D01*
X98125814Y-12088513D01*
X98125805Y-12088518D01*
X97961159Y-12198532D01*
X97961155Y-12198535D01*
X97821135Y-12338555D01*
X97821132Y-12338559D01*
X97711118Y-12503205D01*
X97711113Y-12503214D01*
X97635333Y-12686164D01*
X97635331Y-12686172D01*
X97596700Y-12880382D01*
X97067299Y-12880382D01*
X97028667Y-12686165D01*
X96952885Y-12503212D01*
X96952884Y-12503211D01*
X96952881Y-12503205D01*
X96842867Y-12338559D01*
X96842864Y-12338555D01*
X96702844Y-12198535D01*
X96702838Y-12198530D01*
X96626408Y-12147460D01*
X96581604Y-12093848D01*
X96571300Y-12044359D01*
X96571300Y-10748585D01*
X104152800Y-10748585D01*
X104152800Y-10956214D01*
X104193302Y-11159833D01*
X104193304Y-11159841D01*
X104268590Y-11341596D01*
X104757787Y-10852400D01*
X104757787Y-10852399D01*
X104705127Y-10799739D01*
X104806800Y-10799739D01*
X104806800Y-10905061D01*
X104834059Y-11006794D01*
X104886720Y-11098006D01*
X104961194Y-11172480D01*
X105052406Y-11225141D01*
X105154139Y-11252400D01*
X105259461Y-11252400D01*
X105361194Y-11225141D01*
X105452406Y-11172480D01*
X105526880Y-11098006D01*
X105579541Y-11006794D01*
X105606800Y-10905061D01*
X105606800Y-10852399D01*
X105655812Y-10852399D01*
X105655812Y-10852400D01*
X106145008Y-11341596D01*
X106220296Y-11159837D01*
X106220297Y-11159833D01*
X106260799Y-10956214D01*
X106260800Y-10956211D01*
X106260800Y-10748589D01*
X106260799Y-10748585D01*
X106220297Y-10544966D01*
X106220295Y-10544958D01*
X106145008Y-10363202D01*
X105655812Y-10852399D01*
X105606800Y-10852399D01*
X105606800Y-10799739D01*
X105579541Y-10698006D01*
X105526880Y-10606794D01*
X105452406Y-10532320D01*
X105361194Y-10479659D01*
X105259461Y-10452400D01*
X105154139Y-10452400D01*
X105052406Y-10479659D01*
X104961194Y-10532320D01*
X104886720Y-10606794D01*
X104834059Y-10698006D01*
X104806800Y-10799739D01*
X104705127Y-10799739D01*
X104268590Y-10363202D01*
X104193304Y-10544958D01*
X104193302Y-10544966D01*
X104152800Y-10748585D01*
X96571300Y-10748585D01*
X96571300Y-9914190D01*
X104717602Y-9914190D01*
X105206800Y-10403387D01*
X105206801Y-10403387D01*
X105695996Y-9914190D01*
X105514241Y-9838904D01*
X105514233Y-9838902D01*
X105310614Y-9798400D01*
X105102985Y-9798400D01*
X104899366Y-9838902D01*
X104899358Y-9838904D01*
X104717602Y-9914190D01*
X96571300Y-9914190D01*
X96571300Y-6063299D01*
X96590985Y-5996260D01*
X96643789Y-5950505D01*
X96695300Y-5939299D01*
X96908372Y-5939299D01*
X96908378Y-5939299D01*
X96933909Y-5936338D01*
X97038325Y-5890234D01*
X97119034Y-5809525D01*
X97165138Y-5705109D01*
X97168100Y-5679579D01*
X97168099Y-3988422D01*
X97165138Y-3962891D01*
X97119034Y-3858475D01*
X97038325Y-3777766D01*
X97025971Y-3772311D01*
X96955508Y-3741198D01*
X96902132Y-3696111D01*
X96881605Y-3629325D01*
X96900444Y-3562043D01*
X96905277Y-3554878D01*
X96905872Y-3554058D01*
X96905876Y-3554055D01*
X97008137Y-3413304D01*
X97087122Y-3258288D01*
X97140884Y-3092825D01*
X97148907Y-3042168D01*
X97168100Y-2920994D01*
X97168100Y-2747005D01*
X97140884Y-2575174D01*
X97116328Y-2499599D01*
X97087122Y-2409712D01*
X97008137Y-2254696D01*
X96961238Y-2190145D01*
X96905881Y-2113951D01*
X96905877Y-2113946D01*
X96782853Y-1990922D01*
X96782848Y-1990918D01*
X96642107Y-1888665D01*
X96642106Y-1888664D01*
X96642104Y-1888663D01*
X96487088Y-1809678D01*
X96444176Y-1795735D01*
X96321625Y-1755915D01*
X96149794Y-1728700D01*
X96149789Y-1728700D01*
X95975811Y-1728700D01*
X95975806Y-1728700D01*
X95803974Y-1755915D01*
X95638509Y-1809679D01*
X95483492Y-1888665D01*
X95342751Y-1990918D01*
X95342746Y-1990922D01*
X95219722Y-2113946D01*
X95219718Y-2113951D01*
X95117465Y-2254692D01*
X95038479Y-2409709D01*
X94984715Y-2575174D01*
X94957500Y-2747005D01*
X88515166Y-2747005D01*
X88487950Y-2575174D01*
X88463394Y-2499599D01*
X88434188Y-2409712D01*
X88355203Y-2254696D01*
X88308304Y-2190145D01*
X88252947Y-2113951D01*
X88252943Y-2113946D01*
X88129919Y-1990922D01*
X88129914Y-1990918D01*
X87989173Y-1888665D01*
X87989172Y-1888664D01*
X87989170Y-1888663D01*
X87834154Y-1809678D01*
X87791242Y-1795735D01*
X87668691Y-1755915D01*
X87496860Y-1728700D01*
X87496855Y-1728700D01*
X87322877Y-1728700D01*
X87322872Y-1728700D01*
X87151040Y-1755915D01*
X86985575Y-1809679D01*
X86830558Y-1888665D01*
X86689817Y-1990918D01*
X86689812Y-1990922D01*
X86566788Y-2113946D01*
X86566784Y-2113951D01*
X86464531Y-2254692D01*
X86385545Y-2409709D01*
X86331781Y-2575174D01*
X86304566Y-2747005D01*
X79862233Y-2747005D01*
X79835017Y-2575174D01*
X79810461Y-2499599D01*
X79781255Y-2409712D01*
X79702270Y-2254696D01*
X79655371Y-2190145D01*
X79600014Y-2113951D01*
X79600010Y-2113946D01*
X79476986Y-1990922D01*
X79476981Y-1990918D01*
X79336240Y-1888665D01*
X79336239Y-1888664D01*
X79336237Y-1888663D01*
X79181221Y-1809678D01*
X79138309Y-1795735D01*
X79015758Y-1755915D01*
X78843927Y-1728700D01*
X78843922Y-1728700D01*
X78669944Y-1728700D01*
X78669939Y-1728700D01*
X78498107Y-1755916D01*
X78494789Y-1756994D01*
X78493458Y-1757031D01*
X78493366Y-1757054D01*
X78493361Y-1757034D01*
X78424947Y-1758982D01*
X78368801Y-1726740D01*
X77354242Y-712181D01*
X77320757Y-650858D01*
X77325741Y-581166D01*
X77367613Y-525233D01*
X77433077Y-500816D01*
X77441923Y-500500D01*
X104128283Y-500500D01*
X104195322Y-520185D01*
X104241077Y-572989D01*
X104251021Y-642147D01*
X104221996Y-705703D01*
X104164279Y-743160D01*
X104134174Y-752292D01*
X103790810Y-894518D01*
X103790805Y-894520D01*
X103463061Y-1069703D01*
X103463043Y-1069714D01*
X103154045Y-1276180D01*
X103154031Y-1276190D01*
X102866744Y-1511960D01*
X102603960Y-1774744D01*
X102368190Y-2062031D01*
X102368180Y-2062045D01*
X102161714Y-2371043D01*
X102161703Y-2371061D01*
X101986520Y-2698805D01*
X101986518Y-2698810D01*
X101844294Y-3042168D01*
X101736411Y-3397811D01*
X101736408Y-3397822D01*
X101663904Y-3762319D01*
X101627478Y-4132180D01*
X101627478Y-4503819D01*
X101663904Y-4873680D01*
X101729750Y-5204704D01*
X101736410Y-5238186D01*
X101772121Y-5355909D01*
X101844294Y-5593831D01*
X101921949Y-5781306D01*
X101986165Y-5936338D01*
X101986518Y-5937189D01*
X101986520Y-5937194D01*
X102161703Y-6264938D01*
X102161714Y-6264956D01*
X102368180Y-6573954D01*
X102368190Y-6573968D01*
X102603960Y-6861255D01*
X102866744Y-7124039D01*
X102866749Y-7124043D01*
X102866750Y-7124044D01*
X103154037Y-7359814D01*
X103463050Y-7566290D01*
X103463059Y-7566295D01*
X103463061Y-7566296D01*
X103790805Y-7741479D01*
X103790807Y-7741479D01*
X103790813Y-7741483D01*
X104134170Y-7883706D01*
X104489814Y-7991590D01*
X104854319Y-8064095D01*
X105224177Y-8100522D01*
X105224180Y-8100522D01*
X105595820Y-8100522D01*
X105595823Y-8100522D01*
X105965681Y-8064095D01*
X106330186Y-7991590D01*
X106685830Y-7883706D01*
X107029187Y-7741483D01*
X107356950Y-7566290D01*
X107665963Y-7359814D01*
X107953250Y-7124044D01*
X108216044Y-6861250D01*
X108451814Y-6573963D01*
X108658290Y-6264950D01*
X108833483Y-5937187D01*
X108975706Y-5593830D01*
X109083590Y-5238186D01*
X109156095Y-4873681D01*
X109192522Y-4503823D01*
X109192522Y-4132177D01*
X109156095Y-3762319D01*
X109083590Y-3397814D01*
X108975706Y-3042170D01*
X108833483Y-2698813D01*
X108808126Y-2651374D01*
X108658296Y-2371061D01*
X108658295Y-2371059D01*
X108658290Y-2371050D01*
X108451814Y-2062037D01*
X108216044Y-1774750D01*
X108216043Y-1774749D01*
X108216039Y-1774744D01*
X107953255Y-1511960D01*
X107665968Y-1276190D01*
X107665967Y-1276189D01*
X107665963Y-1276186D01*
X107356950Y-1069710D01*
X107356945Y-1069707D01*
X107356938Y-1069703D01*
X107029194Y-894520D01*
X107029189Y-894518D01*
X106685825Y-752292D01*
X106655721Y-743160D01*
X106597283Y-704863D01*
X106568826Y-641050D01*
X106579387Y-571983D01*
X106625612Y-519590D01*
X106691717Y-500500D01*
X109375447Y-500500D01*
X109442486Y-520185D01*
X109488241Y-572989D01*
X109499447Y-624500D01*
X109499447Y-35370700D01*
X109479762Y-35437739D01*
X109426958Y-35483494D01*
X109375447Y-35494700D01*
X624500Y-35494700D01*
X557461Y-35475015D01*
X511706Y-35422211D01*
X500500Y-35370700D01*
X500500Y-32692930D01*
X16170700Y-32692930D01*
X16170700Y-32899869D01*
X16211068Y-33102812D01*
X16211070Y-33102820D01*
X16290259Y-33293998D01*
X16303890Y-33314398D01*
X16405224Y-33466057D01*
X16551542Y-33612375D01*
X16551545Y-33612377D01*
X16723602Y-33727341D01*
X16914780Y-33806530D01*
X17117730Y-33846899D01*
X17117734Y-33846900D01*
X17117735Y-33846900D01*
X17324666Y-33846900D01*
X17324667Y-33846899D01*
X17527620Y-33806530D01*
X17718798Y-33727341D01*
X17890855Y-33612377D01*
X18037177Y-33466055D01*
X18152141Y-33293998D01*
X18231330Y-33102820D01*
X18271700Y-32899865D01*
X18271700Y-32713330D01*
X43780500Y-32713330D01*
X43780500Y-32920269D01*
X43820868Y-33123212D01*
X43820870Y-33123220D01*
X43900058Y-33314396D01*
X44015024Y-33486457D01*
X44161342Y-33632775D01*
X44161345Y-33632777D01*
X44333402Y-33747741D01*
X44524580Y-33826930D01*
X44727530Y-33867299D01*
X44727534Y-33867300D01*
X44727535Y-33867300D01*
X44934466Y-33867300D01*
X44934467Y-33867299D01*
X45137420Y-33826930D01*
X45328598Y-33747741D01*
X45500655Y-33632777D01*
X45646977Y-33486455D01*
X45761941Y-33314398D01*
X45841130Y-33123220D01*
X45881500Y-32920265D01*
X45881500Y-32713335D01*
X45881499Y-32713330D01*
X71364900Y-32713330D01*
X71364900Y-32920269D01*
X71405268Y-33123212D01*
X71405270Y-33123220D01*
X71484458Y-33314396D01*
X71599424Y-33486457D01*
X71745742Y-33632775D01*
X71745745Y-33632777D01*
X71917802Y-33747741D01*
X72108980Y-33826930D01*
X72311930Y-33867299D01*
X72311934Y-33867300D01*
X72311935Y-33867300D01*
X72518866Y-33867300D01*
X72518867Y-33867299D01*
X72721820Y-33826930D01*
X72912998Y-33747741D01*
X73085055Y-33632777D01*
X73231377Y-33486455D01*
X73346341Y-33314398D01*
X73425530Y-33123220D01*
X73465900Y-32920265D01*
X73465900Y-32713335D01*
X73465899Y-32713330D01*
X98949300Y-32713330D01*
X98949300Y-32920269D01*
X98989668Y-33123212D01*
X98989670Y-33123220D01*
X99068858Y-33314396D01*
X99183824Y-33486457D01*
X99330142Y-33632775D01*
X99330145Y-33632777D01*
X99502202Y-33747741D01*
X99693380Y-33826930D01*
X99896330Y-33867299D01*
X99896334Y-33867300D01*
X99896335Y-33867300D01*
X100103266Y-33867300D01*
X100103267Y-33867299D01*
X100306220Y-33826930D01*
X100497398Y-33747741D01*
X100669455Y-33632777D01*
X100815777Y-33486455D01*
X100930741Y-33314398D01*
X101009930Y-33123220D01*
X101050300Y-32920265D01*
X101050300Y-32713335D01*
X101009930Y-32510380D01*
X100930741Y-32319202D01*
X100815777Y-32147145D01*
X100815775Y-32147142D01*
X100669457Y-32000824D01*
X100583426Y-31943341D01*
X100497398Y-31885859D01*
X100448148Y-31865459D01*
X100306220Y-31806670D01*
X100306212Y-31806668D01*
X100103269Y-31766300D01*
X100103265Y-31766300D01*
X99896335Y-31766300D01*
X99896330Y-31766300D01*
X99693387Y-31806668D01*
X99693379Y-31806670D01*
X99502203Y-31885858D01*
X99330142Y-32000824D01*
X99183824Y-32147142D01*
X99068858Y-32319203D01*
X98989670Y-32510379D01*
X98989668Y-32510387D01*
X98949300Y-32713330D01*
X73465899Y-32713330D01*
X73425530Y-32510380D01*
X73346341Y-32319202D01*
X73231377Y-32147145D01*
X73231375Y-32147142D01*
X73085057Y-32000824D01*
X72999026Y-31943341D01*
X72912998Y-31885859D01*
X72863748Y-31865459D01*
X72721820Y-31806670D01*
X72721812Y-31806668D01*
X72518869Y-31766300D01*
X72518865Y-31766300D01*
X72311935Y-31766300D01*
X72311930Y-31766300D01*
X72108987Y-31806668D01*
X72108979Y-31806670D01*
X71917803Y-31885858D01*
X71745742Y-32000824D01*
X71599424Y-32147142D01*
X71484458Y-32319203D01*
X71405270Y-32510379D01*
X71405268Y-32510387D01*
X71364900Y-32713330D01*
X45881499Y-32713330D01*
X45841130Y-32510380D01*
X45761941Y-32319202D01*
X45646977Y-32147145D01*
X45646975Y-32147142D01*
X45500657Y-32000824D01*
X45414626Y-31943341D01*
X45328598Y-31885859D01*
X45279348Y-31865459D01*
X45137420Y-31806670D01*
X45137412Y-31806668D01*
X44934469Y-31766300D01*
X44934465Y-31766300D01*
X44727535Y-31766300D01*
X44727530Y-31766300D01*
X44524587Y-31806668D01*
X44524579Y-31806670D01*
X44333403Y-31885858D01*
X44161342Y-32000824D01*
X44015024Y-32147142D01*
X43900058Y-32319203D01*
X43820870Y-32510379D01*
X43820868Y-32510387D01*
X43780500Y-32713330D01*
X18271700Y-32713330D01*
X18271700Y-32692935D01*
X18231330Y-32489980D01*
X18152141Y-32298802D01*
X18037177Y-32126745D01*
X18037175Y-32126742D01*
X17890857Y-31980424D01*
X17749327Y-31885858D01*
X17718798Y-31865459D01*
X17527620Y-31786270D01*
X17527612Y-31786268D01*
X17324669Y-31745900D01*
X17324665Y-31745900D01*
X17117735Y-31745900D01*
X17117730Y-31745900D01*
X16914787Y-31786268D01*
X16914779Y-31786270D01*
X16723603Y-31865458D01*
X16551542Y-31980424D01*
X16405224Y-32126742D01*
X16290258Y-32298803D01*
X16211070Y-32489979D01*
X16211068Y-32489987D01*
X16170700Y-32692930D01*
X500500Y-32692930D01*
X500500Y-27612930D01*
X8550700Y-27612930D01*
X8550700Y-27819869D01*
X8591068Y-28022812D01*
X8591070Y-28022820D01*
X8670259Y-28213998D01*
X8683890Y-28234398D01*
X8785224Y-28386057D01*
X8931542Y-28532375D01*
X8931545Y-28532377D01*
X9103602Y-28647341D01*
X9294780Y-28726530D01*
X9497730Y-28766899D01*
X9497734Y-28766900D01*
X9497735Y-28766900D01*
X9704666Y-28766900D01*
X9704667Y-28766899D01*
X9907620Y-28726530D01*
X10098798Y-28647341D01*
X10270855Y-28532377D01*
X10417177Y-28386055D01*
X10532141Y-28213998D01*
X10611330Y-28022820D01*
X10651700Y-27819865D01*
X10651700Y-27633330D01*
X36160500Y-27633330D01*
X36160500Y-27840269D01*
X36200868Y-28043212D01*
X36200870Y-28043220D01*
X36280058Y-28234396D01*
X36395024Y-28406457D01*
X36541342Y-28552775D01*
X36541345Y-28552777D01*
X36713402Y-28667741D01*
X36904580Y-28746930D01*
X37107530Y-28787299D01*
X37107534Y-28787300D01*
X37107535Y-28787300D01*
X37314466Y-28787300D01*
X37314467Y-28787299D01*
X37517420Y-28746930D01*
X37708598Y-28667741D01*
X37880655Y-28552777D01*
X38026977Y-28406455D01*
X38141941Y-28234398D01*
X38221130Y-28043220D01*
X38261500Y-27840265D01*
X38261500Y-27633335D01*
X38261499Y-27633330D01*
X63744900Y-27633330D01*
X63744900Y-27840269D01*
X63785268Y-28043212D01*
X63785270Y-28043220D01*
X63864458Y-28234396D01*
X63979424Y-28406457D01*
X64125742Y-28552775D01*
X64125745Y-28552777D01*
X64297802Y-28667741D01*
X64488980Y-28746930D01*
X64691930Y-28787299D01*
X64691934Y-28787300D01*
X64691935Y-28787300D01*
X64898866Y-28787300D01*
X64898867Y-28787299D01*
X65101820Y-28746930D01*
X65292998Y-28667741D01*
X65465055Y-28552777D01*
X65611377Y-28406455D01*
X65726341Y-28234398D01*
X65805530Y-28043220D01*
X65845900Y-27840265D01*
X65845900Y-27633335D01*
X65845899Y-27633330D01*
X91329300Y-27633330D01*
X91329300Y-27840269D01*
X91369668Y-28043212D01*
X91369670Y-28043220D01*
X91448858Y-28234396D01*
X91563824Y-28406457D01*
X91710142Y-28552775D01*
X91710145Y-28552777D01*
X91882202Y-28667741D01*
X92073380Y-28746930D01*
X92276330Y-28787299D01*
X92276334Y-28787300D01*
X92276335Y-28787300D01*
X92483266Y-28787300D01*
X92483267Y-28787299D01*
X92686220Y-28746930D01*
X92877398Y-28667741D01*
X93049455Y-28552777D01*
X93195777Y-28406455D01*
X93310741Y-28234398D01*
X93389930Y-28043220D01*
X93430300Y-27840265D01*
X93430300Y-27633335D01*
X93389930Y-27430380D01*
X93310741Y-27239202D01*
X93195777Y-27067145D01*
X93195775Y-27067142D01*
X93049457Y-26920824D01*
X92963426Y-26863341D01*
X92877398Y-26805859D01*
X92828148Y-26785459D01*
X92686220Y-26726670D01*
X92686212Y-26726668D01*
X92483269Y-26686300D01*
X92483265Y-26686300D01*
X92276335Y-26686300D01*
X92276330Y-26686300D01*
X92073387Y-26726668D01*
X92073379Y-26726670D01*
X91882203Y-26805858D01*
X91710142Y-26920824D01*
X91563824Y-27067142D01*
X91448858Y-27239203D01*
X91369670Y-27430379D01*
X91369668Y-27430387D01*
X91329300Y-27633330D01*
X65845899Y-27633330D01*
X65805530Y-27430380D01*
X65726341Y-27239202D01*
X65611377Y-27067145D01*
X65611375Y-27067142D01*
X65465057Y-26920824D01*
X65379026Y-26863341D01*
X65292998Y-26805859D01*
X65243748Y-26785459D01*
X65101820Y-26726670D01*
X65101812Y-26726668D01*
X64898869Y-26686300D01*
X64898865Y-26686300D01*
X64691935Y-26686300D01*
X64691930Y-26686300D01*
X64488987Y-26726668D01*
X64488979Y-26726670D01*
X64297803Y-26805858D01*
X64125742Y-26920824D01*
X63979424Y-27067142D01*
X63864458Y-27239203D01*
X63785270Y-27430379D01*
X63785268Y-27430387D01*
X63744900Y-27633330D01*
X38261499Y-27633330D01*
X38221130Y-27430380D01*
X38141941Y-27239202D01*
X38026977Y-27067145D01*
X38026975Y-27067142D01*
X37880657Y-26920824D01*
X37794626Y-26863341D01*
X37708598Y-26805859D01*
X37659348Y-26785459D01*
X37517420Y-26726670D01*
X37517412Y-26726668D01*
X37314469Y-26686300D01*
X37314465Y-26686300D01*
X37107535Y-26686300D01*
X37107530Y-26686300D01*
X36904587Y-26726668D01*
X36904579Y-26726670D01*
X36713403Y-26805858D01*
X36541342Y-26920824D01*
X36395024Y-27067142D01*
X36280058Y-27239203D01*
X36200870Y-27430379D01*
X36200868Y-27430387D01*
X36160500Y-27633330D01*
X10651700Y-27633330D01*
X10651700Y-27612935D01*
X10611330Y-27409980D01*
X10532141Y-27218802D01*
X10417177Y-27046745D01*
X10417175Y-27046742D01*
X10270857Y-26900424D01*
X10129327Y-26805858D01*
X10098798Y-26785459D01*
X9907620Y-26706270D01*
X9907612Y-26706268D01*
X9704669Y-26665900D01*
X9704665Y-26665900D01*
X9497735Y-26665900D01*
X9497730Y-26665900D01*
X9294787Y-26706268D01*
X9294779Y-26706270D01*
X9103603Y-26785458D01*
X8931542Y-26900424D01*
X8785224Y-27046742D01*
X8670258Y-27218803D01*
X8591070Y-27409979D01*
X8591068Y-27409987D01*
X8550700Y-27612930D01*
X500500Y-27612930D01*
X500500Y-23139972D01*
X7595900Y-23139972D01*
X7595900Y-23402827D01*
X7595901Y-23402844D01*
X7630209Y-23663443D01*
X7630210Y-23663448D01*
X7630211Y-23663454D01*
X7698246Y-23917366D01*
X7698249Y-23917373D01*
X7798839Y-24160218D01*
X7798843Y-24160228D01*
X7930275Y-24387875D01*
X8090298Y-24596421D01*
X8090304Y-24596428D01*
X8276171Y-24782295D01*
X8276178Y-24782301D01*
X8484724Y-24942324D01*
X8712371Y-25073756D01*
X8712372Y-25073756D01*
X8712375Y-25073758D01*
X8955234Y-25174354D01*
X9209146Y-25242389D01*
X9469766Y-25276700D01*
X9469773Y-25276700D01*
X9732627Y-25276700D01*
X9732634Y-25276700D01*
X9993254Y-25242389D01*
X10247166Y-25174354D01*
X10490025Y-25073758D01*
X10717676Y-24942324D01*
X10926223Y-24782300D01*
X11112100Y-24596423D01*
X11272124Y-24387876D01*
X11403558Y-24160225D01*
X11504154Y-23917366D01*
X11541409Y-23778327D01*
X15267200Y-23778327D01*
X15267200Y-24034472D01*
X15300632Y-24288423D01*
X15366927Y-24535839D01*
X15464945Y-24772478D01*
X15464953Y-24772494D01*
X15593015Y-24994304D01*
X15593021Y-24994311D01*
X15632640Y-25045945D01*
X16477393Y-24201193D01*
X16512249Y-24285342D01*
X16599799Y-24416370D01*
X16711230Y-24527801D01*
X16842258Y-24615351D01*
X16926405Y-24650206D01*
X16081653Y-25494958D01*
X16081653Y-25494959D01*
X16133286Y-25534578D01*
X16355105Y-25662646D01*
X16355121Y-25662654D01*
X16591760Y-25760672D01*
X16839176Y-25826967D01*
X17093127Y-25860400D01*
X17349273Y-25860400D01*
X17603223Y-25826967D01*
X17850639Y-25760672D01*
X18087278Y-25662654D01*
X18087294Y-25662646D01*
X18309106Y-25534582D01*
X18309124Y-25534570D01*
X18360745Y-25494959D01*
X18360745Y-25494958D01*
X17515994Y-24650206D01*
X17600142Y-24615351D01*
X17731170Y-24527801D01*
X17842601Y-24416370D01*
X17930151Y-24285342D01*
X17965006Y-24201194D01*
X18809758Y-25045945D01*
X18809759Y-25045945D01*
X18849370Y-24994324D01*
X18849382Y-24994306D01*
X18977446Y-24772494D01*
X18977454Y-24772478D01*
X19075472Y-24535839D01*
X19141767Y-24288423D01*
X19175200Y-24034472D01*
X19175200Y-23778327D01*
X19141767Y-23524376D01*
X19075472Y-23276960D01*
X19045152Y-23203759D01*
X19027180Y-23160372D01*
X35205700Y-23160372D01*
X35205700Y-23423227D01*
X35205701Y-23423244D01*
X35240009Y-23683843D01*
X35240010Y-23683848D01*
X35240011Y-23683854D01*
X35308046Y-23937766D01*
X35308049Y-23937773D01*
X35408639Y-24180618D01*
X35408643Y-24180628D01*
X35540075Y-24408275D01*
X35700098Y-24616821D01*
X35700104Y-24616828D01*
X35885971Y-24802695D01*
X35885978Y-24802701D01*
X36094524Y-24962724D01*
X36322171Y-25094156D01*
X36322172Y-25094156D01*
X36322175Y-25094158D01*
X36565034Y-25194754D01*
X36818946Y-25262789D01*
X37079566Y-25297100D01*
X37079573Y-25297100D01*
X37342427Y-25297100D01*
X37342434Y-25297100D01*
X37603054Y-25262789D01*
X37856966Y-25194754D01*
X38099825Y-25094158D01*
X38327476Y-24962724D01*
X38536023Y-24802700D01*
X38721900Y-24616823D01*
X38881924Y-24408276D01*
X39013358Y-24180625D01*
X39113954Y-23937766D01*
X39151209Y-23798727D01*
X42877000Y-23798727D01*
X42877000Y-24054872D01*
X42910432Y-24308823D01*
X42976727Y-24556239D01*
X43074745Y-24792878D01*
X43074753Y-24792894D01*
X43202815Y-25014704D01*
X43202821Y-25014711D01*
X43242440Y-25066345D01*
X44087193Y-24221593D01*
X44122049Y-24305742D01*
X44209599Y-24436770D01*
X44321030Y-24548201D01*
X44452058Y-24635751D01*
X44536205Y-24670606D01*
X43691453Y-25515358D01*
X43691453Y-25515359D01*
X43743086Y-25554978D01*
X43964905Y-25683046D01*
X43964921Y-25683054D01*
X44201560Y-25781072D01*
X44448976Y-25847367D01*
X44702927Y-25880800D01*
X44959073Y-25880800D01*
X45213023Y-25847367D01*
X45460439Y-25781072D01*
X45697078Y-25683054D01*
X45697094Y-25683046D01*
X45918906Y-25554982D01*
X45918924Y-25554970D01*
X45970545Y-25515359D01*
X45970545Y-25515358D01*
X45125794Y-24670606D01*
X45209942Y-24635751D01*
X45340970Y-24548201D01*
X45452401Y-24436770D01*
X45539951Y-24305742D01*
X45574806Y-24221594D01*
X46419558Y-25066345D01*
X46419559Y-25066345D01*
X46459170Y-25014724D01*
X46459182Y-25014706D01*
X46587246Y-24792894D01*
X46587254Y-24792878D01*
X46685272Y-24556239D01*
X46751567Y-24308823D01*
X46785000Y-24054872D01*
X46785000Y-23798727D01*
X46751567Y-23544776D01*
X46685272Y-23297360D01*
X46646502Y-23203759D01*
X46628530Y-23160372D01*
X62790100Y-23160372D01*
X62790100Y-23423227D01*
X62790101Y-23423244D01*
X62824409Y-23683843D01*
X62824410Y-23683848D01*
X62824411Y-23683854D01*
X62892446Y-23937766D01*
X62892449Y-23937773D01*
X62993039Y-24180618D01*
X62993043Y-24180628D01*
X63124475Y-24408275D01*
X63284498Y-24616821D01*
X63284504Y-24616828D01*
X63470371Y-24802695D01*
X63470378Y-24802701D01*
X63678924Y-24962724D01*
X63906571Y-25094156D01*
X63906572Y-25094156D01*
X63906575Y-25094158D01*
X64149434Y-25194754D01*
X64403346Y-25262789D01*
X64663966Y-25297100D01*
X64663973Y-25297100D01*
X64926827Y-25297100D01*
X64926834Y-25297100D01*
X65187454Y-25262789D01*
X65441366Y-25194754D01*
X65684225Y-25094158D01*
X65911876Y-24962724D01*
X66120423Y-24802700D01*
X66306300Y-24616823D01*
X66466324Y-24408276D01*
X66597758Y-24180625D01*
X66698354Y-23937766D01*
X66735609Y-23798727D01*
X70461400Y-23798727D01*
X70461400Y-24054872D01*
X70494832Y-24308823D01*
X70561127Y-24556239D01*
X70659145Y-24792878D01*
X70659153Y-24792894D01*
X70787215Y-25014704D01*
X70787221Y-25014711D01*
X70826840Y-25066345D01*
X71671593Y-24221593D01*
X71706449Y-24305742D01*
X71793999Y-24436770D01*
X71905430Y-24548201D01*
X72036458Y-24635751D01*
X72120605Y-24670606D01*
X71275853Y-25515358D01*
X71275853Y-25515359D01*
X71327486Y-25554978D01*
X71549305Y-25683046D01*
X71549321Y-25683054D01*
X71785960Y-25781072D01*
X72033376Y-25847367D01*
X72287327Y-25880800D01*
X72543473Y-25880800D01*
X72797423Y-25847367D01*
X73044839Y-25781072D01*
X73281478Y-25683054D01*
X73281494Y-25683046D01*
X73503306Y-25554982D01*
X73503324Y-25554970D01*
X73554945Y-25515359D01*
X73554945Y-25515358D01*
X72710194Y-24670606D01*
X72794342Y-24635751D01*
X72925370Y-24548201D01*
X73036801Y-24436770D01*
X73124351Y-24305742D01*
X73159206Y-24221594D01*
X74003958Y-25066345D01*
X74003959Y-25066345D01*
X74043570Y-25014724D01*
X74043582Y-25014706D01*
X74171646Y-24792894D01*
X74171654Y-24792878D01*
X74269672Y-24556239D01*
X74335967Y-24308823D01*
X74369400Y-24054872D01*
X74369400Y-23798727D01*
X74335967Y-23544776D01*
X74269672Y-23297360D01*
X74230902Y-23203759D01*
X74212930Y-23160372D01*
X90374500Y-23160372D01*
X90374500Y-23423227D01*
X90374501Y-23423244D01*
X90408809Y-23683843D01*
X90408810Y-23683848D01*
X90408811Y-23683854D01*
X90476846Y-23937766D01*
X90476849Y-23937773D01*
X90577439Y-24180618D01*
X90577443Y-24180628D01*
X90708875Y-24408275D01*
X90868898Y-24616821D01*
X90868904Y-24616828D01*
X91054771Y-24802695D01*
X91054778Y-24802701D01*
X91263324Y-24962724D01*
X91490971Y-25094156D01*
X91490972Y-25094156D01*
X91490975Y-25094158D01*
X91733834Y-25194754D01*
X91987746Y-25262789D01*
X92248366Y-25297100D01*
X92248373Y-25297100D01*
X92511227Y-25297100D01*
X92511234Y-25297100D01*
X92771854Y-25262789D01*
X93025766Y-25194754D01*
X93268625Y-25094158D01*
X93496276Y-24962724D01*
X93704823Y-24802700D01*
X93890700Y-24616823D01*
X94050724Y-24408276D01*
X94182158Y-24180625D01*
X94282754Y-23937766D01*
X94320009Y-23798727D01*
X98045800Y-23798727D01*
X98045800Y-24054872D01*
X98079232Y-24308823D01*
X98145527Y-24556239D01*
X98243545Y-24792878D01*
X98243553Y-24792894D01*
X98371615Y-25014704D01*
X98371621Y-25014711D01*
X98411240Y-25066345D01*
X99255993Y-24221593D01*
X99290849Y-24305742D01*
X99378399Y-24436770D01*
X99489830Y-24548201D01*
X99620858Y-24635751D01*
X99705005Y-24670606D01*
X98860253Y-25515358D01*
X98860253Y-25515359D01*
X98911886Y-25554978D01*
X99133705Y-25683046D01*
X99133721Y-25683054D01*
X99370360Y-25781072D01*
X99617776Y-25847367D01*
X99871727Y-25880800D01*
X100127873Y-25880800D01*
X100381823Y-25847367D01*
X100629239Y-25781072D01*
X100865878Y-25683054D01*
X100865894Y-25683046D01*
X101087706Y-25554982D01*
X101087724Y-25554970D01*
X101139345Y-25515359D01*
X101139345Y-25515358D01*
X100294594Y-24670606D01*
X100378742Y-24635751D01*
X100509770Y-24548201D01*
X100621201Y-24436770D01*
X100708751Y-24305742D01*
X100743606Y-24221594D01*
X101588358Y-25066345D01*
X101588359Y-25066345D01*
X101627970Y-25014724D01*
X101627982Y-25014706D01*
X101756046Y-24792894D01*
X101756054Y-24792878D01*
X101854072Y-24556239D01*
X101920367Y-24308823D01*
X101953800Y-24054872D01*
X101953800Y-23798727D01*
X101920367Y-23544776D01*
X101854072Y-23297360D01*
X101756054Y-23060721D01*
X101756046Y-23060705D01*
X101627978Y-22838886D01*
X101588359Y-22787253D01*
X101588358Y-22787253D01*
X100743606Y-23632005D01*
X100708751Y-23547858D01*
X100621201Y-23416830D01*
X100509770Y-23305399D01*
X100378742Y-23217849D01*
X100294593Y-23182993D01*
X101139345Y-22338240D01*
X101139345Y-22338239D01*
X101087711Y-22298621D01*
X101087704Y-22298615D01*
X100865894Y-22170553D01*
X100865878Y-22170545D01*
X100629239Y-22072527D01*
X100381823Y-22006232D01*
X100127873Y-21972800D01*
X99871727Y-21972800D01*
X99617776Y-22006232D01*
X99370360Y-22072527D01*
X99133721Y-22170545D01*
X99133705Y-22170553D01*
X98911893Y-22298617D01*
X98911879Y-22298626D01*
X98860252Y-22338240D01*
X99705006Y-23182993D01*
X99620858Y-23217849D01*
X99489830Y-23305399D01*
X99378399Y-23416830D01*
X99290849Y-23547858D01*
X99255993Y-23632005D01*
X98411240Y-22787252D01*
X98371626Y-22838879D01*
X98371617Y-22838893D01*
X98243553Y-23060705D01*
X98243545Y-23060721D01*
X98145527Y-23297360D01*
X98079232Y-23544776D01*
X98045800Y-23798727D01*
X94320009Y-23798727D01*
X94350789Y-23683854D01*
X94385100Y-23423234D01*
X94385100Y-23160366D01*
X94350789Y-22899746D01*
X94282754Y-22645834D01*
X94235551Y-22531877D01*
X94194863Y-22433646D01*
X94182158Y-22402976D01*
X94182156Y-22402971D01*
X94050724Y-22175324D01*
X93890701Y-21966778D01*
X93890695Y-21966771D01*
X93704828Y-21780904D01*
X93704821Y-21780898D01*
X93496275Y-21620875D01*
X93268628Y-21489443D01*
X93268618Y-21489439D01*
X93025773Y-21388849D01*
X93025774Y-21388849D01*
X93025766Y-21388846D01*
X92771854Y-21320811D01*
X92771848Y-21320810D01*
X92771843Y-21320809D01*
X92511244Y-21286501D01*
X92511239Y-21286500D01*
X92511234Y-21286500D01*
X92248366Y-21286500D01*
X92248360Y-21286500D01*
X92248355Y-21286501D01*
X91987756Y-21320809D01*
X91987749Y-21320810D01*
X91987746Y-21320811D01*
X91903108Y-21343489D01*
X91733840Y-21388844D01*
X91733826Y-21388849D01*
X91490981Y-21489439D01*
X91490971Y-21489443D01*
X91263324Y-21620875D01*
X91054778Y-21780898D01*
X91054771Y-21780904D01*
X90868904Y-21966771D01*
X90868898Y-21966778D01*
X90708875Y-22175324D01*
X90577443Y-22402971D01*
X90577439Y-22402981D01*
X90476849Y-22645826D01*
X90476844Y-22645840D01*
X90444419Y-22766853D01*
X90414275Y-22879356D01*
X90408812Y-22899743D01*
X90408809Y-22899756D01*
X90374501Y-23160355D01*
X90374500Y-23160372D01*
X74212930Y-23160372D01*
X74171651Y-23060716D01*
X74171646Y-23060705D01*
X74043578Y-22838886D01*
X74003959Y-22787253D01*
X74003958Y-22787253D01*
X73159206Y-23632005D01*
X73124351Y-23547858D01*
X73036801Y-23416830D01*
X72925370Y-23305399D01*
X72794342Y-23217849D01*
X72710193Y-23182993D01*
X73554945Y-22338240D01*
X73554945Y-22338239D01*
X73503311Y-22298621D01*
X73503304Y-22298615D01*
X73281494Y-22170553D01*
X73281478Y-22170545D01*
X73044839Y-22072527D01*
X72797423Y-22006232D01*
X72543473Y-21972800D01*
X72287327Y-21972800D01*
X72033376Y-22006232D01*
X71785960Y-22072527D01*
X71549321Y-22170545D01*
X71549305Y-22170553D01*
X71327493Y-22298617D01*
X71327479Y-22298626D01*
X71275852Y-22338240D01*
X72120606Y-23182993D01*
X72036458Y-23217849D01*
X71905430Y-23305399D01*
X71793999Y-23416830D01*
X71706449Y-23547858D01*
X71671593Y-23632005D01*
X70826840Y-22787252D01*
X70787226Y-22838879D01*
X70787217Y-22838893D01*
X70659153Y-23060705D01*
X70659145Y-23060721D01*
X70561127Y-23297360D01*
X70494832Y-23544776D01*
X70461400Y-23798727D01*
X66735609Y-23798727D01*
X66766389Y-23683854D01*
X66800700Y-23423234D01*
X66800700Y-23160366D01*
X66766389Y-22899746D01*
X66698354Y-22645834D01*
X66651151Y-22531877D01*
X66610463Y-22433646D01*
X66597758Y-22402976D01*
X66597756Y-22402971D01*
X66466324Y-22175324D01*
X66306301Y-21966778D01*
X66306295Y-21966771D01*
X66120428Y-21780904D01*
X66120421Y-21780898D01*
X65911875Y-21620875D01*
X65684228Y-21489443D01*
X65684218Y-21489439D01*
X65441373Y-21388849D01*
X65441374Y-21388849D01*
X65441366Y-21388846D01*
X65187454Y-21320811D01*
X65187448Y-21320810D01*
X65187443Y-21320809D01*
X64926844Y-21286501D01*
X64926839Y-21286500D01*
X64926834Y-21286500D01*
X64663966Y-21286500D01*
X64663960Y-21286500D01*
X64663955Y-21286501D01*
X64403356Y-21320809D01*
X64403349Y-21320810D01*
X64403346Y-21320811D01*
X64318708Y-21343489D01*
X64149440Y-21388844D01*
X64149426Y-21388849D01*
X63906581Y-21489439D01*
X63906571Y-21489443D01*
X63678924Y-21620875D01*
X63470378Y-21780898D01*
X63470371Y-21780904D01*
X63284504Y-21966771D01*
X63284498Y-21966778D01*
X63124475Y-22175324D01*
X62993043Y-22402971D01*
X62993039Y-22402981D01*
X62892449Y-22645826D01*
X62892444Y-22645840D01*
X62860019Y-22766853D01*
X62829875Y-22879356D01*
X62824412Y-22899743D01*
X62824409Y-22899756D01*
X62790101Y-23160355D01*
X62790100Y-23160372D01*
X46628530Y-23160372D01*
X46587251Y-23060716D01*
X46587246Y-23060705D01*
X46459178Y-22838886D01*
X46419559Y-22787253D01*
X46419558Y-22787253D01*
X45574806Y-23632005D01*
X45539951Y-23547858D01*
X45452401Y-23416830D01*
X45340970Y-23305399D01*
X45209942Y-23217849D01*
X45125793Y-23182993D01*
X45970545Y-22338240D01*
X45970545Y-22338239D01*
X45918911Y-22298621D01*
X45918904Y-22298615D01*
X45697094Y-22170553D01*
X45697078Y-22170545D01*
X45460439Y-22072527D01*
X45213023Y-22006232D01*
X44959073Y-21972800D01*
X44702927Y-21972800D01*
X44448976Y-22006232D01*
X44201560Y-22072527D01*
X43964921Y-22170545D01*
X43964905Y-22170553D01*
X43743093Y-22298617D01*
X43743079Y-22298626D01*
X43691452Y-22338240D01*
X44536206Y-23182993D01*
X44452058Y-23217849D01*
X44321030Y-23305399D01*
X44209599Y-23416830D01*
X44122049Y-23547858D01*
X44087193Y-23632005D01*
X43242440Y-22787252D01*
X43202826Y-22838879D01*
X43202817Y-22838893D01*
X43074753Y-23060705D01*
X43074745Y-23060721D01*
X42976727Y-23297360D01*
X42910432Y-23544776D01*
X42877000Y-23798727D01*
X39151209Y-23798727D01*
X39181989Y-23683854D01*
X39216300Y-23423234D01*
X39216300Y-23160366D01*
X39181989Y-22899746D01*
X39113954Y-22645834D01*
X39066751Y-22531877D01*
X39026063Y-22433646D01*
X39013358Y-22402976D01*
X39013356Y-22402971D01*
X38881924Y-22175324D01*
X38721901Y-21966778D01*
X38721895Y-21966771D01*
X38536028Y-21780904D01*
X38536021Y-21780898D01*
X38327475Y-21620875D01*
X38099828Y-21489443D01*
X38099818Y-21489439D01*
X37856973Y-21388849D01*
X37856974Y-21388849D01*
X37856966Y-21388846D01*
X37603054Y-21320811D01*
X37603048Y-21320810D01*
X37603043Y-21320809D01*
X37342444Y-21286501D01*
X37342439Y-21286500D01*
X37342434Y-21286500D01*
X37079566Y-21286500D01*
X37079560Y-21286500D01*
X37079555Y-21286501D01*
X36818956Y-21320809D01*
X36818949Y-21320810D01*
X36818946Y-21320811D01*
X36734308Y-21343489D01*
X36565040Y-21388844D01*
X36565026Y-21388849D01*
X36322181Y-21489439D01*
X36322171Y-21489443D01*
X36094524Y-21620875D01*
X35885978Y-21780898D01*
X35885971Y-21780904D01*
X35700104Y-21966771D01*
X35700098Y-21966778D01*
X35540075Y-22175324D01*
X35408643Y-22402971D01*
X35408639Y-22402981D01*
X35308049Y-22645826D01*
X35308044Y-22645840D01*
X35275619Y-22766853D01*
X35245475Y-22879356D01*
X35240012Y-22899743D01*
X35240009Y-22899756D01*
X35205701Y-23160355D01*
X35205700Y-23160372D01*
X19027180Y-23160372D01*
X18977451Y-23040316D01*
X18977446Y-23040305D01*
X18849378Y-22818486D01*
X18809759Y-22766853D01*
X18809758Y-22766853D01*
X17965006Y-23611605D01*
X17930151Y-23527458D01*
X17842601Y-23396430D01*
X17731170Y-23284999D01*
X17600142Y-23197449D01*
X17515993Y-23162593D01*
X18360745Y-22317840D01*
X18360745Y-22317839D01*
X18309111Y-22278221D01*
X18309104Y-22278215D01*
X18087294Y-22150153D01*
X18087278Y-22150145D01*
X17850639Y-22052127D01*
X17603223Y-21985832D01*
X17349273Y-21952400D01*
X17093127Y-21952400D01*
X16839176Y-21985832D01*
X16591760Y-22052127D01*
X16355121Y-22150145D01*
X16355105Y-22150153D01*
X16133293Y-22278217D01*
X16133279Y-22278226D01*
X16081652Y-22317840D01*
X16926406Y-23162593D01*
X16842258Y-23197449D01*
X16711230Y-23284999D01*
X16599799Y-23396430D01*
X16512249Y-23527458D01*
X16477393Y-23611605D01*
X15632640Y-22766852D01*
X15593026Y-22818479D01*
X15593017Y-22818493D01*
X15464953Y-23040305D01*
X15464945Y-23040321D01*
X15366927Y-23276960D01*
X15300632Y-23524376D01*
X15267200Y-23778327D01*
X11541409Y-23778327D01*
X11572189Y-23663454D01*
X11606500Y-23402834D01*
X11606500Y-23139966D01*
X11572189Y-22879346D01*
X11504154Y-22625434D01*
X11456951Y-22511477D01*
X11416263Y-22413246D01*
X11403558Y-22382576D01*
X11403556Y-22382571D01*
X11272124Y-22154924D01*
X11112101Y-21946378D01*
X11112095Y-21946371D01*
X10926228Y-21760504D01*
X10926221Y-21760498D01*
X10717675Y-21600475D01*
X10490028Y-21469043D01*
X10490018Y-21469039D01*
X10247173Y-21368449D01*
X10247174Y-21368449D01*
X10247166Y-21368446D01*
X9993254Y-21300411D01*
X9993248Y-21300410D01*
X9993243Y-21300409D01*
X9732644Y-21266101D01*
X9732639Y-21266100D01*
X9732634Y-21266100D01*
X9469766Y-21266100D01*
X9469760Y-21266100D01*
X9469755Y-21266101D01*
X9209156Y-21300409D01*
X9209149Y-21300410D01*
X9209146Y-21300411D01*
X9133019Y-21320809D01*
X8955240Y-21368444D01*
X8955226Y-21368449D01*
X8712381Y-21469039D01*
X8712371Y-21469043D01*
X8484724Y-21600475D01*
X8276178Y-21760498D01*
X8276171Y-21760504D01*
X8090304Y-21946371D01*
X8090298Y-21946378D01*
X7930275Y-22154924D01*
X7798843Y-22382571D01*
X7798839Y-22382581D01*
X7698249Y-22625426D01*
X7698244Y-22625440D01*
X7630212Y-22879343D01*
X7630209Y-22879356D01*
X7595901Y-23139955D01*
X7595900Y-23139972D01*
X500500Y-23139972D01*
X500500Y-19341344D01*
X11655900Y-19341344D01*
X11655900Y-19571455D01*
X11680914Y-19761451D01*
X11685934Y-19799577D01*
X11691401Y-19819979D01*
X11745486Y-20021831D01*
X11833539Y-20234408D01*
X11833543Y-20234418D01*
X11948589Y-20433684D01*
X12088662Y-20616231D01*
X12088668Y-20616238D01*
X12251361Y-20778931D01*
X12251368Y-20778937D01*
X12433915Y-20919010D01*
X12633181Y-21034056D01*
X12633182Y-21034056D01*
X12633185Y-21034058D01*
X12845767Y-21122113D01*
X13068023Y-21181666D01*
X13296152Y-21211700D01*
X13296159Y-21211700D01*
X13526241Y-21211700D01*
X13526248Y-21211700D01*
X13754377Y-21181666D01*
X13976633Y-21122113D01*
X14189215Y-21034058D01*
X14388485Y-20919010D01*
X14571033Y-20778936D01*
X14733736Y-20616233D01*
X14873810Y-20433685D01*
X14988858Y-20234415D01*
X15076913Y-20021833D01*
X15136466Y-19799577D01*
X15166500Y-19571448D01*
X15166500Y-19361744D01*
X39265700Y-19361744D01*
X39265700Y-19591855D01*
X39290714Y-19781851D01*
X39295734Y-19819977D01*
X39295735Y-19819979D01*
X39355286Y-20042231D01*
X39443339Y-20254808D01*
X39443343Y-20254818D01*
X39558389Y-20454084D01*
X39698462Y-20636631D01*
X39698468Y-20636638D01*
X39861161Y-20799331D01*
X39861168Y-20799337D01*
X40043715Y-20939410D01*
X40242981Y-21054456D01*
X40242982Y-21054456D01*
X40242985Y-21054458D01*
X40455567Y-21142513D01*
X40677823Y-21202066D01*
X40905952Y-21232100D01*
X40905959Y-21232100D01*
X41136041Y-21232100D01*
X41136048Y-21232100D01*
X41364177Y-21202066D01*
X41586433Y-21142513D01*
X41799015Y-21054458D01*
X41998285Y-20939410D01*
X42180833Y-20799336D01*
X42343536Y-20636633D01*
X42483610Y-20454085D01*
X42598658Y-20254815D01*
X42686713Y-20042233D01*
X42746266Y-19819977D01*
X42776300Y-19591848D01*
X42776300Y-19361752D01*
X42776299Y-19361744D01*
X66850100Y-19361744D01*
X66850100Y-19591855D01*
X66875114Y-19781851D01*
X66880134Y-19819977D01*
X66880135Y-19819979D01*
X66939686Y-20042231D01*
X67027739Y-20254808D01*
X67027743Y-20254818D01*
X67142789Y-20454084D01*
X67282862Y-20636631D01*
X67282868Y-20636638D01*
X67445561Y-20799331D01*
X67445568Y-20799337D01*
X67628115Y-20939410D01*
X67827381Y-21054456D01*
X67827382Y-21054456D01*
X67827385Y-21054458D01*
X68039967Y-21142513D01*
X68262223Y-21202066D01*
X68490352Y-21232100D01*
X68490359Y-21232100D01*
X68720441Y-21232100D01*
X68720448Y-21232100D01*
X68948577Y-21202066D01*
X69170833Y-21142513D01*
X69383415Y-21054458D01*
X69582685Y-20939410D01*
X69765233Y-20799336D01*
X69927936Y-20636633D01*
X70068010Y-20454085D01*
X70183058Y-20254815D01*
X70271113Y-20042233D01*
X70330666Y-19819977D01*
X70360700Y-19591848D01*
X70360700Y-19361752D01*
X70360699Y-19361744D01*
X94434500Y-19361744D01*
X94434500Y-19591855D01*
X94459514Y-19781851D01*
X94464534Y-19819977D01*
X94464535Y-19819979D01*
X94524086Y-20042231D01*
X94612139Y-20254808D01*
X94612143Y-20254818D01*
X94727189Y-20454084D01*
X94867262Y-20636631D01*
X94867268Y-20636638D01*
X95029961Y-20799331D01*
X95029968Y-20799337D01*
X95212515Y-20939410D01*
X95411781Y-21054456D01*
X95411782Y-21054456D01*
X95411785Y-21054458D01*
X95624367Y-21142513D01*
X95846623Y-21202066D01*
X96074752Y-21232100D01*
X96074759Y-21232100D01*
X96304841Y-21232100D01*
X96304848Y-21232100D01*
X96532977Y-21202066D01*
X96755233Y-21142513D01*
X96967815Y-21054458D01*
X97167085Y-20939410D01*
X97349633Y-20799336D01*
X97512336Y-20636633D01*
X97652410Y-20454085D01*
X97767458Y-20254815D01*
X97855513Y-20042233D01*
X97915066Y-19819977D01*
X97945100Y-19591848D01*
X97945100Y-19361752D01*
X97915066Y-19133623D01*
X97855513Y-18911367D01*
X97767458Y-18698785D01*
X97652410Y-18499515D01*
X97512336Y-18316967D01*
X97512331Y-18316961D01*
X97349638Y-18154268D01*
X97349631Y-18154262D01*
X97167084Y-18014189D01*
X96967818Y-17899143D01*
X96967808Y-17899139D01*
X96755231Y-17811086D01*
X96644105Y-17781310D01*
X96532977Y-17751534D01*
X96494851Y-17746514D01*
X96304855Y-17721500D01*
X96304848Y-17721500D01*
X96074752Y-17721500D01*
X96074744Y-17721500D01*
X95857604Y-17750088D01*
X95846623Y-17751534D01*
X95799651Y-17764119D01*
X95624368Y-17811086D01*
X95411791Y-17899139D01*
X95411781Y-17899143D01*
X95212515Y-18014189D01*
X95029968Y-18154262D01*
X95029961Y-18154268D01*
X94867268Y-18316961D01*
X94867262Y-18316968D01*
X94727189Y-18499515D01*
X94612143Y-18698781D01*
X94612139Y-18698791D01*
X94524086Y-18911368D01*
X94464535Y-19133620D01*
X94464533Y-19133631D01*
X94434500Y-19361744D01*
X70360699Y-19361744D01*
X70330666Y-19133623D01*
X70271113Y-18911367D01*
X70183058Y-18698785D01*
X70068010Y-18499515D01*
X69927936Y-18316967D01*
X69927931Y-18316961D01*
X69765238Y-18154268D01*
X69765231Y-18154262D01*
X69582684Y-18014189D01*
X69383418Y-17899143D01*
X69383408Y-17899139D01*
X69170831Y-17811086D01*
X69059705Y-17781310D01*
X68948577Y-17751534D01*
X68910451Y-17746514D01*
X68720455Y-17721500D01*
X68720448Y-17721500D01*
X68490352Y-17721500D01*
X68490344Y-17721500D01*
X68273204Y-17750088D01*
X68262223Y-17751534D01*
X68215251Y-17764119D01*
X68039968Y-17811086D01*
X67827391Y-17899139D01*
X67827381Y-17899143D01*
X67628115Y-18014189D01*
X67445568Y-18154262D01*
X67445561Y-18154268D01*
X67282868Y-18316961D01*
X67282862Y-18316968D01*
X67142789Y-18499515D01*
X67027743Y-18698781D01*
X67027739Y-18698791D01*
X66939686Y-18911368D01*
X66880135Y-19133620D01*
X66880133Y-19133631D01*
X66850100Y-19361744D01*
X42776299Y-19361744D01*
X42746266Y-19133623D01*
X42686713Y-18911367D01*
X42598658Y-18698785D01*
X42483610Y-18499515D01*
X42343536Y-18316967D01*
X42343531Y-18316961D01*
X42180838Y-18154268D01*
X42180831Y-18154262D01*
X41998284Y-18014189D01*
X41799018Y-17899143D01*
X41799008Y-17899139D01*
X41586431Y-17811086D01*
X41475305Y-17781310D01*
X41364177Y-17751534D01*
X41326051Y-17746514D01*
X41136055Y-17721500D01*
X41136048Y-17721500D01*
X40905952Y-17721500D01*
X40905944Y-17721500D01*
X40688804Y-17750088D01*
X40677823Y-17751534D01*
X40630851Y-17764119D01*
X40455568Y-17811086D01*
X40242991Y-17899139D01*
X40242981Y-17899143D01*
X40043715Y-18014189D01*
X39861168Y-18154262D01*
X39861161Y-18154268D01*
X39698468Y-18316961D01*
X39698462Y-18316968D01*
X39558389Y-18499515D01*
X39443343Y-18698781D01*
X39443339Y-18698791D01*
X39355286Y-18911368D01*
X39295735Y-19133620D01*
X39295733Y-19133631D01*
X39265700Y-19361744D01*
X15166500Y-19361744D01*
X15166500Y-19341352D01*
X15136466Y-19113223D01*
X15076913Y-18890967D01*
X14988858Y-18678385D01*
X14873810Y-18479115D01*
X14749390Y-18316968D01*
X14733737Y-18296568D01*
X14733731Y-18296561D01*
X14571038Y-18133868D01*
X14571031Y-18133862D01*
X14388484Y-17993789D01*
X14189218Y-17878743D01*
X14189208Y-17878739D01*
X13976631Y-17790686D01*
X13865505Y-17760910D01*
X13754377Y-17731134D01*
X13716251Y-17726114D01*
X13526255Y-17701100D01*
X13526248Y-17701100D01*
X13296152Y-17701100D01*
X13296144Y-17701100D01*
X13079004Y-17729688D01*
X13068023Y-17731134D01*
X13021051Y-17743719D01*
X12845768Y-17790686D01*
X12633191Y-17878739D01*
X12633181Y-17878743D01*
X12433915Y-17993789D01*
X12251368Y-18133862D01*
X12251361Y-18133868D01*
X12088668Y-18296561D01*
X12088662Y-18296568D01*
X11948589Y-18479115D01*
X11833543Y-18678381D01*
X11833539Y-18678391D01*
X11745486Y-18890968D01*
X11685935Y-19113220D01*
X11685933Y-19113231D01*
X11655900Y-19341344D01*
X500500Y-19341344D01*
X500500Y-12786876D01*
X1029100Y-12786876D01*
X1029100Y-12968723D01*
X1057548Y-13148334D01*
X1057548Y-13148337D01*
X1113740Y-13321278D01*
X1113742Y-13321281D01*
X1196299Y-13483309D01*
X1303187Y-13630427D01*
X1431773Y-13759013D01*
X1578891Y-13865901D01*
X1740919Y-13948458D01*
X1740921Y-13948459D01*
X1902234Y-14000872D01*
X1913867Y-14004652D01*
X2093476Y-14033100D01*
X2093477Y-14033100D01*
X2275323Y-14033100D01*
X2275324Y-14033100D01*
X2454933Y-14004652D01*
X2454936Y-14004651D01*
X2454937Y-14004651D01*
X2627878Y-13948459D01*
X2627878Y-13948458D01*
X2627881Y-13948458D01*
X2789909Y-13865901D01*
X2937027Y-13759013D01*
X3065613Y-13630427D01*
X3172501Y-13483309D01*
X3255058Y-13321281D01*
X3311252Y-13148333D01*
X3339700Y-12968724D01*
X3339700Y-12786876D01*
X3311252Y-12607267D01*
X3311251Y-12607263D01*
X3311251Y-12607262D01*
X3255059Y-12434321D01*
X3255057Y-12434318D01*
X3249847Y-12424091D01*
X3172501Y-12272291D01*
X3065613Y-12125173D01*
X2947259Y-12006819D01*
X8521300Y-12006819D01*
X8521300Y-13697971D01*
X8521302Y-13697994D01*
X8524261Y-13723506D01*
X8524262Y-13723509D01*
X8570365Y-13827924D01*
X8570366Y-13827925D01*
X8651075Y-13908634D01*
X8755491Y-13954738D01*
X8781021Y-13957700D01*
X10472178Y-13957699D01*
X10497709Y-13954738D01*
X10602125Y-13908634D01*
X10682834Y-13827925D01*
X10728938Y-13723509D01*
X10731900Y-13697979D01*
X10731899Y-12006822D01*
X10728938Y-11981291D01*
X10682834Y-11876875D01*
X10602125Y-11796166D01*
X10602123Y-11796165D01*
X10497710Y-11750062D01*
X10472180Y-11747100D01*
X10123649Y-11747100D01*
X10056610Y-11727415D01*
X10035968Y-11710781D01*
X9626601Y-11301412D01*
X9626600Y-11301412D01*
X9217230Y-11710781D01*
X9155907Y-11744266D01*
X9129549Y-11747100D01*
X8781028Y-11747100D01*
X8781005Y-11747102D01*
X8755493Y-11750061D01*
X8755490Y-11750062D01*
X8651075Y-11796165D01*
X8570366Y-11876874D01*
X8524262Y-11981288D01*
X8524262Y-11981290D01*
X8521300Y-12006819D01*
X2947259Y-12006819D01*
X2937027Y-11996587D01*
X2789909Y-11889699D01*
X2627881Y-11807142D01*
X2627878Y-11807140D01*
X2454935Y-11750948D01*
X2306355Y-11727415D01*
X2275324Y-11722500D01*
X2093476Y-11722500D01*
X2062445Y-11727415D01*
X1913865Y-11750948D01*
X1913862Y-11750948D01*
X1740921Y-11807140D01*
X1740918Y-11807142D01*
X1578890Y-11889699D01*
X1494953Y-11950683D01*
X1431773Y-11996587D01*
X1431771Y-11996589D01*
X1431770Y-11996589D01*
X1303189Y-12125170D01*
X1303189Y-12125171D01*
X1303187Y-12125173D01*
X1274640Y-12164464D01*
X1196299Y-12272290D01*
X1113742Y-12434318D01*
X1113740Y-12434321D01*
X1057548Y-12607262D01*
X1057548Y-12607265D01*
X1029100Y-12786876D01*
X500500Y-12786876D01*
X500500Y-9462778D01*
X1080400Y-9462778D01*
X1080400Y-10020300D01*
X1794794Y-10020300D01*
X1784301Y-10030793D01*
X1718475Y-10144807D01*
X1684400Y-10271974D01*
X1684400Y-10403626D01*
X1718475Y-10530793D01*
X1784301Y-10644807D01*
X1794794Y-10655300D01*
X1080401Y-10655300D01*
X1080401Y-11212814D01*
X1095137Y-11286906D01*
X1095138Y-11286909D01*
X1151276Y-11370923D01*
X1235295Y-11427063D01*
X1235296Y-11427064D01*
X1309380Y-11441799D01*
X1866899Y-11441799D01*
X1866900Y-11441798D01*
X1866900Y-10727406D01*
X1877393Y-10737899D01*
X1991407Y-10803725D01*
X2118574Y-10837800D01*
X2250226Y-10837800D01*
X2377393Y-10803725D01*
X2491407Y-10737899D01*
X2501900Y-10727406D01*
X2501900Y-11441799D01*
X3059415Y-11441799D01*
X3133506Y-11427062D01*
X3133509Y-11427061D01*
X3217523Y-11370923D01*
X3273663Y-11286904D01*
X3273664Y-11286903D01*
X3288399Y-11212821D01*
X3288400Y-11212818D01*
X3288400Y-10748585D01*
X8572600Y-10748585D01*
X8572600Y-10956214D01*
X8613102Y-11159833D01*
X8613104Y-11159841D01*
X8688390Y-11341596D01*
X9177587Y-10852400D01*
X9177587Y-10852399D01*
X9124927Y-10799739D01*
X9226600Y-10799739D01*
X9226600Y-10905061D01*
X9253859Y-11006794D01*
X9306520Y-11098006D01*
X9380994Y-11172480D01*
X9472206Y-11225141D01*
X9573939Y-11252400D01*
X9679261Y-11252400D01*
X9780994Y-11225141D01*
X9872206Y-11172480D01*
X9946680Y-11098006D01*
X9999341Y-11006794D01*
X10026600Y-10905061D01*
X10026600Y-10852399D01*
X10075612Y-10852399D01*
X10075612Y-10852400D01*
X10564808Y-11341596D01*
X10640096Y-11159837D01*
X10640097Y-11159833D01*
X10680599Y-10956214D01*
X10680600Y-10956211D01*
X10680600Y-10748589D01*
X10680599Y-10748585D01*
X10640097Y-10544966D01*
X10640095Y-10544958D01*
X10564808Y-10363202D01*
X10075612Y-10852399D01*
X10026600Y-10852399D01*
X10026600Y-10799739D01*
X9999341Y-10698006D01*
X9946680Y-10606794D01*
X9872206Y-10532320D01*
X9780994Y-10479659D01*
X9679261Y-10452400D01*
X9573939Y-10452400D01*
X9472206Y-10479659D01*
X9380994Y-10532320D01*
X9306520Y-10606794D01*
X9253859Y-10698006D01*
X9226600Y-10799739D01*
X9124927Y-10799739D01*
X8688390Y-10363202D01*
X8613104Y-10544958D01*
X8613102Y-10544966D01*
X8572600Y-10748585D01*
X3288400Y-10748585D01*
X3288400Y-10655300D01*
X2574006Y-10655300D01*
X2584499Y-10644807D01*
X2650325Y-10530793D01*
X2684400Y-10403626D01*
X2684400Y-10271974D01*
X2650325Y-10144807D01*
X2584499Y-10030793D01*
X2574006Y-10020300D01*
X3288399Y-10020300D01*
X3288399Y-9914190D01*
X9137402Y-9914190D01*
X9626600Y-10403387D01*
X9626601Y-10403387D01*
X10115796Y-9914190D01*
X9934041Y-9838904D01*
X9934033Y-9838902D01*
X9730414Y-9798400D01*
X9522785Y-9798400D01*
X9319166Y-9838902D01*
X9319158Y-9838904D01*
X9137402Y-9914190D01*
X3288399Y-9914190D01*
X3288399Y-9462785D01*
X3273662Y-9388693D01*
X3273661Y-9388690D01*
X3217523Y-9304676D01*
X3133504Y-9248536D01*
X3133503Y-9248535D01*
X3059421Y-9233800D01*
X2501900Y-9233800D01*
X2501900Y-9948194D01*
X2491407Y-9937701D01*
X2377393Y-9871875D01*
X2250226Y-9837800D01*
X2118574Y-9837800D01*
X1991407Y-9871875D01*
X1877393Y-9937701D01*
X1866900Y-9948194D01*
X1866900Y-9233800D01*
X1309385Y-9233800D01*
X1235293Y-9248537D01*
X1235290Y-9248538D01*
X1151276Y-9304676D01*
X1095136Y-9388695D01*
X1095135Y-9388696D01*
X1080400Y-9462778D01*
X500500Y-9462778D01*
X500500Y-5135221D01*
X520185Y-5068182D01*
X572989Y-5022427D01*
X642147Y-5012483D01*
X705703Y-5041508D01*
X743477Y-5100286D01*
X746117Y-5111030D01*
X764748Y-5204697D01*
X771410Y-5238186D01*
X807121Y-5355909D01*
X879294Y-5593831D01*
X956949Y-5781306D01*
X1021165Y-5936338D01*
X1021518Y-5937189D01*
X1021520Y-5937194D01*
X1196703Y-6264938D01*
X1196714Y-6264956D01*
X1403180Y-6573954D01*
X1403190Y-6573968D01*
X1638960Y-6861255D01*
X1901744Y-7124039D01*
X1901749Y-7124043D01*
X1901750Y-7124044D01*
X2189037Y-7359814D01*
X2498050Y-7566290D01*
X2498059Y-7566295D01*
X2498061Y-7566296D01*
X2825805Y-7741479D01*
X2825807Y-7741479D01*
X2825813Y-7741483D01*
X3169170Y-7883706D01*
X3524814Y-7991590D01*
X3889319Y-8064095D01*
X4259177Y-8100522D01*
X4259180Y-8100522D01*
X4630820Y-8100522D01*
X4630823Y-8100522D01*
X5000681Y-8064095D01*
X5365186Y-7991590D01*
X5720830Y-7883706D01*
X6064187Y-7741483D01*
X6391950Y-7566290D01*
X6700963Y-7359814D01*
X6988250Y-7124044D01*
X7251044Y-6861250D01*
X7486814Y-6573963D01*
X7693290Y-6264950D01*
X7868483Y-5937187D01*
X8010706Y-5593830D01*
X8118590Y-5238186D01*
X8191095Y-4873681D01*
X8227522Y-4503823D01*
X8227522Y-4132177D01*
X8191095Y-3762319D01*
X8118590Y-3397814D01*
X8010706Y-3042170D01*
X7920008Y-2823205D01*
X13261367Y-2823205D01*
X13261367Y-2997194D01*
X13288582Y-3169025D01*
X13342346Y-3334490D01*
X13421329Y-3489503D01*
X13524190Y-3631080D01*
X13547669Y-3696887D01*
X13531843Y-3764941D01*
X13481737Y-3813635D01*
X13473958Y-3817399D01*
X13391141Y-3853966D01*
X13310433Y-3934674D01*
X13264329Y-4039088D01*
X13264329Y-4039090D01*
X13261367Y-4064619D01*
X13261367Y-5755771D01*
X13261369Y-5755794D01*
X13264328Y-5781306D01*
X13264329Y-5781309D01*
X13310432Y-5885724D01*
X13310433Y-5885725D01*
X13391142Y-5966434D01*
X13495558Y-6012538D01*
X13521088Y-6015500D01*
X13734167Y-6015499D01*
X13801206Y-6035183D01*
X13846961Y-6087987D01*
X13858167Y-6139499D01*
X13858167Y-7417279D01*
X13862275Y-7432610D01*
X13866500Y-7464702D01*
X13866500Y-12047643D01*
X13846815Y-12114682D01*
X13811391Y-12150745D01*
X13701859Y-12223932D01*
X13701855Y-12223935D01*
X13561835Y-12363955D01*
X13561832Y-12363959D01*
X13451818Y-12528605D01*
X13451813Y-12528614D01*
X13376033Y-12711564D01*
X13376031Y-12711572D01*
X13337400Y-12905782D01*
X13337400Y-13103817D01*
X13376031Y-13298027D01*
X13376033Y-13298035D01*
X13451813Y-13480985D01*
X13451818Y-13480994D01*
X13561832Y-13645640D01*
X13561835Y-13645644D01*
X13701855Y-13785664D01*
X13701859Y-13785667D01*
X13866505Y-13895681D01*
X13866511Y-13895684D01*
X13866512Y-13895685D01*
X14049465Y-13971467D01*
X14216293Y-14004651D01*
X14243682Y-14010099D01*
X14243686Y-14010100D01*
X14243687Y-14010100D01*
X14441714Y-14010100D01*
X14441715Y-14010099D01*
X14635935Y-13971467D01*
X14818888Y-13895685D01*
X14983541Y-13785667D01*
X15123567Y-13645641D01*
X15233585Y-13480988D01*
X15309367Y-13298035D01*
X15348000Y-13103813D01*
X15348000Y-12905787D01*
X15347999Y-12905782D01*
X15877400Y-12905782D01*
X15877400Y-13103817D01*
X15916031Y-13298027D01*
X15916033Y-13298035D01*
X15991813Y-13480985D01*
X15991818Y-13480994D01*
X16101832Y-13645640D01*
X16101835Y-13645644D01*
X16241855Y-13785664D01*
X16241859Y-13785667D01*
X16406505Y-13895681D01*
X16406511Y-13895684D01*
X16406512Y-13895685D01*
X16589465Y-13971467D01*
X16756293Y-14004651D01*
X16783682Y-14010099D01*
X16783686Y-14010100D01*
X16783687Y-14010100D01*
X16981714Y-14010100D01*
X16981715Y-14010099D01*
X17175935Y-13971467D01*
X17358888Y-13895685D01*
X17523541Y-13785667D01*
X17663567Y-13645641D01*
X17773585Y-13480988D01*
X17849367Y-13298035D01*
X17888000Y-13103813D01*
X17888000Y-12905787D01*
X17849367Y-12711565D01*
X17773585Y-12528612D01*
X17773584Y-12528611D01*
X17773581Y-12528605D01*
X17663567Y-12363959D01*
X17663564Y-12363955D01*
X17523544Y-12223935D01*
X17523540Y-12223932D01*
X17358894Y-12113918D01*
X17358885Y-12113913D01*
X17175935Y-12038133D01*
X17175927Y-12038131D01*
X16981717Y-11999500D01*
X16981713Y-11999500D01*
X16783687Y-11999500D01*
X16783682Y-11999500D01*
X16589472Y-12038131D01*
X16589464Y-12038133D01*
X16406514Y-12113913D01*
X16406505Y-12113918D01*
X16241859Y-12223932D01*
X16241855Y-12223935D01*
X16101835Y-12363955D01*
X16101832Y-12363959D01*
X15991818Y-12528605D01*
X15991813Y-12528614D01*
X15916033Y-12711564D01*
X15916031Y-12711572D01*
X15877400Y-12905782D01*
X15347999Y-12905782D01*
X15309367Y-12711565D01*
X15233585Y-12528612D01*
X15233584Y-12528611D01*
X15233581Y-12528605D01*
X15123567Y-12363959D01*
X15123564Y-12363955D01*
X14983544Y-12223935D01*
X14983538Y-12223930D01*
X14938608Y-12193908D01*
X14893803Y-12140295D01*
X14883500Y-12090807D01*
X14883500Y-7275055D01*
X14879585Y-7260446D01*
X14879579Y-7260424D01*
X14879387Y-7259707D01*
X14875167Y-7227632D01*
X14875167Y-6139499D01*
X14894852Y-6072460D01*
X14947656Y-6026705D01*
X14999167Y-6015499D01*
X15212239Y-6015499D01*
X15212245Y-6015499D01*
X15237776Y-6012538D01*
X15342192Y-5966434D01*
X15422901Y-5885725D01*
X15469005Y-5781309D01*
X15471967Y-5755779D01*
X15471966Y-4064622D01*
X15469005Y-4039091D01*
X15422901Y-3934675D01*
X15342192Y-3853966D01*
X15259375Y-3817398D01*
X15243018Y-3803581D01*
X15223977Y-3793788D01*
X15216857Y-3781482D01*
X15205999Y-3772311D01*
X15199709Y-3751846D01*
X15188985Y-3733312D01*
X15189648Y-3719112D01*
X15185472Y-3705525D01*
X15191245Y-3684906D01*
X15192244Y-3663518D01*
X15203032Y-3642809D01*
X15204311Y-3638243D01*
X15208387Y-3632132D01*
X15209666Y-3630331D01*
X15209743Y-3630255D01*
X15312004Y-3489504D01*
X15317716Y-3478292D01*
X15322993Y-3470868D01*
X15343570Y-3454654D01*
X15361559Y-3435608D01*
X15370975Y-3433061D01*
X15377873Y-3427626D01*
X15398379Y-3425648D01*
X15424068Y-3418700D01*
X16491210Y-3418700D01*
X16558249Y-3438385D01*
X16578891Y-3455019D01*
X18733781Y-5609908D01*
X18767266Y-5671231D01*
X18770100Y-5697589D01*
X18770100Y-13554344D01*
X18804753Y-13683675D01*
X18827750Y-13723506D01*
X18871699Y-13799627D01*
X21226973Y-16154901D01*
X21342926Y-16221847D01*
X21472255Y-16256500D01*
X21472257Y-16256500D01*
X48149143Y-16256500D01*
X48149145Y-16256500D01*
X48278474Y-16221847D01*
X48394427Y-16154901D01*
X51638701Y-12910627D01*
X51705647Y-12794674D01*
X51740300Y-12665345D01*
X51740300Y-12531455D01*
X51740300Y-11550258D01*
X51759985Y-11483219D01*
X51808008Y-11439772D01*
X51824206Y-11431519D01*
X51968141Y-11326944D01*
X52093944Y-11201141D01*
X52198519Y-11057206D01*
X52279290Y-10898685D01*
X52334268Y-10729479D01*
X52362100Y-10553757D01*
X52362100Y-10375843D01*
X52641500Y-10375843D01*
X52641500Y-10553756D01*
X52669332Y-10729480D01*
X52724308Y-10898682D01*
X52783474Y-11014800D01*
X52805081Y-11057206D01*
X52909656Y-11201141D01*
X53035459Y-11326944D01*
X53179394Y-11431519D01*
X53289743Y-11487745D01*
X53337917Y-11512291D01*
X53422518Y-11539779D01*
X53507121Y-11567268D01*
X53682843Y-11595100D01*
X53682844Y-11595100D01*
X53860756Y-11595100D01*
X53860757Y-11595100D01*
X54036479Y-11567268D01*
X54205685Y-11512290D01*
X54364206Y-11431519D01*
X54508141Y-11326944D01*
X54633944Y-11201141D01*
X54738519Y-11057206D01*
X54819290Y-10898685D01*
X54874268Y-10729479D01*
X54902100Y-10553757D01*
X54902100Y-10375843D01*
X54874268Y-10200121D01*
X54841379Y-10098897D01*
X54819291Y-10030917D01*
X54811582Y-10015787D01*
X54738519Y-9872394D01*
X54633944Y-9728459D01*
X54508141Y-9602656D01*
X54364206Y-9498081D01*
X54205682Y-9417308D01*
X54036480Y-9362332D01*
X53948618Y-9348416D01*
X53860757Y-9334500D01*
X53682843Y-9334500D01*
X53624269Y-9343777D01*
X53507119Y-9362332D01*
X53337917Y-9417308D01*
X53179393Y-9498081D01*
X53097273Y-9557745D01*
X53035459Y-9602656D01*
X53035457Y-9602658D01*
X53035456Y-9602658D01*
X52909658Y-9728456D01*
X52909658Y-9728457D01*
X52909656Y-9728459D01*
X52864745Y-9790273D01*
X52805081Y-9872393D01*
X52724308Y-10030917D01*
X52669332Y-10200119D01*
X52641500Y-10375843D01*
X52362100Y-10375843D01*
X52334268Y-10200121D01*
X52301379Y-10098897D01*
X52279291Y-10030917D01*
X52271582Y-10015787D01*
X52198519Y-9872394D01*
X52093944Y-9728459D01*
X51968141Y-9602656D01*
X51824206Y-9498081D01*
X51665682Y-9417308D01*
X51496480Y-9362332D01*
X51408618Y-9348416D01*
X51320757Y-9334500D01*
X51142843Y-9334500D01*
X51084269Y-9343777D01*
X50967119Y-9362332D01*
X50797917Y-9417308D01*
X50639393Y-9498081D01*
X50557273Y-9557745D01*
X50495459Y-9602656D01*
X50495457Y-9602658D01*
X50495456Y-9602658D01*
X50369658Y-9728456D01*
X50369658Y-9728457D01*
X50369656Y-9728459D01*
X50324745Y-9790273D01*
X50265081Y-9872393D01*
X50184308Y-10030917D01*
X50129332Y-10200119D01*
X50101500Y-10375843D01*
X50101500Y-10553756D01*
X50129332Y-10729480D01*
X50184308Y-10898682D01*
X50243474Y-11014800D01*
X50265081Y-11057206D01*
X50369656Y-11201141D01*
X50495459Y-11326944D01*
X50639394Y-11431519D01*
X50655592Y-11439772D01*
X50706389Y-11487745D01*
X50723300Y-11550258D01*
X50723300Y-12336410D01*
X50703615Y-12403449D01*
X50686981Y-12424091D01*
X47907891Y-15203181D01*
X47846568Y-15236666D01*
X47820210Y-15239500D01*
X21801190Y-15239500D01*
X21734151Y-15219815D01*
X21713509Y-15203181D01*
X19823419Y-13313091D01*
X19789934Y-13251768D01*
X19787100Y-13225410D01*
X19787100Y-5368657D01*
X19787100Y-5368655D01*
X19752447Y-5239326D01*
X19685501Y-5123374D01*
X19590826Y-5028699D01*
X17065427Y-2503299D01*
X16996149Y-2463301D01*
X16949475Y-2436353D01*
X16884809Y-2419026D01*
X16820145Y-2401700D01*
X16820144Y-2401700D01*
X15424068Y-2401700D01*
X15357029Y-2382015D01*
X15313584Y-2333996D01*
X15312003Y-2330894D01*
X15209748Y-2190151D01*
X15209744Y-2190146D01*
X15086720Y-2067122D01*
X15086715Y-2067118D01*
X14945974Y-1964865D01*
X14945973Y-1964864D01*
X14945971Y-1964863D01*
X14790955Y-1885878D01*
X14748043Y-1871935D01*
X14625492Y-1832115D01*
X14453661Y-1804900D01*
X14453656Y-1804900D01*
X14279678Y-1804900D01*
X14279673Y-1804900D01*
X14107841Y-1832115D01*
X13942376Y-1885879D01*
X13787359Y-1964865D01*
X13646618Y-2067118D01*
X13646613Y-2067122D01*
X13523589Y-2190146D01*
X13523585Y-2190151D01*
X13421332Y-2330892D01*
X13342346Y-2485909D01*
X13288582Y-2651374D01*
X13261367Y-2823205D01*
X7920008Y-2823205D01*
X7868483Y-2698813D01*
X7843126Y-2651374D01*
X7693296Y-2371061D01*
X7693295Y-2371059D01*
X7693290Y-2371050D01*
X7486814Y-2062037D01*
X7251044Y-1774750D01*
X7251043Y-1774749D01*
X7251039Y-1774744D01*
X6988255Y-1511960D01*
X6700968Y-1276190D01*
X6700967Y-1276189D01*
X6700963Y-1276186D01*
X6391950Y-1069710D01*
X6391945Y-1069707D01*
X6391938Y-1069703D01*
X6064194Y-894520D01*
X6064189Y-894518D01*
X5720825Y-752292D01*
X5690721Y-743160D01*
X5632283Y-704863D01*
X5603826Y-641050D01*
X5614387Y-571983D01*
X5660612Y-519590D01*
X5726717Y-500500D01*
X23093611Y-500500D01*
X23160650Y-520185D01*
G37*
%TD.AperFunction*%
%TD*%
M02*
