%TF.GenerationSoftware,KiCad,Pcbnew,9.0.0*%
%TF.CreationDate,2025-03-26T11:44:13+11:00*%
%TF.ProjectId,tlv320aic3104 audio rev K twist,746c7633-3230-4616-9963-333130342061,Rev F*%
%TF.SameCoordinates,Original*%
%TF.FileFunction,Soldermask,Top*%
%TF.FilePolarity,Negative*%
%FSLAX46Y46*%
G04 Gerber Fmt 4.6, Leading zero omitted, Abs format (unit mm)*
G04 Created by KiCad (PCBNEW 9.0.0) date 2025-03-26 11:44:13*
%MOMM*%
%LPD*%
G01*
G04 APERTURE LIST*
G04 Aperture macros list*
%AMRoundRect*
0 Rectangle with rounded corners*
0 $1 Rounding radius*
0 $2 $3 $4 $5 $6 $7 $8 $9 X,Y pos of 4 corners*
0 Add a 4 corners polygon primitive as box body*
4,1,4,$2,$3,$4,$5,$6,$7,$8,$9,$2,$3,0*
0 Add four circle primitives for the rounded corners*
1,1,$1+$1,$2,$3*
1,1,$1+$1,$4,$5*
1,1,$1+$1,$6,$7*
1,1,$1+$1,$8,$9*
0 Add four rect primitives between the rounded corners*
20,1,$1+$1,$2,$3,$4,$5,0*
20,1,$1+$1,$4,$5,$6,$7,0*
20,1,$1+$1,$6,$7,$8,$9,0*
20,1,$1+$1,$8,$9,$2,$3,0*%
%AMRotRect*
0 Rectangle, with rotation*
0 The origin of the aperture is its center*
0 $1 length*
0 $2 width*
0 $3 Rotation angle, in degrees counterclockwise*
0 Add horizontal line*
21,1,$1,$2,0,0,$3*%
%AMFreePoly0*
4,1,23,0.550000,-0.750000,0.000000,-0.750000,0.000000,-0.745722,-0.065263,-0.745722,-0.191342,-0.711940,-0.304381,-0.646677,-0.396677,-0.554381,-0.461940,-0.441342,-0.495722,-0.315263,-0.495722,-0.250000,-0.500000,-0.250000,-0.500000,0.250000,-0.495722,0.250000,-0.495722,0.315263,-0.461940,0.441342,-0.396677,0.554381,-0.304381,0.646677,-0.191342,0.711940,-0.065263,0.745722,0.000000,0.745722,
0.000000,0.750000,0.550000,0.750000,0.550000,-0.750000,0.550000,-0.750000,$1*%
%AMFreePoly1*
4,1,23,0.000000,0.745722,0.065263,0.745722,0.191342,0.711940,0.304381,0.646677,0.396677,0.554381,0.461940,0.441342,0.495722,0.315263,0.495722,0.250000,0.500000,0.250000,0.500000,-0.250000,0.495722,-0.250000,0.495722,-0.315263,0.461940,-0.441342,0.396677,-0.554381,0.304381,-0.646677,0.191342,-0.711940,0.065263,-0.745722,0.000000,-0.745722,0.000000,-0.750000,-0.550000,-0.750000,
-0.550000,0.750000,0.000000,0.750000,0.000000,0.745722,0.000000,0.745722,$1*%
G04 Aperture macros list end*
%ADD10RoundRect,0.267317X0.280683X0.470683X-0.280683X0.470683X-0.280683X-0.470683X0.280683X-0.470683X0*%
%ADD11R,2.000000X2.000000*%
%ADD12RoundRect,0.244000X0.269000X-0.244000X0.269000X0.244000X-0.269000X0.244000X-0.269000X-0.244000X0*%
%ADD13RoundRect,0.219000X-0.294000X0.219000X-0.294000X-0.219000X0.294000X-0.219000X0.294000X0.219000X0*%
%ADD14RotRect,0.300000X0.850000X45.000000*%
%ADD15RotRect,0.300000X0.850000X315.000000*%
%ADD16RotRect,3.550000X3.550000X315.000000*%
%ADD17RoundRect,0.219000X-0.219000X-0.294000X0.219000X-0.294000X0.219000X0.294000X-0.219000X0.294000X0*%
%ADD18RoundRect,0.269000X-0.494000X0.269000X-0.494000X-0.269000X0.494000X-0.269000X0.494000X0.269000X0*%
%ADD19R,1.700000X1.700000*%
%ADD20O,1.700000X1.700000*%
%ADD21R,1.475000X0.450000*%
%ADD22RoundRect,0.250000X0.300000X-1.000000X0.300000X1.000000X-0.300000X1.000000X-0.300000X-1.000000X0*%
%ADD23RoundRect,0.250000X1.550000X-0.920000X1.550000X0.920000X-1.550000X0.920000X-1.550000X-0.920000X0*%
%ADD24FreePoly0,90.000000*%
%ADD25R,1.500000X1.000000*%
%ADD26FreePoly1,90.000000*%
%ADD27RoundRect,0.250000X-0.300000X1.000000X-0.300000X-1.000000X0.300000X-1.000000X0.300000X1.000000X0*%
%ADD28RoundRect,0.250000X-1.550000X0.920000X-1.550000X-0.920000X1.550000X-0.920000X1.550000X0.920000X0*%
%ADD29RoundRect,0.244000X-0.244000X-0.269000X0.244000X-0.269000X0.244000X0.269000X-0.244000X0.269000X0*%
%ADD30RoundRect,0.244000X0.244000X0.269000X-0.244000X0.269000X-0.244000X-0.269000X0.244000X-0.269000X0*%
%ADD31C,3.200000*%
%ADD32RoundRect,0.269000X0.269000X0.494000X-0.269000X0.494000X-0.269000X-0.494000X0.269000X-0.494000X0*%
%ADD33R,1.725000X1.725000*%
%ADD34C,1.725000*%
%ADD35RoundRect,0.244000X-0.269000X0.244000X-0.269000X-0.244000X0.269000X-0.244000X0.269000X0.244000X0*%
%ADD36RoundRect,0.219000X0.219000X0.294000X-0.219000X0.294000X-0.219000X-0.294000X0.219000X-0.294000X0*%
%ADD37RoundRect,0.269000X0.494000X-0.269000X0.494000X0.269000X-0.494000X0.269000X-0.494000X-0.269000X0*%
%ADD38R,1.650000X1.650000*%
%ADD39C,1.650000*%
%ADD40RoundRect,0.150000X-0.512500X-0.150000X0.512500X-0.150000X0.512500X0.150000X-0.512500X0.150000X0*%
%ADD41C,1.612800*%
%ADD42RoundRect,0.269000X-0.269000X-0.494000X0.269000X-0.494000X0.269000X0.494000X-0.269000X0.494000X0*%
G04 APERTURE END LIST*
%TO.C,JP1*%
G36*
X17995200Y-18682400D02*
G01*
X19495200Y-18682400D01*
X19495200Y-17182400D01*
X17995200Y-17182400D01*
X17995200Y-18682400D01*
G37*
%TO.C,JP4*%
G36*
X47510000Y-15558200D02*
G01*
X49010000Y-15558200D01*
X49010000Y-14058200D01*
X47510000Y-14058200D01*
X47510000Y-15558200D01*
G37*
%TO.C,JP5*%
G36*
X44055600Y-15558200D02*
G01*
X45555600Y-15558200D01*
X45555600Y-14058200D01*
X44055600Y-14058200D01*
X44055600Y-15558200D01*
G37*
%TO.C,JP6*%
G36*
X40941300Y-15583600D02*
G01*
X42441300Y-15583600D01*
X42441300Y-14083600D01*
X40941300Y-14083600D01*
X40941300Y-15583600D01*
G37*
%TD*%
D10*
%TO.C,R7*%
X37885000Y-20450000D03*
X36065000Y-20450000D03*
%TD*%
D11*
%TO.C,TP3*%
X48056800Y-1803400D03*
%TD*%
D12*
%TO.C,C28*%
X27813000Y-95725200D03*
X27813000Y-94165200D03*
%TD*%
D11*
%TO.C,TP1*%
X54051200Y-52781200D03*
%TD*%
D13*
%TO.C,R11*%
X21488400Y-95725400D03*
X21488400Y-97365400D03*
%TD*%
D14*
%TO.C,IC3*%
X37376425Y-89054352D03*
X37022872Y-89407905D03*
X36669318Y-89761458D03*
X36315765Y-90115012D03*
X35962212Y-90468565D03*
X35608658Y-90822118D03*
X35255105Y-91175672D03*
X34901552Y-91529225D03*
D15*
X34901552Y-92519175D03*
X35255105Y-92872728D03*
X35608658Y-93226282D03*
X35962212Y-93579835D03*
X36315765Y-93933388D03*
X36669318Y-94286942D03*
X37022872Y-94640495D03*
X37376425Y-94994048D03*
D14*
X38366375Y-94994048D03*
X38719928Y-94640495D03*
X39073482Y-94286942D03*
X39427035Y-93933388D03*
X39780588Y-93579835D03*
X40134142Y-93226282D03*
X40487695Y-92872728D03*
X40841248Y-92519175D03*
D15*
X40841248Y-91529225D03*
X40487695Y-91175672D03*
X40134142Y-90822118D03*
X39780588Y-90468565D03*
X39427035Y-90115012D03*
X39073482Y-89761458D03*
X38719928Y-89407905D03*
X38366375Y-89054352D03*
D16*
X37871400Y-92024200D03*
%TD*%
D12*
%TO.C,C38*%
X39370000Y-50513200D03*
X39370000Y-48953200D03*
%TD*%
%TO.C,C35*%
X43586400Y-43172600D03*
X43586400Y-41612600D03*
%TD*%
D17*
%TO.C,R4*%
X48125800Y-22047200D03*
X49765800Y-22047200D03*
%TD*%
D18*
%TO.C,C34*%
X46736000Y-57673200D03*
X46736000Y-59573200D03*
%TD*%
D13*
%TO.C,R8*%
X24079200Y-95725400D03*
X24079200Y-97365400D03*
%TD*%
D14*
%TO.C,IC5*%
X37376425Y-56593152D03*
X37022872Y-56946705D03*
X36669318Y-57300258D03*
X36315765Y-57653812D03*
X35962212Y-58007365D03*
X35608658Y-58360918D03*
X35255105Y-58714472D03*
X34901552Y-59068025D03*
D15*
X34901552Y-60057975D03*
X35255105Y-60411528D03*
X35608658Y-60765082D03*
X35962212Y-61118635D03*
X36315765Y-61472188D03*
X36669318Y-61825742D03*
X37022872Y-62179295D03*
X37376425Y-62532848D03*
D14*
X38366375Y-62532848D03*
X38719928Y-62179295D03*
X39073482Y-61825742D03*
X39427035Y-61472188D03*
X39780588Y-61118635D03*
X40134142Y-60765082D03*
X40487695Y-60411528D03*
X40841248Y-60057975D03*
D15*
X40841248Y-59068025D03*
X40487695Y-58714472D03*
X40134142Y-58360918D03*
X39780588Y-58007365D03*
X39427035Y-57653812D03*
X39073482Y-57300258D03*
X38719928Y-56946705D03*
X38366375Y-56593152D03*
D16*
X37871400Y-59563000D03*
%TD*%
D19*
%TO.C,J1*%
X5130800Y-27330400D03*
D20*
X7670800Y-27330400D03*
X10210800Y-27330400D03*
%TD*%
D14*
%TO.C,IC4*%
X37376425Y-72798352D03*
X37022872Y-73151905D03*
X36669318Y-73505458D03*
X36315765Y-73859012D03*
X35962212Y-74212565D03*
X35608658Y-74566118D03*
X35255105Y-74919672D03*
X34901552Y-75273225D03*
D15*
X34901552Y-76263175D03*
X35255105Y-76616728D03*
X35608658Y-76970282D03*
X35962212Y-77323835D03*
X36315765Y-77677388D03*
X36669318Y-78030942D03*
X37022872Y-78384495D03*
X37376425Y-78738048D03*
D14*
X38366375Y-78738048D03*
X38719928Y-78384495D03*
X39073482Y-78030942D03*
X39427035Y-77677388D03*
X39780588Y-77323835D03*
X40134142Y-76970282D03*
X40487695Y-76616728D03*
X40841248Y-76263175D03*
D15*
X40841248Y-75273225D03*
X40487695Y-74919672D03*
X40134142Y-74566118D03*
X39780588Y-74212565D03*
X39427035Y-73859012D03*
X39073482Y-73505458D03*
X38719928Y-73151905D03*
X38366375Y-72798352D03*
D16*
X37871400Y-75768200D03*
%TD*%
D21*
%TO.C,IC2*%
X38625000Y-33694800D03*
X38625000Y-33044800D03*
X38625000Y-32394800D03*
X38625000Y-31744800D03*
X38625000Y-31094800D03*
X38625000Y-30444800D03*
X38625000Y-29794800D03*
X38625000Y-29144800D03*
X32749000Y-29144800D03*
X32749000Y-29794800D03*
X32749000Y-30444800D03*
X32749000Y-31094800D03*
X32749000Y-31744800D03*
X32749000Y-32394800D03*
X32749000Y-33044800D03*
X32749000Y-33694800D03*
%TD*%
D13*
%TO.C,R3*%
X30251400Y-14369200D03*
X30251400Y-16009200D03*
%TD*%
D22*
%TO.C,U2*%
X6922800Y-36577800D03*
X4622800Y-36577800D03*
X2322800Y-36577800D03*
D23*
X4622800Y-42547800D03*
%TD*%
D24*
%TO.C,JP1*%
X18745200Y-19232400D03*
D25*
X18745200Y-17932400D03*
D26*
X18745200Y-16632400D03*
%TD*%
D18*
%TO.C,C22*%
X46786800Y-73675200D03*
X46786800Y-75575200D03*
%TD*%
D12*
%TO.C,C40*%
X24257000Y-62933800D03*
X24257000Y-61373800D03*
%TD*%
D18*
%TO.C,C20*%
X46710600Y-87772200D03*
X46710600Y-89672200D03*
%TD*%
%TO.C,C39*%
X19278600Y-58790800D03*
X19278600Y-60690800D03*
%TD*%
D11*
%TO.C,TP4*%
X35610800Y-100050600D03*
%TD*%
D27*
%TO.C,U1*%
X53630800Y-19327600D03*
X55930800Y-19327600D03*
X58230800Y-19327600D03*
D28*
X55930800Y-13357600D03*
%TD*%
D29*
%TO.C,C7*%
X7729000Y-78384400D03*
X9289000Y-78384400D03*
%TD*%
D18*
%TO.C,C41*%
X20980400Y-42458600D03*
X20980400Y-44358600D03*
%TD*%
D30*
%TO.C,C4*%
X53129400Y-78460600D03*
X51569400Y-78460600D03*
%TD*%
D29*
%TO.C,C3*%
X7678200Y-80670400D03*
X9238200Y-80670400D03*
%TD*%
D31*
%TO.C,H3*%
X4572000Y-50052200D03*
%TD*%
D32*
%TO.C,C5*%
X49895800Y-47193200D03*
X47995800Y-47193200D03*
%TD*%
D33*
%TO.C,POWER1*%
X55000000Y-33756600D03*
D34*
X57540000Y-33756600D03*
X55000000Y-36296600D03*
X57540000Y-36296600D03*
X55000000Y-38836600D03*
X57540000Y-38836600D03*
X55000000Y-41376600D03*
X57540000Y-41376600D03*
X55000000Y-43916600D03*
X57540000Y-43916600D03*
%TD*%
D35*
%TO.C,C17*%
X26924000Y-71940200D03*
X26924000Y-73500200D03*
%TD*%
D12*
%TO.C,C23*%
X39319200Y-99611400D03*
X39319200Y-98051400D03*
%TD*%
%TO.C,C19*%
X43637200Y-89730800D03*
X43637200Y-88170800D03*
%TD*%
%TO.C,C33*%
X43611800Y-59504800D03*
X43611800Y-57944800D03*
%TD*%
D13*
%TO.C,R1*%
X14909800Y-17950600D03*
X14909800Y-19590600D03*
%TD*%
D12*
%TO.C,C26*%
X23952200Y-80104200D03*
X23952200Y-78544200D03*
%TD*%
D36*
%TO.C,R6*%
X34398800Y-36042600D03*
X32758800Y-36042600D03*
%TD*%
D12*
%TO.C,C16*%
X21386800Y-88333800D03*
X21386800Y-86773800D03*
%TD*%
D18*
%TO.C,C36*%
X46659800Y-41315600D03*
X46659800Y-43215600D03*
%TD*%
D12*
%TO.C,C32*%
X20980400Y-38582600D03*
X20980400Y-37022600D03*
%TD*%
D10*
%TO.C,R5*%
X32135000Y-20475000D03*
X30315000Y-20475000D03*
%TD*%
D12*
%TO.C,C42*%
X25806400Y-44544200D03*
X25806400Y-42984200D03*
%TD*%
D18*
%TO.C,C27*%
X18364200Y-93919000D03*
X18364200Y-95819000D03*
%TD*%
D31*
%TO.C,H2*%
X57607200Y-3073400D03*
%TD*%
D24*
%TO.C,JP4*%
X48260000Y-16108200D03*
D25*
X48260000Y-14808200D03*
D26*
X48260000Y-13508200D03*
%TD*%
D30*
%TO.C,C14*%
X29050200Y-32562800D03*
X27490200Y-32562800D03*
%TD*%
D37*
%TO.C,C8*%
X43840400Y-4353600D03*
X43840400Y-2453600D03*
%TD*%
D38*
%TO.C,J6*%
X53476000Y-85648800D03*
D39*
X56016000Y-85648800D03*
X53476000Y-88188800D03*
X56016000Y-88188800D03*
X53476000Y-90728800D03*
X56016000Y-90728800D03*
X53476000Y-93268800D03*
X56016000Y-93268800D03*
X53476000Y-95808800D03*
X56016000Y-95808800D03*
X53476000Y-98348800D03*
X56016000Y-98348800D03*
%TD*%
D17*
%TO.C,R15*%
X14648600Y-34925000D03*
X16288600Y-34925000D03*
%TD*%
D12*
%TO.C,C18*%
X21259800Y-73881200D03*
X21259800Y-72321200D03*
%TD*%
D40*
%TO.C,IC1*%
X23729100Y-15814000D03*
X23729100Y-16764000D03*
X23729100Y-17714000D03*
X26004100Y-17714000D03*
X26004100Y-15814000D03*
%TD*%
D24*
%TO.C,JP5*%
X44805600Y-16108200D03*
D25*
X44805600Y-14808200D03*
D26*
X44805600Y-13508200D03*
%TD*%
D35*
%TO.C,C1*%
X34315400Y-13190000D03*
X34315400Y-14750000D03*
%TD*%
D14*
%TO.C,IC6*%
X37391497Y-40260857D03*
X37037944Y-40614410D03*
X36684390Y-40967963D03*
X36330837Y-41321517D03*
X35977284Y-41675070D03*
X35623730Y-42028623D03*
X35270177Y-42382177D03*
X34916624Y-42735730D03*
D15*
X34916624Y-43725680D03*
X35270177Y-44079233D03*
X35623730Y-44432787D03*
X35977284Y-44786340D03*
X36330837Y-45139893D03*
X36684390Y-45493447D03*
X37037944Y-45847000D03*
X37391497Y-46200553D03*
D14*
X38381447Y-46200553D03*
X38735000Y-45847000D03*
X39088554Y-45493447D03*
X39442107Y-45139893D03*
X39795660Y-44786340D03*
X40149214Y-44432787D03*
X40502767Y-44079233D03*
X40856320Y-43725680D03*
D15*
X40856320Y-42735730D03*
X40502767Y-42382177D03*
X40149214Y-42028623D03*
X39795660Y-41675070D03*
X39442107Y-41321517D03*
X39088554Y-40967963D03*
X38735000Y-40614410D03*
X38381447Y-40260857D03*
D16*
X37886472Y-43230705D03*
%TD*%
D29*
%TO.C,C6*%
X51569400Y-80568800D03*
X53129400Y-80568800D03*
%TD*%
D32*
%TO.C,C10*%
X6563400Y-32664400D03*
X4663400Y-32664400D03*
%TD*%
D12*
%TO.C,C37*%
X39420800Y-66667600D03*
X39420800Y-65107600D03*
%TD*%
D11*
%TO.C,TP2*%
X59817000Y-52628800D03*
%TD*%
D17*
%TO.C,R14*%
X14648600Y-32334200D03*
X16288600Y-32334200D03*
%TD*%
D12*
%TO.C,C31*%
X29337000Y-37051200D03*
X29337000Y-35491200D03*
%TD*%
D38*
%TO.C,J5*%
X7467600Y-98374200D03*
D39*
X4927600Y-98374200D03*
X7467600Y-95834200D03*
X4927600Y-95834200D03*
X7467600Y-93294200D03*
X4927600Y-93294200D03*
X7467600Y-90754200D03*
X4927600Y-90754200D03*
X7467600Y-88214200D03*
X4927600Y-88214200D03*
X7467600Y-85674200D03*
X4927600Y-85674200D03*
%TD*%
D32*
%TO.C,C2*%
X48397200Y-38328600D03*
X46497200Y-38328600D03*
%TD*%
D17*
%TO.C,R10*%
X14648600Y-29794200D03*
X16288600Y-29794200D03*
%TD*%
D12*
%TO.C,C24*%
X39649400Y-83330000D03*
X39649400Y-81770000D03*
%TD*%
D18*
%TO.C,C25*%
X19964400Y-78196400D03*
X19964400Y-80096400D03*
%TD*%
D17*
%TO.C,R9*%
X14572400Y-27279600D03*
X16212400Y-27279600D03*
%TD*%
D38*
%TO.C,J7*%
X7467600Y-73279000D03*
D39*
X4927600Y-73279000D03*
X7467600Y-70739000D03*
X4927600Y-70739000D03*
X7467600Y-68199000D03*
X4927600Y-68199000D03*
X7467600Y-65659000D03*
X4927600Y-65659000D03*
X7467600Y-63119000D03*
X4927600Y-63119000D03*
X7467600Y-60579000D03*
X4927600Y-60579000D03*
%TD*%
D13*
%TO.C,R2*%
X11125200Y-16071000D03*
X11125200Y-17711000D03*
%TD*%
D31*
%TO.C,H1*%
X46761400Y-98552200D03*
%TD*%
D41*
%TO.C,MC1*%
X10185400Y-8509000D03*
X7645400Y-8509000D03*
X7645400Y-23749000D03*
X10185400Y-23749000D03*
X12725400Y-23749000D03*
X15265400Y-23749000D03*
X17805400Y-23749000D03*
X20345400Y-23749000D03*
X22885400Y-23749000D03*
X25425400Y-23749000D03*
X27965400Y-23749000D03*
X30505400Y-23749000D03*
X33045400Y-23749000D03*
X35585400Y-23749000D03*
X38125400Y-23749000D03*
X38125400Y-8509000D03*
X35585400Y-8509000D03*
X33045400Y-8509000D03*
X30505400Y-8509000D03*
X27965400Y-8509000D03*
X25425400Y-8509000D03*
X22885400Y-8509000D03*
X20345400Y-8509000D03*
X17805400Y-8509000D03*
X15265400Y-8509000D03*
X12725400Y-8509000D03*
X5105400Y-23749000D03*
X5105400Y-8509000D03*
%TD*%
D12*
%TO.C,C30*%
X19304000Y-55567800D03*
X19304000Y-54007800D03*
%TD*%
D42*
%TO.C,C9*%
X54777600Y-26162000D03*
X56677600Y-26162000D03*
%TD*%
D13*
%TO.C,R12*%
X28194000Y-63010200D03*
X28194000Y-64650200D03*
%TD*%
%TO.C,R13*%
X29718000Y-44493600D03*
X29718000Y-46133600D03*
%TD*%
D35*
%TO.C,C15*%
X25400000Y-86773800D03*
X25400000Y-88333800D03*
%TD*%
D12*
%TO.C,C21*%
X43611800Y-75659200D03*
X43611800Y-74099200D03*
%TD*%
D24*
%TO.C,JP6*%
X41691300Y-16133600D03*
D25*
X41691300Y-14833600D03*
D26*
X41691300Y-13533600D03*
%TD*%
D35*
%TO.C,C29*%
X24866600Y-53982400D03*
X24866600Y-55542400D03*
%TD*%
D38*
%TO.C,J8*%
X53476000Y-60502800D03*
D39*
X56016000Y-60502800D03*
X53476000Y-63042800D03*
X56016000Y-63042800D03*
X53476000Y-65582800D03*
X56016000Y-65582800D03*
X53476000Y-68122800D03*
X56016000Y-68122800D03*
X53476000Y-70662800D03*
X56016000Y-70662800D03*
X53476000Y-73202800D03*
X56016000Y-73202800D03*
%TD*%
D19*
%TO.C,J2*%
X38125400Y-4038600D03*
D20*
X35585400Y-4038600D03*
X33045400Y-4038600D03*
X30505400Y-4038600D03*
X27965400Y-4038600D03*
X25425400Y-4038600D03*
X22885400Y-4038600D03*
X20345400Y-4038600D03*
X17805400Y-4038600D03*
X15265400Y-4038600D03*
X12725400Y-4038600D03*
X10185400Y-4038600D03*
X7645400Y-4038600D03*
X5105400Y-4038600D03*
%TD*%
M02*
