M48
; DRILL file {KiCad 9.0.0} date 2025-03-26T11:44:13+1100
; FORMAT={-:-/ absolute / inch / decimal}
; #@! TF.CreationDate,2025-03-26T11:44:13+11:00
; #@! TF.GenerationSoftware,Kicad,Pcbnew,9.0.0
; #@! TF.FileFunction,Plated,1,2,PTH
FMAT,2
INCH
; #@! TA.AperFunction,Plated,PTH,ViaDrill
T1C0.0130
; #@! TA.AperFunction,Plated,PTH,ViaDrill
T2C0.0150
; #@! TA.AperFunction,Plated,PTH,ComponentDrill
T3C0.0315
; #@! TA.AperFunction,Plated,PTH,ComponentDrill
T4C0.0394
; #@! TA.AperFunction,Plated,PTH,ComponentDrill
T5C0.0433
; #@! TA.AperFunction,Plated,PTH,ComponentDrill
T6C0.0453
%
G90
G05
T1
X0.053Y-1.564
X0.058Y-1.826
X0.059Y-1.748
X0.1043Y-2.6388
X0.105Y-2.226
X0.106Y-1.564
X0.219Y-3.175
X0.255Y-1.564
X0.257Y-0.708
X0.294Y-2.281
X0.319Y-1.566
X0.319Y-1.749
X0.319Y-1.826
X0.3652Y-2.6378
X0.379Y-3.329
X0.379Y-3.524
X0.397Y-1.996
X0.399Y-2.978
X0.401Y-2.885
X0.404Y-3.968
X0.4055Y-3.5945
X0.409Y-3.133
X0.409Y-3.228
X0.4265Y-1.4635
X0.436Y-1.236
X0.436Y-1.334
X0.484Y-2.343
X0.485Y-2.444
X0.485Y-2.552
X0.487Y-3.132
X0.488Y-3.227
X0.493Y-1.681
X0.5Y-0.769
X0.501Y-0.576
X0.551Y-2.206
X0.551Y-3.082
X0.551Y-3.51
X0.552Y-3.583
X0.552Y-3.648
X0.605Y-0.421
X0.611Y-1.809
X0.611Y-2.389
X0.611Y-3.154
X0.611Y-3.696
X0.613Y-1.47
X0.669Y-3.041
X0.669Y-3.103
X0.669Y-3.208
X0.676Y-1.588
X0.676Y-1.673
X0.676Y-1.84
X0.676Y-2.189
X0.677Y-2.316
X0.677Y-2.468
X0.69Y-1.073
X0.693Y-1.174
X0.72Y-3.207
X0.737Y-0.591
X0.751Y-0.841
X0.752Y-3.865
X0.776Y-1.201
X0.806Y-1.261
X0.806Y-3.59
X0.806Y-3.693
X0.836Y-2.609
X0.8395Y-1.3095
X0.84Y-2.983
X0.844Y-2.545
X0.85Y-2.491
X0.852Y-0.84
X0.856Y-3.206
X0.859Y-0.707
X0.863Y-2.186
X0.867Y-1.895
X0.869Y-2.316
X0.87Y-1.362
X0.87Y-1.82
X0.927Y-2.25
X0.927Y-2.955
X0.927Y-3.538
X0.928Y-1.512
X0.984Y-2.288
X0.984Y-2.983
X0.984Y-3.578
X0.986Y-1.546
X1.042Y-3.609
X1.043Y-1.577
X1.043Y-2.296
X1.043Y-3.027
X1.077Y-1.348
X1.111Y-1.595
X1.111Y-2.29
X1.111Y-3.034
X1.111Y-3.591
X1.117Y-0.565
X1.184Y-1.621
X1.184Y-2.245
X1.184Y-2.996
X1.184Y-3.593
X1.189Y-0.722
X1.198Y-3.94
X1.241Y-1.656
X1.244Y-1.387
X1.253Y-3.573
X1.262Y-2.31
X1.263Y-2.964
X1.264Y-3.906
X1.269Y-3.688
X1.27Y-3.733
X1.29Y-1.379
X1.351Y-0.802
X1.352Y-0.656
X1.353Y-0.723
X1.419Y-1.273
X1.487Y-2.541
X1.488Y-1.899
X1.488Y-2.108
X1.488Y-2.752
X1.489Y-3.196
X1.491Y-2.323
X1.491Y-2.383
X1.491Y-2.943
X1.491Y-3.023
X1.491Y-3.389
X1.491Y-3.583
X1.491Y-3.663
X1.4916Y-1.663
X1.4916Y-1.723
X1.531Y-1.477
X1.548Y-1.546
X1.548Y-2.178
X1.548Y-2.803
X1.548Y-3.453
X1.55Y-0.802
X1.562Y-0.464
X1.586Y-0.584
X1.5906Y-3.86
X1.595Y-2.216
X1.604Y-2.855
X1.604Y-3.504
X1.605Y-2.564
X1.607Y-1.584
X1.607Y-1.927
X1.611Y-1.209
X1.612Y-3.22
X1.618Y-0.869
X1.635Y-0.259
X1.6398Y-3.732
X1.646Y-1.359
X1.646Y-1.822
X1.649Y-1.14
X1.672Y-1.226
X1.6742Y-3.1152
X1.688Y-2.483
X1.692Y-0.464
X1.697Y-0.708
X1.711Y-1.091
X1.715Y-0.583
X1.759Y-1.004
X1.766Y-3.386
X1.772Y-1.703
X1.773Y-2.855
X1.774Y-1.584
X1.775Y-2.979
X1.781Y-2.3464
X1.817Y-1.008
X1.82Y-3.217
X1.821Y-1.994
X1.821Y-2.588
X1.826Y-1.829
X1.828Y-2.214
X1.838Y-0.585
X1.915Y-3.53
X1.916Y-2.348
X1.916Y-2.979
X1.919Y-1.703
X1.973Y-3.56
X1.977Y-2.978
X1.978Y-3.216
X1.981Y-2.719
X1.993Y-3.36
X2.007Y-3.722
X2.011Y-1.986
X2.017Y-2.585
X2.017Y-2.778
X2.034Y-2.095
X2.044Y-0.523
X2.045Y-0.43
X2.045Y-0.643
X2.045Y-0.871
X2.046Y-1.035
X2.128Y-0.35
X2.129Y-0.248
X2.168Y-3.088
X2.296Y-0.644
X2.298Y-1.092
X2.3Y-0.895
X2.375Y-0.347
T2
X2.129Y-1.18
X2.241Y-2.078
T3
X0.201Y-0.335
X0.201Y-0.935
X0.301Y-0.335
X0.301Y-0.935
X0.401Y-0.335
X0.401Y-0.935
X0.501Y-0.335
X0.501Y-0.935
X0.601Y-0.335
X0.601Y-0.935
X0.701Y-0.335
X0.701Y-0.935
X0.801Y-0.335
X0.801Y-0.935
X0.901Y-0.335
X0.901Y-0.935
X1.001Y-0.335
X1.001Y-0.935
X1.101Y-0.335
X1.101Y-0.935
X1.201Y-0.335
X1.201Y-0.935
X1.301Y-0.335
X1.301Y-0.935
X1.401Y-0.335
X1.401Y-0.935
X1.501Y-0.335
X1.501Y-0.935
T4
X0.201Y-0.159
X0.202Y-1.076
X0.301Y-0.159
X0.302Y-1.076
X0.401Y-0.159
X0.402Y-1.076
X0.501Y-0.159
X0.601Y-0.159
X0.701Y-0.159
X0.801Y-0.159
X0.901Y-0.159
X1.001Y-0.159
X1.101Y-0.159
X1.201Y-0.159
X1.301Y-0.159
X1.401Y-0.159
X1.402Y-3.939
X1.501Y-0.159
X1.892Y-0.071
X2.128Y-2.078
X2.355Y-2.072
T5
X0.194Y-2.385
X0.194Y-2.485
X0.194Y-2.585
X0.194Y-2.685
X0.194Y-2.785
X0.194Y-2.885
X0.194Y-3.373
X0.194Y-3.473
X0.194Y-3.573
X0.194Y-3.673
X0.194Y-3.773
X0.194Y-3.873
X0.294Y-2.385
X0.294Y-2.485
X0.294Y-2.585
X0.294Y-2.685
X0.294Y-2.785
X0.294Y-2.885
X0.294Y-3.373
X0.294Y-3.473
X0.294Y-3.573
X0.294Y-3.673
X0.294Y-3.773
X0.294Y-3.873
X2.1054Y-2.382
X2.1054Y-2.482
X2.1054Y-2.582
X2.1054Y-2.682
X2.1054Y-2.782
X2.1054Y-2.882
X2.1054Y-3.372
X2.1054Y-3.472
X2.1054Y-3.572
X2.1054Y-3.672
X2.1054Y-3.772
X2.1054Y-3.872
X2.2054Y-2.382
X2.2054Y-2.482
X2.2054Y-2.582
X2.2054Y-2.682
X2.2054Y-2.782
X2.2054Y-2.882
X2.2054Y-3.372
X2.2054Y-3.472
X2.2054Y-3.572
X2.2054Y-3.672
X2.2054Y-3.772
X2.2054Y-3.872
T6
X2.1654Y-1.329
X2.1654Y-1.429
X2.1654Y-1.529
X2.1654Y-1.629
X2.1654Y-1.729
X2.2654Y-1.329
X2.2654Y-1.429
X2.2654Y-1.529
X2.2654Y-1.629
X2.2654Y-1.729
M30
