%TF.GenerationSoftware,KiCad,Pcbnew,9.0.0*%
%TF.CreationDate,2025-03-26T11:44:13+11:00*%
%TF.ProjectId,tlv320aic3104 audio rev K twist,746c7633-3230-4616-9963-333130342061,Rev F*%
%TF.SameCoordinates,Original*%
%TF.FileFunction,Soldermask,Bot*%
%TF.FilePolarity,Negative*%
%FSLAX46Y46*%
G04 Gerber Fmt 4.6, Leading zero omitted, Abs format (unit mm)*
G04 Created by KiCad (PCBNEW 9.0.0) date 2025-03-26 11:44:13*
%MOMM*%
%LPD*%
G01*
G04 APERTURE LIST*
G04 Aperture macros list*
%AMRoundRect*
0 Rectangle with rounded corners*
0 $1 Rounding radius*
0 $2 $3 $4 $5 $6 $7 $8 $9 X,Y pos of 4 corners*
0 Add a 4 corners polygon primitive as box body*
4,1,4,$2,$3,$4,$5,$6,$7,$8,$9,$2,$3,0*
0 Add four circle primitives for the rounded corners*
1,1,$1+$1,$2,$3*
1,1,$1+$1,$4,$5*
1,1,$1+$1,$6,$7*
1,1,$1+$1,$8,$9*
0 Add four rect primitives between the rounded corners*
20,1,$1+$1,$2,$3,$4,$5,0*
20,1,$1+$1,$4,$5,$6,$7,0*
20,1,$1+$1,$6,$7,$8,$9,0*
20,1,$1+$1,$8,$9,$2,$3,0*%
%AMFreePoly0*
4,1,23,0.500000,-0.750000,0.000000,-0.750000,0.000000,-0.745722,-0.065263,-0.745722,-0.191342,-0.711940,-0.304381,-0.646677,-0.396677,-0.554381,-0.461940,-0.441342,-0.495722,-0.315263,-0.495722,-0.250000,-0.500000,-0.250000,-0.500000,0.250000,-0.495722,0.250000,-0.495722,0.315263,-0.461940,0.441342,-0.396677,0.554381,-0.304381,0.646677,-0.191342,0.711940,-0.065263,0.745722,0.000000,0.745722,
0.000000,0.750000,0.500000,0.750000,0.500000,-0.750000,0.500000,-0.750000,$1*%
%AMFreePoly1*
4,1,23,0.000000,0.745722,0.065263,0.745722,0.191342,0.711940,0.304381,0.646677,0.396677,0.554381,0.461940,0.441342,0.495722,0.315263,0.495722,0.250000,0.500000,0.250000,0.500000,-0.250000,0.495722,-0.250000,0.495722,-0.315263,0.461940,-0.441342,0.396677,-0.554381,0.304381,-0.646677,0.191342,-0.711940,0.065263,-0.745722,0.000000,-0.745722,0.000000,-0.750000,-0.500000,-0.750000,
-0.500000,0.750000,0.000000,0.750000,0.000000,0.745722,0.000000,0.745722,$1*%
G04 Aperture macros list end*
%ADD10R,2.000000X2.000000*%
%ADD11R,1.700000X1.700000*%
%ADD12O,1.700000X1.700000*%
%ADD13C,3.200000*%
%ADD14R,1.725000X1.725000*%
%ADD15C,1.725000*%
%ADD16R,1.650000X1.650000*%
%ADD17C,1.650000*%
%ADD18C,1.409600*%
%ADD19FreePoly0,180.000000*%
%ADD20FreePoly1,180.000000*%
%ADD21RoundRect,0.250000X0.337500X0.475000X-0.337500X0.475000X-0.337500X-0.475000X0.337500X-0.475000X0*%
%ADD22RoundRect,0.150000X-0.512500X-0.150000X0.512500X-0.150000X0.512500X0.150000X-0.512500X0.150000X0*%
%ADD23RoundRect,0.250000X-0.475000X0.337500X-0.475000X-0.337500X0.475000X-0.337500X0.475000X0.337500X0*%
G04 APERTURE END LIST*
%TO.C,JP3*%
G36*
X28775800Y-26859800D02*
G01*
X28475800Y-26859800D01*
X28475800Y-28359800D01*
X28775800Y-28359800D01*
X28775800Y-26859800D01*
G37*
%TO.C,JP2*%
G36*
X26210400Y-17665000D02*
G01*
X25910400Y-17665000D01*
X25910400Y-19165000D01*
X26210400Y-19165000D01*
X26210400Y-17665000D01*
G37*
%TD*%
D10*
%TO.C,TP3*%
X48056800Y-1803400D03*
%TD*%
%TO.C,TP1*%
X54051200Y-52781200D03*
%TD*%
D11*
%TO.C,J1*%
X5130800Y-27330400D03*
D12*
X7670800Y-27330400D03*
X10210800Y-27330400D03*
%TD*%
D10*
%TO.C,TP4*%
X35610800Y-100050600D03*
%TD*%
D13*
%TO.C,H3*%
X4572000Y-50052200D03*
%TD*%
D14*
%TO.C,POWER1*%
X55000000Y-33756600D03*
D15*
X57540000Y-33756600D03*
X55000000Y-36296600D03*
X57540000Y-36296600D03*
X55000000Y-38836600D03*
X57540000Y-38836600D03*
X55000000Y-41376600D03*
X57540000Y-41376600D03*
X55000000Y-43916600D03*
X57540000Y-43916600D03*
%TD*%
D13*
%TO.C,H2*%
X57607200Y-3073400D03*
%TD*%
D16*
%TO.C,J6*%
X53476000Y-85648800D03*
D17*
X56016000Y-85648800D03*
X53476000Y-88188800D03*
X56016000Y-88188800D03*
X53476000Y-90728800D03*
X56016000Y-90728800D03*
X53476000Y-93268800D03*
X56016000Y-93268800D03*
X53476000Y-95808800D03*
X56016000Y-95808800D03*
X53476000Y-98348800D03*
X56016000Y-98348800D03*
%TD*%
D10*
%TO.C,TP2*%
X59817000Y-52628800D03*
%TD*%
D16*
%TO.C,J5*%
X7467600Y-98374200D03*
D17*
X4927600Y-98374200D03*
X7467600Y-95834200D03*
X4927600Y-95834200D03*
X7467600Y-93294200D03*
X4927600Y-93294200D03*
X7467600Y-90754200D03*
X4927600Y-90754200D03*
X7467600Y-88214200D03*
X4927600Y-88214200D03*
X7467600Y-85674200D03*
X4927600Y-85674200D03*
%TD*%
D16*
%TO.C,J7*%
X7467600Y-73279000D03*
D17*
X4927600Y-73279000D03*
X7467600Y-70739000D03*
X4927600Y-70739000D03*
X7467600Y-68199000D03*
X4927600Y-68199000D03*
X7467600Y-65659000D03*
X4927600Y-65659000D03*
X7467600Y-63119000D03*
X4927600Y-63119000D03*
X7467600Y-60579000D03*
X4927600Y-60579000D03*
%TD*%
D13*
%TO.C,H1*%
X46761400Y-98552200D03*
%TD*%
D18*
%TO.C,MC1*%
X10185400Y-8509000D03*
X7645400Y-8509000D03*
X7645400Y-23749000D03*
X10185400Y-23749000D03*
X12725400Y-23749000D03*
X15265400Y-23749000D03*
X17805400Y-23749000D03*
X20345400Y-23749000D03*
X22885400Y-23749000D03*
X25425400Y-23749000D03*
X27965400Y-23749000D03*
X30505400Y-23749000D03*
X33045400Y-23749000D03*
X35585400Y-23749000D03*
X38125400Y-23749000D03*
X38125400Y-8509000D03*
X35585400Y-8509000D03*
X33045400Y-8509000D03*
X30505400Y-8509000D03*
X27965400Y-8509000D03*
X25425400Y-8509000D03*
X22885400Y-8509000D03*
X20345400Y-8509000D03*
X17805400Y-8509000D03*
X15265400Y-8509000D03*
X12725400Y-8509000D03*
X5105400Y-23749000D03*
X5105400Y-8509000D03*
%TD*%
D16*
%TO.C,J8*%
X53476000Y-60502800D03*
D17*
X56016000Y-60502800D03*
X53476000Y-63042800D03*
X56016000Y-63042800D03*
X53476000Y-65582800D03*
X56016000Y-65582800D03*
X53476000Y-68122800D03*
X56016000Y-68122800D03*
X53476000Y-70662800D03*
X56016000Y-70662800D03*
X53476000Y-73202800D03*
X56016000Y-73202800D03*
%TD*%
D11*
%TO.C,J2*%
X38125400Y-4038600D03*
D12*
X35585400Y-4038600D03*
X33045400Y-4038600D03*
X30505400Y-4038600D03*
X27965400Y-4038600D03*
X25425400Y-4038600D03*
X22885400Y-4038600D03*
X20345400Y-4038600D03*
X17805400Y-4038600D03*
X15265400Y-4038600D03*
X12725400Y-4038600D03*
X10185400Y-4038600D03*
X7645400Y-4038600D03*
X5105400Y-4038600D03*
%TD*%
D19*
%TO.C,JP3*%
X29275800Y-27609800D03*
D20*
X27975800Y-27609800D03*
%TD*%
D21*
%TO.C,C11*%
X56206300Y-17094200D03*
X54131300Y-17094200D03*
%TD*%
D22*
%TO.C,U3*%
X54056700Y-13497600D03*
X54056700Y-12547600D03*
X54056700Y-11597600D03*
X56331700Y-11597600D03*
X56331700Y-12547600D03*
X56331700Y-13497600D03*
%TD*%
D23*
%TO.C,C12*%
X59537600Y-12322900D03*
X59537600Y-14397900D03*
%TD*%
%TO.C,C13*%
X51358800Y-6938100D03*
X51358800Y-9013100D03*
%TD*%
D19*
%TO.C,JP2*%
X26710400Y-18415000D03*
D20*
X25410400Y-18415000D03*
%TD*%
M02*
