%TF.GenerationSoftware,KiCad,Pcbnew,9.0.0*%
%TF.CreationDate,2025-03-26T12:10:22+11:00*%
%TF.ProjectId,Wing Board 4 Combo mk II,57696e67-2042-46f6-9172-64203420436f,rev?*%
%TF.SameCoordinates,Original*%
%TF.FileFunction,Soldermask,Bot*%
%TF.FilePolarity,Negative*%
%FSLAX46Y46*%
G04 Gerber Fmt 4.6, Leading zero omitted, Abs format (unit mm)*
G04 Created by KiCad (PCBNEW 9.0.0) date 2025-03-26 12:10:22*
%MOMM*%
%LPD*%
G01*
G04 APERTURE LIST*
%ADD10C,1.400000*%
%ADD11O,1.400000X1.400000*%
%ADD12C,2.100000*%
%ADD13C,2.900000*%
%ADD14R,1.600000X1.600000*%
%ADD15C,1.600000*%
%ADD16C,3.500001*%
%ADD17R,1.650000X1.650000*%
%ADD18C,1.650000*%
G04 APERTURE END LIST*
D10*
%TO.C,R5*%
X72491600Y-10337800D03*
D11*
X75031600Y-10337800D03*
%TD*%
D10*
%TO.C,R4*%
X42341800Y-10363200D03*
D11*
X44881800Y-10363200D03*
%TD*%
D12*
%TO.C,J5*%
X104424600Y-34097400D03*
D13*
X106524600Y-22697400D03*
X94324600Y-22697400D03*
X100424600Y-22697400D03*
X100424600Y-29997400D03*
X105624600Y-26597400D03*
X103424600Y-16097400D03*
X95224600Y-29997400D03*
X97424600Y-26597400D03*
X91224600Y-16097400D03*
X97424600Y-16097400D03*
%TD*%
D14*
%TO.C,C4*%
X41000000Y-3500000D03*
D15*
X41000000Y-5500000D03*
%TD*%
D10*
%TO.C,R2*%
X22352000Y-10363200D03*
D11*
X24892000Y-10363200D03*
%TD*%
D16*
%TO.C,H2*%
X109601000Y-4216400D03*
%TD*%
D12*
%TO.C,J3*%
X46324600Y-34097400D03*
D13*
X48424600Y-22697400D03*
X36224600Y-22697400D03*
X42324600Y-22697400D03*
X42324600Y-29997400D03*
X47524600Y-26597400D03*
X45324600Y-16097400D03*
X37124600Y-29997400D03*
X39324600Y-26597400D03*
X33124600Y-16097400D03*
X39324600Y-16097400D03*
%TD*%
D14*
%TO.C,C8*%
X100609400Y-3500000D03*
D15*
X100609400Y-5500000D03*
%TD*%
D10*
%TO.C,R8*%
X100584000Y-10337800D03*
D11*
X98044000Y-10337800D03*
%TD*%
D17*
%TO.C,J1*%
X51155600Y-9017000D03*
D18*
X51155600Y-6477000D03*
X53695600Y-9017000D03*
X53695600Y-6477000D03*
X56235600Y-9017000D03*
X56235600Y-6477000D03*
X58775600Y-9017000D03*
X58775600Y-6477000D03*
X61315600Y-9017000D03*
X61315600Y-6477000D03*
X63855600Y-9017000D03*
X63855600Y-6477000D03*
%TD*%
D10*
%TO.C,R7*%
X91237600Y-10337800D03*
D11*
X88697600Y-10337800D03*
%TD*%
D10*
%TO.C,R1*%
X12979400Y-10363200D03*
D11*
X15519400Y-10363200D03*
%TD*%
D12*
%TO.C,J4*%
X75374600Y-34097400D03*
D13*
X77474600Y-22697400D03*
X65274600Y-22697400D03*
X71374600Y-22697400D03*
X71374600Y-29997400D03*
X76574600Y-26597400D03*
X74374600Y-16097400D03*
X66174600Y-29997400D03*
X68374600Y-26597400D03*
X62174600Y-16097400D03*
X68374600Y-16097400D03*
%TD*%
D14*
%TO.C,C3*%
X31702133Y-3500000D03*
D15*
X31702133Y-5500000D03*
%TD*%
D12*
%TO.C,J2*%
X17274600Y-34097400D03*
D13*
X19374600Y-22697400D03*
X7174600Y-22697400D03*
X13274600Y-22697400D03*
X13274600Y-29997400D03*
X18474600Y-26597400D03*
X16274600Y-16097400D03*
X8074600Y-29997400D03*
X10274600Y-26597400D03*
X4074600Y-16097400D03*
X10274600Y-16097400D03*
%TD*%
D14*
%TO.C,C2*%
X22352000Y-3500000D03*
D15*
X22352000Y-5500000D03*
%TD*%
D14*
%TO.C,C7*%
X91739600Y-3500000D03*
D15*
X91739600Y-5500000D03*
%TD*%
D16*
%TO.C,H1*%
X3962400Y-4216400D03*
%TD*%
D10*
%TO.C,R3*%
X31699200Y-10337800D03*
D11*
X34239200Y-10337800D03*
%TD*%
D10*
%TO.C,R6*%
X81431600Y-10337800D03*
D11*
X83971600Y-10337800D03*
%TD*%
D14*
%TO.C,C6*%
X82869800Y-3500000D03*
D15*
X82869800Y-5500000D03*
%TD*%
D14*
%TO.C,C5*%
X74000000Y-3500000D03*
D15*
X74000000Y-5500000D03*
%TD*%
D14*
%TO.C,C1*%
X12979400Y-3505200D03*
D15*
X12979400Y-5505200D03*
%TD*%
M02*
