%TF.GenerationSoftware,KiCad,Pcbnew,9.0.0*%
%TF.CreationDate,2025-03-26T12:10:22+11:00*%
%TF.ProjectId,Wing Board 4 Combo mk II,57696e67-2042-46f6-9172-64203420436f,rev?*%
%TF.SameCoordinates,Original*%
%TF.FileFunction,Legend,Top*%
%TF.FilePolarity,Positive*%
%FSLAX46Y46*%
G04 Gerber Fmt 4.6, Leading zero omitted, Abs format (unit mm)*
G04 Created by KiCad (PCBNEW 9.0.0) date 2025-03-26 12:10:22*
%MOMM*%
%LPD*%
G01*
G04 APERTURE LIST*
%ADD10C,0.203200*%
%ADD11C,0.228600*%
%ADD12C,0.150000*%
%ADD13C,0.120000*%
%ADD14C,0.200000*%
%ADD15C,1.400000*%
%ADD16O,1.400000X1.400000*%
%ADD17C,2.100000*%
%ADD18C,2.900000*%
%ADD19R,1.600000X1.600000*%
%ADD20C,1.600000*%
%ADD21C,3.500001*%
%ADD22R,1.650000X1.650000*%
%ADD23C,1.650000*%
G04 APERTURE END LIST*
D10*
X37539990Y-13473809D02*
X37539990Y-12203809D01*
X38144752Y-13473809D02*
X38144752Y-12203809D01*
X38144752Y-12203809D02*
X38870467Y-13473809D01*
X38870467Y-13473809D02*
X38870467Y-12203809D01*
X40382371Y-12324761D02*
X40442847Y-12264285D01*
X40442847Y-12264285D02*
X40563800Y-12203809D01*
X40563800Y-12203809D02*
X40866181Y-12203809D01*
X40866181Y-12203809D02*
X40987133Y-12264285D01*
X40987133Y-12264285D02*
X41047609Y-12324761D01*
X41047609Y-12324761D02*
X41108086Y-12445713D01*
X41108086Y-12445713D02*
X41108086Y-12566666D01*
X41108086Y-12566666D02*
X41047609Y-12748094D01*
X41047609Y-12748094D02*
X40321895Y-13473809D01*
X40321895Y-13473809D02*
X41108086Y-13473809D01*
X93521590Y-13397609D02*
X93521590Y-12127609D01*
X94126352Y-13397609D02*
X94126352Y-12127609D01*
X94126352Y-12127609D02*
X94852067Y-13397609D01*
X94852067Y-13397609D02*
X94852067Y-12127609D01*
X96968733Y-12550942D02*
X96968733Y-13397609D01*
X96666352Y-12067133D02*
X96363971Y-12974275D01*
X96363971Y-12974275D02*
X97150162Y-12974275D01*
D11*
X50489151Y-10615059D02*
X51335818Y-11885059D01*
X51335818Y-10615059D02*
X50489151Y-11885059D01*
X52424389Y-11885059D02*
X51819627Y-11885059D01*
X51819627Y-11885059D02*
X51819627Y-10615059D01*
X53573437Y-11885059D02*
X53150103Y-11280297D01*
X52847722Y-11885059D02*
X52847722Y-10615059D01*
X52847722Y-10615059D02*
X53331532Y-10615059D01*
X53331532Y-10615059D02*
X53452484Y-10675535D01*
X53452484Y-10675535D02*
X53512961Y-10736011D01*
X53512961Y-10736011D02*
X53573437Y-10856963D01*
X53573437Y-10856963D02*
X53573437Y-11038392D01*
X53573437Y-11038392D02*
X53512961Y-11159344D01*
X53512961Y-11159344D02*
X53452484Y-11219821D01*
X53452484Y-11219821D02*
X53331532Y-11280297D01*
X53331532Y-11280297D02*
X52847722Y-11280297D01*
X55811056Y-11764106D02*
X55750580Y-11824583D01*
X55750580Y-11824583D02*
X55569151Y-11885059D01*
X55569151Y-11885059D02*
X55448199Y-11885059D01*
X55448199Y-11885059D02*
X55266770Y-11824583D01*
X55266770Y-11824583D02*
X55145818Y-11703630D01*
X55145818Y-11703630D02*
X55085341Y-11582678D01*
X55085341Y-11582678D02*
X55024865Y-11340773D01*
X55024865Y-11340773D02*
X55024865Y-11159344D01*
X55024865Y-11159344D02*
X55085341Y-10917440D01*
X55085341Y-10917440D02*
X55145818Y-10796487D01*
X55145818Y-10796487D02*
X55266770Y-10675535D01*
X55266770Y-10675535D02*
X55448199Y-10615059D01*
X55448199Y-10615059D02*
X55569151Y-10615059D01*
X55569151Y-10615059D02*
X55750580Y-10675535D01*
X55750580Y-10675535D02*
X55811056Y-10736011D01*
X56536770Y-11885059D02*
X56415818Y-11824583D01*
X56415818Y-11824583D02*
X56355341Y-11764106D01*
X56355341Y-11764106D02*
X56294865Y-11643154D01*
X56294865Y-11643154D02*
X56294865Y-11280297D01*
X56294865Y-11280297D02*
X56355341Y-11159344D01*
X56355341Y-11159344D02*
X56415818Y-11098868D01*
X56415818Y-11098868D02*
X56536770Y-11038392D01*
X56536770Y-11038392D02*
X56718199Y-11038392D01*
X56718199Y-11038392D02*
X56839151Y-11098868D01*
X56839151Y-11098868D02*
X56899627Y-11159344D01*
X56899627Y-11159344D02*
X56960103Y-11280297D01*
X56960103Y-11280297D02*
X56960103Y-11643154D01*
X56960103Y-11643154D02*
X56899627Y-11764106D01*
X56899627Y-11764106D02*
X56839151Y-11824583D01*
X56839151Y-11824583D02*
X56718199Y-11885059D01*
X56718199Y-11885059D02*
X56536770Y-11885059D01*
X57504389Y-11885059D02*
X57504389Y-11038392D01*
X57504389Y-11159344D02*
X57564866Y-11098868D01*
X57564866Y-11098868D02*
X57685818Y-11038392D01*
X57685818Y-11038392D02*
X57867247Y-11038392D01*
X57867247Y-11038392D02*
X57988199Y-11098868D01*
X57988199Y-11098868D02*
X58048675Y-11219821D01*
X58048675Y-11219821D02*
X58048675Y-11885059D01*
X58048675Y-11219821D02*
X58109151Y-11098868D01*
X58109151Y-11098868D02*
X58230104Y-11038392D01*
X58230104Y-11038392D02*
X58411532Y-11038392D01*
X58411532Y-11038392D02*
X58532485Y-11098868D01*
X58532485Y-11098868D02*
X58592961Y-11219821D01*
X58592961Y-11219821D02*
X58592961Y-11885059D01*
X59197722Y-11885059D02*
X59197722Y-10615059D01*
X59197722Y-11098868D02*
X59318675Y-11038392D01*
X59318675Y-11038392D02*
X59560580Y-11038392D01*
X59560580Y-11038392D02*
X59681532Y-11098868D01*
X59681532Y-11098868D02*
X59742008Y-11159344D01*
X59742008Y-11159344D02*
X59802484Y-11280297D01*
X59802484Y-11280297D02*
X59802484Y-11643154D01*
X59802484Y-11643154D02*
X59742008Y-11764106D01*
X59742008Y-11764106D02*
X59681532Y-11824583D01*
X59681532Y-11824583D02*
X59560580Y-11885059D01*
X59560580Y-11885059D02*
X59318675Y-11885059D01*
X59318675Y-11885059D02*
X59197722Y-11824583D01*
X60528199Y-11885059D02*
X60407247Y-11824583D01*
X60407247Y-11824583D02*
X60346770Y-11764106D01*
X60346770Y-11764106D02*
X60286294Y-11643154D01*
X60286294Y-11643154D02*
X60286294Y-11280297D01*
X60286294Y-11280297D02*
X60346770Y-11159344D01*
X60346770Y-11159344D02*
X60407247Y-11098868D01*
X60407247Y-11098868D02*
X60528199Y-11038392D01*
X60528199Y-11038392D02*
X60709628Y-11038392D01*
X60709628Y-11038392D02*
X60830580Y-11098868D01*
X60830580Y-11098868D02*
X60891056Y-11159344D01*
X60891056Y-11159344D02*
X60951532Y-11280297D01*
X60951532Y-11280297D02*
X60951532Y-11643154D01*
X60951532Y-11643154D02*
X60891056Y-11764106D01*
X60891056Y-11764106D02*
X60830580Y-11824583D01*
X60830580Y-11824583D02*
X60709628Y-11885059D01*
X60709628Y-11885059D02*
X60528199Y-11885059D01*
X62463437Y-11885059D02*
X62463437Y-10615059D01*
X63068199Y-11038392D02*
X63068199Y-11885059D01*
X63068199Y-11159344D02*
X63128676Y-11098868D01*
X63128676Y-11098868D02*
X63249628Y-11038392D01*
X63249628Y-11038392D02*
X63431057Y-11038392D01*
X63431057Y-11038392D02*
X63552009Y-11098868D01*
X63552009Y-11098868D02*
X63612485Y-11219821D01*
X63612485Y-11219821D02*
X63612485Y-11885059D01*
X64217247Y-11038392D02*
X64217247Y-12308392D01*
X64217247Y-11098868D02*
X64338200Y-11038392D01*
X64338200Y-11038392D02*
X64580105Y-11038392D01*
X64580105Y-11038392D02*
X64701057Y-11098868D01*
X64701057Y-11098868D02*
X64761533Y-11159344D01*
X64761533Y-11159344D02*
X64822009Y-11280297D01*
X64822009Y-11280297D02*
X64822009Y-11643154D01*
X64822009Y-11643154D02*
X64761533Y-11764106D01*
X64761533Y-11764106D02*
X64701057Y-11824583D01*
X64701057Y-11824583D02*
X64580105Y-11885059D01*
X64580105Y-11885059D02*
X64338200Y-11885059D01*
X64338200Y-11885059D02*
X64217247Y-11824583D01*
X65910581Y-11038392D02*
X65910581Y-11885059D01*
X65366295Y-11038392D02*
X65366295Y-11703630D01*
X65366295Y-11703630D02*
X65426772Y-11824583D01*
X65426772Y-11824583D02*
X65547724Y-11885059D01*
X65547724Y-11885059D02*
X65729153Y-11885059D01*
X65729153Y-11885059D02*
X65850105Y-11824583D01*
X65850105Y-11824583D02*
X65910581Y-11764106D01*
X66333915Y-11038392D02*
X66817724Y-11038392D01*
X66515343Y-10615059D02*
X66515343Y-11703630D01*
X66515343Y-11703630D02*
X66575820Y-11824583D01*
X66575820Y-11824583D02*
X66696772Y-11885059D01*
X66696772Y-11885059D02*
X66817724Y-11885059D01*
X53996771Y-12659688D02*
X54722485Y-12659688D01*
X54359628Y-13929688D02*
X54359628Y-12659688D01*
X55085342Y-13566831D02*
X55690104Y-13566831D01*
X54964390Y-13929688D02*
X55387723Y-12659688D01*
X55387723Y-12659688D02*
X55811057Y-13929688D01*
X56234389Y-13445878D02*
X57202009Y-13445878D01*
X58532485Y-13808735D02*
X58472009Y-13869212D01*
X58472009Y-13869212D02*
X58290580Y-13929688D01*
X58290580Y-13929688D02*
X58169628Y-13929688D01*
X58169628Y-13929688D02*
X57988199Y-13869212D01*
X57988199Y-13869212D02*
X57867247Y-13748259D01*
X57867247Y-13748259D02*
X57806770Y-13627307D01*
X57806770Y-13627307D02*
X57746294Y-13385402D01*
X57746294Y-13385402D02*
X57746294Y-13203973D01*
X57746294Y-13203973D02*
X57806770Y-12962069D01*
X57806770Y-12962069D02*
X57867247Y-12841116D01*
X57867247Y-12841116D02*
X57988199Y-12720164D01*
X57988199Y-12720164D02*
X58169628Y-12659688D01*
X58169628Y-12659688D02*
X58290580Y-12659688D01*
X58290580Y-12659688D02*
X58472009Y-12720164D01*
X58472009Y-12720164D02*
X58532485Y-12780640D01*
X59076770Y-13929688D02*
X59076770Y-12659688D01*
X59681532Y-13445878D02*
X60649152Y-13445878D01*
X61495818Y-12659688D02*
X61616771Y-12659688D01*
X61616771Y-12659688D02*
X61737723Y-12720164D01*
X61737723Y-12720164D02*
X61798199Y-12780640D01*
X61798199Y-12780640D02*
X61858675Y-12901592D01*
X61858675Y-12901592D02*
X61919152Y-13143497D01*
X61919152Y-13143497D02*
X61919152Y-13445878D01*
X61919152Y-13445878D02*
X61858675Y-13687783D01*
X61858675Y-13687783D02*
X61798199Y-13808735D01*
X61798199Y-13808735D02*
X61737723Y-13869212D01*
X61737723Y-13869212D02*
X61616771Y-13929688D01*
X61616771Y-13929688D02*
X61495818Y-13929688D01*
X61495818Y-13929688D02*
X61374866Y-13869212D01*
X61374866Y-13869212D02*
X61314390Y-13808735D01*
X61314390Y-13808735D02*
X61253913Y-13687783D01*
X61253913Y-13687783D02*
X61193437Y-13445878D01*
X61193437Y-13445878D02*
X61193437Y-13143497D01*
X61193437Y-13143497D02*
X61253913Y-12901592D01*
X61253913Y-12901592D02*
X61314390Y-12780640D01*
X61314390Y-12780640D02*
X61374866Y-12720164D01*
X61374866Y-12720164D02*
X61495818Y-12659688D01*
X63128676Y-13929688D02*
X62402961Y-13929688D01*
X62765818Y-13929688D02*
X62765818Y-12659688D01*
X62765818Y-12659688D02*
X62644866Y-12841116D01*
X62644866Y-12841116D02*
X62523914Y-12962069D01*
X62523914Y-12962069D02*
X62402961Y-13022545D01*
D10*
X7542590Y-13448409D02*
X7542590Y-12178409D01*
X8147352Y-13448409D02*
X8147352Y-12178409D01*
X8147352Y-12178409D02*
X8873067Y-13448409D01*
X8873067Y-13448409D02*
X8873067Y-12178409D01*
X11110686Y-13448409D02*
X10384971Y-13448409D01*
X10747828Y-13448409D02*
X10747828Y-12178409D01*
X10747828Y-12178409D02*
X10626876Y-12359837D01*
X10626876Y-12359837D02*
X10505924Y-12480790D01*
X10505924Y-12480790D02*
X10384971Y-12541266D01*
X67461190Y-13448409D02*
X67461190Y-12178409D01*
X68065952Y-13448409D02*
X68065952Y-12178409D01*
X68065952Y-12178409D02*
X68791667Y-13448409D01*
X68791667Y-13448409D02*
X68791667Y-12178409D01*
X70243095Y-12178409D02*
X71029286Y-12178409D01*
X71029286Y-12178409D02*
X70605952Y-12662218D01*
X70605952Y-12662218D02*
X70787381Y-12662218D01*
X70787381Y-12662218D02*
X70908333Y-12722694D01*
X70908333Y-12722694D02*
X70968809Y-12783171D01*
X70968809Y-12783171D02*
X71029286Y-12904123D01*
X71029286Y-12904123D02*
X71029286Y-13206504D01*
X71029286Y-13206504D02*
X70968809Y-13327456D01*
X70968809Y-13327456D02*
X70908333Y-13387933D01*
X70908333Y-13387933D02*
X70787381Y-13448409D01*
X70787381Y-13448409D02*
X70424524Y-13448409D01*
X70424524Y-13448409D02*
X70303571Y-13387933D01*
X70303571Y-13387933D02*
X70243095Y-13327456D01*
D12*
X73620333Y-12875419D02*
X73287000Y-12399228D01*
X73048905Y-12875419D02*
X73048905Y-11875419D01*
X73048905Y-11875419D02*
X73429857Y-11875419D01*
X73429857Y-11875419D02*
X73525095Y-11923038D01*
X73525095Y-11923038D02*
X73572714Y-11970657D01*
X73572714Y-11970657D02*
X73620333Y-12065895D01*
X73620333Y-12065895D02*
X73620333Y-12208752D01*
X73620333Y-12208752D02*
X73572714Y-12303990D01*
X73572714Y-12303990D02*
X73525095Y-12351609D01*
X73525095Y-12351609D02*
X73429857Y-12399228D01*
X73429857Y-12399228D02*
X73048905Y-12399228D01*
X74525095Y-11875419D02*
X74048905Y-11875419D01*
X74048905Y-11875419D02*
X74001286Y-12351609D01*
X74001286Y-12351609D02*
X74048905Y-12303990D01*
X74048905Y-12303990D02*
X74144143Y-12256371D01*
X74144143Y-12256371D02*
X74382238Y-12256371D01*
X74382238Y-12256371D02*
X74477476Y-12303990D01*
X74477476Y-12303990D02*
X74525095Y-12351609D01*
X74525095Y-12351609D02*
X74572714Y-12446847D01*
X74572714Y-12446847D02*
X74572714Y-12684942D01*
X74572714Y-12684942D02*
X74525095Y-12780180D01*
X74525095Y-12780180D02*
X74477476Y-12827800D01*
X74477476Y-12827800D02*
X74382238Y-12875419D01*
X74382238Y-12875419D02*
X74144143Y-12875419D01*
X74144143Y-12875419D02*
X74048905Y-12827800D01*
X74048905Y-12827800D02*
X74001286Y-12780180D01*
X43622933Y-12850019D02*
X43289600Y-12373828D01*
X43051505Y-12850019D02*
X43051505Y-11850019D01*
X43051505Y-11850019D02*
X43432457Y-11850019D01*
X43432457Y-11850019D02*
X43527695Y-11897638D01*
X43527695Y-11897638D02*
X43575314Y-11945257D01*
X43575314Y-11945257D02*
X43622933Y-12040495D01*
X43622933Y-12040495D02*
X43622933Y-12183352D01*
X43622933Y-12183352D02*
X43575314Y-12278590D01*
X43575314Y-12278590D02*
X43527695Y-12326209D01*
X43527695Y-12326209D02*
X43432457Y-12373828D01*
X43432457Y-12373828D02*
X43051505Y-12373828D01*
X44480076Y-12183352D02*
X44480076Y-12850019D01*
X44241981Y-11802400D02*
X44003886Y-12516685D01*
X44003886Y-12516685D02*
X44622933Y-12516685D01*
X44816733Y-2797980D02*
X44769114Y-2845600D01*
X44769114Y-2845600D02*
X44626257Y-2893219D01*
X44626257Y-2893219D02*
X44531019Y-2893219D01*
X44531019Y-2893219D02*
X44388162Y-2845600D01*
X44388162Y-2845600D02*
X44292924Y-2750361D01*
X44292924Y-2750361D02*
X44245305Y-2655123D01*
X44245305Y-2655123D02*
X44197686Y-2464647D01*
X44197686Y-2464647D02*
X44197686Y-2321790D01*
X44197686Y-2321790D02*
X44245305Y-2131314D01*
X44245305Y-2131314D02*
X44292924Y-2036076D01*
X44292924Y-2036076D02*
X44388162Y-1940838D01*
X44388162Y-1940838D02*
X44531019Y-1893219D01*
X44531019Y-1893219D02*
X44626257Y-1893219D01*
X44626257Y-1893219D02*
X44769114Y-1940838D01*
X44769114Y-1940838D02*
X44816733Y-1988457D01*
X45673876Y-2226552D02*
X45673876Y-2893219D01*
X45435781Y-1845600D02*
X45197686Y-2559885D01*
X45197686Y-2559885D02*
X45816733Y-2559885D01*
X23353733Y-12799219D02*
X23020400Y-12323028D01*
X22782305Y-12799219D02*
X22782305Y-11799219D01*
X22782305Y-11799219D02*
X23163257Y-11799219D01*
X23163257Y-11799219D02*
X23258495Y-11846838D01*
X23258495Y-11846838D02*
X23306114Y-11894457D01*
X23306114Y-11894457D02*
X23353733Y-11989695D01*
X23353733Y-11989695D02*
X23353733Y-12132552D01*
X23353733Y-12132552D02*
X23306114Y-12227790D01*
X23306114Y-12227790D02*
X23258495Y-12275409D01*
X23258495Y-12275409D02*
X23163257Y-12323028D01*
X23163257Y-12323028D02*
X22782305Y-12323028D01*
X23734686Y-11894457D02*
X23782305Y-11846838D01*
X23782305Y-11846838D02*
X23877543Y-11799219D01*
X23877543Y-11799219D02*
X24115638Y-11799219D01*
X24115638Y-11799219D02*
X24210876Y-11846838D01*
X24210876Y-11846838D02*
X24258495Y-11894457D01*
X24258495Y-11894457D02*
X24306114Y-11989695D01*
X24306114Y-11989695D02*
X24306114Y-12084933D01*
X24306114Y-12084933D02*
X24258495Y-12227790D01*
X24258495Y-12227790D02*
X23687067Y-12799219D01*
X23687067Y-12799219D02*
X24306114Y-12799219D01*
X104100333Y-2594780D02*
X104052714Y-2642400D01*
X104052714Y-2642400D02*
X103909857Y-2690019D01*
X103909857Y-2690019D02*
X103814619Y-2690019D01*
X103814619Y-2690019D02*
X103671762Y-2642400D01*
X103671762Y-2642400D02*
X103576524Y-2547161D01*
X103576524Y-2547161D02*
X103528905Y-2451923D01*
X103528905Y-2451923D02*
X103481286Y-2261447D01*
X103481286Y-2261447D02*
X103481286Y-2118590D01*
X103481286Y-2118590D02*
X103528905Y-1928114D01*
X103528905Y-1928114D02*
X103576524Y-1832876D01*
X103576524Y-1832876D02*
X103671762Y-1737638D01*
X103671762Y-1737638D02*
X103814619Y-1690019D01*
X103814619Y-1690019D02*
X103909857Y-1690019D01*
X103909857Y-1690019D02*
X104052714Y-1737638D01*
X104052714Y-1737638D02*
X104100333Y-1785257D01*
X104671762Y-2118590D02*
X104576524Y-2070971D01*
X104576524Y-2070971D02*
X104528905Y-2023352D01*
X104528905Y-2023352D02*
X104481286Y-1928114D01*
X104481286Y-1928114D02*
X104481286Y-1880495D01*
X104481286Y-1880495D02*
X104528905Y-1785257D01*
X104528905Y-1785257D02*
X104576524Y-1737638D01*
X104576524Y-1737638D02*
X104671762Y-1690019D01*
X104671762Y-1690019D02*
X104862238Y-1690019D01*
X104862238Y-1690019D02*
X104957476Y-1737638D01*
X104957476Y-1737638D02*
X105005095Y-1785257D01*
X105005095Y-1785257D02*
X105052714Y-1880495D01*
X105052714Y-1880495D02*
X105052714Y-1928114D01*
X105052714Y-1928114D02*
X105005095Y-2023352D01*
X105005095Y-2023352D02*
X104957476Y-2070971D01*
X104957476Y-2070971D02*
X104862238Y-2118590D01*
X104862238Y-2118590D02*
X104671762Y-2118590D01*
X104671762Y-2118590D02*
X104576524Y-2166209D01*
X104576524Y-2166209D02*
X104528905Y-2213828D01*
X104528905Y-2213828D02*
X104481286Y-2309066D01*
X104481286Y-2309066D02*
X104481286Y-2499542D01*
X104481286Y-2499542D02*
X104528905Y-2594780D01*
X104528905Y-2594780D02*
X104576524Y-2642400D01*
X104576524Y-2642400D02*
X104671762Y-2690019D01*
X104671762Y-2690019D02*
X104862238Y-2690019D01*
X104862238Y-2690019D02*
X104957476Y-2642400D01*
X104957476Y-2642400D02*
X105005095Y-2594780D01*
X105005095Y-2594780D02*
X105052714Y-2499542D01*
X105052714Y-2499542D02*
X105052714Y-2309066D01*
X105052714Y-2309066D02*
X105005095Y-2213828D01*
X105005095Y-2213828D02*
X104957476Y-2166209D01*
X104957476Y-2166209D02*
X104862238Y-2118590D01*
X99147333Y-12712619D02*
X98814000Y-12236428D01*
X98575905Y-12712619D02*
X98575905Y-11712619D01*
X98575905Y-11712619D02*
X98956857Y-11712619D01*
X98956857Y-11712619D02*
X99052095Y-11760238D01*
X99052095Y-11760238D02*
X99099714Y-11807857D01*
X99099714Y-11807857D02*
X99147333Y-11903095D01*
X99147333Y-11903095D02*
X99147333Y-12045952D01*
X99147333Y-12045952D02*
X99099714Y-12141190D01*
X99099714Y-12141190D02*
X99052095Y-12188809D01*
X99052095Y-12188809D02*
X98956857Y-12236428D01*
X98956857Y-12236428D02*
X98575905Y-12236428D01*
X99718762Y-12141190D02*
X99623524Y-12093571D01*
X99623524Y-12093571D02*
X99575905Y-12045952D01*
X99575905Y-12045952D02*
X99528286Y-11950714D01*
X99528286Y-11950714D02*
X99528286Y-11903095D01*
X99528286Y-11903095D02*
X99575905Y-11807857D01*
X99575905Y-11807857D02*
X99623524Y-11760238D01*
X99623524Y-11760238D02*
X99718762Y-11712619D01*
X99718762Y-11712619D02*
X99909238Y-11712619D01*
X99909238Y-11712619D02*
X100004476Y-11760238D01*
X100004476Y-11760238D02*
X100052095Y-11807857D01*
X100052095Y-11807857D02*
X100099714Y-11903095D01*
X100099714Y-11903095D02*
X100099714Y-11950714D01*
X100099714Y-11950714D02*
X100052095Y-12045952D01*
X100052095Y-12045952D02*
X100004476Y-12093571D01*
X100004476Y-12093571D02*
X99909238Y-12141190D01*
X99909238Y-12141190D02*
X99718762Y-12141190D01*
X99718762Y-12141190D02*
X99623524Y-12188809D01*
X99623524Y-12188809D02*
X99575905Y-12236428D01*
X99575905Y-12236428D02*
X99528286Y-12331666D01*
X99528286Y-12331666D02*
X99528286Y-12522142D01*
X99528286Y-12522142D02*
X99575905Y-12617380D01*
X99575905Y-12617380D02*
X99623524Y-12665000D01*
X99623524Y-12665000D02*
X99718762Y-12712619D01*
X99718762Y-12712619D02*
X99909238Y-12712619D01*
X99909238Y-12712619D02*
X100004476Y-12665000D01*
X100004476Y-12665000D02*
X100052095Y-12617380D01*
X100052095Y-12617380D02*
X100099714Y-12522142D01*
X100099714Y-12522142D02*
X100099714Y-12331666D01*
X100099714Y-12331666D02*
X100052095Y-12236428D01*
X100052095Y-12236428D02*
X100004476Y-12188809D01*
X100004476Y-12188809D02*
X99909238Y-12141190D01*
X89800933Y-12712619D02*
X89467600Y-12236428D01*
X89229505Y-12712619D02*
X89229505Y-11712619D01*
X89229505Y-11712619D02*
X89610457Y-11712619D01*
X89610457Y-11712619D02*
X89705695Y-11760238D01*
X89705695Y-11760238D02*
X89753314Y-11807857D01*
X89753314Y-11807857D02*
X89800933Y-11903095D01*
X89800933Y-11903095D02*
X89800933Y-12045952D01*
X89800933Y-12045952D02*
X89753314Y-12141190D01*
X89753314Y-12141190D02*
X89705695Y-12188809D01*
X89705695Y-12188809D02*
X89610457Y-12236428D01*
X89610457Y-12236428D02*
X89229505Y-12236428D01*
X90134267Y-11712619D02*
X90800933Y-11712619D01*
X90800933Y-11712619D02*
X90372362Y-12712619D01*
X13701733Y-12723019D02*
X13368400Y-12246828D01*
X13130305Y-12723019D02*
X13130305Y-11723019D01*
X13130305Y-11723019D02*
X13511257Y-11723019D01*
X13511257Y-11723019D02*
X13606495Y-11770638D01*
X13606495Y-11770638D02*
X13654114Y-11818257D01*
X13654114Y-11818257D02*
X13701733Y-11913495D01*
X13701733Y-11913495D02*
X13701733Y-12056352D01*
X13701733Y-12056352D02*
X13654114Y-12151590D01*
X13654114Y-12151590D02*
X13606495Y-12199209D01*
X13606495Y-12199209D02*
X13511257Y-12246828D01*
X13511257Y-12246828D02*
X13130305Y-12246828D01*
X14654114Y-12723019D02*
X14082686Y-12723019D01*
X14368400Y-12723019D02*
X14368400Y-11723019D01*
X14368400Y-11723019D02*
X14273162Y-11865876D01*
X14273162Y-11865876D02*
X14177924Y-11961114D01*
X14177924Y-11961114D02*
X14082686Y-12008733D01*
X17121333Y-12132552D02*
X17121333Y-12799219D01*
X16883238Y-11751600D02*
X16645143Y-12465885D01*
X16645143Y-12465885D02*
X17264190Y-12465885D01*
X17549905Y-11799219D02*
X18216571Y-11799219D01*
X18216571Y-11799219D02*
X17788000Y-12799219D01*
X18788000Y-11799219D02*
X18883238Y-11799219D01*
X18883238Y-11799219D02*
X18978476Y-11846838D01*
X18978476Y-11846838D02*
X19026095Y-11894457D01*
X19026095Y-11894457D02*
X19073714Y-11989695D01*
X19073714Y-11989695D02*
X19121333Y-12180171D01*
X19121333Y-12180171D02*
X19121333Y-12418266D01*
X19121333Y-12418266D02*
X19073714Y-12608742D01*
X19073714Y-12608742D02*
X19026095Y-12703980D01*
X19026095Y-12703980D02*
X18978476Y-12751600D01*
X18978476Y-12751600D02*
X18883238Y-12799219D01*
X18883238Y-12799219D02*
X18788000Y-12799219D01*
X18788000Y-12799219D02*
X18692762Y-12751600D01*
X18692762Y-12751600D02*
X18645143Y-12703980D01*
X18645143Y-12703980D02*
X18597524Y-12608742D01*
X18597524Y-12608742D02*
X18549905Y-12418266D01*
X18549905Y-12418266D02*
X18549905Y-12180171D01*
X18549905Y-12180171D02*
X18597524Y-11989695D01*
X18597524Y-11989695D02*
X18645143Y-11894457D01*
X18645143Y-11894457D02*
X18692762Y-11846838D01*
X18692762Y-11846838D02*
X18788000Y-11799219D01*
X19549905Y-12799219D02*
X19549905Y-11799219D01*
X19645143Y-12418266D02*
X19930857Y-12799219D01*
X19930857Y-12132552D02*
X19549905Y-12513504D01*
X35342533Y-2797980D02*
X35294914Y-2845600D01*
X35294914Y-2845600D02*
X35152057Y-2893219D01*
X35152057Y-2893219D02*
X35056819Y-2893219D01*
X35056819Y-2893219D02*
X34913962Y-2845600D01*
X34913962Y-2845600D02*
X34818724Y-2750361D01*
X34818724Y-2750361D02*
X34771105Y-2655123D01*
X34771105Y-2655123D02*
X34723486Y-2464647D01*
X34723486Y-2464647D02*
X34723486Y-2321790D01*
X34723486Y-2321790D02*
X34771105Y-2131314D01*
X34771105Y-2131314D02*
X34818724Y-2036076D01*
X34818724Y-2036076D02*
X34913962Y-1940838D01*
X34913962Y-1940838D02*
X35056819Y-1893219D01*
X35056819Y-1893219D02*
X35152057Y-1893219D01*
X35152057Y-1893219D02*
X35294914Y-1940838D01*
X35294914Y-1940838D02*
X35342533Y-1988457D01*
X35675867Y-1893219D02*
X36294914Y-1893219D01*
X36294914Y-1893219D02*
X35961581Y-2274171D01*
X35961581Y-2274171D02*
X36104438Y-2274171D01*
X36104438Y-2274171D02*
X36199676Y-2321790D01*
X36199676Y-2321790D02*
X36247295Y-2369409D01*
X36247295Y-2369409D02*
X36294914Y-2464647D01*
X36294914Y-2464647D02*
X36294914Y-2702742D01*
X36294914Y-2702742D02*
X36247295Y-2797980D01*
X36247295Y-2797980D02*
X36199676Y-2845600D01*
X36199676Y-2845600D02*
X36104438Y-2893219D01*
X36104438Y-2893219D02*
X35818724Y-2893219D01*
X35818724Y-2893219D02*
X35723486Y-2845600D01*
X35723486Y-2845600D02*
X35675867Y-2797980D01*
X25868333Y-2797980D02*
X25820714Y-2845600D01*
X25820714Y-2845600D02*
X25677857Y-2893219D01*
X25677857Y-2893219D02*
X25582619Y-2893219D01*
X25582619Y-2893219D02*
X25439762Y-2845600D01*
X25439762Y-2845600D02*
X25344524Y-2750361D01*
X25344524Y-2750361D02*
X25296905Y-2655123D01*
X25296905Y-2655123D02*
X25249286Y-2464647D01*
X25249286Y-2464647D02*
X25249286Y-2321790D01*
X25249286Y-2321790D02*
X25296905Y-2131314D01*
X25296905Y-2131314D02*
X25344524Y-2036076D01*
X25344524Y-2036076D02*
X25439762Y-1940838D01*
X25439762Y-1940838D02*
X25582619Y-1893219D01*
X25582619Y-1893219D02*
X25677857Y-1893219D01*
X25677857Y-1893219D02*
X25820714Y-1940838D01*
X25820714Y-1940838D02*
X25868333Y-1988457D01*
X26249286Y-1988457D02*
X26296905Y-1940838D01*
X26296905Y-1940838D02*
X26392143Y-1893219D01*
X26392143Y-1893219D02*
X26630238Y-1893219D01*
X26630238Y-1893219D02*
X26725476Y-1940838D01*
X26725476Y-1940838D02*
X26773095Y-1988457D01*
X26773095Y-1988457D02*
X26820714Y-2083695D01*
X26820714Y-2083695D02*
X26820714Y-2178933D01*
X26820714Y-2178933D02*
X26773095Y-2321790D01*
X26773095Y-2321790D02*
X26201667Y-2893219D01*
X26201667Y-2893219D02*
X26820714Y-2893219D01*
X95083333Y-2543980D02*
X95035714Y-2591600D01*
X95035714Y-2591600D02*
X94892857Y-2639219D01*
X94892857Y-2639219D02*
X94797619Y-2639219D01*
X94797619Y-2639219D02*
X94654762Y-2591600D01*
X94654762Y-2591600D02*
X94559524Y-2496361D01*
X94559524Y-2496361D02*
X94511905Y-2401123D01*
X94511905Y-2401123D02*
X94464286Y-2210647D01*
X94464286Y-2210647D02*
X94464286Y-2067790D01*
X94464286Y-2067790D02*
X94511905Y-1877314D01*
X94511905Y-1877314D02*
X94559524Y-1782076D01*
X94559524Y-1782076D02*
X94654762Y-1686838D01*
X94654762Y-1686838D02*
X94797619Y-1639219D01*
X94797619Y-1639219D02*
X94892857Y-1639219D01*
X94892857Y-1639219D02*
X95035714Y-1686838D01*
X95035714Y-1686838D02*
X95083333Y-1734457D01*
X95416667Y-1639219D02*
X96083333Y-1639219D01*
X96083333Y-1639219D02*
X95654762Y-2639219D01*
X32827933Y-12799219D02*
X32494600Y-12323028D01*
X32256505Y-12799219D02*
X32256505Y-11799219D01*
X32256505Y-11799219D02*
X32637457Y-11799219D01*
X32637457Y-11799219D02*
X32732695Y-11846838D01*
X32732695Y-11846838D02*
X32780314Y-11894457D01*
X32780314Y-11894457D02*
X32827933Y-11989695D01*
X32827933Y-11989695D02*
X32827933Y-12132552D01*
X32827933Y-12132552D02*
X32780314Y-12227790D01*
X32780314Y-12227790D02*
X32732695Y-12275409D01*
X32732695Y-12275409D02*
X32637457Y-12323028D01*
X32637457Y-12323028D02*
X32256505Y-12323028D01*
X33161267Y-11799219D02*
X33780314Y-11799219D01*
X33780314Y-11799219D02*
X33446981Y-12180171D01*
X33446981Y-12180171D02*
X33589838Y-12180171D01*
X33589838Y-12180171D02*
X33685076Y-12227790D01*
X33685076Y-12227790D02*
X33732695Y-12275409D01*
X33732695Y-12275409D02*
X33780314Y-12370647D01*
X33780314Y-12370647D02*
X33780314Y-12608742D01*
X33780314Y-12608742D02*
X33732695Y-12703980D01*
X33732695Y-12703980D02*
X33685076Y-12751600D01*
X33685076Y-12751600D02*
X33589838Y-12799219D01*
X33589838Y-12799219D02*
X33304124Y-12799219D01*
X33304124Y-12799219D02*
X33208886Y-12751600D01*
X33208886Y-12751600D02*
X33161267Y-12703980D01*
X82510333Y-12824619D02*
X82177000Y-12348428D01*
X81938905Y-12824619D02*
X81938905Y-11824619D01*
X81938905Y-11824619D02*
X82319857Y-11824619D01*
X82319857Y-11824619D02*
X82415095Y-11872238D01*
X82415095Y-11872238D02*
X82462714Y-11919857D01*
X82462714Y-11919857D02*
X82510333Y-12015095D01*
X82510333Y-12015095D02*
X82510333Y-12157952D01*
X82510333Y-12157952D02*
X82462714Y-12253190D01*
X82462714Y-12253190D02*
X82415095Y-12300809D01*
X82415095Y-12300809D02*
X82319857Y-12348428D01*
X82319857Y-12348428D02*
X81938905Y-12348428D01*
X83367476Y-11824619D02*
X83177000Y-11824619D01*
X83177000Y-11824619D02*
X83081762Y-11872238D01*
X83081762Y-11872238D02*
X83034143Y-11919857D01*
X83034143Y-11919857D02*
X82938905Y-12062714D01*
X82938905Y-12062714D02*
X82891286Y-12253190D01*
X82891286Y-12253190D02*
X82891286Y-12634142D01*
X82891286Y-12634142D02*
X82938905Y-12729380D01*
X82938905Y-12729380D02*
X82986524Y-12777000D01*
X82986524Y-12777000D02*
X83081762Y-12824619D01*
X83081762Y-12824619D02*
X83272238Y-12824619D01*
X83272238Y-12824619D02*
X83367476Y-12777000D01*
X83367476Y-12777000D02*
X83415095Y-12729380D01*
X83415095Y-12729380D02*
X83462714Y-12634142D01*
X83462714Y-12634142D02*
X83462714Y-12396047D01*
X83462714Y-12396047D02*
X83415095Y-12300809D01*
X83415095Y-12300809D02*
X83367476Y-12253190D01*
X83367476Y-12253190D02*
X83272238Y-12205571D01*
X83272238Y-12205571D02*
X83081762Y-12205571D01*
X83081762Y-12205571D02*
X82986524Y-12253190D01*
X82986524Y-12253190D02*
X82938905Y-12300809D01*
X82938905Y-12300809D02*
X82891286Y-12396047D01*
X86453133Y-2543980D02*
X86405514Y-2591600D01*
X86405514Y-2591600D02*
X86262657Y-2639219D01*
X86262657Y-2639219D02*
X86167419Y-2639219D01*
X86167419Y-2639219D02*
X86024562Y-2591600D01*
X86024562Y-2591600D02*
X85929324Y-2496361D01*
X85929324Y-2496361D02*
X85881705Y-2401123D01*
X85881705Y-2401123D02*
X85834086Y-2210647D01*
X85834086Y-2210647D02*
X85834086Y-2067790D01*
X85834086Y-2067790D02*
X85881705Y-1877314D01*
X85881705Y-1877314D02*
X85929324Y-1782076D01*
X85929324Y-1782076D02*
X86024562Y-1686838D01*
X86024562Y-1686838D02*
X86167419Y-1639219D01*
X86167419Y-1639219D02*
X86262657Y-1639219D01*
X86262657Y-1639219D02*
X86405514Y-1686838D01*
X86405514Y-1686838D02*
X86453133Y-1734457D01*
X87310276Y-1639219D02*
X87119800Y-1639219D01*
X87119800Y-1639219D02*
X87024562Y-1686838D01*
X87024562Y-1686838D02*
X86976943Y-1734457D01*
X86976943Y-1734457D02*
X86881705Y-1877314D01*
X86881705Y-1877314D02*
X86834086Y-2067790D01*
X86834086Y-2067790D02*
X86834086Y-2448742D01*
X86834086Y-2448742D02*
X86881705Y-2543980D01*
X86881705Y-2543980D02*
X86929324Y-2591600D01*
X86929324Y-2591600D02*
X87024562Y-2639219D01*
X87024562Y-2639219D02*
X87215038Y-2639219D01*
X87215038Y-2639219D02*
X87310276Y-2591600D01*
X87310276Y-2591600D02*
X87357895Y-2543980D01*
X87357895Y-2543980D02*
X87405514Y-2448742D01*
X87405514Y-2448742D02*
X87405514Y-2210647D01*
X87405514Y-2210647D02*
X87357895Y-2115409D01*
X87357895Y-2115409D02*
X87310276Y-2067790D01*
X87310276Y-2067790D02*
X87215038Y-2020171D01*
X87215038Y-2020171D02*
X87024562Y-2020171D01*
X87024562Y-2020171D02*
X86929324Y-2067790D01*
X86929324Y-2067790D02*
X86881705Y-2115409D01*
X86881705Y-2115409D02*
X86834086Y-2210647D01*
X77633533Y-2594780D02*
X77585914Y-2642400D01*
X77585914Y-2642400D02*
X77443057Y-2690019D01*
X77443057Y-2690019D02*
X77347819Y-2690019D01*
X77347819Y-2690019D02*
X77204962Y-2642400D01*
X77204962Y-2642400D02*
X77109724Y-2547161D01*
X77109724Y-2547161D02*
X77062105Y-2451923D01*
X77062105Y-2451923D02*
X77014486Y-2261447D01*
X77014486Y-2261447D02*
X77014486Y-2118590D01*
X77014486Y-2118590D02*
X77062105Y-1928114D01*
X77062105Y-1928114D02*
X77109724Y-1832876D01*
X77109724Y-1832876D02*
X77204962Y-1737638D01*
X77204962Y-1737638D02*
X77347819Y-1690019D01*
X77347819Y-1690019D02*
X77443057Y-1690019D01*
X77443057Y-1690019D02*
X77585914Y-1737638D01*
X77585914Y-1737638D02*
X77633533Y-1785257D01*
X78538295Y-1690019D02*
X78062105Y-1690019D01*
X78062105Y-1690019D02*
X78014486Y-2166209D01*
X78014486Y-2166209D02*
X78062105Y-2118590D01*
X78062105Y-2118590D02*
X78157343Y-2070971D01*
X78157343Y-2070971D02*
X78395438Y-2070971D01*
X78395438Y-2070971D02*
X78490676Y-2118590D01*
X78490676Y-2118590D02*
X78538295Y-2166209D01*
X78538295Y-2166209D02*
X78585914Y-2261447D01*
X78585914Y-2261447D02*
X78585914Y-2499542D01*
X78585914Y-2499542D02*
X78538295Y-2594780D01*
X78538295Y-2594780D02*
X78490676Y-2642400D01*
X78490676Y-2642400D02*
X78395438Y-2690019D01*
X78395438Y-2690019D02*
X78157343Y-2690019D01*
X78157343Y-2690019D02*
X78062105Y-2642400D01*
X78062105Y-2642400D02*
X78014486Y-2594780D01*
X16571933Y-2747180D02*
X16524314Y-2794800D01*
X16524314Y-2794800D02*
X16381457Y-2842419D01*
X16381457Y-2842419D02*
X16286219Y-2842419D01*
X16286219Y-2842419D02*
X16143362Y-2794800D01*
X16143362Y-2794800D02*
X16048124Y-2699561D01*
X16048124Y-2699561D02*
X16000505Y-2604323D01*
X16000505Y-2604323D02*
X15952886Y-2413847D01*
X15952886Y-2413847D02*
X15952886Y-2270990D01*
X15952886Y-2270990D02*
X16000505Y-2080514D01*
X16000505Y-2080514D02*
X16048124Y-1985276D01*
X16048124Y-1985276D02*
X16143362Y-1890038D01*
X16143362Y-1890038D02*
X16286219Y-1842419D01*
X16286219Y-1842419D02*
X16381457Y-1842419D01*
X16381457Y-1842419D02*
X16524314Y-1890038D01*
X16524314Y-1890038D02*
X16571933Y-1937657D01*
X17524314Y-2842419D02*
X16952886Y-2842419D01*
X17238600Y-2842419D02*
X17238600Y-1842419D01*
X17238600Y-1842419D02*
X17143362Y-1985276D01*
X17143362Y-1985276D02*
X17048124Y-2080514D01*
X17048124Y-2080514D02*
X16952886Y-2128133D01*
X16632371Y-4391819D02*
X16060943Y-4391819D01*
X16346657Y-4391819D02*
X16346657Y-3391819D01*
X16346657Y-3391819D02*
X16251419Y-3534676D01*
X16251419Y-3534676D02*
X16156181Y-3629914D01*
X16156181Y-3629914D02*
X16060943Y-3677533D01*
X17251419Y-3391819D02*
X17346657Y-3391819D01*
X17346657Y-3391819D02*
X17441895Y-3439438D01*
X17441895Y-3439438D02*
X17489514Y-3487057D01*
X17489514Y-3487057D02*
X17537133Y-3582295D01*
X17537133Y-3582295D02*
X17584752Y-3772771D01*
X17584752Y-3772771D02*
X17584752Y-4010866D01*
X17584752Y-4010866D02*
X17537133Y-4201342D01*
X17537133Y-4201342D02*
X17489514Y-4296580D01*
X17489514Y-4296580D02*
X17441895Y-4344200D01*
X17441895Y-4344200D02*
X17346657Y-4391819D01*
X17346657Y-4391819D02*
X17251419Y-4391819D01*
X17251419Y-4391819D02*
X17156181Y-4344200D01*
X17156181Y-4344200D02*
X17108562Y-4296580D01*
X17108562Y-4296580D02*
X17060943Y-4201342D01*
X17060943Y-4201342D02*
X17013324Y-4010866D01*
X17013324Y-4010866D02*
X17013324Y-3772771D01*
X17013324Y-3772771D02*
X17060943Y-3582295D01*
X17060943Y-3582295D02*
X17108562Y-3487057D01*
X17108562Y-3487057D02*
X17156181Y-3439438D01*
X17156181Y-3439438D02*
X17251419Y-3391819D01*
X18441895Y-3725152D02*
X18441895Y-4391819D01*
X18013324Y-3725152D02*
X18013324Y-4248961D01*
X18013324Y-4248961D02*
X18060943Y-4344200D01*
X18060943Y-4344200D02*
X18156181Y-4391819D01*
X18156181Y-4391819D02*
X18299038Y-4391819D01*
X18299038Y-4391819D02*
X18394276Y-4344200D01*
X18394276Y-4344200D02*
X18441895Y-4296580D01*
X19251419Y-3868009D02*
X18918086Y-3868009D01*
X18918086Y-4391819D02*
X18918086Y-3391819D01*
X18918086Y-3391819D02*
X19394276Y-3391819D01*
D13*
%TO.C,R5*%
X73411600Y-10337800D02*
X74031600Y-10337800D01*
X73411600Y-10337800D02*
G75*
G02*
X71571600Y-10337800I-920000J0D01*
G01*
X71571600Y-10337800D02*
G75*
G02*
X73411600Y-10337800I920000J0D01*
G01*
%TO.C,R4*%
X43261800Y-10363200D02*
X43881800Y-10363200D01*
X43261800Y-10363200D02*
G75*
G02*
X41421800Y-10363200I-920000J0D01*
G01*
X41421800Y-10363200D02*
G75*
G02*
X43261800Y-10363200I920000J0D01*
G01*
%TO.C,J5*%
X86804600Y-33977400D02*
X87304600Y-33977400D01*
X86804600Y-41217400D02*
X86804600Y-33977400D01*
X87304600Y-24977400D02*
X88304600Y-24977400D01*
X87304600Y-33977400D02*
X87304600Y-24977400D01*
X88304600Y-24977400D02*
X88304600Y-16977400D01*
X88604600Y-41217400D02*
X86804600Y-41217400D01*
X88604600Y-41217400D02*
X88604600Y-48217400D01*
X89624600Y-16977400D02*
X88304600Y-16977400D01*
X95824600Y-16977400D02*
X92824600Y-16977400D01*
X101824600Y-16977400D02*
X99024600Y-16977400D01*
X112244600Y-41217400D02*
X112244600Y-48217400D01*
X112244600Y-48217400D02*
X88604600Y-48217400D01*
X112544600Y-16977400D02*
X105024600Y-16977400D01*
X112544600Y-24977400D02*
X112544600Y-16977400D01*
X113544600Y-24977400D02*
X112544600Y-24977400D01*
X113544600Y-33977400D02*
X113544600Y-24977400D01*
X113544600Y-33977400D02*
X114044600Y-33977400D01*
X114044600Y-41217400D02*
X112244600Y-41217400D01*
X114044600Y-41217400D02*
X114044600Y-33977400D01*
%TO.C,C4*%
X39960000Y-4500000D02*
X38420000Y-4500000D01*
X39960000Y-4540000D02*
X38420000Y-4540000D01*
X39960000Y-4580000D02*
X38421000Y-4580000D01*
X39960000Y-4620000D02*
X38422000Y-4620000D01*
X39960000Y-4660000D02*
X38424000Y-4660000D01*
X39960000Y-4700000D02*
X38427000Y-4700000D01*
X39960000Y-4740000D02*
X38431000Y-4740000D01*
X39960000Y-4780000D02*
X38435000Y-4780000D01*
X39960000Y-4820000D02*
X38439000Y-4820000D01*
X39960000Y-4860000D02*
X38444000Y-4860000D01*
X39960000Y-4900000D02*
X38450000Y-4900000D01*
X39960000Y-4940000D02*
X38457000Y-4940000D01*
X39960000Y-4980000D02*
X38464000Y-4980000D01*
X39960000Y-5020000D02*
X38472000Y-5020000D01*
X39960000Y-5060000D02*
X38480000Y-5060000D01*
X39960000Y-5100000D02*
X38489000Y-5100000D01*
X39960000Y-5140000D02*
X38499000Y-5140000D01*
X39960000Y-5180000D02*
X38509000Y-5180000D01*
X39960000Y-5221000D02*
X38520000Y-5221000D01*
X39960000Y-5261000D02*
X38532000Y-5261000D01*
X39960000Y-5301000D02*
X38545000Y-5301000D01*
X39960000Y-5341000D02*
X38558000Y-5341000D01*
X39960000Y-5381000D02*
X38572000Y-5381000D01*
X39960000Y-5421000D02*
X38586000Y-5421000D01*
X39960000Y-5461000D02*
X38602000Y-5461000D01*
X39960000Y-5501000D02*
X38618000Y-5501000D01*
X39960000Y-5541000D02*
X38635000Y-5541000D01*
X39960000Y-5581000D02*
X38652000Y-5581000D01*
X39960000Y-5621000D02*
X38671000Y-5621000D01*
X39960000Y-5661000D02*
X38690000Y-5661000D01*
X39960000Y-5701000D02*
X38710000Y-5701000D01*
X39960000Y-5741000D02*
X38732000Y-5741000D01*
X39960000Y-5781000D02*
X38753000Y-5781000D01*
X39960000Y-5821000D02*
X38776000Y-5821000D01*
X39960000Y-5861000D02*
X38800000Y-5861000D01*
X39960000Y-5901000D02*
X38825000Y-5901000D01*
X39960000Y-5941000D02*
X38851000Y-5941000D01*
X39960000Y-5981000D02*
X38878000Y-5981000D01*
X39960000Y-6021000D02*
X38905000Y-6021000D01*
X39960000Y-6061000D02*
X38935000Y-6061000D01*
X39960000Y-6101000D02*
X38965000Y-6101000D01*
X39960000Y-6141000D02*
X38996000Y-6141000D01*
X39960000Y-6181000D02*
X39029000Y-6181000D01*
X39960000Y-6221000D02*
X39063000Y-6221000D01*
X39960000Y-6261000D02*
X39099000Y-6261000D01*
X39960000Y-6301000D02*
X39136000Y-6301000D01*
X39960000Y-6341000D02*
X39174000Y-6341000D01*
X39960000Y-6381000D02*
X39215000Y-6381000D01*
X39960000Y-6421000D02*
X39257000Y-6421000D01*
X39960000Y-6461000D02*
X39301000Y-6461000D01*
X39960000Y-6501000D02*
X39347000Y-6501000D01*
X41284000Y-7101000D02*
X40716000Y-7101000D01*
X41518000Y-7061000D02*
X40482000Y-7061000D01*
X41677000Y-7021000D02*
X40323000Y-7021000D01*
X41805000Y-6981000D02*
X40195000Y-6981000D01*
X41915000Y-6941000D02*
X40085000Y-6941000D01*
X42011000Y-6901000D02*
X39989000Y-6901000D01*
X42098000Y-6861000D02*
X39902000Y-6861000D01*
X42178000Y-6821000D02*
X39822000Y-6821000D01*
X42251000Y-6781000D02*
X39749000Y-6781000D01*
X42319000Y-6741000D02*
X39681000Y-6741000D01*
X42383000Y-6701000D02*
X39617000Y-6701000D01*
X42443000Y-6661000D02*
X39557000Y-6661000D01*
X42475000Y-1695225D02*
X42475000Y-2195225D01*
X42500000Y-6621000D02*
X39500000Y-6621000D01*
X42554000Y-6581000D02*
X39446000Y-6581000D01*
X42605000Y-6541000D02*
X39395000Y-6541000D01*
X42653000Y-6501000D02*
X42040000Y-6501000D01*
X42699000Y-6461000D02*
X42040000Y-6461000D01*
X42725000Y-1945225D02*
X42225000Y-1945225D01*
X42743000Y-6421000D02*
X42040000Y-6421000D01*
X42785000Y-6381000D02*
X42040000Y-6381000D01*
X42826000Y-6341000D02*
X42040000Y-6341000D01*
X42864000Y-6301000D02*
X42040000Y-6301000D01*
X42901000Y-6261000D02*
X42040000Y-6261000D01*
X42937000Y-6221000D02*
X42040000Y-6221000D01*
X42971000Y-6181000D02*
X42040000Y-6181000D01*
X43004000Y-6141000D02*
X42040000Y-6141000D01*
X43035000Y-6101000D02*
X42040000Y-6101000D01*
X43065000Y-6061000D02*
X42040000Y-6061000D01*
X43095000Y-6021000D02*
X42040000Y-6021000D01*
X43122000Y-5981000D02*
X42040000Y-5981000D01*
X43149000Y-5941000D02*
X42040000Y-5941000D01*
X43175000Y-5901000D02*
X42040000Y-5901000D01*
X43200000Y-5861000D02*
X42040000Y-5861000D01*
X43224000Y-5821000D02*
X42040000Y-5821000D01*
X43247000Y-5781000D02*
X42040000Y-5781000D01*
X43268000Y-5741000D02*
X42040000Y-5741000D01*
X43290000Y-5701000D02*
X42040000Y-5701000D01*
X43310000Y-5661000D02*
X42040000Y-5661000D01*
X43329000Y-5621000D02*
X42040000Y-5621000D01*
X43348000Y-5581000D02*
X42040000Y-5581000D01*
X43365000Y-5541000D02*
X42040000Y-5541000D01*
X43382000Y-5501000D02*
X42040000Y-5501000D01*
X43398000Y-5461000D02*
X42040000Y-5461000D01*
X43414000Y-5421000D02*
X42040000Y-5421000D01*
X43428000Y-5381000D02*
X42040000Y-5381000D01*
X43442000Y-5341000D02*
X42040000Y-5341000D01*
X43455000Y-5301000D02*
X42040000Y-5301000D01*
X43468000Y-5261000D02*
X42040000Y-5261000D01*
X43480000Y-5221000D02*
X42040000Y-5221000D01*
X43491000Y-5180000D02*
X42040000Y-5180000D01*
X43501000Y-5140000D02*
X42040000Y-5140000D01*
X43511000Y-5100000D02*
X42040000Y-5100000D01*
X43520000Y-5060000D02*
X42040000Y-5060000D01*
X43528000Y-5020000D02*
X42040000Y-5020000D01*
X43536000Y-4980000D02*
X42040000Y-4980000D01*
X43543000Y-4940000D02*
X42040000Y-4940000D01*
X43550000Y-4900000D02*
X42040000Y-4900000D01*
X43556000Y-4860000D02*
X42040000Y-4860000D01*
X43561000Y-4820000D02*
X42040000Y-4820000D01*
X43565000Y-4780000D02*
X42040000Y-4780000D01*
X43569000Y-4740000D02*
X42040000Y-4740000D01*
X43573000Y-4700000D02*
X42040000Y-4700000D01*
X43576000Y-4660000D02*
X42040000Y-4660000D01*
X43578000Y-4620000D02*
X42040000Y-4620000D01*
X43579000Y-4580000D02*
X42040000Y-4580000D01*
X43580000Y-4500000D02*
X42040000Y-4500000D01*
X43580000Y-4540000D02*
X42040000Y-4540000D01*
X43620000Y-4500000D02*
G75*
G02*
X38380000Y-4500000I-2620000J0D01*
G01*
X38380000Y-4500000D02*
G75*
G02*
X43620000Y-4500000I2620000J0D01*
G01*
%TO.C,R2*%
X23272000Y-10363200D02*
X23892000Y-10363200D01*
X23272000Y-10363200D02*
G75*
G02*
X21432000Y-10363200I-920000J0D01*
G01*
X21432000Y-10363200D02*
G75*
G02*
X23272000Y-10363200I920000J0D01*
G01*
%TO.C,J3*%
X28704600Y-33977400D02*
X29204600Y-33977400D01*
X28704600Y-41217400D02*
X28704600Y-33977400D01*
X29204600Y-24977400D02*
X30204600Y-24977400D01*
X29204600Y-33977400D02*
X29204600Y-24977400D01*
X30204600Y-24977400D02*
X30204600Y-16977400D01*
X30504600Y-41217400D02*
X28704600Y-41217400D01*
X30504600Y-41217400D02*
X30504600Y-48217400D01*
X31524600Y-16977400D02*
X30204600Y-16977400D01*
X37724600Y-16977400D02*
X34724600Y-16977400D01*
X43724600Y-16977400D02*
X40924600Y-16977400D01*
X54144600Y-41217400D02*
X54144600Y-48217400D01*
X54144600Y-48217400D02*
X30504600Y-48217400D01*
X54444600Y-16977400D02*
X46924600Y-16977400D01*
X54444600Y-24977400D02*
X54444600Y-16977400D01*
X55444600Y-24977400D02*
X54444600Y-24977400D01*
X55444600Y-33977400D02*
X55444600Y-24977400D01*
X55444600Y-33977400D02*
X55944600Y-33977400D01*
X55944600Y-41217400D02*
X54144600Y-41217400D01*
X55944600Y-41217400D02*
X55944600Y-33977400D01*
%TO.C,C8*%
X99569400Y-4500000D02*
X98029400Y-4500000D01*
X99569400Y-4540000D02*
X98029400Y-4540000D01*
X99569400Y-4580000D02*
X98030400Y-4580000D01*
X99569400Y-4620000D02*
X98031400Y-4620000D01*
X99569400Y-4660000D02*
X98033400Y-4660000D01*
X99569400Y-4700000D02*
X98036400Y-4700000D01*
X99569400Y-4740000D02*
X98040400Y-4740000D01*
X99569400Y-4780000D02*
X98044400Y-4780000D01*
X99569400Y-4820000D02*
X98048400Y-4820000D01*
X99569400Y-4860000D02*
X98053400Y-4860000D01*
X99569400Y-4900000D02*
X98059400Y-4900000D01*
X99569400Y-4940000D02*
X98066400Y-4940000D01*
X99569400Y-4980000D02*
X98073400Y-4980000D01*
X99569400Y-5020000D02*
X98081400Y-5020000D01*
X99569400Y-5060000D02*
X98089400Y-5060000D01*
X99569400Y-5100000D02*
X98098400Y-5100000D01*
X99569400Y-5140000D02*
X98108400Y-5140000D01*
X99569400Y-5180000D02*
X98118400Y-5180000D01*
X99569400Y-5221000D02*
X98129400Y-5221000D01*
X99569400Y-5261000D02*
X98141400Y-5261000D01*
X99569400Y-5301000D02*
X98154400Y-5301000D01*
X99569400Y-5341000D02*
X98167400Y-5341000D01*
X99569400Y-5381000D02*
X98181400Y-5381000D01*
X99569400Y-5421000D02*
X98195400Y-5421000D01*
X99569400Y-5461000D02*
X98211400Y-5461000D01*
X99569400Y-5501000D02*
X98227400Y-5501000D01*
X99569400Y-5541000D02*
X98244400Y-5541000D01*
X99569400Y-5581000D02*
X98261400Y-5581000D01*
X99569400Y-5621000D02*
X98280400Y-5621000D01*
X99569400Y-5661000D02*
X98299400Y-5661000D01*
X99569400Y-5701000D02*
X98319400Y-5701000D01*
X99569400Y-5741000D02*
X98341400Y-5741000D01*
X99569400Y-5781000D02*
X98362400Y-5781000D01*
X99569400Y-5821000D02*
X98385400Y-5821000D01*
X99569400Y-5861000D02*
X98409400Y-5861000D01*
X99569400Y-5901000D02*
X98434400Y-5901000D01*
X99569400Y-5941000D02*
X98460400Y-5941000D01*
X99569400Y-5981000D02*
X98487400Y-5981000D01*
X99569400Y-6021000D02*
X98514400Y-6021000D01*
X99569400Y-6061000D02*
X98544400Y-6061000D01*
X99569400Y-6101000D02*
X98574400Y-6101000D01*
X99569400Y-6141000D02*
X98605400Y-6141000D01*
X99569400Y-6181000D02*
X98638400Y-6181000D01*
X99569400Y-6221000D02*
X98672400Y-6221000D01*
X99569400Y-6261000D02*
X98708400Y-6261000D01*
X99569400Y-6301000D02*
X98745400Y-6301000D01*
X99569400Y-6341000D02*
X98783400Y-6341000D01*
X99569400Y-6381000D02*
X98824400Y-6381000D01*
X99569400Y-6421000D02*
X98866400Y-6421000D01*
X99569400Y-6461000D02*
X98910400Y-6461000D01*
X99569400Y-6501000D02*
X98956400Y-6501000D01*
X100893400Y-7101000D02*
X100325400Y-7101000D01*
X101127400Y-7061000D02*
X100091400Y-7061000D01*
X101286400Y-7021000D02*
X99932400Y-7021000D01*
X101414400Y-6981000D02*
X99804400Y-6981000D01*
X101524400Y-6941000D02*
X99694400Y-6941000D01*
X101620400Y-6901000D02*
X99598400Y-6901000D01*
X101707400Y-6861000D02*
X99511400Y-6861000D01*
X101787400Y-6821000D02*
X99431400Y-6821000D01*
X101860400Y-6781000D02*
X99358400Y-6781000D01*
X101928400Y-6741000D02*
X99290400Y-6741000D01*
X101992400Y-6701000D02*
X99226400Y-6701000D01*
X102052400Y-6661000D02*
X99166400Y-6661000D01*
X102084400Y-1695225D02*
X102084400Y-2195225D01*
X102109400Y-6621000D02*
X99109400Y-6621000D01*
X102163400Y-6581000D02*
X99055400Y-6581000D01*
X102214400Y-6541000D02*
X99004400Y-6541000D01*
X102262400Y-6501000D02*
X101649400Y-6501000D01*
X102308400Y-6461000D02*
X101649400Y-6461000D01*
X102334400Y-1945225D02*
X101834400Y-1945225D01*
X102352400Y-6421000D02*
X101649400Y-6421000D01*
X102394400Y-6381000D02*
X101649400Y-6381000D01*
X102435400Y-6341000D02*
X101649400Y-6341000D01*
X102473400Y-6301000D02*
X101649400Y-6301000D01*
X102510400Y-6261000D02*
X101649400Y-6261000D01*
X102546400Y-6221000D02*
X101649400Y-6221000D01*
X102580400Y-6181000D02*
X101649400Y-6181000D01*
X102613400Y-6141000D02*
X101649400Y-6141000D01*
X102644400Y-6101000D02*
X101649400Y-6101000D01*
X102674400Y-6061000D02*
X101649400Y-6061000D01*
X102704400Y-6021000D02*
X101649400Y-6021000D01*
X102731400Y-5981000D02*
X101649400Y-5981000D01*
X102758400Y-5941000D02*
X101649400Y-5941000D01*
X102784400Y-5901000D02*
X101649400Y-5901000D01*
X102809400Y-5861000D02*
X101649400Y-5861000D01*
X102833400Y-5821000D02*
X101649400Y-5821000D01*
X102856400Y-5781000D02*
X101649400Y-5781000D01*
X102877400Y-5741000D02*
X101649400Y-5741000D01*
X102899400Y-5701000D02*
X101649400Y-5701000D01*
X102919400Y-5661000D02*
X101649400Y-5661000D01*
X102938400Y-5621000D02*
X101649400Y-5621000D01*
X102957400Y-5581000D02*
X101649400Y-5581000D01*
X102974400Y-5541000D02*
X101649400Y-5541000D01*
X102991400Y-5501000D02*
X101649400Y-5501000D01*
X103007400Y-5461000D02*
X101649400Y-5461000D01*
X103023400Y-5421000D02*
X101649400Y-5421000D01*
X103037400Y-5381000D02*
X101649400Y-5381000D01*
X103051400Y-5341000D02*
X101649400Y-5341000D01*
X103064400Y-5301000D02*
X101649400Y-5301000D01*
X103077400Y-5261000D02*
X101649400Y-5261000D01*
X103089400Y-5221000D02*
X101649400Y-5221000D01*
X103100400Y-5180000D02*
X101649400Y-5180000D01*
X103110400Y-5140000D02*
X101649400Y-5140000D01*
X103120400Y-5100000D02*
X101649400Y-5100000D01*
X103129400Y-5060000D02*
X101649400Y-5060000D01*
X103137400Y-5020000D02*
X101649400Y-5020000D01*
X103145400Y-4980000D02*
X101649400Y-4980000D01*
X103152400Y-4940000D02*
X101649400Y-4940000D01*
X103159400Y-4900000D02*
X101649400Y-4900000D01*
X103165400Y-4860000D02*
X101649400Y-4860000D01*
X103170400Y-4820000D02*
X101649400Y-4820000D01*
X103174400Y-4780000D02*
X101649400Y-4780000D01*
X103178400Y-4740000D02*
X101649400Y-4740000D01*
X103182400Y-4700000D02*
X101649400Y-4700000D01*
X103185400Y-4660000D02*
X101649400Y-4660000D01*
X103187400Y-4620000D02*
X101649400Y-4620000D01*
X103188400Y-4580000D02*
X101649400Y-4580000D01*
X103189400Y-4500000D02*
X101649400Y-4500000D01*
X103189400Y-4540000D02*
X101649400Y-4540000D01*
X103229400Y-4500000D02*
G75*
G02*
X97989400Y-4500000I-2620000J0D01*
G01*
X97989400Y-4500000D02*
G75*
G02*
X103229400Y-4500000I2620000J0D01*
G01*
%TO.C,R8*%
X99664000Y-10337800D02*
X99044000Y-10337800D01*
X101504000Y-10337800D02*
G75*
G02*
X99664000Y-10337800I-920000J0D01*
G01*
X99664000Y-10337800D02*
G75*
G02*
X101504000Y-10337800I920000J0D01*
G01*
D14*
%TO.C,J1*%
X48715600Y4261000D02*
X66495600Y4261000D01*
X48715600Y-9017000D02*
X48715600Y4261000D01*
X66495600Y4261000D02*
X66495600Y-6839000D01*
D13*
%TO.C,R7*%
X90317600Y-10337800D02*
X89697600Y-10337800D01*
X92157600Y-10337800D02*
G75*
G02*
X90317600Y-10337800I-920000J0D01*
G01*
X90317600Y-10337800D02*
G75*
G02*
X92157600Y-10337800I920000J0D01*
G01*
%TO.C,R1*%
X13899400Y-10363200D02*
X14519400Y-10363200D01*
X13899400Y-10363200D02*
G75*
G02*
X12059400Y-10363200I-920000J0D01*
G01*
X12059400Y-10363200D02*
G75*
G02*
X13899400Y-10363200I920000J0D01*
G01*
%TO.C,J4*%
X57754600Y-33977400D02*
X58254600Y-33977400D01*
X57754600Y-41217400D02*
X57754600Y-33977400D01*
X58254600Y-24977400D02*
X59254600Y-24977400D01*
X58254600Y-33977400D02*
X58254600Y-24977400D01*
X59254600Y-24977400D02*
X59254600Y-16977400D01*
X59554600Y-41217400D02*
X57754600Y-41217400D01*
X59554600Y-41217400D02*
X59554600Y-48217400D01*
X60574600Y-16977400D02*
X59254600Y-16977400D01*
X66774600Y-16977400D02*
X63774600Y-16977400D01*
X72774600Y-16977400D02*
X69974600Y-16977400D01*
X83194600Y-41217400D02*
X83194600Y-48217400D01*
X83194600Y-48217400D02*
X59554600Y-48217400D01*
X83494600Y-16977400D02*
X75974600Y-16977400D01*
X83494600Y-24977400D02*
X83494600Y-16977400D01*
X84494600Y-24977400D02*
X83494600Y-24977400D01*
X84494600Y-33977400D02*
X84494600Y-24977400D01*
X84494600Y-33977400D02*
X84994600Y-33977400D01*
X84994600Y-41217400D02*
X83194600Y-41217400D01*
X84994600Y-41217400D02*
X84994600Y-33977400D01*
%TO.C,C3*%
X30662133Y-4500000D02*
X29122133Y-4500000D01*
X30662133Y-4540000D02*
X29122133Y-4540000D01*
X30662133Y-4580000D02*
X29123133Y-4580000D01*
X30662133Y-4620000D02*
X29124133Y-4620000D01*
X30662133Y-4660000D02*
X29126133Y-4660000D01*
X30662133Y-4700000D02*
X29129133Y-4700000D01*
X30662133Y-4740000D02*
X29133133Y-4740000D01*
X30662133Y-4780000D02*
X29137133Y-4780000D01*
X30662133Y-4820000D02*
X29141133Y-4820000D01*
X30662133Y-4860000D02*
X29146133Y-4860000D01*
X30662133Y-4900000D02*
X29152133Y-4900000D01*
X30662133Y-4940000D02*
X29159133Y-4940000D01*
X30662133Y-4980000D02*
X29166133Y-4980000D01*
X30662133Y-5020000D02*
X29174133Y-5020000D01*
X30662133Y-5060000D02*
X29182133Y-5060000D01*
X30662133Y-5100000D02*
X29191133Y-5100000D01*
X30662133Y-5140000D02*
X29201133Y-5140000D01*
X30662133Y-5180000D02*
X29211133Y-5180000D01*
X30662133Y-5221000D02*
X29222133Y-5221000D01*
X30662133Y-5261000D02*
X29234133Y-5261000D01*
X30662133Y-5301000D02*
X29247133Y-5301000D01*
X30662133Y-5341000D02*
X29260133Y-5341000D01*
X30662133Y-5381000D02*
X29274133Y-5381000D01*
X30662133Y-5421000D02*
X29288133Y-5421000D01*
X30662133Y-5461000D02*
X29304133Y-5461000D01*
X30662133Y-5501000D02*
X29320133Y-5501000D01*
X30662133Y-5541000D02*
X29337133Y-5541000D01*
X30662133Y-5581000D02*
X29354133Y-5581000D01*
X30662133Y-5621000D02*
X29373133Y-5621000D01*
X30662133Y-5661000D02*
X29392133Y-5661000D01*
X30662133Y-5701000D02*
X29412133Y-5701000D01*
X30662133Y-5741000D02*
X29434133Y-5741000D01*
X30662133Y-5781000D02*
X29455133Y-5781000D01*
X30662133Y-5821000D02*
X29478133Y-5821000D01*
X30662133Y-5861000D02*
X29502133Y-5861000D01*
X30662133Y-5901000D02*
X29527133Y-5901000D01*
X30662133Y-5941000D02*
X29553133Y-5941000D01*
X30662133Y-5981000D02*
X29580133Y-5981000D01*
X30662133Y-6021000D02*
X29607133Y-6021000D01*
X30662133Y-6061000D02*
X29637133Y-6061000D01*
X30662133Y-6101000D02*
X29667133Y-6101000D01*
X30662133Y-6141000D02*
X29698133Y-6141000D01*
X30662133Y-6181000D02*
X29731133Y-6181000D01*
X30662133Y-6221000D02*
X29765133Y-6221000D01*
X30662133Y-6261000D02*
X29801133Y-6261000D01*
X30662133Y-6301000D02*
X29838133Y-6301000D01*
X30662133Y-6341000D02*
X29876133Y-6341000D01*
X30662133Y-6381000D02*
X29917133Y-6381000D01*
X30662133Y-6421000D02*
X29959133Y-6421000D01*
X30662133Y-6461000D02*
X30003133Y-6461000D01*
X30662133Y-6501000D02*
X30049133Y-6501000D01*
X31986133Y-7101000D02*
X31418133Y-7101000D01*
X32220133Y-7061000D02*
X31184133Y-7061000D01*
X32379133Y-7021000D02*
X31025133Y-7021000D01*
X32507133Y-6981000D02*
X30897133Y-6981000D01*
X32617133Y-6941000D02*
X30787133Y-6941000D01*
X32713133Y-6901000D02*
X30691133Y-6901000D01*
X32800133Y-6861000D02*
X30604133Y-6861000D01*
X32880133Y-6821000D02*
X30524133Y-6821000D01*
X32953133Y-6781000D02*
X30451133Y-6781000D01*
X33021133Y-6741000D02*
X30383133Y-6741000D01*
X33085133Y-6701000D02*
X30319133Y-6701000D01*
X33145133Y-6661000D02*
X30259133Y-6661000D01*
X33177133Y-1695225D02*
X33177133Y-2195225D01*
X33202133Y-6621000D02*
X30202133Y-6621000D01*
X33256133Y-6581000D02*
X30148133Y-6581000D01*
X33307133Y-6541000D02*
X30097133Y-6541000D01*
X33355133Y-6501000D02*
X32742133Y-6501000D01*
X33401133Y-6461000D02*
X32742133Y-6461000D01*
X33427133Y-1945225D02*
X32927133Y-1945225D01*
X33445133Y-6421000D02*
X32742133Y-6421000D01*
X33487133Y-6381000D02*
X32742133Y-6381000D01*
X33528133Y-6341000D02*
X32742133Y-6341000D01*
X33566133Y-6301000D02*
X32742133Y-6301000D01*
X33603133Y-6261000D02*
X32742133Y-6261000D01*
X33639133Y-6221000D02*
X32742133Y-6221000D01*
X33673133Y-6181000D02*
X32742133Y-6181000D01*
X33706133Y-6141000D02*
X32742133Y-6141000D01*
X33737133Y-6101000D02*
X32742133Y-6101000D01*
X33767133Y-6061000D02*
X32742133Y-6061000D01*
X33797133Y-6021000D02*
X32742133Y-6021000D01*
X33824133Y-5981000D02*
X32742133Y-5981000D01*
X33851133Y-5941000D02*
X32742133Y-5941000D01*
X33877133Y-5901000D02*
X32742133Y-5901000D01*
X33902133Y-5861000D02*
X32742133Y-5861000D01*
X33926133Y-5821000D02*
X32742133Y-5821000D01*
X33949133Y-5781000D02*
X32742133Y-5781000D01*
X33970133Y-5741000D02*
X32742133Y-5741000D01*
X33992133Y-5701000D02*
X32742133Y-5701000D01*
X34012133Y-5661000D02*
X32742133Y-5661000D01*
X34031133Y-5621000D02*
X32742133Y-5621000D01*
X34050133Y-5581000D02*
X32742133Y-5581000D01*
X34067133Y-5541000D02*
X32742133Y-5541000D01*
X34084133Y-5501000D02*
X32742133Y-5501000D01*
X34100133Y-5461000D02*
X32742133Y-5461000D01*
X34116133Y-5421000D02*
X32742133Y-5421000D01*
X34130133Y-5381000D02*
X32742133Y-5381000D01*
X34144133Y-5341000D02*
X32742133Y-5341000D01*
X34157133Y-5301000D02*
X32742133Y-5301000D01*
X34170133Y-5261000D02*
X32742133Y-5261000D01*
X34182133Y-5221000D02*
X32742133Y-5221000D01*
X34193133Y-5180000D02*
X32742133Y-5180000D01*
X34203133Y-5140000D02*
X32742133Y-5140000D01*
X34213133Y-5100000D02*
X32742133Y-5100000D01*
X34222133Y-5060000D02*
X32742133Y-5060000D01*
X34230133Y-5020000D02*
X32742133Y-5020000D01*
X34238133Y-4980000D02*
X32742133Y-4980000D01*
X34245133Y-4940000D02*
X32742133Y-4940000D01*
X34252133Y-4900000D02*
X32742133Y-4900000D01*
X34258133Y-4860000D02*
X32742133Y-4860000D01*
X34263133Y-4820000D02*
X32742133Y-4820000D01*
X34267133Y-4780000D02*
X32742133Y-4780000D01*
X34271133Y-4740000D02*
X32742133Y-4740000D01*
X34275133Y-4700000D02*
X32742133Y-4700000D01*
X34278133Y-4660000D02*
X32742133Y-4660000D01*
X34280133Y-4620000D02*
X32742133Y-4620000D01*
X34281133Y-4580000D02*
X32742133Y-4580000D01*
X34282133Y-4500000D02*
X32742133Y-4500000D01*
X34282133Y-4540000D02*
X32742133Y-4540000D01*
X34322133Y-4500000D02*
G75*
G02*
X29082133Y-4500000I-2620000J0D01*
G01*
X29082133Y-4500000D02*
G75*
G02*
X34322133Y-4500000I2620000J0D01*
G01*
%TO.C,J2*%
X-345400Y-33977400D02*
X154600Y-33977400D01*
X-345400Y-41217400D02*
X-345400Y-33977400D01*
X154600Y-24977400D02*
X1154600Y-24977400D01*
X154600Y-33977400D02*
X154600Y-24977400D01*
X1154600Y-24977400D02*
X1154600Y-16977400D01*
X1454600Y-41217400D02*
X-345400Y-41217400D01*
X1454600Y-41217400D02*
X1454600Y-48217400D01*
X2474600Y-16977400D02*
X1154600Y-16977400D01*
X8674600Y-16977400D02*
X5674600Y-16977400D01*
X14674600Y-16977400D02*
X11874600Y-16977400D01*
X25094600Y-41217400D02*
X25094600Y-48217400D01*
X25094600Y-48217400D02*
X1454600Y-48217400D01*
X25394600Y-16977400D02*
X17874600Y-16977400D01*
X25394600Y-24977400D02*
X25394600Y-16977400D01*
X26394600Y-24977400D02*
X25394600Y-24977400D01*
X26394600Y-33977400D02*
X26394600Y-24977400D01*
X26394600Y-33977400D02*
X26894600Y-33977400D01*
X26894600Y-41217400D02*
X25094600Y-41217400D01*
X26894600Y-41217400D02*
X26894600Y-33977400D01*
%TO.C,C2*%
X21312000Y-4500000D02*
X19772000Y-4500000D01*
X21312000Y-4540000D02*
X19772000Y-4540000D01*
X21312000Y-4580000D02*
X19773000Y-4580000D01*
X21312000Y-4620000D02*
X19774000Y-4620000D01*
X21312000Y-4660000D02*
X19776000Y-4660000D01*
X21312000Y-4700000D02*
X19779000Y-4700000D01*
X21312000Y-4740000D02*
X19783000Y-4740000D01*
X21312000Y-4780000D02*
X19787000Y-4780000D01*
X21312000Y-4820000D02*
X19791000Y-4820000D01*
X21312000Y-4860000D02*
X19796000Y-4860000D01*
X21312000Y-4900000D02*
X19802000Y-4900000D01*
X21312000Y-4940000D02*
X19809000Y-4940000D01*
X21312000Y-4980000D02*
X19816000Y-4980000D01*
X21312000Y-5020000D02*
X19824000Y-5020000D01*
X21312000Y-5060000D02*
X19832000Y-5060000D01*
X21312000Y-5100000D02*
X19841000Y-5100000D01*
X21312000Y-5140000D02*
X19851000Y-5140000D01*
X21312000Y-5180000D02*
X19861000Y-5180000D01*
X21312000Y-5221000D02*
X19872000Y-5221000D01*
X21312000Y-5261000D02*
X19884000Y-5261000D01*
X21312000Y-5301000D02*
X19897000Y-5301000D01*
X21312000Y-5341000D02*
X19910000Y-5341000D01*
X21312000Y-5381000D02*
X19924000Y-5381000D01*
X21312000Y-5421000D02*
X19938000Y-5421000D01*
X21312000Y-5461000D02*
X19954000Y-5461000D01*
X21312000Y-5501000D02*
X19970000Y-5501000D01*
X21312000Y-5541000D02*
X19987000Y-5541000D01*
X21312000Y-5581000D02*
X20004000Y-5581000D01*
X21312000Y-5621000D02*
X20023000Y-5621000D01*
X21312000Y-5661000D02*
X20042000Y-5661000D01*
X21312000Y-5701000D02*
X20062000Y-5701000D01*
X21312000Y-5741000D02*
X20084000Y-5741000D01*
X21312000Y-5781000D02*
X20105000Y-5781000D01*
X21312000Y-5821000D02*
X20128000Y-5821000D01*
X21312000Y-5861000D02*
X20152000Y-5861000D01*
X21312000Y-5901000D02*
X20177000Y-5901000D01*
X21312000Y-5941000D02*
X20203000Y-5941000D01*
X21312000Y-5981000D02*
X20230000Y-5981000D01*
X21312000Y-6021000D02*
X20257000Y-6021000D01*
X21312000Y-6061000D02*
X20287000Y-6061000D01*
X21312000Y-6101000D02*
X20317000Y-6101000D01*
X21312000Y-6141000D02*
X20348000Y-6141000D01*
X21312000Y-6181000D02*
X20381000Y-6181000D01*
X21312000Y-6221000D02*
X20415000Y-6221000D01*
X21312000Y-6261000D02*
X20451000Y-6261000D01*
X21312000Y-6301000D02*
X20488000Y-6301000D01*
X21312000Y-6341000D02*
X20526000Y-6341000D01*
X21312000Y-6381000D02*
X20567000Y-6381000D01*
X21312000Y-6421000D02*
X20609000Y-6421000D01*
X21312000Y-6461000D02*
X20653000Y-6461000D01*
X21312000Y-6501000D02*
X20699000Y-6501000D01*
X22636000Y-7101000D02*
X22068000Y-7101000D01*
X22870000Y-7061000D02*
X21834000Y-7061000D01*
X23029000Y-7021000D02*
X21675000Y-7021000D01*
X23157000Y-6981000D02*
X21547000Y-6981000D01*
X23267000Y-6941000D02*
X21437000Y-6941000D01*
X23363000Y-6901000D02*
X21341000Y-6901000D01*
X23450000Y-6861000D02*
X21254000Y-6861000D01*
X23530000Y-6821000D02*
X21174000Y-6821000D01*
X23603000Y-6781000D02*
X21101000Y-6781000D01*
X23671000Y-6741000D02*
X21033000Y-6741000D01*
X23735000Y-6701000D02*
X20969000Y-6701000D01*
X23795000Y-6661000D02*
X20909000Y-6661000D01*
X23827000Y-1695225D02*
X23827000Y-2195225D01*
X23852000Y-6621000D02*
X20852000Y-6621000D01*
X23906000Y-6581000D02*
X20798000Y-6581000D01*
X23957000Y-6541000D02*
X20747000Y-6541000D01*
X24005000Y-6501000D02*
X23392000Y-6501000D01*
X24051000Y-6461000D02*
X23392000Y-6461000D01*
X24077000Y-1945225D02*
X23577000Y-1945225D01*
X24095000Y-6421000D02*
X23392000Y-6421000D01*
X24137000Y-6381000D02*
X23392000Y-6381000D01*
X24178000Y-6341000D02*
X23392000Y-6341000D01*
X24216000Y-6301000D02*
X23392000Y-6301000D01*
X24253000Y-6261000D02*
X23392000Y-6261000D01*
X24289000Y-6221000D02*
X23392000Y-6221000D01*
X24323000Y-6181000D02*
X23392000Y-6181000D01*
X24356000Y-6141000D02*
X23392000Y-6141000D01*
X24387000Y-6101000D02*
X23392000Y-6101000D01*
X24417000Y-6061000D02*
X23392000Y-6061000D01*
X24447000Y-6021000D02*
X23392000Y-6021000D01*
X24474000Y-5981000D02*
X23392000Y-5981000D01*
X24501000Y-5941000D02*
X23392000Y-5941000D01*
X24527000Y-5901000D02*
X23392000Y-5901000D01*
X24552000Y-5861000D02*
X23392000Y-5861000D01*
X24576000Y-5821000D02*
X23392000Y-5821000D01*
X24599000Y-5781000D02*
X23392000Y-5781000D01*
X24620000Y-5741000D02*
X23392000Y-5741000D01*
X24642000Y-5701000D02*
X23392000Y-5701000D01*
X24662000Y-5661000D02*
X23392000Y-5661000D01*
X24681000Y-5621000D02*
X23392000Y-5621000D01*
X24700000Y-5581000D02*
X23392000Y-5581000D01*
X24717000Y-5541000D02*
X23392000Y-5541000D01*
X24734000Y-5501000D02*
X23392000Y-5501000D01*
X24750000Y-5461000D02*
X23392000Y-5461000D01*
X24766000Y-5421000D02*
X23392000Y-5421000D01*
X24780000Y-5381000D02*
X23392000Y-5381000D01*
X24794000Y-5341000D02*
X23392000Y-5341000D01*
X24807000Y-5301000D02*
X23392000Y-5301000D01*
X24820000Y-5261000D02*
X23392000Y-5261000D01*
X24832000Y-5221000D02*
X23392000Y-5221000D01*
X24843000Y-5180000D02*
X23392000Y-5180000D01*
X24853000Y-5140000D02*
X23392000Y-5140000D01*
X24863000Y-5100000D02*
X23392000Y-5100000D01*
X24872000Y-5060000D02*
X23392000Y-5060000D01*
X24880000Y-5020000D02*
X23392000Y-5020000D01*
X24888000Y-4980000D02*
X23392000Y-4980000D01*
X24895000Y-4940000D02*
X23392000Y-4940000D01*
X24902000Y-4900000D02*
X23392000Y-4900000D01*
X24908000Y-4860000D02*
X23392000Y-4860000D01*
X24913000Y-4820000D02*
X23392000Y-4820000D01*
X24917000Y-4780000D02*
X23392000Y-4780000D01*
X24921000Y-4740000D02*
X23392000Y-4740000D01*
X24925000Y-4700000D02*
X23392000Y-4700000D01*
X24928000Y-4660000D02*
X23392000Y-4660000D01*
X24930000Y-4620000D02*
X23392000Y-4620000D01*
X24931000Y-4580000D02*
X23392000Y-4580000D01*
X24932000Y-4500000D02*
X23392000Y-4500000D01*
X24932000Y-4540000D02*
X23392000Y-4540000D01*
X24972000Y-4500000D02*
G75*
G02*
X19732000Y-4500000I-2620000J0D01*
G01*
X19732000Y-4500000D02*
G75*
G02*
X24972000Y-4500000I2620000J0D01*
G01*
%TO.C,C7*%
X90699600Y-4500000D02*
X89159600Y-4500000D01*
X90699600Y-4540000D02*
X89159600Y-4540000D01*
X90699600Y-4580000D02*
X89160600Y-4580000D01*
X90699600Y-4620000D02*
X89161600Y-4620000D01*
X90699600Y-4660000D02*
X89163600Y-4660000D01*
X90699600Y-4700000D02*
X89166600Y-4700000D01*
X90699600Y-4740000D02*
X89170600Y-4740000D01*
X90699600Y-4780000D02*
X89174600Y-4780000D01*
X90699600Y-4820000D02*
X89178600Y-4820000D01*
X90699600Y-4860000D02*
X89183600Y-4860000D01*
X90699600Y-4900000D02*
X89189600Y-4900000D01*
X90699600Y-4940000D02*
X89196600Y-4940000D01*
X90699600Y-4980000D02*
X89203600Y-4980000D01*
X90699600Y-5020000D02*
X89211600Y-5020000D01*
X90699600Y-5060000D02*
X89219600Y-5060000D01*
X90699600Y-5100000D02*
X89228600Y-5100000D01*
X90699600Y-5140000D02*
X89238600Y-5140000D01*
X90699600Y-5180000D02*
X89248600Y-5180000D01*
X90699600Y-5221000D02*
X89259600Y-5221000D01*
X90699600Y-5261000D02*
X89271600Y-5261000D01*
X90699600Y-5301000D02*
X89284600Y-5301000D01*
X90699600Y-5341000D02*
X89297600Y-5341000D01*
X90699600Y-5381000D02*
X89311600Y-5381000D01*
X90699600Y-5421000D02*
X89325600Y-5421000D01*
X90699600Y-5461000D02*
X89341600Y-5461000D01*
X90699600Y-5501000D02*
X89357600Y-5501000D01*
X90699600Y-5541000D02*
X89374600Y-5541000D01*
X90699600Y-5581000D02*
X89391600Y-5581000D01*
X90699600Y-5621000D02*
X89410600Y-5621000D01*
X90699600Y-5661000D02*
X89429600Y-5661000D01*
X90699600Y-5701000D02*
X89449600Y-5701000D01*
X90699600Y-5741000D02*
X89471600Y-5741000D01*
X90699600Y-5781000D02*
X89492600Y-5781000D01*
X90699600Y-5821000D02*
X89515600Y-5821000D01*
X90699600Y-5861000D02*
X89539600Y-5861000D01*
X90699600Y-5901000D02*
X89564600Y-5901000D01*
X90699600Y-5941000D02*
X89590600Y-5941000D01*
X90699600Y-5981000D02*
X89617600Y-5981000D01*
X90699600Y-6021000D02*
X89644600Y-6021000D01*
X90699600Y-6061000D02*
X89674600Y-6061000D01*
X90699600Y-6101000D02*
X89704600Y-6101000D01*
X90699600Y-6141000D02*
X89735600Y-6141000D01*
X90699600Y-6181000D02*
X89768600Y-6181000D01*
X90699600Y-6221000D02*
X89802600Y-6221000D01*
X90699600Y-6261000D02*
X89838600Y-6261000D01*
X90699600Y-6301000D02*
X89875600Y-6301000D01*
X90699600Y-6341000D02*
X89913600Y-6341000D01*
X90699600Y-6381000D02*
X89954600Y-6381000D01*
X90699600Y-6421000D02*
X89996600Y-6421000D01*
X90699600Y-6461000D02*
X90040600Y-6461000D01*
X90699600Y-6501000D02*
X90086600Y-6501000D01*
X92023600Y-7101000D02*
X91455600Y-7101000D01*
X92257600Y-7061000D02*
X91221600Y-7061000D01*
X92416600Y-7021000D02*
X91062600Y-7021000D01*
X92544600Y-6981000D02*
X90934600Y-6981000D01*
X92654600Y-6941000D02*
X90824600Y-6941000D01*
X92750600Y-6901000D02*
X90728600Y-6901000D01*
X92837600Y-6861000D02*
X90641600Y-6861000D01*
X92917600Y-6821000D02*
X90561600Y-6821000D01*
X92990600Y-6781000D02*
X90488600Y-6781000D01*
X93058600Y-6741000D02*
X90420600Y-6741000D01*
X93122600Y-6701000D02*
X90356600Y-6701000D01*
X93182600Y-6661000D02*
X90296600Y-6661000D01*
X93214600Y-1695225D02*
X93214600Y-2195225D01*
X93239600Y-6621000D02*
X90239600Y-6621000D01*
X93293600Y-6581000D02*
X90185600Y-6581000D01*
X93344600Y-6541000D02*
X90134600Y-6541000D01*
X93392600Y-6501000D02*
X92779600Y-6501000D01*
X93438600Y-6461000D02*
X92779600Y-6461000D01*
X93464600Y-1945225D02*
X92964600Y-1945225D01*
X93482600Y-6421000D02*
X92779600Y-6421000D01*
X93524600Y-6381000D02*
X92779600Y-6381000D01*
X93565600Y-6341000D02*
X92779600Y-6341000D01*
X93603600Y-6301000D02*
X92779600Y-6301000D01*
X93640600Y-6261000D02*
X92779600Y-6261000D01*
X93676600Y-6221000D02*
X92779600Y-6221000D01*
X93710600Y-6181000D02*
X92779600Y-6181000D01*
X93743600Y-6141000D02*
X92779600Y-6141000D01*
X93774600Y-6101000D02*
X92779600Y-6101000D01*
X93804600Y-6061000D02*
X92779600Y-6061000D01*
X93834600Y-6021000D02*
X92779600Y-6021000D01*
X93861600Y-5981000D02*
X92779600Y-5981000D01*
X93888600Y-5941000D02*
X92779600Y-5941000D01*
X93914600Y-5901000D02*
X92779600Y-5901000D01*
X93939600Y-5861000D02*
X92779600Y-5861000D01*
X93963600Y-5821000D02*
X92779600Y-5821000D01*
X93986600Y-5781000D02*
X92779600Y-5781000D01*
X94007600Y-5741000D02*
X92779600Y-5741000D01*
X94029600Y-5701000D02*
X92779600Y-5701000D01*
X94049600Y-5661000D02*
X92779600Y-5661000D01*
X94068600Y-5621000D02*
X92779600Y-5621000D01*
X94087600Y-5581000D02*
X92779600Y-5581000D01*
X94104600Y-5541000D02*
X92779600Y-5541000D01*
X94121600Y-5501000D02*
X92779600Y-5501000D01*
X94137600Y-5461000D02*
X92779600Y-5461000D01*
X94153600Y-5421000D02*
X92779600Y-5421000D01*
X94167600Y-5381000D02*
X92779600Y-5381000D01*
X94181600Y-5341000D02*
X92779600Y-5341000D01*
X94194600Y-5301000D02*
X92779600Y-5301000D01*
X94207600Y-5261000D02*
X92779600Y-5261000D01*
X94219600Y-5221000D02*
X92779600Y-5221000D01*
X94230600Y-5180000D02*
X92779600Y-5180000D01*
X94240600Y-5140000D02*
X92779600Y-5140000D01*
X94250600Y-5100000D02*
X92779600Y-5100000D01*
X94259600Y-5060000D02*
X92779600Y-5060000D01*
X94267600Y-5020000D02*
X92779600Y-5020000D01*
X94275600Y-4980000D02*
X92779600Y-4980000D01*
X94282600Y-4940000D02*
X92779600Y-4940000D01*
X94289600Y-4900000D02*
X92779600Y-4900000D01*
X94295600Y-4860000D02*
X92779600Y-4860000D01*
X94300600Y-4820000D02*
X92779600Y-4820000D01*
X94304600Y-4780000D02*
X92779600Y-4780000D01*
X94308600Y-4740000D02*
X92779600Y-4740000D01*
X94312600Y-4700000D02*
X92779600Y-4700000D01*
X94315600Y-4660000D02*
X92779600Y-4660000D01*
X94317600Y-4620000D02*
X92779600Y-4620000D01*
X94318600Y-4580000D02*
X92779600Y-4580000D01*
X94319600Y-4500000D02*
X92779600Y-4500000D01*
X94319600Y-4540000D02*
X92779600Y-4540000D01*
X94359600Y-4500000D02*
G75*
G02*
X89119600Y-4500000I-2620000J0D01*
G01*
X89119600Y-4500000D02*
G75*
G02*
X94359600Y-4500000I2620000J0D01*
G01*
%TO.C,R3*%
X32619200Y-10337800D02*
X33239200Y-10337800D01*
X32619200Y-10337800D02*
G75*
G02*
X30779200Y-10337800I-920000J0D01*
G01*
X30779200Y-10337800D02*
G75*
G02*
X32619200Y-10337800I920000J0D01*
G01*
%TO.C,R6*%
X82351600Y-10337800D02*
X82971600Y-10337800D01*
X82351600Y-10337800D02*
G75*
G02*
X80511600Y-10337800I-920000J0D01*
G01*
X80511600Y-10337800D02*
G75*
G02*
X82351600Y-10337800I920000J0D01*
G01*
%TO.C,C6*%
X81829800Y-4500000D02*
X80289800Y-4500000D01*
X81829800Y-4540000D02*
X80289800Y-4540000D01*
X81829800Y-4580000D02*
X80290800Y-4580000D01*
X81829800Y-4620000D02*
X80291800Y-4620000D01*
X81829800Y-4660000D02*
X80293800Y-4660000D01*
X81829800Y-4700000D02*
X80296800Y-4700000D01*
X81829800Y-4740000D02*
X80300800Y-4740000D01*
X81829800Y-4780000D02*
X80304800Y-4780000D01*
X81829800Y-4820000D02*
X80308800Y-4820000D01*
X81829800Y-4860000D02*
X80313800Y-4860000D01*
X81829800Y-4900000D02*
X80319800Y-4900000D01*
X81829800Y-4940000D02*
X80326800Y-4940000D01*
X81829800Y-4980000D02*
X80333800Y-4980000D01*
X81829800Y-5020000D02*
X80341800Y-5020000D01*
X81829800Y-5060000D02*
X80349800Y-5060000D01*
X81829800Y-5100000D02*
X80358800Y-5100000D01*
X81829800Y-5140000D02*
X80368800Y-5140000D01*
X81829800Y-5180000D02*
X80378800Y-5180000D01*
X81829800Y-5221000D02*
X80389800Y-5221000D01*
X81829800Y-5261000D02*
X80401800Y-5261000D01*
X81829800Y-5301000D02*
X80414800Y-5301000D01*
X81829800Y-5341000D02*
X80427800Y-5341000D01*
X81829800Y-5381000D02*
X80441800Y-5381000D01*
X81829800Y-5421000D02*
X80455800Y-5421000D01*
X81829800Y-5461000D02*
X80471800Y-5461000D01*
X81829800Y-5501000D02*
X80487800Y-5501000D01*
X81829800Y-5541000D02*
X80504800Y-5541000D01*
X81829800Y-5581000D02*
X80521800Y-5581000D01*
X81829800Y-5621000D02*
X80540800Y-5621000D01*
X81829800Y-5661000D02*
X80559800Y-5661000D01*
X81829800Y-5701000D02*
X80579800Y-5701000D01*
X81829800Y-5741000D02*
X80601800Y-5741000D01*
X81829800Y-5781000D02*
X80622800Y-5781000D01*
X81829800Y-5821000D02*
X80645800Y-5821000D01*
X81829800Y-5861000D02*
X80669800Y-5861000D01*
X81829800Y-5901000D02*
X80694800Y-5901000D01*
X81829800Y-5941000D02*
X80720800Y-5941000D01*
X81829800Y-5981000D02*
X80747800Y-5981000D01*
X81829800Y-6021000D02*
X80774800Y-6021000D01*
X81829800Y-6061000D02*
X80804800Y-6061000D01*
X81829800Y-6101000D02*
X80834800Y-6101000D01*
X81829800Y-6141000D02*
X80865800Y-6141000D01*
X81829800Y-6181000D02*
X80898800Y-6181000D01*
X81829800Y-6221000D02*
X80932800Y-6221000D01*
X81829800Y-6261000D02*
X80968800Y-6261000D01*
X81829800Y-6301000D02*
X81005800Y-6301000D01*
X81829800Y-6341000D02*
X81043800Y-6341000D01*
X81829800Y-6381000D02*
X81084800Y-6381000D01*
X81829800Y-6421000D02*
X81126800Y-6421000D01*
X81829800Y-6461000D02*
X81170800Y-6461000D01*
X81829800Y-6501000D02*
X81216800Y-6501000D01*
X83153800Y-7101000D02*
X82585800Y-7101000D01*
X83387800Y-7061000D02*
X82351800Y-7061000D01*
X83546800Y-7021000D02*
X82192800Y-7021000D01*
X83674800Y-6981000D02*
X82064800Y-6981000D01*
X83784800Y-6941000D02*
X81954800Y-6941000D01*
X83880800Y-6901000D02*
X81858800Y-6901000D01*
X83967800Y-6861000D02*
X81771800Y-6861000D01*
X84047800Y-6821000D02*
X81691800Y-6821000D01*
X84120800Y-6781000D02*
X81618800Y-6781000D01*
X84188800Y-6741000D02*
X81550800Y-6741000D01*
X84252800Y-6701000D02*
X81486800Y-6701000D01*
X84312800Y-6661000D02*
X81426800Y-6661000D01*
X84344800Y-1695225D02*
X84344800Y-2195225D01*
X84369800Y-6621000D02*
X81369800Y-6621000D01*
X84423800Y-6581000D02*
X81315800Y-6581000D01*
X84474800Y-6541000D02*
X81264800Y-6541000D01*
X84522800Y-6501000D02*
X83909800Y-6501000D01*
X84568800Y-6461000D02*
X83909800Y-6461000D01*
X84594800Y-1945225D02*
X84094800Y-1945225D01*
X84612800Y-6421000D02*
X83909800Y-6421000D01*
X84654800Y-6381000D02*
X83909800Y-6381000D01*
X84695800Y-6341000D02*
X83909800Y-6341000D01*
X84733800Y-6301000D02*
X83909800Y-6301000D01*
X84770800Y-6261000D02*
X83909800Y-6261000D01*
X84806800Y-6221000D02*
X83909800Y-6221000D01*
X84840800Y-6181000D02*
X83909800Y-6181000D01*
X84873800Y-6141000D02*
X83909800Y-6141000D01*
X84904800Y-6101000D02*
X83909800Y-6101000D01*
X84934800Y-6061000D02*
X83909800Y-6061000D01*
X84964800Y-6021000D02*
X83909800Y-6021000D01*
X84991800Y-5981000D02*
X83909800Y-5981000D01*
X85018800Y-5941000D02*
X83909800Y-5941000D01*
X85044800Y-5901000D02*
X83909800Y-5901000D01*
X85069800Y-5861000D02*
X83909800Y-5861000D01*
X85093800Y-5821000D02*
X83909800Y-5821000D01*
X85116800Y-5781000D02*
X83909800Y-5781000D01*
X85137800Y-5741000D02*
X83909800Y-5741000D01*
X85159800Y-5701000D02*
X83909800Y-5701000D01*
X85179800Y-5661000D02*
X83909800Y-5661000D01*
X85198800Y-5621000D02*
X83909800Y-5621000D01*
X85217800Y-5581000D02*
X83909800Y-5581000D01*
X85234800Y-5541000D02*
X83909800Y-5541000D01*
X85251800Y-5501000D02*
X83909800Y-5501000D01*
X85267800Y-5461000D02*
X83909800Y-5461000D01*
X85283800Y-5421000D02*
X83909800Y-5421000D01*
X85297800Y-5381000D02*
X83909800Y-5381000D01*
X85311800Y-5341000D02*
X83909800Y-5341000D01*
X85324800Y-5301000D02*
X83909800Y-5301000D01*
X85337800Y-5261000D02*
X83909800Y-5261000D01*
X85349800Y-5221000D02*
X83909800Y-5221000D01*
X85360800Y-5180000D02*
X83909800Y-5180000D01*
X85370800Y-5140000D02*
X83909800Y-5140000D01*
X85380800Y-5100000D02*
X83909800Y-5100000D01*
X85389800Y-5060000D02*
X83909800Y-5060000D01*
X85397800Y-5020000D02*
X83909800Y-5020000D01*
X85405800Y-4980000D02*
X83909800Y-4980000D01*
X85412800Y-4940000D02*
X83909800Y-4940000D01*
X85419800Y-4900000D02*
X83909800Y-4900000D01*
X85425800Y-4860000D02*
X83909800Y-4860000D01*
X85430800Y-4820000D02*
X83909800Y-4820000D01*
X85434800Y-4780000D02*
X83909800Y-4780000D01*
X85438800Y-4740000D02*
X83909800Y-4740000D01*
X85442800Y-4700000D02*
X83909800Y-4700000D01*
X85445800Y-4660000D02*
X83909800Y-4660000D01*
X85447800Y-4620000D02*
X83909800Y-4620000D01*
X85448800Y-4580000D02*
X83909800Y-4580000D01*
X85449800Y-4500000D02*
X83909800Y-4500000D01*
X85449800Y-4540000D02*
X83909800Y-4540000D01*
X85489800Y-4500000D02*
G75*
G02*
X80249800Y-4500000I-2620000J0D01*
G01*
X80249800Y-4500000D02*
G75*
G02*
X85489800Y-4500000I2620000J0D01*
G01*
%TO.C,C5*%
X72960000Y-4500000D02*
X71420000Y-4500000D01*
X72960000Y-4540000D02*
X71420000Y-4540000D01*
X72960000Y-4580000D02*
X71421000Y-4580000D01*
X72960000Y-4620000D02*
X71422000Y-4620000D01*
X72960000Y-4660000D02*
X71424000Y-4660000D01*
X72960000Y-4700000D02*
X71427000Y-4700000D01*
X72960000Y-4740000D02*
X71431000Y-4740000D01*
X72960000Y-4780000D02*
X71435000Y-4780000D01*
X72960000Y-4820000D02*
X71439000Y-4820000D01*
X72960000Y-4860000D02*
X71444000Y-4860000D01*
X72960000Y-4900000D02*
X71450000Y-4900000D01*
X72960000Y-4940000D02*
X71457000Y-4940000D01*
X72960000Y-4980000D02*
X71464000Y-4980000D01*
X72960000Y-5020000D02*
X71472000Y-5020000D01*
X72960000Y-5060000D02*
X71480000Y-5060000D01*
X72960000Y-5100000D02*
X71489000Y-5100000D01*
X72960000Y-5140000D02*
X71499000Y-5140000D01*
X72960000Y-5180000D02*
X71509000Y-5180000D01*
X72960000Y-5221000D02*
X71520000Y-5221000D01*
X72960000Y-5261000D02*
X71532000Y-5261000D01*
X72960000Y-5301000D02*
X71545000Y-5301000D01*
X72960000Y-5341000D02*
X71558000Y-5341000D01*
X72960000Y-5381000D02*
X71572000Y-5381000D01*
X72960000Y-5421000D02*
X71586000Y-5421000D01*
X72960000Y-5461000D02*
X71602000Y-5461000D01*
X72960000Y-5501000D02*
X71618000Y-5501000D01*
X72960000Y-5541000D02*
X71635000Y-5541000D01*
X72960000Y-5581000D02*
X71652000Y-5581000D01*
X72960000Y-5621000D02*
X71671000Y-5621000D01*
X72960000Y-5661000D02*
X71690000Y-5661000D01*
X72960000Y-5701000D02*
X71710000Y-5701000D01*
X72960000Y-5741000D02*
X71732000Y-5741000D01*
X72960000Y-5781000D02*
X71753000Y-5781000D01*
X72960000Y-5821000D02*
X71776000Y-5821000D01*
X72960000Y-5861000D02*
X71800000Y-5861000D01*
X72960000Y-5901000D02*
X71825000Y-5901000D01*
X72960000Y-5941000D02*
X71851000Y-5941000D01*
X72960000Y-5981000D02*
X71878000Y-5981000D01*
X72960000Y-6021000D02*
X71905000Y-6021000D01*
X72960000Y-6061000D02*
X71935000Y-6061000D01*
X72960000Y-6101000D02*
X71965000Y-6101000D01*
X72960000Y-6141000D02*
X71996000Y-6141000D01*
X72960000Y-6181000D02*
X72029000Y-6181000D01*
X72960000Y-6221000D02*
X72063000Y-6221000D01*
X72960000Y-6261000D02*
X72099000Y-6261000D01*
X72960000Y-6301000D02*
X72136000Y-6301000D01*
X72960000Y-6341000D02*
X72174000Y-6341000D01*
X72960000Y-6381000D02*
X72215000Y-6381000D01*
X72960000Y-6421000D02*
X72257000Y-6421000D01*
X72960000Y-6461000D02*
X72301000Y-6461000D01*
X72960000Y-6501000D02*
X72347000Y-6501000D01*
X74284000Y-7101000D02*
X73716000Y-7101000D01*
X74518000Y-7061000D02*
X73482000Y-7061000D01*
X74677000Y-7021000D02*
X73323000Y-7021000D01*
X74805000Y-6981000D02*
X73195000Y-6981000D01*
X74915000Y-6941000D02*
X73085000Y-6941000D01*
X75011000Y-6901000D02*
X72989000Y-6901000D01*
X75098000Y-6861000D02*
X72902000Y-6861000D01*
X75178000Y-6821000D02*
X72822000Y-6821000D01*
X75251000Y-6781000D02*
X72749000Y-6781000D01*
X75319000Y-6741000D02*
X72681000Y-6741000D01*
X75383000Y-6701000D02*
X72617000Y-6701000D01*
X75443000Y-6661000D02*
X72557000Y-6661000D01*
X75475000Y-1695225D02*
X75475000Y-2195225D01*
X75500000Y-6621000D02*
X72500000Y-6621000D01*
X75554000Y-6581000D02*
X72446000Y-6581000D01*
X75605000Y-6541000D02*
X72395000Y-6541000D01*
X75653000Y-6501000D02*
X75040000Y-6501000D01*
X75699000Y-6461000D02*
X75040000Y-6461000D01*
X75725000Y-1945225D02*
X75225000Y-1945225D01*
X75743000Y-6421000D02*
X75040000Y-6421000D01*
X75785000Y-6381000D02*
X75040000Y-6381000D01*
X75826000Y-6341000D02*
X75040000Y-6341000D01*
X75864000Y-6301000D02*
X75040000Y-6301000D01*
X75901000Y-6261000D02*
X75040000Y-6261000D01*
X75937000Y-6221000D02*
X75040000Y-6221000D01*
X75971000Y-6181000D02*
X75040000Y-6181000D01*
X76004000Y-6141000D02*
X75040000Y-6141000D01*
X76035000Y-6101000D02*
X75040000Y-6101000D01*
X76065000Y-6061000D02*
X75040000Y-6061000D01*
X76095000Y-6021000D02*
X75040000Y-6021000D01*
X76122000Y-5981000D02*
X75040000Y-5981000D01*
X76149000Y-5941000D02*
X75040000Y-5941000D01*
X76175000Y-5901000D02*
X75040000Y-5901000D01*
X76200000Y-5861000D02*
X75040000Y-5861000D01*
X76224000Y-5821000D02*
X75040000Y-5821000D01*
X76247000Y-5781000D02*
X75040000Y-5781000D01*
X76268000Y-5741000D02*
X75040000Y-5741000D01*
X76290000Y-5701000D02*
X75040000Y-5701000D01*
X76310000Y-5661000D02*
X75040000Y-5661000D01*
X76329000Y-5621000D02*
X75040000Y-5621000D01*
X76348000Y-5581000D02*
X75040000Y-5581000D01*
X76365000Y-5541000D02*
X75040000Y-5541000D01*
X76382000Y-5501000D02*
X75040000Y-5501000D01*
X76398000Y-5461000D02*
X75040000Y-5461000D01*
X76414000Y-5421000D02*
X75040000Y-5421000D01*
X76428000Y-5381000D02*
X75040000Y-5381000D01*
X76442000Y-5341000D02*
X75040000Y-5341000D01*
X76455000Y-5301000D02*
X75040000Y-5301000D01*
X76468000Y-5261000D02*
X75040000Y-5261000D01*
X76480000Y-5221000D02*
X75040000Y-5221000D01*
X76491000Y-5180000D02*
X75040000Y-5180000D01*
X76501000Y-5140000D02*
X75040000Y-5140000D01*
X76511000Y-5100000D02*
X75040000Y-5100000D01*
X76520000Y-5060000D02*
X75040000Y-5060000D01*
X76528000Y-5020000D02*
X75040000Y-5020000D01*
X76536000Y-4980000D02*
X75040000Y-4980000D01*
X76543000Y-4940000D02*
X75040000Y-4940000D01*
X76550000Y-4900000D02*
X75040000Y-4900000D01*
X76556000Y-4860000D02*
X75040000Y-4860000D01*
X76561000Y-4820000D02*
X75040000Y-4820000D01*
X76565000Y-4780000D02*
X75040000Y-4780000D01*
X76569000Y-4740000D02*
X75040000Y-4740000D01*
X76573000Y-4700000D02*
X75040000Y-4700000D01*
X76576000Y-4660000D02*
X75040000Y-4660000D01*
X76578000Y-4620000D02*
X75040000Y-4620000D01*
X76579000Y-4580000D02*
X75040000Y-4580000D01*
X76580000Y-4500000D02*
X75040000Y-4500000D01*
X76580000Y-4540000D02*
X75040000Y-4540000D01*
X76620000Y-4500000D02*
G75*
G02*
X71380000Y-4500000I-2620000J0D01*
G01*
X71380000Y-4500000D02*
G75*
G02*
X76620000Y-4500000I2620000J0D01*
G01*
%TO.C,C1*%
X11939400Y-4505200D02*
X10399400Y-4505200D01*
X11939400Y-4545200D02*
X10399400Y-4545200D01*
X11939400Y-4585200D02*
X10400400Y-4585200D01*
X11939400Y-4625200D02*
X10401400Y-4625200D01*
X11939400Y-4665200D02*
X10403400Y-4665200D01*
X11939400Y-4705200D02*
X10406400Y-4705200D01*
X11939400Y-4745200D02*
X10410400Y-4745200D01*
X11939400Y-4785200D02*
X10414400Y-4785200D01*
X11939400Y-4825200D02*
X10418400Y-4825200D01*
X11939400Y-4865200D02*
X10423400Y-4865200D01*
X11939400Y-4905200D02*
X10429400Y-4905200D01*
X11939400Y-4945200D02*
X10436400Y-4945200D01*
X11939400Y-4985200D02*
X10443400Y-4985200D01*
X11939400Y-5025200D02*
X10451400Y-5025200D01*
X11939400Y-5065200D02*
X10459400Y-5065200D01*
X11939400Y-5105200D02*
X10468400Y-5105200D01*
X11939400Y-5145200D02*
X10478400Y-5145200D01*
X11939400Y-5185200D02*
X10488400Y-5185200D01*
X11939400Y-5226200D02*
X10499400Y-5226200D01*
X11939400Y-5266200D02*
X10511400Y-5266200D01*
X11939400Y-5306200D02*
X10524400Y-5306200D01*
X11939400Y-5346200D02*
X10537400Y-5346200D01*
X11939400Y-5386200D02*
X10551400Y-5386200D01*
X11939400Y-5426200D02*
X10565400Y-5426200D01*
X11939400Y-5466200D02*
X10581400Y-5466200D01*
X11939400Y-5506200D02*
X10597400Y-5506200D01*
X11939400Y-5546200D02*
X10614400Y-5546200D01*
X11939400Y-5586200D02*
X10631400Y-5586200D01*
X11939400Y-5626200D02*
X10650400Y-5626200D01*
X11939400Y-5666200D02*
X10669400Y-5666200D01*
X11939400Y-5706200D02*
X10689400Y-5706200D01*
X11939400Y-5746200D02*
X10711400Y-5746200D01*
X11939400Y-5786200D02*
X10732400Y-5786200D01*
X11939400Y-5826200D02*
X10755400Y-5826200D01*
X11939400Y-5866200D02*
X10779400Y-5866200D01*
X11939400Y-5906200D02*
X10804400Y-5906200D01*
X11939400Y-5946200D02*
X10830400Y-5946200D01*
X11939400Y-5986200D02*
X10857400Y-5986200D01*
X11939400Y-6026200D02*
X10884400Y-6026200D01*
X11939400Y-6066200D02*
X10914400Y-6066200D01*
X11939400Y-6106200D02*
X10944400Y-6106200D01*
X11939400Y-6146200D02*
X10975400Y-6146200D01*
X11939400Y-6186200D02*
X11008400Y-6186200D01*
X11939400Y-6226200D02*
X11042400Y-6226200D01*
X11939400Y-6266200D02*
X11078400Y-6266200D01*
X11939400Y-6306200D02*
X11115400Y-6306200D01*
X11939400Y-6346200D02*
X11153400Y-6346200D01*
X11939400Y-6386200D02*
X11194400Y-6386200D01*
X11939400Y-6426200D02*
X11236400Y-6426200D01*
X11939400Y-6466200D02*
X11280400Y-6466200D01*
X11939400Y-6506200D02*
X11326400Y-6506200D01*
X13263400Y-7106200D02*
X12695400Y-7106200D01*
X13497400Y-7066200D02*
X12461400Y-7066200D01*
X13656400Y-7026200D02*
X12302400Y-7026200D01*
X13784400Y-6986200D02*
X12174400Y-6986200D01*
X13894400Y-6946200D02*
X12064400Y-6946200D01*
X13990400Y-6906200D02*
X11968400Y-6906200D01*
X14077400Y-6866200D02*
X11881400Y-6866200D01*
X14157400Y-6826200D02*
X11801400Y-6826200D01*
X14230400Y-6786200D02*
X11728400Y-6786200D01*
X14298400Y-6746200D02*
X11660400Y-6746200D01*
X14362400Y-6706200D02*
X11596400Y-6706200D01*
X14422400Y-6666200D02*
X11536400Y-6666200D01*
X14454400Y-1700425D02*
X14454400Y-2200425D01*
X14479400Y-6626200D02*
X11479400Y-6626200D01*
X14533400Y-6586200D02*
X11425400Y-6586200D01*
X14584400Y-6546200D02*
X11374400Y-6546200D01*
X14632400Y-6506200D02*
X14019400Y-6506200D01*
X14678400Y-6466200D02*
X14019400Y-6466200D01*
X14704400Y-1950425D02*
X14204400Y-1950425D01*
X14722400Y-6426200D02*
X14019400Y-6426200D01*
X14764400Y-6386200D02*
X14019400Y-6386200D01*
X14805400Y-6346200D02*
X14019400Y-6346200D01*
X14843400Y-6306200D02*
X14019400Y-6306200D01*
X14880400Y-6266200D02*
X14019400Y-6266200D01*
X14916400Y-6226200D02*
X14019400Y-6226200D01*
X14950400Y-6186200D02*
X14019400Y-6186200D01*
X14983400Y-6146200D02*
X14019400Y-6146200D01*
X15014400Y-6106200D02*
X14019400Y-6106200D01*
X15044400Y-6066200D02*
X14019400Y-6066200D01*
X15074400Y-6026200D02*
X14019400Y-6026200D01*
X15101400Y-5986200D02*
X14019400Y-5986200D01*
X15128400Y-5946200D02*
X14019400Y-5946200D01*
X15154400Y-5906200D02*
X14019400Y-5906200D01*
X15179400Y-5866200D02*
X14019400Y-5866200D01*
X15203400Y-5826200D02*
X14019400Y-5826200D01*
X15226400Y-5786200D02*
X14019400Y-5786200D01*
X15247400Y-5746200D02*
X14019400Y-5746200D01*
X15269400Y-5706200D02*
X14019400Y-5706200D01*
X15289400Y-5666200D02*
X14019400Y-5666200D01*
X15308400Y-5626200D02*
X14019400Y-5626200D01*
X15327400Y-5586200D02*
X14019400Y-5586200D01*
X15344400Y-5546200D02*
X14019400Y-5546200D01*
X15361400Y-5506200D02*
X14019400Y-5506200D01*
X15377400Y-5466200D02*
X14019400Y-5466200D01*
X15393400Y-5426200D02*
X14019400Y-5426200D01*
X15407400Y-5386200D02*
X14019400Y-5386200D01*
X15421400Y-5346200D02*
X14019400Y-5346200D01*
X15434400Y-5306200D02*
X14019400Y-5306200D01*
X15447400Y-5266200D02*
X14019400Y-5266200D01*
X15459400Y-5226200D02*
X14019400Y-5226200D01*
X15470400Y-5185200D02*
X14019400Y-5185200D01*
X15480400Y-5145200D02*
X14019400Y-5145200D01*
X15490400Y-5105200D02*
X14019400Y-5105200D01*
X15499400Y-5065200D02*
X14019400Y-5065200D01*
X15507400Y-5025200D02*
X14019400Y-5025200D01*
X15515400Y-4985200D02*
X14019400Y-4985200D01*
X15522400Y-4945200D02*
X14019400Y-4945200D01*
X15529400Y-4905200D02*
X14019400Y-4905200D01*
X15535400Y-4865200D02*
X14019400Y-4865200D01*
X15540400Y-4825200D02*
X14019400Y-4825200D01*
X15544400Y-4785200D02*
X14019400Y-4785200D01*
X15548400Y-4745200D02*
X14019400Y-4745200D01*
X15552400Y-4705200D02*
X14019400Y-4705200D01*
X15555400Y-4665200D02*
X14019400Y-4665200D01*
X15557400Y-4625200D02*
X14019400Y-4625200D01*
X15558400Y-4585200D02*
X14019400Y-4585200D01*
X15559400Y-4505200D02*
X14019400Y-4505200D01*
X15559400Y-4545200D02*
X14019400Y-4545200D01*
X15599400Y-4505200D02*
G75*
G02*
X10359400Y-4505200I-2620000J0D01*
G01*
X10359400Y-4505200D02*
G75*
G02*
X15599400Y-4505200I2620000J0D01*
G01*
%TD*%
%LPC*%
D15*
%TO.C,R5*%
X72491600Y-10337800D03*
D16*
X75031600Y-10337800D03*
%TD*%
D15*
%TO.C,R4*%
X42341800Y-10363200D03*
D16*
X44881800Y-10363200D03*
%TD*%
D17*
%TO.C,J5*%
X104424600Y-34097400D03*
D18*
X106524600Y-22697400D03*
X94324600Y-22697400D03*
X100424600Y-22697400D03*
X100424600Y-29997400D03*
X105624600Y-26597400D03*
X103424600Y-16097400D03*
X95224600Y-29997400D03*
X97424600Y-26597400D03*
X91224600Y-16097400D03*
X97424600Y-16097400D03*
%TD*%
D19*
%TO.C,C4*%
X41000000Y-3500000D03*
D20*
X41000000Y-5500000D03*
%TD*%
D15*
%TO.C,R2*%
X22352000Y-10363200D03*
D16*
X24892000Y-10363200D03*
%TD*%
D21*
%TO.C,H2*%
X109601000Y-4216400D03*
%TD*%
D17*
%TO.C,J3*%
X46324600Y-34097400D03*
D18*
X48424600Y-22697400D03*
X36224600Y-22697400D03*
X42324600Y-22697400D03*
X42324600Y-29997400D03*
X47524600Y-26597400D03*
X45324600Y-16097400D03*
X37124600Y-29997400D03*
X39324600Y-26597400D03*
X33124600Y-16097400D03*
X39324600Y-16097400D03*
%TD*%
D19*
%TO.C,C8*%
X100609400Y-3500000D03*
D20*
X100609400Y-5500000D03*
%TD*%
D15*
%TO.C,R8*%
X100584000Y-10337800D03*
D16*
X98044000Y-10337800D03*
%TD*%
D22*
%TO.C,J1*%
X51155600Y-9017000D03*
D23*
X51155600Y-6477000D03*
X53695600Y-9017000D03*
X53695600Y-6477000D03*
X56235600Y-9017000D03*
X56235600Y-6477000D03*
X58775600Y-9017000D03*
X58775600Y-6477000D03*
X61315600Y-9017000D03*
X61315600Y-6477000D03*
X63855600Y-9017000D03*
X63855600Y-6477000D03*
%TD*%
D15*
%TO.C,R7*%
X91237600Y-10337800D03*
D16*
X88697600Y-10337800D03*
%TD*%
D15*
%TO.C,R1*%
X12979400Y-10363200D03*
D16*
X15519400Y-10363200D03*
%TD*%
D17*
%TO.C,J4*%
X75374600Y-34097400D03*
D18*
X77474600Y-22697400D03*
X65274600Y-22697400D03*
X71374600Y-22697400D03*
X71374600Y-29997400D03*
X76574600Y-26597400D03*
X74374600Y-16097400D03*
X66174600Y-29997400D03*
X68374600Y-26597400D03*
X62174600Y-16097400D03*
X68374600Y-16097400D03*
%TD*%
D19*
%TO.C,C3*%
X31702133Y-3500000D03*
D20*
X31702133Y-5500000D03*
%TD*%
D17*
%TO.C,J2*%
X17274600Y-34097400D03*
D18*
X19374600Y-22697400D03*
X7174600Y-22697400D03*
X13274600Y-22697400D03*
X13274600Y-29997400D03*
X18474600Y-26597400D03*
X16274600Y-16097400D03*
X8074600Y-29997400D03*
X10274600Y-26597400D03*
X4074600Y-16097400D03*
X10274600Y-16097400D03*
%TD*%
D19*
%TO.C,C2*%
X22352000Y-3500000D03*
D20*
X22352000Y-5500000D03*
%TD*%
D19*
%TO.C,C7*%
X91739600Y-3500000D03*
D20*
X91739600Y-5500000D03*
%TD*%
D21*
%TO.C,H1*%
X3962400Y-4216400D03*
%TD*%
D15*
%TO.C,R3*%
X31699200Y-10337800D03*
D16*
X34239200Y-10337800D03*
%TD*%
D15*
%TO.C,R6*%
X81431600Y-10337800D03*
D16*
X83971600Y-10337800D03*
%TD*%
D19*
%TO.C,C6*%
X82869800Y-3500000D03*
D20*
X82869800Y-5500000D03*
%TD*%
D19*
%TO.C,C5*%
X74000000Y-3500000D03*
D20*
X74000000Y-5500000D03*
%TD*%
D19*
%TO.C,C1*%
X12979400Y-3505200D03*
D20*
X12979400Y-5505200D03*
%TD*%
%LPD*%
M02*
