M48
; DRILL file {KiCad 9.0.0} date 2025-03-26T12:10:22+1100
; FORMAT={-:-/ absolute / inch / decimal}
; #@! TF.CreationDate,2025-03-26T12:10:22+11:00
; #@! TF.GenerationSoftware,Kicad,Pcbnew,9.0.0
; #@! TF.FileFunction,Plated,1,2,PTH
FMAT,2
INCH
; #@! TA.AperFunction,Plated,PTH,ViaDrill
T1C0.0150
; #@! TA.AperFunction,Plated,PTH,ComponentDrill
T2C0.0276
; #@! TA.AperFunction,Plated,PTH,ComponentDrill
T3C0.0315
; #@! TA.AperFunction,Plated,PTH,ComponentDrill
T4C0.0433
; #@! TA.AperFunction,Plated,PTH,ComponentDrill
T5C0.0472
%
G90
G05
T1
X2.261Y-0.084
T2
X0.511Y-0.408
X0.611Y-0.408
X0.88Y-0.408
X0.98Y-0.408
X1.248Y-0.407
X1.348Y-0.407
X1.667Y-0.408
X1.767Y-0.408
X2.854Y-0.407
X2.954Y-0.407
X3.206Y-0.407
X3.306Y-0.407
X3.492Y-0.407
X3.592Y-0.407
X3.86Y-0.407
X3.96Y-0.407
T3
X0.511Y-0.138
X0.511Y-0.2167
X0.88Y-0.1378
X0.88Y-0.2165
X1.2481Y-0.1378
X1.2481Y-0.2165
X1.6142Y-0.1378
X1.6142Y-0.2165
X2.9134Y-0.1378
X2.9134Y-0.2165
X3.2626Y-0.1378
X3.2626Y-0.2165
X3.6118Y-0.1378
X3.6118Y-0.2165
X3.961Y-0.1378
X3.961Y-0.2165
T4
X2.014Y-0.255
X2.014Y-0.355
X2.114Y-0.255
X2.114Y-0.355
X2.214Y-0.255
X2.214Y-0.355
X2.314Y-0.255
X2.314Y-0.355
X2.414Y-0.255
X2.414Y-0.355
X2.514Y-0.255
X2.514Y-0.355
T5
X0.1604Y-0.6338
X0.2825Y-0.8936
X0.3179Y-1.181
X0.4045Y-0.6338
X0.4045Y-1.0471
X0.5226Y-0.8936
X0.5226Y-1.181
X0.6407Y-0.6338
X0.7273Y-1.0471
X0.7628Y-0.8936
X1.3041Y-0.6338
X1.4262Y-0.8936
X1.4616Y-1.181
X1.5482Y-0.6338
X1.5482Y-1.0471
X1.6663Y-0.8936
X1.6663Y-1.181
X1.7844Y-0.6338
X1.871Y-1.0471
X1.9065Y-0.8936
X2.4478Y-0.6338
X2.5699Y-0.8936
X2.6053Y-1.181
X2.6919Y-0.6338
X2.6919Y-1.0471
X2.81Y-0.8936
X2.81Y-1.181
X2.9281Y-0.6338
X3.0147Y-1.0471
X3.0502Y-0.8936
X3.5915Y-0.6338
X3.7136Y-0.8936
X3.749Y-1.181
X3.8356Y-0.6338
X3.8356Y-1.0471
X3.9537Y-0.8936
X3.9537Y-1.181
X4.0718Y-0.6338
X4.1584Y-1.0471
X4.1939Y-0.8936
M30
