%TF.GenerationSoftware,KiCad,Pcbnew,9.0.0*%
%TF.CreationDate,2025-03-26T12:10:22+11:00*%
%TF.ProjectId,Wing Board 4 Combo mk II,57696e67-2042-46f6-9172-64203420436f,rev?*%
%TF.SameCoordinates,Original*%
%TF.FileFunction,Copper,L1,Top*%
%TF.FilePolarity,Positive*%
%FSLAX46Y46*%
G04 Gerber Fmt 4.6, Leading zero omitted, Abs format (unit mm)*
G04 Created by KiCad (PCBNEW 9.0.0) date 2025-03-26 12:10:22*
%MOMM*%
%LPD*%
G01*
G04 APERTURE LIST*
%TA.AperFunction,EtchedComponent*%
%ADD10C,0.120000*%
%TD*%
%TA.AperFunction,ComponentPad*%
%ADD11C,1.400000*%
%TD*%
%TA.AperFunction,ComponentPad*%
%ADD12O,1.400000X1.400000*%
%TD*%
%TA.AperFunction,ComponentPad*%
%ADD13C,2.900000*%
%TD*%
%TA.AperFunction,ComponentPad*%
%ADD14R,1.600000X1.600000*%
%TD*%
%TA.AperFunction,ComponentPad*%
%ADD15C,1.600000*%
%TD*%
%TA.AperFunction,ComponentPad*%
%ADD16R,1.650000X1.650000*%
%TD*%
%TA.AperFunction,ComponentPad*%
%ADD17C,1.650000*%
%TD*%
%TA.AperFunction,ViaPad*%
%ADD18C,0.889000*%
%TD*%
%TA.AperFunction,Conductor*%
%ADD19C,0.406400*%
%TD*%
G04 APERTURE END LIST*
D10*
%TO.C,H2*%
X113018222Y-4216400D02*
G75*
G02*
X106183778Y-4216400I-3417222J0D01*
G01*
X106183778Y-4216400D02*
G75*
G02*
X113018222Y-4216400I3417222J0D01*
G01*
%TO.C,H1*%
X7379622Y-4216400D02*
G75*
G02*
X545178Y-4216400I-3417222J0D01*
G01*
X545178Y-4216400D02*
G75*
G02*
X7379622Y-4216400I3417222J0D01*
G01*
%TD*%
D11*
%TO.P,R5,1*%
%TO.N,/X3+*%
X72491600Y-10337800D03*
D12*
%TO.P,R5,2*%
%TO.N,AGND*%
X75031600Y-10337800D03*
%TD*%
D11*
%TO.P,R4,1*%
%TO.N,/X2-*%
X42341800Y-10363200D03*
D12*
%TO.P,R4,2*%
%TO.N,AGND*%
X44881800Y-10363200D03*
%TD*%
D13*
%TO.P,J5,1*%
%TO.N,AGND*%
X106524600Y-22697400D03*
%TO.P,J5,2*%
%TO.N,/X4+*%
X94324600Y-22697400D03*
%TO.P,J5,3*%
%TO.N,/X4-*%
X100424600Y-22697400D03*
%TO.P,J5,G*%
%TO.N,unconnected-(J5-PadG)*%
X100424600Y-29997400D03*
%TO.P,J5,R*%
%TO.N,/X4-*%
X105624600Y-26597400D03*
%TO.P,J5,RN*%
%TO.N,unconnected-(J5-PadRN)*%
X103424600Y-16097400D03*
%TO.P,J5,S*%
%TO.N,AGND*%
X95224600Y-29997400D03*
%TO.P,J5,SN*%
%TO.N,unconnected-(J5-PadSN)*%
X97424600Y-26597400D03*
%TO.P,J5,T*%
%TO.N,/X4+*%
X91224600Y-16097400D03*
%TO.P,J5,TN*%
%TO.N,unconnected-(J5-PadTN)*%
X97424600Y-16097400D03*
%TD*%
D14*
%TO.P,C4,1*%
%TO.N,Net-(J1-Pin_6)*%
X41000000Y-3500000D03*
D15*
%TO.P,C4,2*%
%TO.N,/X2-*%
X41000000Y-5500000D03*
%TD*%
D11*
%TO.P,R2,1*%
%TO.N,/X1-*%
X22352000Y-10363200D03*
D12*
%TO.P,R2,2*%
%TO.N,AGND*%
X24892000Y-10363200D03*
%TD*%
D13*
%TO.P,J3,1*%
%TO.N,AGND*%
X48424600Y-22697400D03*
%TO.P,J3,2*%
%TO.N,/X2+*%
X36224600Y-22697400D03*
%TO.P,J3,3*%
%TO.N,/X2-*%
X42324600Y-22697400D03*
%TO.P,J3,G*%
%TO.N,unconnected-(J3-PadG)*%
X42324600Y-29997400D03*
%TO.P,J3,R*%
%TO.N,/X2-*%
X47524600Y-26597400D03*
%TO.P,J3,RN*%
%TO.N,unconnected-(J3-PadRN)*%
X45324600Y-16097400D03*
%TO.P,J3,S*%
%TO.N,AGND*%
X37124600Y-29997400D03*
%TO.P,J3,SN*%
%TO.N,unconnected-(J3-PadSN)*%
X39324600Y-26597400D03*
%TO.P,J3,T*%
%TO.N,/X2+*%
X33124600Y-16097400D03*
%TO.P,J3,TN*%
%TO.N,unconnected-(J3-PadTN)*%
X39324600Y-16097400D03*
%TD*%
D14*
%TO.P,C8,1*%
%TO.N,Net-(J1-Pin_10)*%
X100609400Y-3500000D03*
D15*
%TO.P,C8,2*%
%TO.N,/X4-*%
X100609400Y-5500000D03*
%TD*%
D11*
%TO.P,R8,1*%
%TO.N,/X4-*%
X100584000Y-10337800D03*
D12*
%TO.P,R8,2*%
%TO.N,AGND*%
X98044000Y-10337800D03*
%TD*%
D16*
%TO.P,J1,1,Pin_1*%
%TO.N,V+*%
X51155600Y-9017000D03*
D17*
%TO.P,J1,2,Pin_2*%
%TO.N,V-*%
X51155600Y-6477000D03*
%TO.P,J1,3,Pin_3*%
%TO.N,Net-(J1-Pin_3)*%
X53695600Y-9017000D03*
%TO.P,J1,4,Pin_4*%
%TO.N,Net-(J1-Pin_4)*%
X53695600Y-6477000D03*
%TO.P,J1,5,Pin_5*%
%TO.N,Net-(J1-Pin_5)*%
X56235600Y-9017000D03*
%TO.P,J1,6,Pin_6*%
%TO.N,Net-(J1-Pin_6)*%
X56235600Y-6477000D03*
%TO.P,J1,7,Pin_7*%
%TO.N,Net-(J1-Pin_7)*%
X58775600Y-9017000D03*
%TO.P,J1,8,Pin_8*%
%TO.N,Net-(J1-Pin_8)*%
X58775600Y-6477000D03*
%TO.P,J1,9,Pin_9*%
%TO.N,Net-(J1-Pin_9)*%
X61315600Y-9017000D03*
%TO.P,J1,10,Pin_10*%
%TO.N,Net-(J1-Pin_10)*%
X61315600Y-6477000D03*
%TO.P,J1,11,Pin_11*%
%TO.N,AGND*%
X63855600Y-9017000D03*
%TO.P,J1,12,Pin_12*%
X63855600Y-6477000D03*
%TD*%
D11*
%TO.P,R7,1*%
%TO.N,/X4+*%
X91237600Y-10337800D03*
D12*
%TO.P,R7,2*%
%TO.N,AGND*%
X88697600Y-10337800D03*
%TD*%
D11*
%TO.P,R1,1*%
%TO.N,/X1+*%
X12979400Y-10363200D03*
D12*
%TO.P,R1,2*%
%TO.N,AGND*%
X15519400Y-10363200D03*
%TD*%
D13*
%TO.P,J4,1*%
%TO.N,AGND*%
X77474600Y-22697400D03*
%TO.P,J4,2*%
%TO.N,/X3+*%
X65274600Y-22697400D03*
%TO.P,J4,3*%
%TO.N,/X3-*%
X71374600Y-22697400D03*
%TO.P,J4,G*%
%TO.N,unconnected-(J4-PadG)*%
X71374600Y-29997400D03*
%TO.P,J4,R*%
%TO.N,/X3-*%
X76574600Y-26597400D03*
%TO.P,J4,RN*%
%TO.N,unconnected-(J4-PadRN)*%
X74374600Y-16097400D03*
%TO.P,J4,S*%
%TO.N,AGND*%
X66174600Y-29997400D03*
%TO.P,J4,SN*%
%TO.N,unconnected-(J4-PadSN)*%
X68374600Y-26597400D03*
%TO.P,J4,T*%
%TO.N,/X3+*%
X62174600Y-16097400D03*
%TO.P,J4,TN*%
%TO.N,unconnected-(J4-PadTN)*%
X68374600Y-16097400D03*
%TD*%
D14*
%TO.P,C3,1*%
%TO.N,Net-(J1-Pin_5)*%
X31702133Y-3500000D03*
D15*
%TO.P,C3,2*%
%TO.N,/X2+*%
X31702133Y-5500000D03*
%TD*%
D13*
%TO.P,J2,1*%
%TO.N,AGND*%
X19374600Y-22697400D03*
%TO.P,J2,2*%
%TO.N,/X1+*%
X7174600Y-22697400D03*
%TO.P,J2,3*%
%TO.N,/X1-*%
X13274600Y-22697400D03*
%TO.P,J2,G*%
%TO.N,unconnected-(J2-PadG)*%
X13274600Y-29997400D03*
%TO.P,J2,R*%
%TO.N,/X1-*%
X18474600Y-26597400D03*
%TO.P,J2,RN*%
%TO.N,unconnected-(J2-PadRN)*%
X16274600Y-16097400D03*
%TO.P,J2,S*%
%TO.N,AGND*%
X8074600Y-29997400D03*
%TO.P,J2,SN*%
%TO.N,unconnected-(J2-PadSN)*%
X10274600Y-26597400D03*
%TO.P,J2,T*%
%TO.N,/X1+*%
X4074600Y-16097400D03*
%TO.P,J2,TN*%
%TO.N,unconnected-(J2-PadTN)*%
X10274600Y-16097400D03*
%TD*%
D14*
%TO.P,C2,1*%
%TO.N,Net-(J1-Pin_4)*%
X22352000Y-3500000D03*
D15*
%TO.P,C2,2*%
%TO.N,/X1-*%
X22352000Y-5500000D03*
%TD*%
D14*
%TO.P,C7,1*%
%TO.N,Net-(J1-Pin_9)*%
X91739600Y-3500000D03*
D15*
%TO.P,C7,2*%
%TO.N,/X4+*%
X91739600Y-5500000D03*
%TD*%
D11*
%TO.P,R3,1*%
%TO.N,/X2+*%
X31699200Y-10337800D03*
D12*
%TO.P,R3,2*%
%TO.N,AGND*%
X34239200Y-10337800D03*
%TD*%
D11*
%TO.P,R6,1*%
%TO.N,/X3-*%
X81431600Y-10337800D03*
D12*
%TO.P,R6,2*%
%TO.N,AGND*%
X83971600Y-10337800D03*
%TD*%
D14*
%TO.P,C6,1*%
%TO.N,Net-(J1-Pin_8)*%
X82869800Y-3500000D03*
D15*
%TO.P,C6,2*%
%TO.N,/X3-*%
X82869800Y-5500000D03*
%TD*%
D14*
%TO.P,C5,1*%
%TO.N,Net-(J1-Pin_7)*%
X74000000Y-3500000D03*
D15*
%TO.P,C5,2*%
%TO.N,/X3+*%
X74000000Y-5500000D03*
%TD*%
D14*
%TO.P,C1,1*%
%TO.N,Net-(J1-Pin_3)*%
X12979400Y-3505200D03*
D15*
%TO.P,C1,2*%
%TO.N,/X1+*%
X12979400Y-5505200D03*
%TD*%
D18*
%TO.N,AGND*%
X57429400Y-2133600D03*
%TD*%
D19*
%TO.N,/X4-*%
X100609400Y-22512600D02*
X100584000Y-22538000D01*
X100424600Y-22697400D02*
X100424600Y-22726000D01*
X104296000Y-26597400D02*
X105624600Y-26597400D01*
X100424600Y-22726000D02*
X104296000Y-26597400D01*
X100609400Y-5500000D02*
X100609400Y-22512600D01*
%TO.N,/X3-*%
X81407000Y-9144000D02*
X82869800Y-7681200D01*
X81407000Y-10337000D02*
X81431600Y-10312400D01*
X71440000Y-22697400D02*
X75340000Y-26597400D01*
X71374600Y-22697400D02*
X71440000Y-22697400D01*
X76574600Y-26597400D02*
X79219000Y-26597400D01*
X81407000Y-10287800D02*
X81407000Y-9144000D01*
X75340000Y-26597400D02*
X76574600Y-26597400D01*
X82869800Y-7681200D02*
X82869800Y-5500000D01*
X81407000Y-24409400D02*
X81407000Y-10337000D01*
X81431600Y-10312400D02*
X81407000Y-10287800D01*
X79219000Y-26597400D02*
X81407000Y-24409400D01*
%TO.N,/X1-*%
X22275800Y-5628467D02*
X22275800Y-5810000D01*
X20748200Y-26597400D02*
X22352000Y-24993600D01*
X22352000Y-5500000D02*
X22352000Y-5552267D01*
X13324800Y-22697400D02*
X13274600Y-22697400D01*
X17224800Y-26597400D02*
X13324800Y-22697400D01*
X22352000Y-5552267D02*
X22275800Y-5628467D01*
X22352000Y-24993600D02*
X22352000Y-5500000D01*
X18474600Y-26597400D02*
X17224800Y-26597400D01*
X18474600Y-26597400D02*
X20748200Y-26597400D01*
%TO.N,/X2-*%
X47524600Y-26597400D02*
X46307800Y-26597400D01*
X42324600Y-22697400D02*
X42291000Y-22663800D01*
X41000000Y-9072200D02*
X41000000Y-5500000D01*
X46307800Y-26597400D02*
X42407800Y-22697400D01*
X42407800Y-22697400D02*
X42324600Y-22697400D01*
X42291000Y-10363200D02*
X41000000Y-9072200D01*
X42291000Y-22663800D02*
X42291000Y-10363200D01*
%TO.N,Net-(J1-Pin_4)*%
X23342600Y-914400D02*
X22352000Y-1905000D01*
X53746400Y-2540000D02*
X52120800Y-914400D01*
X22352000Y-1905000D02*
X22352000Y-3500000D01*
X53746400Y-6426200D02*
X53746400Y-2540000D01*
X52120800Y-914400D02*
X23342600Y-914400D01*
X53695600Y-6477000D02*
X53746400Y-6426200D01*
%TO.N,Net-(J1-Pin_6)*%
X42392600Y-3454400D02*
X41045600Y-3454400D01*
X56235600Y-6477000D02*
X56235600Y-6502400D01*
X41045600Y-3454400D02*
X41000000Y-3500000D01*
X46710600Y-7772400D02*
X42392600Y-3454400D01*
X56235600Y-6502400D02*
X54965600Y-7772400D01*
X54965600Y-7772400D02*
X46710600Y-7772400D01*
%TO.N,Net-(J1-Pin_8)*%
X76657200Y-7772400D02*
X59994800Y-7772400D01*
X82869800Y-3500000D02*
X82813800Y-3556000D01*
X82869800Y-3784600D02*
X82869800Y-3500000D01*
X80873600Y-3556000D02*
X76657200Y-7772400D01*
X58775600Y-6553200D02*
X58775600Y-6477000D01*
X59994800Y-7772400D02*
X58775600Y-6553200D01*
X82813800Y-3556000D02*
X80873600Y-3556000D01*
%TO.N,Net-(J1-Pin_10)*%
X61264800Y-2540000D02*
X62890400Y-914400D01*
X100563800Y-3454400D02*
X100609400Y-3500000D01*
X98018600Y-3454400D02*
X100563800Y-3454400D01*
X61315600Y-6477000D02*
X61264800Y-6426200D01*
X95478600Y-914400D02*
X98018600Y-3454400D01*
X62890400Y-914400D02*
X95478600Y-914400D01*
X61264800Y-6426200D02*
X61264800Y-2540000D01*
%TD*%
%TA.AperFunction,Conductor*%
%TO.N,AGND*%
G36*
X22814449Y-510785D02*
G01*
X22860204Y-563589D01*
X22870148Y-632747D01*
X22841123Y-696303D01*
X22835091Y-702781D01*
X21945101Y-1592770D01*
X21945097Y-1592776D01*
X21898693Y-1673150D01*
X21898692Y-1673152D01*
X21878153Y-1708723D01*
X21843500Y-1838055D01*
X21843500Y-2270700D01*
X21823815Y-2337739D01*
X21771011Y-2383494D01*
X21719501Y-2394700D01*
X21506428Y-2394700D01*
X21506405Y-2394702D01*
X21480893Y-2397661D01*
X21480890Y-2397662D01*
X21376475Y-2443765D01*
X21295766Y-2524474D01*
X21249662Y-2628888D01*
X21249662Y-2628890D01*
X21246700Y-2654419D01*
X21246700Y-4345571D01*
X21246702Y-4345594D01*
X21249661Y-4371106D01*
X21249662Y-4371109D01*
X21295765Y-4475524D01*
X21295766Y-4475525D01*
X21376475Y-4556234D01*
X21430540Y-4580106D01*
X21459291Y-4592801D01*
X21512667Y-4637887D01*
X21533194Y-4704673D01*
X21514356Y-4771955D01*
X21509523Y-4779120D01*
X21406662Y-4920696D01*
X21327679Y-5075709D01*
X21273915Y-5241174D01*
X21246700Y-5413005D01*
X21246700Y-5586994D01*
X21273915Y-5758825D01*
X21313735Y-5881376D01*
X21327678Y-5924288D01*
X21398258Y-6062809D01*
X21406665Y-6079307D01*
X21508918Y-6220048D01*
X21508922Y-6220053D01*
X21631946Y-6343077D01*
X21631951Y-6343081D01*
X21770932Y-6444056D01*
X21772696Y-6445337D01*
X21775793Y-6446915D01*
X21776755Y-6447823D01*
X21776844Y-6447878D01*
X21776832Y-6447896D01*
X21826588Y-6494885D01*
X21843500Y-6557400D01*
X21843500Y-9427625D01*
X21823815Y-9494664D01*
X21788391Y-9530727D01*
X21711159Y-9582332D01*
X21711155Y-9582335D01*
X21571135Y-9722355D01*
X21571132Y-9722359D01*
X21461118Y-9887005D01*
X21461113Y-9887014D01*
X21385333Y-10069964D01*
X21385331Y-10069972D01*
X21346700Y-10264182D01*
X21346700Y-10462217D01*
X21385331Y-10656427D01*
X21385333Y-10656435D01*
X21461113Y-10839385D01*
X21461118Y-10839394D01*
X21571132Y-11004040D01*
X21571135Y-11004044D01*
X21711156Y-11144065D01*
X21711159Y-11144067D01*
X21788391Y-11195671D01*
X21833195Y-11249282D01*
X21843500Y-11298773D01*
X21843500Y-24731610D01*
X21823815Y-24798649D01*
X21807181Y-24819291D01*
X20573891Y-26052581D01*
X20546963Y-26067284D01*
X20521145Y-26083877D01*
X20514944Y-26084768D01*
X20512568Y-26086066D01*
X20486210Y-26088900D01*
X20246749Y-26088900D01*
X20179710Y-26069215D01*
X20133955Y-26016411D01*
X20132199Y-26012379D01*
X20052258Y-25819385D01*
X19937210Y-25620115D01*
X19870823Y-25533598D01*
X19797137Y-25437568D01*
X19797131Y-25437561D01*
X19634438Y-25274868D01*
X19634431Y-25274862D01*
X19451884Y-25134789D01*
X19252618Y-25019743D01*
X19252608Y-25019739D01*
X19040031Y-24931686D01*
X18928905Y-24901910D01*
X18817777Y-24872134D01*
X18779651Y-24867114D01*
X18589655Y-24842100D01*
X18589648Y-24842100D01*
X18359552Y-24842100D01*
X18359544Y-24842100D01*
X18142404Y-24870688D01*
X18131423Y-24872134D01*
X18084451Y-24884719D01*
X17909168Y-24931686D01*
X17696591Y-25019739D01*
X17696581Y-25019743D01*
X17497315Y-25134789D01*
X17314768Y-25274862D01*
X17314761Y-25274868D01*
X17152068Y-25437561D01*
X17152060Y-25437571D01*
X17078375Y-25533598D01*
X17021947Y-25574800D01*
X16952201Y-25578955D01*
X16892319Y-25545792D01*
X14901965Y-23555438D01*
X14868480Y-23494115D01*
X14873464Y-23424423D01*
X14875068Y-23420347D01*
X14940313Y-23262833D01*
X14999866Y-23040577D01*
X15029900Y-22812448D01*
X15029900Y-22585720D01*
X17670600Y-22585720D01*
X17670600Y-22809079D01*
X17670601Y-22809095D01*
X17699755Y-23030545D01*
X17757568Y-23246306D01*
X17843044Y-23452665D01*
X17843051Y-23452679D01*
X17954732Y-23646116D01*
X17954743Y-23646133D01*
X17964342Y-23658642D01*
X17964343Y-23658642D01*
X18789814Y-22833172D01*
X18815489Y-22928991D01*
X18894481Y-23065808D01*
X19006192Y-23177519D01*
X19143009Y-23256511D01*
X19238826Y-23282185D01*
X18413356Y-24107654D01*
X18413356Y-24107655D01*
X18425880Y-24117265D01*
X18619320Y-24228948D01*
X18619334Y-24228955D01*
X18825693Y-24314431D01*
X19041454Y-24372244D01*
X19262904Y-24401398D01*
X19262921Y-24401400D01*
X19486279Y-24401400D01*
X19486295Y-24401398D01*
X19707745Y-24372244D01*
X19923506Y-24314431D01*
X20129865Y-24228955D01*
X20129880Y-24228948D01*
X20323315Y-24117269D01*
X20323318Y-24117266D01*
X20335843Y-24107655D01*
X20335843Y-24107654D01*
X19510374Y-23282185D01*
X19606191Y-23256511D01*
X19743008Y-23177519D01*
X19854719Y-23065808D01*
X19933711Y-22928991D01*
X19959385Y-22833173D01*
X20784854Y-23658643D01*
X20784855Y-23658643D01*
X20794466Y-23646118D01*
X20794469Y-23646115D01*
X20906148Y-23452680D01*
X20906155Y-23452665D01*
X20991631Y-23246306D01*
X21049444Y-23030545D01*
X21078598Y-22809095D01*
X21078600Y-22809079D01*
X21078600Y-22585720D01*
X21078598Y-22585704D01*
X21049444Y-22364254D01*
X20991631Y-22148493D01*
X20906155Y-21942134D01*
X20906148Y-21942120D01*
X20794465Y-21748680D01*
X20784855Y-21736156D01*
X20784854Y-21736156D01*
X19959385Y-22561625D01*
X19933711Y-22465809D01*
X19854719Y-22328992D01*
X19743008Y-22217281D01*
X19606191Y-22138289D01*
X19510372Y-22112614D01*
X20335842Y-21287143D01*
X20335842Y-21287142D01*
X20323333Y-21277543D01*
X20323316Y-21277532D01*
X20129879Y-21165851D01*
X20129865Y-21165844D01*
X19923506Y-21080368D01*
X19707745Y-21022555D01*
X19486295Y-20993401D01*
X19486279Y-20993400D01*
X19262921Y-20993400D01*
X19262904Y-20993401D01*
X19041454Y-21022555D01*
X18825693Y-21080368D01*
X18619334Y-21165844D01*
X18619319Y-21165851D01*
X18425878Y-21277535D01*
X18413355Y-21287142D01*
X19238827Y-22112614D01*
X19143009Y-22138289D01*
X19006192Y-22217281D01*
X18894481Y-22328992D01*
X18815489Y-22465809D01*
X18789814Y-22561627D01*
X17964342Y-21736155D01*
X17954735Y-21748678D01*
X17843051Y-21942119D01*
X17843044Y-21942134D01*
X17757568Y-22148493D01*
X17699755Y-22364254D01*
X17670601Y-22585704D01*
X17670600Y-22585720D01*
X15029900Y-22585720D01*
X15029900Y-22582352D01*
X14999866Y-22354223D01*
X14940313Y-22131967D01*
X14852258Y-21919385D01*
X14737210Y-21720115D01*
X14597136Y-21537567D01*
X14597131Y-21537561D01*
X14434438Y-21374868D01*
X14434431Y-21374862D01*
X14251884Y-21234789D01*
X14052618Y-21119743D01*
X14052608Y-21119739D01*
X13840031Y-21031686D01*
X13705656Y-20995681D01*
X13617777Y-20972134D01*
X13579651Y-20967114D01*
X13389655Y-20942100D01*
X13389648Y-20942100D01*
X13159552Y-20942100D01*
X13159544Y-20942100D01*
X12950906Y-20969569D01*
X12931423Y-20972134D01*
X12885048Y-20984560D01*
X12709168Y-21031686D01*
X12496591Y-21119739D01*
X12496581Y-21119743D01*
X12297315Y-21234789D01*
X12114768Y-21374862D01*
X12114761Y-21374868D01*
X11952068Y-21537561D01*
X11952062Y-21537568D01*
X11811989Y-21720115D01*
X11696943Y-21919381D01*
X11696939Y-21919391D01*
X11608886Y-22131968D01*
X11549335Y-22354220D01*
X11549333Y-22354231D01*
X11519300Y-22582344D01*
X11519300Y-22812455D01*
X11534643Y-22928991D01*
X11549334Y-23040577D01*
X11549335Y-23040579D01*
X11608886Y-23262831D01*
X11696939Y-23475408D01*
X11696943Y-23475418D01*
X11811989Y-23674684D01*
X11952062Y-23857231D01*
X11952068Y-23857238D01*
X12114761Y-24019931D01*
X12114768Y-24019937D01*
X12297315Y-24160010D01*
X12496581Y-24275056D01*
X12496582Y-24275056D01*
X12496585Y-24275058D01*
X12709167Y-24363113D01*
X12931423Y-24422666D01*
X13159552Y-24452700D01*
X13159559Y-24452700D01*
X13389641Y-24452700D01*
X13389648Y-24452700D01*
X13617777Y-24422666D01*
X13840033Y-24363113D01*
X14052615Y-24275058D01*
X14053067Y-24274796D01*
X14053219Y-24274760D01*
X14056257Y-24273262D01*
X14056591Y-24273941D01*
X14120965Y-24258314D01*
X14186995Y-24281155D01*
X14202765Y-24294493D01*
X16704481Y-26796209D01*
X16737966Y-26857532D01*
X16739739Y-26867703D01*
X16749333Y-26940570D01*
X16749335Y-26940580D01*
X16808886Y-27162831D01*
X16896939Y-27375408D01*
X16896943Y-27375418D01*
X17011989Y-27574684D01*
X17152062Y-27757231D01*
X17152068Y-27757238D01*
X17314761Y-27919931D01*
X17314768Y-27919937D01*
X17497315Y-28060010D01*
X17696581Y-28175056D01*
X17696582Y-28175056D01*
X17696585Y-28175058D01*
X17909167Y-28263113D01*
X18131423Y-28322666D01*
X18359552Y-28352700D01*
X18359559Y-28352700D01*
X18589641Y-28352700D01*
X18589648Y-28352700D01*
X18817777Y-28322666D01*
X19040033Y-28263113D01*
X19252615Y-28175058D01*
X19451885Y-28060010D01*
X19634433Y-27919936D01*
X19797136Y-27757233D01*
X19937210Y-27574685D01*
X20052258Y-27375415D01*
X20132189Y-27182445D01*
X20176029Y-27128044D01*
X20242323Y-27105979D01*
X20246749Y-27105900D01*
X20815143Y-27105900D01*
X20815145Y-27105900D01*
X20944474Y-27071247D01*
X21060427Y-27004301D01*
X21582384Y-26482344D01*
X37569300Y-26482344D01*
X37569300Y-26712455D01*
X37586096Y-26840027D01*
X37599334Y-26940577D01*
X37616409Y-27004301D01*
X37658886Y-27162831D01*
X37746939Y-27375408D01*
X37746943Y-27375418D01*
X37861989Y-27574684D01*
X38002062Y-27757231D01*
X38002068Y-27757238D01*
X38164761Y-27919931D01*
X38164768Y-27919937D01*
X38347315Y-28060010D01*
X38546581Y-28175056D01*
X38546582Y-28175056D01*
X38546585Y-28175058D01*
X38759167Y-28263113D01*
X38981423Y-28322666D01*
X39209552Y-28352700D01*
X39209559Y-28352700D01*
X39439641Y-28352700D01*
X39439648Y-28352700D01*
X39667777Y-28322666D01*
X39890033Y-28263113D01*
X40102615Y-28175058D01*
X40301885Y-28060010D01*
X40484433Y-27919936D01*
X40647136Y-27757233D01*
X40787210Y-27574685D01*
X40902258Y-27375415D01*
X40990313Y-27162833D01*
X41049866Y-26940577D01*
X41079900Y-26712448D01*
X41079900Y-26482352D01*
X41049866Y-26254223D01*
X40990313Y-26031967D01*
X40902258Y-25819385D01*
X40787210Y-25620115D01*
X40720823Y-25533598D01*
X40647137Y-25437568D01*
X40647131Y-25437561D01*
X40484438Y-25274868D01*
X40484431Y-25274862D01*
X40301884Y-25134789D01*
X40102618Y-25019743D01*
X40102608Y-25019739D01*
X39890031Y-24931686D01*
X39778905Y-24901910D01*
X39667777Y-24872134D01*
X39629651Y-24867114D01*
X39439655Y-24842100D01*
X39439648Y-24842100D01*
X39209552Y-24842100D01*
X39209544Y-24842100D01*
X38992404Y-24870688D01*
X38981423Y-24872134D01*
X38934451Y-24884719D01*
X38759168Y-24931686D01*
X38546591Y-25019739D01*
X38546581Y-25019743D01*
X38347315Y-25134789D01*
X38164768Y-25274862D01*
X38164761Y-25274868D01*
X38002068Y-25437561D01*
X38002062Y-25437568D01*
X37861989Y-25620115D01*
X37746943Y-25819381D01*
X37746939Y-25819391D01*
X37658886Y-26031968D01*
X37599335Y-26254220D01*
X37599333Y-26254231D01*
X37569300Y-26482344D01*
X21582384Y-26482344D01*
X22758901Y-25305826D01*
X22825847Y-25189874D01*
X22860500Y-25060545D01*
X22860500Y-24926654D01*
X22860500Y-22582344D01*
X34469300Y-22582344D01*
X34469300Y-22812455D01*
X34484643Y-22928991D01*
X34499334Y-23040577D01*
X34499335Y-23040579D01*
X34558886Y-23262831D01*
X34646939Y-23475408D01*
X34646943Y-23475418D01*
X34761989Y-23674684D01*
X34902062Y-23857231D01*
X34902068Y-23857238D01*
X35064761Y-24019931D01*
X35064768Y-24019937D01*
X35247315Y-24160010D01*
X35446581Y-24275056D01*
X35446582Y-24275056D01*
X35446585Y-24275058D01*
X35659167Y-24363113D01*
X35881423Y-24422666D01*
X36109552Y-24452700D01*
X36109559Y-24452700D01*
X36339641Y-24452700D01*
X36339648Y-24452700D01*
X36567777Y-24422666D01*
X36790033Y-24363113D01*
X37002615Y-24275058D01*
X37201885Y-24160010D01*
X37384433Y-24019936D01*
X37547136Y-23857233D01*
X37687210Y-23674685D01*
X37802258Y-23475415D01*
X37890313Y-23262833D01*
X37949866Y-23040577D01*
X37979900Y-22812448D01*
X37979900Y-22582352D01*
X37949866Y-22354223D01*
X37890313Y-22131967D01*
X37802258Y-21919385D01*
X37687210Y-21720115D01*
X37547136Y-21537567D01*
X37547131Y-21537561D01*
X37384438Y-21374868D01*
X37384431Y-21374862D01*
X37201884Y-21234789D01*
X37002618Y-21119743D01*
X37002608Y-21119739D01*
X36790031Y-21031686D01*
X36655656Y-20995681D01*
X36567777Y-20972134D01*
X36529651Y-20967114D01*
X36339655Y-20942100D01*
X36339648Y-20942100D01*
X36109552Y-20942100D01*
X36109544Y-20942100D01*
X35900906Y-20969569D01*
X35881423Y-20972134D01*
X35835048Y-20984560D01*
X35659168Y-21031686D01*
X35446591Y-21119739D01*
X35446581Y-21119743D01*
X35247315Y-21234789D01*
X35064768Y-21374862D01*
X35064761Y-21374868D01*
X34902068Y-21537561D01*
X34902062Y-21537568D01*
X34761989Y-21720115D01*
X34646943Y-21919381D01*
X34646939Y-21919391D01*
X34558886Y-22131968D01*
X34499335Y-22354220D01*
X34499333Y-22354231D01*
X34469300Y-22582344D01*
X22860500Y-22582344D01*
X22860500Y-15982344D01*
X31369300Y-15982344D01*
X31369300Y-16212455D01*
X31394314Y-16402451D01*
X31399334Y-16440577D01*
X31399335Y-16440579D01*
X31458886Y-16662831D01*
X31546939Y-16875408D01*
X31546943Y-16875418D01*
X31661989Y-17074684D01*
X31802062Y-17257231D01*
X31802068Y-17257238D01*
X31964761Y-17419931D01*
X31964768Y-17419937D01*
X32147315Y-17560010D01*
X32346581Y-17675056D01*
X32346582Y-17675056D01*
X32346585Y-17675058D01*
X32559167Y-17763113D01*
X32781423Y-17822666D01*
X33009552Y-17852700D01*
X33009559Y-17852700D01*
X33239641Y-17852700D01*
X33239648Y-17852700D01*
X33467777Y-17822666D01*
X33690033Y-17763113D01*
X33902615Y-17675058D01*
X34101885Y-17560010D01*
X34284433Y-17419936D01*
X34447136Y-17257233D01*
X34587210Y-17074685D01*
X34702258Y-16875415D01*
X34790313Y-16662833D01*
X34849866Y-16440577D01*
X34879900Y-16212448D01*
X34879900Y-15982352D01*
X34879899Y-15982344D01*
X37569300Y-15982344D01*
X37569300Y-16212455D01*
X37594314Y-16402451D01*
X37599334Y-16440577D01*
X37599335Y-16440579D01*
X37658886Y-16662831D01*
X37746939Y-16875408D01*
X37746943Y-16875418D01*
X37861989Y-17074684D01*
X38002062Y-17257231D01*
X38002068Y-17257238D01*
X38164761Y-17419931D01*
X38164768Y-17419937D01*
X38347315Y-17560010D01*
X38546581Y-17675056D01*
X38546582Y-17675056D01*
X38546585Y-17675058D01*
X38759167Y-17763113D01*
X38981423Y-17822666D01*
X39209552Y-17852700D01*
X39209559Y-17852700D01*
X39439641Y-17852700D01*
X39439648Y-17852700D01*
X39667777Y-17822666D01*
X39890033Y-17763113D01*
X40102615Y-17675058D01*
X40301885Y-17560010D01*
X40484433Y-17419936D01*
X40647136Y-17257233D01*
X40787210Y-17074685D01*
X40902258Y-16875415D01*
X40990313Y-16662833D01*
X41049866Y-16440577D01*
X41079900Y-16212448D01*
X41079900Y-15982352D01*
X41049866Y-15754223D01*
X40990313Y-15531967D01*
X40902258Y-15319385D01*
X40787210Y-15120115D01*
X40647136Y-14937567D01*
X40647131Y-14937561D01*
X40484438Y-14774868D01*
X40484431Y-14774862D01*
X40301884Y-14634789D01*
X40102618Y-14519743D01*
X40102608Y-14519739D01*
X39890031Y-14431686D01*
X39778905Y-14401910D01*
X39667777Y-14372134D01*
X39629651Y-14367114D01*
X39439655Y-14342100D01*
X39439648Y-14342100D01*
X39209552Y-14342100D01*
X39209544Y-14342100D01*
X38992404Y-14370688D01*
X38981423Y-14372134D01*
X38934451Y-14384719D01*
X38759168Y-14431686D01*
X38546591Y-14519739D01*
X38546581Y-14519743D01*
X38347315Y-14634789D01*
X38164768Y-14774862D01*
X38164761Y-14774868D01*
X38002068Y-14937561D01*
X38002062Y-14937568D01*
X37861989Y-15120115D01*
X37746943Y-15319381D01*
X37746939Y-15319391D01*
X37658886Y-15531968D01*
X37599335Y-15754220D01*
X37599333Y-15754231D01*
X37569300Y-15982344D01*
X34879899Y-15982344D01*
X34849866Y-15754223D01*
X34790313Y-15531967D01*
X34702258Y-15319385D01*
X34587210Y-15120115D01*
X34447136Y-14937567D01*
X34447131Y-14937561D01*
X34284438Y-14774868D01*
X34284431Y-14774862D01*
X34101884Y-14634789D01*
X33902618Y-14519743D01*
X33902608Y-14519739D01*
X33690031Y-14431686D01*
X33578905Y-14401910D01*
X33467777Y-14372134D01*
X33429651Y-14367114D01*
X33239655Y-14342100D01*
X33239648Y-14342100D01*
X33009552Y-14342100D01*
X33009544Y-14342100D01*
X32792404Y-14370688D01*
X32781423Y-14372134D01*
X32734451Y-14384719D01*
X32559168Y-14431686D01*
X32346591Y-14519739D01*
X32346581Y-14519743D01*
X32147315Y-14634789D01*
X31964768Y-14774862D01*
X31964761Y-14774868D01*
X31802068Y-14937561D01*
X31802062Y-14937568D01*
X31661989Y-15120115D01*
X31546943Y-15319381D01*
X31546939Y-15319391D01*
X31458886Y-15531968D01*
X31399335Y-15754220D01*
X31399333Y-15754231D01*
X31369300Y-15982344D01*
X22860500Y-15982344D01*
X22860500Y-11298773D01*
X22880185Y-11231734D01*
X22915607Y-11195672D01*
X22992841Y-11144067D01*
X23132867Y-11004041D01*
X23242885Y-10839388D01*
X23308616Y-10680700D01*
X23990911Y-10680700D01*
X24046574Y-10815086D01*
X24046576Y-10815089D01*
X24150976Y-10971335D01*
X24150982Y-10971343D01*
X24283856Y-11104217D01*
X24283864Y-11104223D01*
X24440110Y-11208623D01*
X24440113Y-11208625D01*
X24574499Y-11264289D01*
X24574500Y-11264289D01*
X25209500Y-11264289D01*
X25343886Y-11208625D01*
X25343889Y-11208623D01*
X25500135Y-11104223D01*
X25500143Y-11104217D01*
X25633017Y-10971343D01*
X25633023Y-10971335D01*
X25737423Y-10815089D01*
X25737425Y-10815086D01*
X25793089Y-10680700D01*
X25209500Y-10680700D01*
X25209500Y-11264289D01*
X24574500Y-11264289D01*
X24574500Y-10680700D01*
X23990911Y-10680700D01*
X23308616Y-10680700D01*
X23318667Y-10656435D01*
X23357300Y-10462213D01*
X23357300Y-10317122D01*
X24542000Y-10317122D01*
X24542000Y-10409278D01*
X24565852Y-10498295D01*
X24611930Y-10578105D01*
X24677095Y-10643270D01*
X24756905Y-10689348D01*
X24845922Y-10713200D01*
X24938078Y-10713200D01*
X25027095Y-10689348D01*
X25106905Y-10643270D01*
X25172070Y-10578105D01*
X25218148Y-10498295D01*
X25242000Y-10409278D01*
X25242000Y-10317122D01*
X25221009Y-10238782D01*
X30693900Y-10238782D01*
X30693900Y-10436817D01*
X30732531Y-10631027D01*
X30732533Y-10631035D01*
X30808313Y-10813985D01*
X30808318Y-10813994D01*
X30918332Y-10978640D01*
X30918335Y-10978644D01*
X31058355Y-11118664D01*
X31058359Y-11118667D01*
X31223005Y-11228681D01*
X31223014Y-11228686D01*
X31252390Y-11240854D01*
X31405965Y-11304467D01*
X31547993Y-11332718D01*
X31600182Y-11343099D01*
X31600186Y-11343100D01*
X31600187Y-11343100D01*
X31798214Y-11343100D01*
X31798215Y-11343099D01*
X31992435Y-11304467D01*
X32175388Y-11228685D01*
X32340041Y-11118667D01*
X32480067Y-10978641D01*
X32590085Y-10813988D01*
X32655816Y-10655300D01*
X33338111Y-10655300D01*
X33393774Y-10789686D01*
X33393776Y-10789689D01*
X33498176Y-10945935D01*
X33498182Y-10945943D01*
X33631056Y-11078817D01*
X33631064Y-11078823D01*
X33787310Y-11183223D01*
X33787313Y-11183225D01*
X33921699Y-11238889D01*
X33921700Y-11238889D01*
X34556700Y-11238889D01*
X34691086Y-11183225D01*
X34691089Y-11183223D01*
X34847335Y-11078823D01*
X34847343Y-11078817D01*
X34980217Y-10945943D01*
X34980223Y-10945935D01*
X35084623Y-10789689D01*
X35084625Y-10789686D01*
X35140289Y-10655300D01*
X34556700Y-10655300D01*
X34556700Y-11238889D01*
X33921700Y-11238889D01*
X33921700Y-10655300D01*
X33338111Y-10655300D01*
X32655816Y-10655300D01*
X32665867Y-10631035D01*
X32704500Y-10436813D01*
X32704500Y-10291722D01*
X33889200Y-10291722D01*
X33889200Y-10383878D01*
X33913052Y-10472895D01*
X33959130Y-10552705D01*
X34024295Y-10617870D01*
X34104105Y-10663948D01*
X34193122Y-10687800D01*
X34285278Y-10687800D01*
X34374295Y-10663948D01*
X34454105Y-10617870D01*
X34519270Y-10552705D01*
X34565348Y-10472895D01*
X34589200Y-10383878D01*
X34589200Y-10291722D01*
X34565348Y-10202705D01*
X34519270Y-10122895D01*
X34454105Y-10057730D01*
X34389274Y-10020300D01*
X34556700Y-10020300D01*
X35140289Y-10020300D01*
X35140289Y-10020299D01*
X35084625Y-9885913D01*
X35084623Y-9885910D01*
X34980223Y-9729664D01*
X34980217Y-9729656D01*
X34847343Y-9596782D01*
X34847339Y-9596779D01*
X34691094Y-9492379D01*
X34691084Y-9492374D01*
X34556700Y-9436710D01*
X34556700Y-10020300D01*
X34389274Y-10020300D01*
X34374295Y-10011652D01*
X34285278Y-9987800D01*
X34193122Y-9987800D01*
X34104105Y-10011652D01*
X34024295Y-10057730D01*
X33959130Y-10122895D01*
X33913052Y-10202705D01*
X33889200Y-10291722D01*
X32704500Y-10291722D01*
X32704500Y-10238787D01*
X32680766Y-10119467D01*
X32668595Y-10058278D01*
X32668593Y-10058272D01*
X32665867Y-10044565D01*
X32655816Y-10020299D01*
X33338110Y-10020299D01*
X33338111Y-10020300D01*
X33921700Y-10020300D01*
X33921700Y-9436710D01*
X33921699Y-9436710D01*
X33787315Y-9492374D01*
X33787305Y-9492379D01*
X33631060Y-9596779D01*
X33631056Y-9596782D01*
X33498182Y-9729656D01*
X33498176Y-9729664D01*
X33393776Y-9885910D01*
X33393774Y-9885913D01*
X33338110Y-10020299D01*
X32655816Y-10020299D01*
X32590085Y-9861612D01*
X32590084Y-9861611D01*
X32590081Y-9861605D01*
X32480067Y-9696959D01*
X32480064Y-9696955D01*
X32340044Y-9556935D01*
X32340040Y-9556932D01*
X32175394Y-9446918D01*
X32175385Y-9446913D01*
X31992435Y-9371133D01*
X31992427Y-9371131D01*
X31798217Y-9332500D01*
X31798213Y-9332500D01*
X31600187Y-9332500D01*
X31600182Y-9332500D01*
X31405972Y-9371131D01*
X31405964Y-9371133D01*
X31223014Y-9446913D01*
X31223005Y-9446918D01*
X31058359Y-9556932D01*
X31058355Y-9556935D01*
X30918335Y-9696955D01*
X30918332Y-9696959D01*
X30808318Y-9861605D01*
X30808313Y-9861614D01*
X30732533Y-10044564D01*
X30732531Y-10044572D01*
X30693900Y-10238782D01*
X25221009Y-10238782D01*
X25218148Y-10228105D01*
X25172070Y-10148295D01*
X25106905Y-10083130D01*
X25042074Y-10045700D01*
X25209500Y-10045700D01*
X25793089Y-10045700D01*
X25793089Y-10045699D01*
X25737425Y-9911313D01*
X25737423Y-9911310D01*
X25633023Y-9755064D01*
X25633017Y-9755056D01*
X25500143Y-9622182D01*
X25500139Y-9622179D01*
X25343894Y-9517779D01*
X25343884Y-9517774D01*
X25209500Y-9462110D01*
X25209500Y-10045700D01*
X25042074Y-10045700D01*
X25027095Y-10037052D01*
X24938078Y-10013200D01*
X24845922Y-10013200D01*
X24756905Y-10037052D01*
X24677095Y-10083130D01*
X24611930Y-10148295D01*
X24565852Y-10228105D01*
X24542000Y-10317122D01*
X23357300Y-10317122D01*
X23357300Y-10264187D01*
X23352248Y-10238787D01*
X23321395Y-10083678D01*
X23321393Y-10083672D01*
X23318667Y-10069965D01*
X23308616Y-10045699D01*
X23990910Y-10045699D01*
X23990911Y-10045700D01*
X24574500Y-10045700D01*
X24574500Y-9462110D01*
X24574499Y-9462110D01*
X24440115Y-9517774D01*
X24440105Y-9517779D01*
X24283860Y-9622179D01*
X24283856Y-9622182D01*
X24150982Y-9755056D01*
X24150976Y-9755064D01*
X24046576Y-9911310D01*
X24046574Y-9911313D01*
X23990910Y-10045699D01*
X23308616Y-10045699D01*
X23243120Y-9887579D01*
X23242886Y-9887014D01*
X23242881Y-9887005D01*
X23132867Y-9722359D01*
X23132864Y-9722355D01*
X22992844Y-9582335D01*
X22992840Y-9582332D01*
X22915609Y-9530727D01*
X22870804Y-9477114D01*
X22860500Y-9427625D01*
X22860500Y-6557400D01*
X22880185Y-6490361D01*
X22928206Y-6446915D01*
X22931304Y-6445337D01*
X23072055Y-6343076D01*
X23195076Y-6220055D01*
X23297337Y-6079304D01*
X23376322Y-5924288D01*
X23430084Y-5758825D01*
X23457300Y-5586994D01*
X23457300Y-5413005D01*
X23430084Y-5241174D01*
X23417145Y-5201354D01*
X23376322Y-5075712D01*
X23297337Y-4920696D01*
X23253830Y-4860813D01*
X23194477Y-4779119D01*
X23170997Y-4713312D01*
X23186823Y-4645259D01*
X23236929Y-4596564D01*
X23244680Y-4592813D01*
X23327525Y-4556234D01*
X23408234Y-4475525D01*
X23454338Y-4371109D01*
X23457300Y-4345579D01*
X23457299Y-2654422D01*
X23457299Y-2654419D01*
X30596833Y-2654419D01*
X30596833Y-4345571D01*
X30596835Y-4345594D01*
X30599794Y-4371106D01*
X30599795Y-4371109D01*
X30645898Y-4475524D01*
X30645899Y-4475525D01*
X30726608Y-4556234D01*
X30780673Y-4580106D01*
X30809424Y-4592801D01*
X30862800Y-4637887D01*
X30883327Y-4704673D01*
X30864489Y-4771955D01*
X30859656Y-4779120D01*
X30756795Y-4920696D01*
X30677812Y-5075709D01*
X30624048Y-5241174D01*
X30596833Y-5413005D01*
X30596833Y-5586994D01*
X30624048Y-5758825D01*
X30663868Y-5881376D01*
X30677811Y-5924288D01*
X30748391Y-6062809D01*
X30756798Y-6079307D01*
X30859051Y-6220048D01*
X30859055Y-6220053D01*
X30982079Y-6343077D01*
X30982084Y-6343081D01*
X31104845Y-6432271D01*
X31122829Y-6445337D01*
X31277845Y-6524322D01*
X31393554Y-6561918D01*
X31443307Y-6578084D01*
X31615139Y-6605300D01*
X31615144Y-6605300D01*
X31789127Y-6605300D01*
X31960958Y-6578084D01*
X32126421Y-6524322D01*
X32281437Y-6445337D01*
X32422188Y-6343076D01*
X32545209Y-6220055D01*
X32647470Y-6079304D01*
X32726455Y-5924288D01*
X32780217Y-5758825D01*
X32807433Y-5586994D01*
X32807433Y-5413005D01*
X32780217Y-5241174D01*
X32767278Y-5201354D01*
X32726455Y-5075712D01*
X32647470Y-4920696D01*
X32603963Y-4860813D01*
X32544610Y-4779119D01*
X32521130Y-4713312D01*
X32536956Y-4645259D01*
X32587062Y-4596564D01*
X32594813Y-4592813D01*
X32677658Y-4556234D01*
X32758367Y-4475525D01*
X32804471Y-4371109D01*
X32807433Y-4345579D01*
X32807432Y-2654422D01*
X32804471Y-2628891D01*
X32758367Y-2524475D01*
X32677658Y-2443766D01*
X32677656Y-2443765D01*
X32573243Y-2397662D01*
X32547712Y-2394700D01*
X30856561Y-2394700D01*
X30856538Y-2394702D01*
X30831026Y-2397661D01*
X30831023Y-2397662D01*
X30726608Y-2443765D01*
X30645899Y-2524474D01*
X30599795Y-2628888D01*
X30599795Y-2628890D01*
X30596833Y-2654419D01*
X23457299Y-2654419D01*
X23457299Y-2654416D01*
X23454338Y-2628893D01*
X23454338Y-2628891D01*
X23408234Y-2524475D01*
X23327525Y-2443766D01*
X23327523Y-2443765D01*
X23223110Y-2397662D01*
X23197580Y-2394700D01*
X23197579Y-2394700D01*
X22984500Y-2394700D01*
X22975814Y-2392149D01*
X22966853Y-2393438D01*
X22942812Y-2382459D01*
X22917461Y-2375015D01*
X22911533Y-2368174D01*
X22903297Y-2364413D01*
X22889007Y-2342178D01*
X22871706Y-2322211D01*
X22869418Y-2311696D01*
X22865523Y-2305635D01*
X22860500Y-2270700D01*
X22860500Y-2166990D01*
X22880185Y-2099951D01*
X22896819Y-2079309D01*
X23516909Y-1459219D01*
X23578232Y-1425734D01*
X23604590Y-1422900D01*
X51858810Y-1422900D01*
X51925849Y-1442585D01*
X51946491Y-1459219D01*
X53201581Y-2714308D01*
X53235066Y-2775631D01*
X53237900Y-2801989D01*
X53237900Y-5365656D01*
X53218215Y-5432695D01*
X53170197Y-5476140D01*
X53103193Y-5510281D01*
X53064695Y-5538252D01*
X52959259Y-5614856D01*
X52959257Y-5614858D01*
X52959256Y-5614858D01*
X52833458Y-5740656D01*
X52833458Y-5740657D01*
X52833456Y-5740659D01*
X52820258Y-5758825D01*
X52728881Y-5884593D01*
X52648108Y-6043117D01*
X52593132Y-6212319D01*
X52571598Y-6348277D01*
X52565300Y-6388043D01*
X52565300Y-6565957D01*
X52572882Y-6613825D01*
X52593132Y-6741680D01*
X52648108Y-6910882D01*
X52728885Y-7069414D01*
X52731427Y-7073562D01*
X52729829Y-7074540D01*
X52750623Y-7132828D01*
X52734794Y-7200881D01*
X52684685Y-7249573D01*
X52626825Y-7263900D01*
X52224375Y-7263900D01*
X52157336Y-7244215D01*
X52111581Y-7191411D01*
X52101637Y-7122253D01*
X52121074Y-7074359D01*
X52119773Y-7073562D01*
X52122314Y-7069414D01*
X52122315Y-7069410D01*
X52122319Y-7069406D01*
X52203090Y-6910885D01*
X52258068Y-6741679D01*
X52285900Y-6565957D01*
X52285900Y-6388043D01*
X52258068Y-6212321D01*
X52216538Y-6084504D01*
X52203091Y-6043117D01*
X52174959Y-5987905D01*
X52122319Y-5884594D01*
X52017744Y-5740659D01*
X51891941Y-5614856D01*
X51748006Y-5510281D01*
X51712575Y-5492228D01*
X51589482Y-5429508D01*
X51420280Y-5374532D01*
X51332418Y-5360616D01*
X51244557Y-5346700D01*
X51066643Y-5346700D01*
X51008069Y-5355977D01*
X50890919Y-5374532D01*
X50721717Y-5429508D01*
X50563193Y-5510281D01*
X50524695Y-5538252D01*
X50419259Y-5614856D01*
X50419257Y-5614858D01*
X50419256Y-5614858D01*
X50293458Y-5740656D01*
X50293458Y-5740657D01*
X50293456Y-5740659D01*
X50280258Y-5758825D01*
X50188881Y-5884593D01*
X50108108Y-6043117D01*
X50053132Y-6212319D01*
X50031598Y-6348277D01*
X50025300Y-6388043D01*
X50025300Y-6565957D01*
X50032882Y-6613825D01*
X50053132Y-6741680D01*
X50108108Y-6910882D01*
X50188885Y-7069414D01*
X50191427Y-7073562D01*
X50189829Y-7074540D01*
X50210623Y-7132828D01*
X50194794Y-7200881D01*
X50144685Y-7249573D01*
X50086825Y-7263900D01*
X46972590Y-7263900D01*
X46905551Y-7244215D01*
X46884909Y-7227581D01*
X42704829Y-3047501D01*
X42704827Y-3047499D01*
X42646850Y-3014026D01*
X42588875Y-2980553D01*
X42524209Y-2963226D01*
X42459545Y-2945900D01*
X42459544Y-2945900D01*
X42229299Y-2945900D01*
X42162260Y-2926215D01*
X42116505Y-2873411D01*
X42105299Y-2821900D01*
X42105299Y-2654428D01*
X42105299Y-2654422D01*
X42102338Y-2628891D01*
X42056234Y-2524475D01*
X41975525Y-2443766D01*
X41975523Y-2443765D01*
X41871110Y-2397662D01*
X41845579Y-2394700D01*
X40154428Y-2394700D01*
X40154405Y-2394702D01*
X40128893Y-2397661D01*
X40128890Y-2397662D01*
X40024475Y-2443765D01*
X39943766Y-2524474D01*
X39897662Y-2628888D01*
X39897662Y-2628890D01*
X39894700Y-2654419D01*
X39894700Y-4345571D01*
X39894702Y-4345594D01*
X39897661Y-4371106D01*
X39897662Y-4371109D01*
X39943765Y-4475524D01*
X39943766Y-4475525D01*
X40024475Y-4556234D01*
X40078540Y-4580106D01*
X40107291Y-4592801D01*
X40160667Y-4637887D01*
X40181194Y-4704673D01*
X40162356Y-4771955D01*
X40157523Y-4779120D01*
X40054662Y-4920696D01*
X39975679Y-5075709D01*
X39921915Y-5241174D01*
X39894700Y-5413005D01*
X39894700Y-5586994D01*
X39921915Y-5758825D01*
X39961735Y-5881376D01*
X39975678Y-5924288D01*
X40046258Y-6062809D01*
X40054665Y-6079307D01*
X40156918Y-6220048D01*
X40156922Y-6220053D01*
X40279946Y-6343077D01*
X40279951Y-6343081D01*
X40418932Y-6444056D01*
X40420696Y-6445337D01*
X40423793Y-6446915D01*
X40424755Y-6447823D01*
X40424844Y-6447878D01*
X40424832Y-6447896D01*
X40474588Y-6494885D01*
X40491500Y-6557400D01*
X40491500Y-9139144D01*
X40526153Y-9268475D01*
X40547933Y-9306198D01*
X40593099Y-9384427D01*
X40963736Y-9755064D01*
X41312256Y-10103583D01*
X41345741Y-10164906D01*
X41346193Y-10215453D01*
X41336500Y-10264187D01*
X41336500Y-10462217D01*
X41375131Y-10656427D01*
X41375133Y-10656435D01*
X41450913Y-10839385D01*
X41450918Y-10839394D01*
X41560932Y-11004040D01*
X41560935Y-11004044D01*
X41700955Y-11144064D01*
X41700960Y-11144068D01*
X41727389Y-11161727D01*
X41772195Y-11215338D01*
X41782500Y-11264830D01*
X41782500Y-20939167D01*
X41762815Y-21006206D01*
X41710011Y-21051961D01*
X41705954Y-21053728D01*
X41546586Y-21119741D01*
X41546581Y-21119743D01*
X41347315Y-21234789D01*
X41164768Y-21374862D01*
X41164761Y-21374868D01*
X41002068Y-21537561D01*
X41002062Y-21537568D01*
X40861989Y-21720115D01*
X40746943Y-21919381D01*
X40746939Y-21919391D01*
X40658886Y-22131968D01*
X40599335Y-22354220D01*
X40599333Y-22354231D01*
X40569300Y-22582344D01*
X40569300Y-22812455D01*
X40584643Y-22928991D01*
X40599334Y-23040577D01*
X40599335Y-23040579D01*
X40658886Y-23262831D01*
X40746939Y-23475408D01*
X40746943Y-23475418D01*
X40861989Y-23674684D01*
X41002062Y-23857231D01*
X41002068Y-23857238D01*
X41164761Y-24019931D01*
X41164768Y-24019937D01*
X41347315Y-24160010D01*
X41546581Y-24275056D01*
X41546582Y-24275056D01*
X41546585Y-24275058D01*
X41759167Y-24363113D01*
X41981423Y-24422666D01*
X42209552Y-24452700D01*
X42209559Y-24452700D01*
X42439641Y-24452700D01*
X42439648Y-24452700D01*
X42667777Y-24422666D01*
X42890033Y-24363113D01*
X43102615Y-24275058D01*
X43124003Y-24262709D01*
X43191901Y-24246235D01*
X43257929Y-24269085D01*
X43273686Y-24282414D01*
X45749478Y-26758205D01*
X45782963Y-26819528D01*
X45784736Y-26829700D01*
X45799334Y-26940577D01*
X45816409Y-27004301D01*
X45858886Y-27162831D01*
X45946939Y-27375408D01*
X45946943Y-27375418D01*
X46061989Y-27574684D01*
X46202062Y-27757231D01*
X46202068Y-27757238D01*
X46364761Y-27919931D01*
X46364768Y-27919937D01*
X46547315Y-28060010D01*
X46746581Y-28175056D01*
X46746582Y-28175056D01*
X46746585Y-28175058D01*
X46959167Y-28263113D01*
X47181423Y-28322666D01*
X47409552Y-28352700D01*
X47409559Y-28352700D01*
X47639641Y-28352700D01*
X47639648Y-28352700D01*
X47867777Y-28322666D01*
X48090033Y-28263113D01*
X48302615Y-28175058D01*
X48501885Y-28060010D01*
X48684433Y-27919936D01*
X48847136Y-27757233D01*
X48987210Y-27574685D01*
X49102258Y-27375415D01*
X49190313Y-27162833D01*
X49249866Y-26940577D01*
X49279900Y-26712448D01*
X49279900Y-26482352D01*
X49279899Y-26482344D01*
X66619300Y-26482344D01*
X66619300Y-26712455D01*
X66636096Y-26840027D01*
X66649334Y-26940577D01*
X66666409Y-27004301D01*
X66708886Y-27162831D01*
X66796939Y-27375408D01*
X66796943Y-27375418D01*
X66911989Y-27574684D01*
X67052062Y-27757231D01*
X67052068Y-27757238D01*
X67214761Y-27919931D01*
X67214768Y-27919937D01*
X67397315Y-28060010D01*
X67596581Y-28175056D01*
X67596582Y-28175056D01*
X67596585Y-28175058D01*
X67809167Y-28263113D01*
X68031423Y-28322666D01*
X68259552Y-28352700D01*
X68259559Y-28352700D01*
X68489641Y-28352700D01*
X68489648Y-28352700D01*
X68717777Y-28322666D01*
X68940033Y-28263113D01*
X69152615Y-28175058D01*
X69351885Y-28060010D01*
X69534433Y-27919936D01*
X69697136Y-27757233D01*
X69837210Y-27574685D01*
X69952258Y-27375415D01*
X70040313Y-27162833D01*
X70099866Y-26940577D01*
X70129900Y-26712448D01*
X70129900Y-26482352D01*
X70099866Y-26254223D01*
X70040313Y-26031967D01*
X69952258Y-25819385D01*
X69837210Y-25620115D01*
X69770823Y-25533598D01*
X69697137Y-25437568D01*
X69697131Y-25437561D01*
X69534438Y-25274868D01*
X69534431Y-25274862D01*
X69351884Y-25134789D01*
X69152618Y-25019743D01*
X69152608Y-25019739D01*
X68940031Y-24931686D01*
X68828905Y-24901910D01*
X68717777Y-24872134D01*
X68679651Y-24867114D01*
X68489655Y-24842100D01*
X68489648Y-24842100D01*
X68259552Y-24842100D01*
X68259544Y-24842100D01*
X68042404Y-24870688D01*
X68031423Y-24872134D01*
X67984451Y-24884719D01*
X67809168Y-24931686D01*
X67596591Y-25019739D01*
X67596581Y-25019743D01*
X67397315Y-25134789D01*
X67214768Y-25274862D01*
X67214761Y-25274868D01*
X67052068Y-25437561D01*
X67052062Y-25437568D01*
X66911989Y-25620115D01*
X66796943Y-25819381D01*
X66796939Y-25819391D01*
X66708886Y-26031968D01*
X66649335Y-26254220D01*
X66649333Y-26254231D01*
X66619300Y-26482344D01*
X49279899Y-26482344D01*
X49249866Y-26254223D01*
X49190313Y-26031967D01*
X49102258Y-25819385D01*
X48987210Y-25620115D01*
X48920823Y-25533598D01*
X48847137Y-25437568D01*
X48847131Y-25437561D01*
X48684438Y-25274868D01*
X48684431Y-25274862D01*
X48501884Y-25134789D01*
X48302618Y-25019743D01*
X48302608Y-25019739D01*
X48090031Y-24931686D01*
X47978905Y-24901910D01*
X47867777Y-24872134D01*
X47829651Y-24867114D01*
X47639655Y-24842100D01*
X47639648Y-24842100D01*
X47409552Y-24842100D01*
X47409544Y-24842100D01*
X47192404Y-24870688D01*
X47181423Y-24872134D01*
X47134451Y-24884719D01*
X46959168Y-24931686D01*
X46746591Y-25019739D01*
X46746581Y-25019743D01*
X46547315Y-25134789D01*
X46364768Y-25274862D01*
X46364761Y-25274868D01*
X46202068Y-25437561D01*
X46202060Y-25437570D01*
X46142703Y-25514926D01*
X46086275Y-25556128D01*
X46016529Y-25560283D01*
X45956647Y-25527120D01*
X44576911Y-24147383D01*
X43961631Y-23532103D01*
X43928146Y-23470780D01*
X43933130Y-23401088D01*
X43934751Y-23396969D01*
X43990313Y-23262833D01*
X44049866Y-23040577D01*
X44079900Y-22812448D01*
X44079900Y-22585720D01*
X46720600Y-22585720D01*
X46720600Y-22809079D01*
X46720601Y-22809095D01*
X46749755Y-23030545D01*
X46807568Y-23246306D01*
X46893044Y-23452665D01*
X46893051Y-23452679D01*
X47004732Y-23646116D01*
X47004743Y-23646133D01*
X47014342Y-23658642D01*
X47014343Y-23658642D01*
X47839814Y-22833172D01*
X47865489Y-22928991D01*
X47944481Y-23065808D01*
X48056192Y-23177519D01*
X48193009Y-23256511D01*
X48288826Y-23282185D01*
X47463356Y-24107654D01*
X47463356Y-24107655D01*
X47475880Y-24117265D01*
X47669320Y-24228948D01*
X47669334Y-24228955D01*
X47875693Y-24314431D01*
X48091454Y-24372244D01*
X48312904Y-24401398D01*
X48312921Y-24401400D01*
X48536279Y-24401400D01*
X48536295Y-24401398D01*
X48757745Y-24372244D01*
X48973506Y-24314431D01*
X49179865Y-24228955D01*
X49179880Y-24228948D01*
X49373315Y-24117269D01*
X49373318Y-24117266D01*
X49385843Y-24107655D01*
X49385843Y-24107654D01*
X48560374Y-23282185D01*
X48656191Y-23256511D01*
X48793008Y-23177519D01*
X48904719Y-23065808D01*
X48983711Y-22928991D01*
X49009385Y-22833173D01*
X49834854Y-23658643D01*
X49834855Y-23658643D01*
X49844466Y-23646118D01*
X49844469Y-23646115D01*
X49956148Y-23452680D01*
X49956155Y-23452665D01*
X50041631Y-23246306D01*
X50099444Y-23030545D01*
X50128598Y-22809095D01*
X50128600Y-22809079D01*
X50128600Y-22585712D01*
X50128157Y-22582344D01*
X63519300Y-22582344D01*
X63519300Y-22812455D01*
X63534643Y-22928991D01*
X63549334Y-23040577D01*
X63549335Y-23040579D01*
X63608886Y-23262831D01*
X63696939Y-23475408D01*
X63696943Y-23475418D01*
X63811989Y-23674684D01*
X63952062Y-23857231D01*
X63952068Y-23857238D01*
X64114761Y-24019931D01*
X64114768Y-24019937D01*
X64297315Y-24160010D01*
X64496581Y-24275056D01*
X64496582Y-24275056D01*
X64496585Y-24275058D01*
X64709167Y-24363113D01*
X64931423Y-24422666D01*
X65159552Y-24452700D01*
X65159559Y-24452700D01*
X65389641Y-24452700D01*
X65389648Y-24452700D01*
X65617777Y-24422666D01*
X65840033Y-24363113D01*
X66052615Y-24275058D01*
X66251885Y-24160010D01*
X66434433Y-24019936D01*
X66597136Y-23857233D01*
X66737210Y-23674685D01*
X66852258Y-23475415D01*
X66940313Y-23262833D01*
X66999866Y-23040577D01*
X67029900Y-22812448D01*
X67029900Y-22582352D01*
X66999866Y-22354223D01*
X66940313Y-22131967D01*
X66852258Y-21919385D01*
X66737210Y-21720115D01*
X66597136Y-21537567D01*
X66597131Y-21537561D01*
X66434438Y-21374868D01*
X66434431Y-21374862D01*
X66251884Y-21234789D01*
X66052618Y-21119743D01*
X66052608Y-21119739D01*
X65840031Y-21031686D01*
X65705656Y-20995681D01*
X65617777Y-20972134D01*
X65579651Y-20967114D01*
X65389655Y-20942100D01*
X65389648Y-20942100D01*
X65159552Y-20942100D01*
X65159544Y-20942100D01*
X64950906Y-20969569D01*
X64931423Y-20972134D01*
X64885048Y-20984560D01*
X64709168Y-21031686D01*
X64496591Y-21119739D01*
X64496581Y-21119743D01*
X64297315Y-21234789D01*
X64114768Y-21374862D01*
X64114761Y-21374868D01*
X63952068Y-21537561D01*
X63952062Y-21537568D01*
X63811989Y-21720115D01*
X63696943Y-21919381D01*
X63696939Y-21919391D01*
X63608886Y-22131968D01*
X63549335Y-22354220D01*
X63549333Y-22354231D01*
X63519300Y-22582344D01*
X50128157Y-22582344D01*
X50099444Y-22364254D01*
X50041631Y-22148493D01*
X49956155Y-21942134D01*
X49956148Y-21942120D01*
X49844465Y-21748680D01*
X49834855Y-21736156D01*
X49834854Y-21736156D01*
X49009385Y-22561625D01*
X48983711Y-22465809D01*
X48904719Y-22328992D01*
X48793008Y-22217281D01*
X48656191Y-22138289D01*
X48560372Y-22112614D01*
X49385842Y-21287143D01*
X49385842Y-21287142D01*
X49373333Y-21277543D01*
X49373316Y-21277532D01*
X49179879Y-21165851D01*
X49179865Y-21165844D01*
X48973506Y-21080368D01*
X48757745Y-21022555D01*
X48536295Y-20993401D01*
X48536279Y-20993400D01*
X48312921Y-20993400D01*
X48312904Y-20993401D01*
X48091454Y-21022555D01*
X47875693Y-21080368D01*
X47669334Y-21165844D01*
X47669319Y-21165851D01*
X47475878Y-21277535D01*
X47463355Y-21287142D01*
X48288827Y-22112614D01*
X48193009Y-22138289D01*
X48056192Y-22217281D01*
X47944481Y-22328992D01*
X47865489Y-22465809D01*
X47839814Y-22561627D01*
X47014342Y-21736155D01*
X47004735Y-21748678D01*
X46893051Y-21942119D01*
X46893044Y-21942134D01*
X46807568Y-22148493D01*
X46749755Y-22364254D01*
X46720601Y-22585704D01*
X46720600Y-22585720D01*
X44079900Y-22585720D01*
X44079900Y-22582352D01*
X44049866Y-22354223D01*
X43990313Y-22131967D01*
X43902258Y-21919385D01*
X43787210Y-21720115D01*
X43647136Y-21537567D01*
X43647131Y-21537561D01*
X43484438Y-21374868D01*
X43484431Y-21374862D01*
X43301884Y-21234789D01*
X43102618Y-21119743D01*
X43102608Y-21119739D01*
X42890029Y-21031685D01*
X42886186Y-21030381D01*
X42886609Y-21029134D01*
X42831738Y-20995681D01*
X42801215Y-20932831D01*
X42799500Y-20912280D01*
X42799500Y-15982344D01*
X43569300Y-15982344D01*
X43569300Y-16212455D01*
X43594314Y-16402451D01*
X43599334Y-16440577D01*
X43599335Y-16440579D01*
X43658886Y-16662831D01*
X43746939Y-16875408D01*
X43746943Y-16875418D01*
X43861989Y-17074684D01*
X44002062Y-17257231D01*
X44002068Y-17257238D01*
X44164761Y-17419931D01*
X44164768Y-17419937D01*
X44347315Y-17560010D01*
X44546581Y-17675056D01*
X44546582Y-17675056D01*
X44546585Y-17675058D01*
X44759167Y-17763113D01*
X44981423Y-17822666D01*
X45209552Y-17852700D01*
X45209559Y-17852700D01*
X45439641Y-17852700D01*
X45439648Y-17852700D01*
X45667777Y-17822666D01*
X45890033Y-17763113D01*
X46102615Y-17675058D01*
X46301885Y-17560010D01*
X46484433Y-17419936D01*
X46647136Y-17257233D01*
X46787210Y-17074685D01*
X46902258Y-16875415D01*
X46990313Y-16662833D01*
X47049866Y-16440577D01*
X47079900Y-16212448D01*
X47079900Y-15982352D01*
X47079899Y-15982344D01*
X60419300Y-15982344D01*
X60419300Y-16212455D01*
X60444314Y-16402451D01*
X60449334Y-16440577D01*
X60449335Y-16440579D01*
X60508886Y-16662831D01*
X60596939Y-16875408D01*
X60596943Y-16875418D01*
X60711989Y-17074684D01*
X60852062Y-17257231D01*
X60852068Y-17257238D01*
X61014761Y-17419931D01*
X61014768Y-17419937D01*
X61197315Y-17560010D01*
X61396581Y-17675056D01*
X61396582Y-17675056D01*
X61396585Y-17675058D01*
X61609167Y-17763113D01*
X61831423Y-17822666D01*
X62059552Y-17852700D01*
X62059559Y-17852700D01*
X62289641Y-17852700D01*
X62289648Y-17852700D01*
X62517777Y-17822666D01*
X62740033Y-17763113D01*
X62952615Y-17675058D01*
X63151885Y-17560010D01*
X63334433Y-17419936D01*
X63497136Y-17257233D01*
X63637210Y-17074685D01*
X63752258Y-16875415D01*
X63840313Y-16662833D01*
X63899866Y-16440577D01*
X63929900Y-16212448D01*
X63929900Y-15982352D01*
X63929899Y-15982344D01*
X66619300Y-15982344D01*
X66619300Y-16212455D01*
X66644314Y-16402451D01*
X66649334Y-16440577D01*
X66649335Y-16440579D01*
X66708886Y-16662831D01*
X66796939Y-16875408D01*
X66796943Y-16875418D01*
X66911989Y-17074684D01*
X67052062Y-17257231D01*
X67052068Y-17257238D01*
X67214761Y-17419931D01*
X67214768Y-17419937D01*
X67397315Y-17560010D01*
X67596581Y-17675056D01*
X67596582Y-17675056D01*
X67596585Y-17675058D01*
X67809167Y-17763113D01*
X68031423Y-17822666D01*
X68259552Y-17852700D01*
X68259559Y-17852700D01*
X68489641Y-17852700D01*
X68489648Y-17852700D01*
X68717777Y-17822666D01*
X68940033Y-17763113D01*
X69152615Y-17675058D01*
X69351885Y-17560010D01*
X69534433Y-17419936D01*
X69697136Y-17257233D01*
X69837210Y-17074685D01*
X69952258Y-16875415D01*
X70040313Y-16662833D01*
X70099866Y-16440577D01*
X70129900Y-16212448D01*
X70129900Y-15982352D01*
X70129899Y-15982344D01*
X72619300Y-15982344D01*
X72619300Y-16212455D01*
X72644314Y-16402451D01*
X72649334Y-16440577D01*
X72649335Y-16440579D01*
X72708886Y-16662831D01*
X72796939Y-16875408D01*
X72796943Y-16875418D01*
X72911989Y-17074684D01*
X73052062Y-17257231D01*
X73052068Y-17257238D01*
X73214761Y-17419931D01*
X73214768Y-17419937D01*
X73397315Y-17560010D01*
X73596581Y-17675056D01*
X73596582Y-17675056D01*
X73596585Y-17675058D01*
X73809167Y-17763113D01*
X74031423Y-17822666D01*
X74259552Y-17852700D01*
X74259559Y-17852700D01*
X74489641Y-17852700D01*
X74489648Y-17852700D01*
X74717777Y-17822666D01*
X74940033Y-17763113D01*
X75152615Y-17675058D01*
X75351885Y-17560010D01*
X75534433Y-17419936D01*
X75697136Y-17257233D01*
X75837210Y-17074685D01*
X75952258Y-16875415D01*
X76040313Y-16662833D01*
X76099866Y-16440577D01*
X76129900Y-16212448D01*
X76129900Y-15982352D01*
X76099866Y-15754223D01*
X76040313Y-15531967D01*
X75952258Y-15319385D01*
X75837210Y-15120115D01*
X75697136Y-14937567D01*
X75697131Y-14937561D01*
X75534438Y-14774868D01*
X75534431Y-14774862D01*
X75351884Y-14634789D01*
X75152618Y-14519743D01*
X75152608Y-14519739D01*
X74940031Y-14431686D01*
X74828905Y-14401910D01*
X74717777Y-14372134D01*
X74679651Y-14367114D01*
X74489655Y-14342100D01*
X74489648Y-14342100D01*
X74259552Y-14342100D01*
X74259544Y-14342100D01*
X74042404Y-14370688D01*
X74031423Y-14372134D01*
X73984451Y-14384719D01*
X73809168Y-14431686D01*
X73596591Y-14519739D01*
X73596581Y-14519743D01*
X73397315Y-14634789D01*
X73214768Y-14774862D01*
X73214761Y-14774868D01*
X73052068Y-14937561D01*
X73052062Y-14937568D01*
X72911989Y-15120115D01*
X72796943Y-15319381D01*
X72796939Y-15319391D01*
X72708886Y-15531968D01*
X72649335Y-15754220D01*
X72649333Y-15754231D01*
X72619300Y-15982344D01*
X70129899Y-15982344D01*
X70099866Y-15754223D01*
X70040313Y-15531967D01*
X69952258Y-15319385D01*
X69837210Y-15120115D01*
X69697136Y-14937567D01*
X69697131Y-14937561D01*
X69534438Y-14774868D01*
X69534431Y-14774862D01*
X69351884Y-14634789D01*
X69152618Y-14519743D01*
X69152608Y-14519739D01*
X68940031Y-14431686D01*
X68828905Y-14401910D01*
X68717777Y-14372134D01*
X68679651Y-14367114D01*
X68489655Y-14342100D01*
X68489648Y-14342100D01*
X68259552Y-14342100D01*
X68259544Y-14342100D01*
X68042404Y-14370688D01*
X68031423Y-14372134D01*
X67984451Y-14384719D01*
X67809168Y-14431686D01*
X67596591Y-14519739D01*
X67596581Y-14519743D01*
X67397315Y-14634789D01*
X67214768Y-14774862D01*
X67214761Y-14774868D01*
X67052068Y-14937561D01*
X67052062Y-14937568D01*
X66911989Y-15120115D01*
X66796943Y-15319381D01*
X66796939Y-15319391D01*
X66708886Y-15531968D01*
X66649335Y-15754220D01*
X66649333Y-15754231D01*
X66619300Y-15982344D01*
X63929899Y-15982344D01*
X63899866Y-15754223D01*
X63840313Y-15531967D01*
X63752258Y-15319385D01*
X63637210Y-15120115D01*
X63497136Y-14937567D01*
X63497131Y-14937561D01*
X63334438Y-14774868D01*
X63334431Y-14774862D01*
X63151884Y-14634789D01*
X62952618Y-14519743D01*
X62952608Y-14519739D01*
X62740031Y-14431686D01*
X62628905Y-14401910D01*
X62517777Y-14372134D01*
X62479651Y-14367114D01*
X62289655Y-14342100D01*
X62289648Y-14342100D01*
X62059552Y-14342100D01*
X62059544Y-14342100D01*
X61842404Y-14370688D01*
X61831423Y-14372134D01*
X61784451Y-14384719D01*
X61609168Y-14431686D01*
X61396591Y-14519739D01*
X61396581Y-14519743D01*
X61197315Y-14634789D01*
X61014768Y-14774862D01*
X61014761Y-14774868D01*
X60852068Y-14937561D01*
X60852062Y-14937568D01*
X60711989Y-15120115D01*
X60596943Y-15319381D01*
X60596939Y-15319391D01*
X60508886Y-15531968D01*
X60449335Y-15754220D01*
X60449333Y-15754231D01*
X60419300Y-15982344D01*
X47079899Y-15982344D01*
X47049866Y-15754223D01*
X46990313Y-15531967D01*
X46902258Y-15319385D01*
X46787210Y-15120115D01*
X46647136Y-14937567D01*
X46647131Y-14937561D01*
X46484438Y-14774868D01*
X46484431Y-14774862D01*
X46301884Y-14634789D01*
X46102618Y-14519743D01*
X46102608Y-14519739D01*
X45890031Y-14431686D01*
X45778905Y-14401910D01*
X45667777Y-14372134D01*
X45629651Y-14367114D01*
X45439655Y-14342100D01*
X45439648Y-14342100D01*
X45209552Y-14342100D01*
X45209544Y-14342100D01*
X44992404Y-14370688D01*
X44981423Y-14372134D01*
X44934451Y-14384719D01*
X44759168Y-14431686D01*
X44546591Y-14519739D01*
X44546581Y-14519743D01*
X44347315Y-14634789D01*
X44164768Y-14774862D01*
X44164761Y-14774868D01*
X44002068Y-14937561D01*
X44002062Y-14937568D01*
X43861989Y-15120115D01*
X43746943Y-15319381D01*
X43746939Y-15319391D01*
X43658886Y-15531968D01*
X43599335Y-15754220D01*
X43599333Y-15754231D01*
X43569300Y-15982344D01*
X42799500Y-15982344D01*
X42799500Y-11332718D01*
X42819185Y-11265679D01*
X42854609Y-11229616D01*
X42924040Y-11183223D01*
X42982641Y-11144067D01*
X43122667Y-11004041D01*
X43232685Y-10839388D01*
X43298416Y-10680700D01*
X43980711Y-10680700D01*
X44036374Y-10815086D01*
X44036376Y-10815089D01*
X44140776Y-10971335D01*
X44140782Y-10971343D01*
X44273656Y-11104217D01*
X44273664Y-11104223D01*
X44429910Y-11208623D01*
X44429913Y-11208625D01*
X44564299Y-11264289D01*
X44564300Y-11264289D01*
X45199300Y-11264289D01*
X45333686Y-11208625D01*
X45333689Y-11208623D01*
X45489935Y-11104223D01*
X45489943Y-11104217D01*
X45622817Y-10971343D01*
X45622823Y-10971335D01*
X45727223Y-10815089D01*
X45727225Y-10815086D01*
X45782889Y-10680700D01*
X45199300Y-10680700D01*
X45199300Y-11264289D01*
X44564300Y-11264289D01*
X44564300Y-10680700D01*
X43980711Y-10680700D01*
X43298416Y-10680700D01*
X43308467Y-10656435D01*
X43347100Y-10462213D01*
X43347100Y-10317122D01*
X44531800Y-10317122D01*
X44531800Y-10409278D01*
X44555652Y-10498295D01*
X44601730Y-10578105D01*
X44666895Y-10643270D01*
X44746705Y-10689348D01*
X44835722Y-10713200D01*
X44927878Y-10713200D01*
X45016895Y-10689348D01*
X45096705Y-10643270D01*
X45161870Y-10578105D01*
X45207948Y-10498295D01*
X45231800Y-10409278D01*
X45231800Y-10317122D01*
X45210809Y-10238782D01*
X71486300Y-10238782D01*
X71486300Y-10436817D01*
X71524931Y-10631027D01*
X71524933Y-10631035D01*
X71600713Y-10813985D01*
X71600718Y-10813994D01*
X71710732Y-10978640D01*
X71710735Y-10978644D01*
X71850755Y-11118664D01*
X71850759Y-11118667D01*
X72015405Y-11228681D01*
X72015414Y-11228686D01*
X72044790Y-11240854D01*
X72198365Y-11304467D01*
X72340393Y-11332718D01*
X72392582Y-11343099D01*
X72392586Y-11343100D01*
X72392587Y-11343100D01*
X72590614Y-11343100D01*
X72590615Y-11343099D01*
X72784835Y-11304467D01*
X72967788Y-11228685D01*
X73132441Y-11118667D01*
X73272467Y-10978641D01*
X73382485Y-10813988D01*
X73448216Y-10655300D01*
X74130511Y-10655300D01*
X74186174Y-10789686D01*
X74186176Y-10789689D01*
X74290576Y-10945935D01*
X74290582Y-10945943D01*
X74423456Y-11078817D01*
X74423464Y-11078823D01*
X74579710Y-11183223D01*
X74579713Y-11183225D01*
X74714099Y-11238889D01*
X74714100Y-11238889D01*
X75349100Y-11238889D01*
X75483486Y-11183225D01*
X75483489Y-11183223D01*
X75639735Y-11078823D01*
X75639743Y-11078817D01*
X75772617Y-10945943D01*
X75772623Y-10945935D01*
X75877023Y-10789689D01*
X75877025Y-10789686D01*
X75932689Y-10655300D01*
X75349100Y-10655300D01*
X75349100Y-11238889D01*
X74714100Y-11238889D01*
X74714100Y-10655300D01*
X74130511Y-10655300D01*
X73448216Y-10655300D01*
X73458267Y-10631035D01*
X73496900Y-10436813D01*
X73496900Y-10291722D01*
X74681600Y-10291722D01*
X74681600Y-10383878D01*
X74705452Y-10472895D01*
X74751530Y-10552705D01*
X74816695Y-10617870D01*
X74896505Y-10663948D01*
X74985522Y-10687800D01*
X75077678Y-10687800D01*
X75166695Y-10663948D01*
X75246505Y-10617870D01*
X75311670Y-10552705D01*
X75357748Y-10472895D01*
X75381600Y-10383878D01*
X75381600Y-10291722D01*
X75357748Y-10202705D01*
X75311670Y-10122895D01*
X75246505Y-10057730D01*
X75181674Y-10020300D01*
X75349100Y-10020300D01*
X75932689Y-10020300D01*
X75932689Y-10020299D01*
X75877025Y-9885913D01*
X75877023Y-9885910D01*
X75772623Y-9729664D01*
X75772617Y-9729656D01*
X75639743Y-9596782D01*
X75639739Y-9596779D01*
X75483494Y-9492379D01*
X75483484Y-9492374D01*
X75349100Y-9436710D01*
X75349100Y-10020300D01*
X75181674Y-10020300D01*
X75166695Y-10011652D01*
X75077678Y-9987800D01*
X74985522Y-9987800D01*
X74896505Y-10011652D01*
X74816695Y-10057730D01*
X74751530Y-10122895D01*
X74705452Y-10202705D01*
X74681600Y-10291722D01*
X73496900Y-10291722D01*
X73496900Y-10238787D01*
X73473166Y-10119467D01*
X73460995Y-10058278D01*
X73460993Y-10058272D01*
X73458267Y-10044565D01*
X73448216Y-10020299D01*
X74130510Y-10020299D01*
X74130511Y-10020300D01*
X74714100Y-10020300D01*
X74714100Y-9436710D01*
X74714099Y-9436710D01*
X74579715Y-9492374D01*
X74579705Y-9492379D01*
X74423460Y-9596779D01*
X74423456Y-9596782D01*
X74290582Y-9729656D01*
X74290576Y-9729664D01*
X74186176Y-9885910D01*
X74186174Y-9885913D01*
X74130510Y-10020299D01*
X73448216Y-10020299D01*
X73382485Y-9861612D01*
X73382484Y-9861611D01*
X73382481Y-9861605D01*
X73272467Y-9696959D01*
X73272464Y-9696955D01*
X73132444Y-9556935D01*
X73132440Y-9556932D01*
X72967794Y-9446918D01*
X72967785Y-9446913D01*
X72784835Y-9371133D01*
X72784827Y-9371131D01*
X72590617Y-9332500D01*
X72590613Y-9332500D01*
X72392587Y-9332500D01*
X72392582Y-9332500D01*
X72198372Y-9371131D01*
X72198364Y-9371133D01*
X72015414Y-9446913D01*
X72015405Y-9446918D01*
X71850759Y-9556932D01*
X71850755Y-9556935D01*
X71710735Y-9696955D01*
X71710732Y-9696959D01*
X71600718Y-9861605D01*
X71600713Y-9861614D01*
X71524933Y-10044564D01*
X71524931Y-10044572D01*
X71486300Y-10238782D01*
X45210809Y-10238782D01*
X45207948Y-10228105D01*
X45161870Y-10148295D01*
X45096705Y-10083130D01*
X45031874Y-10045700D01*
X45199300Y-10045700D01*
X45782889Y-10045700D01*
X45782889Y-10045699D01*
X45727225Y-9911313D01*
X45727223Y-9911310D01*
X45622823Y-9755064D01*
X45622817Y-9755056D01*
X45489943Y-9622182D01*
X45489939Y-9622179D01*
X45333694Y-9517779D01*
X45333684Y-9517774D01*
X45199300Y-9462110D01*
X45199300Y-10045700D01*
X45031874Y-10045700D01*
X45016895Y-10037052D01*
X44927878Y-10013200D01*
X44835722Y-10013200D01*
X44746705Y-10037052D01*
X44666895Y-10083130D01*
X44601730Y-10148295D01*
X44555652Y-10228105D01*
X44531800Y-10317122D01*
X43347100Y-10317122D01*
X43347100Y-10264187D01*
X43327352Y-10164906D01*
X43311195Y-10083678D01*
X43311193Y-10083672D01*
X43308467Y-10069965D01*
X43298416Y-10045699D01*
X43980710Y-10045699D01*
X43980711Y-10045700D01*
X44564300Y-10045700D01*
X44564300Y-9462110D01*
X44564299Y-9462110D01*
X44429915Y-9517774D01*
X44429905Y-9517779D01*
X44273660Y-9622179D01*
X44273656Y-9622182D01*
X44140782Y-9755056D01*
X44140776Y-9755064D01*
X44036376Y-9911310D01*
X44036374Y-9911313D01*
X43980710Y-10045699D01*
X43298416Y-10045699D01*
X43232920Y-9887579D01*
X43232686Y-9887014D01*
X43232681Y-9887005D01*
X43122667Y-9722359D01*
X43122664Y-9722355D01*
X42982644Y-9582335D01*
X42982640Y-9582332D01*
X42817994Y-9472318D01*
X42817985Y-9472313D01*
X42635035Y-9396533D01*
X42635027Y-9396531D01*
X42440817Y-9357900D01*
X42440813Y-9357900D01*
X42242787Y-9357900D01*
X42242782Y-9357900D01*
X42109312Y-9384449D01*
X42039720Y-9378222D01*
X41997440Y-9350513D01*
X41544819Y-8897891D01*
X41511334Y-8836568D01*
X41508500Y-8810210D01*
X41508500Y-6557400D01*
X41528185Y-6490361D01*
X41576206Y-6446915D01*
X41579304Y-6445337D01*
X41720055Y-6343076D01*
X41843076Y-6220055D01*
X41945337Y-6079304D01*
X42024322Y-5924288D01*
X42078084Y-5758825D01*
X42105300Y-5586994D01*
X42105300Y-5413005D01*
X42078084Y-5241174D01*
X42065145Y-5201354D01*
X42024322Y-5075712D01*
X41945337Y-4920696D01*
X41901830Y-4860813D01*
X41842477Y-4779119D01*
X41818997Y-4713312D01*
X41834823Y-4645259D01*
X41884929Y-4596564D01*
X41892680Y-4592813D01*
X41975525Y-4556234D01*
X42056234Y-4475525D01*
X42102338Y-4371109D01*
X42105300Y-4345579D01*
X42105300Y-4185590D01*
X42124985Y-4118551D01*
X42177789Y-4072796D01*
X42246947Y-4062852D01*
X42310503Y-4091877D01*
X42316981Y-4097909D01*
X46398373Y-8179301D01*
X46514326Y-8246247D01*
X46643655Y-8280900D01*
X49901300Y-8280900D01*
X49968339Y-8300585D01*
X50014094Y-8353389D01*
X50025300Y-8404900D01*
X50025300Y-9887571D01*
X50025302Y-9887594D01*
X50028261Y-9913106D01*
X50028262Y-9913109D01*
X50074365Y-10017524D01*
X50074366Y-10017525D01*
X50155075Y-10098234D01*
X50259491Y-10144338D01*
X50285021Y-10147300D01*
X52026178Y-10147299D01*
X52051709Y-10144338D01*
X52156125Y-10098234D01*
X52236834Y-10017525D01*
X52282938Y-9913109D01*
X52285900Y-9887579D01*
X52285899Y-8404899D01*
X52305584Y-8337861D01*
X52358387Y-8292106D01*
X52409899Y-8280900D01*
X52599747Y-8280900D01*
X52666786Y-8300585D01*
X52712541Y-8353389D01*
X52722485Y-8422547D01*
X52710232Y-8461195D01*
X52648108Y-8583117D01*
X52593132Y-8752319D01*
X52565300Y-8928043D01*
X52565300Y-9105956D01*
X52593132Y-9281680D01*
X52648108Y-9450882D01*
X52722447Y-9596779D01*
X52728881Y-9609406D01*
X52833456Y-9753341D01*
X52959259Y-9879144D01*
X53103194Y-9983719D01*
X53249512Y-10058272D01*
X53261717Y-10064491D01*
X53320770Y-10083678D01*
X53430921Y-10119468D01*
X53606643Y-10147300D01*
X53606644Y-10147300D01*
X53784556Y-10147300D01*
X53784557Y-10147300D01*
X53960279Y-10119468D01*
X54129485Y-10064490D01*
X54288006Y-9983719D01*
X54431941Y-9879144D01*
X54557744Y-9753341D01*
X54662319Y-9609406D01*
X54743090Y-9450885D01*
X54798068Y-9281679D01*
X54825900Y-9105957D01*
X54825900Y-8928043D01*
X54798068Y-8752321D01*
X54743090Y-8583115D01*
X54680967Y-8461194D01*
X54668072Y-8392526D01*
X54694348Y-8327786D01*
X54751454Y-8287528D01*
X54791453Y-8280900D01*
X55032542Y-8280900D01*
X55032545Y-8280900D01*
X55122025Y-8256924D01*
X55191871Y-8258587D01*
X55249734Y-8297749D01*
X55277238Y-8361977D01*
X55265652Y-8430880D01*
X55264600Y-8432994D01*
X55188108Y-8583117D01*
X55133132Y-8752319D01*
X55105300Y-8928043D01*
X55105300Y-9105956D01*
X55133132Y-9281680D01*
X55188108Y-9450882D01*
X55262447Y-9596779D01*
X55268881Y-9609406D01*
X55373456Y-9753341D01*
X55499259Y-9879144D01*
X55643194Y-9983719D01*
X55789512Y-10058272D01*
X55801717Y-10064491D01*
X55860770Y-10083678D01*
X55970921Y-10119468D01*
X56146643Y-10147300D01*
X56146644Y-10147300D01*
X56324556Y-10147300D01*
X56324557Y-10147300D01*
X56500279Y-10119468D01*
X56669485Y-10064490D01*
X56828006Y-9983719D01*
X56971941Y-9879144D01*
X57097744Y-9753341D01*
X57202319Y-9609406D01*
X57283090Y-9450885D01*
X57338068Y-9281679D01*
X57365900Y-9105957D01*
X57365900Y-8928043D01*
X57338068Y-8752321D01*
X57283090Y-8583115D01*
X57202319Y-8424594D01*
X57097744Y-8280659D01*
X56971941Y-8154856D01*
X56828006Y-8050281D01*
X56669482Y-7969508D01*
X56500280Y-7914532D01*
X56412418Y-7900616D01*
X56324557Y-7886700D01*
X56146643Y-7886700D01*
X56111498Y-7892266D01*
X55970917Y-7914532D01*
X55827657Y-7961079D01*
X55821289Y-7961260D01*
X55815698Y-7964314D01*
X55786787Y-7962246D01*
X55757816Y-7963074D01*
X55752360Y-7959784D01*
X55746006Y-7959330D01*
X55722804Y-7941960D01*
X55697983Y-7926993D01*
X55695171Y-7921274D01*
X55690073Y-7917458D01*
X55679945Y-7890305D01*
X55667156Y-7864292D01*
X55667882Y-7857962D01*
X55665656Y-7851994D01*
X55671816Y-7823673D01*
X55675121Y-7794877D01*
X55679493Y-7788383D01*
X55680508Y-7783721D01*
X55701655Y-7755472D01*
X55846800Y-7610326D01*
X55908121Y-7576843D01*
X55965842Y-7579728D01*
X55966178Y-7578330D01*
X55970917Y-7579467D01*
X55970918Y-7579467D01*
X55970921Y-7579468D01*
X56146643Y-7607300D01*
X56146644Y-7607300D01*
X56324556Y-7607300D01*
X56324557Y-7607300D01*
X56500279Y-7579468D01*
X56669485Y-7524490D01*
X56828006Y-7443719D01*
X56971941Y-7339144D01*
X57097744Y-7213341D01*
X57202319Y-7069406D01*
X57283090Y-6910885D01*
X57338068Y-6741679D01*
X57365900Y-6565957D01*
X57365900Y-6388043D01*
X57338068Y-6212321D01*
X57296538Y-6084504D01*
X57283091Y-6043117D01*
X57254959Y-5987905D01*
X57202319Y-5884594D01*
X57097744Y-5740659D01*
X56971941Y-5614856D01*
X56828006Y-5510281D01*
X56792575Y-5492228D01*
X56669482Y-5429508D01*
X56500280Y-5374532D01*
X56412418Y-5360616D01*
X56324557Y-5346700D01*
X56146643Y-5346700D01*
X56088069Y-5355977D01*
X55970919Y-5374532D01*
X55801717Y-5429508D01*
X55643193Y-5510281D01*
X55604695Y-5538252D01*
X55499259Y-5614856D01*
X55499257Y-5614858D01*
X55499256Y-5614858D01*
X55373458Y-5740656D01*
X55373458Y-5740657D01*
X55373456Y-5740659D01*
X55360258Y-5758825D01*
X55268881Y-5884593D01*
X55188108Y-6043117D01*
X55133132Y-6212319D01*
X55111598Y-6348277D01*
X55105300Y-6388043D01*
X55105300Y-6565957D01*
X55112882Y-6613825D01*
X55133132Y-6741680D01*
X55144979Y-6778142D01*
X55146974Y-6847984D01*
X55114729Y-6904141D01*
X54917617Y-7101254D01*
X54856294Y-7134739D01*
X54786603Y-7129755D01*
X54730669Y-7087884D01*
X54706252Y-7022419D01*
X54719452Y-6957277D01*
X54739918Y-6917110D01*
X54743090Y-6910885D01*
X54798068Y-6741679D01*
X54825900Y-6565957D01*
X54825900Y-6388043D01*
X54798068Y-6212321D01*
X54756538Y-6084504D01*
X54743091Y-6043117D01*
X54714959Y-5987905D01*
X54662319Y-5884594D01*
X54557744Y-5740659D01*
X54431941Y-5614856D01*
X54306013Y-5523364D01*
X54263349Y-5468035D01*
X54254900Y-5423047D01*
X54254900Y-2473057D01*
X54254900Y-2473055D01*
X54220247Y-2343726D01*
X54153301Y-2227774D01*
X54058626Y-2133099D01*
X53348427Y-1422900D01*
X52628309Y-702781D01*
X52594824Y-641458D01*
X52599808Y-571766D01*
X52641680Y-515833D01*
X52707144Y-491416D01*
X52715990Y-491100D01*
X62295210Y-491100D01*
X62362249Y-510785D01*
X62408004Y-563589D01*
X62417948Y-632747D01*
X62388923Y-696303D01*
X62382891Y-702781D01*
X60857901Y-2227770D01*
X60857899Y-2227773D01*
X60790953Y-2343724D01*
X60756300Y-2473055D01*
X60756300Y-5423047D01*
X60736615Y-5490086D01*
X60705187Y-5523363D01*
X60617653Y-5586960D01*
X60579256Y-5614858D01*
X60453458Y-5740656D01*
X60453458Y-5740657D01*
X60453456Y-5740659D01*
X60440258Y-5758825D01*
X60348881Y-5884593D01*
X60268108Y-6043117D01*
X60213132Y-6212319D01*
X60191598Y-6348277D01*
X60185300Y-6388043D01*
X60185300Y-6565957D01*
X60192882Y-6613825D01*
X60213132Y-6741680D01*
X60268108Y-6910882D01*
X60344523Y-7060853D01*
X60357419Y-7129522D01*
X60331143Y-7194262D01*
X60274037Y-7234520D01*
X60204231Y-7237512D01*
X60146357Y-7204829D01*
X59884012Y-6942484D01*
X59850527Y-6881161D01*
X59853761Y-6816485D01*
X59878068Y-6741679D01*
X59905900Y-6565957D01*
X59905900Y-6388043D01*
X59878068Y-6212321D01*
X59836538Y-6084504D01*
X59823091Y-6043117D01*
X59794959Y-5987905D01*
X59742319Y-5884594D01*
X59637744Y-5740659D01*
X59511941Y-5614856D01*
X59368006Y-5510281D01*
X59332575Y-5492228D01*
X59209482Y-5429508D01*
X59040280Y-5374532D01*
X58952418Y-5360616D01*
X58864557Y-5346700D01*
X58686643Y-5346700D01*
X58628069Y-5355977D01*
X58510919Y-5374532D01*
X58341717Y-5429508D01*
X58183193Y-5510281D01*
X58144695Y-5538252D01*
X58039259Y-5614856D01*
X58039257Y-5614858D01*
X58039256Y-5614858D01*
X57913458Y-5740656D01*
X57913458Y-5740657D01*
X57913456Y-5740659D01*
X57900258Y-5758825D01*
X57808881Y-5884593D01*
X57728108Y-6043117D01*
X57673132Y-6212319D01*
X57651598Y-6348277D01*
X57645300Y-6388043D01*
X57645300Y-6565957D01*
X57652882Y-6613825D01*
X57673132Y-6741680D01*
X57728108Y-6910882D01*
X57787274Y-7027000D01*
X57808881Y-7069406D01*
X57913456Y-7213341D01*
X58039259Y-7339144D01*
X58183194Y-7443719D01*
X58307175Y-7506891D01*
X58341717Y-7524491D01*
X58426318Y-7551979D01*
X58510921Y-7579468D01*
X58686643Y-7607300D01*
X58686644Y-7607300D01*
X58864556Y-7607300D01*
X58864557Y-7607300D01*
X59014531Y-7583546D01*
X59019956Y-7584247D01*
X59025083Y-7582335D01*
X59054233Y-7588676D01*
X59083824Y-7592500D01*
X59089429Y-7596332D01*
X59093356Y-7597187D01*
X59121610Y-7618338D01*
X59234289Y-7731017D01*
X59267774Y-7792340D01*
X59262790Y-7862032D01*
X59220918Y-7917965D01*
X59155454Y-7942382D01*
X59108291Y-7936629D01*
X59040282Y-7914532D01*
X58908487Y-7893658D01*
X58864557Y-7886700D01*
X58686643Y-7886700D01*
X58628069Y-7895977D01*
X58510919Y-7914532D01*
X58341717Y-7969508D01*
X58183193Y-8050281D01*
X58101073Y-8109945D01*
X58039259Y-8154856D01*
X58039257Y-8154858D01*
X58039256Y-8154858D01*
X57913458Y-8280656D01*
X57913458Y-8280657D01*
X57913456Y-8280659D01*
X57898979Y-8300585D01*
X57808881Y-8424593D01*
X57728108Y-8583117D01*
X57673132Y-8752319D01*
X57645300Y-8928043D01*
X57645300Y-9105956D01*
X57673132Y-9281680D01*
X57728108Y-9450882D01*
X57802447Y-9596779D01*
X57808881Y-9609406D01*
X57913456Y-9753341D01*
X58039259Y-9879144D01*
X58183194Y-9983719D01*
X58329512Y-10058272D01*
X58341717Y-10064491D01*
X58400770Y-10083678D01*
X58510921Y-10119468D01*
X58686643Y-10147300D01*
X58686644Y-10147300D01*
X58864556Y-10147300D01*
X58864557Y-10147300D01*
X59040279Y-10119468D01*
X59209485Y-10064490D01*
X59368006Y-9983719D01*
X59511941Y-9879144D01*
X59637744Y-9753341D01*
X59742319Y-9609406D01*
X59823090Y-9450885D01*
X59878068Y-9281679D01*
X59905900Y-9105957D01*
X59905900Y-8928043D01*
X59878068Y-8752321D01*
X59823090Y-8583115D01*
X59754630Y-8448757D01*
X59741735Y-8380089D01*
X59768011Y-8315349D01*
X59825117Y-8275091D01*
X59894923Y-8272099D01*
X59897129Y-8272667D01*
X59927855Y-8280900D01*
X60219747Y-8280900D01*
X60286786Y-8300585D01*
X60332541Y-8353389D01*
X60342485Y-8422547D01*
X60330232Y-8461195D01*
X60268108Y-8583117D01*
X60213132Y-8752319D01*
X60185300Y-8928043D01*
X60185300Y-9105956D01*
X60213132Y-9281680D01*
X60268108Y-9450882D01*
X60342447Y-9596779D01*
X60348881Y-9609406D01*
X60453456Y-9753341D01*
X60579259Y-9879144D01*
X60723194Y-9983719D01*
X60869512Y-10058272D01*
X60881717Y-10064491D01*
X60940770Y-10083678D01*
X61050921Y-10119468D01*
X61226643Y-10147300D01*
X61226644Y-10147300D01*
X61404556Y-10147300D01*
X61404557Y-10147300D01*
X61580279Y-10119468D01*
X61594757Y-10114764D01*
X61594758Y-10114764D01*
X61749482Y-10064491D01*
X61749482Y-10064490D01*
X61749485Y-10064490D01*
X61908006Y-9983719D01*
X62051941Y-9879144D01*
X62177744Y-9753341D01*
X62282319Y-9609406D01*
X62363090Y-9450885D01*
X62418068Y-9281679D01*
X62445900Y-9105957D01*
X62445900Y-8928043D01*
X62418068Y-8752321D01*
X62363090Y-8583115D01*
X62300967Y-8461194D01*
X62288072Y-8392526D01*
X62314348Y-8327786D01*
X62371454Y-8287528D01*
X62411453Y-8280900D01*
X62817323Y-8280900D01*
X62884362Y-8300585D01*
X62930117Y-8353389D01*
X62940061Y-8422547D01*
X62927808Y-8461195D01*
X62855653Y-8602803D01*
X62803168Y-8764333D01*
X62776600Y-8932081D01*
X62776600Y-9101918D01*
X62803168Y-9269666D01*
X62855653Y-9431196D01*
X62901808Y-9521777D01*
X63311639Y-9111946D01*
X63343082Y-9229292D01*
X63415490Y-9354708D01*
X63517892Y-9457110D01*
X63643308Y-9529518D01*
X63760651Y-9560960D01*
X63350820Y-9970790D01*
X63441409Y-10016947D01*
X63602933Y-10069431D01*
X63770682Y-10096000D01*
X63940518Y-10096000D01*
X64108266Y-10069431D01*
X64269793Y-10016946D01*
X64269797Y-10016945D01*
X64360378Y-9970790D01*
X63950549Y-9560960D01*
X64067892Y-9529518D01*
X64193308Y-9457110D01*
X64295710Y-9354708D01*
X64368118Y-9229292D01*
X64399560Y-9111948D01*
X64809390Y-9521778D01*
X64855545Y-9431197D01*
X64855546Y-9431193D01*
X64908031Y-9269666D01*
X64934600Y-9101918D01*
X64934600Y-8932081D01*
X64908031Y-8764333D01*
X64855546Y-8602803D01*
X64783392Y-8461195D01*
X64770496Y-8392526D01*
X64796772Y-8327786D01*
X64853878Y-8287528D01*
X64893877Y-8280900D01*
X76724143Y-8280900D01*
X76724145Y-8280900D01*
X76853474Y-8246247D01*
X76969427Y-8179301D01*
X81047909Y-4100819D01*
X81109232Y-4067334D01*
X81135590Y-4064500D01*
X81640501Y-4064500D01*
X81707540Y-4084185D01*
X81753295Y-4136989D01*
X81764501Y-4188500D01*
X81764501Y-4345571D01*
X81764502Y-4345594D01*
X81767461Y-4371106D01*
X81767462Y-4371109D01*
X81813565Y-4475524D01*
X81813566Y-4475525D01*
X81894275Y-4556234D01*
X81948340Y-4580106D01*
X81977091Y-4592801D01*
X82030467Y-4637887D01*
X82050994Y-4704673D01*
X82032156Y-4771955D01*
X82027323Y-4779120D01*
X81924462Y-4920696D01*
X81845479Y-5075709D01*
X81791715Y-5241174D01*
X81764500Y-5413005D01*
X81764500Y-5586994D01*
X81791715Y-5758825D01*
X81831535Y-5881376D01*
X81845478Y-5924288D01*
X81916058Y-6062809D01*
X81924465Y-6079307D01*
X82026718Y-6220048D01*
X82026722Y-6220053D01*
X82149746Y-6343077D01*
X82149751Y-6343081D01*
X82288732Y-6444056D01*
X82290496Y-6445337D01*
X82293593Y-6446915D01*
X82294555Y-6447823D01*
X82294644Y-6447878D01*
X82294632Y-6447896D01*
X82344388Y-6494885D01*
X82361300Y-6557400D01*
X82361300Y-7419210D01*
X82341615Y-7486249D01*
X82324981Y-7506891D01*
X81000101Y-8831770D01*
X81000096Y-8831776D01*
X80982894Y-8861572D01*
X80974607Y-8875926D01*
X80972154Y-8880175D01*
X80933153Y-8947724D01*
X80898500Y-9077055D01*
X80898500Y-9418662D01*
X80878815Y-9485701D01*
X80843392Y-9521763D01*
X80790761Y-9556930D01*
X80790755Y-9556935D01*
X80650735Y-9696955D01*
X80650732Y-9696959D01*
X80540718Y-9861605D01*
X80540713Y-9861614D01*
X80464933Y-10044564D01*
X80464931Y-10044572D01*
X80426300Y-10238782D01*
X80426300Y-10436817D01*
X80464931Y-10631027D01*
X80464933Y-10631035D01*
X80540713Y-10813985D01*
X80540718Y-10813994D01*
X80650732Y-10978640D01*
X80650735Y-10978644D01*
X80790756Y-11118665D01*
X80790759Y-11118667D01*
X80843391Y-11153834D01*
X80888195Y-11207445D01*
X80898500Y-11256936D01*
X80898500Y-24147410D01*
X80878815Y-24214449D01*
X80862181Y-24235091D01*
X79044691Y-26052581D01*
X78983368Y-26086066D01*
X78957010Y-26088900D01*
X78346749Y-26088900D01*
X78279710Y-26069215D01*
X78233955Y-26016411D01*
X78232199Y-26012379D01*
X78152258Y-25819385D01*
X78037210Y-25620115D01*
X77970823Y-25533598D01*
X77897137Y-25437568D01*
X77897131Y-25437561D01*
X77734438Y-25274868D01*
X77734431Y-25274862D01*
X77551884Y-25134789D01*
X77352618Y-25019743D01*
X77352608Y-25019739D01*
X77140031Y-24931686D01*
X77028905Y-24901910D01*
X76917777Y-24872134D01*
X76879651Y-24867114D01*
X76689655Y-24842100D01*
X76689648Y-24842100D01*
X76459552Y-24842100D01*
X76459544Y-24842100D01*
X76242404Y-24870688D01*
X76231423Y-24872134D01*
X76184451Y-24884719D01*
X76009168Y-24931686D01*
X75796591Y-25019739D01*
X75796581Y-25019743D01*
X75597315Y-25134789D01*
X75414768Y-25274862D01*
X75414761Y-25274868D01*
X75252068Y-25437561D01*
X75252060Y-25437571D01*
X75184975Y-25524997D01*
X75128547Y-25566199D01*
X75058801Y-25570354D01*
X74998919Y-25537191D01*
X73006417Y-23544689D01*
X72972932Y-23483366D01*
X72977916Y-23413674D01*
X72979504Y-23409636D01*
X73040313Y-23262833D01*
X73099866Y-23040577D01*
X73129900Y-22812448D01*
X73129900Y-22585720D01*
X75770600Y-22585720D01*
X75770600Y-22809079D01*
X75770601Y-22809095D01*
X75799755Y-23030545D01*
X75857568Y-23246306D01*
X75943044Y-23452665D01*
X75943051Y-23452679D01*
X76054732Y-23646116D01*
X76054743Y-23646133D01*
X76064342Y-23658642D01*
X76064343Y-23658642D01*
X76889814Y-22833172D01*
X76915489Y-22928991D01*
X76994481Y-23065808D01*
X77106192Y-23177519D01*
X77243009Y-23256511D01*
X77338826Y-23282185D01*
X76513356Y-24107654D01*
X76513356Y-24107655D01*
X76525880Y-24117265D01*
X76719320Y-24228948D01*
X76719334Y-24228955D01*
X76925693Y-24314431D01*
X77141454Y-24372244D01*
X77362904Y-24401398D01*
X77362921Y-24401400D01*
X77586279Y-24401400D01*
X77586295Y-24401398D01*
X77807745Y-24372244D01*
X78023506Y-24314431D01*
X78229865Y-24228955D01*
X78229880Y-24228948D01*
X78423315Y-24117269D01*
X78423318Y-24117266D01*
X78435843Y-24107655D01*
X78435843Y-24107654D01*
X77610374Y-23282185D01*
X77706191Y-23256511D01*
X77843008Y-23177519D01*
X77954719Y-23065808D01*
X78033711Y-22928991D01*
X78059385Y-22833173D01*
X78884854Y-23658643D01*
X78884855Y-23658643D01*
X78894466Y-23646118D01*
X78894469Y-23646115D01*
X79006148Y-23452680D01*
X79006155Y-23452665D01*
X79091631Y-23246306D01*
X79149444Y-23030545D01*
X79178598Y-22809095D01*
X79178600Y-22809079D01*
X79178600Y-22585720D01*
X79178598Y-22585704D01*
X79149444Y-22364254D01*
X79091631Y-22148493D01*
X79006155Y-21942134D01*
X79006148Y-21942120D01*
X78894465Y-21748680D01*
X78884855Y-21736156D01*
X78884854Y-21736156D01*
X78059385Y-22561625D01*
X78033711Y-22465809D01*
X77954719Y-22328992D01*
X77843008Y-22217281D01*
X77706191Y-22138289D01*
X77610372Y-22112614D01*
X78435842Y-21287143D01*
X78435842Y-21287142D01*
X78423333Y-21277543D01*
X78423316Y-21277532D01*
X78229879Y-21165851D01*
X78229865Y-21165844D01*
X78023506Y-21080368D01*
X77807745Y-21022555D01*
X77586295Y-20993401D01*
X77586279Y-20993400D01*
X77362921Y-20993400D01*
X77362904Y-20993401D01*
X77141454Y-21022555D01*
X76925693Y-21080368D01*
X76719334Y-21165844D01*
X76719319Y-21165851D01*
X76525878Y-21277535D01*
X76513355Y-21287142D01*
X77338827Y-22112614D01*
X77243009Y-22138289D01*
X77106192Y-22217281D01*
X76994481Y-22328992D01*
X76915489Y-22465809D01*
X76889814Y-22561627D01*
X76064342Y-21736155D01*
X76054735Y-21748678D01*
X75943051Y-21942119D01*
X75943044Y-21942134D01*
X75857568Y-22148493D01*
X75799755Y-22364254D01*
X75770601Y-22585704D01*
X75770600Y-22585720D01*
X73129900Y-22585720D01*
X73129900Y-22582352D01*
X73099866Y-22354223D01*
X73040313Y-22131967D01*
X72952258Y-21919385D01*
X72837210Y-21720115D01*
X72697136Y-21537567D01*
X72697131Y-21537561D01*
X72534438Y-21374868D01*
X72534431Y-21374862D01*
X72351884Y-21234789D01*
X72152618Y-21119743D01*
X72152608Y-21119739D01*
X71940031Y-21031686D01*
X71805656Y-20995681D01*
X71717777Y-20972134D01*
X71679651Y-20967114D01*
X71489655Y-20942100D01*
X71489648Y-20942100D01*
X71259552Y-20942100D01*
X71259544Y-20942100D01*
X71050906Y-20969569D01*
X71031423Y-20972134D01*
X70985048Y-20984560D01*
X70809168Y-21031686D01*
X70596591Y-21119739D01*
X70596581Y-21119743D01*
X70397315Y-21234789D01*
X70214768Y-21374862D01*
X70214761Y-21374868D01*
X70052068Y-21537561D01*
X70052062Y-21537568D01*
X69911989Y-21720115D01*
X69796943Y-21919381D01*
X69796939Y-21919391D01*
X69708886Y-22131968D01*
X69649335Y-22354220D01*
X69649333Y-22354231D01*
X69619300Y-22582344D01*
X69619300Y-22812455D01*
X69634643Y-22928991D01*
X69649334Y-23040577D01*
X69649335Y-23040579D01*
X69708886Y-23262831D01*
X69796939Y-23475408D01*
X69796943Y-23475418D01*
X69911989Y-23674684D01*
X70052062Y-23857231D01*
X70052068Y-23857238D01*
X70214761Y-24019931D01*
X70214768Y-24019937D01*
X70397315Y-24160010D01*
X70596581Y-24275056D01*
X70596582Y-24275056D01*
X70596585Y-24275058D01*
X70809167Y-24363113D01*
X71031423Y-24422666D01*
X71259552Y-24452700D01*
X71259559Y-24452700D01*
X71489641Y-24452700D01*
X71489648Y-24452700D01*
X71717777Y-24422666D01*
X71940033Y-24363113D01*
X72152615Y-24275058D01*
X72162713Y-24269227D01*
X72230610Y-24252750D01*
X72296639Y-24275597D01*
X72312401Y-24288929D01*
X74802177Y-26778704D01*
X74835662Y-26840027D01*
X74837435Y-26850199D01*
X74839740Y-26867703D01*
X74849334Y-26940577D01*
X74866409Y-27004301D01*
X74908886Y-27162831D01*
X74996939Y-27375408D01*
X74996943Y-27375418D01*
X75111989Y-27574684D01*
X75252062Y-27757231D01*
X75252068Y-27757238D01*
X75414761Y-27919931D01*
X75414768Y-27919937D01*
X75597315Y-28060010D01*
X75796581Y-28175056D01*
X75796582Y-28175056D01*
X75796585Y-28175058D01*
X76009167Y-28263113D01*
X76231423Y-28322666D01*
X76459552Y-28352700D01*
X76459559Y-28352700D01*
X76689641Y-28352700D01*
X76689648Y-28352700D01*
X76917777Y-28322666D01*
X77140033Y-28263113D01*
X77352615Y-28175058D01*
X77551885Y-28060010D01*
X77734433Y-27919936D01*
X77897136Y-27757233D01*
X78037210Y-27574685D01*
X78152258Y-27375415D01*
X78232189Y-27182445D01*
X78276029Y-27128044D01*
X78342323Y-27105979D01*
X78346749Y-27105900D01*
X79285943Y-27105900D01*
X79285945Y-27105900D01*
X79415274Y-27071247D01*
X79531227Y-27004301D01*
X80053184Y-26482344D01*
X95669300Y-26482344D01*
X95669300Y-26712455D01*
X95686096Y-26840027D01*
X95699334Y-26940577D01*
X95716409Y-27004301D01*
X95758886Y-27162831D01*
X95846939Y-27375408D01*
X95846943Y-27375418D01*
X95961989Y-27574684D01*
X96102062Y-27757231D01*
X96102068Y-27757238D01*
X96264761Y-27919931D01*
X96264768Y-27919937D01*
X96447315Y-28060010D01*
X96646581Y-28175056D01*
X96646582Y-28175056D01*
X96646585Y-28175058D01*
X96859167Y-28263113D01*
X97081423Y-28322666D01*
X97309552Y-28352700D01*
X97309559Y-28352700D01*
X97539641Y-28352700D01*
X97539648Y-28352700D01*
X97767777Y-28322666D01*
X97990033Y-28263113D01*
X98202615Y-28175058D01*
X98401885Y-28060010D01*
X98584433Y-27919936D01*
X98747136Y-27757233D01*
X98887210Y-27574685D01*
X99002258Y-27375415D01*
X99090313Y-27162833D01*
X99149866Y-26940577D01*
X99179900Y-26712448D01*
X99179900Y-26482352D01*
X99149866Y-26254223D01*
X99090313Y-26031967D01*
X99002258Y-25819385D01*
X98887210Y-25620115D01*
X98820823Y-25533598D01*
X98747137Y-25437568D01*
X98747131Y-25437561D01*
X98584438Y-25274868D01*
X98584431Y-25274862D01*
X98401884Y-25134789D01*
X98202618Y-25019743D01*
X98202608Y-25019739D01*
X97990031Y-24931686D01*
X97878905Y-24901910D01*
X97767777Y-24872134D01*
X97729651Y-24867114D01*
X97539655Y-24842100D01*
X97539648Y-24842100D01*
X97309552Y-24842100D01*
X97309544Y-24842100D01*
X97092404Y-24870688D01*
X97081423Y-24872134D01*
X97034451Y-24884719D01*
X96859168Y-24931686D01*
X96646591Y-25019739D01*
X96646581Y-25019743D01*
X96447315Y-25134789D01*
X96264768Y-25274862D01*
X96264761Y-25274868D01*
X96102068Y-25437561D01*
X96102062Y-25437568D01*
X95961989Y-25620115D01*
X95846943Y-25819381D01*
X95846939Y-25819391D01*
X95758886Y-26031968D01*
X95699335Y-26254220D01*
X95699333Y-26254231D01*
X95669300Y-26482344D01*
X80053184Y-26482344D01*
X81813901Y-24721627D01*
X81880847Y-24605674D01*
X81903869Y-24519753D01*
X81915500Y-24476345D01*
X81915500Y-22582344D01*
X92569300Y-22582344D01*
X92569300Y-22812455D01*
X92584643Y-22928991D01*
X92599334Y-23040577D01*
X92599335Y-23040579D01*
X92658886Y-23262831D01*
X92746939Y-23475408D01*
X92746943Y-23475418D01*
X92861989Y-23674684D01*
X93002062Y-23857231D01*
X93002068Y-23857238D01*
X93164761Y-24019931D01*
X93164768Y-24019937D01*
X93347315Y-24160010D01*
X93546581Y-24275056D01*
X93546582Y-24275056D01*
X93546585Y-24275058D01*
X93759167Y-24363113D01*
X93981423Y-24422666D01*
X94209552Y-24452700D01*
X94209559Y-24452700D01*
X94439641Y-24452700D01*
X94439648Y-24452700D01*
X94667777Y-24422666D01*
X94890033Y-24363113D01*
X95102615Y-24275058D01*
X95301885Y-24160010D01*
X95484433Y-24019936D01*
X95647136Y-23857233D01*
X95787210Y-23674685D01*
X95902258Y-23475415D01*
X95990313Y-23262833D01*
X96049866Y-23040577D01*
X96079900Y-22812448D01*
X96079900Y-22582352D01*
X96049866Y-22354223D01*
X95990313Y-22131967D01*
X95902258Y-21919385D01*
X95787210Y-21720115D01*
X95647136Y-21537567D01*
X95647131Y-21537561D01*
X95484438Y-21374868D01*
X95484431Y-21374862D01*
X95301884Y-21234789D01*
X95102618Y-21119743D01*
X95102608Y-21119739D01*
X94890031Y-21031686D01*
X94755656Y-20995681D01*
X94667777Y-20972134D01*
X94629651Y-20967114D01*
X94439655Y-20942100D01*
X94439648Y-20942100D01*
X94209552Y-20942100D01*
X94209544Y-20942100D01*
X94000906Y-20969569D01*
X93981423Y-20972134D01*
X93935048Y-20984560D01*
X93759168Y-21031686D01*
X93546591Y-21119739D01*
X93546581Y-21119743D01*
X93347315Y-21234789D01*
X93164768Y-21374862D01*
X93164761Y-21374868D01*
X93002068Y-21537561D01*
X93002062Y-21537568D01*
X92861989Y-21720115D01*
X92746943Y-21919381D01*
X92746939Y-21919391D01*
X92658886Y-22131968D01*
X92599335Y-22354220D01*
X92599333Y-22354231D01*
X92569300Y-22582344D01*
X81915500Y-22582344D01*
X81915500Y-15982344D01*
X89469300Y-15982344D01*
X89469300Y-16212455D01*
X89494314Y-16402451D01*
X89499334Y-16440577D01*
X89499335Y-16440579D01*
X89558886Y-16662831D01*
X89646939Y-16875408D01*
X89646943Y-16875418D01*
X89761989Y-17074684D01*
X89902062Y-17257231D01*
X89902068Y-17257238D01*
X90064761Y-17419931D01*
X90064768Y-17419937D01*
X90247315Y-17560010D01*
X90446581Y-17675056D01*
X90446582Y-17675056D01*
X90446585Y-17675058D01*
X90659167Y-17763113D01*
X90881423Y-17822666D01*
X91109552Y-17852700D01*
X91109559Y-17852700D01*
X91339641Y-17852700D01*
X91339648Y-17852700D01*
X91567777Y-17822666D01*
X91790033Y-17763113D01*
X92002615Y-17675058D01*
X92201885Y-17560010D01*
X92384433Y-17419936D01*
X92547136Y-17257233D01*
X92687210Y-17074685D01*
X92802258Y-16875415D01*
X92890313Y-16662833D01*
X92949866Y-16440577D01*
X92979900Y-16212448D01*
X92979900Y-15982352D01*
X92979899Y-15982344D01*
X95669300Y-15982344D01*
X95669300Y-16212455D01*
X95694314Y-16402451D01*
X95699334Y-16440577D01*
X95699335Y-16440579D01*
X95758886Y-16662831D01*
X95846939Y-16875408D01*
X95846943Y-16875418D01*
X95961989Y-17074684D01*
X96102062Y-17257231D01*
X96102068Y-17257238D01*
X96264761Y-17419931D01*
X96264768Y-17419937D01*
X96447315Y-17560010D01*
X96646581Y-17675056D01*
X96646582Y-17675056D01*
X96646585Y-17675058D01*
X96859167Y-17763113D01*
X97081423Y-17822666D01*
X97309552Y-17852700D01*
X97309559Y-17852700D01*
X97539641Y-17852700D01*
X97539648Y-17852700D01*
X97767777Y-17822666D01*
X97990033Y-17763113D01*
X98202615Y-17675058D01*
X98401885Y-17560010D01*
X98584433Y-17419936D01*
X98747136Y-17257233D01*
X98887210Y-17074685D01*
X99002258Y-16875415D01*
X99090313Y-16662833D01*
X99149866Y-16440577D01*
X99179900Y-16212448D01*
X99179900Y-15982352D01*
X99149866Y-15754223D01*
X99090313Y-15531967D01*
X99002258Y-15319385D01*
X98887210Y-15120115D01*
X98747136Y-14937567D01*
X98747131Y-14937561D01*
X98584438Y-14774868D01*
X98584431Y-14774862D01*
X98401884Y-14634789D01*
X98202618Y-14519743D01*
X98202608Y-14519739D01*
X97990031Y-14431686D01*
X97878905Y-14401910D01*
X97767777Y-14372134D01*
X97729651Y-14367114D01*
X97539655Y-14342100D01*
X97539648Y-14342100D01*
X97309552Y-14342100D01*
X97309544Y-14342100D01*
X97092404Y-14370688D01*
X97081423Y-14372134D01*
X97034451Y-14384719D01*
X96859168Y-14431686D01*
X96646591Y-14519739D01*
X96646581Y-14519743D01*
X96447315Y-14634789D01*
X96264768Y-14774862D01*
X96264761Y-14774868D01*
X96102068Y-14937561D01*
X96102062Y-14937568D01*
X95961989Y-15120115D01*
X95846943Y-15319381D01*
X95846939Y-15319391D01*
X95758886Y-15531968D01*
X95699335Y-15754220D01*
X95699333Y-15754231D01*
X95669300Y-15982344D01*
X92979899Y-15982344D01*
X92949866Y-15754223D01*
X92890313Y-15531967D01*
X92802258Y-15319385D01*
X92687210Y-15120115D01*
X92547136Y-14937567D01*
X92547131Y-14937561D01*
X92384438Y-14774868D01*
X92384431Y-14774862D01*
X92201884Y-14634789D01*
X92002618Y-14519743D01*
X92002608Y-14519739D01*
X91790031Y-14431686D01*
X91678905Y-14401910D01*
X91567777Y-14372134D01*
X91529651Y-14367114D01*
X91339655Y-14342100D01*
X91339648Y-14342100D01*
X91109552Y-14342100D01*
X91109544Y-14342100D01*
X90892404Y-14370688D01*
X90881423Y-14372134D01*
X90834451Y-14384719D01*
X90659168Y-14431686D01*
X90446591Y-14519739D01*
X90446581Y-14519743D01*
X90247315Y-14634789D01*
X90064768Y-14774862D01*
X90064761Y-14774868D01*
X89902068Y-14937561D01*
X89902062Y-14937568D01*
X89761989Y-15120115D01*
X89646943Y-15319381D01*
X89646939Y-15319391D01*
X89558886Y-15531968D01*
X89499335Y-15754220D01*
X89499333Y-15754231D01*
X89469300Y-15982344D01*
X81915500Y-15982344D01*
X81915500Y-11289810D01*
X81935185Y-11222771D01*
X81970607Y-11186709D01*
X82072441Y-11118667D01*
X82212467Y-10978641D01*
X82322485Y-10813988D01*
X82388216Y-10655300D01*
X83070511Y-10655300D01*
X83126174Y-10789686D01*
X83126176Y-10789689D01*
X83230576Y-10945935D01*
X83230582Y-10945943D01*
X83363456Y-11078817D01*
X83363464Y-11078823D01*
X83519710Y-11183223D01*
X83519713Y-11183225D01*
X83654099Y-11238889D01*
X83654100Y-11238889D01*
X84289100Y-11238889D01*
X84423486Y-11183225D01*
X84423489Y-11183223D01*
X84579735Y-11078823D01*
X84579743Y-11078817D01*
X84712617Y-10945943D01*
X84712623Y-10945935D01*
X84817023Y-10789689D01*
X84817025Y-10789686D01*
X84872689Y-10655300D01*
X87796511Y-10655300D01*
X87852174Y-10789686D01*
X87852176Y-10789689D01*
X87956576Y-10945935D01*
X87956582Y-10945943D01*
X88089456Y-11078817D01*
X88089464Y-11078823D01*
X88245710Y-11183223D01*
X88245713Y-11183225D01*
X88380100Y-11238889D01*
X89015100Y-11238889D01*
X89149486Y-11183225D01*
X89149489Y-11183223D01*
X89305735Y-11078823D01*
X89305743Y-11078817D01*
X89438617Y-10945943D01*
X89438623Y-10945935D01*
X89543023Y-10789689D01*
X89543025Y-10789686D01*
X89598689Y-10655300D01*
X89015100Y-10655300D01*
X89015100Y-11238889D01*
X88380100Y-11238889D01*
X88380100Y-10655300D01*
X87796511Y-10655300D01*
X84872689Y-10655300D01*
X84289100Y-10655300D01*
X84289100Y-11238889D01*
X83654100Y-11238889D01*
X83654100Y-10655300D01*
X83070511Y-10655300D01*
X82388216Y-10655300D01*
X82398267Y-10631035D01*
X82436900Y-10436813D01*
X82436900Y-10291722D01*
X83621600Y-10291722D01*
X83621600Y-10383878D01*
X83645452Y-10472895D01*
X83691530Y-10552705D01*
X83756695Y-10617870D01*
X83836505Y-10663948D01*
X83925522Y-10687800D01*
X84017678Y-10687800D01*
X84106695Y-10663948D01*
X84186505Y-10617870D01*
X84251670Y-10552705D01*
X84297748Y-10472895D01*
X84321600Y-10383878D01*
X84321600Y-10291722D01*
X88347600Y-10291722D01*
X88347600Y-10383878D01*
X88371452Y-10472895D01*
X88417530Y-10552705D01*
X88482695Y-10617870D01*
X88562505Y-10663948D01*
X88651522Y-10687800D01*
X88743678Y-10687800D01*
X88832695Y-10663948D01*
X88912505Y-10617870D01*
X88977670Y-10552705D01*
X89023748Y-10472895D01*
X89047600Y-10383878D01*
X89047600Y-10291722D01*
X89033415Y-10238782D01*
X90232300Y-10238782D01*
X90232300Y-10436817D01*
X90270931Y-10631027D01*
X90270933Y-10631035D01*
X90346713Y-10813985D01*
X90346718Y-10813994D01*
X90456732Y-10978640D01*
X90456735Y-10978644D01*
X90596755Y-11118664D01*
X90596759Y-11118667D01*
X90761405Y-11228681D01*
X90761414Y-11228686D01*
X90790790Y-11240854D01*
X90944365Y-11304467D01*
X91086393Y-11332718D01*
X91138582Y-11343099D01*
X91138586Y-11343100D01*
X91138587Y-11343100D01*
X91336614Y-11343100D01*
X91336615Y-11343099D01*
X91530835Y-11304467D01*
X91713788Y-11228685D01*
X91878441Y-11118667D01*
X92018467Y-10978641D01*
X92128485Y-10813988D01*
X92194216Y-10655300D01*
X97142911Y-10655300D01*
X97198574Y-10789686D01*
X97198576Y-10789689D01*
X97302976Y-10945935D01*
X97302982Y-10945943D01*
X97435856Y-11078817D01*
X97435864Y-11078823D01*
X97592110Y-11183223D01*
X97592113Y-11183225D01*
X97726499Y-11238889D01*
X97726500Y-11238889D01*
X98361500Y-11238889D01*
X98495886Y-11183225D01*
X98495889Y-11183223D01*
X98652135Y-11078823D01*
X98652143Y-11078817D01*
X98785017Y-10945943D01*
X98785023Y-10945935D01*
X98889423Y-10789689D01*
X98889425Y-10789686D01*
X98945089Y-10655300D01*
X98361500Y-10655300D01*
X98361500Y-11238889D01*
X97726500Y-11238889D01*
X97726500Y-10655300D01*
X97142911Y-10655300D01*
X92194216Y-10655300D01*
X92204267Y-10631035D01*
X92242900Y-10436813D01*
X92242900Y-10291722D01*
X97694000Y-10291722D01*
X97694000Y-10383878D01*
X97717852Y-10472895D01*
X97763930Y-10552705D01*
X97829095Y-10617870D01*
X97908905Y-10663948D01*
X97997922Y-10687800D01*
X98090078Y-10687800D01*
X98179095Y-10663948D01*
X98258905Y-10617870D01*
X98324070Y-10552705D01*
X98370148Y-10472895D01*
X98394000Y-10383878D01*
X98394000Y-10291722D01*
X98370148Y-10202705D01*
X98324070Y-10122895D01*
X98258905Y-10057730D01*
X98194074Y-10020300D01*
X98361500Y-10020300D01*
X98945089Y-10020300D01*
X98945089Y-10020299D01*
X98889425Y-9885913D01*
X98889423Y-9885910D01*
X98785023Y-9729664D01*
X98785017Y-9729656D01*
X98652143Y-9596782D01*
X98652139Y-9596779D01*
X98495894Y-9492379D01*
X98495884Y-9492374D01*
X98361500Y-9436710D01*
X98361500Y-10020300D01*
X98194074Y-10020300D01*
X98179095Y-10011652D01*
X98090078Y-9987800D01*
X97997922Y-9987800D01*
X97908905Y-10011652D01*
X97829095Y-10057730D01*
X97763930Y-10122895D01*
X97717852Y-10202705D01*
X97694000Y-10291722D01*
X92242900Y-10291722D01*
X92242900Y-10238787D01*
X92219166Y-10119467D01*
X92206995Y-10058278D01*
X92206993Y-10058272D01*
X92204267Y-10044565D01*
X92194216Y-10020299D01*
X97142910Y-10020299D01*
X97142911Y-10020300D01*
X97726500Y-10020300D01*
X97726500Y-9436710D01*
X97726499Y-9436710D01*
X97592115Y-9492374D01*
X97592105Y-9492379D01*
X97435860Y-9596779D01*
X97435856Y-9596782D01*
X97302982Y-9729656D01*
X97302976Y-9729664D01*
X97198576Y-9885910D01*
X97198574Y-9885913D01*
X97142910Y-10020299D01*
X92194216Y-10020299D01*
X92128485Y-9861612D01*
X92128484Y-9861611D01*
X92128481Y-9861605D01*
X92018467Y-9696959D01*
X92018464Y-9696955D01*
X91878444Y-9556935D01*
X91878440Y-9556932D01*
X91713794Y-9446918D01*
X91713785Y-9446913D01*
X91530835Y-9371133D01*
X91530827Y-9371131D01*
X91336617Y-9332500D01*
X91336613Y-9332500D01*
X91138587Y-9332500D01*
X91138582Y-9332500D01*
X90944372Y-9371131D01*
X90944364Y-9371133D01*
X90761414Y-9446913D01*
X90761405Y-9446918D01*
X90596759Y-9556932D01*
X90596755Y-9556935D01*
X90456735Y-9696955D01*
X90456732Y-9696959D01*
X90346718Y-9861605D01*
X90346713Y-9861614D01*
X90270933Y-10044564D01*
X90270931Y-10044572D01*
X90232300Y-10238782D01*
X89033415Y-10238782D01*
X89023748Y-10202705D01*
X88977670Y-10122895D01*
X88912505Y-10057730D01*
X88847674Y-10020300D01*
X89015100Y-10020300D01*
X89598689Y-10020300D01*
X89598689Y-10020299D01*
X89543025Y-9885913D01*
X89543023Y-9885910D01*
X89438623Y-9729664D01*
X89438617Y-9729656D01*
X89305743Y-9596782D01*
X89305739Y-9596779D01*
X89149494Y-9492379D01*
X89149484Y-9492374D01*
X89015100Y-9436710D01*
X89015100Y-10020300D01*
X88847674Y-10020300D01*
X88832695Y-10011652D01*
X88743678Y-9987800D01*
X88651522Y-9987800D01*
X88562505Y-10011652D01*
X88482695Y-10057730D01*
X88417530Y-10122895D01*
X88371452Y-10202705D01*
X88347600Y-10291722D01*
X84321600Y-10291722D01*
X84297748Y-10202705D01*
X84251670Y-10122895D01*
X84186505Y-10057730D01*
X84121674Y-10020300D01*
X84289100Y-10020300D01*
X84872689Y-10020300D01*
X84872689Y-10020299D01*
X87796510Y-10020299D01*
X87796511Y-10020300D01*
X88380100Y-10020300D01*
X88380100Y-9436710D01*
X88380099Y-9436710D01*
X88245715Y-9492374D01*
X88245705Y-9492379D01*
X88089460Y-9596779D01*
X88089456Y-9596782D01*
X87956582Y-9729656D01*
X87956576Y-9729664D01*
X87852176Y-9885910D01*
X87852174Y-9885913D01*
X87796510Y-10020299D01*
X84872689Y-10020299D01*
X84817025Y-9885913D01*
X84817023Y-9885910D01*
X84712623Y-9729664D01*
X84712617Y-9729656D01*
X84579743Y-9596782D01*
X84579739Y-9596779D01*
X84423494Y-9492379D01*
X84423484Y-9492374D01*
X84289100Y-9436710D01*
X84289100Y-10020300D01*
X84121674Y-10020300D01*
X84106695Y-10011652D01*
X84017678Y-9987800D01*
X83925522Y-9987800D01*
X83836505Y-10011652D01*
X83756695Y-10057730D01*
X83691530Y-10122895D01*
X83645452Y-10202705D01*
X83621600Y-10291722D01*
X82436900Y-10291722D01*
X82436900Y-10238787D01*
X82398267Y-10044565D01*
X82388216Y-10020299D01*
X83070510Y-10020299D01*
X83070511Y-10020300D01*
X83654100Y-10020300D01*
X83654100Y-9436710D01*
X83654099Y-9436710D01*
X83519715Y-9492374D01*
X83519705Y-9492379D01*
X83363460Y-9596779D01*
X83363456Y-9596782D01*
X83230582Y-9729656D01*
X83230576Y-9729664D01*
X83126176Y-9885910D01*
X83126174Y-9885913D01*
X83070510Y-10020299D01*
X82388216Y-10020299D01*
X82322485Y-9861612D01*
X82322484Y-9861611D01*
X82322481Y-9861605D01*
X82212467Y-9696959D01*
X82212464Y-9696955D01*
X82072444Y-9556935D01*
X82072440Y-9556932D01*
X81982718Y-9496981D01*
X81937913Y-9443368D01*
X81929206Y-9374043D01*
X81959361Y-9311016D01*
X81963909Y-9306217D01*
X83276701Y-7993426D01*
X83294559Y-7962495D01*
X83343647Y-7877474D01*
X83378300Y-7748145D01*
X83378300Y-6557400D01*
X83397985Y-6490361D01*
X83446006Y-6446915D01*
X83449104Y-6445337D01*
X83589855Y-6343076D01*
X83712876Y-6220055D01*
X83815137Y-6079304D01*
X83894122Y-5924288D01*
X83947884Y-5758825D01*
X83975100Y-5586994D01*
X83975100Y-5413005D01*
X83947884Y-5241174D01*
X83934945Y-5201354D01*
X83894122Y-5075712D01*
X83815137Y-4920696D01*
X83771630Y-4860813D01*
X83712277Y-4779119D01*
X83688797Y-4713312D01*
X83704623Y-4645259D01*
X83754729Y-4596564D01*
X83762480Y-4592813D01*
X83845325Y-4556234D01*
X83926034Y-4475525D01*
X83972138Y-4371109D01*
X83975100Y-4345579D01*
X83975099Y-2654422D01*
X83975099Y-2654419D01*
X90634300Y-2654419D01*
X90634300Y-4345571D01*
X90634302Y-4345594D01*
X90637261Y-4371106D01*
X90637262Y-4371109D01*
X90683365Y-4475524D01*
X90683366Y-4475525D01*
X90764075Y-4556234D01*
X90818140Y-4580106D01*
X90846891Y-4592801D01*
X90900267Y-4637887D01*
X90920794Y-4704673D01*
X90901956Y-4771955D01*
X90897123Y-4779120D01*
X90794262Y-4920696D01*
X90715279Y-5075709D01*
X90661515Y-5241174D01*
X90634300Y-5413005D01*
X90634300Y-5586994D01*
X90661515Y-5758825D01*
X90701335Y-5881376D01*
X90715278Y-5924288D01*
X90785858Y-6062809D01*
X90794265Y-6079307D01*
X90896518Y-6220048D01*
X90896522Y-6220053D01*
X91019546Y-6343077D01*
X91019551Y-6343081D01*
X91142312Y-6432271D01*
X91160296Y-6445337D01*
X91315312Y-6524322D01*
X91431021Y-6561918D01*
X91480774Y-6578084D01*
X91652606Y-6605300D01*
X91652611Y-6605300D01*
X91826594Y-6605300D01*
X91998425Y-6578084D01*
X92163888Y-6524322D01*
X92318904Y-6445337D01*
X92459655Y-6343076D01*
X92582676Y-6220055D01*
X92684937Y-6079304D01*
X92763922Y-5924288D01*
X92817684Y-5758825D01*
X92844900Y-5586994D01*
X92844900Y-5413005D01*
X92817684Y-5241174D01*
X92804745Y-5201354D01*
X92763922Y-5075712D01*
X92684937Y-4920696D01*
X92641430Y-4860813D01*
X92582077Y-4779119D01*
X92558597Y-4713312D01*
X92574423Y-4645259D01*
X92624529Y-4596564D01*
X92632280Y-4592813D01*
X92715125Y-4556234D01*
X92795834Y-4475525D01*
X92841938Y-4371109D01*
X92844900Y-4345579D01*
X92844899Y-2654422D01*
X92841938Y-2628891D01*
X92795834Y-2524475D01*
X92715125Y-2443766D01*
X92715123Y-2443765D01*
X92610710Y-2397662D01*
X92585179Y-2394700D01*
X90894028Y-2394700D01*
X90894005Y-2394702D01*
X90868493Y-2397661D01*
X90868490Y-2397662D01*
X90764075Y-2443765D01*
X90683366Y-2524474D01*
X90637262Y-2628888D01*
X90637262Y-2628890D01*
X90634300Y-2654419D01*
X83975099Y-2654419D01*
X83975099Y-2654416D01*
X83972138Y-2628893D01*
X83972138Y-2628891D01*
X83926034Y-2524475D01*
X83845325Y-2443766D01*
X83845323Y-2443765D01*
X83740910Y-2397662D01*
X83715379Y-2394700D01*
X82024228Y-2394700D01*
X82024205Y-2394702D01*
X81998693Y-2397661D01*
X81998690Y-2397662D01*
X81894275Y-2443765D01*
X81813566Y-2524474D01*
X81767462Y-2628888D01*
X81767462Y-2628890D01*
X81764500Y-2654419D01*
X81764500Y-2923500D01*
X81744815Y-2990539D01*
X81692011Y-3036294D01*
X81640500Y-3047500D01*
X80806655Y-3047500D01*
X80677324Y-3082153D01*
X80561373Y-3149099D01*
X80561370Y-3149101D01*
X76482891Y-7227581D01*
X76421568Y-7261066D01*
X76395210Y-7263900D01*
X64860964Y-7263900D01*
X64793925Y-7244215D01*
X64748170Y-7191411D01*
X64738226Y-7122253D01*
X64760646Y-7067014D01*
X64778442Y-7042519D01*
X64855546Y-6891196D01*
X64908031Y-6729666D01*
X64934600Y-6561918D01*
X64934600Y-6392081D01*
X64908031Y-6224333D01*
X64855547Y-6062809D01*
X64809390Y-5972220D01*
X64399560Y-6382049D01*
X64368118Y-6264708D01*
X64295710Y-6139292D01*
X64193308Y-6036890D01*
X64067892Y-5964482D01*
X63950548Y-5933039D01*
X64360378Y-5523208D01*
X64269796Y-5477053D01*
X64108266Y-5424568D01*
X63940518Y-5398000D01*
X63770682Y-5398000D01*
X63602932Y-5424569D01*
X63602929Y-5424569D01*
X63441410Y-5477050D01*
X63350821Y-5523208D01*
X63760652Y-5933039D01*
X63643308Y-5964482D01*
X63517892Y-6036890D01*
X63415490Y-6139292D01*
X63343082Y-6264708D01*
X63311639Y-6382052D01*
X62901808Y-5972221D01*
X62855650Y-6062810D01*
X62803169Y-6224329D01*
X62803169Y-6224332D01*
X62776600Y-6392081D01*
X62776600Y-6561918D01*
X62803168Y-6729666D01*
X62855653Y-6891196D01*
X62932757Y-7042519D01*
X62950554Y-7067014D01*
X62974034Y-7132820D01*
X62958209Y-7200874D01*
X62908104Y-7249569D01*
X62850236Y-7263900D01*
X62384375Y-7263900D01*
X62317336Y-7244215D01*
X62271581Y-7191411D01*
X62261637Y-7122253D01*
X62281074Y-7074359D01*
X62279773Y-7073562D01*
X62282314Y-7069414D01*
X62282315Y-7069410D01*
X62282319Y-7069406D01*
X62363090Y-6910885D01*
X62418068Y-6741679D01*
X62445900Y-6565957D01*
X62445900Y-6388043D01*
X62418068Y-6212321D01*
X62376538Y-6084504D01*
X62363091Y-6043117D01*
X62334959Y-5987905D01*
X62282319Y-5884594D01*
X62177744Y-5740659D01*
X62051941Y-5614856D01*
X61908006Y-5510281D01*
X61841003Y-5476140D01*
X61790208Y-5428165D01*
X61773300Y-5365656D01*
X61773300Y-2801989D01*
X61781944Y-2772548D01*
X61788468Y-2742562D01*
X61792222Y-2737546D01*
X61792985Y-2734950D01*
X61809619Y-2714308D01*
X61869508Y-2654419D01*
X72894700Y-2654419D01*
X72894700Y-4345571D01*
X72894702Y-4345594D01*
X72897661Y-4371106D01*
X72897662Y-4371109D01*
X72943765Y-4475524D01*
X72943766Y-4475525D01*
X73024475Y-4556234D01*
X73078540Y-4580106D01*
X73107291Y-4592801D01*
X73160667Y-4637887D01*
X73181194Y-4704673D01*
X73162356Y-4771955D01*
X73157523Y-4779120D01*
X73054662Y-4920696D01*
X72975679Y-5075709D01*
X72921915Y-5241174D01*
X72894700Y-5413005D01*
X72894700Y-5586994D01*
X72921915Y-5758825D01*
X72961735Y-5881376D01*
X72975678Y-5924288D01*
X73046258Y-6062809D01*
X73054665Y-6079307D01*
X73156918Y-6220048D01*
X73156922Y-6220053D01*
X73279946Y-6343077D01*
X73279951Y-6343081D01*
X73402712Y-6432271D01*
X73420696Y-6445337D01*
X73575712Y-6524322D01*
X73691421Y-6561918D01*
X73741174Y-6578084D01*
X73913006Y-6605300D01*
X73913011Y-6605300D01*
X74086994Y-6605300D01*
X74258825Y-6578084D01*
X74424288Y-6524322D01*
X74579304Y-6445337D01*
X74720055Y-6343076D01*
X74843076Y-6220055D01*
X74945337Y-6079304D01*
X75024322Y-5924288D01*
X75078084Y-5758825D01*
X75105300Y-5586994D01*
X75105300Y-5413005D01*
X75078084Y-5241174D01*
X75065145Y-5201354D01*
X75024322Y-5075712D01*
X74945337Y-4920696D01*
X74901830Y-4860813D01*
X74842477Y-4779119D01*
X74818997Y-4713312D01*
X74834823Y-4645259D01*
X74884929Y-4596564D01*
X74892680Y-4592813D01*
X74975525Y-4556234D01*
X75056234Y-4475525D01*
X75102338Y-4371109D01*
X75105300Y-4345579D01*
X75105299Y-2654422D01*
X75102338Y-2628891D01*
X75056234Y-2524475D01*
X74975525Y-2443766D01*
X74975523Y-2443765D01*
X74871110Y-2397662D01*
X74845579Y-2394700D01*
X73154428Y-2394700D01*
X73154405Y-2394702D01*
X73128893Y-2397661D01*
X73128890Y-2397662D01*
X73024475Y-2443765D01*
X72943766Y-2524474D01*
X72897662Y-2628888D01*
X72897662Y-2628890D01*
X72894700Y-2654419D01*
X61869508Y-2654419D01*
X63064708Y-1459219D01*
X63126031Y-1425734D01*
X63152389Y-1422900D01*
X95216610Y-1422900D01*
X95283649Y-1442585D01*
X95304291Y-1459219D01*
X97706373Y-3861301D01*
X97785354Y-3906901D01*
X97785355Y-3906902D01*
X97822320Y-3928244D01*
X97822321Y-3928244D01*
X97822326Y-3928247D01*
X97951655Y-3962900D01*
X99380101Y-3962900D01*
X99447140Y-3982585D01*
X99492895Y-4035389D01*
X99504101Y-4086900D01*
X99504101Y-4345571D01*
X99504102Y-4345594D01*
X99507061Y-4371106D01*
X99507062Y-4371109D01*
X99553165Y-4475524D01*
X99553166Y-4475525D01*
X99633875Y-4556234D01*
X99687940Y-4580106D01*
X99716691Y-4592801D01*
X99770067Y-4637887D01*
X99790594Y-4704673D01*
X99771756Y-4771955D01*
X99766923Y-4779120D01*
X99664062Y-4920696D01*
X99585079Y-5075709D01*
X99531315Y-5241174D01*
X99504100Y-5413005D01*
X99504100Y-5586994D01*
X99531315Y-5758825D01*
X99571135Y-5881376D01*
X99585078Y-5924288D01*
X99655658Y-6062809D01*
X99664065Y-6079307D01*
X99766318Y-6220048D01*
X99766322Y-6220053D01*
X99889346Y-6343077D01*
X99889351Y-6343081D01*
X100028332Y-6444056D01*
X100030096Y-6445337D01*
X100033193Y-6446915D01*
X100034155Y-6447823D01*
X100034244Y-6447878D01*
X100034232Y-6447896D01*
X100083988Y-6494885D01*
X100100900Y-6557400D01*
X100100900Y-9385253D01*
X100081215Y-9452292D01*
X100045791Y-9488355D01*
X99943159Y-9556932D01*
X99943155Y-9556935D01*
X99803135Y-9696955D01*
X99803132Y-9696959D01*
X99693118Y-9861605D01*
X99693113Y-9861614D01*
X99617333Y-10044564D01*
X99617331Y-10044572D01*
X99578700Y-10238782D01*
X99578700Y-10436817D01*
X99617331Y-10631027D01*
X99617333Y-10631035D01*
X99693113Y-10813985D01*
X99693118Y-10813994D01*
X99803132Y-10978640D01*
X99803135Y-10978644D01*
X99943156Y-11118665D01*
X99943159Y-11118667D01*
X100045791Y-11187243D01*
X100090596Y-11240854D01*
X100100900Y-11290345D01*
X100100900Y-20871766D01*
X100081215Y-20938805D01*
X100028411Y-20984560D01*
X100008994Y-20991541D01*
X99859166Y-21031687D01*
X99646591Y-21119739D01*
X99646581Y-21119743D01*
X99447315Y-21234789D01*
X99264768Y-21374862D01*
X99264761Y-21374868D01*
X99102068Y-21537561D01*
X99102062Y-21537568D01*
X98961989Y-21720115D01*
X98846943Y-21919381D01*
X98846939Y-21919391D01*
X98758886Y-22131968D01*
X98699335Y-22354220D01*
X98699333Y-22354231D01*
X98669300Y-22582344D01*
X98669300Y-22812455D01*
X98684643Y-22928991D01*
X98699334Y-23040577D01*
X98699335Y-23040579D01*
X98758886Y-23262831D01*
X98846939Y-23475408D01*
X98846943Y-23475418D01*
X98961989Y-23674684D01*
X99102062Y-23857231D01*
X99102068Y-23857238D01*
X99264761Y-24019931D01*
X99264768Y-24019937D01*
X99447315Y-24160010D01*
X99646581Y-24275056D01*
X99646582Y-24275056D01*
X99646585Y-24275058D01*
X99859167Y-24363113D01*
X100081423Y-24422666D01*
X100309552Y-24452700D01*
X100309559Y-24452700D01*
X100539641Y-24452700D01*
X100539648Y-24452700D01*
X100767777Y-24422666D01*
X100990033Y-24363113D01*
X101162778Y-24291558D01*
X101232246Y-24284090D01*
X101294725Y-24315365D01*
X101297911Y-24318439D01*
X103868257Y-26888785D01*
X103900350Y-26944371D01*
X103934347Y-27071247D01*
X103958887Y-27162833D01*
X104046939Y-27375408D01*
X104046943Y-27375418D01*
X104161989Y-27574684D01*
X104302062Y-27757231D01*
X104302068Y-27757238D01*
X104464761Y-27919931D01*
X104464768Y-27919937D01*
X104647315Y-28060010D01*
X104846581Y-28175056D01*
X104846582Y-28175056D01*
X104846585Y-28175058D01*
X105059167Y-28263113D01*
X105281423Y-28322666D01*
X105509552Y-28352700D01*
X105509559Y-28352700D01*
X105739641Y-28352700D01*
X105739648Y-28352700D01*
X105967777Y-28322666D01*
X106190033Y-28263113D01*
X106402615Y-28175058D01*
X106601885Y-28060010D01*
X106784433Y-27919936D01*
X106947136Y-27757233D01*
X107087210Y-27574685D01*
X107202258Y-27375415D01*
X107290313Y-27162833D01*
X107349866Y-26940577D01*
X107379900Y-26712448D01*
X107379900Y-26482352D01*
X107349866Y-26254223D01*
X107290313Y-26031967D01*
X107202258Y-25819385D01*
X107087210Y-25620115D01*
X107020823Y-25533598D01*
X106947137Y-25437568D01*
X106947131Y-25437561D01*
X106784438Y-25274868D01*
X106784431Y-25274862D01*
X106601884Y-25134789D01*
X106402618Y-25019743D01*
X106402608Y-25019739D01*
X106190031Y-24931686D01*
X106078905Y-24901910D01*
X105967777Y-24872134D01*
X105929651Y-24867114D01*
X105739655Y-24842100D01*
X105739648Y-24842100D01*
X105509552Y-24842100D01*
X105509544Y-24842100D01*
X105292404Y-24870688D01*
X105281423Y-24872134D01*
X105234451Y-24884719D01*
X105059168Y-24931686D01*
X104846591Y-25019739D01*
X104846581Y-25019743D01*
X104647315Y-25134789D01*
X104464768Y-25274862D01*
X104464761Y-25274868D01*
X104302068Y-25437561D01*
X104194164Y-25578185D01*
X104137736Y-25619387D01*
X104067990Y-25623542D01*
X104008107Y-25590379D01*
X102028885Y-23611157D01*
X101995400Y-23549834D01*
X102000384Y-23480142D01*
X102002005Y-23476023D01*
X102002256Y-23475418D01*
X102002258Y-23475415D01*
X102090313Y-23262833D01*
X102149866Y-23040577D01*
X102179900Y-22812448D01*
X102179900Y-22585720D01*
X104820600Y-22585720D01*
X104820600Y-22809079D01*
X104820601Y-22809095D01*
X104849755Y-23030545D01*
X104907568Y-23246306D01*
X104993044Y-23452665D01*
X104993051Y-23452679D01*
X105104732Y-23646116D01*
X105104743Y-23646133D01*
X105114342Y-23658642D01*
X105114343Y-23658642D01*
X105939814Y-22833172D01*
X105965489Y-22928991D01*
X106044481Y-23065808D01*
X106156192Y-23177519D01*
X106293009Y-23256511D01*
X106388826Y-23282185D01*
X105563356Y-24107654D01*
X105563356Y-24107655D01*
X105575880Y-24117265D01*
X105769320Y-24228948D01*
X105769334Y-24228955D01*
X105975693Y-24314431D01*
X106191454Y-24372244D01*
X106412904Y-24401398D01*
X106412921Y-24401400D01*
X106636279Y-24401400D01*
X106636295Y-24401398D01*
X106857745Y-24372244D01*
X107073506Y-24314431D01*
X107279865Y-24228955D01*
X107279880Y-24228948D01*
X107473315Y-24117269D01*
X107473318Y-24117266D01*
X107485843Y-24107655D01*
X107485843Y-24107654D01*
X106660374Y-23282185D01*
X106756191Y-23256511D01*
X106893008Y-23177519D01*
X107004719Y-23065808D01*
X107083711Y-22928991D01*
X107109385Y-22833173D01*
X107934854Y-23658643D01*
X107934855Y-23658643D01*
X107944466Y-23646118D01*
X107944469Y-23646115D01*
X108056148Y-23452680D01*
X108056155Y-23452665D01*
X108141631Y-23246306D01*
X108199444Y-23030545D01*
X108228598Y-22809095D01*
X108228600Y-22809079D01*
X108228600Y-22585720D01*
X108228598Y-22585704D01*
X108199444Y-22364254D01*
X108141631Y-22148493D01*
X108056155Y-21942134D01*
X108056148Y-21942120D01*
X107944465Y-21748680D01*
X107934855Y-21736156D01*
X107934854Y-21736156D01*
X107109385Y-22561625D01*
X107083711Y-22465809D01*
X107004719Y-22328992D01*
X106893008Y-22217281D01*
X106756191Y-22138289D01*
X106660372Y-22112614D01*
X107485842Y-21287143D01*
X107485842Y-21287142D01*
X107473333Y-21277543D01*
X107473316Y-21277532D01*
X107279879Y-21165851D01*
X107279865Y-21165844D01*
X107073506Y-21080368D01*
X106857745Y-21022555D01*
X106636295Y-20993401D01*
X106636279Y-20993400D01*
X106412921Y-20993400D01*
X106412904Y-20993401D01*
X106191454Y-21022555D01*
X105975693Y-21080368D01*
X105769334Y-21165844D01*
X105769319Y-21165851D01*
X105575878Y-21277535D01*
X105563355Y-21287142D01*
X106388827Y-22112614D01*
X106293009Y-22138289D01*
X106156192Y-22217281D01*
X106044481Y-22328992D01*
X105965489Y-22465809D01*
X105939814Y-22561626D01*
X105114342Y-21736155D01*
X105104735Y-21748678D01*
X104993051Y-21942119D01*
X104993044Y-21942134D01*
X104907568Y-22148493D01*
X104849755Y-22364254D01*
X104820601Y-22585704D01*
X104820600Y-22585720D01*
X102179900Y-22585720D01*
X102179900Y-22582352D01*
X102149866Y-22354223D01*
X102090313Y-22131967D01*
X102002258Y-21919385D01*
X101887210Y-21720115D01*
X101747136Y-21537567D01*
X101747131Y-21537561D01*
X101584438Y-21374868D01*
X101584431Y-21374862D01*
X101401884Y-21234789D01*
X101202625Y-21119747D01*
X101202618Y-21119744D01*
X101202615Y-21119742D01*
X101197894Y-21117786D01*
X101194439Y-21116355D01*
X101140039Y-21072510D01*
X101117979Y-21006214D01*
X101117900Y-21001797D01*
X101117900Y-15982344D01*
X101669300Y-15982344D01*
X101669300Y-16212455D01*
X101694314Y-16402451D01*
X101699334Y-16440577D01*
X101699335Y-16440579D01*
X101758886Y-16662831D01*
X101846939Y-16875408D01*
X101846943Y-16875418D01*
X101961989Y-17074684D01*
X102102062Y-17257231D01*
X102102068Y-17257238D01*
X102264761Y-17419931D01*
X102264768Y-17419937D01*
X102447315Y-17560010D01*
X102646581Y-17675056D01*
X102646582Y-17675056D01*
X102646585Y-17675058D01*
X102859167Y-17763113D01*
X103081423Y-17822666D01*
X103309552Y-17852700D01*
X103309559Y-17852700D01*
X103539641Y-17852700D01*
X103539648Y-17852700D01*
X103767777Y-17822666D01*
X103990033Y-17763113D01*
X104202615Y-17675058D01*
X104401885Y-17560010D01*
X104584433Y-17419936D01*
X104747136Y-17257233D01*
X104887210Y-17074685D01*
X105002258Y-16875415D01*
X105090313Y-16662833D01*
X105149866Y-16440577D01*
X105179900Y-16212448D01*
X105179900Y-15982352D01*
X105149866Y-15754223D01*
X105090313Y-15531967D01*
X105002258Y-15319385D01*
X104887210Y-15120115D01*
X104747136Y-14937567D01*
X104747131Y-14937561D01*
X104584438Y-14774868D01*
X104584431Y-14774862D01*
X104401884Y-14634789D01*
X104202618Y-14519743D01*
X104202608Y-14519739D01*
X103990031Y-14431686D01*
X103878905Y-14401910D01*
X103767777Y-14372134D01*
X103729651Y-14367114D01*
X103539655Y-14342100D01*
X103539648Y-14342100D01*
X103309552Y-14342100D01*
X103309544Y-14342100D01*
X103092404Y-14370688D01*
X103081423Y-14372134D01*
X103034451Y-14384719D01*
X102859168Y-14431686D01*
X102646591Y-14519739D01*
X102646581Y-14519743D01*
X102447315Y-14634789D01*
X102264768Y-14774862D01*
X102264761Y-14774868D01*
X102102068Y-14937561D01*
X102102062Y-14937568D01*
X101961989Y-15120115D01*
X101846943Y-15319381D01*
X101846939Y-15319391D01*
X101758886Y-15531968D01*
X101699335Y-15754220D01*
X101699333Y-15754231D01*
X101669300Y-15982344D01*
X101117900Y-15982344D01*
X101117900Y-11256401D01*
X101137585Y-11189362D01*
X101173007Y-11153301D01*
X101224841Y-11118667D01*
X101364867Y-10978641D01*
X101474885Y-10813988D01*
X101550667Y-10631035D01*
X101589300Y-10436813D01*
X101589300Y-10238787D01*
X101550667Y-10044565D01*
X101474885Y-9861612D01*
X101474884Y-9861611D01*
X101474881Y-9861605D01*
X101364867Y-9696959D01*
X101364864Y-9696955D01*
X101224844Y-9556935D01*
X101173008Y-9522299D01*
X101128204Y-9468686D01*
X101117900Y-9419197D01*
X101117900Y-6557400D01*
X101137585Y-6490361D01*
X101185606Y-6446915D01*
X101188704Y-6445337D01*
X101329455Y-6343076D01*
X101452476Y-6220055D01*
X101554737Y-6079304D01*
X101633722Y-5924288D01*
X101687484Y-5758825D01*
X101714700Y-5586994D01*
X101714700Y-5413005D01*
X101687484Y-5241174D01*
X101674545Y-5201354D01*
X101633722Y-5075712D01*
X101554737Y-4920696D01*
X101511230Y-4860813D01*
X101451877Y-4779119D01*
X101428397Y-4713312D01*
X101444223Y-4645259D01*
X101494329Y-4596564D01*
X101502080Y-4592813D01*
X101584925Y-4556234D01*
X101665634Y-4475525D01*
X101711738Y-4371109D01*
X101714700Y-4345579D01*
X101714699Y-2654422D01*
X101711738Y-2628891D01*
X101665634Y-2524475D01*
X101584925Y-2443766D01*
X101584923Y-2443765D01*
X101480510Y-2397662D01*
X101454979Y-2394700D01*
X99763828Y-2394700D01*
X99763805Y-2394702D01*
X99738293Y-2397661D01*
X99738290Y-2397662D01*
X99633875Y-2443765D01*
X99553166Y-2524474D01*
X99507062Y-2628888D01*
X99507062Y-2628890D01*
X99504100Y-2654419D01*
X99504100Y-2821900D01*
X99484415Y-2888939D01*
X99431611Y-2934694D01*
X99380100Y-2945900D01*
X98280590Y-2945900D01*
X98213551Y-2926215D01*
X98192909Y-2909581D01*
X95986109Y-702781D01*
X95952624Y-641458D01*
X95957608Y-571766D01*
X95999480Y-515833D01*
X96064944Y-491416D01*
X96073790Y-491100D01*
X108087074Y-491100D01*
X108154113Y-510785D01*
X108199868Y-563589D01*
X108209812Y-632747D01*
X108180787Y-696303D01*
X108134527Y-729661D01*
X107981810Y-792918D01*
X107981805Y-792920D01*
X107654061Y-968103D01*
X107654043Y-968114D01*
X107345045Y-1174580D01*
X107345031Y-1174590D01*
X107057744Y-1410360D01*
X106794960Y-1673144D01*
X106559190Y-1960431D01*
X106559180Y-1960445D01*
X106352714Y-2269443D01*
X106352703Y-2269461D01*
X106177520Y-2597205D01*
X106177518Y-2597210D01*
X106035294Y-2940568D01*
X105927411Y-3296211D01*
X105927408Y-3296222D01*
X105854904Y-3660719D01*
X105830659Y-3906901D01*
X105818478Y-4030577D01*
X105818478Y-4045277D01*
X105818478Y-4402223D01*
X105826210Y-4480725D01*
X105854904Y-4772080D01*
X105927408Y-5136577D01*
X105927411Y-5136588D01*
X106035294Y-5492231D01*
X106177518Y-5835589D01*
X106177520Y-5835594D01*
X106352703Y-6163338D01*
X106352714Y-6163356D01*
X106559180Y-6472354D01*
X106559190Y-6472368D01*
X106794960Y-6759655D01*
X107057744Y-7022439D01*
X107057749Y-7022443D01*
X107057750Y-7022444D01*
X107345037Y-7258214D01*
X107654050Y-7464690D01*
X107654059Y-7464695D01*
X107654061Y-7464696D01*
X107981805Y-7639879D01*
X107981807Y-7639879D01*
X107981813Y-7639883D01*
X108325170Y-7782106D01*
X108680814Y-7889990D01*
X109045319Y-7962495D01*
X109415177Y-7998922D01*
X109415180Y-7998922D01*
X109786820Y-7998922D01*
X109786823Y-7998922D01*
X110156681Y-7962495D01*
X110521186Y-7889990D01*
X110876830Y-7782106D01*
X111220187Y-7639883D01*
X111547950Y-7464690D01*
X111856963Y-7258214D01*
X112144250Y-7022444D01*
X112407044Y-6759650D01*
X112642814Y-6472363D01*
X112849290Y-6163350D01*
X113024483Y-5835587D01*
X113166706Y-5492230D01*
X113167639Y-5489153D01*
X113205936Y-5430715D01*
X113269748Y-5402258D01*
X113338815Y-5412817D01*
X113391209Y-5459041D01*
X113410300Y-5525148D01*
X113410300Y-37032100D01*
X113390615Y-37099139D01*
X113337811Y-37144894D01*
X113286300Y-37156100D01*
X624553Y-37156100D01*
X557514Y-37136415D01*
X511759Y-37083611D01*
X500553Y-37032100D01*
X500553Y-33995048D01*
X15974100Y-33995048D01*
X15974100Y-34199751D01*
X16006122Y-34401934D01*
X16069381Y-34596623D01*
X16162315Y-34779013D01*
X16282628Y-34944613D01*
X16427386Y-35089371D01*
X16582349Y-35201956D01*
X16592990Y-35209687D01*
X16709207Y-35268903D01*
X16775376Y-35302618D01*
X16775378Y-35302618D01*
X16775381Y-35302620D01*
X16879737Y-35336527D01*
X16970065Y-35365877D01*
X17071157Y-35381888D01*
X17172248Y-35397900D01*
X17172249Y-35397900D01*
X17376951Y-35397900D01*
X17376952Y-35397900D01*
X17579134Y-35365877D01*
X17773819Y-35302620D01*
X17956210Y-35209687D01*
X18049190Y-35142132D01*
X18121813Y-35089371D01*
X18121815Y-35089368D01*
X18121819Y-35089366D01*
X18266566Y-34944619D01*
X18266568Y-34944615D01*
X18266571Y-34944613D01*
X18319332Y-34871990D01*
X18386887Y-34779010D01*
X18479820Y-34596619D01*
X18543077Y-34401934D01*
X18575100Y-34199752D01*
X18575100Y-33995048D01*
X45024100Y-33995048D01*
X45024100Y-34199751D01*
X45056122Y-34401934D01*
X45119381Y-34596623D01*
X45212315Y-34779013D01*
X45332628Y-34944613D01*
X45477386Y-35089371D01*
X45632349Y-35201956D01*
X45642990Y-35209687D01*
X45759207Y-35268903D01*
X45825376Y-35302618D01*
X45825378Y-35302618D01*
X45825381Y-35302620D01*
X45929737Y-35336527D01*
X46020065Y-35365877D01*
X46121157Y-35381888D01*
X46222248Y-35397900D01*
X46222249Y-35397900D01*
X46426951Y-35397900D01*
X46426952Y-35397900D01*
X46629134Y-35365877D01*
X46823819Y-35302620D01*
X47006210Y-35209687D01*
X47099190Y-35142132D01*
X47171813Y-35089371D01*
X47171815Y-35089368D01*
X47171819Y-35089366D01*
X47316566Y-34944619D01*
X47316568Y-34944615D01*
X47316571Y-34944613D01*
X47369332Y-34871990D01*
X47436887Y-34779010D01*
X47529820Y-34596619D01*
X47593077Y-34401934D01*
X47625100Y-34199752D01*
X47625100Y-33995048D01*
X74074100Y-33995048D01*
X74074100Y-34199751D01*
X74106122Y-34401934D01*
X74169381Y-34596623D01*
X74262315Y-34779013D01*
X74382628Y-34944613D01*
X74527386Y-35089371D01*
X74682349Y-35201956D01*
X74692990Y-35209687D01*
X74809207Y-35268903D01*
X74875376Y-35302618D01*
X74875378Y-35302618D01*
X74875381Y-35302620D01*
X74979737Y-35336527D01*
X75070065Y-35365877D01*
X75171157Y-35381888D01*
X75272248Y-35397900D01*
X75272249Y-35397900D01*
X75476951Y-35397900D01*
X75476952Y-35397900D01*
X75679134Y-35365877D01*
X75873819Y-35302620D01*
X76056210Y-35209687D01*
X76149190Y-35142132D01*
X76221813Y-35089371D01*
X76221815Y-35089368D01*
X76221819Y-35089366D01*
X76366566Y-34944619D01*
X76366568Y-34944615D01*
X76366571Y-34944613D01*
X76419332Y-34871990D01*
X76486887Y-34779010D01*
X76579820Y-34596619D01*
X76643077Y-34401934D01*
X76675100Y-34199752D01*
X76675100Y-33995048D01*
X103124100Y-33995048D01*
X103124100Y-34199751D01*
X103156122Y-34401934D01*
X103219381Y-34596623D01*
X103312315Y-34779013D01*
X103432628Y-34944613D01*
X103577386Y-35089371D01*
X103732349Y-35201956D01*
X103742990Y-35209687D01*
X103859207Y-35268903D01*
X103925376Y-35302618D01*
X103925378Y-35302618D01*
X103925381Y-35302620D01*
X104029737Y-35336527D01*
X104120065Y-35365877D01*
X104221157Y-35381888D01*
X104322248Y-35397900D01*
X104322249Y-35397900D01*
X104526951Y-35397900D01*
X104526952Y-35397900D01*
X104729134Y-35365877D01*
X104923819Y-35302620D01*
X105106210Y-35209687D01*
X105199190Y-35142132D01*
X105271813Y-35089371D01*
X105271815Y-35089368D01*
X105271819Y-35089366D01*
X105416566Y-34944619D01*
X105416568Y-34944615D01*
X105416571Y-34944613D01*
X105469332Y-34871990D01*
X105536887Y-34779010D01*
X105629820Y-34596619D01*
X105693077Y-34401934D01*
X105725100Y-34199752D01*
X105725100Y-33995048D01*
X105693077Y-33792866D01*
X105629820Y-33598181D01*
X105629818Y-33598178D01*
X105629818Y-33598176D01*
X105596103Y-33532007D01*
X105536887Y-33415790D01*
X105529156Y-33405149D01*
X105416571Y-33250186D01*
X105271813Y-33105428D01*
X105106213Y-32985115D01*
X105106212Y-32985114D01*
X105106210Y-32985113D01*
X105049253Y-32956091D01*
X104923823Y-32892181D01*
X104729134Y-32828922D01*
X104554595Y-32801278D01*
X104526952Y-32796900D01*
X104322248Y-32796900D01*
X104297929Y-32800751D01*
X104120065Y-32828922D01*
X103925376Y-32892181D01*
X103742986Y-32985115D01*
X103577386Y-33105428D01*
X103432628Y-33250186D01*
X103312315Y-33415786D01*
X103219381Y-33598176D01*
X103156122Y-33792865D01*
X103124100Y-33995048D01*
X76675100Y-33995048D01*
X76643077Y-33792866D01*
X76579820Y-33598181D01*
X76579818Y-33598178D01*
X76579818Y-33598176D01*
X76546103Y-33532007D01*
X76486887Y-33415790D01*
X76479156Y-33405149D01*
X76366571Y-33250186D01*
X76221813Y-33105428D01*
X76056213Y-32985115D01*
X76056212Y-32985114D01*
X76056210Y-32985113D01*
X75999253Y-32956091D01*
X75873823Y-32892181D01*
X75679134Y-32828922D01*
X75504595Y-32801278D01*
X75476952Y-32796900D01*
X75272248Y-32796900D01*
X75247929Y-32800751D01*
X75070065Y-32828922D01*
X74875376Y-32892181D01*
X74692986Y-32985115D01*
X74527386Y-33105428D01*
X74382628Y-33250186D01*
X74262315Y-33415786D01*
X74169381Y-33598176D01*
X74106122Y-33792865D01*
X74074100Y-33995048D01*
X47625100Y-33995048D01*
X47593077Y-33792866D01*
X47529820Y-33598181D01*
X47529818Y-33598178D01*
X47529818Y-33598176D01*
X47496103Y-33532007D01*
X47436887Y-33415790D01*
X47429156Y-33405149D01*
X47316571Y-33250186D01*
X47171813Y-33105428D01*
X47006213Y-32985115D01*
X47006212Y-32985114D01*
X47006210Y-32985113D01*
X46949253Y-32956091D01*
X46823823Y-32892181D01*
X46629134Y-32828922D01*
X46454595Y-32801278D01*
X46426952Y-32796900D01*
X46222248Y-32796900D01*
X46197929Y-32800751D01*
X46020065Y-32828922D01*
X45825376Y-32892181D01*
X45642986Y-32985115D01*
X45477386Y-33105428D01*
X45332628Y-33250186D01*
X45212315Y-33415786D01*
X45119381Y-33598176D01*
X45056122Y-33792865D01*
X45024100Y-33995048D01*
X18575100Y-33995048D01*
X18543077Y-33792866D01*
X18479820Y-33598181D01*
X18479818Y-33598178D01*
X18479818Y-33598176D01*
X18446103Y-33532007D01*
X18386887Y-33415790D01*
X18379156Y-33405149D01*
X18266571Y-33250186D01*
X18121813Y-33105428D01*
X17956213Y-32985115D01*
X17956212Y-32985114D01*
X17956210Y-32985113D01*
X17899253Y-32956091D01*
X17773823Y-32892181D01*
X17579134Y-32828922D01*
X17404595Y-32801278D01*
X17376952Y-32796900D01*
X17172248Y-32796900D01*
X17147929Y-32800751D01*
X16970065Y-32828922D01*
X16775376Y-32892181D01*
X16592986Y-32985115D01*
X16427386Y-33105428D01*
X16282628Y-33250186D01*
X16162315Y-33415786D01*
X16069381Y-33598176D01*
X16006122Y-33792865D01*
X15974100Y-33995048D01*
X500553Y-33995048D01*
X500553Y-29885720D01*
X6370600Y-29885720D01*
X6370600Y-30109079D01*
X6370601Y-30109095D01*
X6399755Y-30330545D01*
X6457568Y-30546306D01*
X6543044Y-30752665D01*
X6543051Y-30752679D01*
X6654732Y-30946116D01*
X6654743Y-30946133D01*
X6664342Y-30958642D01*
X6664343Y-30958642D01*
X7489814Y-30133172D01*
X7515489Y-30228991D01*
X7594481Y-30365808D01*
X7706192Y-30477519D01*
X7843009Y-30556511D01*
X7938826Y-30582185D01*
X7113356Y-31407654D01*
X7113356Y-31407655D01*
X7125880Y-31417265D01*
X7319320Y-31528948D01*
X7319334Y-31528955D01*
X7525693Y-31614431D01*
X7741454Y-31672244D01*
X7962904Y-31701398D01*
X7962921Y-31701400D01*
X8186279Y-31701400D01*
X8186295Y-31701398D01*
X8407745Y-31672244D01*
X8623506Y-31614431D01*
X8829865Y-31528955D01*
X8829880Y-31528948D01*
X9023315Y-31417269D01*
X9023318Y-31417266D01*
X9035843Y-31407655D01*
X9035843Y-31407654D01*
X8210374Y-30582185D01*
X8306191Y-30556511D01*
X8443008Y-30477519D01*
X8554719Y-30365808D01*
X8633711Y-30228991D01*
X8659385Y-30133173D01*
X9484854Y-30958643D01*
X9484855Y-30958643D01*
X9494466Y-30946118D01*
X9494469Y-30946115D01*
X9606148Y-30752680D01*
X9606155Y-30752665D01*
X9691631Y-30546306D01*
X9749444Y-30330545D01*
X9778598Y-30109095D01*
X9778600Y-30109079D01*
X9778600Y-29885712D01*
X9778157Y-29882344D01*
X11519300Y-29882344D01*
X11519300Y-30112455D01*
X11534643Y-30228991D01*
X11549334Y-30340577D01*
X11549335Y-30340579D01*
X11608886Y-30562831D01*
X11696939Y-30775408D01*
X11696943Y-30775418D01*
X11811989Y-30974684D01*
X11952062Y-31157231D01*
X11952068Y-31157238D01*
X12114761Y-31319931D01*
X12114768Y-31319937D01*
X12297315Y-31460010D01*
X12496581Y-31575056D01*
X12496582Y-31575056D01*
X12496585Y-31575058D01*
X12709167Y-31663113D01*
X12931423Y-31722666D01*
X13159552Y-31752700D01*
X13159559Y-31752700D01*
X13389641Y-31752700D01*
X13389648Y-31752700D01*
X13617777Y-31722666D01*
X13840033Y-31663113D01*
X14052615Y-31575058D01*
X14251885Y-31460010D01*
X14434433Y-31319936D01*
X14434438Y-31319931D01*
X14482349Y-31272021D01*
X14597131Y-31157238D01*
X14597136Y-31157233D01*
X14737210Y-30974685D01*
X14852258Y-30775415D01*
X14940313Y-30562833D01*
X14999866Y-30340577D01*
X15029900Y-30112448D01*
X15029900Y-29885720D01*
X35420600Y-29885720D01*
X35420600Y-30109079D01*
X35420601Y-30109095D01*
X35449755Y-30330545D01*
X35507568Y-30546306D01*
X35593044Y-30752665D01*
X35593051Y-30752679D01*
X35704732Y-30946116D01*
X35704743Y-30946133D01*
X35714342Y-30958642D01*
X35714343Y-30958642D01*
X36539814Y-30133172D01*
X36565489Y-30228991D01*
X36644481Y-30365808D01*
X36756192Y-30477519D01*
X36893009Y-30556511D01*
X36988826Y-30582185D01*
X36163356Y-31407654D01*
X36163356Y-31407655D01*
X36175880Y-31417265D01*
X36369320Y-31528948D01*
X36369334Y-31528955D01*
X36575693Y-31614431D01*
X36791454Y-31672244D01*
X37012904Y-31701398D01*
X37012921Y-31701400D01*
X37236279Y-31701400D01*
X37236295Y-31701398D01*
X37457745Y-31672244D01*
X37673506Y-31614431D01*
X37879865Y-31528955D01*
X37879880Y-31528948D01*
X38073315Y-31417269D01*
X38073318Y-31417266D01*
X38085843Y-31407655D01*
X38085843Y-31407654D01*
X37260374Y-30582185D01*
X37356191Y-30556511D01*
X37493008Y-30477519D01*
X37604719Y-30365808D01*
X37683711Y-30228991D01*
X37709385Y-30133173D01*
X38534854Y-30958643D01*
X38534855Y-30958643D01*
X38544466Y-30946118D01*
X38544469Y-30946115D01*
X38656148Y-30752680D01*
X38656155Y-30752665D01*
X38741631Y-30546306D01*
X38799444Y-30330545D01*
X38828598Y-30109095D01*
X38828600Y-30109079D01*
X38828600Y-29885712D01*
X38828157Y-29882344D01*
X40569300Y-29882344D01*
X40569300Y-30112455D01*
X40584643Y-30228991D01*
X40599334Y-30340577D01*
X40599335Y-30340579D01*
X40658886Y-30562831D01*
X40746939Y-30775408D01*
X40746943Y-30775418D01*
X40861989Y-30974684D01*
X41002062Y-31157231D01*
X41002068Y-31157238D01*
X41164761Y-31319931D01*
X41164768Y-31319937D01*
X41347315Y-31460010D01*
X41546581Y-31575056D01*
X41546582Y-31575056D01*
X41546585Y-31575058D01*
X41759167Y-31663113D01*
X41981423Y-31722666D01*
X42209552Y-31752700D01*
X42209559Y-31752700D01*
X42439641Y-31752700D01*
X42439648Y-31752700D01*
X42667777Y-31722666D01*
X42890033Y-31663113D01*
X43102615Y-31575058D01*
X43301885Y-31460010D01*
X43484433Y-31319936D01*
X43484438Y-31319931D01*
X43532349Y-31272021D01*
X43647131Y-31157238D01*
X43647136Y-31157233D01*
X43787210Y-30974685D01*
X43902258Y-30775415D01*
X43990313Y-30562833D01*
X44049866Y-30340577D01*
X44079900Y-30112448D01*
X44079900Y-29885720D01*
X64470600Y-29885720D01*
X64470600Y-30109079D01*
X64470601Y-30109095D01*
X64499755Y-30330545D01*
X64557568Y-30546306D01*
X64643044Y-30752665D01*
X64643051Y-30752679D01*
X64754732Y-30946116D01*
X64754743Y-30946133D01*
X64764342Y-30958642D01*
X64764343Y-30958642D01*
X65589814Y-30133172D01*
X65615489Y-30228991D01*
X65694481Y-30365808D01*
X65806192Y-30477519D01*
X65943009Y-30556511D01*
X66038826Y-30582185D01*
X65213356Y-31407654D01*
X65213356Y-31407655D01*
X65225880Y-31417265D01*
X65419320Y-31528948D01*
X65419334Y-31528955D01*
X65625693Y-31614431D01*
X65841454Y-31672244D01*
X66062904Y-31701398D01*
X66062921Y-31701400D01*
X66286279Y-31701400D01*
X66286295Y-31701398D01*
X66507745Y-31672244D01*
X66723506Y-31614431D01*
X66929865Y-31528955D01*
X66929880Y-31528948D01*
X67123315Y-31417269D01*
X67123318Y-31417266D01*
X67135843Y-31407655D01*
X67135843Y-31407654D01*
X66310374Y-30582185D01*
X66406191Y-30556511D01*
X66543008Y-30477519D01*
X66654719Y-30365808D01*
X66733711Y-30228991D01*
X66759385Y-30133173D01*
X67584854Y-30958643D01*
X67584855Y-30958643D01*
X67594466Y-30946118D01*
X67594469Y-30946115D01*
X67706148Y-30752680D01*
X67706155Y-30752665D01*
X67791631Y-30546306D01*
X67849444Y-30330545D01*
X67878598Y-30109095D01*
X67878600Y-30109079D01*
X67878600Y-29885712D01*
X67878157Y-29882344D01*
X69619300Y-29882344D01*
X69619300Y-30112455D01*
X69634643Y-30228991D01*
X69649334Y-30340577D01*
X69649335Y-30340579D01*
X69708886Y-30562831D01*
X69796939Y-30775408D01*
X69796943Y-30775418D01*
X69911989Y-30974684D01*
X70052062Y-31157231D01*
X70052068Y-31157238D01*
X70214761Y-31319931D01*
X70214768Y-31319937D01*
X70397315Y-31460010D01*
X70596581Y-31575056D01*
X70596582Y-31575056D01*
X70596585Y-31575058D01*
X70809167Y-31663113D01*
X71031423Y-31722666D01*
X71259552Y-31752700D01*
X71259559Y-31752700D01*
X71489641Y-31752700D01*
X71489648Y-31752700D01*
X71717777Y-31722666D01*
X71940033Y-31663113D01*
X72152615Y-31575058D01*
X72351885Y-31460010D01*
X72534433Y-31319936D01*
X72534438Y-31319931D01*
X72582349Y-31272021D01*
X72697131Y-31157238D01*
X72697136Y-31157233D01*
X72837210Y-30974685D01*
X72952258Y-30775415D01*
X73040313Y-30562833D01*
X73099866Y-30340577D01*
X73129900Y-30112448D01*
X73129900Y-29885720D01*
X93520600Y-29885720D01*
X93520600Y-30109079D01*
X93520601Y-30109095D01*
X93549755Y-30330545D01*
X93607568Y-30546306D01*
X93693044Y-30752665D01*
X93693051Y-30752679D01*
X93804732Y-30946116D01*
X93804743Y-30946133D01*
X93814342Y-30958642D01*
X93814343Y-30958642D01*
X94639814Y-30133172D01*
X94665489Y-30228991D01*
X94744481Y-30365808D01*
X94856192Y-30477519D01*
X94993009Y-30556511D01*
X95088826Y-30582185D01*
X94263356Y-31407654D01*
X94263356Y-31407655D01*
X94275880Y-31417265D01*
X94469320Y-31528948D01*
X94469334Y-31528955D01*
X94675693Y-31614431D01*
X94891454Y-31672244D01*
X95112904Y-31701398D01*
X95112921Y-31701400D01*
X95336279Y-31701400D01*
X95336295Y-31701398D01*
X95557745Y-31672244D01*
X95773506Y-31614431D01*
X95979865Y-31528955D01*
X95979880Y-31528948D01*
X96173315Y-31417269D01*
X96173318Y-31417266D01*
X96185843Y-31407655D01*
X96185843Y-31407654D01*
X95360374Y-30582185D01*
X95456191Y-30556511D01*
X95593008Y-30477519D01*
X95704719Y-30365808D01*
X95783711Y-30228991D01*
X95809385Y-30133173D01*
X96634854Y-30958643D01*
X96634855Y-30958643D01*
X96644466Y-30946118D01*
X96644469Y-30946115D01*
X96756148Y-30752680D01*
X96756155Y-30752665D01*
X96841631Y-30546306D01*
X96899444Y-30330545D01*
X96928598Y-30109095D01*
X96928600Y-30109079D01*
X96928600Y-29885712D01*
X96928157Y-29882344D01*
X98669300Y-29882344D01*
X98669300Y-30112455D01*
X98684643Y-30228991D01*
X98699334Y-30340577D01*
X98699335Y-30340579D01*
X98758886Y-30562831D01*
X98846939Y-30775408D01*
X98846943Y-30775418D01*
X98961989Y-30974684D01*
X99102062Y-31157231D01*
X99102068Y-31157238D01*
X99264761Y-31319931D01*
X99264768Y-31319937D01*
X99447315Y-31460010D01*
X99646581Y-31575056D01*
X99646582Y-31575056D01*
X99646585Y-31575058D01*
X99859167Y-31663113D01*
X100081423Y-31722666D01*
X100309552Y-31752700D01*
X100309559Y-31752700D01*
X100539641Y-31752700D01*
X100539648Y-31752700D01*
X100767777Y-31722666D01*
X100990033Y-31663113D01*
X101202615Y-31575058D01*
X101401885Y-31460010D01*
X101584433Y-31319936D01*
X101747136Y-31157233D01*
X101887210Y-30974685D01*
X102002258Y-30775415D01*
X102090313Y-30562833D01*
X102149866Y-30340577D01*
X102179900Y-30112448D01*
X102179900Y-29882352D01*
X102149866Y-29654223D01*
X102090313Y-29431967D01*
X102002258Y-29219385D01*
X101887210Y-29020115D01*
X101747136Y-28837567D01*
X101747131Y-28837561D01*
X101584438Y-28674868D01*
X101584431Y-28674862D01*
X101401884Y-28534789D01*
X101202618Y-28419743D01*
X101202608Y-28419739D01*
X100990031Y-28331686D01*
X100878905Y-28301910D01*
X100767777Y-28272134D01*
X100729651Y-28267114D01*
X100539655Y-28242100D01*
X100539648Y-28242100D01*
X100309552Y-28242100D01*
X100309544Y-28242100D01*
X100092404Y-28270688D01*
X100081423Y-28272134D01*
X100034451Y-28284719D01*
X99859168Y-28331686D01*
X99646591Y-28419739D01*
X99646581Y-28419743D01*
X99447315Y-28534789D01*
X99264768Y-28674862D01*
X99264761Y-28674868D01*
X99102068Y-28837561D01*
X99102062Y-28837568D01*
X98961989Y-29020115D01*
X98846943Y-29219381D01*
X98846939Y-29219391D01*
X98758886Y-29431968D01*
X98699335Y-29654220D01*
X98699333Y-29654231D01*
X98669300Y-29882344D01*
X96928157Y-29882344D01*
X96899444Y-29664254D01*
X96841631Y-29448493D01*
X96756155Y-29242134D01*
X96756148Y-29242120D01*
X96644465Y-29048680D01*
X96634855Y-29036156D01*
X96634854Y-29036156D01*
X95809385Y-29861625D01*
X95783711Y-29765809D01*
X95704719Y-29628992D01*
X95593008Y-29517281D01*
X95456191Y-29438289D01*
X95360372Y-29412614D01*
X96185842Y-28587143D01*
X96185842Y-28587142D01*
X96173333Y-28577543D01*
X96173316Y-28577532D01*
X95979879Y-28465851D01*
X95979865Y-28465844D01*
X95773506Y-28380368D01*
X95557745Y-28322555D01*
X95336295Y-28293401D01*
X95336279Y-28293400D01*
X95112921Y-28293400D01*
X95112904Y-28293401D01*
X94891454Y-28322555D01*
X94675693Y-28380368D01*
X94469334Y-28465844D01*
X94469319Y-28465851D01*
X94275878Y-28577535D01*
X94263355Y-28587142D01*
X95088827Y-29412614D01*
X94993009Y-29438289D01*
X94856192Y-29517281D01*
X94744481Y-29628992D01*
X94665489Y-29765809D01*
X94639814Y-29861626D01*
X93814342Y-29036155D01*
X93804735Y-29048678D01*
X93693051Y-29242119D01*
X93693044Y-29242134D01*
X93607568Y-29448493D01*
X93549755Y-29664254D01*
X93520601Y-29885704D01*
X93520600Y-29885720D01*
X73129900Y-29885720D01*
X73129900Y-29882352D01*
X73099866Y-29654223D01*
X73040313Y-29431967D01*
X72952258Y-29219385D01*
X72837210Y-29020115D01*
X72697136Y-28837567D01*
X72697131Y-28837561D01*
X72534438Y-28674868D01*
X72534431Y-28674862D01*
X72351884Y-28534789D01*
X72152618Y-28419743D01*
X72152608Y-28419739D01*
X71940031Y-28331686D01*
X71828905Y-28301910D01*
X71717777Y-28272134D01*
X71679651Y-28267114D01*
X71489655Y-28242100D01*
X71489648Y-28242100D01*
X71259552Y-28242100D01*
X71259544Y-28242100D01*
X71042404Y-28270688D01*
X71031423Y-28272134D01*
X70984451Y-28284719D01*
X70809168Y-28331686D01*
X70596591Y-28419739D01*
X70596581Y-28419743D01*
X70397315Y-28534789D01*
X70214768Y-28674862D01*
X70214761Y-28674868D01*
X70052068Y-28837561D01*
X70052062Y-28837568D01*
X69911989Y-29020115D01*
X69796943Y-29219381D01*
X69796939Y-29219391D01*
X69708886Y-29431968D01*
X69649335Y-29654220D01*
X69649333Y-29654231D01*
X69619300Y-29882344D01*
X67878157Y-29882344D01*
X67849444Y-29664254D01*
X67791631Y-29448493D01*
X67706155Y-29242134D01*
X67706148Y-29242120D01*
X67594465Y-29048680D01*
X67584855Y-29036156D01*
X67584854Y-29036156D01*
X66759385Y-29861625D01*
X66733711Y-29765809D01*
X66654719Y-29628992D01*
X66543008Y-29517281D01*
X66406191Y-29438289D01*
X66310372Y-29412614D01*
X67135842Y-28587143D01*
X67135842Y-28587142D01*
X67123333Y-28577543D01*
X67123316Y-28577532D01*
X66929879Y-28465851D01*
X66929865Y-28465844D01*
X66723506Y-28380368D01*
X66507745Y-28322555D01*
X66286295Y-28293401D01*
X66286279Y-28293400D01*
X66062921Y-28293400D01*
X66062904Y-28293401D01*
X65841454Y-28322555D01*
X65625693Y-28380368D01*
X65419334Y-28465844D01*
X65419319Y-28465851D01*
X65225878Y-28577535D01*
X65213355Y-28587142D01*
X66038827Y-29412614D01*
X65943009Y-29438289D01*
X65806192Y-29517281D01*
X65694481Y-29628992D01*
X65615489Y-29765809D01*
X65589814Y-29861627D01*
X64764342Y-29036155D01*
X64754735Y-29048678D01*
X64643051Y-29242119D01*
X64643044Y-29242134D01*
X64557568Y-29448493D01*
X64499755Y-29664254D01*
X64470601Y-29885704D01*
X64470600Y-29885720D01*
X44079900Y-29885720D01*
X44079900Y-29882352D01*
X44049866Y-29654223D01*
X43990313Y-29431967D01*
X43902258Y-29219385D01*
X43787210Y-29020115D01*
X43647136Y-28837567D01*
X43647131Y-28837561D01*
X43484438Y-28674868D01*
X43484431Y-28674862D01*
X43301884Y-28534789D01*
X43102618Y-28419743D01*
X43102608Y-28419739D01*
X42890031Y-28331686D01*
X42778905Y-28301910D01*
X42667777Y-28272134D01*
X42629651Y-28267114D01*
X42439655Y-28242100D01*
X42439648Y-28242100D01*
X42209552Y-28242100D01*
X42209544Y-28242100D01*
X41992404Y-28270688D01*
X41981423Y-28272134D01*
X41934451Y-28284719D01*
X41759168Y-28331686D01*
X41546591Y-28419739D01*
X41546581Y-28419743D01*
X41347315Y-28534789D01*
X41164768Y-28674862D01*
X41164761Y-28674868D01*
X41002068Y-28837561D01*
X41002062Y-28837568D01*
X40861989Y-29020115D01*
X40746943Y-29219381D01*
X40746939Y-29219391D01*
X40658886Y-29431968D01*
X40599335Y-29654220D01*
X40599333Y-29654231D01*
X40569300Y-29882344D01*
X38828157Y-29882344D01*
X38799444Y-29664254D01*
X38741631Y-29448493D01*
X38656155Y-29242134D01*
X38656148Y-29242120D01*
X38544465Y-29048680D01*
X38534855Y-29036156D01*
X38534854Y-29036156D01*
X37709385Y-29861625D01*
X37683711Y-29765809D01*
X37604719Y-29628992D01*
X37493008Y-29517281D01*
X37356191Y-29438289D01*
X37260372Y-29412614D01*
X38085842Y-28587143D01*
X38085842Y-28587142D01*
X38073333Y-28577543D01*
X38073316Y-28577532D01*
X37879879Y-28465851D01*
X37879865Y-28465844D01*
X37673506Y-28380368D01*
X37457745Y-28322555D01*
X37236295Y-28293401D01*
X37236279Y-28293400D01*
X37012921Y-28293400D01*
X37012904Y-28293401D01*
X36791454Y-28322555D01*
X36575693Y-28380368D01*
X36369334Y-28465844D01*
X36369319Y-28465851D01*
X36175878Y-28577535D01*
X36163355Y-28587142D01*
X36988827Y-29412614D01*
X36893009Y-29438289D01*
X36756192Y-29517281D01*
X36644481Y-29628992D01*
X36565489Y-29765809D01*
X36539814Y-29861627D01*
X35714342Y-29036155D01*
X35704735Y-29048678D01*
X35593051Y-29242119D01*
X35593044Y-29242134D01*
X35507568Y-29448493D01*
X35449755Y-29664254D01*
X35420601Y-29885704D01*
X35420600Y-29885720D01*
X15029900Y-29885720D01*
X15029900Y-29882352D01*
X14999866Y-29654223D01*
X14940313Y-29431967D01*
X14852258Y-29219385D01*
X14737210Y-29020115D01*
X14597136Y-28837567D01*
X14597131Y-28837561D01*
X14434438Y-28674868D01*
X14434431Y-28674862D01*
X14251884Y-28534789D01*
X14052618Y-28419743D01*
X14052608Y-28419739D01*
X13840031Y-28331686D01*
X13728905Y-28301910D01*
X13617777Y-28272134D01*
X13579651Y-28267114D01*
X13389655Y-28242100D01*
X13389648Y-28242100D01*
X13159552Y-28242100D01*
X13159544Y-28242100D01*
X12942404Y-28270688D01*
X12931423Y-28272134D01*
X12884451Y-28284719D01*
X12709168Y-28331686D01*
X12496591Y-28419739D01*
X12496581Y-28419743D01*
X12297315Y-28534789D01*
X12114768Y-28674862D01*
X12114761Y-28674868D01*
X11952068Y-28837561D01*
X11952062Y-28837568D01*
X11811989Y-29020115D01*
X11696943Y-29219381D01*
X11696939Y-29219391D01*
X11608886Y-29431968D01*
X11549335Y-29654220D01*
X11549333Y-29654231D01*
X11519300Y-29882344D01*
X9778157Y-29882344D01*
X9749444Y-29664254D01*
X9691631Y-29448493D01*
X9606155Y-29242134D01*
X9606148Y-29242120D01*
X9494465Y-29048680D01*
X9484855Y-29036156D01*
X9484854Y-29036156D01*
X8659385Y-29861625D01*
X8633711Y-29765809D01*
X8554719Y-29628992D01*
X8443008Y-29517281D01*
X8306191Y-29438289D01*
X8210372Y-29412614D01*
X9035842Y-28587143D01*
X9035842Y-28587142D01*
X9023333Y-28577543D01*
X9023316Y-28577532D01*
X8829879Y-28465851D01*
X8829865Y-28465844D01*
X8623506Y-28380368D01*
X8407745Y-28322555D01*
X8186295Y-28293401D01*
X8186279Y-28293400D01*
X7962921Y-28293400D01*
X7962904Y-28293401D01*
X7741454Y-28322555D01*
X7525693Y-28380368D01*
X7319334Y-28465844D01*
X7319319Y-28465851D01*
X7125878Y-28577535D01*
X7113355Y-28587142D01*
X7938827Y-29412614D01*
X7843009Y-29438289D01*
X7706192Y-29517281D01*
X7594481Y-29628992D01*
X7515489Y-29765809D01*
X7489814Y-29861627D01*
X6664342Y-29036155D01*
X6654735Y-29048678D01*
X6543051Y-29242119D01*
X6543044Y-29242134D01*
X6457568Y-29448493D01*
X6399755Y-29664254D01*
X6370601Y-29885704D01*
X6370600Y-29885720D01*
X500553Y-29885720D01*
X500553Y-26482344D01*
X8519300Y-26482344D01*
X8519300Y-26712455D01*
X8536096Y-26840027D01*
X8549334Y-26940577D01*
X8566409Y-27004301D01*
X8608886Y-27162831D01*
X8696939Y-27375408D01*
X8696943Y-27375418D01*
X8811989Y-27574684D01*
X8952062Y-27757231D01*
X8952068Y-27757238D01*
X9114761Y-27919931D01*
X9114768Y-27919937D01*
X9297315Y-28060010D01*
X9496581Y-28175056D01*
X9496582Y-28175056D01*
X9496585Y-28175058D01*
X9709167Y-28263113D01*
X9931423Y-28322666D01*
X10159552Y-28352700D01*
X10159559Y-28352700D01*
X10389641Y-28352700D01*
X10389648Y-28352700D01*
X10617777Y-28322666D01*
X10840033Y-28263113D01*
X11052615Y-28175058D01*
X11251885Y-28060010D01*
X11434433Y-27919936D01*
X11597136Y-27757233D01*
X11737210Y-27574685D01*
X11852258Y-27375415D01*
X11940313Y-27162833D01*
X11999866Y-26940577D01*
X12029900Y-26712448D01*
X12029900Y-26482352D01*
X11999866Y-26254223D01*
X11940313Y-26031967D01*
X11852258Y-25819385D01*
X11737210Y-25620115D01*
X11670823Y-25533598D01*
X11597137Y-25437568D01*
X11597131Y-25437561D01*
X11434438Y-25274868D01*
X11434431Y-25274862D01*
X11251884Y-25134789D01*
X11052618Y-25019743D01*
X11052608Y-25019739D01*
X10840031Y-24931686D01*
X10728905Y-24901910D01*
X10617777Y-24872134D01*
X10579651Y-24867114D01*
X10389655Y-24842100D01*
X10389648Y-24842100D01*
X10159552Y-24842100D01*
X10159544Y-24842100D01*
X9942404Y-24870688D01*
X9931423Y-24872134D01*
X9884451Y-24884719D01*
X9709168Y-24931686D01*
X9496591Y-25019739D01*
X9496581Y-25019743D01*
X9297315Y-25134789D01*
X9114768Y-25274862D01*
X9114761Y-25274868D01*
X8952068Y-25437561D01*
X8952062Y-25437568D01*
X8811989Y-25620115D01*
X8696943Y-25819381D01*
X8696939Y-25819391D01*
X8608886Y-26031968D01*
X8549335Y-26254220D01*
X8549333Y-26254231D01*
X8519300Y-26482344D01*
X500553Y-26482344D01*
X500553Y-22582344D01*
X5419300Y-22582344D01*
X5419300Y-22812455D01*
X5434643Y-22928991D01*
X5449334Y-23040577D01*
X5449335Y-23040579D01*
X5508886Y-23262831D01*
X5596939Y-23475408D01*
X5596943Y-23475418D01*
X5711989Y-23674684D01*
X5852062Y-23857231D01*
X5852068Y-23857238D01*
X6014761Y-24019931D01*
X6014768Y-24019937D01*
X6197315Y-24160010D01*
X6396581Y-24275056D01*
X6396582Y-24275056D01*
X6396585Y-24275058D01*
X6609167Y-24363113D01*
X6831423Y-24422666D01*
X7059552Y-24452700D01*
X7059559Y-24452700D01*
X7289641Y-24452700D01*
X7289648Y-24452700D01*
X7517777Y-24422666D01*
X7740033Y-24363113D01*
X7952615Y-24275058D01*
X8151885Y-24160010D01*
X8334433Y-24019936D01*
X8497136Y-23857233D01*
X8637210Y-23674685D01*
X8752258Y-23475415D01*
X8840313Y-23262833D01*
X8899866Y-23040577D01*
X8929900Y-22812448D01*
X8929900Y-22582352D01*
X8899866Y-22354223D01*
X8840313Y-22131967D01*
X8752258Y-21919385D01*
X8637210Y-21720115D01*
X8497136Y-21537567D01*
X8497131Y-21537561D01*
X8334438Y-21374868D01*
X8334431Y-21374862D01*
X8151884Y-21234789D01*
X7952618Y-21119743D01*
X7952608Y-21119739D01*
X7740031Y-21031686D01*
X7605656Y-20995681D01*
X7517777Y-20972134D01*
X7479651Y-20967114D01*
X7289655Y-20942100D01*
X7289648Y-20942100D01*
X7059552Y-20942100D01*
X7059544Y-20942100D01*
X6850906Y-20969569D01*
X6831423Y-20972134D01*
X6785048Y-20984560D01*
X6609168Y-21031686D01*
X6396591Y-21119739D01*
X6396581Y-21119743D01*
X6197315Y-21234789D01*
X6014768Y-21374862D01*
X6014761Y-21374868D01*
X5852068Y-21537561D01*
X5852062Y-21537568D01*
X5711989Y-21720115D01*
X5596943Y-21919381D01*
X5596939Y-21919391D01*
X5508886Y-22131968D01*
X5449335Y-22354220D01*
X5449333Y-22354231D01*
X5419300Y-22582344D01*
X500553Y-22582344D01*
X500553Y-15982344D01*
X2319300Y-15982344D01*
X2319300Y-16212455D01*
X2344314Y-16402451D01*
X2349334Y-16440577D01*
X2349335Y-16440579D01*
X2408886Y-16662831D01*
X2496939Y-16875408D01*
X2496943Y-16875418D01*
X2611989Y-17074684D01*
X2752062Y-17257231D01*
X2752068Y-17257238D01*
X2914761Y-17419931D01*
X2914768Y-17419937D01*
X3097315Y-17560010D01*
X3296581Y-17675056D01*
X3296582Y-17675056D01*
X3296585Y-17675058D01*
X3509167Y-17763113D01*
X3731423Y-17822666D01*
X3959552Y-17852700D01*
X3959559Y-17852700D01*
X4189641Y-17852700D01*
X4189648Y-17852700D01*
X4417777Y-17822666D01*
X4640033Y-17763113D01*
X4852615Y-17675058D01*
X5051885Y-17560010D01*
X5234433Y-17419936D01*
X5397136Y-17257233D01*
X5537210Y-17074685D01*
X5652258Y-16875415D01*
X5740313Y-16662833D01*
X5799866Y-16440577D01*
X5829900Y-16212448D01*
X5829900Y-15982352D01*
X5829899Y-15982344D01*
X8519300Y-15982344D01*
X8519300Y-16212455D01*
X8544314Y-16402451D01*
X8549334Y-16440577D01*
X8549335Y-16440579D01*
X8608886Y-16662831D01*
X8696939Y-16875408D01*
X8696943Y-16875418D01*
X8811989Y-17074684D01*
X8952062Y-17257231D01*
X8952068Y-17257238D01*
X9114761Y-17419931D01*
X9114768Y-17419937D01*
X9297315Y-17560010D01*
X9496581Y-17675056D01*
X9496582Y-17675056D01*
X9496585Y-17675058D01*
X9709167Y-17763113D01*
X9931423Y-17822666D01*
X10159552Y-17852700D01*
X10159559Y-17852700D01*
X10389641Y-17852700D01*
X10389648Y-17852700D01*
X10617777Y-17822666D01*
X10840033Y-17763113D01*
X11052615Y-17675058D01*
X11251885Y-17560010D01*
X11434433Y-17419936D01*
X11597136Y-17257233D01*
X11737210Y-17074685D01*
X11852258Y-16875415D01*
X11940313Y-16662833D01*
X11999866Y-16440577D01*
X12029900Y-16212448D01*
X12029900Y-15982352D01*
X12029899Y-15982344D01*
X14519300Y-15982344D01*
X14519300Y-16212455D01*
X14544314Y-16402451D01*
X14549334Y-16440577D01*
X14549335Y-16440579D01*
X14608886Y-16662831D01*
X14696939Y-16875408D01*
X14696943Y-16875418D01*
X14811989Y-17074684D01*
X14952062Y-17257231D01*
X14952068Y-17257238D01*
X15114761Y-17419931D01*
X15114768Y-17419937D01*
X15297315Y-17560010D01*
X15496581Y-17675056D01*
X15496582Y-17675056D01*
X15496585Y-17675058D01*
X15709167Y-17763113D01*
X15931423Y-17822666D01*
X16159552Y-17852700D01*
X16159559Y-17852700D01*
X16389641Y-17852700D01*
X16389648Y-17852700D01*
X16617777Y-17822666D01*
X16840033Y-17763113D01*
X17052615Y-17675058D01*
X17251885Y-17560010D01*
X17434433Y-17419936D01*
X17597136Y-17257233D01*
X17737210Y-17074685D01*
X17852258Y-16875415D01*
X17940313Y-16662833D01*
X17999866Y-16440577D01*
X18029900Y-16212448D01*
X18029900Y-15982352D01*
X17999866Y-15754223D01*
X17940313Y-15531967D01*
X17852258Y-15319385D01*
X17737210Y-15120115D01*
X17597136Y-14937567D01*
X17597131Y-14937561D01*
X17434438Y-14774868D01*
X17434431Y-14774862D01*
X17251884Y-14634789D01*
X17052618Y-14519743D01*
X17052608Y-14519739D01*
X16840031Y-14431686D01*
X16728905Y-14401910D01*
X16617777Y-14372134D01*
X16579651Y-14367114D01*
X16389655Y-14342100D01*
X16389648Y-14342100D01*
X16159552Y-14342100D01*
X16159544Y-14342100D01*
X15942404Y-14370688D01*
X15931423Y-14372134D01*
X15884451Y-14384719D01*
X15709168Y-14431686D01*
X15496591Y-14519739D01*
X15496581Y-14519743D01*
X15297315Y-14634789D01*
X15114768Y-14774862D01*
X15114761Y-14774868D01*
X14952068Y-14937561D01*
X14952062Y-14937568D01*
X14811989Y-15120115D01*
X14696943Y-15319381D01*
X14696939Y-15319391D01*
X14608886Y-15531968D01*
X14549335Y-15754220D01*
X14549333Y-15754231D01*
X14519300Y-15982344D01*
X12029899Y-15982344D01*
X11999866Y-15754223D01*
X11940313Y-15531967D01*
X11852258Y-15319385D01*
X11737210Y-15120115D01*
X11597136Y-14937567D01*
X11597131Y-14937561D01*
X11434438Y-14774868D01*
X11434431Y-14774862D01*
X11251884Y-14634789D01*
X11052618Y-14519743D01*
X11052608Y-14519739D01*
X10840031Y-14431686D01*
X10728905Y-14401910D01*
X10617777Y-14372134D01*
X10579651Y-14367114D01*
X10389655Y-14342100D01*
X10389648Y-14342100D01*
X10159552Y-14342100D01*
X10159544Y-14342100D01*
X9942404Y-14370688D01*
X9931423Y-14372134D01*
X9884451Y-14384719D01*
X9709168Y-14431686D01*
X9496591Y-14519739D01*
X9496581Y-14519743D01*
X9297315Y-14634789D01*
X9114768Y-14774862D01*
X9114761Y-14774868D01*
X8952068Y-14937561D01*
X8952062Y-14937568D01*
X8811989Y-15120115D01*
X8696943Y-15319381D01*
X8696939Y-15319391D01*
X8608886Y-15531968D01*
X8549335Y-15754220D01*
X8549333Y-15754231D01*
X8519300Y-15982344D01*
X5829899Y-15982344D01*
X5799866Y-15754223D01*
X5740313Y-15531967D01*
X5652258Y-15319385D01*
X5537210Y-15120115D01*
X5397136Y-14937567D01*
X5397131Y-14937561D01*
X5234438Y-14774868D01*
X5234431Y-14774862D01*
X5051884Y-14634789D01*
X4852618Y-14519743D01*
X4852608Y-14519739D01*
X4640031Y-14431686D01*
X4528905Y-14401910D01*
X4417777Y-14372134D01*
X4379651Y-14367114D01*
X4189655Y-14342100D01*
X4189648Y-14342100D01*
X3959552Y-14342100D01*
X3959544Y-14342100D01*
X3742404Y-14370688D01*
X3731423Y-14372134D01*
X3684451Y-14384719D01*
X3509168Y-14431686D01*
X3296591Y-14519739D01*
X3296581Y-14519743D01*
X3097315Y-14634789D01*
X2914768Y-14774862D01*
X2914761Y-14774868D01*
X2752068Y-14937561D01*
X2752062Y-14937568D01*
X2611989Y-15120115D01*
X2496943Y-15319381D01*
X2496939Y-15319391D01*
X2408886Y-15531968D01*
X2349335Y-15754220D01*
X2349333Y-15754231D01*
X2319300Y-15982344D01*
X500553Y-15982344D01*
X500553Y-10264182D01*
X11974100Y-10264182D01*
X11974100Y-10462217D01*
X12012731Y-10656427D01*
X12012733Y-10656435D01*
X12088513Y-10839385D01*
X12088518Y-10839394D01*
X12198532Y-11004040D01*
X12198535Y-11004044D01*
X12338555Y-11144064D01*
X12338559Y-11144067D01*
X12503205Y-11254081D01*
X12503214Y-11254086D01*
X12531202Y-11265679D01*
X12686165Y-11329867D01*
X12880382Y-11368499D01*
X12880386Y-11368500D01*
X12880387Y-11368500D01*
X13078414Y-11368500D01*
X13078415Y-11368499D01*
X13272635Y-11329867D01*
X13455588Y-11254085D01*
X13620241Y-11144067D01*
X13760267Y-11004041D01*
X13870285Y-10839388D01*
X13936016Y-10680700D01*
X14618311Y-10680700D01*
X14673974Y-10815086D01*
X14673976Y-10815089D01*
X14778376Y-10971335D01*
X14778382Y-10971343D01*
X14911256Y-11104217D01*
X14911264Y-11104223D01*
X15067510Y-11208623D01*
X15067513Y-11208625D01*
X15201899Y-11264289D01*
X15201900Y-11264289D01*
X15836900Y-11264289D01*
X15971286Y-11208625D01*
X15971289Y-11208623D01*
X16127535Y-11104223D01*
X16127543Y-11104217D01*
X16260417Y-10971343D01*
X16260423Y-10971335D01*
X16364823Y-10815089D01*
X16364825Y-10815086D01*
X16420489Y-10680700D01*
X15836900Y-10680700D01*
X15836900Y-11264289D01*
X15201900Y-11264289D01*
X15201900Y-10680700D01*
X14618311Y-10680700D01*
X13936016Y-10680700D01*
X13946067Y-10656435D01*
X13984700Y-10462213D01*
X13984700Y-10317122D01*
X15169400Y-10317122D01*
X15169400Y-10409278D01*
X15193252Y-10498295D01*
X15239330Y-10578105D01*
X15304495Y-10643270D01*
X15384305Y-10689348D01*
X15473322Y-10713200D01*
X15565478Y-10713200D01*
X15654495Y-10689348D01*
X15734305Y-10643270D01*
X15799470Y-10578105D01*
X15845548Y-10498295D01*
X15869400Y-10409278D01*
X15869400Y-10317122D01*
X15845548Y-10228105D01*
X15799470Y-10148295D01*
X15734305Y-10083130D01*
X15669474Y-10045700D01*
X15836900Y-10045700D01*
X16420489Y-10045700D01*
X16420489Y-10045699D01*
X16364825Y-9911313D01*
X16364823Y-9911310D01*
X16260423Y-9755064D01*
X16260417Y-9755056D01*
X16127543Y-9622182D01*
X16127539Y-9622179D01*
X15971294Y-9517779D01*
X15971284Y-9517774D01*
X15836900Y-9462110D01*
X15836900Y-10045700D01*
X15669474Y-10045700D01*
X15654495Y-10037052D01*
X15565478Y-10013200D01*
X15473322Y-10013200D01*
X15384305Y-10037052D01*
X15304495Y-10083130D01*
X15239330Y-10148295D01*
X15193252Y-10228105D01*
X15169400Y-10317122D01*
X13984700Y-10317122D01*
X13984700Y-10264187D01*
X13964952Y-10164906D01*
X13948795Y-10083678D01*
X13948793Y-10083672D01*
X13946067Y-10069965D01*
X13936016Y-10045699D01*
X14618310Y-10045699D01*
X14618311Y-10045700D01*
X15201900Y-10045700D01*
X15201900Y-9462110D01*
X15201899Y-9462110D01*
X15067515Y-9517774D01*
X15067505Y-9517779D01*
X14911260Y-9622179D01*
X14911256Y-9622182D01*
X14778382Y-9755056D01*
X14778376Y-9755064D01*
X14673976Y-9911310D01*
X14673974Y-9911313D01*
X14618310Y-10045699D01*
X13936016Y-10045699D01*
X13870520Y-9887579D01*
X13870286Y-9887014D01*
X13870281Y-9887005D01*
X13760267Y-9722359D01*
X13760264Y-9722355D01*
X13620244Y-9582335D01*
X13620240Y-9582332D01*
X13455594Y-9472318D01*
X13455585Y-9472313D01*
X13272635Y-9396533D01*
X13272627Y-9396531D01*
X13078417Y-9357900D01*
X13078413Y-9357900D01*
X12880387Y-9357900D01*
X12880382Y-9357900D01*
X12686172Y-9396531D01*
X12686164Y-9396533D01*
X12503214Y-9472313D01*
X12503205Y-9472318D01*
X12338559Y-9582332D01*
X12338555Y-9582335D01*
X12198535Y-9722355D01*
X12198532Y-9722359D01*
X12088518Y-9887005D01*
X12088513Y-9887014D01*
X12012733Y-10069964D01*
X12012731Y-10069972D01*
X11974100Y-10264182D01*
X500553Y-10264182D01*
X500553Y-6252512D01*
X520238Y-6185473D01*
X573042Y-6139718D01*
X642200Y-6129774D01*
X705756Y-6158799D01*
X727653Y-6183619D01*
X837674Y-6348276D01*
X920580Y-6472354D01*
X920590Y-6472368D01*
X1156360Y-6759655D01*
X1419144Y-7022439D01*
X1419149Y-7022443D01*
X1419150Y-7022444D01*
X1706437Y-7258214D01*
X2015450Y-7464690D01*
X2015459Y-7464695D01*
X2015461Y-7464696D01*
X2343205Y-7639879D01*
X2343207Y-7639879D01*
X2343213Y-7639883D01*
X2686570Y-7782106D01*
X3042214Y-7889990D01*
X3406719Y-7962495D01*
X3776577Y-7998922D01*
X3776580Y-7998922D01*
X4148220Y-7998922D01*
X4148223Y-7998922D01*
X4518081Y-7962495D01*
X4882586Y-7889990D01*
X5238230Y-7782106D01*
X5581587Y-7639883D01*
X5909350Y-7464690D01*
X6218363Y-7258214D01*
X6505650Y-7022444D01*
X6768444Y-6759650D01*
X7004214Y-6472363D01*
X7210690Y-6163350D01*
X7385883Y-5835587D01*
X7528106Y-5492230D01*
X7635990Y-5136586D01*
X7708495Y-4772081D01*
X7744922Y-4402223D01*
X7744922Y-4030577D01*
X7708495Y-3660719D01*
X7635990Y-3296214D01*
X7528106Y-2940570D01*
X7411732Y-2659619D01*
X11874100Y-2659619D01*
X11874100Y-4350771D01*
X11874102Y-4350794D01*
X11877061Y-4376306D01*
X11877062Y-4376309D01*
X11923165Y-4480724D01*
X11923166Y-4480725D01*
X12003875Y-4561434D01*
X12057940Y-4585306D01*
X12086691Y-4598001D01*
X12140067Y-4643087D01*
X12160594Y-4709873D01*
X12141756Y-4777155D01*
X12136923Y-4784320D01*
X12034062Y-4925896D01*
X11955079Y-5080909D01*
X11901315Y-5246374D01*
X11874100Y-5418205D01*
X11874100Y-5592194D01*
X11901315Y-5764025D01*
X11924568Y-5835589D01*
X11955078Y-5929488D01*
X12031413Y-6079304D01*
X12034065Y-6084507D01*
X12136318Y-6225248D01*
X12136322Y-6225253D01*
X12259346Y-6348277D01*
X12259351Y-6348281D01*
X12336856Y-6404591D01*
X12400096Y-6450537D01*
X12555112Y-6529522D01*
X12667245Y-6565956D01*
X12720574Y-6583284D01*
X12892406Y-6610500D01*
X12892411Y-6610500D01*
X13066394Y-6610500D01*
X13238225Y-6583284D01*
X13254229Y-6578084D01*
X13403688Y-6529522D01*
X13558704Y-6450537D01*
X13699455Y-6348276D01*
X13822476Y-6225255D01*
X13924737Y-6084504D01*
X14003722Y-5929488D01*
X14057484Y-5764025D01*
X14061185Y-5740656D01*
X14084700Y-5592194D01*
X14084700Y-5418205D01*
X14057484Y-5246374D01*
X14021812Y-5136588D01*
X14003722Y-5080912D01*
X13924737Y-4925896D01*
X13877452Y-4860813D01*
X13821877Y-4784319D01*
X13798397Y-4718512D01*
X13814223Y-4650459D01*
X13864329Y-4601764D01*
X13872080Y-4598013D01*
X13954925Y-4561434D01*
X14035634Y-4480725D01*
X14081738Y-4376309D01*
X14084700Y-4350779D01*
X14084699Y-2659622D01*
X14081738Y-2634091D01*
X14035634Y-2529675D01*
X13954925Y-2448966D01*
X13943146Y-2443765D01*
X13850510Y-2402862D01*
X13824979Y-2399900D01*
X12133828Y-2399900D01*
X12133805Y-2399902D01*
X12108293Y-2402861D01*
X12108290Y-2402862D01*
X12003875Y-2448965D01*
X12003874Y-2448966D01*
X11923168Y-2529673D01*
X11923166Y-2529674D01*
X11877062Y-2634088D01*
X11877062Y-2634090D01*
X11874100Y-2659619D01*
X7411732Y-2659619D01*
X7385883Y-2597213D01*
X7360364Y-2549471D01*
X7210696Y-2269461D01*
X7210695Y-2269459D01*
X7210690Y-2269450D01*
X7004214Y-1960437D01*
X6768444Y-1673150D01*
X6768443Y-1673149D01*
X6768439Y-1673144D01*
X6505655Y-1410360D01*
X6218368Y-1174590D01*
X6218367Y-1174589D01*
X6218363Y-1174586D01*
X5909350Y-968110D01*
X5909345Y-968107D01*
X5909338Y-968103D01*
X5581594Y-792920D01*
X5581589Y-792918D01*
X5428873Y-729661D01*
X5374470Y-685820D01*
X5352405Y-619526D01*
X5369684Y-551827D01*
X5420821Y-504216D01*
X5476326Y-491100D01*
X22747410Y-491100D01*
X22814449Y-510785D01*
G37*
%TD.AperFunction*%
%TD*%
M02*
